<svg width="39" height="64" viewBox="0 0 39 64" fill="none" xmlns="http://www.w3.org/2000/svg">
<path fill-rule="evenodd" clip-rule="evenodd" d="M18.7597 37.7561C18.6412 38.1657 18.5228 38.582 18.4339 38.9983C18.4117 39.1075 18.3895 39.2099 18.3673 39.3191C18.3451 39.4147 18.3229 39.517 18.2859 39.6126C18.1304 39.6467 17.9897 39.6945 17.8417 39.7354C17.9305 39.8447 18.0268 39.9607 18.123 40.0699V40.104L18.1452 40.6773C18.1452 40.8343 18.1452 40.9913 18.1304 41.1414L18.1082 41.3667L18.012 41.899L17.9675 41.9263C17.7899 42.097 17.6344 42.2949 17.4863 42.4928C17.4049 42.6088 17.3309 42.7181 17.2568 42.8409C17.0125 43.2777 16.8349 43.7418 16.709 44.2128C16.672 44.3561 16.635 44.5063 16.635 44.6564C16.635 44.6769 16.635 44.6905 16.635 44.711L16.6942 45.0523C16.8793 44.8612 17.0718 44.6701 17.2642 44.4858C17.4567 44.3015 17.6492 44.1104 17.8491 43.9329C17.8491 44.0558 17.8491 44.1855 17.8491 44.3151C17.8491 45.0045 17.8713 45.6938 17.9009 46.3832C17.9157 46.8336 17.9231 47.2841 17.9305 47.7346C17.9305 48.0008 17.9379 48.2601 17.9527 48.5263L17.7454 48.8539C17.5974 49.1201 17.4641 49.3999 17.3531 49.6866L17.3235 49.7616L17.4863 49.9937C17.5974 49.9528 17.701 49.9255 17.7825 49.8436L17.8195 49.8231C17.8935 49.789 17.9675 49.7548 18.049 49.7275C18.0934 50.2462 18.1452 50.7581 18.197 51.2768C18.2192 51.5362 18.2489 51.7956 18.2785 52.0549L18.1008 52.2528L18.0046 52.3894C17.9009 52.5532 17.8195 52.7238 17.7677 52.9081L17.7528 52.9763L17.9527 53.2766L18.3895 52.9831C18.4265 53.3244 18.471 53.6657 18.508 54.0069C18.5376 54.3345 18.508 54.6621 18.4562 54.9897L18.4117 55.1945C18.3895 55.2832 18.3599 55.3651 18.3303 55.4539C18.3007 55.5221 18.2637 55.5972 18.2341 55.6654L18.012 56.2524L17.8935 56.6551L17.8343 56.7848C17.5752 57.3854 17.3753 58.0133 17.1754 58.6344C17.4123 58.3546 17.6492 58.0679 17.9009 57.7949C17.9675 57.7198 18.0416 57.6447 18.1082 57.5765V57.5628C18.2563 57.4263 18.3969 57.2898 18.545 57.167L18.656 57.0783V57.0646C18.7671 56.9964 18.8707 56.9281 18.9966 56.8735L19.115 56.8325C19.1669 56.8325 19.2187 56.8189 19.2779 56.8189C19.3297 56.8189 19.3815 56.8325 19.4334 56.8394L19.5444 56.8803C19.7443 56.9622 19.9146 57.0851 20.0774 57.2148C20.529 57.5833 20.9658 57.9587 21.4026 58.3341C21.5877 58.4979 21.7654 58.6617 21.9505 58.8323L21.6321 57.9519C21.4767 57.7471 21.3212 57.5424 21.1731 57.3308C21.1213 57.2625 21.0769 57.1943 21.0251 57.126C20.7511 56.6483 20.4698 56.1773 20.2255 55.6859C20.1367 55.4948 20.0552 55.3037 19.9812 55.1058C19.9442 54.9966 19.9146 54.8942 19.885 54.785L19.8405 54.5666C19.8257 54.4574 19.8183 54.355 19.8183 54.2458V54.0888L19.9368 52.8876H20.0552L20.1737 53.0582C20.2477 52.8398 20.2699 52.7716 20.3662 52.4849L20.4476 52.246L20.4624 52.2051C20.5216 52.0208 20.5809 51.8365 20.6401 51.6454L20.6845 51.5294C20.7289 51.4202 20.7882 51.3246 20.8622 51.2222C20.914 51.154 20.9658 51.0857 21.0251 51.0243L21.1435 50.9151C21.0917 50.84 21.0399 50.7718 20.988 50.6967C20.8104 50.4237 20.6401 50.1439 20.4698 49.8709C20.492 49.7548 20.5142 49.6388 20.5438 49.5228C20.5513 49.4613 20.5587 49.3999 20.5587 49.3385C20.5809 48.9768 20.5957 48.615 20.6179 48.2533L20.6771 48.2396C20.7808 48.185 20.8844 48.1304 20.988 48.0827L20.7363 47.4684L20.9288 47.3319L21.0547 47.2022L20.9584 47.0725L20.8622 46.6903L21.0177 46.6221L21.2472 46.4856L21.0251 46.3149L20.9954 46.2808L20.9436 46.1648C20.9288 46.0965 20.9288 46.0283 20.9214 45.96L20.9658 45.9464L21.0325 45.9191L21.1879 45.8099L21.1065 45.6665L21.0177 45.3048L21.1213 45.257L21.2694 45.1478L21.1953 45.0181C21.1657 44.9089 21.1509 44.7997 21.1361 44.6905L21.1213 44.4994C21.2027 44.4516 21.2916 44.4039 21.373 44.3493L21.2323 44.165C21.1583 44.049 21.0917 43.9261 21.0251 43.8033C21.1583 43.7964 21.299 43.776 21.4322 43.7691L21.2916 43.5507L21.1953 43.346L21.0621 42.8204L21.2768 42.6703L21.0177 42.1925L21.1287 42.0901L21.0547 41.9263L21.1139 41.9127C20.9658 41.667 20.8104 41.4213 20.6993 41.1619C20.6771 41.0937 20.6549 41.0322 20.6327 40.964C20.6105 40.9026 20.5883 40.8479 20.5661 40.7865C20.3736 40.2951 20.1589 39.8105 19.9812 39.3191C19.8035 38.814 19.611 38.3158 19.4852 37.7971C19.4556 37.6538 19.4186 37.5036 19.426 37.3535L19.4482 37.2306C19.3964 37.1965 19.3445 37.1692 19.2853 37.1419L19.2409 37.1214L19.1743 37.1077H19.078L18.967 37.1623L18.9226 37.2443C18.8781 37.4149 18.8263 37.5923 18.7745 37.763M17.8047 35.9338C17.4049 35.6949 17.0051 35.4561 16.6202 35.1967C16.5239 35.1284 16.4277 35.067 16.324 34.9988C16.2352 34.9373 16.139 34.8759 16.0427 34.8281C15.9021 34.8964 15.7614 34.9442 15.6133 34.9988C15.5985 34.8623 15.5763 34.7258 15.5689 34.5893L15.5467 34.562L15.1247 34.1251C15.0063 34.0023 14.8878 33.8931 14.762 33.7839L14.5695 33.6269L14.0957 33.2856H14.0438C13.7773 33.272 13.5182 33.2174 13.2591 33.156C13.111 33.1218 12.9704 33.0809 12.8297 33.0331C12.3189 32.8488 11.8377 32.6099 11.3787 32.3369C11.2454 32.2482 11.1048 32.1595 10.9863 32.0503C10.9715 32.0366 10.9567 32.023 10.9493 32.0093L10.7272 31.7227C11.0085 31.7568 11.2973 31.7841 11.5786 31.8114C11.8599 31.8387 12.1486 31.866 12.4374 31.8797C12.3411 31.7909 12.2449 31.6954 12.1486 31.5998C11.6304 31.0811 11.1196 30.5556 10.6236 30.0232C10.2978 29.6751 9.95729 29.3407 9.62415 28.9994C9.43166 28.8015 9.23178 28.6036 9.0467 28.3988L8.64692 28.276C8.32859 28.1667 8.02506 28.0302 7.72893 27.8869L7.64749 27.846L7.59567 27.573C7.70672 27.5388 7.81036 27.4979 7.92882 27.5115H7.97323C8.05467 27.4911 8.1361 27.4706 8.21754 27.4433C7.86219 27.0338 7.51424 26.6174 7.15888 26.2011C6.98121 25.9963 6.80353 25.7848 6.63326 25.5732L6.35194 25.5254L6.17426 25.4776C5.97437 25.4162 5.78189 25.3411 5.60421 25.2319L5.53759 25.191L5.45615 24.8429L6.00399 24.8088C5.77449 24.5289 5.55239 24.2559 5.32289 23.9761C5.09339 23.7167 4.82688 23.4847 4.53816 23.2799L4.35308 23.1502C4.27164 23.0956 4.1902 23.0479 4.10137 23.0069C4.02733 22.9728 3.9459 22.9387 3.87187 22.9045L3.26481 22.5974L2.87984 22.3653L2.73918 22.3039C2.0877 22.0104 1.46583 21.6555 0.843964 21.3143C1.23633 21.3825 1.6213 21.4576 2.01367 21.5122C2.12472 21.5258 2.22836 21.5395 2.332 21.5531H2.34681C2.5541 21.5804 2.76139 21.5941 2.96868 21.6009H3.11674L3.13155 21.6146C3.26481 21.6009 3.39806 21.5941 3.52392 21.56L3.64977 21.519C3.69419 21.4917 3.73861 21.4644 3.77563 21.4371C3.81264 21.403 3.84225 21.3689 3.87927 21.3279L3.93109 21.2324C4.01993 21.0549 4.05695 20.8638 4.07916 20.6659C4.13838 20.1267 4.1828 19.5875 4.21982 19.0483C4.23462 18.8162 4.24203 18.591 4.24943 18.3589L4.67882 19.2053C4.71583 19.451 4.76025 19.6967 4.80467 19.9356C4.81948 20.0175 4.84169 20.0925 4.84909 20.1744C5.00456 20.6932 5.15262 21.2119 5.3451 21.7169C5.41913 21.9149 5.50797 22.0992 5.60421 22.2903C5.65604 22.3926 5.71526 22.4882 5.77449 22.5837L5.90774 22.768C5.98178 22.8568 6.04841 22.9387 6.12984 23.0206L6.25569 23.1366L7.24772 23.9693L7.33656 23.901L7.29954 23.7031C7.52164 23.8191 7.59567 23.8601 7.87699 24.017L8.1213 24.1467L8.16572 24.174C8.3508 24.2764 8.53588 24.3788 8.72096 24.4811L8.83941 24.5426C8.95786 24.5972 9.07631 24.6381 9.20216 24.6654C9.291 24.6859 9.37984 24.7064 9.46868 24.7132H9.63895C9.65376 24.8088 9.66856 24.8975 9.69077 24.9794C9.76481 25.2865 9.84624 25.5937 9.93508 25.9008C10.0387 25.969 10.1424 26.0441 10.2534 26.1124C10.3052 26.1533 10.3571 26.1943 10.4089 26.242C10.6976 26.5014 10.9789 26.7608 11.2751 27.0133L11.3343 26.9928C11.4527 26.9723 11.5712 26.9519 11.6896 26.9314L11.9636 27.532L12.2079 27.5184L12.4003 27.5388L12.4226 27.689L12.6372 28.0302L12.8075 27.9893L13.0888 27.9552L13.0518 28.2145V28.2555L13.1036 28.3715C13.1407 28.4329 13.1925 28.4807 13.2369 28.5353L13.2739 28.5217L13.3405 28.5012H13.5404L13.5849 28.6513L13.7921 28.9789L13.9032 28.9585H14.0957L14.1401 29.095C14.1993 29.1974 14.2733 29.2861 14.3474 29.3748L14.4732 29.525C14.5769 29.5113 14.6731 29.4977 14.7694 29.484L14.8064 29.7024C14.836 29.8321 14.8804 29.9686 14.9322 30.0915C15.0359 30.0164 15.1543 29.9481 15.2654 29.8799L15.3246 30.1256L15.406 30.3303L15.7022 30.8013L15.9761 30.7876L16.1464 31.2927H16.3092L16.3759 31.4633L16.4277 31.436C16.5017 31.7022 16.5683 31.982 16.6868 32.2414C16.7164 32.3028 16.7534 32.3642 16.783 32.4257C16.8126 32.4803 16.8423 32.5417 16.8645 32.5963C17.094 33.0741 17.3013 33.5586 17.5382 34.0296C17.7825 34.5074 18.0194 34.9988 18.3155 35.4561C18.3969 35.5789 18.4858 35.7154 18.6042 35.8178L18.7153 35.8997C18.7005 35.9543 18.6856 36.0089 18.6634 36.0635L18.6412 36.1044L18.6042 36.1522L18.5302 36.2068L18.4043 36.2341L18.3081 36.2C18.1452 36.0976 17.9749 36.0021 17.8047 35.8997V35.9338ZM20.7141 36.0089C21.1139 35.77 21.5137 35.5311 21.8986 35.2718C21.9949 35.2035 22.0911 35.1421 22.1874 35.0738C22.2762 35.0124 22.3724 34.951 22.4687 34.9032C22.6093 34.9715 22.75 35.0192 22.8981 35.0738C22.9129 34.9373 22.9351 34.8008 22.9425 34.6643L22.9647 34.637L23.3867 34.2002C23.5051 34.0774 23.6236 33.9682 23.7494 33.859L23.9419 33.702L24.4157 33.3607H24.4675C24.7341 33.3471 24.9932 33.2925 25.2523 33.231C25.4003 33.1969 25.541 33.156 25.6817 33.1082C26.1925 32.9239 26.6737 32.685 27.1327 32.412C27.2659 32.3233 27.4066 32.2346 27.5251 32.1254C27.5399 32.1117 27.5547 32.0981 27.5621 32.0844L27.7842 31.7977C27.5028 31.8319 27.2141 31.8592 26.9328 31.8865C26.6515 31.9138 26.3628 31.9411 26.074 31.9547C26.1703 31.8592 26.2665 31.7704 26.3628 31.6749C26.881 31.1562 27.3918 30.6306 27.8878 30.0983C28.2136 29.757 28.5541 29.4158 28.8872 29.0745C29.0797 28.8766 29.2796 28.6786 29.4647 28.4739L29.8645 28.351C30.1828 28.2418 30.4863 28.1053 30.7825 27.962L30.8639 27.921L30.9157 27.648C30.8047 27.6139 30.701 27.573 30.5826 27.5866H30.5382C30.4567 27.5661 30.3753 27.5457 30.2938 27.5184C30.6492 27.1088 30.9972 26.6925 31.3525 26.2762C31.5302 26.0714 31.7079 25.8598 31.8781 25.6483L32.1595 25.6005L32.3371 25.5527C32.537 25.4913 32.7295 25.4162 32.9072 25.307L32.9738 25.266L33.0552 24.918L32.5074 24.8838C32.7369 24.604 32.959 24.331 33.1885 24.0512C33.418 23.7918 33.6845 23.5597 33.9732 23.355L34.1583 23.2253C34.2397 23.1707 34.3212 23.1229 34.41 23.082C34.4841 23.0479 34.5655 23.0137 34.6395 22.9796L35.2466 22.6725L35.6315 22.4404L35.7722 22.379C36.4237 22.0855 37.0456 21.7306 37.6674 21.3893C37.2751 21.4576 36.8901 21.5327 36.4977 21.5873C36.3941 21.6009 36.283 21.6146 36.1794 21.6282H36.1646C35.9573 21.6555 35.75 21.6692 35.5427 21.676H35.3946L35.3798 21.6896C35.2466 21.676 35.1133 21.6692 34.9875 21.635L34.8616 21.5941C34.8172 21.5668 34.7728 21.5395 34.7358 21.5122C34.6987 21.4781 34.6691 21.4439 34.6321 21.403L34.5803 21.3074C34.4915 21.13 34.4544 20.9389 34.4322 20.7409C34.373 20.2018 34.3286 19.6626 34.2916 19.1234C34.2768 18.8913 34.2694 18.6661 34.262 18.434L33.8326 19.2804C33.7956 19.5261 33.7511 19.7718 33.7067 20.0106C33.6919 20.0925 33.6697 20.1676 33.6623 20.2495C33.5068 20.7682 33.3588 21.287 33.1663 21.792C33.0923 21.99 33.0034 22.1742 32.9072 22.3653C32.8554 22.4677 32.7961 22.5633 32.7369 22.6588L32.6036 22.8431C32.5296 22.9318 32.463 23.0137 32.3815 23.0956L32.2557 23.2117L31.2637 24.0443L31.1748 23.9761L31.2118 23.7782C30.9897 23.8942 30.9231 23.9351 30.6344 24.0921L30.3901 24.2218L30.3457 24.2423C30.1606 24.3446 29.9755 24.447 29.7904 24.5494L29.672 24.6108C29.5535 24.6654 29.4351 24.6995 29.3092 24.7337C29.2204 24.7542 29.1315 24.7746 29.0427 24.7815H28.8724C28.8576 24.877 28.8428 24.9657 28.8206 25.0476C28.7466 25.3548 28.6651 25.6619 28.5763 25.969C28.4727 26.0373 28.369 26.1124 28.258 26.1806C28.2061 26.2216 28.1543 26.2625 28.1025 26.3103C27.8138 26.5697 27.5325 26.829 27.2363 27.0815L27.1771 27.0611C27.0587 27.0406 26.9402 27.0201 26.8218 26.9996L26.5478 27.6071L26.3035 27.5934L26.111 27.6139L26.0888 27.7641L25.8741 28.1053L25.7039 28.0644L25.4226 28.0302L25.4596 28.2896V28.3306L25.4077 28.4466C25.3707 28.508 25.3189 28.5558 25.2745 28.6104L25.2375 28.5967L25.1708 28.5763H24.971L24.9265 28.7264L24.7192 29.054L24.6082 29.0335H24.4157L24.3713 29.17C24.3121 29.2724 24.238 29.3612 24.164 29.4499L24.0382 29.6C23.9419 29.5864 23.8383 29.5727 23.742 29.5591L23.705 29.7775C23.6754 29.9072 23.631 30.0437 23.5792 30.1665C23.4755 30.0915 23.3571 30.0232 23.246 29.9549L23.1868 30.2007L23.1054 30.4054L22.8092 30.8763L22.5353 30.8627L22.365 31.3678H22.2022L22.1355 31.5384L22.0837 31.5111C22.0097 31.7773 21.9431 32.0571 21.8246 32.3165C21.795 32.3779 21.758 32.4393 21.7284 32.5007C21.6987 32.5553 21.6691 32.6168 21.6469 32.6714C21.4174 33.1491 21.2101 33.6337 20.9732 34.1047C20.7289 34.5824 20.492 35.0738 20.1959 35.5311C20.1145 35.654 20.0256 35.7905 19.9072 35.8929L19.7961 35.9748C19.8109 36.0294 19.8257 36.084 19.8479 36.1386L19.8702 36.1795L19.9072 36.2273L19.9812 36.2819L20.1071 36.3092L20.2033 36.2751C20.3662 36.1727 20.5364 36.0771 20.7067 35.9748L20.7141 36.0089ZM39 16.9393H0V56.9827C0 58.2522 1.17711 59.2896 2.61333 59.2896H15.68C17.6936 59.2896 18.9226 60.1564 19.4778 62.0606C20.1959 60.1701 21.7432 59.2896 23.594 59.2896H35.8981C37.6008 59.2896 38.9852 58.0611 38.9852 56.5664V16.9257L39 16.9393Z" fill="white"/>
<path fill-rule="evenodd" clip-rule="evenodd" d="M27.3805 12.3724C27.3805 12.3724 24.5834 11.8 19.929 11.82C15.282 11.84 12.0853 12.5787 12.0853 12.5787C12.0039 12.592 11.8782 12.9647 11.9521 13.0113C12.0261 13.0646 13.8761 13.5171 16.7693 13.5637C19.6626 13.617 22.5189 13.4972 24.391 13.3441C26.2557 13.191 27.4323 12.9248 27.5655 12.805C27.6025 12.7385 27.6617 12.399 27.3805 12.3724ZM31.8351 2.3427L28.4756 10.6553C28.4756 10.6553 28.7124 10.8217 28.7716 11.1278C28.8308 11.4273 28.2462 11.5139 28.2462 11.5139C28.2462 11.5139 28.113 12.0197 28.2462 12.2393C28.3794 12.4589 28.557 12.4722 28.557 12.6586C28.557 12.8449 28.5348 13.0446 28.0464 13.2975C26.7737 13.8499 21.7937 14.0695 18.9004 14.1028C16.0072 14.1361 12.4553 13.7168 11.5526 13.5504C10.6572 13.384 10.6572 13.1112 10.672 12.8583C10.6942 12.6053 11.005 12.3192 11.005 12.3192L10.968 11.7801C10.968 11.7801 10.9088 11.7468 10.8126 11.7468C10.7164 11.7468 10.5018 11.627 10.4426 11.4074C10.3834 11.1877 10.7164 10.8883 10.7164 10.8883L7.09056 2.66216C7.09056 2.66216 7.02396 2.66216 6.98697 2.66216C6.52819 2.66216 6.1582 2.3427 6.1582 1.95003C6.1582 1.55737 6.52819 1.23791 6.98697 1.23791C7.44575 1.23791 7.81573 1.55737 7.81573 1.95003C7.81573 2.0898 7.77133 2.22291 7.68994 2.32939C8.3929 3.26115 9.51765 3.92669 10.5536 4.24615C11.523 4.51902 13.0177 4.96494 13.0177 4.96494C13.0177 4.96494 13.3729 4.01321 13.5061 3.60058C13.5061 3.37429 13.4617 3.1347 13.4025 2.88179C13.2027 2.80858 13.0473 2.66216 12.9955 2.4625C12.9141 2.14304 13.1509 1.83024 13.5209 1.76368C13.8909 1.69713 14.2534 1.89679 14.3274 2.2096C14.3792 2.4026 14.3052 2.59561 14.1646 2.72872C14.2016 2.955 14.2534 3.16798 14.3274 3.36764C14.4236 3.48743 14.542 3.6272 14.6826 3.77362C15.3634 4.47909 16.0146 4.93166 16.0146 4.93166C16.0146 4.93166 16.5251 4.54564 17.4205 4.10639C17.6499 3.99325 17.8497 3.86014 18.0199 3.72037C18.6711 3.12139 19.1076 2.38264 19.115 1.34439C18.8486 1.2246 18.6711 0.985001 18.6711 0.712129C18.6711 0.31946 19.041 0 19.4998 0C19.9586 0 20.3286 0.31946 20.3286 0.712129C20.3286 0.985001 20.151 1.2246 19.8846 1.34439C19.8846 1.98331 20.0474 2.50909 20.3286 2.955C20.5062 3.16797 20.7208 3.38095 20.9724 3.5673C21.8529 4.2395 22.5559 4.52568 23.0813 4.72534C23.2958 4.62551 23.8804 4.17294 24.5094 3.39426C24.5686 3.32105 24.6204 3.2545 24.6648 3.18129C24.724 2.96166 24.7684 2.72872 24.7832 2.47581C24.6278 2.34936 24.539 2.16301 24.5686 1.97C24.6204 1.65054 24.9608 1.42426 25.3308 1.46419C25.7007 1.50412 25.9671 1.80362 25.9153 2.12308C25.8857 2.32274 25.7451 2.48247 25.5453 2.56899C25.4936 2.88845 25.4935 3.18794 25.5231 3.46747C25.6711 4.06645 26.0781 4.85845 26.0781 4.85845C26.0781 4.85845 26.4333 4.70537 27.0919 4.47244C27.7727 4.21287 28.2166 4.10639 28.5718 4.02652C29.593 3.66713 30.6807 2.96166 31.3319 2.00328C31.2431 1.89679 31.1913 1.77034 31.1839 1.63058C31.1617 1.23791 31.5169 0.905136 31.9757 0.885169C32.4344 0.865203 32.8192 1.17135 32.8414 1.56402C32.8636 1.95669 32.5084 2.28946 32.0497 2.30943C31.9757 2.30943 31.9091 2.30943 31.8425 2.29612L31.8203 2.32939L31.8351 2.3427Z" fill="white"/>
</svg>
