<svg width="40" height="40" viewBox="0 0 40 40" fill="none" xmlns="http://www.w3.org/2000/svg">
<g id="Microwave">
<g id="microwave--cook-food-appliances-cooking-nutrition-appliance-microwave-kitchenware">
<path id="Vector" d="M37.144 7.14062H2.85826C2.06928 7.14062 1.42969 7.78023 1.42969 8.5692V31.4263C1.42969 32.2152 2.06928 32.8549 2.85826 32.8549H37.144C37.9328 32.8549 38.5725 32.2152 38.5725 31.4263V8.5692C38.5725 7.78023 37.9328 7.14062 37.144 7.14062Z" stroke="#2D6FD0" stroke-width="2" stroke-linecap="round" stroke-linejoin="round"/>
<path id="Vector_2" d="M24.2874 12.8555H8.5731C7.78413 12.8555 7.14453 13.4951 7.14453 14.284V25.7126C7.14453 26.5016 7.78413 27.1412 8.5731 27.1412H24.2874C25.0764 27.1412 25.716 26.5016 25.716 25.7126V14.284C25.716 13.4951 25.0764 12.8555 24.2874 12.8555Z" stroke="#2D6FD0" stroke-width="2" stroke-linecap="round" stroke-linejoin="round"/>
<path id="Vector_3" d="M31.4297 14.2812H32.8583" stroke="#2D6FD0" stroke-width="2" stroke-linecap="round" stroke-linejoin="round"/>
<path id="Vector_4" d="M31.4297 20H32.8583" stroke="#2D6FD0" stroke-width="2" stroke-linecap="round" stroke-linejoin="round"/>
</g>
</g>
</svg>
