<svg width="40" height="40" viewBox="0 0 40 40" fill="none" xmlns="http://www.w3.org/2000/svg">
<g id="Car Taxi 1" clip-path="url(#clip0_1662_327942)">
<g id="car-taxi-1--transportation-travel-taxi-transport-cab-car">
<path id="Vector" d="M5.41112 27.5892H3.94075C3.1608 27.5892 2.41282 27.2795 1.86132 26.7278C1.30983 26.1764 1 25.4283 1 24.6484V18.767C1 17.987 1.30983 17.2391 1.86132 16.6876C2.41282 16.136 3.1608 15.8262 3.94075 15.8262H8.35187L10.6162 9.00371C10.8209 8.39503 11.2191 7.87005 11.7501 7.50895C12.2811 7.14786 12.9157 6.97053 13.557 7.004H25.3494C25.9907 6.97053 26.6253 7.14786 27.1563 7.50895C27.6873 7.87005 28.0855 8.39503 28.2901 9.00371L30.4075 15.8262H36.289C37.0689 15.8262 37.817 16.136 38.3684 16.6876C38.9198 17.2391 39.2297 17.987 39.2297 18.767V24.6484C39.2297 25.4283 38.9198 26.1764 38.3684 26.7278C37.817 27.2795 37.0689 27.5892 36.289 27.5892H34.8186" stroke="#2D6FD0" stroke-width="2" stroke-linecap="round" stroke-linejoin="round"/>
<path id="Vector_2" d="M30.4063 32.0003C27.9685 32.0003 25.9922 30.0241 25.9922 27.5862C25.9922 25.1481 27.9685 23.1719 30.4063 23.1719C32.8445 23.1719 34.8206 25.1481 34.8206 27.5862C34.8206 30.0241 32.8445 32.0003 30.4063 32.0003Z" stroke="#2D6FD0" stroke-width="2" stroke-linecap="round" stroke-linejoin="round"/>
<path id="Vector_3" d="M9.82049 32.0003C7.38258 32.0003 5.40625 30.0241 5.40625 27.5862C5.40625 25.1484 7.38258 23.1719 9.82049 23.1719C12.2584 23.1719 14.2347 25.1484 14.2347 27.5862C14.2347 30.0241 12.2584 32.0003 9.82049 32.0003Z" stroke="#2D6FD0" stroke-width="2" stroke-linecap="round" stroke-linejoin="round"/>
<path id="Vector_4" d="M25.9873 27.5898H14.2305" stroke="#2D6FD0" stroke-width="2" stroke-linecap="round" stroke-linejoin="round"/>
</g>
</g>
<defs>
<clipPath id="clip0_1662_327942">
<rect width="40" height="40" fill="white"/>
</clipPath>
</defs>
</svg>
