<svg width="172" height="38" viewBox="0 0 172 38" fill="none" xmlns="http://www.w3.org/2000/svg">
<g filter="url(#filter0_d_2298_69855)">
<mask id="path-1-inside-1_2298_69855" fill="white">
<path fill-rule="evenodd" clip-rule="evenodd" d="M5.27606 1.65396C6.55953 1 8.23969 1 11.6 1L154.4 1.00001C157.76 1.00001 159.44 1.00001 160.724 1.65397C161.853 2.22921 162.771 3.14709 163.346 4.27606C164 5.55953 164 7.23969 164 10.6L164 11.1716C164 11.702 164.211 12.2107 164.586 12.5858L168.586 16.5858C169.367 17.3668 169.367 18.6332 168.586 19.4142L164.586 23.4142C164.211 23.7893 164 24.298 164 24.8284L164 25.4C164 28.7603 164 30.4405 163.346 31.724C162.771 32.8529 161.853 33.7708 160.724 34.346C159.44 35 157.76 35 154.4 35L11.6 35C8.23968 35 6.55953 35 5.27606 34.346C4.14708 33.7708 3.2292 32.8529 2.65396 31.7239C2 30.4405 2 28.7603 2 25.4L2 10.6C2 7.23969 2 5.55953 2.65396 4.27606C3.2292 3.14708 4.14708 2.2292 5.27606 1.65396Z"/>
</mask>
<path fill-rule="evenodd" clip-rule="evenodd" d="M5.27606 1.65396C6.55953 1 8.23969 1 11.6 1L154.4 1.00001C157.76 1.00001 159.44 1.00001 160.724 1.65397C161.853 2.22921 162.771 3.14709 163.346 4.27606C164 5.55953 164 7.23969 164 10.6L164 11.1716C164 11.702 164.211 12.2107 164.586 12.5858L168.586 16.5858C169.367 17.3668 169.367 18.6332 168.586 19.4142L164.586 23.4142C164.211 23.7893 164 24.298 164 24.8284L164 25.4C164 28.7603 164 30.4405 163.346 31.724C162.771 32.8529 161.853 33.7708 160.724 34.346C159.44 35 157.76 35 154.4 35L11.6 35C8.23968 35 6.55953 35 5.27606 34.346C4.14708 33.7708 3.2292 32.8529 2.65396 31.7239C2 30.4405 2 28.7603 2 25.4L2 10.6C2 7.23969 2 5.55953 2.65396 4.27606C3.2292 3.14708 4.14708 2.2292 5.27606 1.65396Z" fill="white"/>
<path d="M11.6 1L11.6 2L11.6 1ZM5.27606 1.65396L5.73005 2.54497L5.27606 1.65396ZM154.4 1.00001L154.4 6.66162e-06L154.4 1.00001ZM160.724 1.65397L160.27 2.54498L160.27 2.54497L160.724 1.65397ZM163.346 4.27606L164.237 3.82207L164.237 3.82207L163.346 4.27606ZM164 10.6L163 10.6L164 10.6ZM164 25.4L165 25.4L164 25.4ZM163.346 31.724L164.237 32.1779L163.346 31.724ZM160.724 34.346L160.27 33.455L160.724 34.346ZM154.4 35L154.4 34L154.4 35ZM11.6 35L11.6 36L11.6 35ZM5.27606 34.346L4.82206 35.237L4.82206 35.237L5.27606 34.346ZM2.65396 31.7239L1.76295 32.1779H1.76295L2.65396 31.7239ZM2 25.4L3 25.4L2 25.4ZM2 10.6L1 10.6L2 10.6ZM2.65396 4.27606L3.54497 4.73005L2.65396 4.27606ZM164.586 23.4142L163.879 22.7071L164.586 23.4142ZM164 24.8284L163 24.8284L164 24.8284ZM168.586 16.5858L167.879 17.2929L168.586 16.5858ZM168.586 19.4142L169.293 20.1213L168.586 19.4142ZM164 11.1716L165 11.1716L164 11.1716ZM164.586 12.5858L163.879 13.2929L164.586 12.5858ZM11.6 2C9.90335 2 8.69099 2.00078 7.74064 2.07842C6.80197 2.15512 6.20731 2.30179 5.73005 2.54497L4.82207 0.762954C5.62827 0.352173 6.51543 0.171864 7.57778 0.0850664C8.62846 -0.000777432 9.93635 3.46909e-07 11.6 4.1963e-07L11.6 2ZM154.4 2.00001L11.6 2L11.6 4.1963e-07L154.4 6.66162e-06L154.4 2.00001ZM160.27 2.54497C159.793 2.30179 159.198 2.15512 158.259 2.07843C157.309 2.00078 156.097 2.00001 154.4 2.00001L154.4 6.66162e-06C156.064 6.73434e-06 157.372 -0.00077093 158.422 0.085073C159.485 0.171871 160.372 0.35218 161.178 0.762962L160.27 2.54497ZM162.455 4.73005C161.976 3.78924 161.211 3.02434 160.27 2.54498L161.178 0.76296C162.495 1.43407 163.566 2.50494 164.237 3.82207L162.455 4.73005ZM163 10.6C163 8.90335 162.999 7.691 162.922 6.74065C162.845 5.80198 162.698 5.20732 162.455 4.73005L164.237 3.82207C164.648 4.62828 164.828 5.51543 164.915 6.57779C165.001 7.62847 165 8.93635 165 10.6L163 10.6ZM163 11.1716L163 10.6L165 10.6L165 11.1716L163 11.1716ZM167.879 17.2929L163.879 13.2929L165.293 11.8787L169.293 15.8787L167.879 17.2929ZM163.879 22.7071L167.879 18.7071L169.293 20.1213L165.293 24.1213L163.879 22.7071ZM163 25.4L163 24.8284L165 24.8284L165 25.4L163 25.4ZM162.455 31.27C162.698 30.7927 162.845 30.198 162.922 29.2594C162.999 28.309 163 27.0967 163 25.4L165 25.4C165 27.0637 165.001 28.3715 164.915 29.4222C164.828 30.4846 164.648 31.3717 164.237 32.1779L162.455 31.27ZM160.27 33.455C161.211 32.9757 161.976 32.2108 162.455 31.27L164.237 32.1779C163.566 33.4951 162.495 34.5659 161.178 35.2371L160.27 33.455ZM154.4 34C156.097 34 157.309 33.9992 158.259 33.9216C159.198 33.8449 159.793 33.6982 160.27 33.455L161.178 35.2371C160.372 35.6478 159.485 35.8281 158.422 35.9149C157.372 36.0008 156.064 36 154.4 36L154.4 34ZM11.6 34L154.4 34L154.4 36L11.6 36L11.6 34ZM5.73005 33.455C6.20731 33.6982 6.80197 33.8449 7.74064 33.9216C8.69099 33.9992 9.90334 34 11.6 34L11.6 36C9.93634 36 8.62846 36.0008 7.57778 35.9149C6.51542 35.8281 5.62827 35.6478 4.82206 35.237L5.73005 33.455ZM3.54497 31.27C4.02433 32.2108 4.78924 32.9757 5.73005 33.455L4.82206 35.237C3.50493 34.5659 2.43407 33.4951 1.76295 32.1779L3.54497 31.27ZM3 25.4C3 27.0967 3.00078 28.309 3.07842 29.2594C3.15512 30.198 3.30179 30.7927 3.54497 31.27L1.76295 32.1779C1.35217 31.3717 1.17186 30.4846 1.08506 29.4222C0.999221 28.3715 0.999999 27.0637 0.999999 25.4L3 25.4ZM3 10.6L3 25.4L0.999999 25.4L1 10.6L3 10.6ZM3.54497 4.73005C3.30179 5.20732 3.15512 5.80197 3.07842 6.74064C3.00078 7.69099 3 8.90334 3 10.6L1 10.6C1 8.93634 0.999222 7.62846 1.08507 6.57778C1.17186 5.51543 1.35217 4.62827 1.76295 3.82207L3.54497 4.73005ZM5.73005 2.54497C4.78924 3.02433 4.02433 3.78924 3.54497 4.73005L1.76295 3.82207C2.43407 2.50493 3.50493 1.43407 4.82207 0.762954L5.73005 2.54497ZM165.293 24.1213C165.105 24.3089 165 24.5632 165 24.8284L163 24.8284C163 24.0328 163.316 23.2697 163.879 22.7071L165.293 24.1213ZM169.293 15.8787C170.464 17.0503 170.464 18.9498 169.293 20.1213L167.879 18.7071C168.269 18.3166 168.269 17.6834 167.879 17.2929L169.293 15.8787ZM165 11.1716C165 11.4368 165.105 11.6912 165.293 11.8787L163.879 13.2929C163.316 12.7303 163 11.9672 163 11.1716L165 11.1716Z" fill="#E5E5E7" mask="url(#path-1-inside-1_2298_69855)"/>
</g>
<defs>
<filter id="filter0_d_2298_69855" x="0" y="0" width="171.172" height="38" filterUnits="userSpaceOnUse" color-interpolation-filters="sRGB">
<feFlood flood-opacity="0" result="BackgroundImageFix"/>
<feColorMatrix in="SourceAlpha" type="matrix" values="0 0 0 0 0 0 0 0 0 0 0 0 0 0 0 0 0 0 127 0" result="hardAlpha"/>
<feOffset dy="1"/>
<feGaussianBlur stdDeviation="1"/>
<feComposite in2="hardAlpha" operator="out"/>
<feColorMatrix type="matrix" values="0 0 0 0 0.0627451 0 0 0 0 0.0941176 0 0 0 0 0.156863 0 0 0 0.04 0"/>
<feBlend mode="normal" in2="BackgroundImageFix" result="effect1_dropShadow_2298_69855"/>
<feBlend mode="normal" in="SourceGraphic" in2="effect1_dropShadow_2298_69855" result="shape"/>
</filter>
</defs>
</svg>
