<svg width="166" height="44" viewBox="0 0 166 44" fill="none" xmlns="http://www.w3.org/2000/svg">
<g filter="url(#filter0_d_2298_45799)">
<mask id="path-1-inside-1_2298_45799" fill="white">
<path fill-rule="evenodd" clip-rule="evenodd" d="M2.65396 4.27606C2 5.55953 2 7.23968 2 10.6V25.4C2 28.7603 2 30.4405 2.65396 31.7239C3.2292 32.8529 4.14708 33.7708 5.27606 34.346C6.55953 35 8.23969 35 11.6 35H76.1716C76.702 35 77.2107 35.2107 77.5858 35.5858L81.5858 39.5858C82.3668 40.3668 83.6332 40.3668 84.4142 39.5858L88.4142 35.5858C88.7893 35.2107 89.298 35 89.8284 35H154.4C157.76 35 159.44 35 160.724 34.346C161.853 33.7708 162.771 32.8529 163.346 31.7239C164 30.4405 164 28.7603 164 25.4V10.6C164 7.23969 164 5.55953 163.346 4.27606C162.771 3.14708 161.853 2.2292 160.724 1.65396C159.44 1 157.76 1 154.4 1H11.6C8.23969 1 6.55953 1 5.27606 1.65396C4.14708 2.2292 3.2292 3.14708 2.65396 4.27606Z"/>
</mask>
<path fill-rule="evenodd" clip-rule="evenodd" d="M2.65396 4.27606C2 5.55953 2 7.23968 2 10.6V25.4C2 28.7603 2 30.4405 2.65396 31.7239C3.2292 32.8529 4.14708 33.7708 5.27606 34.346C6.55953 35 8.23969 35 11.6 35H76.1716C76.702 35 77.2107 35.2107 77.5858 35.5858L81.5858 39.5858C82.3668 40.3668 83.6332 40.3668 84.4142 39.5858L88.4142 35.5858C88.7893 35.2107 89.298 35 89.8284 35H154.4C157.76 35 159.44 35 160.724 34.346C161.853 33.7708 162.771 32.8529 163.346 31.7239C164 30.4405 164 28.7603 164 25.4V10.6C164 7.23969 164 5.55953 163.346 4.27606C162.771 3.14708 161.853 2.2292 160.724 1.65396C159.44 1 157.76 1 154.4 1H11.6C8.23969 1 6.55953 1 5.27606 1.65396C4.14708 2.2292 3.2292 3.14708 2.65396 4.27606Z" fill="white"/>
<path d="M2.65396 4.27606L3.54497 4.73005L2.65396 4.27606ZM2.65396 31.7239L1.76295 32.1779H1.76295L2.65396 31.7239ZM5.27606 34.346L4.82207 35.237H4.82207L5.27606 34.346ZM160.724 34.346L160.27 33.455L160.724 34.346ZM163.346 31.7239L164.237 32.1779L163.346 31.7239ZM163.346 4.27606L164.237 3.82207V3.82207L163.346 4.27606ZM160.724 1.65396L160.27 2.54497V2.54497L160.724 1.65396ZM5.27606 1.65396L5.73005 2.54497L5.27606 1.65396ZM3 10.6C3 8.90334 3.00078 7.69099 3.07842 6.74064C3.15512 5.80197 3.30179 5.20731 3.54497 4.73005L1.76295 3.82207C1.35217 4.62827 1.17186 5.51543 1.08507 6.57778C0.999222 7.62846 1 8.93634 1 10.6H3ZM3 25.4V10.6H1V25.4H3ZM3.54497 31.27C3.30179 30.7927 3.15512 30.198 3.07842 29.2594C3.00078 28.309 3 27.0967 3 25.4H1C1 27.0637 0.999222 28.3715 1.08507 29.4222C1.17186 30.4846 1.35217 31.3717 1.76295 32.1779L3.54497 31.27ZM5.73005 33.455C4.78924 32.9757 4.02433 32.2108 3.54497 31.27L1.76295 32.1779C2.43407 33.4951 3.50493 34.5659 4.82207 35.237L5.73005 33.455ZM11.6 34C9.90335 34 8.69099 33.9992 7.74064 33.9216C6.80197 33.8449 6.20731 33.6982 5.73005 33.455L4.82207 35.237C5.62827 35.6478 6.51543 35.8281 7.57778 35.9149C8.62846 36.0008 9.93635 36 11.6 36V34ZM76.1716 34H11.6V36H76.1716V34ZM82.2929 38.8787L78.2929 34.8787L76.8787 36.2929L80.8787 40.2929L82.2929 38.8787ZM87.7071 34.8787L83.7071 38.8787L85.1213 40.2929L89.1213 36.2929L87.7071 34.8787ZM154.4 34H89.8284V36H154.4V34ZM160.27 33.455C159.793 33.6982 159.198 33.8449 158.259 33.9216C157.309 33.9992 156.097 34 154.4 34V36C156.064 36 157.372 36.0008 158.422 35.9149C159.485 35.8281 160.372 35.6478 161.178 35.237L160.27 33.455ZM162.455 31.27C161.976 32.2108 161.211 32.9757 160.27 33.455L161.178 35.237C162.495 34.5659 163.566 33.4951 164.237 32.1779L162.455 31.27ZM163 25.4C163 27.0967 162.999 28.309 162.922 29.2594C162.845 30.198 162.698 30.7927 162.455 31.27L164.237 32.1779C164.648 31.3717 164.828 30.4846 164.915 29.4222C165.001 28.3715 165 27.0637 165 25.4H163ZM163 10.6V25.4H165V10.6H163ZM162.455 4.73005C162.698 5.20731 162.845 5.80197 162.922 6.74064C162.999 7.69099 163 8.90334 163 10.6H165C165 8.93634 165.001 7.62846 164.915 6.57778C164.828 5.51543 164.648 4.62827 164.237 3.82207L162.455 4.73005ZM160.27 2.54497C161.211 3.02433 161.976 3.78924 162.455 4.73005L164.237 3.82207C163.566 2.50493 162.495 1.43407 161.178 0.762953L160.27 2.54497ZM154.4 2C156.097 2 157.309 2.00078 158.259 2.07842C159.198 2.15512 159.793 2.30179 160.27 2.54497L161.178 0.762956C160.372 0.352173 159.485 0.171864 158.422 0.0850662C157.372 -0.000777721 156.064 0 154.4 0V2ZM11.6 2H154.4V0H11.6V2ZM5.73005 2.54497C6.20731 2.30179 6.80197 2.15512 7.74064 2.07842C8.69099 2.00078 9.90334 2 11.6 2V0C9.93634 0 8.62846 -0.000777721 7.57778 0.0850662C6.51543 0.171864 5.62827 0.352173 4.82207 0.762954L5.73005 2.54497ZM3.54497 4.73005C4.02433 3.78924 4.78924 3.02433 5.73005 2.54497L4.82207 0.762954C3.50493 1.43407 2.43407 2.50493 1.76295 3.82207L3.54497 4.73005ZM89.1213 36.2929C89.3089 36.1054 89.5632 36 89.8284 36V34C89.0328 34 88.2697 34.3161 87.7071 34.8787L89.1213 36.2929ZM80.8787 40.2929C82.0503 41.4645 83.9497 41.4645 85.1213 40.2929L83.7071 38.8787C83.3166 39.2692 82.6834 39.2692 82.2929 38.8787L80.8787 40.2929ZM76.1716 36C76.4368 36 76.6911 36.1054 76.8787 36.2929L78.2929 34.8787C77.7303 34.3161 76.9672 34 76.1716 34V36Z" fill="#DEE2E7" mask="url(#path-1-inside-1_2298_45799)"/>
</g>
<defs>
<filter id="filter0_d_2298_45799" x="0" y="0" width="166" height="43.1714" filterUnits="userSpaceOnUse" color-interpolation-filters="sRGB">
<feFlood flood-opacity="0" result="BackgroundImageFix"/>
<feColorMatrix in="SourceAlpha" type="matrix" values="0 0 0 0 0 0 0 0 0 0 0 0 0 0 0 0 0 0 127 0" result="hardAlpha"/>
<feOffset dy="1"/>
<feGaussianBlur stdDeviation="1"/>
<feComposite in2="hardAlpha" operator="out"/>
<feColorMatrix type="matrix" values="0 0 0 0 0.0627451 0 0 0 0 0.0941176 0 0 0 0 0.156863 0 0 0 0.04 0"/>
<feBlend mode="normal" in2="BackgroundImageFix" result="effect1_dropShadow_2298_45799"/>
<feBlend mode="normal" in="SourceGraphic" in2="effect1_dropShadow_2298_45799" result="shape"/>
</filter>
</defs>
</svg>
