<svg width="40" height="40" viewBox="0 0 40 40" fill="none" xmlns="http://www.w3.org/2000/svg">
<path d="M33.97 15.4083C31.5594 17.5064 27.7678 17.1489 25.792 14.6372C23.8163 12.1255 24.3618 8.3563 26.9685 6.50778C29.4063 4.58027 37.1446 5.7141 37.1446 5.7141C37.1446 5.7141 36.436 13.4808 33.97 15.4083Z" stroke="#2D6FD0" stroke-width="2" stroke-linecap="round" stroke-linejoin="round"/>
<path d="M8.49906 20.2087C10.6101 22.0462 13.9307 21.7331 15.661 19.5334C17.3899 17.3355 16.8877 14.0144 14.6307 12.4139C12.4958 10.7259 5.71875 11.7188 5.71875 11.7188C5.71875 11.7188 6.33935 18.5207 8.49906 20.2087Z" stroke="#2D6FD0" stroke-width="2" stroke-linecap="round" stroke-linejoin="round"/>
<path d="M1.42969 34.2856C1.42969 34.2856 7.14397 28.5713 20.0011 28.5713C32.8583 28.5713 38.5725 34.2856 38.5725 34.2856" stroke="#2D6FD0" stroke-width="2" stroke-linecap="round" stroke-linejoin="round"/>
<path d="M26.0549 14.96L25.6747 15.315C22.8176 18.1721 20.2754 24.7537 20.001 28.5712C20.001 24.0484 19.1286 22.0411 15.9443 19.4852L15.8047 19.3524" stroke="#2D6FD0" stroke-width="2" stroke-linecap="round" stroke-linejoin="round"/>
</svg>
