<svg width="32" height="32" viewBox="0 0 32 32" fill="none" xmlns="http://www.w3.org/2000/svg">
<g clip-path="url(#clip0_2974_417767)">
<path d="M8.04688 15.4199C8.04688 16.4808 8.4683 17.4982 9.21845 18.2483C9.96859 18.9985 10.986 19.4199 12.0469 19.4199C13.1077 19.4199 14.1252 18.9985 14.8753 18.2483C15.6254 17.4982 16.0469 16.4808 16.0469 15.4199C16.0469 14.3591 15.6254 13.3416 14.8753 12.5915C14.1252 11.8413 13.1077 11.4199 12.0469 11.4199C10.986 11.4199 9.96859 11.8413 9.21845 12.5915C8.4683 13.3416 8.04688 14.3591 8.04688 15.4199Z" stroke="white" stroke-width="2" stroke-linecap="round" stroke-linejoin="round"/>
<path d="M22.0096 19.978C19.8433 25.7872 14.3172 30.8482 12.0446 30.8482C9.1875 30.8482 1.1875 22.8482 1.1875 15.4196C1.1875 9.42342 6.04841 4.5625 12.0446 4.5625C12.3834 4.5625 12.7185 4.57802 13.0493 4.60837" stroke="white" stroke-width="2" stroke-linecap="round" stroke-linejoin="round"/>
<path d="M17.5955 8.61587C16.8328 8.48319 16.8328 7.38824 17.5955 7.25555C20.3587 6.77482 22.5565 4.67013 23.1563 1.93027L23.2023 1.72025C23.3673 0.966425 24.4407 0.961732 24.6121 1.71409L24.6681 1.95884C25.2901 4.68577 27.4885 6.7727 30.2439 7.25208C31.0105 7.38545 31.0105 8.48597 30.2439 8.61935C27.4885 9.09873 25.2901 11.1857 24.6681 13.9126L24.6121 14.1573C24.4407 14.9097 23.3673 14.905 23.2023 14.1512L23.1563 13.9412C22.5565 11.2013 20.3587 9.0966 17.5955 8.61587Z" stroke="white" stroke-width="2" stroke-linecap="round" stroke-linejoin="round"/>
</g>
<defs>
<clipPath id="clip0_2974_417767">
<rect width="32" height="32" fill="white"/>
</clipPath>
</defs>
</svg>
