<svg width="32" height="32" viewBox="0 0 32 32" fill="none" xmlns="http://www.w3.org/2000/svg">
<g clip-path="url(#clip0_2974_417722)">
<path d="M16.4141 8.56445L25.2316 23.8366" stroke="white" stroke-width="2" stroke-linecap="round" stroke-linejoin="round"/>
<path d="M24.7687 23.0338L3.03278 28.0809L1.64062 25.6694L16.8796 9.36914" stroke="white" stroke-width="2" stroke-linecap="round" stroke-linejoin="round"/>
<path d="M7.75781 26.9825L8.95468 29.0554C9.38888 29.7996 10.1009 30.3409 10.9341 30.5601C11.7673 30.779 12.6535 30.6584 13.3977 30.2241C14.1419 29.79 14.6831 29.078 14.9022 28.2446C15.1214 27.4115 15.0006 26.5253 14.5665 25.7811L14.3748 25.4492" stroke="white" stroke-width="2" stroke-linecap="round" stroke-linejoin="round"/>
<path d="M17.0156 4.19909V1.33398" stroke="white" stroke-width="2" stroke-linecap="round" stroke-linejoin="round"/>
<path d="M27.9922 15.1758H30.8573" stroke="white" stroke-width="2" stroke-linecap="round" stroke-linejoin="round"/>
<path d="M3.17188 15.1758H6.03697" stroke="white" stroke-width="2" stroke-linecap="round" stroke-linejoin="round"/>
<path d="M7.22656 5.38867L9.25251 7.41461" stroke="white" stroke-width="2" stroke-linecap="round" stroke-linejoin="round"/>
<path d="M24.7734 7.41461L26.7993 5.38867" stroke="white" stroke-width="2" stroke-linecap="round" stroke-linejoin="round"/>
</g>
<defs>
<clipPath id="clip0_2974_417722">
<rect width="32" height="32" fill="white"/>
</clipPath>
</defs>
</svg>
