<svg width="40" height="40" viewBox="0 0 40 40" fill="none" xmlns="http://www.w3.org/2000/svg">
<path d="M19.5 35V23.2885C19.5 22.5489 19.7938 21.8397 20.3167 21.3167C20.8397 20.7938 21.5489 20.5 22.2885 20.5C23.028 20.5 23.7373 20.7938 24.2602 21.3167C24.7831 21.8397 25.0769 22.5489 25.0769 23.2885V29.4231H29.5385C30.7217 29.4231 31.8564 29.8931 32.6932 30.7299C33.53 31.5666 34 32.7014 34 33.8846V35" stroke="white" stroke-width="2" stroke-linecap="round" stroke-linejoin="round"/>
<path d="M17.8434 11.7892C15.0628 8.72923 11.3314 6.69648 7.25256 6.01952C6.97503 5.98022 6.69231 6.00041 6.42319 6.07877C6.15404 6.15712 5.90467 6.29184 5.6916 6.47398C5.47472 6.65949 5.30059 6.88978 5.18121 7.14902C5.06183 7.40824 5.00002 7.69028 5.00004 7.97566V23.8817C4.99707 24.3702 5.17515 24.8424 5.49991 25.2073C5.82467 25.5722 6.27308 25.8039 6.75858 25.8576C9.94436 26.2897 12.9402 27.5503 15.4585 29.4884" stroke="white" stroke-width="2" stroke-linecap="round" stroke-linejoin="round"/>
<path d="M17.8438 17.9531V11.7891" stroke="white" stroke-width="2" stroke-linecap="round" stroke-linejoin="round"/>
<path d="M28.9286 25.8576C29.414 25.8039 29.8624 25.5722 30.1872 25.2073C30.512 24.8424 30.69 24.3702 30.6871 23.8817V7.97566C30.6871 7.69028 30.6253 7.40824 30.506 7.14902C30.3866 6.88978 30.2124 6.65949 29.9956 6.47398C29.7826 6.29184 29.5332 6.15712 29.2639 6.07877C28.9949 6.00041 28.7122 5.98022 28.4345 6.01952C24.3558 6.69648 20.6244 8.72923 17.8438 11.7892" stroke="white" stroke-width="2" stroke-linecap="round" stroke-linejoin="round"/>
</svg>
