<svg width="48" height="48" viewBox="0 0 48 48" fill="none" xmlns="http://www.w3.org/2000/svg">
<g clip-path="url(#clip0_2814_486998)">
<path d="M24 46.2857V28.2857C24 27.1491 24.4515 26.059 25.2553 25.2553C26.059 24.4515 27.1491 24 28.2857 24C29.4224 24 30.5124 24.4515 31.3162 25.2553C32.1199 26.059 32.5714 27.1491 32.5714 28.2857V37.7143H39.4286C41.2471 37.7143 42.9912 38.4367 44.2773 39.7227C45.5633 41.0088 46.2857 42.7529 46.2857 44.5714V46.2857" stroke="white" stroke-width="2" stroke-linecap="round" stroke-linejoin="round"/>
<path d="M21.4584 10.6086C17.1847 5.90562 11.4498 2.78139 5.18082 1.74094C4.75427 1.68053 4.31973 1.71157 3.90611 1.832C3.49245 1.95242 3.10918 2.15948 2.78171 2.43942C2.44836 2.72454 2.18074 3.07848 1.99726 3.47693C1.81377 3.87533 1.71878 4.3088 1.71881 4.74742V29.1941C1.71425 29.9449 1.98795 30.6707 2.48708 31.2316C2.98622 31.7924 3.6754 32.1484 4.4216 32.231C9.31797 32.8951 13.9224 34.8327 17.7929 37.8114" stroke="white" stroke-width="2" stroke-linecap="round" stroke-linejoin="round"/>
<path d="M21.4609 20.0832V10.6094" stroke="white" stroke-width="2" stroke-linecap="round" stroke-linejoin="round"/>
<path d="M38.49 32.231C39.236 32.1484 39.9252 31.7924 40.4244 31.2316C40.9236 30.6707 41.1972 29.9449 41.1927 29.1941V4.74742C41.1927 4.3088 41.0977 3.87533 40.9143 3.47693C40.7309 3.07848 40.4631 2.72454 40.1299 2.43942C39.8024 2.15948 39.4191 1.95242 39.0053 1.832C38.5918 1.71157 38.1574 1.68053 37.7305 1.74094C31.4617 2.78139 25.7269 5.90562 21.4531 10.6086" stroke="white" stroke-width="2" stroke-linecap="round" stroke-linejoin="round"/>
</g>
<defs>
<clipPath id="clip0_2814_486998">
<rect width="48" height="48" fill="white"/>
</clipPath>
</defs>
</svg>
