<svg width="40" height="40" viewBox="0 0 40 40" fill="none" xmlns="http://www.w3.org/2000/svg">
<path d="M1.5625 8.8125L7.83225 12.1867L13.4287 11.2178C15.3179 10.8907 17.254 11.4315 18.7002 12.6902" stroke="white" stroke-width="2" stroke-linecap="round" stroke-linejoin="round"/>
<path d="M32.2315 26.5208L23.3669 32.8164C21.4184 34.2004 18.8144 34.2252 16.8396 32.8789L1.5625 22.4648" stroke="white" stroke-width="2" stroke-linecap="round" stroke-linejoin="round"/>
<path d="M38.2936 22.3978L32.0214 26.6838L22.2894 18.8258L18.7097 21.4312C17.2541 22.4906 15.2207 22.2051 14.1131 20.7859C13.008 19.37 13.2212 17.3335 14.5956 16.1771L18.3229 13.0409C20.1094 11.5378 22.4318 10.8285 24.7532 11.0769L30.5625 11.6984L38.2936 7.51953" stroke="white" stroke-width="2" stroke-linecap="round" stroke-linejoin="round"/>
<path d="M22.2812 18.8452C24.623 20.9316 27.944 19.8672 29.1788 18.1641" stroke="white" stroke-width="2" stroke-linecap="round" stroke-linejoin="round"/>
</svg>
