<svg width="40" height="40" viewBox="0 0 40 40" fill="none" xmlns="http://www.w3.org/2000/svg">
<path d="M11.7109 10.4294C11.7109 12.2446 13.1825 13.7161 14.9977 13.7161C15.4566 13.7161 15.8935 13.6221 16.2903 13.4522C17.4629 12.9501 18.2845 11.7857 18.2845 10.4294C18.2845 8.61412 16.8129 7.14258 14.9977 7.14258C13.1825 7.14258 11.7109 8.61412 11.7109 10.4294Z" stroke="white" stroke-width="2" stroke-linecap="round" stroke-linejoin="round"/>
<path d="M10 16.9717C10.5223 15.9784 11.2563 15.1573 12.1315 14.5877C13.0067 14.018 13.9936 13.7188 14.9975 13.7188C16.0013 13.7188 16.9882 14.018 17.8634 14.5877C18.7386 15.1573 19.4727 15.9784 19.9949 16.9717" stroke="white" stroke-width="2" stroke-linecap="round" stroke-linejoin="round"/>
<path d="M35.7176 35.7134C35.7176 36.4712 35.4165 37.198 34.8808 37.7337C34.3451 38.2695 33.6182 38.5706 32.8605 38.5706H7.14621C6.38843 38.5706 5.66172 38.2695 5.12589 37.7337C4.59009 37.198 4.28906 36.4712 4.28906 35.7134V4.28488C4.28906 3.52711 4.59009 2.80039 5.12589 2.26457C5.66172 1.72875 6.38843 1.42773 7.14621 1.42773H25.7176L35.7176 11.4277V35.7134Z" stroke="white" stroke-width="2" stroke-linecap="round" stroke-linejoin="round"/>
<path d="M10 24.2852H30" stroke="white" stroke-width="2" stroke-linecap="round"/>
<path d="M10 31.4277H21.4286" stroke="white" stroke-width="2" stroke-linecap="round"/>
</svg>
