<svg width="40" height="40" viewBox="0 0 40 40" fill="none" xmlns="http://www.w3.org/2000/svg">
<g clip-path="url(#clip0_1150_62428)">
<path d="M28.8594 11.1426C31.9451 12.4612 35.4157 12.5633 38.5737 11.4283" stroke="#2D6FD0" stroke-width="2" stroke-linecap="round" stroke-linejoin="round"/>
<path d="M11.4289 38.5711C12.5629 35.4031 12.4608 31.9243 11.1431 28.8283C10.1118 26.3631 9.83271 23.6479 10.3411 21.0245C10.8495 18.4011 12.1227 15.9868 14.0003 14.0854C15.9251 12.1805 18.3707 10.8881 21.0289 10.3711" stroke="#2D6FD0" stroke-width="2" stroke-linecap="round" stroke-linejoin="round"/>
<path d="M18.8594 29.6287C21.5305 29.1073 23.9866 27.8047 25.9165 25.8859C27.7974 23.9865 29.0729 21.572 29.5814 18.9478C30.09 16.3236 29.8089 13.6075 28.7737 11.143C27.4828 8.04631 27.4114 4.57591 28.5737 1.42871" stroke="#2D6FD0" stroke-width="2" stroke-linecap="round" stroke-linejoin="round"/>
<path d="M1.42969 28.5718C4.58897 27.4313 8.065 27.5438 11.144 28.8861" stroke="#2D6FD0" stroke-width="2" stroke-linecap="round" stroke-linejoin="round"/>
<path d="M14.1094 14.0859L25.9094 25.8859" stroke="#2D6FD0" stroke-width="2" stroke-linecap="round" stroke-linejoin="round"/>
</g>
<defs>
<clipPath id="clip0_1150_62428">
<rect width="40" height="40" fill="white"/>
</clipPath>
</defs>
</svg>
