<svg width="32" height="32" viewBox="0 0 32 32" xmlns="http://www.w3.org/2000/svg">
<path fill-rule="evenodd" clip-rule="evenodd" d="M7.15225 7.15128C7.62088 6.68265 8.38068 6.68265 8.84931 7.15128L24.8493 23.1512C25.3179 23.6199 25.3179 24.3797 24.8493 24.8483C24.3806 25.3169 23.6208 25.3169 23.1522 24.8483L7.15225 8.84833C6.68362 8.3797 6.68362 7.61991 7.15225 7.15128Z" />
<path fill-rule="evenodd" clip-rule="evenodd" d="M24.8494 7.15128C25.318 7.61991 25.318 8.3797 24.8494 8.84833L8.84931 24.8484C8.38068 25.317 7.62088 25.317 7.15225 24.8484C6.68362 24.3797 6.68362 23.62 7.15225 23.1513L23.1523 7.15128C23.6209 6.68265 24.3807 6.68265 24.8494 7.15128Z" />
</svg>
