<svg width="24" height="24" viewBox="0 0 24 24" xmlns="http://www.w3.org/2000/svg">
<path fill-rule="evenodd" clip-rule="evenodd" d="M5.36321 5.36321C5.71469 5.01174 6.28453 5.01174 6.63601 5.36321L18.636 17.3632C18.9874 17.7147 18.9874 18.2845 18.636 18.636C18.2845 18.9874 17.7147 18.9874 17.3632 18.636L5.36321 6.63601C5.01174 6.28453 5.01174 5.71469 5.36321 5.36321Z" />
<path fill-rule="evenodd" clip-rule="evenodd" d="M18.636 5.36321C18.9875 5.71469 18.9875 6.28453 18.636 6.63601L6.63601 18.636C6.28453 18.9875 5.71469 18.9875 5.36321 18.636C5.01174 18.2846 5.01174 17.7147 5.36321 17.3632L17.3632 5.36321C17.7147 5.01174 18.2846 5.01174 18.636 5.36321Z" />
</svg>
