<svg width="40" height="40" viewBox="0 0 40 40" fill="none" xmlns="http://www.w3.org/2000/svg">
<g clip-path="url(#clip0_1273_176830)">
<path d="M11.9765 23.125C14.9106 23.125 17.2891 20.7465 17.2891 17.8125C17.2891 14.8785 14.9106 12.5 11.9765 12.5C9.04255 12.5 6.66406 14.8785 6.66406 17.8125C6.66406 20.7465 9.04255 23.125 11.9765 23.125Z" stroke="#2D6FD0" stroke-width="2" stroke-linecap="round" stroke-linejoin="round"/>
<path d="M1.49219 38.51C1.51074 36.7332 1.97939 34.9897 2.85434 33.4432C4.69816 30.1834 8.23934 28.1136 11.9833 28.1055C15.7273 28.1136 19.2684 30.1834 21.1123 33.4432C21.9872 34.9897 22.4558 36.7332 22.4744 38.51" stroke="#2D6FD0" stroke-width="2" stroke-linecap="round" stroke-linejoin="round"/>
<path d="M28.2422 3.95196V1.60742" stroke="#2D6FD0" stroke-width="2" stroke-linecap="round" stroke-linejoin="round"/>
<path d="M36.2422 6.82951L38.161 5.48242" stroke="#2D6FD0" stroke-width="2" stroke-linecap="round" stroke-linejoin="round"/>
<path d="M20.2393 6.82951L18.3203 5.48242" stroke="#2D6FD0" stroke-width="2" stroke-linecap="round" stroke-linejoin="round"/>
<path d="M34.0592 14.4537C34.0712 11.2322 31.3446 8.55153 28.1236 8.61841C24.9027 8.68533 22.2897 11.4768 22.4355 14.6952C22.5294 16.7667 23.7963 18.713 25.6526 19.6372V22.4948C25.6569 22.6637 25.7271 22.8243 25.8481 22.9422C25.9692 23.0602 26.1315 23.1262 26.3005 23.1261H30.188C30.3572 23.1262 30.5195 23.0602 30.6406 22.9422C30.7615 22.8243 30.8318 22.6637 30.8361 22.4948V19.5874C32.7506 18.6342 34.0326 16.5924 34.0592 14.4537Z" stroke="#2D6FD0" stroke-width="2" stroke-linecap="round" stroke-linejoin="round"/>
</g>
<defs>
<clipPath id="clip0_1273_176830">
<rect width="40" height="40" fill="white"/>
</clipPath>
</defs>
</svg>
