<svg width="20" height="21" viewBox="0 0 20 21" xmlns="http://www.w3.org/2000/svg">
<path fill-rule="evenodd" clip-rule="evenodd" d="M4.25 5.5C4.25 5.08579 4.58579 4.75 5 4.75H15C15.4142 4.75 15.75 5.08579 15.75 5.5V17.1667C15.75 18.0411 15.0411 18.75 14.1667 18.75H5.83333C4.95888 18.75 4.25 18.0411 4.25 17.1667V5.5ZM5.75 6.25V17.1667C5.75 17.2127 5.78731 17.25 5.83333 17.25H14.1667C14.2127 17.25 14.25 17.2127 14.25 17.1667V6.25H5.75Z" />
<path fill-rule="evenodd" clip-rule="evenodd" d="M2.5835 5.5C2.5835 5.08579 2.91928 4.75 3.3335 4.75H16.6668C17.081 4.75 17.4168 5.08579 17.4168 5.5C17.4168 5.91421 17.081 6.25 16.6668 6.25H3.3335C2.91928 6.25 2.5835 5.91421 2.5835 5.5Z" />
<path fill-rule="evenodd" clip-rule="evenodd" d="M5.9165 3.83333C5.9165 2.95888 6.62539 2.25 7.49984 2.25H12.4998C13.3743 2.25 14.0832 2.95888 14.0832 3.83333V5.5C14.0832 5.91421 13.7474 6.25 13.3332 6.25H6.6665C6.25229 6.25 5.9165 5.91421 5.9165 5.5V3.83333ZM7.49984 3.75C7.45381 3.75 7.4165 3.78731 7.4165 3.83333V4.75H12.5832V3.83333C12.5832 3.78731 12.5459 3.75 12.4998 3.75H7.49984Z" />
</svg>
