<svg width="40" height="40" viewBox="0 0 40 40" fill="none" xmlns="http://www.w3.org/2000/svg">
<path d="M3.54297 18.685L36.4001 3.74219" stroke="#2D6FD0" stroke-width="2" stroke-linecap="round" stroke-linejoin="round"/>
<path d="M30.2578 1.42773L36.4007 3.74202L34.115 9.88488" stroke="#2D6FD0" stroke-width="2" stroke-linecap="round" stroke-linejoin="round"/>
<path d="M37.8577 38.5711H30.7148V18.5712C30.7148 18.1923 30.8654 17.8289 31.1331 17.561C31.4011 17.2931 31.7646 17.1426 32.1434 17.1426H36.4291C36.808 17.1426 37.1714 17.2931 37.4394 17.561C37.7071 17.8289 37.8577 18.1923 37.8577 18.5712V38.5711Z" stroke="#2D6FD0" stroke-width="2" stroke-linecap="round" stroke-linejoin="round"/>
<path d="M23.5725 38.5706H16.4297V22.8563C16.4297 22.4774 16.5802 22.114 16.8481 21.8462C17.116 21.5782 17.4794 21.4277 17.8583 21.4277H22.144C22.5229 21.4277 22.8862 21.5782 23.1541 21.8462C23.422 22.114 23.5725 22.4774 23.5725 22.8563V38.5706Z" stroke="#2D6FD0" stroke-width="2" stroke-linecap="round" stroke-linejoin="round"/>
<path d="M9.28739 38.57H2.14453V27.1415C2.14453 26.7626 2.29504 26.3992 2.56295 26.1313C2.83086 25.8634 3.19422 25.7129 3.5731 25.7129H7.85882C8.2377 25.7129 8.60107 25.8634 8.86896 26.1313C9.13687 26.3992 9.28739 26.7626 9.28739 27.1415V38.57Z" stroke="#2D6FD0" stroke-width="2" stroke-linecap="round" stroke-linejoin="round"/>
</svg>
