<svg width="44" height="46" viewBox="0 0 44 46" fill="none" xmlns="http://www.w3.org/2000/svg">
<path d="M40.2771 17.8833L38.9682 18.0407L37.4996 3.02393C37.4757 2.78131 37.3646 2.5564 37.1878 2.39282C37.011 2.22925 36.7811 2.13868 36.5426 2.13868H25.0017C24.7624 2.13746 24.5313 2.22748 24.3535 2.39117C24.1756 2.55486 24.0638 2.78046 24.0399 3.02393L22.3761 20.0403L19.9515 20.3354L18.2694 3.02393C18.2455 2.78046 18.1337 2.55486 17.9559 2.39117C17.778 2.22748 17.5469 2.13746 17.3077 2.13868H5.76669C5.52744 2.13746 5.29633 2.22748 5.11849 2.39117C4.94066 2.55486 4.82886 2.78046 4.80494 3.02393L0.957947 42.3682C0.944464 42.5054 0.959333 42.6439 1.00159 42.7749C1.04385 42.9058 1.11255 43.0262 1.20324 43.1282C1.29393 43.2302 1.40457 43.3116 1.528 43.3671C1.65143 43.4225 1.78488 43.4508 1.9197 43.4502H40.3896C40.6447 43.4502 40.8893 43.3465 41.0697 43.1621C41.2501 42.9776 41.3514 42.7274 41.3514 42.4665V18.86C41.3514 18.7211 41.3226 18.5838 41.267 18.4572C41.2113 18.3305 41.1301 18.2173 41.0286 18.125C40.9271 18.0327 40.8077 17.9635 40.6782 17.9218C40.5487 17.8802 40.412 17.867 40.2771 17.8833ZM35.6771 4.1059L36.2541 10.0075H25.295L25.872 4.1059H35.6771ZM25.1075 11.9747H36.4465L37.062 18.2698L24.3371 19.8013L25.1075 11.9747ZM16.4421 4.1059L17.0191 10.0075H6.06002L6.63707 4.1059H16.4421ZM5.87248 11.9747H17.2115L18.0511 20.5577L7.57766 21.8177C7.34372 21.8459 7.12802 21.9609 6.97149 22.1409C6.81495 22.321 6.72847 22.5535 6.72844 22.7944V41.4829H2.98243L5.87248 11.9747ZM22.1164 41.4829V35.5813H25.9634V41.4829H22.1164ZM31.7339 41.4829V35.5813H35.5809V41.4829H31.7339ZM39.4279 41.4829H37.5044V34.5977C37.5044 34.3368 37.4031 34.0866 37.2227 33.9022C37.0423 33.7177 36.7977 33.6141 36.5426 33.6141H30.7722C30.5171 33.6141 30.2725 33.7177 30.0921 33.9022C29.9117 34.0866 29.8104 34.3368 29.8104 34.5977V41.4829H27.8869V34.5977C27.8869 34.3368 27.7856 34.0866 27.6052 33.9022C27.4249 33.7177 27.1802 33.6141 26.9252 33.6141H21.1547C20.8996 33.6141 20.655 33.7177 20.4746 33.9022C20.2942 34.0866 20.1929 34.3368 20.1929 34.5977V41.4829H8.65194V23.6688L39.4279 19.9666V41.4829Z" fill="white"/>
<path d="M17.3104 33.6133H11.5399C11.2848 33.6133 11.0402 33.7169 10.8598 33.9014C10.6795 34.0858 10.5781 34.336 10.5781 34.5969V38.5313C10.5781 38.7922 10.6795 39.0424 10.8598 39.2268C11.0402 39.4113 11.2848 39.5149 11.5399 39.5149H17.3104C17.5654 39.5149 17.8101 39.4113 17.9904 39.2268C18.1708 39.0424 18.2721 38.7922 18.2721 38.5313V34.5969C18.2721 34.336 18.1708 34.0858 17.9904 33.9014C17.8101 33.7169 17.5654 33.6133 17.3104 33.6133ZM16.3486 37.5477H12.5016V35.5805H16.3486V37.5477Z" fill="white"/>
<path d="M17.3104 29.6797H11.5399C11.2848 29.6797 11.0402 29.7833 10.8598 29.9678C10.6795 30.1522 10.5781 30.4024 10.5781 30.6633C10.5781 30.9242 10.6795 31.1743 10.8598 31.3588C11.0402 31.5433 11.2848 31.6469 11.5399 31.6469H17.3104C17.5654 31.6469 17.8101 31.5433 17.9904 31.3588C18.1708 31.1743 18.2721 30.9242 18.2721 30.6633C18.2721 30.4024 18.1708 30.1522 17.9904 29.9678C17.8101 29.7833 17.5654 29.6797 17.3104 29.6797Z" fill="white"/>
<path d="M26.9197 29.6797H21.1492C20.8942 29.6797 20.6496 29.7833 20.4692 29.9678C20.2888 30.1522 20.1875 30.4024 20.1875 30.6633C20.1875 30.9242 20.2888 31.1743 20.4692 31.3588C20.6496 31.5433 20.8942 31.6469 21.1492 31.6469H26.9197C27.1748 31.6469 27.4194 31.5433 27.5998 31.3588C27.7802 31.1743 27.8815 30.9242 27.8815 30.6633C27.8815 30.4024 27.7802 30.1522 27.5998 29.9678C27.4194 29.7833 27.1748 29.6797 26.9197 29.6797Z" fill="white"/>
<path d="M36.7322 30H30.9617C30.7067 30 30.4621 30.1036 30.2817 30.2881C30.1013 30.4726 30 30.7227 30 30.9836C30 31.2445 30.1013 31.4947 30.2817 31.6791C30.4621 31.8636 30.7067 31.9672 30.9617 31.9672H36.7322C36.9873 31.9672 37.2319 31.8636 37.4123 31.6791C37.5927 31.4947 37.694 31.2445 37.694 30.9836C37.694 30.7227 37.5927 30.4726 37.4123 30.2881C37.2319 30.1036 36.9873 30 36.7322 30Z" fill="white"/>
</svg>
