<svg width="40" height="40" viewBox="0 0 40 40" fill="none" xmlns="http://www.w3.org/2000/svg">
<path d="M23.3385 3.78125V10.6655C23.3385 11.5989 23.3385 12.0656 23.5202 12.4221C23.68 12.7357 23.935 12.9907 24.2486 13.1505C24.6051 13.3322 25.0718 13.3322 26.0052 13.3322H32.8894M23.3385 28.332H13.3385M26.6719 21.6654H13.3385M33.3385 16.6457V28.6654C33.3385 31.4656 33.3385 32.8658 32.7936 33.9353C32.3142 34.8761 31.5493 35.641 30.6085 36.1204C29.5389 36.6654 28.1388 36.6654 25.3385 36.6654H14.6719C11.8716 36.6654 10.4715 36.6654 9.40192 36.1204C8.46111 35.641 7.69621 34.8761 7.21684 33.9353C6.67188 32.8658 6.67188 31.4656 6.67188 28.6654V11.332C6.67188 8.53177 6.67188 7.13164 7.21684 6.06208C7.69621 5.12127 8.46111 4.35637 9.40192 3.877C10.4715 3.33203 11.8716 3.33203 14.6719 3.33203H20.0248C21.2478 3.33203 21.8593 3.33203 22.4347 3.47018C22.9449 3.59267 23.4326 3.79469 23.88 4.06883C24.3845 4.37804 24.8169 4.81042 25.6817 5.67518L30.9954 10.9889C31.8602 11.8536 32.2925 12.286 32.6017 12.7906C32.8759 13.238 33.0779 13.7257 33.2004 14.2359C33.3385 14.8113 33.3385 15.4228 33.3385 16.6457Z" stroke-width="2" stroke-linecap="round" stroke-linejoin="round"/>
</svg>
