<svg width="40" height="40" viewBox="0 0 40 40" fill="none" xmlns="http://www.w3.org/2000/svg">
<path d="M1.42969 9.99958C5.00877 8.28964 8.89555 7.31792 12.8583 7.14244C18.5725 7.14244 21.4297 11.4282 27.144 11.4282C31.1065 11.2527 34.9934 10.281 38.5725 8.57101L32.8583 5.71387" stroke="#2D6FD0" stroke-width="2" stroke-linecap="round" stroke-linejoin="round"/>
<path d="M1.42969 21.428C5.00877 19.7181 8.89555 18.7464 12.8583 18.5709C18.5725 18.5709 21.4297 22.8566 27.144 22.8566C31.1065 22.6811 34.9934 21.7094 38.5725 19.9995L32.8583 17.1423" stroke="#2D6FD0" stroke-width="2" stroke-linecap="round" stroke-linejoin="round"/>
<path d="M1.42969 32.857C5.00877 31.147 8.89555 30.1753 12.8583 29.9999C18.5725 29.9999 21.4297 34.2856 27.144 34.2856C31.1065 34.1101 34.9934 33.1384 38.5725 31.4284L32.8583 28.5713" stroke="#2D6FD0" stroke-width="2" stroke-linecap="round" stroke-linejoin="round"/>
</svg>
