<svg width="48" height="48" viewBox="0 0 48 48" fill="none" xmlns="http://www.w3.org/2000/svg">
<g clip-path="url(#clip0_2821_497048)">
<path d="M48 25.9377C47.9978 25.7463 47.9202 25.5635 47.7841 25.4289C47.6479 25.2944 47.4643 25.2189 47.2729 25.2189H40.2431V13.0928C40.8546 13.0529 42.1849 13.345 42.1807 12.3657C42.1765 11.3863 40.8525 11.6764 40.2431 11.6385V6.30473H41.4536C41.6464 6.30473 41.8314 6.22812 41.9678 6.09175C42.1041 5.95539 42.1807 5.77043 42.1807 5.57758C42.1807 5.38473 42.1041 5.19978 41.9678 5.06341C41.8314 4.92705 41.6464 4.85044 41.4536 4.85044H37.8284V1.45429H39.5096C39.7025 1.45429 39.8874 1.37768 40.0238 1.24131C40.1602 1.10495 40.2368 0.919996 40.2368 0.727145C40.2368 0.534294 40.1602 0.349342 40.0238 0.212976C39.8874 0.0766097 39.7025 0 39.5096 0L27.8795 0C27.7838 -3.99553e-07 27.6891 0.0188772 27.6008 0.055551C27.5124 0.0922248 27.4321 0.145974 27.3646 0.213718C27.297 0.281463 27.2435 0.361871 27.2071 0.450335C27.1707 0.538799 27.1521 0.63358 27.1524 0.729247C27.165 1.83047 28.8546 1.35972 29.5776 1.45429V4.85044H6.54431C6.44902 4.85016 6.35461 4.86872 6.26652 4.90506C6.17843 4.9414 6.09839 4.9948 6.03101 5.06218C5.96362 5.12956 5.91023 5.2096 5.87389 5.29769C5.83755 5.38578 5.81899 5.48019 5.81926 5.57548C5.81926 6.55692 7.14746 6.2648 7.75692 6.30473V11.6385C7.14536 11.6764 5.81296 11.3842 5.81926 12.3657C5.82557 13.3471 7.14746 13.0529 7.75692 13.0928V16.4827H0.727145C0.534294 16.4827 0.349342 16.5593 0.212976 16.6956C0.0766097 16.832 0 17.017 0 17.2098C0.00380962 19.5075 0.766252 21.7397 2.16891 23.5596C3.57157 25.3795 5.53593 26.6854 7.75692 27.2743V39.7555C7.14536 39.7954 5.81296 39.5033 5.81926 40.4848C5.82557 41.4662 7.14746 41.172 7.75692 41.2098V46.5457H6.54431C6.35146 46.5457 6.1665 46.6223 6.03014 46.7587C5.89377 46.8951 5.81716 47.08 5.81716 47.2729C5.81716 47.4657 5.89377 47.6507 6.03014 47.787C6.1665 47.9234 6.35146 48 6.54431 48H41.4515C41.6443 48 41.8293 47.9234 41.9657 47.787C42.102 47.6507 42.1786 47.4657 42.1786 47.2729C42.1786 47.08 42.102 46.8951 41.9657 46.7587C41.8293 46.6223 41.6443 46.5457 41.4515 46.5457H40.241V41.2098C40.8525 41.172 42.1849 41.4641 42.1786 40.4848C42.1723 39.5054 40.8504 39.7954 40.241 39.7555V36.0042C42.4623 35.415 44.427 34.1088 45.83 32.2886C47.233 30.4683 47.9958 28.2358 48 25.9377ZM37.5762 34.9072H24.889C25.6392 33.1587 28.9849 31.5236 33.6988 31.5236H39.5096C39.7025 31.5236 39.8874 31.447 40.0238 31.3107C40.1602 31.1743 40.2368 30.9893 40.2368 30.7965C40.2368 30.6036 40.1602 30.4187 40.0238 30.2823C39.8874 30.146 39.7025 30.0693 39.5096 30.0693C35.3296 29.9958 28.3377 29.7898 25.4018 32.2361C26.0783 30.5934 27.2271 29.1884 28.7025 28.1989C30.178 27.2094 31.9138 26.6799 33.6904 26.6774H46.51C46.3216 28.9186 45.2993 31.0075 43.6451 32.5314C41.9909 34.0552 39.8253 34.903 37.5762 34.9072ZM31.0319 1.45429H36.3573V4.85044H31.0319V1.45429ZM9.21331 6.30473H38.7867V11.6385H9.21331V6.30473ZM9.21331 13.0928H38.7867V25.2189H33.6967C31.8835 25.2211 30.1024 25.6965 28.5293 26.598C26.9562 27.4996 25.6456 28.7961 24.7271 30.3594V26.9002C24.7238 24.1366 23.6245 21.4872 21.6704 19.5331C19.7163 17.579 17.0669 16.4797 14.3033 16.4764H9.21331V13.0928ZM1.48371 17.937H14.3033C16.0796 17.9396 17.8151 18.4692 19.2902 19.4587C20.7653 20.4482 21.9136 21.8531 22.5898 23.4956C19.6623 21.0536 12.6578 21.2574 8.48616 21.331C8.29331 21.331 8.10836 21.4076 7.97199 21.544C7.83563 21.6803 7.75902 21.8653 7.75902 22.0581C7.75902 22.251 7.83563 22.4359 7.97199 22.5723C8.10836 22.7087 8.29331 22.7853 8.48616 22.7853H14.3033C19.0172 22.7853 22.3692 24.4308 23.1152 26.1793H10.4238C8.17151 26.1769 6.00235 25.3282 4.34642 23.8016C2.69049 22.2749 1.66872 20.1816 1.48371 17.937ZM9.21331 41.2098H21.0914C21.2843 41.2098 21.4692 41.1332 21.6056 40.9968C21.742 40.8605 21.8186 40.6755 21.8186 40.4827C21.8186 40.2898 21.742 40.1049 21.6056 39.9685C21.4692 39.8321 21.2843 39.7555 21.0914 39.7555H9.21331V27.5664C9.29107 27.7156 22.7496 27.6147 23.2729 27.642V46.5562H9.21331V41.2098ZM38.7867 39.7555H26.9002C26.7073 39.7555 26.5224 39.8321 26.386 39.9685C26.2496 40.1049 26.173 40.2898 26.173 40.4827C26.173 40.6755 26.2496 40.8605 26.386 40.9968C26.5224 41.1332 26.7073 41.2098 26.9002 41.2098H38.7783V46.5457H24.7187V36.3573C25.2525 36.3299 38.6963 36.4308 38.7783 36.2795L38.7867 39.7555Z" fill="white"/>
</g>
<defs>
<clipPath id="clip0_2821_497048">
<rect width="48" height="48" fill="white"/>
</clipPath>
</defs>
</svg>
