<svg width="40" height="40" viewBox="0 0 40 40" fill="none" xmlns="http://www.w3.org/2000/svg">
<g clip-path="url(#clip0_1273_176851)">
<path d="M15.0867 21.8496H3.23074C2.46042 21.8496 1.83594 22.4741 1.83594 23.2444V35.1003C1.83594 35.8706 2.46042 36.4952 3.23074 36.4952H15.0867C15.857 36.4952 16.4815 35.8706 16.4815 35.1003V23.2444C16.4815 22.4741 15.857 21.8496 15.0867 21.8496Z" stroke="#2D6FD0" stroke-width="2" stroke-linecap="round" stroke-linejoin="round"/>
<path d="M36.7665 21.8496H24.9104C24.1401 21.8496 23.5156 22.4741 23.5156 23.2444V35.1003C23.5156 35.8706 24.1401 36.4952 24.9104 36.4952H36.7665C37.5368 36.4952 38.1611 35.8706 38.1611 35.1003V23.2444C38.1611 22.4741 37.5368 21.8496 36.7665 21.8496Z" stroke="#2D6FD0" stroke-width="2" stroke-linecap="round" stroke-linejoin="round"/>
<path d="M15.0867 0.169922H3.23074C2.46042 0.169922 1.83594 0.794405 1.83594 1.56473V13.4207C1.83594 14.191 2.46042 14.8155 3.23074 14.8155H15.0867C15.857 14.8155 16.4815 14.191 16.4815 13.4207V1.56473C16.4815 0.794405 15.857 0.169922 15.0867 0.169922Z" stroke="#2D6FD0" stroke-width="2" stroke-linecap="round" stroke-linejoin="round"/>
<path d="M23.2691 8.5737C22.4103 8.4243 22.4103 7.19142 23.2691 7.04202C26.3805 6.50073 28.8551 4.13087 29.5305 1.04585L29.5822 0.809372C29.768 -0.0394196 30.9765 -0.0447023 31.1697 0.802435L31.2325 1.07802C31.9331 4.1485 34.4082 6.49833 37.5111 7.0381C38.3742 7.18827 38.3742 8.42745 37.5111 8.57762C34.4082 9.11742 31.9331 11.4672 31.2325 14.5377L31.1697 14.8133C30.9765 15.6604 29.768 15.6552 29.5822 14.8064L29.5305 14.5699C28.8551 11.4848 26.3805 9.11502 23.2691 8.5737Z" stroke="#2D6FD0" stroke-width="2" stroke-linecap="round" stroke-linejoin="round"/>
</g>
<defs>
<clipPath id="clip0_1273_176851">
<rect width="40" height="40" fill="white"/>
</clipPath>
</defs>
</svg>
