<svg width="40" height="40" viewBox="0 0 40 40" fill="none" xmlns="http://www.w3.org/2000/svg">
<path d="M1.85938 33.4109V23.0704L10.9075 19.1926L19.9556 23.0704V33.4109L10.9075 37.2887L1.85938 33.4109Z" stroke="#2D6FD0" stroke-width="2" stroke-linecap="round" stroke-linejoin="round"/>
<path d="M1.85938 23.0488L10.9075 26.9266L19.9556 23.0488" stroke="#2D6FD0" stroke-width="2" stroke-linecap="round" stroke-linejoin="round"/>
<path d="M10.9062 8.9209L19.9543 12.7986L29.0024 8.9209" stroke="#2D6FD0" stroke-width="2" stroke-linecap="round" stroke-linejoin="round"/>
<path d="M19.9531 23.0488L29.0011 26.9266L38.0494 23.0488" stroke="#2D6FD0" stroke-width="2" stroke-linecap="round" stroke-linejoin="round"/>
<path d="M10.9141 19.1852V8.84454L19.9622 4.9668L29.0103 8.84454V19.1852L19.9622 23.063L10.9141 19.1852Z" stroke="#2D6FD0" stroke-width="2" stroke-linecap="round" stroke-linejoin="round"/>
<path d="M19.9531 33.4107V23.0701L29.0011 19.1924L38.0494 23.0701V33.4107L29.0011 37.2884L19.9531 33.4107Z" stroke="#2D6FD0" stroke-width="2" stroke-linecap="round" stroke-linejoin="round"/>
<path d="M10.9062 26.9307V37.2879" stroke="#2D6FD0" stroke-width="2" stroke-linecap="round" stroke-linejoin="round"/>
<path d="M29.0078 26.9307V37.2879" stroke="#2D6FD0" stroke-width="2" stroke-linecap="round" stroke-linejoin="round"/>
<path d="M19.9531 12.7979V23.155" stroke="#2D6FD0" stroke-width="2" stroke-linecap="round" stroke-linejoin="round"/>
</svg>
