<svg width="40" height="40" viewBox="0 0 40 40" fill="none" xmlns="http://www.w3.org/2000/svg">
<path d="M26.4922 13.1484L26.4922 16.1564" stroke="white" stroke-width="2" stroke-linecap="round" stroke-linejoin="round"/>
<path d="M26.492 9.49671C26.3411 9.49671 26.2188 9.37326 26.2188 9.22101C26.2188 9.06874 26.3411 8.94531 26.492 8.94531" stroke="white" stroke-width="2" stroke-linecap="round" stroke-linejoin="round"/>
<path d="M26.5 9.49671C26.651 9.49671 26.7734 9.37326 26.7734 9.22101C26.7734 9.06874 26.651 8.94531 26.5 8.94531" stroke="white" stroke-width="2" stroke-linecap="round" stroke-linejoin="round"/>
<path d="M6.54688 31.9961H33.0304" stroke="white" stroke-width="2" stroke-linecap="round" stroke-linejoin="round"/>
<path d="M9.03906 18.6868C9.03906 19.821 9.48964 20.9088 10.2917 21.7109C11.0937 22.5129 12.1815 22.9635 13.3157 22.9635C14.45 22.9635 15.5377 22.5129 16.3398 21.7109C17.1418 20.9088 17.5924 19.821 17.5924 18.6868C17.5924 17.5526 17.1418 16.4648 16.3398 15.6628C15.5377 14.8607 14.45 14.4102 13.3157 14.4102C12.1815 14.4102 11.0937 14.8607 10.2917 15.6628C9.48964 16.4648 9.03906 17.5526 9.03906 18.6868Z" stroke="white" stroke-width="2" stroke-linecap="round" stroke-linejoin="round"/>
<path d="M6.53906 31.9999V29.7411C6.53906 25.9987 9.57289 22.9648 13.3153 22.9648C17.0577 22.9648 20.0916 25.9987 20.0916 29.7411V31.9999" stroke="white" stroke-width="2" stroke-linecap="round" stroke-linejoin="round"/>
<path d="M20.9611 18.4374C22.3746 19.8222 24.3105 20.676 26.4456 20.676C30.7744 20.676 34.2837 17.1668 34.2837 12.838C34.2837 8.50918 30.7744 5 26.4456 5C22.2479 5 18.8209 8.29992 18.6172 12.4471" stroke="white" stroke-width="2" stroke-linecap="round" stroke-linejoin="round"/>
</svg>
