<svg width="40" height="40" viewBox="0 0 40 40" fill="none" xmlns="http://www.w3.org/2000/svg">
<g clip-path="url(#clip0_1150_62443)">
<path d="M17.2065 12.4219C15.373 13.8031 13.5083 15.4204 11.6903 17.2384C3.56634 25.3624 -0.549774 34.4178 2.49672 37.4644C5.54319 40.5107 14.5987 36.3947 22.7226 28.2707C24.5406 26.4527 26.1579 24.5881 27.5391 22.7546" stroke="#2D6FD0" stroke-width="2" stroke-linecap="round" stroke-linejoin="round"/>
<path d="M27.5391 22.7543C32.3302 29.1141 34.2811 35.0993 31.9163 37.4641C28.8697 40.5107 19.8143 36.3944 11.6903 28.2705C3.56634 20.1465 -0.549774 11.0911 2.49672 8.04457C4.86145 5.67983 10.8467 7.63066 17.2065 12.4217" stroke="#2D6FD0" stroke-width="2" stroke-linecap="round" stroke-linejoin="round"/>
<path d="M15.7812 22.7547C15.7812 23.5437 16.4209 24.1833 17.2098 24.1833C17.9988 24.1833 18.6384 23.5437 18.6384 22.7547C18.6384 21.9657 17.9988 21.3262 17.2098 21.3262C16.4209 21.3262 15.7812 21.9657 15.7812 22.7547Z" stroke="#2D6FD0" stroke-width="2" stroke-linecap="round" stroke-linejoin="round"/>
<path d="M22.9466 10.3147C22.0491 10.1586 22.0491 8.87016 22.9466 8.71402C26.1981 8.14833 28.7842 5.6717 29.4899 2.44763L29.5442 2.2005C29.7382 1.31345 31.0014 1.30793 31.2034 2.19324L31.2691 2.48125C32.0008 5.6901 34.5877 8.14582 37.8302 8.70993C38.7325 8.86688 38.7325 10.1619 37.8302 10.3188C34.5877 10.8829 32.0008 13.3387 31.2691 16.5475L31.2034 16.8355C31.0014 17.7208 29.7382 17.7153 29.5442 16.8283L29.4899 16.5811C28.7842 13.3571 26.1981 10.8804 22.9466 10.3147Z" stroke="#2D6FD0" stroke-width="2" stroke-linecap="round" stroke-linejoin="round"/>
</g>
<defs>
<clipPath id="clip0_1150_62443">
<rect width="40" height="40" fill="white"/>
</clipPath>
</defs>
</svg>
