<svg width="40" height="40" viewBox="0 0 40 40" fill="none" xmlns="http://www.w3.org/2000/svg">
<path d="M3.75 33.75H26.25" stroke="#2D6FD0" stroke-width="2" stroke-linecap="round" stroke-linejoin="round"/>
<path d="M2.64507 21.9327L8.53497 27.4544C9.31972 28.1901 10.3208 28.6532 11.3896 28.7747C12.4584 28.8963 13.5379 28.6699 14.4678 28.1293L38.1252 14.375L35.2128 10.8154C34.4573 9.89194 33.3964 9.26911 32.2218 9.05941C31.0472 8.84971 29.8364 9.06695 28.8079 9.67191L21.8752 13.75L12.5002 10.625L9.92224 11.7298C9.72937 11.8125 9.56041 11.9424 9.43094 12.1075C9.30147 12.2726 9.21566 12.4677 9.1814 12.6747C9.14715 12.8817 9.16557 13.0941 9.23495 13.2921C9.30434 13.4901 9.42246 13.6675 9.57843 13.8079L14.3752 18.125L10.0002 20.625L5.62521 18.75L3.0076 19.8718C2.81671 19.9536 2.64921 20.0817 2.52024 20.2445C2.39126 20.4073 2.30488 20.5996 2.2689 20.8042C2.23292 21.0087 2.24847 21.219 2.31415 21.416C2.37983 21.6131 2.49356 21.7906 2.64507 21.9327V21.9327Z" stroke="#2D6FD0" stroke-width="2" stroke-linecap="round" stroke-linejoin="round"/>
</svg>
