<svg width="40" height="40" viewBox="0 0 40 40" fill="none" xmlns="http://www.w3.org/2000/svg">
<g clip-path="url(#clip0_2123_265175)">
<path d="M32.8588 14.2849C32.8588 22.8563 20.0017 32.8563 20.0017 32.8563C20.0017 32.8563 7.14453 22.8563 7.14453 14.2849C7.14453 7.28202 12.9988 1.42773 20.0017 1.42773C27.0045 1.42773 32.8588 7.28202 32.8588 14.2849Z" stroke="#2D6FD0" stroke-width="2" stroke-linecap="round" stroke-linejoin="round"/>
<path d="M20.0006 18.5714C22.3675 18.5714 24.2863 16.6527 24.2863 14.2857C24.2863 11.9188 22.3675 10 20.0006 10C17.6336 10 15.7148 11.9188 15.7148 14.2857C15.7148 16.6527 17.6336 18.5714 20.0006 18.5714Z" stroke="#2D6FD0" stroke-width="2" stroke-linecap="round" stroke-linejoin="round"/>
<path d="M31.6505 28.5703H34.2868L38.5725 38.5703H1.42969L5.7154 28.5703H8.35169" stroke="#2D6FD0" stroke-width="2" stroke-linecap="round" stroke-linejoin="round"/>
</g>
<defs>
<clipPath id="clip0_2123_265175">
<rect width="40" height="40" fill="white"/>
</clipPath>
</defs>
</svg>
