<svg width="1540" height="470" viewBox="0 0 1540 470" fill="none" xmlns="http://www.w3.org/2000/svg">
<g clip-path="url(#clip0_2807_414646)">
<path fill-rule="evenodd" clip-rule="evenodd" d="M732.895 203.365H740.429L736.68 227.468L732.895 203.365Z" fill="#3066B7"/>
<path fill-rule="evenodd" clip-rule="evenodd" d="M740.426 203.365H747.961L744.193 227.468L740.426 203.365Z" fill="#3066B7"/>
<path fill-rule="evenodd" clip-rule="evenodd" d="M747.961 203.365H755.496L751.711 227.468L747.961 203.365Z" fill="#3066B7"/>
<path fill-rule="evenodd" clip-rule="evenodd" d="M757.004 203.365H764.539L760.789 227.468L757.004 203.365Z" fill="#3066B7"/>
<path fill-rule="evenodd" clip-rule="evenodd" d="M764.539 203.365H772.074L768.307 227.468L764.539 203.365Z" fill="#3066B7"/>
<path fill-rule="evenodd" clip-rule="evenodd" d="M772.074 203.365H779.609L775.824 227.468L772.074 203.365Z" fill="#3066B7"/>
<path fill-rule="evenodd" clip-rule="evenodd" d="M781.117 203.365H788.652L784.903 227.468L781.117 203.365Z" fill="#3066B7"/>
<path fill-rule="evenodd" clip-rule="evenodd" d="M788.652 203.365H796.187L792.42 227.468L788.652 203.365Z" fill="#3066B7"/>
<path fill-rule="evenodd" clip-rule="evenodd" d="M796.188 203.365H803.722L799.937 227.468L796.188 203.365Z" fill="#3066B7"/>
<path fill-rule="evenodd" clip-rule="evenodd" d="M805.227 203.365H812.761L808.994 227.468L805.227 203.365Z" fill="#3066B7"/>
<path fill-rule="evenodd" clip-rule="evenodd" d="M877.562 247.051H882.083L879.823 256.089L877.562 247.051Z" fill="#3066B7"/>
<path fill-rule="evenodd" clip-rule="evenodd" d="M882.086 247.051H886.607L884.346 256.089L882.086 247.051Z" fill="#3066B7"/>
<path fill-rule="evenodd" clip-rule="evenodd" d="M886.605 247.051H891.126L888.848 256.089L886.605 247.051Z" fill="#3066B7"/>
<path fill-rule="evenodd" clip-rule="evenodd" d="M891.125 247.051H895.646L893.386 256.089L891.125 247.051Z" fill="#3066B7"/>
<path fill-rule="evenodd" clip-rule="evenodd" d="M895.648 247.051H900.169L897.909 256.089L895.648 247.051Z" fill="#3066B7"/>
<path fill-rule="evenodd" clip-rule="evenodd" d="M900.168 247.051H904.689L902.41 256.089L900.168 247.051Z" fill="#3066B7"/>
<path fill-rule="evenodd" clip-rule="evenodd" d="M906.195 247.051H910.716L908.456 256.089L906.195 247.051Z" fill="#3066B7"/>
<path fill-rule="evenodd" clip-rule="evenodd" d="M910.719 247.051H915.24L912.998 256.089L910.719 247.051Z" fill="#3066B7"/>
<path d="M856.464 171.73H812.762V174.743H856.464V171.73Z" fill="#3066B7"/>
<path fill-rule="evenodd" clip-rule="evenodd" d="M732.898 201.859H814.271V441.379H731.387V201.859H732.898ZM811.249 204.893H734.409V438.345H811.249V204.893Z" fill="#3066B7"/>
<path fill-rule="evenodd" clip-rule="evenodd" d="M856.473 135.576H937.845V441.377H854.961V135.576H856.473ZM934.859 138.608H857.985V438.345H934.859V138.608Z" fill="#3066B7"/>
<path fill-rule="evenodd" clip-rule="evenodd" d="M851.975 135.576H857.972V153.653H850.438V135.576H851.975ZM854.935 138.602H853.513V150.628H854.935V138.602Z" fill="#3066B7"/>
<path fill-rule="evenodd" clip-rule="evenodd" d="M936.327 135.576H942.363V153.653H934.828V135.576H936.366H936.327ZM939.288 138.602H937.865V150.628H939.288V138.602Z" fill="#3066B7"/>
<path fill-rule="evenodd" clip-rule="evenodd" d="M919.749 135.576H925.785V153.653H918.25V135.576H919.788H919.749ZM922.709 138.602H921.287V150.628H922.709V138.602Z" fill="#3066B7"/>
<path fill-rule="evenodd" clip-rule="evenodd" d="M903.175 135.578H909.211V153.655H901.676V135.578H903.214H903.175ZM906.135 138.604H904.713V150.63H906.135V138.604Z" fill="#3066B7"/>
<path fill-rule="evenodd" clip-rule="evenodd" d="M885.132 135.576H891.129V153.653H883.594V135.576H885.132ZM888.092 138.602H886.669V150.628H888.092V138.602Z" fill="#3066B7"/>
<path fill-rule="evenodd" clip-rule="evenodd" d="M868.553 135.576H874.551V153.653H867.016V135.576H868.553ZM871.514 138.602H870.091V150.628H871.514V138.602Z" fill="#3066B7"/>
<path fill-rule="evenodd" clip-rule="evenodd" d="M850.421 138.056C848.168 135.194 844.272 132.141 839.497 129.508C835.105 127.104 830.025 125.12 824.83 124.052L815.777 122.22L824.944 121.075C832.698 120.083 839.421 119.053 845.074 117.221C850.536 115.466 854.929 112.948 858.175 109.094C867.075 98.4857 891.406 18.85 895.34 5.91449L897.135 0L898.969 5.91449C902.941 18.9264 927.234 98.4476 936.134 109.055C939.381 112.909 943.773 115.39 949.235 117.183C954.85 119.015 961.611 120.083 969.365 121.037L978.532 122.182L969.479 124.013C964.285 125.082 959.204 127.066 954.812 129.47C950.037 132.065 946.18 135.156 943.888 138.017L943.429 138.59H850.88L850.421 138.017V138.056ZM840.987 126.875C845.761 129.508 849.772 132.637 852.331 135.613H942.016C944.575 132.637 948.586 129.508 953.36 126.875C955.958 125.463 958.784 124.166 961.764 123.098C956.798 122.334 952.329 121.419 948.319 120.121C942.322 118.175 937.433 115.39 933.804 111.078C925.133 100.775 903.323 30.5645 897.174 10.4553C890.986 30.5645 869.176 100.775 860.543 111.078C856.915 115.428 852.026 118.175 846.029 120.121C842.056 121.419 837.549 122.334 832.584 123.098C835.563 124.166 838.39 125.425 840.987 126.875Z" fill="#3066B7"/>
<path d="M967.984 120.514H824.82V123.526H967.984V120.514Z" fill="#3066B7"/>
<path fill-rule="evenodd" clip-rule="evenodd" d="M879.056 165.705H915.237V203.365H877.562V165.705H879.094H879.056ZM912.174 168.764H880.587V200.307H912.174V168.764Z" fill="#3066B7"/>
<path fill-rule="evenodd" clip-rule="evenodd" d="M896.4 203.365C891.193 203.365 886.483 201.26 883.076 197.854C879.668 194.448 877.562 189.74 877.562 184.535C877.562 179.33 879.668 174.623 883.076 171.216C886.483 167.81 891.193 165.705 896.4 165.705C901.607 165.705 906.316 167.81 909.724 171.216C913.131 174.623 915.237 179.33 915.237 184.535C915.237 189.74 913.131 194.448 909.724 197.854C906.316 201.26 901.607 203.365 896.4 203.365ZM885.22 195.673C888.091 198.543 892.035 200.304 896.4 200.304C900.765 200.304 904.708 198.543 907.58 195.673C910.451 192.802 912.212 188.86 912.212 184.497C912.212 180.134 910.451 176.192 907.58 173.321C904.746 170.451 900.765 168.69 896.4 168.69C892.035 168.69 888.091 170.451 885.22 173.321C882.348 176.192 880.587 180.134 880.587 184.497C880.587 188.86 882.348 192.802 885.22 195.673Z" fill="#3066B7"/>
<path fill-rule="evenodd" clip-rule="evenodd" d="M879.092 176.25H915.237V192.821H877.562V176.25H879.092ZM912.177 179.27H880.622V189.801H912.177V179.27Z" fill="#3066B7"/>
<path fill-rule="evenodd" clip-rule="evenodd" d="M888.113 201.836V165.705H904.69V203.365H888.113V201.836ZM891.134 168.764V200.307H901.669V168.764H891.134Z" fill="#3066B7"/>
<path fill-rule="evenodd" clip-rule="evenodd" d="M757.055 287.628H766.029V265.858C766.029 265.391 765.65 264.925 765.007 264.536C764.136 263.992 762.924 263.681 761.561 263.681C760.198 263.681 758.986 264.03 758.115 264.536C757.472 264.925 757.093 265.391 757.093 265.858V287.628H757.055ZM767.544 290.738H753.988V265.896C753.988 264.303 754.935 262.903 756.487 261.931C757.813 261.115 759.592 260.609 761.523 260.609C763.454 260.609 765.234 261.115 766.559 261.931C768.112 262.903 769.058 264.303 769.058 265.896V290.738H767.544Z" fill="#3066B7"/>
<path fill-rule="evenodd" clip-rule="evenodd" d="M778.157 287.628H787.131V265.858C787.131 265.391 786.752 264.925 786.108 264.536C785.237 263.992 784.026 263.681 782.663 263.681C781.3 263.681 780.088 264.03 779.217 264.536C778.573 264.925 778.195 265.391 778.195 265.858V287.628H778.157ZM788.645 290.738H775.09V265.896C775.09 264.303 776.036 262.903 777.589 261.931C778.914 261.115 780.694 260.609 782.625 260.609C784.556 260.609 786.335 261.115 787.661 261.931C789.213 262.903 790.16 264.303 790.16 265.896V290.738H788.645Z" fill="#3066B7"/>
<path fill-rule="evenodd" clip-rule="evenodd" d="M752.473 290.66H791.712V267.292C791.712 262.347 789.947 258.987 787.018 256.824C783.413 254.159 778.081 253.155 772.074 253.155C766.066 253.155 760.734 254.159 757.166 256.824C754.238 258.987 752.473 262.347 752.473 267.292V290.66ZM793.214 293.75H749.469V267.292C749.469 261.227 751.722 257.056 755.402 254.313C759.57 251.223 765.54 250.064 772.074 250.064C778.607 250.064 784.578 251.223 788.746 254.313C792.425 257.056 794.678 261.227 794.678 267.292V293.75H793.176H793.214Z" fill="#3066B7"/>
<path fill-rule="evenodd" clip-rule="evenodd" d="M751.539 290.736L772.093 309.268L792.608 290.736L794.678 292.899L772.093 313.332L749.469 292.899L751.539 290.736Z" fill="#3066B7"/>
<path fill-rule="evenodd" clip-rule="evenodd" d="M755.569 430.835H788.581V404.757C788.581 400.317 786.73 396.29 783.722 393.393C780.714 390.457 776.587 388.651 772.075 388.651C767.563 388.651 763.398 390.457 760.429 393.393C757.421 396.328 755.569 400.354 755.569 404.757V430.835ZM790.123 433.846H752.484V404.757C752.484 399.489 754.683 394.71 758.23 391.248C761.778 387.786 766.676 385.641 772.075 385.641C777.474 385.641 782.372 387.786 785.92 391.248C789.468 394.71 791.666 399.489 791.666 404.757V433.846H790.123Z" fill="#3066B7"/>
<path fill-rule="evenodd" clip-rule="evenodd" d="M749.482 438.367H796.215V406.016C796.215 402.401 795.383 399.012 793.908 395.961C792.358 392.798 790.127 390.011 787.367 387.827C786.195 386.923 784.796 386.056 783.284 385.153C779.843 383.044 775.949 380.671 772.848 376.378C769.748 380.671 765.853 383.044 762.375 385.153C760.863 386.056 759.464 386.923 758.291 387.827C755.531 390.011 753.301 392.798 751.75 395.961C750.276 399.012 749.444 402.439 749.444 406.016V438.367H749.482ZM772.848 441.379H746.457V406.016C746.457 401.949 747.402 398.108 749.066 394.643C750.805 391.065 753.338 387.939 756.439 385.454C757.724 384.437 759.237 383.533 760.825 382.554C764.492 380.332 768.689 377.771 771.563 372.838L772.848 370.578L774.134 372.838C777.007 377.771 781.204 380.332 784.834 382.554C786.422 383.533 787.896 384.437 789.22 385.454C792.32 387.902 794.853 391.065 796.593 394.643C798.256 398.108 799.202 401.949 799.202 406.016V441.379H772.81H772.848Z" fill="#3066B7"/>
<path d="M797.691 403.719H747.961V406.732H797.691V403.719Z" fill="#3066B7"/>
<path d="M773.584 388.654H770.57V406.731H773.584V388.654Z" fill="#3066B7"/>
<path fill-rule="evenodd" clip-rule="evenodd" d="M880.648 430.835H913.659V404.757C913.659 400.317 911.808 396.29 908.8 393.393C905.792 390.457 901.665 388.651 897.153 388.651C892.641 388.651 888.476 390.457 885.507 393.393C882.537 396.328 880.648 400.354 880.648 404.757V430.835ZM915.202 433.846H877.562V404.757C877.562 399.489 879.761 394.71 883.309 391.248C886.857 387.786 891.754 385.641 897.153 385.641C902.552 385.641 907.45 387.786 910.998 391.248C914.546 394.71 916.744 399.489 916.744 404.757V433.846H915.202Z" fill="#3066B7"/>
<path fill-rule="evenodd" clip-rule="evenodd" d="M873.052 438.365H919.785V406.014C919.785 402.399 918.953 399.01 917.479 395.959C915.928 392.796 913.698 390.009 910.937 387.825C909.765 386.921 908.366 386.055 906.854 385.151C903.413 383.042 899.481 380.669 896.381 376.376C893.28 380.669 889.386 383.042 885.945 385.151C884.433 386.055 883.034 386.921 881.862 387.825C879.102 390.009 876.871 392.796 875.321 395.959C873.846 399.01 873.014 402.437 873.014 406.014V438.365H873.052ZM896.418 441.377H870.027V406.014C870.027 401.947 870.973 398.106 872.636 394.641C874.375 391.063 876.909 387.938 880.009 385.452C881.295 384.435 882.807 383.531 884.395 382.552C888.063 380.33 892.259 377.769 895.095 372.836L896.381 370.576L897.666 372.836C900.54 377.769 904.737 380.33 908.404 382.552C909.992 383.531 911.467 384.435 912.79 385.452C915.89 387.9 918.424 391.063 920.163 394.641C921.827 398.106 922.772 401.947 922.772 406.014V441.377H896.381H896.418Z" fill="#3066B7"/>
<path d="M921.266 403.719H871.535V406.732H921.266V403.719Z" fill="#3066B7"/>
<path d="M897.155 388.654H894.141V406.731H897.155V388.654Z" fill="#3066B7"/>
<path fill-rule="evenodd" clip-rule="evenodd" d="M772.827 323.879C775.502 323.879 777.98 324.941 779.75 326.649C781.521 328.357 782.622 330.71 782.622 333.328V358.526H763.031V333.328C763.031 330.748 764.133 328.357 765.903 326.649C767.673 324.941 770.112 323.879 772.827 323.879ZM777.508 328.812C776.288 327.636 774.636 326.915 772.827 326.915C771.017 326.915 769.365 327.636 768.145 328.812C766.926 329.989 766.178 331.583 766.178 333.328V355.49H779.436V333.328C779.436 331.583 778.688 329.951 777.469 328.812H777.508Z" fill="#3066B7"/>
<path fill-rule="evenodd" clip-rule="evenodd" d="M896.401 323.879C899.076 323.879 901.554 324.941 903.325 326.649C905.095 328.357 906.196 330.71 906.196 333.328V358.526H886.605V333.328C886.605 330.748 887.707 328.357 889.477 326.649C891.248 324.941 893.686 323.879 896.401 323.879ZM901.082 328.812C899.863 327.636 898.21 326.915 896.401 326.915C894.591 326.915 892.939 327.636 891.72 328.812C890.5 329.989 889.753 331.583 889.753 333.328V355.49H903.01V333.328C903.01 331.583 902.262 329.951 901.043 328.812H901.082Z" fill="#3066B7"/>
<path fill-rule="evenodd" clip-rule="evenodd" d="M812.751 210.896H857.974V441.377H811.258V210.896H812.789H812.751ZM854.911 213.927H814.283V438.347H854.911V213.927Z" fill="#3066B7"/>
<path fill-rule="evenodd" clip-rule="evenodd" d="M731.258 204.188C729.29 201.383 725.922 198.311 721.796 195.733C718.012 193.344 713.622 191.41 709.118 190.348L701.246 188.528L709.232 187.391C715.93 186.443 721.796 185.381 726.678 183.561C731.409 181.817 735.194 179.352 737.994 175.561C744.163 167.181 755.063 114.513 760.664 87.4394C762.329 79.4767 763.502 73.7132 763.994 71.8931L765.508 66.2812L777.24 113.261H785.831L791.925 92.5962L813.799 176.129C814.594 179.125 816.524 181.438 819.817 183.22C823.299 185.116 828.294 186.443 834.917 187.429L842.903 188.566L835.031 190.386C830.527 191.41 826.137 193.382 822.353 195.771C818.227 198.349 814.859 201.383 812.891 204.226L812.437 204.871H779.549V160.735H765.016V204.871H731.636L731.182 204.226L731.258 204.188ZM723.386 193.192C727.549 195.771 731.031 198.88 733.226 201.838H762.064V157.701H782.652V201.838H810.961C813.194 198.88 816.676 195.809 820.801 193.192C823.147 191.714 825.721 190.386 828.408 189.325C824.321 188.415 820.99 187.315 818.379 185.874C814.329 183.675 811.907 180.755 810.885 176.888L791.773 103.858L788.102 116.333H774.894L765.546 78.9079L763.616 88.1219C757.977 115.423 746.964 168.508 740.416 177.418C737.237 181.741 732.961 184.547 727.7 186.481C724.218 187.77 720.283 188.68 715.968 189.438C718.579 190.5 721.077 191.789 723.386 193.23V193.192Z" fill="#3066B7"/>
<path fill-rule="evenodd" clip-rule="evenodd" d="M708.781 186.795H763.47V189.808H708.781V186.795ZM781.215 186.795H835.368V189.808H781.215V186.795Z" fill="#3066B7"/>
<path fill-rule="evenodd" clip-rule="evenodd" d="M814.142 248.422H855.129V238.149H814.142V248.422ZM856.552 251.571H811.258V235H857.974V251.571H856.552Z" fill="#3066B7"/>
<path fill-rule="evenodd" clip-rule="evenodd" d="M834.616 323.879C837.291 323.879 839.769 324.941 841.539 326.649C843.31 328.357 844.411 330.71 844.411 333.328V358.526H824.82V333.328C824.82 330.748 825.922 328.357 827.692 326.649C829.462 324.941 831.901 323.879 834.616 323.879ZM839.297 328.812C838.078 327.636 836.425 326.915 834.616 326.915C832.806 326.915 831.115 327.636 829.934 328.774C828.715 329.951 827.967 331.545 827.967 333.29V355.452H841.225V333.29C841.225 331.545 840.477 329.913 839.258 328.774L839.297 328.812Z" fill="#3066B7"/>
<path fill-rule="evenodd" clip-rule="evenodd" d="M814.499 370.571H854.771V358.495H814.499V370.571ZM856.373 373.591H811.258V355.514H857.974V373.591H856.373Z" fill="#3066B7"/>
<path fill-rule="evenodd" clip-rule="evenodd" d="M831.036 257.596H838.196C839.887 257.596 841.461 258.279 842.602 259.341C843.742 260.442 844.411 261.922 844.411 263.592V292.243H824.82V263.592C824.82 261.96 825.528 260.442 826.63 259.379C827.771 258.279 829.305 257.596 831.036 257.596ZM838.196 260.632H831.036C830.21 260.632 829.423 260.973 828.872 261.504C828.321 262.036 827.967 262.795 827.967 263.592V289.207H841.225V263.592C841.225 262.795 840.871 262.036 840.32 261.504C839.769 260.973 838.982 260.632 838.156 260.632H838.196Z" fill="#3066B7"/>
<path fill-rule="evenodd" clip-rule="evenodd" d="M818.789 331.398L834.632 304.295L850.436 331.398L847.763 332.917L834.632 310.406L821.462 332.917L818.789 331.398Z" fill="#3066B7"/>
<path fill-rule="evenodd" clip-rule="evenodd" d="M763.075 156.666H782.621V203.365H761.523V156.666H763.075ZM779.519 159.669H764.626V200.362H779.519V159.669Z" fill="#3066B7"/>
<path d="M781.115 174.744H763.031V177.757H781.115V174.744Z" fill="#3066B7"/>
<path d="M773.584 158.174H770.57V201.86H773.584V158.174Z" fill="#3066B7"/>
<path fill-rule="evenodd" clip-rule="evenodd" d="M891.129 257.596C892.729 257.596 894.721 259.423 896.204 261.746C897.571 263.84 898.664 266.467 898.664 268.333V292.243H883.594V268.333C883.594 266.429 884.687 263.84 886.053 261.746C887.537 259.423 889.528 257.596 891.129 257.596ZM893.588 263.345C892.612 261.822 891.597 260.642 891.129 260.642C890.66 260.642 889.645 261.86 888.669 263.345C887.576 265.02 886.717 267.038 886.717 268.333V289.197H895.54V268.333C895.54 267.038 894.681 265.02 893.588 263.345Z" fill="#3066B7"/>
<path fill-rule="evenodd" clip-rule="evenodd" d="M901.676 257.596C903.276 257.596 905.267 259.423 906.751 261.746C908.117 263.878 909.21 266.467 909.21 268.333V292.243H894.141V268.333C894.141 266.467 895.234 263.84 896.6 261.746C898.084 259.423 900.075 257.596 901.676 257.596ZM904.135 263.345C903.159 261.822 902.144 260.642 901.676 260.642C901.207 260.642 900.192 261.86 899.216 263.345C898.123 265.02 897.264 267.038 897.264 268.333V289.197H906.087V268.333C906.087 267.038 905.228 265.02 904.135 263.345Z" fill="#3066B7"/>
<path fill-rule="evenodd" clip-rule="evenodd" d="M877.577 245.545H916.743V292.244H876.055V245.545H877.577ZM913.698 248.595H879.1V289.194H913.698V248.595Z" fill="#3066B7"/>
<path fill-rule="evenodd" clip-rule="evenodd" d="M874.619 302.781H919.688V292.25H874.619V302.781ZM921.231 305.801H871.535V289.23H922.773V305.801H921.231Z" fill="#3066B7"/>
<path fill-rule="evenodd" clip-rule="evenodd" d="M896.401 248.557H865.508L873.654 245.633C878.956 243.696 883.183 240.848 886.641 237.24C890.099 233.632 892.789 229.303 895.018 224.48L896.401 221.441L897.784 224.48C900.013 229.303 902.703 233.632 906.161 237.24C909.619 240.81 913.807 243.696 919.148 245.633L927.294 248.557H896.401ZM881.031 245.519H911.809C908.851 243.772 906.238 241.683 903.971 239.328C900.935 236.176 898.514 232.569 896.439 228.581C894.365 232.569 891.905 236.214 888.908 239.328C886.641 241.683 884.028 243.772 881.07 245.519H881.031Z" fill="#3066B7"/>
<path fill-rule="evenodd" clip-rule="evenodd" d="M751.539 290.736L772.093 309.268L792.608 290.736L794.678 292.899L772.093 313.332L749.469 292.899L751.539 290.736Z" fill="#3066B7"/>
<path fill-rule="evenodd" clip-rule="evenodd" d="M872.959 302.789L895.666 315.752L918.372 302.789L919.759 305.604L895.666 319.36L871.535 305.604L872.959 302.789Z" fill="#3066B7"/>
<path fill-rule="evenodd" clip-rule="evenodd" d="M821.795 438.295H845.96V413.139C845.96 409.749 844.607 406.629 842.427 404.395C840.248 402.16 837.204 400.773 833.896 400.773C830.589 400.773 827.545 402.16 825.366 404.395C823.186 406.629 821.833 409.749 821.833 413.139V438.295H821.795ZM847.463 441.377H818.789V413.139C818.789 408.902 820.48 405.011 823.224 402.237C825.967 399.425 829.725 397.691 833.859 397.691C837.993 397.691 841.788 399.425 844.494 402.237C847.238 405.049 848.929 408.902 848.929 413.139V441.377H847.426H847.463Z" fill="#3066B7"/>
<path fill-rule="evenodd" clip-rule="evenodd" d="M821.795 438.333H845.96V413.442C845.96 410.625 845.509 407.961 844.682 405.563C843.855 403.127 842.653 400.996 841.187 399.321C840.586 398.636 839.834 397.989 839.007 397.266C837.316 395.819 835.437 394.183 833.859 391.48C832.243 394.145 830.364 395.781 828.71 397.266C827.921 397.951 827.17 398.598 826.568 399.321C825.103 400.996 823.9 403.127 823.073 405.563C822.246 407.961 821.795 410.625 821.795 413.442V438.333ZM833.859 441.378H818.789V413.442C818.789 410.283 819.315 407.276 820.217 404.573C821.194 401.757 822.585 399.245 824.313 397.304C825.027 396.466 825.892 395.743 826.756 394.982C828.71 393.307 830.965 391.328 832.468 387.56L833.859 384.135L835.249 387.56C836.79 391.328 839.007 393.269 840.962 394.982C841.864 395.743 842.69 396.466 843.404 397.304C845.133 399.283 846.524 401.757 847.501 404.573C848.403 407.276 848.929 410.283 848.929 413.442V441.378H833.859Z" fill="#3066B7"/>
<path d="M847.423 412.756H820.297V415.769H847.423V412.756Z" fill="#3066B7"/>
<path d="M835.369 399.199H832.355V412.757H835.369V399.199Z" fill="#3066B7"/>
<path d="M767.553 36.1543H764.539V72.3081H767.553V36.1543Z" fill="#3066B7"/>
<path d="M793.174 61.7617H790.16V97.9156H793.174V61.7617Z" fill="#3066B7"/>
<path fill-rule="evenodd" clip-rule="evenodd" d="M812.754 210.896H857.974V238.012H811.258V210.896H812.754ZM855.021 213.856H814.25V235.052H855.021V213.856Z" fill="#3066B7"/>
<path fill-rule="evenodd" clip-rule="evenodd" d="M812.788 227.469H857.974V238.014H811.258V227.469H812.788ZM854.875 230.378H814.319V235.105H854.875V230.378Z" fill="#3066B7"/>
<path fill-rule="evenodd" clip-rule="evenodd" d="M901.676 257.596C903.276 257.596 905.267 259.423 906.751 261.746C908.117 263.878 909.21 266.467 909.21 268.333V292.243H894.141V268.333C894.141 266.467 895.234 263.84 896.6 261.746C898.084 259.423 900.075 257.596 901.676 257.596ZM904.135 263.345C903.159 261.822 902.144 260.642 901.676 260.642C901.207 260.642 900.192 261.86 899.216 263.345C898.123 265.02 897.264 267.038 897.264 268.333V289.197H906.087V268.333C906.087 267.038 905.228 265.02 904.135 263.345Z" fill="#3066B7"/>
<path fill-rule="evenodd" clip-rule="evenodd" d="M951.406 326.891C953.007 326.891 954.998 328.718 956.481 331.041C957.848 333.173 958.941 335.762 958.941 337.628V361.538H943.871V337.628C943.871 335.762 944.964 333.135 946.331 331.041C947.814 328.718 949.805 326.891 951.406 326.891ZM953.866 332.64C952.89 331.117 951.875 329.937 951.406 329.937C950.938 329.937 949.922 331.155 948.946 332.64C947.853 334.315 946.994 336.333 946.994 337.628V358.492H955.818V337.628C955.818 336.333 954.959 334.315 953.866 332.64Z" fill="#3066B7"/>
<path fill-rule="evenodd" clip-rule="evenodd" d="M937.929 379.62C944.093 379.211 951.962 376.426 958.165 372.452C963.127 369.258 966.964 365.396 967.778 361.496H937.968V379.62H937.929ZM959.87 374.903C952.66 379.508 943.279 382.628 936.379 382.628H934.828V358.525H970.996V360.011C970.996 365.507 966.266 370.818 959.87 374.903Z" fill="#3066B7"/>
<path fill-rule="evenodd" clip-rule="evenodd" d="M969.408 361.538H934.828V310.32H970.996V361.538H969.447H969.408ZM937.926 358.514H967.859V313.344H937.926V358.514Z" fill="#3066B7"/>
<path fill-rule="evenodd" clip-rule="evenodd" d="M937.766 273.055C941.619 281.539 946.274 289.182 952.34 295.564C958.368 301.907 965.731 306.99 975.002 310.391L983.052 313.333H934.828V266.635L937.728 273.055H937.766ZM950.127 297.665C945.282 292.545 941.314 286.698 937.918 280.278V310.314H967.143C960.504 306.99 954.934 302.71 950.165 297.665H950.127Z" fill="#3066B7"/>
<path d="M969.49 314.84H936.336V317.853H969.49V314.84Z" fill="#3066B7"/>
<path d="M967.983 363.045H936.336V366.058H967.983V363.045Z" fill="#3066B7"/>
<path fill-rule="evenodd" clip-rule="evenodd" d="M936.375 379.679C941.243 378.415 945.255 376.079 948.098 373.398C951.097 370.564 952.811 367.308 952.811 364.551H955.927C955.927 368.151 953.863 372.172 950.24 375.581C947.047 378.606 942.568 381.211 937.154 382.628L936.336 379.679H936.375Z" fill="#3066B7"/>
<path fill-rule="evenodd" clip-rule="evenodd" d="M895.648 84.3594C897.21 84.3594 899.201 86.0164 900.685 88.1254C902.09 90.0461 903.183 92.4563 903.183 94.2264V115.994H888.113V94.2264C888.113 92.494 889.206 90.0837 890.612 88.1254C892.095 86.0164 894.087 84.3594 895.648 84.3594ZM898.147 89.8201C897.171 88.4643 896.156 87.3722 895.648 87.3722C895.141 87.3722 894.126 88.4643 893.15 89.8201C892.056 91.3265 891.237 93.0589 891.237 94.1887V112.944H900.06V94.1887C900.06 93.0589 899.201 91.2889 898.147 89.8201Z" fill="#3066B7"/>
<path fill-rule="evenodd" clip-rule="evenodd" d="M1438.16 171.822L1493.24 157.094V160.245L1438.96 174.744L1438.16 171.822ZM1541.27 144.265L1607.65 126.539L1608.45 129.462L1549.04 145.328V144.265H1541.27Z" fill="#3066B7"/>
<path fill-rule="evenodd" clip-rule="evenodd" d="M1398.98 198.873L1492.45 173.72V176.898L1399.78 201.859L1398.98 198.911V198.873ZM1548.32 158.674L1645.33 132.564L1646.13 135.512L1548.32 161.852V158.674Z" fill="#3066B7"/>
<path fill-rule="evenodd" clip-rule="evenodd" d="M1438.16 204.998L1493.24 190.259V191.74H1499.41L1438.96 207.885L1438.16 204.96V204.998ZM1549.04 175.368L1607.65 159.68L1608.45 162.605L1549.04 178.483V175.33V175.368Z" fill="#3066B7"/>
<path fill-rule="evenodd" clip-rule="evenodd" d="M1503.05 43.8614H1493.87V143.776H1492.39V191.134H1493.87V376.429H1503.05V191.134H1505.98V379.616H1490.91V40.6738H1492.39H1505.98V143.776H1503.05V43.8614Z" fill="#3066B7"/>
<path fill-rule="evenodd" clip-rule="evenodd" d="M1524.12 43.8614H1514.96V143.776H1512.01V40.6738H1527.04V143.776H1524.09V43.8614H1524.12ZM1514.96 191.134V376.467H1524.12V191.134H1527.08V379.616H1512.04V191.134H1515H1514.96Z" fill="#3066B7"/>
<path fill-rule="evenodd" clip-rule="evenodd" d="M1546.72 43.8614H1537.54V143.776H1534.61V40.6738H1536.09H1549.68V379.616H1534.61V191.134H1537.54V376.429H1546.72V191.134H1548.2V143.776H1546.72V43.8614Z" fill="#3066B7"/>
<path fill-rule="evenodd" clip-rule="evenodd" d="M1492.43 143.109H1549.68V194.327H1490.91V143.109H1492.43ZM1546.64 146.339H1493.95V191.097H1546.64V146.339Z" fill="#3066B7"/>
<path fill-rule="evenodd" clip-rule="evenodd" d="M1522.42 150.413L1527.6 161.006L1542.15 163.171L1531.64 173.61L1534.08 188.302L1521.05 181.381L1508.03 188.302L1510.46 173.61L1499.95 163.171L1514.5 161.006L1521.05 147.629L1522.42 150.413ZM1525.24 163.094L1521.09 154.588L1516.56 163.829L1506.5 165.336L1513.78 172.566L1512.06 182.735L1521.09 177.94L1530.11 182.735L1528.4 172.566L1535.67 165.336L1525.62 163.829L1525.28 163.094H1525.24Z" fill="#3066B7"/>
<path fill-rule="evenodd" clip-rule="evenodd" d="M1465.31 376.604H1578.32V394.68H1463.79V376.604H1465.31ZM1575.3 379.722H1466.84V391.562H1575.3V379.722Z" fill="#3066B7"/>
<path fill-rule="evenodd" clip-rule="evenodd" d="M1438.13 391.668H1602.42V409.745H1436.66V391.668H1438.17H1438.13ZM1599.4 394.786H1439.65V406.627H1599.4V394.786Z" fill="#3066B7"/>
<path fill-rule="evenodd" clip-rule="evenodd" d="M1412.56 408.238H1629.55V426.315H1411.04V408.238H1412.56ZM1626.52 411.356H1414.07V423.197H1626.52V411.356Z" fill="#3066B7"/>
<path fill-rule="evenodd" clip-rule="evenodd" d="M1385.43 423.303H1655.17V441.38H1383.91V423.303H1385.43ZM1652.13 426.421H1386.95V438.262H1652.13V426.421Z" fill="#3066B7"/>
<path fill-rule="evenodd" clip-rule="evenodd" d="M1501.42 376.604H1540.64V394.68H1499.95V376.604H1501.46H1501.42ZM1537.64 379.691H1502.92V391.593H1537.64V379.691Z" fill="#3066B7"/>
<path fill-rule="evenodd" clip-rule="evenodd" d="M1492.42 391.668H1549.68V409.745H1490.91V391.668H1492.42ZM1546.67 394.755H1493.96V406.62H1546.67V394.755Z" fill="#3066B7"/>
<path fill-rule="evenodd" clip-rule="evenodd" d="M1483.38 408.238H1558.72V426.315H1481.87V408.238H1483.38ZM1555.7 411.325H1484.89V423.191H1555.7V411.325Z" fill="#3066B7"/>
<path fill-rule="evenodd" clip-rule="evenodd" d="M1474.34 423.301H1567.77V441.378H1472.83V423.301H1474.34ZM1564.74 426.419H1475.85V438.223H1564.74V426.419Z" fill="#3066B7"/>
<path d="M107.498 323.877H104.484V329.903H107.498V323.877Z" fill="#3066B7"/>
<path d="M163.256 323.877H160.242V329.903H163.256V323.877Z" fill="#3066B7"/>
<path fill-rule="evenodd" clip-rule="evenodd" d="M128.593 287.725H105.988V302.789C110.203 293.797 118.708 287.88 128.593 287.725Z" fill="#3066B7"/>
<path fill-rule="evenodd" clip-rule="evenodd" d="M163.253 287.725H140.648C150.608 287.88 159.038 293.758 163.253 302.789V287.725Z" fill="#3066B7"/>
<path d="M348.615 326.891H344.094V334.423H348.615V326.891Z" fill="#3066B7"/>
<path d="M390.81 326.891H386.289V334.423H390.81V326.891Z" fill="#3066B7"/>
<path d="M630.42 323.877H627.406V329.903H630.42V323.877Z" fill="#3066B7"/>
<path d="M574.662 323.877H571.648V329.903H574.662V323.877Z" fill="#3066B7"/>
<path fill-rule="evenodd" clip-rule="evenodd" d="M606.309 287.723H628.913V302.787C624.698 293.795 616.231 287.878 606.309 287.723Z" fill="#3066B7"/>
<path fill-rule="evenodd" clip-rule="evenodd" d="M571.648 287.725H594.253C584.294 287.88 575.864 293.758 571.648 302.789V287.725Z" fill="#3066B7"/>
<path fill-rule="evenodd" clip-rule="evenodd" d="M377.247 201.859H357.656V224.611C357.656 225.316 358.252 225.91 358.96 225.91H365.515C366.521 225.91 367.154 226.392 367.414 227.468C367.787 226.392 368.569 225.91 369.5 225.91H375.683C376.539 225.91 377.247 225.204 377.247 224.351V201.859ZM368.048 212.697C368.048 212.697 367.861 212.808 367.787 212.882H367.75H367.675V212.808C367.675 212.808 367.675 212.734 367.675 212.697H367.75C367.75 212.697 367.861 212.511 367.899 212.437C368.048 212.177 368.159 211.917 368.308 211.62C368.42 211.361 368.532 211.064 368.643 210.804C368.643 210.804 368.643 210.73 368.681 210.693C368.681 210.693 368.681 210.618 368.718 210.581C368.792 210.433 368.792 210.284 368.83 210.136V210.062H368.904L368.979 209.765H369.128L369.277 209.505V209.394L369.351 209.245C369.426 209.282 369.463 209.319 369.5 209.356C369.5 209.282 369.537 209.208 369.575 209.134V209.022C369.575 209.022 369.686 209.022 369.761 209.022L369.835 208.948C369.835 208.948 369.91 208.837 369.947 208.8V208.726H370.059H370.133L370.245 208.54V208.466H370.357C370.357 208.466 370.394 208.392 370.431 208.354V208.28V208.132H370.543H370.617L370.729 207.946V207.872H370.841H370.953L371.102 207.538C371.176 207.538 371.213 207.538 371.288 207.575C371.288 207.575 371.586 207.278 371.735 207.13C371.735 207.13 371.772 207.093 371.809 207.055C371.847 207.018 371.921 206.981 371.958 206.944C371.996 206.758 372.033 206.61 372.07 206.424C372.07 206.387 372.07 206.313 372.07 206.276H372.145C372.145 206.276 372.219 206.276 372.293 206.276C372.368 206.276 372.405 206.239 372.48 206.202H372.554C372.554 206.202 372.74 206.053 372.852 205.979L372.964 205.905C372.964 205.905 373.15 205.794 373.262 205.719V205.831V205.868L373.746 205.385L373.821 205.311C373.821 205.311 373.895 205.2 373.932 205.163L374.007 205.051C374.007 205.051 374.081 204.94 374.081 204.866C374.118 204.754 374.156 204.643 374.193 204.532C374.305 204.235 374.379 203.938 374.454 203.641C374.454 203.604 374.454 203.567 374.454 203.492C374.454 203.344 374.491 203.233 374.528 203.084L374.752 202.602C374.752 202.602 374.752 202.861 374.752 203.01C374.752 203.307 374.789 203.641 374.826 203.938C374.826 204.049 374.826 204.16 374.901 204.272C374.901 204.272 374.901 204.383 374.938 204.383C374.975 204.383 374.975 204.383 375.012 204.42H375.087C375.087 204.42 375.199 204.457 375.273 204.457H375.348C375.459 204.457 375.571 204.457 375.646 204.457C375.646 204.457 375.757 204.457 375.795 204.457C375.981 204.457 376.204 204.383 376.39 204.346C376.092 204.532 375.757 204.754 375.422 204.903H375.348L375.161 205.051L374.863 205.237C374.863 205.237 374.789 205.274 374.752 205.311C374.714 205.311 374.677 205.348 374.64 205.385L374.528 205.459C374.528 205.459 374.23 205.719 374.118 205.868C374.007 206.016 373.895 206.165 373.783 206.35H374.044L374.007 206.573C374.007 206.573 373.821 206.684 373.709 206.721H373.634L373.485 206.758C373.411 206.87 373.299 206.981 373.225 207.13C373.038 207.352 372.852 207.612 372.703 207.835C372.74 207.835 372.778 207.835 372.815 207.835C372.815 207.835 372.927 207.835 373.001 207.872V208.02H372.927C372.778 208.095 372.629 208.169 372.48 208.243L372.293 208.317C372.293 208.317 372.107 208.54 371.996 208.651C371.809 208.837 371.66 209.022 371.511 209.245C371.251 209.542 370.99 209.839 370.729 210.136C370.692 210.173 370.617 210.247 370.58 210.284C370.729 210.284 370.878 210.284 371.027 210.284C371.176 210.284 371.325 210.284 371.437 210.247L371.325 210.396C371.251 210.47 371.213 210.507 371.139 210.544C370.915 210.693 370.655 210.841 370.394 210.952C370.32 210.952 370.245 210.99 370.171 211.027C370.059 211.027 369.91 211.101 369.761 211.101L369.537 211.286L369.426 211.361C369.351 211.435 369.314 211.472 369.239 211.546L369.016 211.806C369.016 211.806 369.016 211.992 369.016 212.066C368.941 212.066 368.867 211.992 368.792 211.955C368.755 211.955 368.681 212.029 368.643 212.066C368.606 212.103 368.532 212.14 368.494 212.177C368.308 212.326 368.085 212.474 367.899 212.585L368.048 212.697ZM366.595 212.66C366.409 212.511 366.185 212.4 365.999 212.251C365.962 212.214 365.887 212.177 365.85 212.14C365.813 212.14 365.776 212.066 365.701 212.029C365.627 212.066 365.552 212.103 365.478 212.14C365.478 212.066 365.478 211.992 365.478 211.917L365.254 211.658C365.18 211.583 365.142 211.509 365.068 211.472L364.956 211.398L364.733 211.212C364.733 211.212 364.472 211.175 364.323 211.138C364.249 211.138 364.174 211.101 364.1 211.064C363.839 210.952 363.615 210.841 363.355 210.655C363.28 210.618 363.206 210.544 363.169 210.507L363.057 210.359C363.057 210.359 363.355 210.359 363.466 210.396C363.615 210.396 363.764 210.396 363.913 210.396C363.876 210.359 363.802 210.284 363.764 210.247C363.504 209.95 363.243 209.653 362.982 209.356C362.833 209.171 362.647 208.985 362.498 208.763C362.386 208.651 362.312 208.54 362.2 208.429L362.014 208.354C362.014 208.354 361.716 208.206 361.567 208.132H361.53V207.946C361.567 207.946 361.641 207.909 361.679 207.946C361.679 207.946 361.753 207.946 361.79 207.909C361.604 207.686 361.418 207.427 361.269 207.204C361.195 207.093 361.083 206.981 361.008 206.833H360.859L360.785 206.796C360.673 206.758 360.599 206.721 360.487 206.647L360.45 206.424H360.71C360.71 206.424 360.487 206.09 360.375 205.942C360.263 205.794 360.114 205.682 359.965 205.534L359.854 205.459C359.854 205.459 359.779 205.385 359.742 205.385C359.705 205.385 359.667 205.385 359.63 205.311L359.332 205.125L359.146 204.977H359.072C358.736 204.791 358.438 204.569 358.103 204.383C358.289 204.42 358.513 204.457 358.699 204.494C358.736 204.494 358.811 204.494 358.848 204.494C358.848 204.494 359.072 204.494 359.146 204.494H359.221C359.295 204.494 359.37 204.494 359.407 204.494H359.481C359.481 204.494 359.519 204.457 359.556 204.42C359.556 204.42 359.556 204.383 359.593 204.346C359.593 204.346 359.667 204.086 359.667 203.975C359.667 203.678 359.705 203.381 359.742 203.047C359.742 202.899 359.742 202.787 359.742 202.639L359.965 203.121C359.965 203.121 360.003 203.381 360.04 203.53C360.04 203.567 360.04 203.604 360.04 203.678C360.114 203.975 360.189 204.272 360.301 204.569C360.338 204.68 360.375 204.791 360.412 204.903C360.412 204.977 360.487 205.014 360.487 205.088L360.561 205.2C360.561 205.2 360.636 205.311 360.673 205.348L360.748 205.422L361.232 205.905H361.269V205.756C361.381 205.831 361.418 205.831 361.567 205.942L361.679 206.016C361.753 206.09 361.865 206.128 361.977 206.202H362.051C362.126 206.202 362.163 206.239 362.237 206.276C362.275 206.276 362.312 206.276 362.386 206.276H362.461C362.461 206.276 362.461 206.387 362.461 206.424C362.461 206.61 362.535 206.758 362.573 206.944C362.61 206.981 362.684 207.018 362.722 207.055C362.722 207.055 362.759 207.093 362.796 207.13C362.945 207.278 363.094 207.427 363.243 207.575C363.243 207.575 363.355 207.575 363.429 207.538L363.578 207.872H363.69H363.802V207.946L363.913 208.132H363.988L364.137 208.095V208.243V208.317C364.137 208.317 364.211 208.392 364.211 208.429H364.323V208.503L364.435 208.688H364.509H364.621V208.763C364.621 208.763 364.696 208.874 364.733 208.911L364.807 208.985C364.807 208.985 364.919 208.985 364.956 208.985V209.097C364.956 209.097 364.994 209.245 365.031 209.319C365.068 209.282 365.142 209.245 365.18 209.208V209.356L365.254 209.468L365.403 209.728H365.552L365.627 210.025H365.701V210.136C365.701 210.136 365.776 210.433 365.813 210.581C365.813 210.581 365.813 210.656 365.85 210.693C365.85 210.693 365.85 210.767 365.887 210.804C365.999 211.064 366.111 211.361 366.223 211.62C366.334 211.88 366.483 212.177 366.632 212.437C366.669 212.511 366.707 212.585 366.781 212.66H366.856C366.856 212.66 366.856 212.771 366.856 212.808V212.845L366.781 212.882H366.744C366.744 212.882 366.558 212.734 366.483 212.697L366.595 212.66ZM367.079 213.699C367.079 213.699 367.116 213.513 367.154 213.402L367.228 213.328H367.303C367.303 213.328 367.34 213.328 367.377 213.365V213.439C367.377 213.439 367.377 213.625 367.377 213.699C367.452 213.996 367.526 214.293 367.638 214.553C367.712 214.849 367.824 215.109 367.936 215.369C367.936 215.369 367.936 215.443 367.936 215.48C367.936 215.48 367.936 215.555 367.936 215.592C367.973 215.74 368.085 215.889 368.159 216V216.111L368.085 216.186L368.197 216.445L368.085 216.52L368.159 216.817V216.928L368.271 217.039C368.197 217.039 368.122 217.039 368.085 217.039C368.085 217.113 368.159 217.188 368.197 217.262L368.271 217.373C368.271 217.373 368.197 217.447 368.159 217.447V217.559C368.159 217.559 368.159 217.67 368.197 217.744V217.819L368.159 217.893H368.122L368.159 218.116V218.19V218.264C368.159 218.301 368.159 218.338 368.159 218.375V218.45H368.197L368.308 218.561L368.197 218.635H368.122L368.159 218.895V218.969V219.043L368.048 219.118L368.159 219.452C368.159 219.452 368.048 219.526 368.01 219.526C368.01 219.749 368.01 219.934 368.01 220.157C368.01 220.157 368.01 220.231 368.01 220.268C368.01 220.342 368.01 220.379 367.973 220.454C368.048 220.602 368.159 220.788 368.234 220.936C368.234 220.973 368.271 221.01 368.308 221.048L368.234 221.122C368.234 221.122 368.159 221.196 368.159 221.233C368.159 221.307 368.085 221.344 368.085 221.419V221.493C368.085 221.604 368.01 221.716 368.01 221.827V221.975H367.973C367.936 222.124 367.899 222.161 367.861 222.309L367.787 222.198H367.712V222.866L367.638 222.94C367.638 223.015 367.638 223.052 367.638 223.126V223.237C367.638 223.237 367.675 223.349 367.712 223.423C367.712 223.534 367.787 223.646 367.824 223.757C367.936 224.017 368.085 224.314 368.234 224.573C368.234 224.611 368.271 224.648 368.308 224.685C368.383 224.796 368.457 224.907 368.532 225.019L368.681 225.538C368.681 225.538 368.495 225.353 368.42 225.241C368.197 225.019 367.973 224.796 367.75 224.611C367.675 224.536 367.563 224.462 367.489 224.425H367.452C367.452 224.425 367.414 224.425 367.377 224.425C367.377 224.425 367.34 224.425 367.303 224.425H367.228C367.228 224.425 367.116 224.499 367.042 224.573L367.005 224.648C366.93 224.722 366.856 224.796 366.781 224.87C366.781 224.87 366.707 224.945 366.67 225.019C366.558 225.167 366.409 225.353 366.297 225.501C366.409 225.167 366.483 224.796 366.632 224.462V224.388L366.707 224.165L366.818 223.831C366.818 223.831 366.818 223.757 366.856 223.72C366.856 223.683 366.856 223.608 366.893 223.571V223.46C366.893 223.46 366.967 223.089 366.93 222.903C366.93 222.718 366.893 222.532 366.856 222.309L366.632 222.495L366.521 222.309C366.521 222.309 366.595 222.087 366.632 221.975V221.901L366.781 221.79C366.781 221.641 366.781 221.493 366.744 221.344C366.744 221.048 366.707 220.751 366.67 220.454C366.632 220.454 366.595 220.454 366.558 220.528C366.558 220.528 366.446 220.602 366.409 220.639L366.334 220.491C366.372 220.268 366.446 220.12 366.521 219.971L366.632 219.786C366.632 219.786 366.632 219.489 366.632 219.34C366.632 219.08 366.632 218.821 366.632 218.561C366.632 218.153 366.632 217.781 366.632 217.373C366.632 217.299 366.632 217.225 366.632 217.151C366.521 217.262 366.446 217.373 366.334 217.447C366.223 217.559 366.148 217.67 366.036 217.781V217.596C366.036 217.522 366.036 217.41 366.074 217.336C366.148 217.076 366.223 216.816 366.334 216.557C366.334 216.482 366.409 216.408 366.446 216.371C366.521 216.26 366.595 216.148 366.707 216.037L366.744 215.703V215.592C366.744 215.517 366.744 215.406 366.744 215.332V214.998C366.707 214.924 366.632 214.887 366.595 214.812C366.67 214.812 366.744 214.775 366.818 214.738C366.818 214.701 366.818 214.627 366.856 214.59C366.856 214.515 366.856 214.478 366.856 214.404C366.893 214.181 366.967 213.922 367.005 213.699H367.079Z" fill="#3066B7"/>
<path fill-rule="evenodd" clip-rule="evenodd" d="M373.667 192.793L371.977 198.134C371.977 198.134 372.089 198.258 372.127 198.422C372.127 198.627 371.864 198.668 371.864 198.668C371.864 198.668 371.789 198.997 371.864 199.12C371.939 199.244 372.014 199.285 372.014 199.408C372.014 199.531 372.014 199.654 371.751 199.819C371.112 200.189 368.595 200.312 367.13 200.353C365.665 200.353 363.861 200.106 363.411 199.983C362.96 199.86 362.96 199.696 362.96 199.531C362.96 199.367 363.11 199.203 363.11 199.203V198.874C363.11 198.874 363.072 198.874 362.997 198.874C362.922 198.874 362.847 198.792 362.809 198.668C362.809 198.545 362.96 198.34 362.96 198.34L361.119 193.04C361.119 193.04 361.119 193.04 361.081 193.04C360.856 193.04 360.668 192.835 360.668 192.588C360.668 192.342 360.856 192.136 361.081 192.136C361.307 192.136 361.495 192.342 361.495 192.588C361.495 192.67 361.495 192.752 361.419 192.835C361.757 193.451 362.359 193.862 362.885 194.067C363.373 194.231 364.124 194.519 364.124 194.519C364.124 194.519 364.312 193.903 364.387 193.656C364.387 193.492 364.387 193.369 364.35 193.204C364.237 193.163 364.162 193.081 364.124 192.917C364.087 192.711 364.2 192.506 364.387 192.465C364.575 192.424 364.763 192.547 364.801 192.752C364.801 192.876 364.801 192.999 364.726 193.081C364.726 193.245 364.763 193.369 364.801 193.492C364.838 193.574 364.913 193.656 364.989 193.738C365.327 194.19 365.665 194.478 365.665 194.478C365.665 194.478 365.928 194.231 366.379 193.944C366.491 193.862 366.604 193.779 366.679 193.697C367.017 193.328 367.243 192.835 367.243 192.177C367.092 192.095 367.017 191.931 367.017 191.766C367.017 191.52 367.205 191.314 367.431 191.314C367.656 191.314 367.844 191.52 367.844 191.766C367.844 191.931 367.769 192.095 367.618 192.177C367.618 192.588 367.694 192.917 367.844 193.204C367.919 193.328 368.032 193.492 368.182 193.615C368.633 194.067 368.971 194.231 369.234 194.355C369.347 194.272 369.647 193.985 369.948 193.492C369.948 193.451 370.023 193.41 370.023 193.369C370.023 193.245 370.061 193.081 370.098 192.917C370.023 192.835 369.985 192.711 369.985 192.588C369.985 192.383 370.173 192.218 370.361 192.259C370.549 192.259 370.699 192.465 370.662 192.67C370.662 192.793 370.587 192.917 370.474 192.958C370.474 193.163 370.474 193.369 370.474 193.533C370.549 193.903 370.774 194.437 370.774 194.437C370.774 194.437 370.962 194.355 371.3 194.19C371.638 194.026 371.864 193.944 372.052 193.903C372.578 193.656 373.104 193.204 373.442 192.588C373.404 192.506 373.367 192.424 373.367 192.342C373.367 192.095 373.517 191.89 373.78 191.849C374.005 191.849 374.193 192.013 374.231 192.3C374.231 192.547 374.081 192.752 373.818 192.793C373.818 192.793 373.742 192.793 373.705 192.793H373.667ZM371.413 199.285C371.413 199.285 369.985 198.915 367.618 198.915C365.252 198.915 363.636 199.408 363.636 199.408C363.598 199.408 363.523 199.654 363.561 199.696C363.598 199.696 364.538 200.024 366.003 200.065C367.468 200.065 368.933 200.024 369.873 199.942C370.812 199.86 371.413 199.655 371.488 199.613C371.488 199.572 371.526 199.367 371.375 199.326L371.413 199.285Z" fill="#3066B7"/>
<path fill-rule="evenodd" clip-rule="evenodd" d="M356.148 248.558C356.986 248.558 357.948 248.132 358.241 247.739C358.409 247.51 358.66 247.182 358.786 246.92C358.911 246.691 358.995 246.134 359.162 245.938V245.545L356.148 248.558Z" fill="#3066B7"/>
<path fill-rule="evenodd" clip-rule="evenodd" d="M375.738 245.718C376.126 247.034 376.772 248.558 378.752 248.558V248.419L375.824 245.545L375.738 245.718Z" fill="#3066B7"/>
<path fill-rule="evenodd" clip-rule="evenodd" d="M355.004 250.026C355.777 249.608 355.641 249.267 356.05 248.773L356.141 248.013C356.232 247.216 355.323 246.115 355.141 245.545L355.004 245.621V250.064V250.026Z" fill="#3066B7"/>
<path fill-rule="evenodd" clip-rule="evenodd" d="M379.839 247.092C379.116 248.004 378.754 248.668 378.754 250.077L379.658 251.238L379.779 251.321L379.899 251.404L380.02 251.487L380.14 251.57L380.261 247.051H380.08L379.96 247.134L379.839 247.092Z" fill="#3066B7"/>
<path fill-rule="evenodd" clip-rule="evenodd" d="M356.148 251.569C358.244 251.569 358.464 250.173 359.089 248.814L359.162 248.557L356.148 251.569Z" fill="#3066B7"/>
<path fill-rule="evenodd" clip-rule="evenodd" d="M380.262 253.292L380.791 254.584L380.913 254.503L381.769 250.064C381.117 250.549 380.262 252.082 380.262 253.292Z" fill="#3066B7"/>
<path fill-rule="evenodd" clip-rule="evenodd" d="M375.738 248.594L375.812 248.78C376.473 250.156 376.657 251.569 378.752 251.569L375.849 248.557H375.738V248.594Z" fill="#3066B7"/>
<path fill-rule="evenodd" clip-rule="evenodd" d="M354.096 254.541L354.187 254.458C354.644 253.965 354.644 253.514 354.644 252.61C354.644 251.87 353.593 250.391 353.137 250.062L354.004 254.582L354.141 254.5L354.096 254.541Z" fill="#3066B7"/>
<path fill-rule="evenodd" clip-rule="evenodd" d="M378.754 252.209L378.807 252.818C378.992 253.153 378.965 253.579 379.309 253.974C379.547 254.248 379.864 254.553 380.261 254.583L378.754 251.57V252.179V252.209Z" fill="#3066B7"/>
<path fill-rule="evenodd" clip-rule="evenodd" d="M354.668 256.09C355.079 256.09 355.38 255.592 355.6 255.186C355.928 254.643 355.901 254.056 356.093 253.559L356.148 251.887V251.57L354.641 255.864V255.999L354.668 256.09Z" fill="#3066B7"/>
<path fill-rule="evenodd" clip-rule="evenodd" d="M380.309 255.841L380.45 256.089L383.276 253.076C382.805 253.169 381.58 253.822 381.204 254.039C380.544 254.474 380.262 254.971 380.262 255.809L380.309 255.841Z" fill="#3066B7"/>
<path fill-rule="evenodd" clip-rule="evenodd" d="M355.956 256.089L356.053 256.028L356.151 255.566V255.351C356.151 254.337 354.255 253.445 353.137 253.076L355.956 256.058V256.089Z" fill="#3066B7"/>
<path fill-rule="evenodd" clip-rule="evenodd" d="M378.942 254.709L378.754 256.947C378.905 257.243 378.98 257.75 379.281 258.257C379.507 258.594 379.846 259.017 380.261 259.101L379.055 254.582L378.942 254.667V254.709Z" fill="#3066B7"/>
<path fill-rule="evenodd" clip-rule="evenodd" d="M356.148 259.101C357.015 258.89 357.128 258.088 357.542 257.539L357.655 256.989L357.467 254.666L357.354 254.582L356.148 259.101Z" fill="#3066B7"/>
<path fill-rule="evenodd" clip-rule="evenodd" d="M381.67 258.09L381.605 258.18H381.539L381.474 258.27H381.408L381.343 258.36C380.753 258.765 380.327 259.484 380.262 260.609H380.36L383.276 257.596L381.638 258.135L381.67 258.09Z" fill="#3066B7"/>
<path fill-rule="evenodd" clip-rule="evenodd" d="M354.643 260.52C354.448 259.412 354.222 258.836 353.573 258.393L353.509 258.305H353.444L353.379 258.216H353.314L353.249 258.127L351.629 257.596L354.546 260.609L354.61 260.476L354.643 260.52Z" fill="#3066B7"/>
<path fill-rule="evenodd" clip-rule="evenodd" d="M357.703 262.075C358.033 261.873 358.363 261.671 358.598 261.389C358.928 260.985 358.975 260.703 359.163 260.42C359.163 259.411 359.163 258.161 358.692 257.596L357.656 262.115L357.703 262.075Z" fill="#3066B7"/>
<path fill-rule="evenodd" clip-rule="evenodd" d="M377.335 260.42C377.822 261.147 377.689 261.59 378.753 262.115L377.778 257.596C377.601 257.838 377.246 259.129 377.246 259.533V259.936C377.246 260.178 377.29 260.178 377.335 260.42Z" fill="#3066B7"/>
<path fill-rule="evenodd" clip-rule="evenodd" d="M356.119 260.548C356.055 260.047 355.381 259.435 354.836 259.352L354.099 259.157L353.554 259.102L353.137 259.157C353.265 259.296 354.355 259.797 354.644 259.936C354.9 260.075 355.189 260.186 355.445 260.325C355.606 260.409 356.054 260.743 356.151 260.548H356.119Z" fill="#3066B7"/>
<path fill-rule="evenodd" clip-rule="evenodd" d="M380.795 259.129L380.073 259.321C379.288 259.485 379.068 260.005 378.754 260.553L378.848 260.608L381.768 259.184L381.266 259.102L380.795 259.156V259.129Z" fill="#3066B7"/>
<path fill-rule="evenodd" clip-rule="evenodd" d="M375.801 263.741C376.303 264.177 376.429 264.772 377.245 265.129L377.12 260.609C376.178 261.045 375.738 262.591 375.738 263.741H375.801Z" fill="#3066B7"/>
<path fill-rule="evenodd" clip-rule="evenodd" d="M359.227 265.129C359.604 264.971 359.855 264.775 360.106 264.5C360.42 264.185 360.545 263.792 360.671 263.635C360.671 262.26 360.169 261.435 359.29 260.609L359.164 265.129H359.227Z" fill="#3066B7"/>
<path fill-rule="evenodd" clip-rule="evenodd" d="M359.119 263.55C358.697 262.904 358.486 262.689 357.725 262.366L357.598 262.295L356.964 262.187C356.753 262.187 356.711 262.115 356.457 262.115H356.162L355.401 262.187L354.641 262.295L359.077 263.622L359.162 263.55H359.119Z" fill="#3066B7"/>
<path fill-rule="evenodd" clip-rule="evenodd" d="M379.423 262.22L378.711 262.325L378.628 262.396C378.041 262.536 377.539 263.131 377.246 263.517L377.33 263.622L381.767 262.36L381.6 262.255L380.972 262.185C380.762 262.185 380.721 262.115 380.469 262.115H379.925C379.674 262.115 379.674 262.15 379.423 262.185V262.22Z" fill="#3066B7"/>
<path fill-rule="evenodd" clip-rule="evenodd" d="M372.787 265.89L373.028 266.634L374.234 262.129C373.962 261.922 372.727 264.113 372.727 265.312V265.394C372.727 265.642 372.757 265.642 372.787 265.89Z" fill="#3066B7"/>
<path fill-rule="evenodd" clip-rule="evenodd" d="M369.746 266.428V266.634L372.725 263.745L372.655 263.621C372.48 263.745 371.849 263.869 371.603 263.951C371.253 264.116 371.008 264.24 370.692 264.488C370.237 264.901 369.711 265.561 369.711 266.428H369.746Z" fill="#3066B7"/>
<path fill-rule="evenodd" clip-rule="evenodd" d="M361.88 266.634L362.109 266.227L362.175 265.942C362.175 264.68 362.175 264.395 361.749 263.622C361.454 263.133 361.061 262.441 360.668 262.115L361.913 266.594L361.88 266.634Z" fill="#3066B7"/>
<path fill-rule="evenodd" clip-rule="evenodd" d="M375.796 265.231C375.221 265.387 374.358 266.01 374.234 266.633L378.755 265.854L378.016 265.491L376.906 265.127H376.166L375.837 265.231H375.796Z" fill="#3066B7"/>
<path fill-rule="evenodd" clip-rule="evenodd" d="M356.683 265.529L356.148 265.78C356.272 266.131 357.957 266.232 358.327 266.282C359.025 266.382 360.012 266.633 360.669 266.633C360.423 266.031 359.683 265.278 359.025 265.227L358.697 265.127H358.08L356.724 265.529H356.683Z" fill="#3066B7"/>
<path fill-rule="evenodd" clip-rule="evenodd" d="M366.698 266.341C366.591 264.584 365.031 263.998 363.684 263.621C363.755 263.872 366.378 266.55 366.627 266.634L366.698 266.341Z" fill="#3066B7"/>
<path fill-rule="evenodd" clip-rule="evenodd" d="M359.245 268.047L359.164 268.141H359.245L363.685 267.341C363.483 267.011 362.757 266.635 362.272 266.635H361.747C361.061 266.635 359.527 267.623 359.245 268.047Z" fill="#3066B7"/>
<path fill-rule="evenodd" clip-rule="evenodd" d="M371.219 267.32L375.74 268.141C375.462 267.639 373.876 266.635 373.083 266.635H372.567C372.091 266.635 371.417 267.046 371.258 267.32H371.219Z" fill="#3066B7"/>
<path fill-rule="evenodd" clip-rule="evenodd" d="M362.508 267.802L362.425 267.878L362.342 267.953L362.259 268.028L362.176 268.141L366.697 267.124C366.448 266.823 365.618 266.635 365.038 266.635C364.25 266.635 362.756 267.426 362.466 267.84L362.508 267.802Z" fill="#3066B7"/>
<path fill-rule="evenodd" clip-rule="evenodd" d="M368.244 267.162L372.642 268.141H372.724L372.56 267.991L372.477 267.915L372.395 267.84C372.108 267.426 370.628 266.635 369.847 266.635C369.272 266.635 368.45 266.861 368.203 267.124L368.244 267.162Z" fill="#3066B7"/>
<path fill-rule="evenodd" clip-rule="evenodd" d="M356.148 248.558H356.269L359.162 245.545C358.519 245.676 357.434 246.233 357.033 246.527C356.309 247.084 356.148 247.412 356.148 248.525V248.558Z" fill="#3066B7"/>
<path fill-rule="evenodd" clip-rule="evenodd" d="M375.817 245.836V245.901L375.895 245.739L378.517 248.428V248.558H378.752C378.752 247.359 378.596 247.165 377.852 246.549C377.265 246.063 376.521 245.836 375.738 245.545L375.817 245.869V245.836Z" fill="#3066B7"/>
<path fill-rule="evenodd" clip-rule="evenodd" d="M380.555 245.769H380.68L380.597 249.84L380.806 250.064L381.601 249.018L381.685 248.757L381.769 248.197V248.085C381.769 247.002 381.015 246.217 380.806 245.545H380.68L380.597 245.806L380.555 245.769Z" fill="#3066B7"/>
<path fill-rule="evenodd" clip-rule="evenodd" d="M354.641 248.712C354.641 248.712 354.837 249.137 355.034 249.33C355.165 249.485 355.427 249.678 355.623 249.832L355.754 249.91L355.886 249.987L356.017 250.064H356.148V245.545C355.623 246.008 354.641 247.36 354.641 248.133V248.326C354.641 248.558 354.706 248.558 354.772 248.789L354.641 248.712Z" fill="#3066B7"/>
<path fill-rule="evenodd" clip-rule="evenodd" d="M358.134 248.849L358.063 248.921H357.992L357.921 248.992C356.964 249.207 356.148 250.281 356.148 251.569H356.255L359.162 248.634C359.056 248.384 358.347 248.813 358.099 248.885L358.134 248.849Z" fill="#3066B7"/>
<path fill-rule="evenodd" clip-rule="evenodd" d="M353.175 253.023C353.484 253.491 353.755 254.426 354.489 254.582L354.566 254.387L354.45 254.465L353.716 250.179L353.523 250.062C353.484 250.686 353.137 251.309 353.137 252.127V252.322L353.214 253.023H353.175Z" fill="#3066B7"/>
<path fill-rule="evenodd" clip-rule="evenodd" d="M375.808 248.767H375.912L378.648 251.569H378.752C378.752 250.378 378.025 249.327 377.124 249.117L377.055 249.047H376.985L376.916 248.977H376.847L376.778 248.907L375.738 248.557V248.732L375.808 248.767Z" fill="#3066B7"/>
<path fill-rule="evenodd" clip-rule="evenodd" d="M380.262 254.469L380.384 254.584C381.443 253.933 381.117 253.818 381.687 252.975L381.769 252.401V252.133C381.769 251.29 381.402 250.716 381.361 250.064L381.239 250.141L380.384 254.354L380.262 254.43V254.469Z" fill="#3066B7"/>
<path fill-rule="evenodd" clip-rule="evenodd" d="M378.754 251.788L381.438 256.09H381.58L381.674 255.872C381.674 255.655 381.768 255.612 381.768 255.351V255.047C381.768 253.786 380.496 252.526 379.554 252.048L378.801 251.57V251.788H378.754Z" fill="#3066B7"/>
<path fill-rule="evenodd" clip-rule="evenodd" d="M356.76 251.973C355.912 252.51 354.735 253.45 354.641 254.658L354.735 256.09L355.064 256V255.866L357.56 251.615V251.928L357.655 251.57L356.807 252.018L356.76 251.973Z" fill="#3066B7"/>
<path fill-rule="evenodd" clip-rule="evenodd" d="M380.262 257.453C380.501 257.983 381.984 256.878 382.175 256.701C382.893 255.905 382.749 255.286 383.132 254.712L383.276 253.076L383.132 253.165L380.262 257.453Z" fill="#3066B7"/>
<path fill-rule="evenodd" clip-rule="evenodd" d="M351.77 254.684C352.1 255.162 352.053 255.944 352.712 256.596C353.466 257.335 353.701 257.204 354.643 257.595V257.378L351.911 253.163L351.629 253.076L351.817 254.684H351.77Z" fill="#3066B7"/>
<path fill-rule="evenodd" clip-rule="evenodd" d="M357.11 255.177L357.046 255.256C356.437 256.366 356.148 256.366 356.148 258.308L356.533 259.101L357.559 254.86L357.655 254.939V254.582L357.11 255.216V255.177Z" fill="#3066B7"/>
<path fill-rule="evenodd" clip-rule="evenodd" d="M351.784 258.044C352.312 259.346 352.872 260.609 354.394 260.609C354.55 260.609 354.55 260.609 354.643 260.527V260.242L354.581 260.364L351.784 257.596H351.629V257.677L351.784 258.003V258.044Z" fill="#3066B7"/>
<path fill-rule="evenodd" clip-rule="evenodd" d="M378.815 254.975L378.908 254.896L379.892 259.101L380.261 258.315C380.261 256.508 379.984 256.429 379.431 255.368L379.369 255.289L379.307 255.211L379.246 255.132L379.184 255.054L379.123 254.975L379.061 254.896L378.754 254.582V254.896L378.815 254.975Z" fill="#3066B7"/>
<path fill-rule="evenodd" clip-rule="evenodd" d="M380.262 260.402C380.262 260.402 380.541 260.609 380.728 260.609C381.971 260.609 382.685 259.081 383.12 258.008L383.276 257.678V257.596H383.12L380.355 260.402H380.262Z" fill="#3066B7"/>
<path fill-rule="evenodd" clip-rule="evenodd" d="M356.148 260.976L356.664 262.115L356.783 262.039L357.655 257.786V257.596C357.378 257.672 356.743 258.659 356.585 258.963C356.267 259.533 356.148 260.064 356.148 260.938V260.976Z" fill="#3066B7"/>
<path fill-rule="evenodd" clip-rule="evenodd" d="M353.307 259.389C354.199 260.536 354.837 262.114 356.706 262.114H356.791C357.131 262.114 357.174 261.971 357.514 261.971C357.726 261.875 357.684 261.827 357.514 261.588C357.386 261.923 356.791 261.349 356.579 261.206C356.281 260.967 355.856 260.775 355.517 260.536C355.177 260.297 353.689 259.436 353.519 259.197L354.072 259.102H353.137L353.264 259.436L353.307 259.389Z" fill="#3066B7"/>
<path fill-rule="evenodd" clip-rule="evenodd" d="M377.285 257.752L378.135 262.115H378.251L378.753 260.829C378.753 260.05 378.599 259.427 378.289 258.959C378.096 258.648 377.555 257.713 377.246 257.596V257.79L377.285 257.752Z" fill="#3066B7"/>
<path fill-rule="evenodd" clip-rule="evenodd" d="M378.798 261.621V261.954L379.807 262.097C380.466 262.239 381.519 261.479 381.826 261.146C382.441 260.528 382.66 260.052 383.143 259.434L383.275 259.102H382.265L382.968 259.244L378.886 261.716L378.754 261.621H378.798Z" fill="#3066B7"/>
<path fill-rule="evenodd" clip-rule="evenodd" d="M357.656 262.303C358.259 262.83 357.958 263.169 359.043 263.621L359.163 259.29L359.043 259.102C358.138 259.516 357.656 261.211 357.656 262.303Z" fill="#3066B7"/>
<path fill-rule="evenodd" clip-rule="evenodd" d="M354.839 262.115H354.641V262.176L354.72 262.236L354.799 262.296L354.879 262.356C355.83 262.838 356.187 263.622 358.012 263.622C358.527 263.622 358.686 263.471 359.082 263.411L359.162 263.351V263.2L359.082 263.26L354.918 262.145L354.839 262.115Z" fill="#3066B7"/>
<path fill-rule="evenodd" clip-rule="evenodd" d="M377.246 263.17V263.381C377.529 263.531 377.932 263.622 378.376 263.622H378.659C379.789 263.622 381.283 262.688 381.767 262.175L381.444 262.115L381.606 262.206L377.327 263.29L377.246 263.2V263.17Z" fill="#3066B7"/>
<path fill-rule="evenodd" clip-rule="evenodd" d="M375.738 259.328L375.859 263.621C376.944 263.169 376.703 262.83 377.245 262.303C377.245 261.211 376.703 259.516 375.859 259.102L375.738 259.365V259.328Z" fill="#3066B7"/>
<path fill-rule="evenodd" clip-rule="evenodd" d="M360.687 264.515C360.929 264.915 360.791 265.315 361.206 265.835C361.448 266.155 361.794 266.554 362.175 266.634V266.514L360.86 262.115C360.583 262.555 360.687 263.795 360.687 264.515Z" fill="#3066B7"/>
<path fill-rule="evenodd" clip-rule="evenodd" d="M372.727 266.512V266.634C373.182 266.512 373.427 266.146 373.708 265.82C374.093 265.332 374.023 264.884 374.234 264.477L374.128 262.115L372.727 266.553V266.512Z" fill="#3066B7"/>
<path fill-rule="evenodd" clip-rule="evenodd" d="M374.348 265.773L374.234 265.859L374.31 265.988C374.652 266.246 375.108 266.633 375.64 266.633H376.134C376.97 266.633 378.071 265.73 378.603 265.342L378.755 265.213L378.565 265.127L374.386 265.773H374.348Z" fill="#3066B7"/>
<path fill-rule="evenodd" clip-rule="evenodd" d="M356.264 265.342C356.883 265.773 357.887 266.633 358.853 266.633H359.124C359.897 266.633 360.206 266.332 360.669 265.988V265.859C360.051 265.859 359.162 265.643 358.467 265.557C358.119 265.557 356.496 265.428 356.419 265.127H356.148L356.264 265.342Z" fill="#3066B7"/>
<path fill-rule="evenodd" clip-rule="evenodd" d="M362.243 263.934C362.511 264.286 362.745 265.186 363.147 265.695C363.549 266.203 363.951 266.634 364.754 266.634H365.19V266.164L365.123 266.438C364.888 266.36 362.377 263.856 362.343 263.621H362.176L362.243 263.934Z" fill="#3066B7"/>
<path fill-rule="evenodd" clip-rule="evenodd" d="M369.711 266.517V266.634H370.274C371.003 266.634 371.4 266.125 371.798 265.656C372.228 265.147 372.394 264.325 372.659 263.934L372.725 263.621H372.493L372.559 263.738L369.744 266.477L369.711 266.517Z" fill="#3066B7"/>
<path fill-rule="evenodd" clip-rule="evenodd" d="M359.354 267.341L359.164 267.576L359.43 267.67C359.734 267.859 360.608 268.141 361.064 268.141H361.823C362.583 268.141 363.153 267.482 363.533 266.964L363.685 266.729L363.533 266.635L359.354 267.482H359.278L359.354 267.341Z" fill="#3066B7"/>
<path fill-rule="evenodd" clip-rule="evenodd" d="M371.219 266.772C371.837 267.274 372.03 268.141 373.421 268.141C374.001 268.141 375.16 267.822 375.546 267.593L375.74 267.456L371.335 266.635L371.219 266.772Z" fill="#3066B7"/>
<path fill-rule="evenodd" clip-rule="evenodd" d="M368.32 268.141H368.203L368.32 268.475C368.788 268.852 369.216 269.647 370.191 269.647H371.243C371.633 269.647 372.217 269.438 372.529 269.354H372.724L372.412 269.019L372.568 269.187H372.49L368.32 268.141Z" fill="#3066B7"/>
<path fill-rule="evenodd" clip-rule="evenodd" d="M362.482 269.061L362.176 269.312H362.406L363.938 269.647H364.436C365.816 269.647 365.93 268.936 366.543 268.475L366.697 268.141H366.543L362.367 269.229L362.444 269.103L362.482 269.061Z" fill="#3066B7"/>
<path fill-rule="evenodd" clip-rule="evenodd" d="M367.449 268.141C367.851 268.141 368.202 267.79 368.202 267.388C368.202 266.986 367.851 266.635 367.449 266.635C367.047 266.635 366.695 266.986 366.695 267.388C366.695 267.79 367.047 268.141 367.449 268.141Z" fill="#3066B7"/>
<path fill-rule="evenodd" clip-rule="evenodd" d="M367.452 235.202L332.56 250.511V254.944H323.258V250.7C311.07 253.163 295.2 257.407 281.76 264.076C272.799 268.51 264.902 274.042 260.042 280.825H268.775V285.372H317.335V299.052C284.569 299.052 248.31 300.908 216 298.673V235.202H235.895V238.195L336.395 199.582V199.241H332.408V193.14L367.452 177.756L402.534 193.14V199.241H398.509V199.582L499.009 238.195V235.202H518.904V298.673C486.556 300.908 450.335 299.052 417.569 299.052V285.372H466.129V280.825H474.862C470.002 274.08 462.143 268.548 453.145 264.076C439.742 257.445 423.834 253.163 411.646 250.7V254.944H402.344V250.511L367.452 235.202ZM330.434 248.161L367.452 231.905C380.095 237.437 392.738 243.008 405.382 248.54V251.951H408.647V247.062L410.469 247.403C423.074 249.866 440.122 254.262 454.511 261.386C464.952 266.577 473.989 273.171 479 281.583L480.367 283.856H469.205V288.404H420.644V296.058H513.323L515.905 295.869V238.271H502.085V242.629L395.51 201.704V196.286H399.535V195.187L367.49 181.128L335.446 195.187V196.286H339.432V201.704L232.858 242.629V238.271H219.037V295.869L221.619 296.058H314.298V288.404H265.737V283.856H254.575L255.942 281.583C260.915 273.209 269.952 266.577 280.431 261.386C294.82 254.262 311.906 249.828 324.473 247.403L326.295 247.062V251.951H329.561V248.54L330.472 248.161H330.434Z" fill="#3066B7"/>
<path fill-rule="evenodd" clip-rule="evenodd" d="M78.8669 250.064H102.974V271.154H77.3555V250.064H78.8669ZM99.9514 253.155H80.3783V268.103H99.9514V253.155Z" fill="#3066B7"/>
<path fill-rule="evenodd" clip-rule="evenodd" d="M167.781 250.062H191.888V271.152H166.27V250.062H167.781ZM188.865 253.153H169.292V268.101H188.865V253.153Z" fill="#3066B7"/>
<path fill-rule="evenodd" clip-rule="evenodd" d="M110.572 364.493H160.178V326.103C160.178 319.308 157.371 313.088 152.91 308.597C148.411 304.105 142.22 301.302 135.375 301.302C128.53 301.302 122.339 304.105 117.84 308.597C113.341 313.088 110.572 319.269 110.572 326.103V364.493ZM161.716 367.564H107.496V326.103C107.496 318.463 110.649 311.476 115.687 306.447C120.724 301.418 127.723 298.27 135.375 298.27C143.028 298.27 150.026 301.418 155.064 306.447C160.101 311.476 163.255 318.463 163.255 326.103V367.564H161.716Z" fill="#3066B7"/>
<path fill-rule="evenodd" clip-rule="evenodd" d="M122.528 363.048H146.751V328.563C146.751 325.178 145.374 322.132 143.179 319.913C140.983 317.694 137.969 316.303 134.621 316.303C131.272 316.303 128.258 317.694 126.062 319.913C123.867 322.132 122.49 325.178 122.49 328.563V363.048H122.528ZM148.239 366.056H119.551V328.563C119.551 324.351 121.262 320.552 123.979 317.807C126.695 315.062 130.49 313.332 134.621 313.332C138.751 313.332 142.546 315.062 145.263 317.807C147.979 320.552 149.691 324.388 149.691 328.563V366.056H148.202H148.239Z" fill="#3066B7"/>
<path d="M161.748 325.385H109.004V328.398H161.748V325.385Z" fill="#3066B7"/>
<path d="M136.127 299.775H133.113V314.839H136.127V299.775Z" fill="#3066B7"/>
<path fill-rule="evenodd" clip-rule="evenodd" d="M117.21 305.801L127.087 315.915L124.909 317.852L115.031 307.773L117.21 305.801Z" fill="#3066B7"/>
<path d="M152.464 305.356L142.156 316.346L144.357 318.404L154.665 307.414L152.464 305.356Z" fill="#3066B7"/>
<path fill-rule="evenodd" clip-rule="evenodd" d="M163.121 323.838C163.121 316.007 159.895 308.866 154.748 303.683C149.602 298.5 142.42 295.313 134.585 295.313C126.75 295.313 119.606 298.538 114.422 303.721C109.237 308.904 106.049 316.045 106.049 323.877H102.977C102.977 315.2 106.548 307.292 112.271 301.533C117.993 295.774 125.905 292.242 134.623 292.242C143.341 292.242 151.215 295.813 156.976 301.533C162.698 307.253 166.27 315.162 166.27 323.877H163.197L163.121 323.838Z" fill="#3066B7"/>
<path fill-rule="evenodd" clip-rule="evenodd" d="M104.297 322.371H109.005V331.41H102.977V322.371H104.331H104.297ZM106.295 325.31H105.652V328.47H106.295V325.31Z" fill="#3066B7"/>
<path fill-rule="evenodd" clip-rule="evenodd" d="M160.089 322.371H164.762V331.41H158.734V322.371H160.089ZM162.087 325.31H161.444V328.47H162.087V325.31Z" fill="#3066B7"/>
<path fill-rule="evenodd" clip-rule="evenodd" d="M128.596 289.32H128.335C123.819 289.436 119.638 290.833 116.055 293.199C112.36 295.643 109.299 299.173 107.321 303.44L106.91 304.294H104.484V286.217H128.596V289.32ZM116.578 289.32H107.47V297.311C109.411 294.635 111.8 292.385 114.487 290.6C115.159 290.135 115.868 289.708 116.615 289.32H116.578Z" fill="#3066B7"/>
<path fill-rule="evenodd" clip-rule="evenodd" d="M161.812 289.32H152.704C153.413 289.708 154.123 290.135 154.795 290.561C157.482 292.346 159.833 294.596 161.774 297.272V289.281L161.812 289.32ZM140.947 289.32H140.648V286.217H164.76V304.294H162.334L161.924 303.44C159.908 299.173 156.885 295.643 153.19 293.161C149.644 290.794 145.426 289.436 140.91 289.32H140.947Z" fill="#3066B7"/>
<path fill-rule="evenodd" clip-rule="evenodd" d="M109.034 382.627H163.255V432.338H107.496V382.627H109.034ZM160.178 385.681H110.572V429.322H160.178V385.681Z" fill="#3066B7"/>
<path fill-rule="evenodd" clip-rule="evenodd" d="M200.937 382.627H250.659V432.338H199.422V382.627H200.937ZM247.63 385.681H202.451V429.322H247.63V385.681Z" fill="#3066B7"/>
<path fill-rule="evenodd" clip-rule="evenodd" d="M267.245 382.627H316.968V432.338H265.73V382.627H267.245ZM313.938 385.681H268.76V429.322H313.938V385.681Z" fill="#3066B7"/>
<path fill-rule="evenodd" clip-rule="evenodd" d="M59.3393 268.141H194.88C195.721 268.141 196.408 268.809 196.408 269.626C196.408 269.849 196.37 270.071 196.256 270.257L193.352 277.72C193.123 278.314 192.55 278.685 191.939 278.685H62.0135C61.173 278.685 60.4854 278.017 60.4854 277.2V274.787L57.9641 270.368C57.5438 269.663 57.8112 268.735 58.5753 268.363C58.8045 268.252 59.0719 268.178 59.3011 268.178L59.3393 268.141ZM192.703 271.111H61.8989L63.3123 273.599C63.4652 273.822 63.5416 274.119 63.5416 274.378V275.715H190.907L192.703 271.111Z" fill="#3066B7"/>
<path fill-rule="evenodd" clip-rule="evenodd" d="M78.8724 375.096H191.886V385.641H77.3555V375.096H78.8724ZM188.852 378.035H80.3894V382.701H188.852V378.035Z" fill="#3066B7"/>
<path fill-rule="evenodd" clip-rule="evenodd" d="M200.963 319.359H252.166V369.071H199.422V319.359H200.963ZM249.123 322.391H202.504V366.04H249.123V322.391Z" fill="#3066B7"/>
<path fill-rule="evenodd" clip-rule="evenodd" d="M267.239 319.359H316.968V369.071H265.73V319.359H267.239ZM313.952 322.391H268.747V366.04H313.952V322.391Z" fill="#3066B7"/>
<path d="M167.776 254.582H101.469V257.595H167.776V254.582Z" fill="#3066B7"/>
<path fill-rule="evenodd" clip-rule="evenodd" d="M77.3925 259.157C75.1578 259.309 72.8486 259.763 70.5767 260.52C68.193 261.354 65.8838 262.527 63.7981 264.042V268.435H77.3925V259.119V259.157ZM69.6083 257.68C72.6996 256.62 75.8654 256.09 78.8823 256.09H80.3721V271.502H60.8185V262.603L61.4144 262.149C63.9471 260.18 66.7404 258.703 69.6455 257.68H69.6083ZM63.7608 279.189V438.349H77.3552V279.189H63.7608ZM60.7812 439.864V276.16H80.3348V441.378H60.7812V439.864Z" fill="#3066B7"/>
<path fill-rule="evenodd" clip-rule="evenodd" d="M77.3868 378.127C75.1479 378.127 72.9089 378.203 70.6326 378.317C68.3191 378.431 66.0428 378.62 63.7292 378.885V383.66C65.9682 383.395 68.2071 383.206 70.4834 383.092C72.8343 382.978 75.1105 382.94 77.3495 382.94V378.127H77.3868ZM70.4834 375.285C73.2447 375.134 76.0434 375.096 78.8794 375.096H80.3721V385.972H78.8794C76.0807 385.972 73.2821 385.972 70.6326 386.124C67.9459 386.237 65.2218 386.465 62.4978 386.882L60.7812 387.147V376.233L62.0873 376.081C64.9233 375.702 67.722 375.475 70.4834 375.323V375.285Z" fill="#3066B7"/>
<path fill-rule="evenodd" clip-rule="evenodd" d="M338.043 378.035H191.912V382.701H338.043V378.035ZM190.394 375.096H341.081V385.641H188.875V375.096H190.394Z" fill="#3066B7"/>
<path fill-rule="evenodd" clip-rule="evenodd" d="M313.936 299.804H191.908V438.335H313.974V299.804H313.936ZM204.228 296.762H316.969V441.377H188.875V296.762H204.266H204.228Z" fill="#3066B7"/>
<path d="M249.155 286.217H190.383V289.23H249.155V286.217Z" fill="#3066B7"/>
<path fill-rule="evenodd" clip-rule="evenodd" d="M315.52 283.205H340.062L342.699 285.058H392.241L394.879 283.205H420.949V439.872H313.953V283.205H315.482H315.52ZM339.106 286.23H317.049V436.847H417.929V286.23H395.873L393.235 288.082H341.782L339.144 286.23H339.106Z" fill="#3066B7"/>
<path fill-rule="evenodd" clip-rule="evenodd" d="M323.057 283.205H342.586V439.872H321.488V283.205H323.057ZM339.449 286.23H324.626V436.847H339.449V286.23Z" fill="#3066B7"/>
<path fill-rule="evenodd" clip-rule="evenodd" d="M324.626 269.692H339.449V256.006H324.626V269.692ZM341.017 272.66H321.488V253.076H342.586V272.66H341.017Z" fill="#3066B7"/>
<path fill-rule="evenodd" clip-rule="evenodd" d="M324.626 262.077H339.449V256.089H324.626V262.077ZM341.017 265.127H321.488V253.076H342.586V265.127H341.017Z" fill="#3066B7"/>
<path fill-rule="evenodd" clip-rule="evenodd" d="M308.844 269.646H351.567V272.528H383.297V269.646H428.484L419.916 287.322H395.579L392.963 289.23H341.938L339.323 287.322H314.985L306.418 269.646H308.844ZM348.534 272.761H311.27L316.805 284.246H340.232L342.848 286.154H391.978L394.593 284.246H418.021L423.594 272.761H386.329V275.642H348.572V272.761H348.534Z" fill="#3066B7"/>
<path fill-rule="evenodd" clip-rule="evenodd" d="M78.8724 382.627H191.886V441.377H77.3555V382.627H78.8724ZM188.852 385.677H80.3894V438.327H188.852V385.677Z" fill="#3066B7"/>
<path d="M191.889 277.18H188.875V298.269H191.889V277.18Z" fill="#3066B7"/>
<path fill-rule="evenodd" clip-rule="evenodd" d="M250.721 281.699H270.25V299.776H249.152V281.699H250.721ZM267.113 284.706H252.29V296.807H267.113V284.706Z" fill="#3066B7"/>
<path fill-rule="evenodd" clip-rule="evenodd" d="M190.391 296.762H316.969V305.8H188.875V296.762H190.391ZM313.936 299.713H191.908V302.849H313.974V299.713H313.936Z" fill="#3066B7"/>
<path fill-rule="evenodd" clip-rule="evenodd" d="M342.662 334.423V325.009C342.662 318.064 345.471 311.736 349.951 307.183C354.468 302.592 360.656 299.775 367.489 299.775C374.322 299.775 380.548 302.631 385.028 307.183C389.545 311.775 392.316 318.064 392.316 325.009V334.423H389.28V325.009C389.28 318.913 386.812 313.357 382.864 309.344C378.916 305.331 373.449 302.823 367.451 302.823C361.453 302.823 355.987 305.331 352.039 309.344C348.09 313.357 345.623 318.913 345.623 325.009V334.423H342.586H342.662Z" fill="#3066B7"/>
<path fill-rule="evenodd" clip-rule="evenodd" d="M350.192 364.541H384.677V324.251C384.677 319.602 382.75 315.369 379.591 312.308C376.47 309.246 372.154 307.319 367.415 307.319C362.676 307.319 358.36 309.208 355.239 312.308C352.118 315.369 350.153 319.602 350.153 324.251V364.541H350.192ZM386.218 367.564H347.109V324.251C347.109 318.77 349.383 313.782 353.082 310.153C356.742 306.525 361.828 304.295 367.454 304.295C373.079 304.295 378.127 306.525 381.826 310.153C385.525 313.782 387.798 318.733 387.798 324.251V367.564H386.257H386.218Z" fill="#3066B7"/>
<path fill-rule="evenodd" clip-rule="evenodd" d="M359.125 364.556H375.739V326.122C375.739 323.828 374.797 321.759 373.29 320.255C371.783 318.751 369.711 317.811 367.413 317.811C365.115 317.811 363.043 318.751 361.536 320.255C360.029 321.759 359.087 323.828 359.087 326.122V364.556H359.125ZM377.246 367.564H356.148V326.122C356.148 323.038 357.429 320.218 359.464 318.149C361.536 316.118 364.362 314.84 367.451 314.84C370.54 314.84 373.403 316.118 375.438 318.149C377.472 320.18 378.753 323.038 378.753 326.122V367.564H377.246Z" fill="#3066B7"/>
<path d="M386.288 328.396H348.613V331.409H386.288V328.396Z" fill="#3066B7"/>
<path d="M369.709 305.801H366.695V316.346H369.709V305.801Z" fill="#3066B7"/>
<path fill-rule="evenodd" clip-rule="evenodd" d="M383.275 316.201L374.007 320.864L372.727 317.995L381.995 313.332L383.275 316.201Z" fill="#3066B7"/>
<path fill-rule="evenodd" clip-rule="evenodd" d="M352.933 313.332L362.178 317.948L360.874 320.864L351.629 316.248L352.933 313.332Z" fill="#3066B7"/>
<path fill-rule="evenodd" clip-rule="evenodd" d="M346.384 292.242C348.75 294.993 351.918 297.28 355.582 298.83C359.132 300.341 363.177 301.193 367.452 301.193C371.727 301.193 375.772 300.341 379.322 298.83C382.986 297.241 386.154 294.993 388.52 292.242L390.81 294.257C388.139 297.357 384.627 299.915 380.505 301.658C376.574 303.325 372.147 304.293 367.452 304.293C362.757 304.293 358.33 303.325 354.399 301.658C350.315 299.915 346.765 297.357 344.094 294.257L346.384 292.242Z" fill="#3066B7"/>
<path fill-rule="evenodd" clip-rule="evenodd" d="M654.526 253.153H634.953V268.101H654.526V253.153ZM633.441 250.062H657.548V271.152H631.93V250.062H633.441Z" fill="#3066B7"/>
<path fill-rule="evenodd" clip-rule="evenodd" d="M565.612 253.153H546.038V268.101H565.612V253.153ZM544.527 250.062H568.634V271.152H543.016V250.062H544.527Z" fill="#3066B7"/>
<path fill-rule="evenodd" clip-rule="evenodd" d="M627.377 367.564H573.156V326.103C573.156 318.463 576.31 311.476 581.347 306.447C586.384 301.418 593.383 298.27 601.035 298.27C608.688 298.27 615.687 301.418 620.724 306.447C625.762 311.476 628.915 318.463 628.915 326.103V367.564H627.377ZM576.233 364.493H625.838V326.103C625.838 319.308 623.031 313.088 618.571 308.597C614.11 304.105 607.88 301.302 601.074 301.302C594.268 301.302 588.038 304.105 583.539 308.597C579.04 313.088 576.271 319.269 576.271 326.103V364.493H576.233Z" fill="#3066B7"/>
<path fill-rule="evenodd" clip-rule="evenodd" d="M613.899 366.056H585.211V328.563C585.211 324.351 586.923 320.552 589.639 317.807C592.355 315.062 596.151 313.332 600.281 313.332C604.411 313.332 608.206 315.062 610.923 317.807C613.639 320.552 615.351 324.388 615.351 328.563V366.056H613.862H613.899ZM588.188 363.048H612.411V328.563C612.411 325.178 611.034 322.132 608.839 319.913C606.644 317.694 603.63 316.303 600.281 316.303C596.932 316.303 593.918 317.694 591.723 319.913C589.527 322.132 588.151 325.178 588.151 328.563V363.048H588.188Z" fill="#3066B7"/>
<path d="M627.405 325.385H574.66V328.398H627.405V325.385Z" fill="#3066B7"/>
<path d="M601.787 299.775H598.773V314.839H601.787V299.775Z" fill="#3066B7"/>
<path d="M618.124 305.356L607.816 316.346L610.018 318.404L620.325 307.414L618.124 305.356Z" fill="#3066B7"/>
<path fill-rule="evenodd" clip-rule="evenodd" d="M584.374 305.801L594.251 315.915L592.073 317.852L582.195 307.773L584.374 305.801Z" fill="#3066B7"/>
<path fill-rule="evenodd" clip-rule="evenodd" d="M570.141 323.838C570.141 315.172 573.712 307.273 579.435 301.522C585.157 295.808 593.069 292.242 601.787 292.242C610.506 292.242 618.379 295.808 624.14 301.522C629.862 307.235 633.434 315.134 633.434 323.838H630.362C630.362 316.016 627.135 308.884 621.989 303.707C616.843 298.531 609.661 295.348 601.826 295.348C593.991 295.348 586.847 298.569 581.662 303.746C576.478 308.922 573.29 316.054 573.29 323.877H570.217L570.141 323.838Z" fill="#3066B7"/>
<path fill-rule="evenodd" clip-rule="evenodd" d="M629.217 325.31H628.574V328.47H629.217V325.31ZM627.219 322.371H631.926V331.41H625.898V322.371H627.253H627.219Z" fill="#3066B7"/>
<path fill-rule="evenodd" clip-rule="evenodd" d="M573.493 325.31H572.85V328.47H573.493V325.31ZM571.495 322.371H576.169V331.41H570.141V322.371H571.495Z" fill="#3066B7"/>
<path fill-rule="evenodd" clip-rule="evenodd" d="M606.346 286.217H630.42V304.294H627.998L627.588 303.44C625.576 299.173 622.557 295.643 618.868 293.199C615.327 290.833 611.116 289.436 606.607 289.32H606.309V286.217H606.346ZM627.439 289.32H618.346C619.054 289.708 619.762 290.135 620.47 290.6C623.153 292.385 625.501 294.635 627.476 297.311V289.32H627.439Z" fill="#3066B7"/>
<path fill-rule="evenodd" clip-rule="evenodd" d="M571.634 286.217H594.252V289.235H593.991C589.438 289.348 585.257 290.706 581.711 292.969C578.016 295.346 574.993 298.779 572.977 302.966L570.141 308.813V286.217H571.634ZM582.234 289.235H573.127V297.006C575.068 294.403 577.419 292.215 580.106 290.48C580.778 290.027 581.487 289.65 582.197 289.272L582.234 289.235Z" fill="#3066B7"/>
<path fill-rule="evenodd" clip-rule="evenodd" d="M625.838 385.681H576.233V429.322H625.838V385.681ZM574.694 382.627H628.915V432.338H573.156V382.627H574.694Z" fill="#3066B7"/>
<path fill-rule="evenodd" clip-rule="evenodd" d="M532.45 385.681H487.272V429.322H532.45V385.681ZM485.757 382.627H535.48V432.338H484.242V382.627H485.757Z" fill="#3066B7"/>
<path fill-rule="evenodd" clip-rule="evenodd" d="M466.145 385.681H420.967V429.322H466.145V385.681ZM419.452 382.627H469.175V432.338H417.938V382.627H419.452Z" fill="#3066B7"/>
<path fill-rule="evenodd" clip-rule="evenodd" d="M674.533 271.148H543.744L545.54 275.752H672.89V274.416C672.89 274.119 672.967 273.859 673.12 273.636L674.533 271.148ZM541.528 268.178H677.132C677.361 268.178 677.628 268.252 677.858 268.363C678.584 268.772 678.851 269.663 678.469 270.368L675.947 274.787V277.2C675.947 278.017 675.259 278.685 674.419 278.685H544.47C543.859 278.685 543.286 278.314 543.057 277.72L540.153 270.257C540.076 270.071 540 269.849 540 269.626C540 268.809 540.688 268.141 541.528 268.141V268.178Z" fill="#3066B7"/>
<path fill-rule="evenodd" clip-rule="evenodd" d="M654.513 378.035H546.05V382.701H654.513V378.035ZM544.533 375.096H657.547V385.641H543.016V375.096H544.533Z" fill="#3066B7"/>
<path fill-rule="evenodd" clip-rule="evenodd" d="M533.943 322.391H487.324V366.04H533.943V322.391ZM485.783 319.359H536.987V369.071H484.242V319.359H485.783Z" fill="#3066B7"/>
<path fill-rule="evenodd" clip-rule="evenodd" d="M466.159 322.391H420.954V366.04H466.159V322.391ZM419.446 319.359H469.175V369.071H417.938V319.359H419.446Z" fill="#3066B7"/>
<path d="M633.432 254.582H567.125V257.595H633.432V254.582Z" fill="#3066B7"/>
<path fill-rule="evenodd" clip-rule="evenodd" d="M656.021 256.09C659.038 256.09 662.204 256.62 665.295 257.68C668.2 258.665 670.993 260.142 673.526 262.149L674.122 262.603V271.502H654.569V256.09H656.058H656.021ZM664.327 260.52C662.055 259.725 659.746 259.271 657.511 259.157V268.473H671.105V264.08C669.02 262.527 666.71 261.354 664.327 260.558V260.52ZM674.085 277.675V441.378H654.531V276.16H674.085V277.675ZM671.105 438.349V279.189H657.511V438.349H671.105Z" fill="#3066B7"/>
<path fill-rule="evenodd" clip-rule="evenodd" d="M656.024 375.096C658.823 375.096 661.621 375.096 664.42 375.286C667.219 375.438 670.017 375.666 672.816 376.046L674.122 376.198V387.147L672.406 386.881C669.681 386.463 666.957 386.235 664.271 386.121C661.621 386.006 658.823 385.968 656.024 385.968H654.531V375.096H656.024ZM664.271 378.289C661.994 378.175 659.755 378.099 657.517 378.099V382.927C659.755 382.927 662.032 382.965 664.383 383.079C666.622 383.193 668.898 383.345 671.137 383.649V378.859C668.861 378.593 666.547 378.403 664.233 378.289H664.271Z" fill="#3066B7"/>
<path fill-rule="evenodd" clip-rule="evenodd" d="M395.343 375.096H546.03V385.641H393.824V375.096H395.343ZM542.993 378.035H396.862V382.701H542.993V378.035Z" fill="#3066B7"/>
<path fill-rule="evenodd" clip-rule="evenodd" d="M419.454 296.762H546.031V441.377C503.346 441.377 460.623 441.377 417.938 441.377V296.762H419.454ZM530.678 299.804H420.97V438.335H543.037V299.804H530.678Z" fill="#3066B7"/>
<path d="M544.522 286.217H485.75V289.23H544.522V286.217Z" fill="#3066B7"/>
<path fill-rule="evenodd" clip-rule="evenodd" d="M411.785 286.23H396.961V436.847H411.785V286.23ZM395.393 283.205H414.922V439.872H393.824V283.205H395.393Z" fill="#3066B7"/>
<path fill-rule="evenodd" clip-rule="evenodd" d="M413.353 272.66H393.824V253.076H414.922V272.66H413.353ZM396.961 269.692H411.785V256.006H396.961V269.692Z" fill="#3066B7"/>
<path fill-rule="evenodd" clip-rule="evenodd" d="M413.353 265.127H393.824V253.076H414.922V265.127H413.353ZM396.961 262.077H411.785V256.089H396.961V262.077Z" fill="#3066B7"/>
<path fill-rule="evenodd" clip-rule="evenodd" d="M402.788 251.732V250.314L368.13 235.234L333.473 250.314V251.732H342.109V268.455H352.329V271.217H368.093H383.857V268.455H394.077V251.732H402.713H402.788ZM405.805 249.343V254.681H397.169V271.404H386.949V274.166H368.168H349.387V271.404H339.167V254.681H330.531V248.373C343.089 242.923 355.648 237.436 368.206 231.986C380.764 237.436 393.322 242.923 405.881 248.373V249.343H405.805Z" fill="#3066B7"/>
<path fill-rule="evenodd" clip-rule="evenodd" d="M654.513 385.677H546.05V438.327H654.513V385.677ZM544.533 382.627H657.547V441.377H543.016V382.627H544.533Z" fill="#3066B7"/>
<path d="M546.03 277.18H543.016V298.269H546.03V277.18Z" fill="#3066B7"/>
<path fill-rule="evenodd" clip-rule="evenodd" d="M484.121 284.706H469.297V296.807H484.121V284.706ZM467.729 281.699H487.258V299.776H466.16V281.699H467.729Z" fill="#3066B7"/>
<path fill-rule="evenodd" clip-rule="evenodd" d="M543.037 299.713H420.97V302.849H543.037V299.713ZM419.454 296.762H546.031V305.8H417.938V296.762H419.454Z" fill="#3066B7"/>
<path fill-rule="evenodd" clip-rule="evenodd" d="M393.784 369.103H341.122V387.113H393.784V369.103ZM339.594 366.057H396.839V390.159H338.066V366.057H339.594Z" fill="#3066B7"/>
<path fill-rule="evenodd" clip-rule="evenodd" d="M384.806 397.697H350.101V438.361H384.806V397.697ZM348.605 394.68H387.798V441.378H347.109V394.68H348.605Z" fill="#3066B7"/>
<path fill-rule="evenodd" clip-rule="evenodd" d="M232.6 239.524H218.991V296.795H232.6V239.524ZM217.495 236.506H235.591V299.775H216V236.506H217.495Z" fill="#3066B7"/>
<path fill-rule="evenodd" clip-rule="evenodd" d="M223.257 237.747C223.333 237.131 223.257 236.514 222.989 235.975C222.721 235.359 222.223 234.743 221.573 234.165C220.731 233.395 219.315 232.971 218.166 232.586C216.138 231.931 214.492 231.392 214.492 229.466C214.492 227.848 216.138 226.962 218.473 226.539C220.922 226.076 224.29 225.961 226.548 225.961C228.806 225.961 232.212 226.076 234.624 226.539C236.958 226.962 238.604 227.848 238.604 229.466C238.604 231.43 236.958 231.931 234.93 232.586C233.743 232.971 232.366 233.395 231.524 234.165C230.835 234.743 230.375 235.359 230.107 235.975C229.84 236.553 229.763 237.131 229.84 237.785L230.069 239.519H222.95L223.18 237.785L223.257 237.747ZM225.783 234.704C226.051 235.243 226.204 235.821 226.28 236.437H226.854C226.931 235.86 227.084 235.282 227.352 234.743C227.811 233.703 228.538 232.74 229.572 231.854C230.911 230.66 232.633 230.121 234.088 229.658L234.356 229.581H234.164C231.983 229.158 228.806 229.042 226.625 229.042C224.443 229.042 221.228 229.158 219.085 229.543H218.855L219.123 229.62C220.578 230.082 222.262 230.621 223.639 231.815C224.634 232.701 225.4 233.664 225.859 234.704H225.783ZM217.554 229.466C217.554 229.658 217.86 229.581 218.281 229.543C217.822 229.466 217.554 229.273 217.554 229.466ZM235.619 229.466C235.619 229.466 235.351 229.466 234.892 229.543C235.313 229.543 235.619 229.658 235.619 229.466Z" fill="#3066B7"/>
<path fill-rule="evenodd" clip-rule="evenodd" d="M500.808 236.506H518.903V299.775H499.312V236.506H500.808ZM515.912 239.524H502.303V296.795H515.912V239.524Z" fill="#3066B7"/>
<path fill-rule="evenodd" clip-rule="evenodd" d="M510.205 236.467C510.282 235.888 510.435 235.308 510.703 234.729C511.162 233.686 511.889 232.72 512.922 231.832C514.262 230.635 515.984 230.094 517.439 229.63L517.706 229.553H517.515C515.334 229.128 512.157 229.012 509.975 229.012C507.794 229.012 504.579 229.128 502.436 229.515H502.244L502.512 229.592C503.967 230.055 505.651 230.596 507.028 231.793C508.023 232.682 508.789 233.647 509.248 234.69C509.516 235.231 509.669 235.811 509.746 236.429H510.32L510.205 236.467ZM513.496 236.004C513.229 236.583 513.152 237.162 513.229 237.78L513.458 239.519H506.339L506.569 237.78C506.646 237.162 506.569 236.544 506.301 236.004C506.033 235.386 505.536 234.768 504.885 234.188C504.043 233.416 502.627 232.991 501.479 232.605C499.45 231.948 497.805 231.446 497.805 229.476C497.805 227.854 499.45 226.965 501.785 226.54C504.234 226.077 507.602 225.961 509.861 225.961C512.119 225.961 515.525 226.077 517.936 226.54C520.271 226.965 521.916 227.854 521.916 229.476C521.916 231.446 520.271 231.948 518.242 232.605C517.056 232.991 515.678 233.416 514.836 234.188C514.147 234.768 513.688 235.386 513.42 236.004H513.496ZM518.242 229.553C518.663 229.553 518.969 229.669 518.969 229.476C518.969 229.283 518.702 229.476 518.242 229.553ZM501.632 229.553C501.173 229.476 500.905 229.283 500.905 229.476C500.905 229.669 501.211 229.592 501.632 229.553Z" fill="#3066B7"/>
<path d="M369.709 396.186H366.695V439.871H369.709V396.186Z" fill="#3066B7"/>
<path d="M485.748 311.826H467.664V314.839H485.748V311.826Z" fill="#3066B7"/>
<path d="M268.744 311.826H250.66V314.839H268.744V311.826Z" fill="#3066B7"/>
<path fill-rule="evenodd" clip-rule="evenodd" d="M368.203 247.088C370.292 247.088 372.157 247.946 373.537 249.288C374.88 250.63 375.738 252.532 375.738 254.62C375.738 256.708 374.88 258.573 373.537 259.915C372.157 261.295 370.292 262.115 368.203 262.115C366.114 262.115 364.249 261.257 362.869 259.915C361.489 258.535 360.668 256.671 360.668 254.583C360.668 252.495 361.526 250.63 362.869 249.251C364.212 247.871 366.114 247.051 368.203 247.051V247.088ZM371.411 251.413C370.59 250.593 369.434 250.071 368.203 250.071C366.972 250.071 365.816 250.593 364.995 251.413C364.174 252.234 363.652 253.352 363.652 254.62C363.652 255.888 364.174 257.007 364.995 257.827C365.816 258.647 366.935 259.169 368.203 259.169C369.471 259.169 370.59 258.647 371.411 257.827C372.231 257.007 372.754 255.851 372.754 254.62C372.754 253.39 372.231 252.234 371.411 251.413Z" fill="#3066B7"/>
<path fill-rule="evenodd" clip-rule="evenodd" d="M1356.79 439.871C1355.98 439.871 1355.28 439.225 1355.28 438.388V367.539C1355.28 366.741 1355.94 366.057 1356.79 366.057C1357.64 366.057 1358.3 366.703 1358.3 367.539V438.388C1358.3 439.187 1357.64 439.871 1356.79 439.871Z" fill="#3066B7"/>
<path fill-rule="evenodd" clip-rule="evenodd" d="M1356.76 382.589C1356.36 382.589 1355.97 382.432 1355.7 382.157L1349.7 376.19C1349.11 375.602 1349.11 374.62 1349.7 374.031C1350.28 373.443 1351.26 373.443 1351.85 374.031L1357.85 380.037C1358.44 380.626 1358.44 381.608 1357.85 382.196C1357.54 382.511 1357.15 382.628 1356.76 382.628V382.589Z" fill="#3066B7"/>
<path fill-rule="evenodd" clip-rule="evenodd" d="M1356.72 393.172C1356.42 393.172 1356.16 393.097 1355.9 392.908C1355.24 392.454 1355.09 391.509 1355.53 390.867L1361.7 381.758C1362.15 381.078 1363.07 380.927 1363.7 381.38C1364.37 381.834 1364.51 382.779 1364.07 383.421L1357.9 392.53C1357.6 392.946 1357.16 393.172 1356.72 393.172Z" fill="#3066B7"/>
<path fill-rule="evenodd" clip-rule="evenodd" d="M1357.54 340.456C1355.96 341.589 1352.83 349.48 1350.2 364.658C1347.76 378.666 1347.06 391.578 1348.42 396.827C1350.58 405.209 1356.04 407.701 1357.54 408.229C1359.05 407.701 1364.47 405.209 1366.67 396.827C1368.02 391.578 1367.33 378.666 1364.89 364.658C1362.26 349.48 1359.13 341.589 1357.54 340.456ZM1357.54 411.25C1357.54 411.25 1357.27 411.25 1357.16 411.212C1356.81 411.136 1348.46 408.909 1345.52 397.544C1342.5 385.99 1348.77 346.686 1354.8 339.097C1355.42 338.304 1356.07 337.813 1356.77 337.587C1356.96 337.511 1357.2 337.436 1357.43 337.436H1357.66C1357.89 337.436 1358.12 337.473 1358.32 337.587C1359.01 337.813 1359.67 338.342 1360.29 339.097C1366.32 346.686 1372.59 385.99 1369.57 397.544C1366.63 408.871 1358.28 411.136 1357.93 411.212C1357.81 411.212 1357.7 411.25 1357.54 411.25Z" fill="#3066B7"/>
<path fill-rule="evenodd" clip-rule="evenodd" d="M1328.16 439.872C1327.34 439.872 1326.65 439.234 1326.65 438.409V400.663C1326.65 399.875 1327.31 399.199 1328.16 399.199C1329.01 399.199 1329.66 399.837 1329.66 400.663V438.409C1329.66 439.197 1329.01 439.872 1328.16 439.872Z" fill="#3066B7"/>
<path fill-rule="evenodd" clip-rule="evenodd" d="M1326.81 408.237C1326.47 408.237 1326.12 408.099 1325.88 407.858L1322.52 404.489C1322 403.973 1322 403.113 1322.52 402.598C1323.03 402.082 1323.89 402.082 1324.4 402.598L1327.77 405.967C1328.29 406.483 1328.29 407.343 1327.77 407.858C1327.5 408.133 1327.15 408.237 1326.81 408.237Z" fill="#3066B7"/>
<path fill-rule="evenodd" clip-rule="evenodd" d="M1328.15 414.263C1327.88 414.263 1327.58 414.192 1327.31 414.013C1326.61 413.585 1326.46 412.729 1326.88 412.086L1331.43 405.842C1331.89 405.2 1332.81 405.021 1333.51 405.485C1334.2 405.913 1334.39 406.77 1333.93 407.412L1329.39 413.621C1329.12 414.013 1328.62 414.227 1328.15 414.227V414.263Z" fill="#3066B7"/>
<path fill-rule="evenodd" clip-rule="evenodd" d="M1328.17 393.173C1321.49 393.173 1316.07 398.588 1316.07 405.262C1316.07 411.936 1321.49 417.352 1328.17 417.352C1334.86 417.352 1340.28 411.936 1340.28 405.262C1340.28 398.588 1334.86 393.173 1328.17 393.173ZM1328.17 420.288C1319.85 420.288 1313.09 413.538 1313.09 405.224C1313.09 396.91 1319.85 390.16 1328.17 390.16C1336.5 390.16 1343.23 396.91 1343.23 405.224C1343.23 413.538 1336.46 420.288 1328.17 420.288Z" fill="#3066B7"/>
<path d="M1521.05 438.365H0.5V441.378H1521.05V438.365Z" fill="#3066B7"/>
<path d="M1656.68 465.48H738.922V468.493H1656.68V465.48Z" fill="#3066B7"/>
<path fill-rule="evenodd" clip-rule="evenodd" d="M1266.02 409.743L1133.75 401.117L1134.1 397.691L1266.37 406.317L1266.02 409.743Z" fill="#3066B7"/>
<path d="M1172.94 372.082H1169.92V400.704H1172.94V372.082Z" fill="#3066B7"/>
<path d="M1203.07 372.082H1200.06V402.21H1203.07V372.082Z" fill="#3066B7"/>
<path d="M1234.72 372.082H1231.71V403.717H1234.72V372.082Z" fill="#3066B7"/>
<path d="M1224.17 426.312H1181.98V429.325H1224.17V426.312Z" fill="#3066B7"/>
<path fill-rule="evenodd" clip-rule="evenodd" d="M1267.87 429.326H1247.51V426.117H1264.63V386.661C1264.63 379.562 1258.8 373.786 1251.63 373.786H1148.53C1141.36 373.786 1135.49 379.562 1135.49 386.661V426.117H1160.62V429.326H1132.25V386.661C1132.25 377.788 1139.53 370.576 1148.49 370.576H1251.59C1260.55 370.576 1267.84 377.788 1267.84 386.661V429.326H1267.87Z" fill="#3066B7"/>
<path fill-rule="evenodd" clip-rule="evenodd" d="M1170.68 441.379C1163.61 441.379 1157.87 435.641 1157.87 428.574C1157.87 421.507 1163.61 415.77 1170.68 415.77C1177.75 415.77 1183.49 421.507 1183.49 428.574C1183.49 435.641 1177.75 441.379 1170.68 441.379ZM1170.68 418.999C1165.39 418.999 1161.1 423.293 1161.1 428.574C1161.1 433.855 1165.39 438.149 1170.68 438.149C1175.96 438.149 1180.26 433.855 1180.26 428.574C1180.26 423.293 1175.96 418.999 1170.68 418.999Z" fill="#3066B7"/>
<path fill-rule="evenodd" clip-rule="evenodd" d="M1170.68 435.353C1166.94 435.353 1163.89 432.306 1163.89 428.574C1163.89 424.842 1166.94 421.795 1170.68 421.795C1174.41 421.795 1177.46 424.842 1177.46 428.574C1177.46 432.306 1174.41 435.353 1170.68 435.353ZM1170.68 424.994C1168.73 424.994 1167.13 426.593 1167.13 428.536C1167.13 430.478 1168.73 432.077 1170.68 432.077C1172.62 432.077 1174.22 430.478 1174.22 428.536C1174.22 426.593 1172.62 424.994 1170.68 424.994Z" fill="#3066B7"/>
<path fill-rule="evenodd" clip-rule="evenodd" d="M1235.48 441.379C1228.41 441.379 1222.67 435.641 1222.67 428.574C1222.67 421.507 1228.41 415.77 1235.48 415.77C1242.55 415.77 1248.29 421.507 1248.29 428.574C1248.29 435.641 1242.55 441.379 1235.48 441.379ZM1235.48 418.999C1230.19 418.999 1225.9 423.293 1225.9 428.574C1225.9 433.855 1230.19 438.149 1235.48 438.149C1240.76 438.149 1245.06 433.855 1245.06 428.574C1245.06 423.293 1240.76 418.999 1235.48 418.999Z" fill="#3066B7"/>
<path fill-rule="evenodd" clip-rule="evenodd" d="M1235.48 435.353C1231.74 435.353 1228.7 432.306 1228.7 428.574C1228.7 424.842 1231.74 421.795 1235.48 421.795C1239.21 421.795 1242.26 424.842 1242.26 428.574C1242.26 432.306 1239.21 435.353 1235.48 435.353ZM1235.48 424.994C1233.53 424.994 1231.93 426.593 1231.93 428.536C1231.93 430.478 1233.53 432.077 1235.48 432.077C1237.42 432.077 1239.02 430.478 1239.02 428.536C1239.02 426.593 1237.42 424.994 1235.48 424.994Z" fill="#3066B7"/>
<path d="M1169.04 326.267L1166.91 328.396L1212.75 374.172L1214.89 372.043L1169.04 326.267Z" fill="#3066B7"/>
<path fill-rule="evenodd" clip-rule="evenodd" d="M1038.81 441.377H1035.81V374.936C1035.81 365.892 1028.38 358.488 1019.22 358.488V355.512C1030 355.512 1038.81 364.213 1038.81 374.898V441.339V441.377Z" fill="#3066B7"/>
<path fill-rule="evenodd" clip-rule="evenodd" d="M1020.73 384.133C1014.91 384.133 1010.18 379.408 1010.18 373.588C1010.18 367.767 1014.91 363.043 1020.73 363.043C1026.55 363.043 1031.28 367.767 1031.28 373.588C1031.28 379.408 1026.55 384.133 1020.73 384.133ZM1020.73 365.953C1016.53 365.953 1013.09 369.355 1013.09 373.588C1013.09 377.821 1016.53 381.222 1020.73 381.222C1024.93 381.222 1028.37 377.821 1028.37 373.588C1028.37 369.355 1024.96 365.953 1020.73 365.953Z" fill="#3066B7"/>
<path fill-rule="evenodd" clip-rule="evenodd" d="M1041.83 441.377H1044.83V374.936C1044.83 365.892 1052.26 358.488 1061.42 358.488V355.512C1050.64 355.512 1041.87 364.213 1041.87 374.898V441.339L1041.83 441.377Z" fill="#3066B7"/>
<path fill-rule="evenodd" clip-rule="evenodd" d="M1059.91 384.133C1065.73 384.133 1070.46 379.408 1070.46 373.588C1070.46 367.767 1065.73 363.043 1059.91 363.043C1054.09 363.043 1049.36 367.767 1049.36 373.588C1049.36 379.408 1054.09 384.133 1059.91 384.133ZM1059.91 365.953C1064.11 365.953 1067.55 369.355 1067.55 373.588C1067.55 377.821 1064.11 381.222 1059.91 381.222C1055.72 381.222 1052.27 377.821 1052.27 373.588C1052.27 369.355 1055.68 365.953 1059.91 365.953Z" fill="#3066B7"/>
<path d="M378.754 465.48H109.004V468.493H378.754V465.48Z" fill="#3066B7"/>
</g>
<defs>
<clipPath id="clip0_2807_414646">
<rect width="2265" height="470" fill="white" transform="translate(0.5)"/>
</clipPath>
</defs>
</svg>
