<svg width="40" height="40" viewBox="0 0 40 40" fill="none" xmlns="http://www.w3.org/2000/svg">
<path d="M14.2874 18.5709C18.2323 18.5709 21.4302 15.3729 21.4302 11.428C21.4302 7.48313 18.2323 4.28516 14.2874 4.28516C10.3425 4.28516 7.14453 7.48313 7.14453 11.428C7.14453 15.3729 10.3425 18.5709 14.2874 18.5709Z" stroke="#2D6FD0" stroke-width="2" stroke-linecap="round" stroke-linejoin="round"/>
<path d="M1.42969 38.5715H27.144V37.0226C27.1212 34.8449 26.5469 32.7083 25.4746 30.8129C24.4023 28.9172 22.8671 27.3243 21.0123 26.1829C19.1575 25.0415 17.0437 24.3889 14.8683 24.2859C14.6744 24.2767 14.4805 24.2719 14.2868 24.2715C14.0932 24.2719 13.8993 24.2767 13.7053 24.2859C11.5299 24.3889 9.41612 25.0415 7.56132 26.1829C5.70654 27.3243 4.17132 28.9172 3.09903 30.8129C2.02676 32.7083 1.45243 34.8449 1.42969 37.0226V38.5715Z" stroke="#2D6FD0" stroke-width="2" stroke-linecap="round" stroke-linejoin="round"/>
<path d="M25.7148 18.5709C29.6597 18.5709 32.8577 15.3729 32.8577 11.428C32.8577 7.48313 29.6597 4.28516 25.7148 4.28516" stroke="#2D6FD0" stroke-width="2" stroke-linecap="round" stroke-linejoin="round"/>
<path d="M32.8599 38.5708H38.5742V37.0217C38.5514 34.8439 37.9771 32.7074 36.9048 30.8119C35.8325 28.9162 34.2974 27.3234 32.4425 26.182C31.2436 25.4442 29.9362 24.9106 28.5742 24.5977" stroke="#2D6FD0" stroke-width="2" stroke-linecap="round" stroke-linejoin="round"/>
</svg>
