<svg width="48" height="48" viewBox="0 0 48 48" fill="none" xmlns="http://www.w3.org/2000/svg">
<path d="M32.1299 5.96094H37.0091C37.8717 5.96094 38.6992 6.30365 39.3091 6.91363C39.919 7.52365 40.2618 8.35099 40.2618 9.21368V41.7411C40.2618 42.6037 39.919 43.4312 39.3091 44.0411C38.6992 44.651 37.8717 44.9938 37.0091 44.9938H10.9871C10.1244 44.9938 9.29709 44.651 8.68707 44.0411C8.07708 43.4312 7.73438 42.6037 7.73438 41.7411V9.21368C7.73438 8.35099 8.07708 7.52365 8.68707 6.91363C9.29709 6.30365 10.1244 5.96094 10.9871 5.96094H15.8662" stroke="white" stroke-width="2" stroke-linecap="round" stroke-linejoin="round"/>
<path d="M28.8703 2.71094H19.1121C17.3157 2.71094 15.8594 4.16724 15.8594 5.96368V7.59005C15.8594 9.38647 17.3157 10.8428 19.1121 10.8428H28.8703C30.6668 10.8428 32.1231 9.38647 32.1231 7.59005V5.96368C32.1231 4.16724 30.6668 2.71094 28.8703 2.71094Z" stroke="white" stroke-width="2" stroke-linecap="round" stroke-linejoin="round"/>
<path d="M21.7293 18.0312C20.958 18.0312 20.3326 18.6566 20.3326 19.4279V23.3561H16.4045C15.6331 23.3561 15.0078 23.9815 15.0078 24.7528V29.292C15.0078 30.0634 15.6331 30.6887 16.4045 30.6887H20.3326V34.6168C20.3326 35.388 20.958 36.0135 21.7293 36.0135H26.2685C27.0399 36.0135 27.6652 35.388 27.6652 34.6168V30.6887H31.5933C32.3647 30.6887 32.99 30.0634 32.99 29.292V24.7528C32.99 23.9815 32.3647 23.3561 31.5933 23.3561H27.6652V19.4279C27.6652 18.6566 27.0399 18.0312 26.2685 18.0312H21.7293Z" stroke="white" stroke-width="2" stroke-linecap="round" stroke-linejoin="round"/>
</svg>
