<svg width="40" height="40" viewBox="0 0 40 40" fill="none" xmlns="http://www.w3.org/2000/svg">
<path d="M16.1725 26.5715C16.039 25.9164 15.6799 25.3289 15.1579 24.9113C14.6358 24.4936 13.9838 24.2723 13.3154 24.2857H6.62969C5.96126 24.2723 5.30929 24.4936 4.78723 24.9113C4.26517 25.3289 3.90612 25.9164 3.77254 26.5715L1.42969 38.5716H18.5725L16.1725 26.5715Z" stroke="#2D6FD0" stroke-width="2" stroke-linecap="round" stroke-linejoin="round"/>
<path d="M36.1725 26.5715C36.0388 25.9164 35.68 25.3289 35.158 24.9113C34.6357 24.4936 33.9837 24.2723 33.3154 24.2857H26.6297C25.9613 24.2723 25.3093 24.4936 24.7872 24.9113C24.2652 25.3289 23.9061 25.9164 23.7725 26.5715L21.4297 38.5716H38.5725L36.1725 26.5715Z" stroke="#2D6FD0" stroke-width="2" stroke-linecap="round" stroke-linejoin="round"/>
<path d="M28.5725 24.2853L26.1725 12.2853C26.039 11.6302 25.6799 11.0427 25.1579 10.6251C24.6358 10.2075 23.9838 9.98612 23.3154 9.99961H16.6297C15.9613 9.98612 15.3093 10.2075 14.7872 10.6251C14.2652 11.0427 13.9061 11.6302 13.7725 12.2853L11.4297 24.2853" stroke="#2D6FD0" stroke-width="2" stroke-linecap="round" stroke-linejoin="round"/>
<path d="M13.375 24.2852H26.6321" stroke="#2D6FD0" stroke-width="2" stroke-linecap="round" stroke-linejoin="round"/>
</svg>
