<svg width="53" height="54" viewBox="0 0 53 54" fill="none" xmlns="http://www.w3.org/2000/svg">
<path d="M50.7288 17.7424L43.8522 10.8657C43.5723 10.5844 43.2394 10.3612 42.8727 10.2093C42.5061 10.0573 42.113 9.97957 41.7161 9.98048H20.3932C19.5919 9.98048 18.8234 10.2988 18.2568 10.8654C17.6902 11.432 17.3718 12.2005 17.3718 13.0019V18.0375H7.53825C6.97684 18.0356 6.42613 18.1911 5.94855 18.4862C5.47097 18.7814 5.0856 19.2044 4.83613 19.7073L1.57606 26.2264C1.36713 26.646 1.2582 27.1083 1.25781 27.577V37.1729C1.25781 37.9742 1.57614 38.7427 2.14275 39.3093C2.70937 39.8759 3.47787 40.1943 4.27919 40.1943H5.38703C5.61818 41.3326 6.23576 42.356 7.13514 43.0911C8.03451 43.8262 9.16037 44.2278 10.3219 44.2278C11.4835 44.2278 12.6094 43.8262 13.5088 43.0911C14.4081 42.356 15.0257 41.3326 15.2569 40.1943H29.5581C29.7498 41.1476 30.2144 42.0248 30.8954 42.719C31.5764 43.4133 32.4445 43.8947 33.394 44.1048C34.3435 44.3148 35.3336 44.2445 36.2439 43.9023C37.1542 43.5601 37.9455 42.9608 38.5215 42.1773C39.0975 42.9608 39.8888 43.5601 40.799 43.9023C41.7093 44.2445 42.6994 44.3148 43.649 44.1048C44.5985 43.8947 45.4665 43.4133 46.1475 42.719C46.8285 42.0248 47.2931 41.1476 47.4849 40.1943H48.5927C49.3941 40.1943 50.1626 39.8759 50.7292 39.3093C51.2958 38.7427 51.6141 37.9742 51.6141 37.1729V19.8785C51.6152 19.4816 51.5376 19.0884 51.3856 18.7217C51.2337 18.355 51.0104 18.0222 50.7288 17.7424ZM20.3932 11.9947H41.7161C41.9832 11.9948 42.2393 12.1009 42.4281 12.2898L49.3048 19.1665C49.4937 19.3553 49.5998 19.6114 49.5999 19.8785V30.123H19.3861V13.0019C19.3861 12.7347 19.4922 12.4786 19.6811 12.2897C19.8699 12.1008 20.1261 11.9947 20.3932 11.9947ZM6.63788 20.6087C6.7209 20.441 6.84927 20.2999 7.00842 20.2014C7.16756 20.103 7.35112 20.0511 7.53825 20.0517H10.3219V25.0874C10.3219 25.3545 10.2158 25.6106 10.027 25.7995C9.83809 25.9884 9.58193 26.0945 9.31482 26.0945H3.89447L6.63788 20.6087ZM3.27206 37.1729V28.1087H9.31482C10.1161 28.1087 10.8846 27.7904 11.4513 27.2238C12.0179 26.6572 12.3362 25.8887 12.3362 25.0874V20.0517H17.3718V38.18H15.2569C15.0257 37.0417 14.4081 36.0182 13.5088 35.2831C12.6094 34.548 11.4835 34.1464 10.3219 34.1464C9.16037 34.1464 8.03451 34.548 7.13514 35.2831C6.23576 36.0182 5.61818 37.0417 5.38703 38.18H4.27919C4.01208 38.18 3.75592 38.0739 3.56704 37.885C3.37817 37.6961 3.27206 37.44 3.27206 37.1729ZM10.3219 42.2085C9.72437 42.2085 9.14022 42.0313 8.64336 41.6993C8.1465 41.3673 7.75924 40.8954 7.53056 40.3434C7.30188 39.7913 7.24204 39.1838 7.35862 38.5977C7.4752 38.0116 7.76296 37.4732 8.18551 37.0507C8.60806 36.6281 9.14641 36.3404 9.7325 36.2238C10.3186 36.1072 10.9261 36.1671 11.4782 36.3957C12.0303 36.6244 12.5021 37.0117 12.8341 37.5085C13.1661 38.0054 13.3433 38.5896 13.3433 39.1871C13.3433 39.9884 13.025 40.7569 12.4584 41.3236C11.8918 41.8902 11.1233 42.2085 10.3219 42.2085ZM34.493 42.2085C33.8954 42.2085 33.3112 42.0313 32.8144 41.6993C32.3175 41.3673 31.9303 40.8954 31.7016 40.3434C31.4729 39.7913 31.4131 39.1838 31.5296 38.5977C31.6462 38.0116 31.934 37.4732 32.3565 37.0507C32.7791 36.6281 33.3174 36.3404 33.9035 36.2238C34.4896 36.1072 35.0971 36.1671 35.6492 36.3957C36.2013 36.6244 36.6732 37.0117 37.0052 37.5085C37.3371 38.0054 37.5143 38.5896 37.5143 39.1871C37.5143 39.9884 37.196 40.7569 36.6294 41.3236C36.0628 41.8902 35.2943 42.2085 34.493 42.2085ZM42.55 42.2085C41.9524 42.2085 41.3683 42.0313 40.8714 41.6993C40.3745 41.3673 39.9873 40.8954 39.7586 40.3434C39.5299 39.7913 39.4701 39.1838 39.5867 38.5977C39.7032 38.0116 39.991 37.4732 40.4135 37.0507C40.8361 36.6281 41.3744 36.3404 41.9605 36.2238C42.5466 36.1072 43.1541 36.1671 43.7062 36.3957C44.2583 36.6244 44.7302 37.0117 45.0622 37.5085C45.3942 38.0054 45.5714 38.5896 45.5714 39.1871C45.5714 39.9884 45.253 40.7569 44.6864 41.3236C44.1198 41.8902 43.3513 42.2085 42.55 42.2085ZM48.5927 38.18H47.4849C47.2931 37.2266 46.8285 36.3495 46.1475 35.6552C45.4665 34.961 44.5985 34.4796 43.649 34.2695C42.6994 34.0594 41.7093 34.1298 40.799 34.472C39.8888 34.8141 39.0975 35.4134 38.5215 36.197C37.9455 35.4134 37.1542 34.8141 36.2439 34.472C35.3336 34.1298 34.3435 34.0594 33.394 34.2695C32.4445 34.4796 31.5764 34.961 30.8954 35.6552C30.2144 36.3495 29.7498 37.2266 29.5581 38.18H19.3861V32.1372H49.5999V37.1729C49.5999 37.44 49.4938 37.6961 49.3049 37.885C49.116 38.0739 48.8598 38.18 48.5927 38.18Z" fill="white"/>
<path d="M26.4368 26.0947C26.7039 26.0947 26.9601 25.9886 27.149 25.7997C27.3378 25.6108 27.4439 25.3547 27.4439 25.0876V17.0306C27.4439 16.7635 27.3378 16.5073 27.149 16.3184C26.9601 16.1295 26.7039 16.0234 26.4368 16.0234C26.1697 16.0234 25.9135 16.1295 25.7247 16.3184C25.5358 16.5073 25.4297 16.7635 25.4297 17.0306V25.0876C25.4297 25.3547 25.5358 25.6108 25.7247 25.7997C25.9135 25.9886 26.1697 26.0947 26.4368 26.0947Z" fill="white"/>
<path d="M34.4915 26.0947C34.7586 26.0947 35.0148 25.9886 35.2036 25.7997C35.3925 25.6108 35.4986 25.3547 35.4986 25.0876V17.0306C35.4986 16.7635 35.3925 16.5073 35.2036 16.3184C35.0148 16.1295 34.7586 16.0234 34.4915 16.0234C34.2244 16.0234 33.9682 16.1295 33.7794 16.3184C33.5905 16.5073 33.4844 16.7635 33.4844 17.0306V25.0876C33.4844 25.3547 33.5905 25.6108 33.7794 25.7997C33.9682 25.9886 34.2244 26.0947 34.4915 26.0947Z" fill="white"/>
<path d="M42.5462 26.0947C42.8133 26.0947 43.0695 25.9886 43.2583 25.7997C43.4472 25.6108 43.5533 25.3547 43.5533 25.0876V17.0306C43.5533 16.7635 43.4472 16.5073 43.2583 16.3184C43.0695 16.1295 42.8133 16.0234 42.5462 16.0234C42.2791 16.0234 42.0229 16.1295 41.834 16.3184C41.6452 16.5073 41.5391 16.7635 41.5391 17.0306V25.0876C41.5391 25.3547 41.6452 25.6108 41.834 25.7997C42.0229 25.9886 42.2791 26.0947 42.5462 26.0947Z" fill="white"/>
</svg>
