<svg width="40" height="40" viewBox="0 0 40 40" fill="none" xmlns="http://www.w3.org/2000/svg">
<g clip-path="url(#clip0_1273_176858)">
<path d="M10.0547 19.2734C10.0547 20.5995 10.5815 21.8713 11.5192 22.809C12.4568 23.7467 13.7286 24.2734 15.0547 24.2734C16.3808 24.2734 17.6525 23.7467 18.5902 22.809C19.5279 21.8713 20.0547 20.5995 20.0547 19.2734C20.0547 17.9474 19.5279 16.6756 18.5902 15.7379C17.6525 14.8002 16.3808 14.2734 15.0547 14.2734C13.7286 14.2734 12.4568 14.8002 11.5192 15.7379C10.5815 16.6756 10.0547 17.9474 10.0547 19.2734Z" stroke="#2D6FD0" stroke-width="2" stroke-linecap="round" stroke-linejoin="round"/>
<path d="M27.5119 24.9725C24.8041 32.234 17.8965 38.5603 15.0558 38.5603C11.4844 38.5603 1.48438 28.5603 1.48438 19.2746C1.48438 11.7793 7.56052 5.70312 15.0558 5.70312C15.4792 5.70312 15.8981 5.72252 16.3116 5.76047" stroke="#2D6FD0" stroke-width="2" stroke-linecap="round" stroke-linejoin="round"/>
<path d="M21.9885 10.7689C21.0351 10.603 21.0351 9.23432 21.9885 9.06846C25.4425 8.46755 28.1898 5.83669 28.9396 2.41186L28.997 2.14933C29.2033 1.20705 30.545 1.20119 30.7593 2.14163L30.8293 2.44757C31.6067 5.85624 34.3547 8.46489 37.799 9.06412C38.7573 9.23084 38.7573 10.6065 37.799 10.7732C34.3547 11.3724 31.6067 13.9811 30.8293 17.3898L30.7593 17.6957C30.545 18.6362 29.2033 18.6303 28.997 17.688L28.9396 17.4255C28.1898 14.0006 25.4425 11.3698 21.9885 10.7689Z" stroke="#2D6FD0" stroke-width="2" stroke-linecap="round" stroke-linejoin="round"/>
</g>
<defs>
<clipPath id="clip0_1273_176858">
<rect width="40" height="40" fill="white"/>
</clipPath>
</defs>
</svg>
