<svg width="35" height="35" viewBox="0 0 35 35" fill="none" xmlns="http://www.w3.org/2000/svg">
<g clip-path="url(#clip0_2974_417759)">
<path d="M21.1556 11.8754V3.98621C21.1556 2.58401 20.019 1.44727 18.6167 1.44727H6.64051C5.23829 1.44727 4.10156 2.58401 4.10156 3.98621V33.5532" stroke="white" stroke-width="2" stroke-linecap="round" stroke-linejoin="round"/>
<path d="M1.29688 33.5547H13.7187" stroke="white" stroke-width="2" stroke-linecap="round" stroke-linejoin="round"/>
<path d="M4.10156 7.96875H10.2519" stroke="white" stroke-width="2" stroke-linecap="round" stroke-linejoin="round"/>
<path d="M4.10156 14.375H13.7207" stroke="white" stroke-width="2" stroke-linecap="round" stroke-linejoin="round"/>
<path d="M26.2041 25.08C28.6209 25.08 30.5799 23.1208 30.5799 20.704C30.5799 18.2873 28.6209 16.3281 26.2041 16.3281C23.7873 16.3281 21.8281 18.2873 21.8281 20.704C21.8281 23.1208 23.7873 25.08 26.2041 25.08Z" stroke="white" stroke-width="2" stroke-linecap="round" stroke-linejoin="round"/>
<path d="M18.6953 33.5523C18.7086 32.2728 19.0438 31.0175 19.6697 29.9038C20.9886 27.5568 23.5216 26.0665 26.1997 26.0605C28.8777 26.0665 31.4107 27.5568 32.7297 29.9038C33.3555 31.0175 33.6907 32.2728 33.704 33.5523" stroke="white" stroke-width="2" stroke-linecap="round" stroke-linejoin="round"/>
</g>
<defs>
<clipPath id="clip0_2974_417759">
<rect width="35" height="35" fill="white"/>
</clipPath>
</defs>
</svg>
