<svg width="48" height="49" viewBox="0 0 48 49" fill="none" xmlns="http://www.w3.org/2000/svg">
<path d="M4.53125 37.9361V45.8992C4.53125 46.1339 4.62447 46.3589 4.7904 46.5248C4.95633 46.6908 5.18138 46.784 5.41604 46.784H12.4944C12.729 46.784 12.9541 46.6908 13.12 46.5248C13.286 46.3589 13.3792 46.1339 13.3792 45.8992V37.9361C13.3792 37.2321 13.0995 36.5569 12.6017 36.0591C12.1039 35.5614 11.4288 35.2817 10.7248 35.2817H9.84001V8.3141L19.5727 11.2339V12.2771C19.5727 12.9811 19.8524 13.6562 20.3502 14.154C20.848 14.6518 21.5231 14.9315 22.2271 14.9315V16.701H21.9723C21.3385 16.6981 20.7248 16.9233 20.2434 17.3354C19.7619 17.7476 19.4447 18.3191 19.3498 18.9458L15.1594 45.7629C15.1397 45.8891 15.1476 46.0181 15.1825 46.1409C15.2174 46.2638 15.2784 46.3776 15.3615 46.4746C15.4446 46.5716 15.5476 46.6495 15.6636 46.7029C15.7796 46.7563 15.9058 46.784 16.0336 46.784H35.499C35.6268 46.784 35.7531 46.7563 35.8692 46.7029C35.9852 46.6494 36.0884 46.5715 36.1714 46.4743C36.2545 46.3772 36.3155 46.2633 36.3504 46.1403C36.3852 46.0174 36.393 45.8883 36.3732 45.7621L32.1828 18.9467C32.088 18.3199 31.771 17.7481 31.2894 17.3358C30.8079 16.9235 30.1942 16.6982 29.5603 16.701H29.3054V14.9315C29.7781 14.9289 30.2412 14.7987 30.6459 14.5545L35.499 16.0118V20.2402C35.499 20.9442 35.7786 21.6194 36.2764 22.1171C36.7742 22.6149 37.4494 22.8946 38.1534 22.8946V45.8992C38.1534 46.1339 38.2466 46.3589 38.4125 46.5248C38.5784 46.6908 38.8035 46.784 39.0382 46.784C39.2728 46.784 39.4979 46.6908 39.6638 46.5248C39.8297 46.3589 39.923 46.1339 39.923 45.8992V22.7238C40.4135 22.5564 40.8442 22.2488 41.1617 21.839L42.9312 19.4784C43.2748 19.0184 43.461 18.4599 43.4621 17.8858V9.6227C43.4621 8.91872 43.1825 8.24357 42.6847 7.74578C42.1869 7.24798 41.5117 6.96833 40.8077 6.96833H38.1534C37.4494 6.96833 36.7742 7.24798 36.2764 7.74578C35.7786 8.24357 35.499 8.91872 35.499 9.6227V10.4677L31.9598 9.40593V8.73791C31.9598 8.03393 31.6802 7.35878 31.1824 6.86098C30.6846 6.36319 30.0094 6.08353 29.3054 6.08353H22.2271C21.9394 6.08708 21.6542 6.13789 21.383 6.23395L9.21003 2.58241C9.07794 2.54268 8.93839 2.53439 8.80252 2.5582C8.66666 2.582 8.53824 2.63724 8.42752 2.71951C8.3168 2.80177 8.22685 2.90878 8.16485 3.032C8.10284 3.15522 8.07051 3.29122 8.07042 3.42916V35.2817H7.18563C6.48164 35.2817 5.80649 35.5614 5.3087 36.0591C4.81091 36.5569 4.53125 37.2321 4.53125 37.9361ZM37.2686 9.6227C37.2686 9.38804 37.3618 9.16299 37.5277 8.99706C37.6937 8.83113 37.9187 8.73791 38.1534 8.73791H40.8077C41.0424 8.73791 41.2675 8.83113 41.4334 8.99706C41.5993 9.16299 41.6925 9.38804 41.6925 9.6227V17.8805C41.6922 18.0719 41.6301 18.258 41.5156 18.4114L39.746 20.7711C39.6633 20.8807 39.5564 20.9696 39.4336 21.031C39.3108 21.0924 39.1754 21.1246 39.0382 21.125H38.1534C37.9187 21.125 37.6937 21.0318 37.5277 20.8659C37.3618 20.6999 37.2686 20.4749 37.2686 20.2402V9.6227ZM35.499 14.1635L31.828 13.0619C31.9116 12.8085 31.9561 12.5439 31.9598 12.2771V11.2551L35.499 12.3169V14.1635ZM32.1456 30.1711L21.1742 24.5969L30.376 19.0422C30.4937 19.3554 30.2548 18.2052 32.1456 30.1711ZM20.0372 26.0055L31.2175 31.6841L18.2632 37.3627L20.0372 26.0055ZM34.3886 44.5233L19.463 38.7722L32.5898 33.021L34.3886 44.5233ZM17.067 45.0144L17.8447 40.041L30.7441 45.0144H17.067ZM21.9723 18.4706H27.9004L20.5212 22.9256L21.1008 19.2183C21.1324 19.0099 21.2377 18.8198 21.3977 18.6826C21.5576 18.5454 21.7615 18.4702 21.9723 18.4706ZM23.9967 14.9315H27.5359V16.701H23.9967V14.9315ZM21.3423 8.73791C21.3423 8.50325 21.4355 8.2782 21.6015 8.11227C21.7674 7.94634 21.9924 7.85312 22.2271 7.85312H29.3054C29.5401 7.85312 29.7652 7.94634 29.9311 8.11227C30.097 8.2782 30.1902 8.50325 30.1902 8.73791V12.2771C30.1902 12.5117 30.097 12.7368 29.9311 12.9027C29.7652 13.0687 29.5401 13.1619 29.3054 13.1619H22.2271C21.9924 13.1619 21.7674 13.0687 21.6015 12.9027C21.4355 12.7368 21.3423 12.5117 21.3423 12.2771V8.73791ZM9.84001 6.46577V4.6192L19.8302 7.61688C19.6624 7.96687 19.5744 8.34978 19.5727 8.73791V9.3847L9.84001 6.46577ZM6.30084 37.9361C6.30084 37.7014 6.39405 37.4764 6.55999 37.3104C6.72592 37.1445 6.95097 37.0513 7.18563 37.0513H10.7248C10.9595 37.0513 11.1845 37.1445 11.3504 37.3104C11.5164 37.4764 11.6096 37.7014 11.6096 37.9361V45.0144H6.30084V37.9361Z" fill="white"/>
<path d="M24.8848 9.62305H26.6544C26.889 9.62305 27.1141 9.71627 27.28 9.8822C27.446 10.0481 27.5392 10.2732 27.5392 10.5078C27.5392 10.7425 27.446 10.9676 27.28 11.1335C27.1141 11.2994 26.889 11.3926 26.6544 11.3926H24.8848C24.6501 11.3926 24.4251 11.2994 24.2591 11.1335C24.0932 10.9676 24 10.7425 24 10.5078C24 10.2732 24.0932 10.0481 24.2591 9.8822C24.4251 9.71627 24.6501 9.62305 24.8848 9.62305Z" fill="white"/>
</svg>
