<svg width="48" height="48" viewBox="0 0 48 48" fill="none" xmlns="http://www.w3.org/2000/svg">
<path d="M26.0602 26.2513C26.0602 27.4268 25.0806 28.4064 23.9051 28.4064C22.7296 28.4064 21.75 27.4268 21.75 26.2513C21.75 25.0758 23.9051 22.0391 23.9051 22.0391C23.9051 22.0391 26.0602 25.0758 26.0602 26.2513Z" stroke="white" stroke-width="1.8" stroke-miterlimit="10"/>
<path d="M23.8974 32.5214C27.9009 32.5214 31.1464 29.2759 31.1464 25.2724C31.1464 21.2689 27.9009 18.0234 23.8974 18.0234C19.8939 18.0234 16.6484 21.2689 16.6484 25.2724C16.6484 29.2759 19.8939 32.5214 23.8974 32.5214Z" stroke="white" stroke-width="1.8" stroke-miterlimit="10"/>
<path d="M38.6931 35.7622V14.7989C39.9666 14.5051 40.8482 13.4275 40.8482 12.0561C40.8482 10.6847 39.9666 9.60711 38.6931 9.31323V5.39487C38.6931 4.61119 38.1053 4.02344 37.3217 4.02344H11.3625C10.5788 4.02344 9.99104 4.61119 9.99104 5.39487V9.31323C8.71757 9.60711 7.83594 10.6847 7.83594 12.0561C7.83594 13.4275 8.71757 14.5051 9.99104 14.7989V35.6643C8.71757 35.9581 7.83594 37.0357 7.83594 38.4071C7.83594 39.7785 8.71757 40.8561 9.99104 41.15V44.9704C9.99104 45.7541 10.5788 46.3418 11.3625 46.3418H37.3217C38.1053 46.3418 38.6931 45.7541 38.6931 44.9704V41.15C39.9666 40.8561 40.8482 39.7785 40.8482 38.4071C40.8482 37.0357 39.8686 36.0561 38.6931 35.7622Z" stroke="white" stroke-width="1.8" stroke-miterlimit="10"/>
<path d="M9.79688 14.9844H21.3561" stroke="white" stroke-width="1.8" stroke-miterlimit="10"/>
<path d="M29.0951 14.9844H23.6094" stroke="white" stroke-width="1.8" stroke-miterlimit="10"/>
<path d="M38.204 35.5547H29.0938" stroke="white" stroke-width="1.8" stroke-miterlimit="10"/>
<path d="M24.2969 35.5547H27.9214" stroke="white" stroke-width="1.8" stroke-miterlimit="10"/>
<path d="M11.5547 1.96094H16.3547" stroke="white" stroke-width="1.8" stroke-miterlimit="10"/>
</svg>
