<svg width="40" height="40" viewBox="0 0 40 40" fill="none" xmlns="http://www.w3.org/2000/svg">
<g clip-path="url(#clip0_1662_108122)">
<path d="M18.5725 35.7134C28.0403 35.7134 35.7154 28.0383 35.7154 18.5706C35.7154 9.10285 28.0403 1.42773 18.5725 1.42773C9.1048 1.42773 1.42969 9.10285 1.42969 18.5706C1.42969 28.0383 9.1048 35.7134 18.5725 35.7134Z" stroke="white" stroke-width="2" stroke-linecap="round" stroke-linejoin="round"/>
<path d="M30.6875 30.6855L38.5732 38.5713" stroke="white" stroke-width="2" stroke-linecap="round" stroke-linejoin="round"/>
<path d="M10 16.7087C10 15.313 11.1314 14.1816 12.5271 14.1816H24.6148C26.0105 14.1816 27.1419 15.313 27.1419 16.7087V23.8988C27.1419 25.2944 26.0105 26.4258 24.6148 26.4258H12.5271C11.1314 26.4258 10 25.2944 10 23.8988V16.7087Z" stroke="white" stroke-width="2" stroke-linecap="round" stroke-linejoin="round"/>
<path d="M14.8984 13.5996V12.1423C14.8984 10.5644 16.1776 9.28516 17.7556 9.28516H19.3878C20.9658 9.28516 22.2449 10.5644 22.2449 12.1423V13.5996" stroke="white" stroke-width="2" stroke-linecap="round" stroke-linejoin="round"/>
</g>
<defs>
<clipPath id="clip0_1662_108122">
<rect width="40" height="40" fill="white"/>
</clipPath>
</defs>
</svg>
