<svg width="40" height="40" viewBox="0 0 40 40" fill="none" xmlns="http://www.w3.org/2000/svg">
<path d="M33.4834 35.7134C33.4834 36.4712 33.1823 37.198 32.6465 37.7337C32.1105 38.2695 31.384 38.5706 30.6263 38.5706H4.91183C4.15406 38.5706 3.42734 38.2695 2.89152 37.7337C2.35571 37.198 2.05469 36.4712 2.05469 35.7134V4.28488C2.05469 3.52711 2.35571 2.80039 2.89152 2.26457C3.42734 1.72875 4.15406 1.42773 4.91183 1.42773H20.8712C21.629 1.42773 22.3557 1.72875 22.8915 2.26457L32.6465 12.0195C33.1823 12.5553 33.4834 13.282 33.4834 14.0398V35.7134Z" stroke="#2D6FD0" stroke-width="2" stroke-linecap="round" stroke-linejoin="round"/>
<path d="M19.3633 18.2129H26.5061" stroke="#2D6FD0" stroke-width="2" stroke-linecap="round" stroke-linejoin="round"/>
<path d="M19.3633 28.125H26.5061" stroke="#2D6FD0" stroke-width="2" stroke-linecap="round" stroke-linejoin="round"/>
<path d="M8.31641 27.9615L10.7104 30.3555L14.7003 24.7695" stroke="#2D6FD0" stroke-width="2" stroke-linecap="round" stroke-linejoin="round"/>
<path d="M8.31641 17.8736L10.7104 20.2676L14.7003 14.6816" stroke="#2D6FD0" stroke-width="2" stroke-linecap="round" stroke-linejoin="round"/>
</svg>
