<svg width="40" height="40" viewBox="0 0 40 40" fill="none" xmlns="http://www.w3.org/2000/svg">
<path d="M27.1434 4.28906H31.4291C32.1868 4.28906 32.9137 4.59009 33.4494 5.12589C33.9851 5.66172 34.2863 6.38843 34.2863 7.14621V35.7176C34.2863 36.4753 33.9851 37.2022 33.4494 37.7379C32.9137 38.2736 32.1868 38.5748 31.4291 38.5748H8.57199C7.81422 38.5748 7.0875 38.2736 6.55167 37.7379C6.01587 37.2022 5.71484 36.4753 5.71484 35.7176V7.14621C5.71484 6.38843 6.01587 5.66172 6.55167 5.12589C7.0875 4.59009 7.81422 4.28906 8.57199 4.28906H12.8577" stroke="#2D6FD0" stroke-width="2" stroke-linecap="round" stroke-linejoin="round"/>
<path d="M24.2879 1.42969H15.7165C14.1386 1.42969 12.8594 2.70887 12.8594 4.28683V5.7154C12.8594 7.29334 14.1386 8.57254 15.7165 8.57254H24.2879C25.8659 8.57254 27.1451 7.29334 27.1451 5.7154V4.28683C27.1451 2.70887 25.8659 1.42969 24.2879 1.42969Z" stroke="#2D6FD0" stroke-width="2" stroke-linecap="round" stroke-linejoin="round"/>
<path d="M11.5586 17.7238C11.5586 19.6962 13.1576 21.2952 15.13 21.2952C15.6287 21.2952 16.1035 21.193 16.5345 21.0084C17.8087 20.4629 18.7015 19.1976 18.7015 17.7238C18.7015 15.7513 17.1025 14.1523 15.13 14.1523C13.1576 14.1523 11.5586 15.7513 11.5586 17.7238Z" stroke="#2D6FD0" stroke-width="2" stroke-linecap="round" stroke-linejoin="round"/>
<path d="M21.293 25.2383L28.4358 32.3813" stroke="#2D6FD0" stroke-width="2" stroke-linecap="round" stroke-linejoin="round"/>
<path d="M28.4397 25.2383L21.2969 32.3813" stroke="#2D6FD0" stroke-width="2" stroke-linecap="round" stroke-linejoin="round"/>
</svg>
