<svg width="40" height="40" viewBox="0 0 40 40" fill="none" xmlns="http://www.w3.org/2000/svg">
<path d="M33.4834 35.7154C33.4834 36.4731 33.1823 37.2 32.6465 37.7357C32.1105 38.2714 31.384 38.5725 30.6263 38.5725H4.91183C4.15406 38.5725 3.42734 38.2714 2.89152 37.7357C2.35571 37.2 2.05469 36.4731 2.05469 35.7154V4.28683C2.05469 3.52906 2.35571 2.80234 2.89152 2.26652C3.42734 1.73071 4.15406 1.42969 4.91183 1.42969H20.8712C21.629 1.42969 22.3557 1.73071 22.8915 2.26652L32.6465 12.0214C33.1823 12.5572 33.4834 13.284 33.4834 14.0417V35.7154Z" stroke="#2D6FD0" stroke-width="2" stroke-linecap="round" stroke-linejoin="round"/>
<path d="M19.3633 18.2148H26.5061" stroke="#2D6FD0" stroke-width="2" stroke-linecap="round" stroke-linejoin="round"/>
<path d="M19.3633 28.125H26.5061" stroke="#2D6FD0" stroke-width="2" stroke-linecap="round" stroke-linejoin="round"/>
<path d="M8.31641 27.9654L10.7104 30.3594L14.7003 24.7734" stroke="#2D6FD0" stroke-width="2" stroke-linecap="round" stroke-linejoin="round"/>
<path d="M8.31641 17.8756L10.7104 20.2695L14.7003 14.6836" stroke="#2D6FD0" stroke-width="2" stroke-linecap="round" stroke-linejoin="round"/>
</svg>
