<svg width="40" height="40" viewBox="0 0 40 40" fill="none" xmlns="http://www.w3.org/2000/svg">
<g clip-path="url(#clip0_1288_182031)">
<path d="M30.0011 24.2859C30.0008 26.6822 29.398 29.04 28.2478 31.142C27.0976 33.2443 25.437 35.0234 23.419 36.3157C21.4009 37.6077 19.0903 38.3717 16.6997 38.5366C14.3091 38.7017 11.9153 38.2629 9.73883 37.2603C7.56232 36.2577 5.67297 34.724 4.24466 32.7997C2.81637 30.8757 1.89503 28.6231 1.56545 26.2497C1.23588 23.8762 1.50865 21.4579 2.35868 19.2174C3.20872 16.977 4.60866 14.9863 6.42969 13.4287" stroke="#2D6FD0" stroke-width="2" stroke-linecap="round" stroke-linejoin="round"/>
<path d="M15.0822 19C14.7803 19.6234 14.624 20.3073 14.6251 21C14.6213 21.5751 14.7318 22.1453 14.9501 22.6774C15.1685 23.2095 15.4903 23.6929 15.897 24.0995C16.3037 24.5062 16.7871 24.8281 17.3192 25.0464C17.8512 25.2648 18.4214 25.3752 18.9965 25.3714C19.58 25.3714 20.1396 25.6032 20.5522 26.0158C20.9647 26.4284 21.1965 26.988 21.1965 27.5714V37.4857" stroke="#2D6FD0" stroke-width="2" stroke-linecap="round" stroke-linejoin="round"/>
<path d="M1.625 26.4859H6.91073C7.49807 26.4706 8.08255 26.5731 8.62964 26.7874C9.17673 27.0017 9.67538 27.3234 10.0961 27.7335C10.5169 28.1436 10.8512 28.6337 11.0795 29.1751C11.3077 29.7166 11.4252 30.2983 11.425 30.886V37.886" stroke="#2D6FD0" stroke-width="2" stroke-linecap="round" stroke-linejoin="round"/>
<path d="M37.8865 5.62855L35.0293 4.65712C34.8288 4.58889 34.611 4.58826 34.4099 4.65535C34.2085 4.72241 34.0348 4.85349 33.915 5.02855L31.8293 8.25712L20.4009 2.54282C19.4976 2.0105 18.4879 1.6844 17.4439 1.58785C16.3999 1.4913 15.3475 1.62669 14.362 1.98432C13.3764 2.34196 12.4821 2.91301 11.743 3.65661C11.0039 4.40021 10.4382 5.29798 10.0866 6.28569C9.98967 6.54192 9.94804 6.81575 9.96441 7.08921C9.98078 7.36266 10.0548 7.62958 10.1816 7.87241C10.3084 8.11523 10.4852 8.32849 10.7002 8.49821C10.9153 8.66792 11.1638 8.79024 11.4294 8.85712L18.8866 11.2571L19.6294 11.5143L21.0294 16.3143C21.0744 16.4814 21.1608 16.6345 21.2807 16.7593C21.4006 16.8842 21.55 16.9768 21.7152 17.0285L25.0866 18.1143C25.2587 18.1703 25.4424 18.1813 25.6199 18.146C25.7975 18.1107 25.963 18.0305 26.1006 17.9129C26.2383 17.7953 26.3434 17.6444 26.406 17.4745C26.4686 17.3047 26.4865 17.1216 26.458 16.9428L25.7152 13.3714H26.2009L33.4865 15.7428C33.9642 15.9074 34.4873 15.8767 34.9422 15.6572C35.397 15.4378 35.7468 15.0475 35.915 14.5714L38.4865 6.65712C38.5148 6.44338 38.4713 6.22632 38.3628 6.04012C38.2539 5.85389 38.0865 5.70909 37.8865 5.62855Z" stroke="#2D6FD0" stroke-width="2" stroke-linecap="round" stroke-linejoin="round"/>
</g>
<defs>
<clipPath id="clip0_1288_182031">
<rect width="40" height="40" fill="white"/>
</clipPath>
</defs>
</svg>
