<svg width="40" height="40" viewBox="0 0 40 40" fill="none" xmlns="http://www.w3.org/2000/svg">
<path d="M33.2154 32.8338H35.5071C37.0848 32.8338 38.3643 31.5546 38.3643 29.9766V22.7342C38.3643 21.1562 37.0848 19.877 35.5071 19.877H33.9297V9.64291C33.9297 8.06497 32.6505 6.78577 31.0725 6.78577H4.81417C3.23623 6.78577 1.95703 8.06497 1.95703 9.64291V30.3832C1.95703 31.7366 3.05415 32.8338 4.40752 32.8338H5.7154" stroke="#2D6FD0" stroke-width="2" stroke-linecap="round" stroke-linejoin="round"/>
<path d="M33.9314 12.0243H1.96094" stroke="#2D6FD0" stroke-width="2" stroke-linecap="round" stroke-linejoin="round"/>
<path d="M33.9314 19.8765H1.96094" stroke="#2D6FD0" stroke-width="2" stroke-linecap="round" stroke-linejoin="round"/>
<path d="M12.7539 12.0243V19.8659" stroke="#2D6FD0" stroke-width="2" stroke-linecap="round" stroke-linejoin="round"/>
<path d="M22.9492 12.0243V19.8659" stroke="#2D6FD0" stroke-width="2" stroke-linecap="round" stroke-linejoin="round"/>
<path d="M5.69922 32.7942C5.69922 33.318 5.80239 33.8367 6.00283 34.3206C6.20328 34.8045 6.49707 35.2442 6.86744 35.6146C7.23782 35.985 7.67751 36.2787 8.16143 36.4792C8.64535 36.6796 9.164 36.7828 9.68779 36.7828C10.2116 36.7828 10.7302 36.6796 11.2142 36.4792C11.6981 36.2787 12.1378 35.985 12.5081 35.6146C12.8785 35.2442 13.1723 34.8045 13.3728 34.3206C13.5732 33.8367 13.6764 33.318 13.6764 32.7942C13.6764 32.2704 13.5732 31.7518 13.3728 31.2679C13.1723 30.784 12.8785 30.3443 12.5081 29.9739C12.1378 29.6035 11.6981 29.3097 11.2142 29.1093C10.7302 28.9088 10.2116 28.8057 9.68779 28.8057C9.164 28.8057 8.64535 28.9088 8.16143 29.1093C7.67751 29.3097 7.23782 29.6035 6.86744 29.9739C6.49707 30.3443 6.20328 30.784 6.00283 31.2679C5.80239 31.7518 5.69922 32.2704 5.69922 32.7942Z" stroke="#2D6FD0" stroke-width="2" stroke-linecap="round" stroke-linejoin="round"/>
<path d="M25.2422 32.7942C25.2422 33.8521 25.6624 34.8666 26.4104 35.6146C27.1584 36.3626 28.1729 36.7828 29.2308 36.7828C30.2886 36.7828 31.3031 36.3626 32.0511 35.6146C32.7991 34.8666 33.2193 33.8521 33.2193 32.7942C33.2193 31.7364 32.7991 30.7219 32.0511 29.9739C31.3031 29.2259 30.2886 28.8057 29.2308 28.8057C28.1729 28.8057 27.1584 29.2259 26.4104 29.9739C25.6624 30.7219 25.2422 31.7364 25.2422 32.7942Z" stroke="#2D6FD0" stroke-width="2" stroke-linecap="round" stroke-linejoin="round"/>
<path d="M13.6758 32.7939H19.4426H25.2404" stroke="#2D6FD0" stroke-width="2" stroke-linecap="round" stroke-linejoin="round"/>
</svg>
