<svg width="40" height="40" viewBox="0 0 40 40" fill="none" xmlns="http://www.w3.org/2000/svg">
<path d="M14.2835 18.5709C18.2284 18.5709 21.4263 15.3729 21.4263 11.428C21.4263 7.48313 18.2284 4.28516 14.2835 4.28516C10.3386 4.28516 7.14062 7.48313 7.14062 11.428C7.14062 15.3729 10.3386 18.5709 14.2835 18.5709Z" stroke="#2D6FD0" stroke-width="2" stroke-linecap="round" stroke-linejoin="round"/>
<path d="M1.42969 38.5715H27.144V37.0226C27.1212 34.8449 26.5469 32.7083 25.4746 30.8129C24.4023 28.9172 22.8671 27.3243 21.0123 26.1829C19.1575 25.0415 17.0437 24.3889 14.8683 24.2859C14.6744 24.2767 14.4805 24.2719 14.2868 24.2715C14.0932 24.2719 13.8993 24.2767 13.7053 24.2859C11.5299 24.3889 9.41612 25.0415 7.56132 26.1829C5.70654 27.3243 4.17132 28.9172 3.09903 30.8129C2.02676 32.7083 1.45243 34.8449 1.42969 37.0226V38.5715Z" stroke="#2D6FD0" stroke-width="2" stroke-linecap="round" stroke-linejoin="round"/>
<path d="M25.7188 18.5709C29.6636 18.5709 32.8616 15.3729 32.8616 11.428C32.8616 7.48313 29.6636 4.28516 25.7188 4.28516" stroke="#2D6FD0" stroke-width="2" stroke-linecap="round" stroke-linejoin="round"/>
<path d="M32.856 38.5708H38.5703V37.0217C38.5475 34.8439 37.9732 32.7074 36.9009 30.8119C35.8286 28.9162 34.2935 27.3234 32.4386 26.182C31.2397 25.4442 29.9323 24.9106 28.5703 24.5977" stroke="#2D6FD0" stroke-width="2" stroke-linecap="round" stroke-linejoin="round"/>
</svg>
