<svg width="24" height="24" viewBox="0 0 24 24" fill="none" xmlns="http://www.w3.org/2000/svg">
<g clip-path="url(#clip0_1336_67844)">
<path d="M12.0045 13.7121C14.3714 13.7121 16.2902 11.7933 16.2902 9.42634C16.2902 7.05941 14.3714 5.14062 12.0045 5.14062C9.63753 5.14062 7.71875 7.05941 7.71875 9.42634C7.71875 11.7933 9.63753 13.7121 12.0045 13.7121Z" stroke="white" stroke-width="2" stroke-linecap="round" stroke-linejoin="round"/>
<path d="M4.67969 20.3971C5.44467 19.1414 6.51982 18.1036 7.80176 17.3836C9.0837 16.6634 10.5293 16.2852 11.9997 16.2852C13.47 16.2852 14.9157 16.6634 16.1976 17.3836C17.4796 18.1036 18.5546 19.1414 19.3197 20.3971" stroke="white" stroke-width="2" stroke-linecap="round" stroke-linejoin="round"/>
<path d="M12.0022 23.1412C18.1563 23.1412 23.1451 18.1524 23.1451 11.9983C23.1451 5.8443 18.1563 0.855469 12.0022 0.855469C5.8482 0.855469 0.859375 5.8443 0.859375 11.9983C0.859375 18.1524 5.8482 23.1412 12.0022 23.1412Z" stroke="white" stroke-width="2" stroke-linecap="round" stroke-linejoin="round"/>
</g>
<defs>
<clipPath id="clip0_1336_67844">
<rect width="24" height="24" fill="white"/>
</clipPath>
</defs>
</svg>
