<svg width="86" height="86" viewBox="0 0 86 86" fill="none" xmlns="http://www.w3.org/2000/svg">
<path d="M22.8509 17.6643C22.6255 17.6652 22.4096 17.7536 22.2502 17.91C22.0909 18.0665 22.0009 18.2785 22 18.4998V21.0145C21.9983 21.2368 22.0865 21.4507 22.2453 21.6092L23.1028 22.4513C23.2642 22.6072 23.482 22.6938 23.7084 22.6921V51.2124C23.5957 51.212 23.484 51.2335 23.3797 51.2756C23.2755 51.3178 23.1808 51.3798 23.1011 51.4581C23.0214 51.5364 22.9582 51.6293 22.9153 51.7317C22.8723 51.8341 22.8505 51.9437 22.8509 52.0544C22.8513 52.1646 22.8739 52.2736 22.9172 52.3752C22.9605 52.4768 23.0238 52.569 23.1034 52.6466C23.1831 52.7242 23.2775 52.7856 23.3813 52.8274C23.4851 52.8691 23.5962 52.8904 23.7084 52.89V64.6363C23.482 64.6346 23.2642 64.7212 23.1028 64.8771L22.2453 65.7192C22.0865 65.8777 21.9983 66.0916 22 66.3139V68.827C22.0005 69.0486 22.0902 69.261 22.2497 69.4178C22.4091 69.5747 22.6252 69.6632 22.8509 69.6641H62.1474C62.3731 69.6632 62.5893 69.5747 62.7487 69.4178C62.9081 69.261 62.9978 69.0486 62.9983 68.827V66.3139C62.9983 66.2033 62.976 66.0939 62.9328 65.9918C62.8896 65.8898 62.8262 65.7972 62.7464 65.7192L61.8955 64.8771C61.7342 64.7212 61.5163 64.6346 61.2899 64.6363V52.89C61.4021 52.8904 61.5133 52.8691 61.6171 52.8274C61.7209 52.7856 61.8153 52.7242 61.8949 52.6466C61.9746 52.569 62.0378 52.4768 62.0812 52.3752C62.1245 52.2736 62.147 52.1646 62.1475 52.0544C62.1479 51.9437 62.126 51.8341 62.0831 51.7317C62.0401 51.6293 61.977 51.5364 61.8973 51.4581C61.8176 51.3798 61.7228 51.3178 61.6186 51.2756C61.5144 51.2335 61.4027 51.212 61.2899 51.2124V22.6921C61.5164 22.6937 61.7342 22.6071 61.8955 22.451L62.7464 21.609C62.8265 21.5312 62.8902 21.4386 62.9337 21.3365C62.9772 21.2345 62.9998 21.1249 63 21.0143V18.4995C62.9991 18.2779 62.9089 18.0657 62.7492 17.9092C62.5895 17.7527 62.3731 17.6645 62.1475 17.6641L22.8509 17.6643ZM23.7084 19.337H61.2899V20.6672L60.9379 21.0145H24.0554L23.7084 20.6672V19.337ZM25.4185 22.6921H41.6416V51.2124H25.4185V22.6921ZM43.35 22.6921H59.5815V51.2124H43.35V22.6921ZM27.9778 24.3696C27.8656 24.3701 27.7546 24.3922 27.6511 24.4348C27.5476 24.4773 27.4537 24.5394 27.3747 24.6176C27.2957 24.6958 27.2331 24.7886 27.1906 24.8905C27.1481 24.9924 27.1265 25.1015 27.1269 25.2117V48.6977C27.1278 48.919 27.2177 49.131 27.3771 49.2875C27.5365 49.444 27.7524 49.5323 27.9778 49.5332C28.2032 49.5323 28.4191 49.444 28.5784 49.2875C28.7378 49.131 28.8277 48.919 28.8286 48.6977V25.2117C28.8291 25.1015 28.8074 24.9924 28.7649 24.8905C28.7224 24.7886 28.6598 24.6958 28.5808 24.6176C28.5018 24.5394 28.4079 24.4773 28.3044 24.4348C28.2009 24.3922 28.0899 24.3701 27.9778 24.3696ZM57.0222 24.3696C56.9094 24.369 56.7975 24.3903 56.693 24.4324C56.5886 24.4744 56.4937 24.5364 56.4138 24.6147C56.3339 24.693 56.2706 24.7861 56.2276 24.8886C56.1845 24.9911 56.1626 25.1009 56.163 25.2117V48.6977C56.1635 48.808 56.1861 48.9171 56.2295 49.0188C56.2729 49.1205 56.3364 49.2129 56.4162 49.2905C56.496 49.3681 56.5906 49.4294 56.6946 49.4711C56.7986 49.5127 56.9099 49.5339 57.0222 49.5332C57.2476 49.5323 57.4636 49.444 57.6229 49.2875C57.7823 49.131 57.8722 48.919 57.8731 48.6977V25.2117C57.8736 25.1015 57.8519 24.9924 57.8094 24.8905C57.7669 24.7886 57.7043 24.6958 57.6253 24.6176C57.5463 24.5394 57.4524 24.4773 57.3489 24.4348C57.2454 24.3922 57.1344 24.3701 57.0222 24.3696ZM39.0824 35.2739C38.8558 35.2747 38.6389 35.3639 38.4793 35.5218C38.3198 35.6798 38.2306 35.8935 38.2315 36.1159V37.7935C38.2319 38.0151 38.3217 38.2275 38.4811 38.3844C38.6405 38.5412 38.8567 38.6297 39.0824 38.6306C39.1947 38.631 39.306 38.6097 39.4099 38.5679C39.5138 38.526 39.6083 38.4644 39.6879 38.3867C39.7676 38.3089 39.8309 38.2165 39.8741 38.1147C39.9173 38.0129 39.9397 37.9037 39.9399 37.7935V36.1159C39.9403 36.0052 39.9185 35.8955 39.8755 35.7931C39.8326 35.6908 39.7694 35.5978 39.6897 35.5195C39.61 35.4413 39.5153 35.3792 39.411 35.3371C39.3068 35.2949 39.1951 35.2734 39.0824 35.2739ZM45.9176 35.2739C45.8049 35.2734 45.6932 35.2949 45.589 35.3371C45.4847 35.3792 45.39 35.4413 45.3103 35.5195C45.2306 35.5978 45.1674 35.6908 45.1245 35.7931C45.0816 35.8955 45.0597 36.0052 45.0601 36.1159V37.7935C45.0603 37.9037 45.0827 38.0129 45.1259 38.1147C45.1692 38.2165 45.2324 38.3089 45.3121 38.3867C45.3917 38.4644 45.4862 38.526 45.5901 38.5679C45.694 38.6097 45.8053 38.631 45.9176 38.6306C46.1433 38.6297 46.3595 38.5412 46.5189 38.3844C46.6783 38.2275 46.7681 38.0151 46.7685 37.7935V36.1159C46.7694 35.8935 46.6802 35.6798 46.5207 35.5218C46.3611 35.3639 46.1442 35.2747 45.9176 35.2739ZM25.4185 52.89H41.6416V57.9243H25.4185V52.89ZM43.35 52.89H59.5815V57.9243H43.35V52.89ZM33.1046 54.5676C32.9919 54.5671 32.8802 54.5886 32.7759 54.6308C32.6717 54.6729 32.577 54.735 32.4973 54.8132C32.4176 54.8915 32.3544 54.9845 32.3115 55.0868C32.2685 55.1892 32.2467 55.2989 32.2471 55.4096C32.2475 55.5198 32.2701 55.6287 32.3134 55.7304C32.3567 55.832 32.42 55.9242 32.4996 56.0018C32.5793 56.0794 32.6737 56.1408 32.7775 56.1826C32.8813 56.2243 32.9925 56.2456 33.1046 56.2452H33.9555C34.0677 56.2456 34.1788 56.2243 34.2826 56.1826C34.3865 56.1408 34.4809 56.0794 34.5605 56.0018C34.6401 55.9242 34.7034 55.832 34.7467 55.7304C34.7901 55.6287 34.8126 55.5198 34.813 55.4096C34.8135 55.2989 34.7916 55.1892 34.7487 55.0868C34.7057 54.9845 34.6426 54.8915 34.5629 54.8132C34.4831 54.735 34.3884 54.6729 34.2842 54.6308C34.1799 54.5886 34.0682 54.5671 33.9555 54.5676H33.1046ZM51.0445 54.5676C50.9316 54.5669 50.8197 54.5882 50.7153 54.6303C50.6109 54.6724 50.516 54.7343 50.4361 54.8126C50.3562 54.8909 50.2929 54.984 50.2498 55.0864C50.2068 55.1889 50.1849 55.2988 50.1853 55.4096C50.1857 55.5199 50.2083 55.629 50.2518 55.7307C50.2952 55.8325 50.3586 55.9247 50.4384 56.0023C50.5182 56.0799 50.6129 56.1414 50.7169 56.183C50.8209 56.2247 50.9322 56.2458 51.0445 56.2452H51.8954C52.0076 56.2456 52.1187 56.2243 52.2225 56.1825C52.3263 56.1407 52.4207 56.0794 52.5004 56.0018C52.58 55.9242 52.6433 55.832 52.6866 55.7304C52.7299 55.6287 52.7525 55.5198 52.7529 55.4096C52.7534 55.2989 52.7315 55.1892 52.6885 55.0868C52.6456 54.9845 52.5825 54.8915 52.5027 54.8132C52.423 54.735 52.3283 54.6729 52.2241 54.6308C52.1198 54.5886 52.0081 54.5671 51.8954 54.5676H51.0445ZM25.4185 59.6019H59.5815V64.6363H25.4185V59.6019ZM33.108 61.2794C32.8814 61.2786 32.6638 61.3661 32.503 61.5228C32.3422 61.6795 32.2513 61.8925 32.2504 62.115C32.25 62.2257 32.2719 62.3353 32.3148 62.4377C32.3577 62.5401 32.4209 62.6331 32.5006 62.7114C32.5803 62.7896 32.675 62.8516 32.7793 62.8937C32.8835 62.9359 32.9952 62.9575 33.108 62.957H33.9588C34.071 62.9566 34.182 62.9345 34.2855 62.8919C34.3889 62.8494 34.4829 62.7872 34.5619 62.709C34.6409 62.6308 34.7034 62.5381 34.746 62.4362C34.7885 62.3342 34.8101 62.2251 34.8097 62.115C34.8088 61.8936 34.7189 61.6816 34.5595 61.5251C34.4001 61.3686 34.1842 61.2803 33.9588 61.2794H33.108ZM51.0445 61.2794C50.9322 61.2788 50.8209 61.2999 50.7169 61.3416C50.6129 61.3832 50.5183 61.4446 50.4385 61.5222C50.3586 61.5998 50.2952 61.6922 50.2518 61.7939C50.2083 61.8956 50.1857 62.0047 50.1853 62.115C50.1849 62.2258 50.2068 62.3356 50.2498 62.4381C50.2929 62.5405 50.3562 62.6336 50.4361 62.7119C50.516 62.7902 50.6109 62.8522 50.7153 62.8943C50.8197 62.9364 50.9316 62.9577 51.0445 62.957H51.8954C52.0081 62.9575 52.1198 62.9359 52.2241 62.8937C52.3283 62.8516 52.423 62.7896 52.5027 62.7114C52.5825 62.6331 52.6456 62.5401 52.6885 62.4377C52.7315 62.3353 52.7534 62.2257 52.7529 62.115C52.752 61.8925 52.6612 61.6795 52.5004 61.5228C52.3395 61.3661 52.1219 61.2786 51.8954 61.2794H51.0445ZM24.0554 66.3138H60.9379L61.2899 66.6595V67.9914H23.7084V66.6595L24.0554 66.3138Z" fill="white"/>
</svg>
