<svg width="41" height="53" viewBox="0 0 41 53" fill="none" xmlns="http://www.w3.org/2000/svg">
<path d="M0.850889 0.664293C0.62551 0.665178 0.409617 0.753558 0.250245 0.910047C0.0908733 1.06654 0.000935804 1.27851 2.52087e-05 1.49983V4.0145C-0.00171295 4.23682 0.0864967 4.45071 0.245274 4.6092L1.10281 5.45127C1.2642 5.6072 1.48202 5.69379 1.70843 5.6921V34.2124C1.59569 34.212 1.48399 34.2335 1.37975 34.2756C1.27551 34.3178 1.1808 34.3798 1.10109 34.4581C1.02137 34.5364 0.958218 34.6293 0.915277 34.7317C0.872336 34.8341 0.850452 34.9437 0.850889 35.0544C0.851324 35.1646 0.87385 35.2736 0.917182 35.3752C0.960513 35.4768 1.0238 35.569 1.10343 35.6466C1.18306 35.7242 1.27747 35.7856 1.38128 35.8274C1.48508 35.8691 1.59625 35.8904 1.70843 35.89V47.6363C1.48202 47.6346 1.2642 47.7212 1.10281 47.8771L0.245274 48.7192C0.0865156 48.8777 -0.0016925 49.0916 2.52087e-05 49.3139V51.827C0.000496371 52.0486 0.0902399 52.261 0.249659 52.4178C0.409079 52.5747 0.625222 52.6632 0.850889 52.6641H40.1474C40.3731 52.6632 40.5893 52.5747 40.7487 52.4178C40.9081 52.261 40.9978 52.0486 40.9983 51.827V49.3139C40.9983 49.2033 40.976 49.0939 40.9328 48.9918C40.8896 48.8898 40.8262 48.7972 40.7464 48.7192L39.8955 47.8771C39.7342 47.7212 39.5163 47.6346 39.2899 47.6363V35.89C39.4021 35.8904 39.5133 35.8691 39.6171 35.8274C39.7209 35.7856 39.8153 35.7242 39.8949 35.6466C39.9746 35.569 40.0378 35.4768 40.0812 35.3752C40.1245 35.2736 40.147 35.1646 40.1475 35.0544C40.1479 34.9437 40.126 34.8341 40.0831 34.7317C40.0401 34.6293 39.977 34.5364 39.8973 34.4581C39.8176 34.3798 39.7228 34.3178 39.6186 34.2756C39.5144 34.2335 39.4027 34.212 39.2899 34.2124V5.6921C39.5164 5.69372 39.7342 5.60706 39.8955 5.45104L40.7464 4.60897C40.8265 4.53116 40.8902 4.4386 40.9337 4.33653C40.9772 4.23447 40.9998 4.12492 41 4.01427V1.49952C40.9991 1.27792 40.9089 1.06574 40.7492 0.909202C40.5895 0.752666 40.3731 0.664516 40.1475 0.664062L0.850889 0.664293ZM1.70843 2.33697H39.2899V3.66717L38.9379 4.0145H2.05545L1.70843 3.66717V2.33697ZM3.4185 5.6921H19.6416V34.2124H3.4185V5.6921ZM21.35 5.6921H37.5815V34.2124H21.35V5.6921ZM5.97776 7.36963C5.86558 7.37006 5.75459 7.39221 5.65112 7.43476C5.54764 7.47731 5.45372 7.53942 5.37471 7.61761C5.2957 7.69581 5.23315 7.78858 5.19063 7.89051C5.14811 7.99245 5.12645 8.10155 5.1269 8.2117V31.6977C5.12777 31.919 5.2177 32.131 5.37707 32.2875C5.53645 32.444 5.75236 32.5323 5.97776 32.5332C6.20316 32.5323 6.41907 32.444 6.57845 32.2875C6.73783 32.131 6.82775 31.919 6.82862 31.6977V8.2117C6.82907 8.10154 6.80741 7.99245 6.76489 7.89051C6.72237 7.78858 6.65982 7.69581 6.58081 7.61761C6.5018 7.53942 6.40788 7.47731 6.30441 7.43476C6.20093 7.39221 6.08994 7.37006 5.97776 7.36963ZM35.0222 7.36963C34.9094 7.36898 34.7975 7.39031 34.693 7.43238C34.5886 7.47444 34.4937 7.53639 34.4138 7.61469C34.3339 7.693 34.2706 7.78612 34.2276 7.88859C34.1845 7.99106 34.1626 8.10086 34.163 8.2117V31.6977C34.1635 31.808 34.1861 31.9171 34.2295 32.0188C34.2729 32.1205 34.3364 32.2129 34.4162 32.2905C34.496 32.3681 34.5906 32.4294 34.6946 32.4711C34.7986 32.5127 34.9099 32.5339 35.0222 32.5332C35.2476 32.5323 35.4636 32.444 35.6229 32.2875C35.7823 32.131 35.8722 31.919 35.8731 31.6977V8.2117C35.8736 8.10154 35.8519 7.99245 35.8094 7.89051C35.7669 7.78858 35.7043 7.69581 35.6253 7.61761C35.5463 7.53942 35.4524 7.47731 35.3489 7.43476C35.2454 7.39221 35.1344 7.37006 35.0222 7.36963ZM17.0824 18.2739C16.8558 18.2747 16.6389 18.3639 16.4793 18.5218C16.3198 18.6798 16.2306 18.8935 16.2315 19.1159V20.7935C16.2319 21.0151 16.3217 21.2275 16.4811 21.3844C16.6405 21.5412 16.8567 21.6297 17.0824 21.6306C17.1947 21.631 17.306 21.6097 17.4099 21.5679C17.5138 21.526 17.6083 21.4644 17.6879 21.3867C17.7676 21.3089 17.8309 21.2165 17.8741 21.1147C17.9173 21.0129 17.9397 20.9037 17.9399 20.7935V19.1159C17.9403 19.0052 17.9185 18.8955 17.8755 18.7931C17.8326 18.6908 17.7694 18.5978 17.6897 18.5195C17.61 18.4413 17.5153 18.3792 17.411 18.3371C17.3068 18.2949 17.1951 18.2734 17.0824 18.2739ZM23.9176 18.2739C23.8049 18.2734 23.6932 18.2949 23.589 18.3371C23.4847 18.3792 23.39 18.4413 23.3103 18.5195C23.2306 18.5978 23.1674 18.6908 23.1245 18.7931C23.0816 18.8955 23.0597 19.0052 23.0601 19.1159V20.7935C23.0603 20.9037 23.0827 21.0129 23.1259 21.1147C23.1692 21.2165 23.2324 21.3089 23.3121 21.3867C23.3917 21.4644 23.4862 21.526 23.5901 21.5679C23.694 21.6097 23.8053 21.631 23.9176 21.6306C24.1433 21.6297 24.3595 21.5412 24.5189 21.3844C24.6783 21.2275 24.7681 21.0151 24.7685 20.7935V19.1159C24.7694 18.8935 24.6802 18.6798 24.5207 18.5218C24.3611 18.3639 24.1442 18.2747 23.9176 18.2739ZM3.4185 35.89H19.6416V40.9243H3.4185V35.89ZM21.35 35.89H37.5815V40.9243H21.35V35.89ZM11.1046 37.5676C10.9919 37.5671 10.8802 37.5886 10.7759 37.6308C10.6717 37.6729 10.577 37.735 10.4973 37.8132C10.4176 37.8915 10.3544 37.9845 10.3115 38.0868C10.2685 38.1892 10.2467 38.2989 10.2471 38.4096C10.2475 38.5198 10.2701 38.6287 10.3134 38.7304C10.3567 38.832 10.42 38.9242 10.4996 39.0018C10.5793 39.0794 10.6737 39.1408 10.7775 39.1826C10.8813 39.2243 10.9925 39.2456 11.1046 39.2452H11.9555C12.0677 39.2456 12.1788 39.2243 12.2826 39.1826C12.3865 39.1408 12.4809 39.0794 12.5605 39.0018C12.6401 38.9242 12.7034 38.832 12.7467 38.7304C12.7901 38.6287 12.8126 38.5198 12.813 38.4096C12.8135 38.2989 12.7916 38.1892 12.7487 38.0868C12.7057 37.9845 12.6426 37.8915 12.5629 37.8132C12.4831 37.735 12.3884 37.6729 12.2842 37.6308C12.1799 37.5886 12.0682 37.5671 11.9555 37.5676H11.1046ZM29.0445 37.5676C28.9316 37.5669 28.8197 37.5882 28.7153 37.6303C28.6109 37.6724 28.516 37.7343 28.4361 37.8126C28.3562 37.8909 28.2929 37.984 28.2498 38.0864C28.2068 38.1889 28.1849 38.2988 28.1853 38.4096C28.1857 38.5199 28.2083 38.629 28.2518 38.7307C28.2952 38.8325 28.3586 38.9247 28.4384 39.0023C28.5182 39.0799 28.6129 39.1414 28.7169 39.183C28.8209 39.2247 28.9322 39.2458 29.0445 39.2452H29.8954C30.0076 39.2456 30.1187 39.2243 30.2225 39.1825C30.3263 39.1407 30.4207 39.0794 30.5004 39.0018C30.58 38.9242 30.6433 38.832 30.6866 38.7304C30.7299 38.6287 30.7525 38.5198 30.7529 38.4096C30.7534 38.2989 30.7315 38.1892 30.6885 38.0868C30.6456 37.9845 30.5825 37.8915 30.5027 37.8132C30.423 37.735 30.3283 37.6729 30.2241 37.6308C30.1198 37.5886 30.0081 37.5671 29.8954 37.5676H29.0445ZM3.4185 42.6019H37.5815V47.6363H3.4185V42.6019ZM11.108 44.2794C10.8814 44.2786 10.6638 44.3661 10.503 44.5228C10.3422 44.6795 10.2513 44.8925 10.2504 45.115C10.25 45.2257 10.2719 45.3353 10.3148 45.4377C10.3577 45.5401 10.4209 45.6331 10.5006 45.7114C10.5803 45.7896 10.675 45.8516 10.7793 45.8937C10.8835 45.9359 10.9952 45.9575 11.108 45.957H11.9588C12.071 45.9566 12.182 45.9345 12.2855 45.8919C12.3889 45.8494 12.4829 45.7872 12.5619 45.709C12.6409 45.6308 12.7034 45.5381 12.746 45.4362C12.7885 45.3342 12.8101 45.2251 12.8097 45.115C12.8088 44.8936 12.7189 44.6816 12.5595 44.5251C12.4001 44.3686 12.1842 44.2803 11.9588 44.2794H11.108ZM29.0445 44.2794C28.9322 44.2788 28.8209 44.2999 28.7169 44.3416C28.6129 44.3832 28.5183 44.4446 28.4385 44.5222C28.3586 44.5998 28.2952 44.6922 28.2518 44.7939C28.2083 44.8956 28.1857 45.0047 28.1853 45.115C28.1849 45.2258 28.2068 45.3356 28.2498 45.4381C28.2929 45.5405 28.3562 45.6336 28.4361 45.7119C28.516 45.7902 28.6109 45.8522 28.7153 45.8943C28.8197 45.9364 28.9316 45.9577 29.0445 45.957H29.8954C30.0081 45.9575 30.1198 45.9359 30.2241 45.8937C30.3283 45.8516 30.423 45.7896 30.5027 45.7114C30.5825 45.6331 30.6456 45.5401 30.6885 45.4377C30.7315 45.3353 30.7534 45.2257 30.7529 45.115C30.752 44.8925 30.6612 44.6795 30.5004 44.5228C30.3395 44.3661 30.1219 44.2786 29.8954 44.2794H29.0445ZM2.05545 49.3138H38.9379L39.2899 49.6595V50.9914H1.70843V49.6595L2.05545 49.3138Z" fill="white"/>
</svg>
