<svg width="40" height="40" viewBox="0 0 40 40" fill="none" xmlns="http://www.w3.org/2000/svg">
<path d="M3.33203 10C4.33203 10.8334 5.33203 11.6667 7.4987 11.6667C11.6654 11.6667 11.6654 8.33337 15.832 8.33337C17.9987 8.33337 18.9987 9.16671 19.9987 10C20.9987 10.8334 21.9987 11.6667 24.1654 11.6667C28.332 11.6667 28.332 8.33337 32.4987 8.33337C34.6654 8.33337 35.6654 9.16671 36.6654 10M3.33203 30C4.33203 30.8334 5.33203 31.6667 7.4987 31.6667C11.6654 31.6667 11.6654 28.3334 15.832 28.3334C17.9987 28.3334 18.9987 29.1667 19.9987 30C20.9987 30.8334 21.9987 31.6667 24.1654 31.6667C28.332 31.6667 28.332 28.3334 32.4987 28.3334C34.6654 28.3334 35.6654 29.1667 36.6654 30M3.33203 20C4.33203 20.8334 5.33203 21.6667 7.4987 21.6667C11.6654 21.6667 11.6654 18.3334 15.832 18.3334C17.9987 18.3334 18.9987 19.1667 19.9987 20C20.9987 20.8334 21.9987 21.6667 24.1654 21.6667C28.332 21.6667 28.332 18.3334 32.4987 18.3334C34.6654 18.3334 35.6654 19.1667 36.6654 20" stroke="#2D6FD0" stroke-width="2" stroke-linecap="round" stroke-linejoin="round"/>
</svg>
