<svg width="289" height="197" viewBox="0 0 289 197" fill="none" xmlns="http://www.w3.org/2000/svg">
<path d="M21 27L21 183" stroke="#F5F6F7"/>
<path d="M87 27L87 183" stroke="#F5F6F7"/>
<path d="M153 27L153 183" stroke="#F5F6F7"/>
<path d="M219 27L219 183" stroke="#F5F6F7"/>
<path d="M286 26L286 183" stroke="#F5F6F7"/>
<path d="M22 182H286" stroke="#F5F6F7"/>
<path d="M22 157H286" stroke="#F5F6F7"/>
<path d="M21 131L286 131" stroke="#F5F6F7"/>
<path d="M21 105L286 105" stroke="#F5F6F7"/>
<path d="M21 78L286 78" stroke="#F5F6F7"/>
<path d="M21 52L286 52" stroke="#F5F6F7"/>
<path d="M21 26L286 26" stroke="#F5F6F7"/>
<path d="M21 182L286 182" stroke="#F5F6F7"/>
<path d="M21 26L21 183" stroke="#F5F6F7"/>
<path d="M12.4018 195V194.592L14.7298 192.312C14.9432 192.104 15.1032 191.923 15.2098 191.768C15.3165 191.608 15.3885 191.459 15.4258 191.32C15.4632 191.181 15.4818 191.051 15.4818 190.928C15.4818 190.603 15.3698 190.347 15.1458 190.16C14.9272 189.973 14.6018 189.88 14.1698 189.88C13.8392 189.88 13.5458 189.931 13.2898 190.032C13.0392 190.133 12.8232 190.291 12.6418 190.504L12.2338 190.152C12.4525 189.896 12.7325 189.699 13.0738 189.56C13.4152 189.421 13.7965 189.352 14.2178 189.352C14.5965 189.352 14.9245 189.413 15.2018 189.536C15.4792 189.653 15.6925 189.827 15.8418 190.056C15.9965 190.285 16.0738 190.555 16.0738 190.864C16.0738 191.045 16.0472 191.224 15.9938 191.4C15.9458 191.576 15.8552 191.763 15.7218 191.96C15.5938 192.152 15.4045 192.371 15.1538 192.616L13.0178 194.712L12.8578 194.488H16.3298V195H12.4018ZM19.2691 195.048C18.8371 195.048 18.4531 194.936 18.1171 194.712C17.7811 194.483 17.5171 194.157 17.3251 193.736C17.1331 193.309 17.0371 192.797 17.0371 192.2C17.0371 191.603 17.1331 191.093 17.3251 190.672C17.5171 190.245 17.7811 189.92 18.1171 189.696C18.4531 189.467 18.8371 189.352 19.2691 189.352C19.7011 189.352 20.0851 189.467 20.4211 189.696C20.7571 189.92 21.0211 190.245 21.2131 190.672C21.4104 191.093 21.5091 191.603 21.5091 192.2C21.5091 192.797 21.4104 193.309 21.2131 193.736C21.0211 194.157 20.7571 194.483 20.4211 194.712C20.0851 194.936 19.7011 195.048 19.2691 195.048ZM19.2691 194.52C19.5998 194.52 19.8878 194.432 20.1331 194.256C20.3784 194.075 20.5704 193.813 20.7091 193.472C20.8478 193.125 20.9171 192.701 20.9171 192.2C20.9171 191.699 20.8478 191.277 20.7091 190.936C20.5704 190.589 20.3784 190.328 20.1331 190.152C19.8878 189.971 19.5998 189.88 19.2691 189.88C18.9491 189.88 18.6638 189.971 18.4131 190.152C18.1624 190.328 17.9678 190.589 17.8291 190.936C17.6904 191.277 17.6211 191.699 17.6211 192.2C17.6211 192.701 17.6904 193.125 17.8291 193.472C17.9678 193.813 18.1624 194.075 18.4131 194.256C18.6638 194.432 18.9491 194.52 19.2691 194.52ZM23.31 195V189.64L23.566 189.912H21.99V189.4H23.886V195H23.31ZM27.3526 195.048C26.9046 195.048 26.5179 194.984 26.1926 194.856C25.8726 194.728 25.6246 194.544 25.4486 194.304C25.2779 194.059 25.1926 193.771 25.1926 193.44C25.1926 193.12 25.2753 192.848 25.4406 192.624C25.6113 192.395 25.8566 192.219 26.1766 192.096C26.5019 191.973 26.8939 191.912 27.3526 191.912C27.8059 191.912 28.1953 191.973 28.5206 192.096C28.8459 192.219 29.0939 192.395 29.2646 192.624C29.4406 192.848 29.5286 193.12 29.5286 193.44C29.5286 193.771 29.4406 194.059 29.2646 194.304C29.0886 194.544 28.8379 194.728 28.5126 194.856C28.1873 194.984 27.8006 195.048 27.3526 195.048ZM27.3526 194.56C27.8486 194.56 28.2353 194.459 28.5126 194.256C28.7953 194.053 28.9366 193.779 28.9366 193.432C28.9366 193.085 28.7953 192.813 28.5126 192.616C28.2353 192.413 27.8486 192.312 27.3526 192.312C26.8566 192.312 26.4699 192.413 26.1926 192.616C25.9153 192.813 25.7766 193.085 25.7766 193.432C25.7766 193.779 25.9153 194.053 26.1926 194.256C26.4699 194.459 26.8566 194.56 27.3526 194.56ZM27.3526 192.24C26.9366 192.24 26.5819 192.184 26.2886 192.072C26.0006 191.96 25.7793 191.8 25.6246 191.592C25.4699 191.379 25.3926 191.125 25.3926 190.832C25.3926 190.523 25.4726 190.259 25.6326 190.04C25.7979 189.816 26.0273 189.645 26.3206 189.528C26.6139 189.411 26.9579 189.352 27.3526 189.352C27.7473 189.352 28.0913 189.411 28.3846 189.528C28.6833 189.645 28.9153 189.816 29.0806 190.04C29.2459 190.259 29.3286 190.523 29.3286 190.832C29.3286 191.125 29.2513 191.379 29.0966 191.592C28.9419 191.8 28.7153 191.96 28.4166 192.072C28.1233 192.184 27.7686 192.24 27.3526 192.24ZM27.3526 191.856C27.7899 191.856 28.1313 191.765 28.3766 191.584C28.6219 191.403 28.7446 191.16 28.7446 190.856C28.7446 190.536 28.6166 190.288 28.3606 190.112C28.1099 189.931 27.7739 189.84 27.3526 189.84C26.9313 189.84 26.5953 189.931 26.3446 190.112C26.0939 190.288 25.9686 190.533 25.9686 190.848C25.9686 191.157 26.0886 191.403 26.3286 191.584C26.5739 191.765 26.9153 191.856 27.3526 191.856Z" fill="#DEE2E7"/>
<path d="M78.5151 195V194.592L80.8431 192.312C81.0565 192.104 81.2165 191.923 81.3231 191.768C81.4298 191.608 81.5018 191.459 81.5391 191.32C81.5765 191.181 81.5951 191.051 81.5951 190.928C81.5951 190.603 81.4831 190.347 81.2591 190.16C81.0405 189.973 80.7151 189.88 80.2831 189.88C79.9525 189.88 79.6591 189.931 79.4031 190.032C79.1525 190.133 78.9365 190.291 78.7551 190.504L78.3471 190.152C78.5658 189.896 78.8458 189.699 79.1871 189.56C79.5285 189.421 79.9098 189.352 80.3311 189.352C80.7098 189.352 81.0378 189.413 81.3151 189.536C81.5925 189.653 81.8058 189.827 81.9551 190.056C82.1098 190.285 82.1871 190.555 82.1871 190.864C82.1871 191.045 82.1605 191.224 82.1071 191.4C82.0591 191.576 81.9685 191.763 81.8351 191.96C81.7071 192.152 81.5178 192.371 81.2671 192.616L79.1311 194.712L78.9711 194.488H82.4431V195H78.5151ZM85.3824 195.048C84.9504 195.048 84.5664 194.936 84.2304 194.712C83.8944 194.483 83.6304 194.157 83.4384 193.736C83.2464 193.309 83.1504 192.797 83.1504 192.2C83.1504 191.603 83.2464 191.093 83.4384 190.672C83.6304 190.245 83.8944 189.92 84.2304 189.696C84.5664 189.467 84.9504 189.352 85.3824 189.352C85.8144 189.352 86.1984 189.467 86.5344 189.696C86.8704 189.92 87.1344 190.245 87.3264 190.672C87.5237 191.093 87.6224 191.603 87.6224 192.2C87.6224 192.797 87.5237 193.309 87.3264 193.736C87.1344 194.157 86.8704 194.483 86.5344 194.712C86.1984 194.936 85.8144 195.048 85.3824 195.048ZM85.3824 194.52C85.713 194.52 86.001 194.432 86.2464 194.256C86.4917 194.075 86.6837 193.813 86.8224 193.472C86.961 193.125 87.0304 192.701 87.0304 192.2C87.0304 191.699 86.961 191.277 86.8224 190.936C86.6837 190.589 86.4917 190.328 86.2464 190.152C86.001 189.971 85.713 189.88 85.3824 189.88C85.0624 189.88 84.777 189.971 84.5264 190.152C84.2757 190.328 84.081 190.589 83.9424 190.936C83.8037 191.277 83.7344 191.699 83.7344 192.2C83.7344 192.701 83.8037 193.125 83.9424 193.472C84.081 193.813 84.2757 194.075 84.5264 194.256C84.777 194.432 85.0624 194.52 85.3824 194.52ZM89.4233 195V189.64L89.6793 189.912H88.1033V189.4H89.9993V195H89.4233ZM93.0819 189.352C93.5779 189.352 93.9965 189.464 94.3379 189.688C94.6792 189.907 94.9379 190.224 95.1139 190.64C95.2899 191.056 95.3779 191.56 95.3779 192.152C95.3779 192.781 95.2685 193.312 95.0499 193.744C94.8365 194.176 94.5379 194.501 94.1539 194.72C93.7699 194.939 93.3245 195.048 92.8179 195.048C92.5672 195.048 92.3272 195.024 92.0979 194.976C91.8739 194.928 91.6712 194.851 91.4899 194.744L91.7219 194.28C91.8659 194.376 92.0312 194.445 92.2179 194.488C92.4099 194.525 92.6072 194.544 92.8099 194.544C93.4125 194.544 93.8925 194.352 94.2499 193.968C94.6125 193.584 94.7939 193.011 94.7939 192.248C94.7939 192.125 94.7859 191.979 94.7699 191.808C94.7592 191.637 94.7299 191.467 94.6819 191.296L94.8819 191.448C94.8285 191.725 94.7139 191.963 94.5379 192.16C94.3672 192.352 94.1539 192.499 93.8979 192.6C93.6472 192.701 93.3672 192.752 93.0579 192.752C92.6899 192.752 92.3619 192.683 92.0739 192.544C91.7912 192.405 91.5699 192.211 91.4099 191.96C91.2499 191.709 91.1699 191.413 91.1699 191.072C91.1699 190.72 91.2525 190.416 91.4179 190.16C91.5832 189.904 91.8099 189.707 92.0979 189.568C92.3912 189.424 92.7192 189.352 93.0819 189.352ZM93.1059 189.84C92.8392 189.84 92.6019 189.891 92.3939 189.992C92.1912 190.088 92.0312 190.227 91.9139 190.408C91.7965 190.589 91.7379 190.805 91.7379 191.056C91.7379 191.424 91.8632 191.717 92.1139 191.936C92.3699 192.155 92.7139 192.264 93.1459 192.264C93.4339 192.264 93.6845 192.211 93.8979 192.104C94.1165 191.997 94.2845 191.851 94.4019 191.664C94.5245 191.477 94.5859 191.269 94.5859 191.04C94.5859 190.832 94.5299 190.637 94.4179 190.456C94.3059 190.275 94.1405 190.128 93.9219 190.016C93.7032 189.899 93.4312 189.84 93.1059 189.84Z" fill="#DEE2E7"/>
<path d="M143.484 195V194.592L145.812 192.312C146.025 192.104 146.185 191.923 146.292 191.768C146.399 191.608 146.471 191.459 146.508 191.32C146.545 191.181 146.564 191.051 146.564 190.928C146.564 190.603 146.452 190.347 146.228 190.16C146.009 189.973 145.684 189.88 145.252 189.88C144.921 189.88 144.628 189.931 144.372 190.032C144.121 190.133 143.905 190.291 143.724 190.504L143.316 190.152C143.535 189.896 143.815 189.699 144.156 189.56C144.497 189.421 144.879 189.352 145.3 189.352C145.679 189.352 146.007 189.413 146.284 189.536C146.561 189.653 146.775 189.827 146.924 190.056C147.079 190.285 147.156 190.555 147.156 190.864C147.156 191.045 147.129 191.224 147.076 191.4C147.028 191.576 146.937 191.763 146.804 191.96C146.676 192.152 146.487 192.371 146.236 192.616L144.1 194.712L143.94 194.488H147.412V195H143.484ZM150.351 195.048C149.919 195.048 149.535 194.936 149.199 194.712C148.863 194.483 148.599 194.157 148.407 193.736C148.215 193.309 148.119 192.797 148.119 192.2C148.119 191.603 148.215 191.093 148.407 190.672C148.599 190.245 148.863 189.92 149.199 189.696C149.535 189.467 149.919 189.352 150.351 189.352C150.783 189.352 151.167 189.467 151.503 189.696C151.839 189.92 152.103 190.245 152.295 190.672C152.492 191.093 152.591 191.603 152.591 192.2C152.591 192.797 152.492 193.309 152.295 193.736C152.103 194.157 151.839 194.483 151.503 194.712C151.167 194.936 150.783 195.048 150.351 195.048ZM150.351 194.52C150.682 194.52 150.97 194.432 151.215 194.256C151.46 194.075 151.652 193.813 151.791 193.472C151.93 193.125 151.999 192.701 151.999 192.2C151.999 191.699 151.93 191.277 151.791 190.936C151.652 190.589 151.46 190.328 151.215 190.152C150.97 189.971 150.682 189.88 150.351 189.88C150.031 189.88 149.746 189.971 149.495 190.152C149.244 190.328 149.05 190.589 148.911 190.936C148.772 191.277 148.703 191.699 148.703 192.2C148.703 192.701 148.772 193.125 148.911 193.472C149.05 193.813 149.244 194.075 149.495 194.256C149.746 194.432 150.031 194.52 150.351 194.52ZM153.312 195V194.592L155.64 192.312C155.853 192.104 156.013 191.923 156.12 191.768C156.227 191.608 156.299 191.459 156.336 191.32C156.373 191.181 156.392 191.051 156.392 190.928C156.392 190.603 156.28 190.347 156.056 190.16C155.837 189.973 155.512 189.88 155.08 189.88C154.749 189.88 154.456 189.931 154.2 190.032C153.949 190.133 153.733 190.291 153.552 190.504L153.144 190.152C153.363 189.896 153.643 189.699 153.984 189.56C154.325 189.421 154.707 189.352 155.128 189.352C155.507 189.352 155.835 189.413 156.112 189.536C156.389 189.653 156.603 189.827 156.752 190.056C156.907 190.285 156.984 190.555 156.984 190.864C156.984 191.045 156.957 191.224 156.904 191.4C156.856 191.576 156.765 191.763 156.632 191.96C156.504 192.152 156.315 192.371 156.064 192.616L153.928 194.712L153.768 194.488H157.24V195H153.312ZM160.179 195.048C159.747 195.048 159.363 194.936 159.027 194.712C158.691 194.483 158.427 194.157 158.235 193.736C158.043 193.309 157.947 192.797 157.947 192.2C157.947 191.603 158.043 191.093 158.235 190.672C158.427 190.245 158.691 189.92 159.027 189.696C159.363 189.467 159.747 189.352 160.179 189.352C160.611 189.352 160.995 189.467 161.331 189.696C161.667 189.92 161.931 190.245 162.123 190.672C162.321 191.093 162.419 191.603 162.419 192.2C162.419 192.797 162.321 193.309 162.123 193.736C161.931 194.157 161.667 194.483 161.331 194.712C160.995 194.936 160.611 195.048 160.179 195.048ZM160.179 194.52C160.51 194.52 160.798 194.432 161.043 194.256C161.289 194.075 161.481 193.813 161.619 193.472C161.758 193.125 161.827 192.701 161.827 192.2C161.827 191.699 161.758 191.277 161.619 190.936C161.481 190.589 161.289 190.328 161.043 190.152C160.798 189.971 160.51 189.88 160.179 189.88C159.859 189.88 159.574 189.971 159.323 190.152C159.073 190.328 158.878 190.589 158.739 190.936C158.601 191.277 158.531 191.699 158.531 192.2C158.531 192.701 158.601 193.125 158.739 193.472C158.878 193.813 159.073 194.075 159.323 194.256C159.574 194.432 159.859 194.52 160.179 194.52Z" fill="#DEE2E7"/>
<path d="M210.679 195V194.592L213.007 192.312C213.221 192.104 213.381 191.923 213.487 191.768C213.594 191.608 213.666 191.459 213.703 191.32C213.741 191.181 213.759 191.051 213.759 190.928C213.759 190.603 213.647 190.347 213.423 190.16C213.205 189.973 212.879 189.88 212.447 189.88C212.117 189.88 211.823 189.931 211.567 190.032C211.317 190.133 211.101 190.291 210.919 190.504L210.511 190.152C210.73 189.896 211.01 189.699 211.351 189.56C211.693 189.421 212.074 189.352 212.495 189.352C212.874 189.352 213.202 189.413 213.479 189.536C213.757 189.653 213.97 189.827 214.119 190.056C214.274 190.285 214.351 190.555 214.351 190.864C214.351 191.045 214.325 191.224 214.271 191.4C214.223 191.576 214.133 191.763 213.999 191.96C213.871 192.152 213.682 192.371 213.431 192.616L211.295 194.712L211.135 194.488H214.607V195H210.679ZM217.546 195.048C217.114 195.048 216.73 194.936 216.394 194.712C216.058 194.483 215.794 194.157 215.602 193.736C215.41 193.309 215.314 192.797 215.314 192.2C215.314 191.603 215.41 191.093 215.602 190.672C215.794 190.245 216.058 189.92 216.394 189.696C216.73 189.467 217.114 189.352 217.546 189.352C217.978 189.352 218.362 189.467 218.698 189.696C219.034 189.92 219.298 190.245 219.49 190.672C219.688 191.093 219.786 191.603 219.786 192.2C219.786 192.797 219.688 193.309 219.49 193.736C219.298 194.157 219.034 194.483 218.698 194.712C218.362 194.936 217.978 195.048 217.546 195.048ZM217.546 194.52C217.877 194.52 218.165 194.432 218.41 194.256C218.656 194.075 218.848 193.813 218.986 193.472C219.125 193.125 219.194 192.701 219.194 192.2C219.194 191.699 219.125 191.277 218.986 190.936C218.848 190.589 218.656 190.328 218.41 190.152C218.165 189.971 217.877 189.88 217.546 189.88C217.226 189.88 216.941 189.971 216.69 190.152C216.44 190.328 216.245 190.589 216.106 190.936C215.968 191.277 215.898 191.699 215.898 192.2C215.898 192.701 215.968 193.125 216.106 193.472C216.245 193.813 216.44 194.075 216.69 194.256C216.941 194.432 217.226 194.52 217.546 194.52ZM220.507 195V194.592L222.835 192.312C223.049 192.104 223.209 191.923 223.315 191.768C223.422 191.608 223.494 191.459 223.531 191.32C223.569 191.181 223.587 191.051 223.587 190.928C223.587 190.603 223.475 190.347 223.251 190.16C223.033 189.973 222.707 189.88 222.275 189.88C221.945 189.88 221.651 189.931 221.395 190.032C221.145 190.133 220.929 190.291 220.747 190.504L220.339 190.152C220.558 189.896 220.838 189.699 221.179 189.56C221.521 189.421 221.902 189.352 222.323 189.352C222.702 189.352 223.03 189.413 223.307 189.536C223.585 189.653 223.798 189.827 223.947 190.056C224.102 190.285 224.179 190.555 224.179 190.864C224.179 191.045 224.153 191.224 224.099 191.4C224.051 191.576 223.961 191.763 223.827 191.96C223.699 192.152 223.51 192.371 223.259 192.616L221.123 194.712L220.963 194.488H224.435V195H220.507ZM226.134 195V189.64L226.39 189.912H224.814V189.4H226.71V195H226.134Z" fill="#DEE2E7"/>
<path d="M270.351 195V194.592L272.679 192.312C272.892 192.104 273.052 191.923 273.159 191.768C273.266 191.608 273.338 191.459 273.375 191.32C273.412 191.181 273.431 191.051 273.431 190.928C273.431 190.603 273.319 190.347 273.095 190.16C272.876 189.973 272.551 189.88 272.119 189.88C271.788 189.88 271.495 189.931 271.239 190.032C270.988 190.133 270.772 190.291 270.591 190.504L270.183 190.152C270.402 189.896 270.682 189.699 271.023 189.56C271.364 189.421 271.746 189.352 272.167 189.352C272.546 189.352 272.874 189.413 273.151 189.536C273.428 189.653 273.642 189.827 273.791 190.056C273.946 190.285 274.023 190.555 274.023 190.864C274.023 191.045 273.996 191.224 273.943 191.4C273.895 191.576 273.804 191.763 273.671 191.96C273.543 192.152 273.354 192.371 273.103 192.616L270.967 194.712L270.807 194.488H274.279V195H270.351ZM277.218 195.048C276.786 195.048 276.402 194.936 276.066 194.712C275.73 194.483 275.466 194.157 275.274 193.736C275.082 193.309 274.986 192.797 274.986 192.2C274.986 191.603 275.082 191.093 275.274 190.672C275.466 190.245 275.73 189.92 276.066 189.696C276.402 189.467 276.786 189.352 277.218 189.352C277.65 189.352 278.034 189.467 278.37 189.696C278.706 189.92 278.97 190.245 279.162 190.672C279.36 191.093 279.458 191.603 279.458 192.2C279.458 192.797 279.36 193.309 279.162 193.736C278.97 194.157 278.706 194.483 278.37 194.712C278.034 194.936 277.65 195.048 277.218 195.048ZM277.218 194.52C277.549 194.52 277.837 194.432 278.082 194.256C278.328 194.075 278.52 193.813 278.658 193.472C278.797 193.125 278.866 192.701 278.866 192.2C278.866 191.699 278.797 191.277 278.658 190.936C278.52 190.589 278.328 190.328 278.082 190.152C277.837 189.971 277.549 189.88 277.218 189.88C276.898 189.88 276.613 189.971 276.362 190.152C276.112 190.328 275.917 190.589 275.778 190.936C275.64 191.277 275.57 191.699 275.57 192.2C275.57 192.701 275.64 193.125 275.778 193.472C275.917 193.813 276.112 194.075 276.362 194.256C276.613 194.432 276.898 194.52 277.218 194.52ZM280.179 195V194.592L282.507 192.312C282.721 192.104 282.881 191.923 282.987 191.768C283.094 191.608 283.166 191.459 283.203 191.32C283.241 191.181 283.259 191.051 283.259 190.928C283.259 190.603 283.147 190.347 282.923 190.16C282.705 189.973 282.379 189.88 281.947 189.88C281.617 189.88 281.323 189.931 281.067 190.032C280.817 190.133 280.601 190.291 280.419 190.504L280.011 190.152C280.23 189.896 280.51 189.699 280.851 189.56C281.193 189.421 281.574 189.352 281.995 189.352C282.374 189.352 282.702 189.413 282.979 189.536C283.257 189.653 283.47 189.827 283.619 190.056C283.774 190.285 283.851 190.555 283.851 190.864C283.851 191.045 283.825 191.224 283.771 191.4C283.723 191.576 283.633 191.763 283.499 191.96C283.371 192.152 283.182 192.371 282.931 192.616L280.795 194.712L280.635 194.488H284.107V195H280.179ZM284.726 195V194.592L287.054 192.312C287.267 192.104 287.427 191.923 287.534 191.768C287.641 191.608 287.713 191.459 287.75 191.32C287.787 191.181 287.806 191.051 287.806 190.928C287.806 190.603 287.694 190.347 287.47 190.16C287.251 189.973 286.926 189.88 286.494 189.88C286.163 189.88 285.87 189.931 285.614 190.032C285.363 190.133 285.147 190.291 284.966 190.504L284.558 190.152C284.777 189.896 285.057 189.699 285.398 189.56C285.739 189.421 286.121 189.352 286.542 189.352C286.921 189.352 287.249 189.413 287.526 189.536C287.803 189.653 288.017 189.827 288.166 190.056C288.321 190.285 288.398 190.555 288.398 190.864C288.398 191.045 288.371 191.224 288.318 191.4C288.27 191.576 288.179 191.763 288.046 191.96C287.918 192.152 287.729 192.371 287.478 192.616L285.342 194.712L285.182 194.488H288.654V195H284.726Z" fill="#DEE2E7"/>
<path d="M5.92581 184.504V185H3.27781V184.504H4.35781V179.856C4.30981 179.92 4.23781 179.992 4.14181 180.072C4.05115 180.147 3.94448 180.221 3.82181 180.296C3.69915 180.365 3.57381 180.424 3.44581 180.472C3.31781 180.52 3.20048 180.544 3.09381 180.544V180.032C3.23781 180.032 3.38181 179.995 3.52581 179.92C3.66981 179.84 3.80315 179.752 3.92581 179.656C4.05381 179.555 4.15515 179.464 4.22981 179.384C4.30981 179.299 4.35248 179.253 4.35781 179.248H4.90981V184.504H5.92581ZM8.22994 185.08C7.8246 185.08 7.45927 184.981 7.13394 184.784C6.81394 184.581 6.57127 184.315 6.40594 183.984L6.77394 183.712C6.91794 183.973 7.1206 184.184 7.38194 184.344C7.64327 184.504 7.9286 184.584 8.23794 184.584C8.5046 184.584 8.74194 184.525 8.94994 184.408C9.16327 184.291 9.33127 184.131 9.45394 183.928C9.58194 183.72 9.64594 183.48 9.64594 183.208C9.64594 182.947 9.5846 182.717 9.46194 182.52C9.33927 182.317 9.1766 182.16 8.97394 182.048C8.77127 181.931 8.54194 181.872 8.28594 181.872C8.0406 181.872 7.80594 181.928 7.58194 182.04C7.35794 182.152 7.1766 182.309 7.03794 182.512H6.52594L7.16594 179.32H9.90994V179.824H7.57394L7.17394 181.864C7.3126 181.715 7.48327 181.6 7.68594 181.52C7.89394 181.435 8.11527 181.392 8.34994 181.392C8.6966 181.392 9.0086 181.469 9.28594 181.624C9.5686 181.779 9.78994 181.992 9.94994 182.264C10.1153 182.531 10.1979 182.843 10.1979 183.2C10.1979 183.568 10.1099 183.896 9.93394 184.184C9.75794 184.467 9.5206 184.688 9.22194 184.848C8.9286 185.003 8.59794 185.08 8.22994 185.08ZM13.2673 185.08C12.8833 185.069 12.5446 184.976 12.2513 184.8C11.9579 184.624 11.7126 184.395 11.5153 184.112C11.3179 183.824 11.1686 183.515 11.0673 183.184C10.9659 182.848 10.9153 182.52 10.9153 182.2C10.9153 181.859 10.9686 181.517 11.0753 181.176C11.1873 180.835 11.3446 180.525 11.5473 180.248C11.7553 179.965 12.0033 179.741 12.2913 179.576C12.5793 179.405 12.9046 179.32 13.2673 179.32C13.6566 179.32 13.9953 179.411 14.2833 179.592C14.5766 179.773 14.8219 180.008 15.0193 180.296C15.2166 180.584 15.3633 180.896 15.4593 181.232C15.5606 181.568 15.6113 181.891 15.6113 182.2C15.6113 182.547 15.5553 182.891 15.4433 183.232C15.3366 183.568 15.1819 183.875 14.9793 184.152C14.7766 184.429 14.5286 184.653 14.2353 184.824C13.9473 184.989 13.6246 185.075 13.2673 185.08ZM11.4833 182.2C11.4939 182.477 11.5366 182.757 11.6113 183.04C11.6913 183.317 11.8059 183.573 11.9553 183.808C12.1046 184.037 12.2859 184.224 12.4993 184.368C12.7179 184.507 12.9739 184.576 13.2673 184.576C13.5659 184.576 13.8273 184.501 14.0513 184.352C14.2753 184.203 14.4593 184.008 14.6033 183.768C14.7526 183.523 14.8646 183.264 14.9392 182.992C15.0139 182.715 15.0512 182.451 15.0512 182.2C15.0512 181.923 15.0113 181.645 14.9313 181.368C14.8513 181.085 14.7339 180.829 14.5793 180.6C14.4246 180.365 14.2379 180.179 14.0193 180.04C13.8006 179.896 13.5499 179.824 13.2673 179.824C12.9633 179.824 12.6993 179.901 12.4753 180.056C12.2513 180.205 12.0646 180.4 11.9153 180.64C11.7713 180.88 11.6619 181.139 11.5872 181.416C11.5179 181.688 11.4833 181.949 11.4833 182.2Z" fill="#DEE2E7"/>
<path d="M5.55081 158.504V159H2.90281V158.504H3.98281V153.856C3.93481 153.92 3.86281 153.992 3.76681 154.072C3.67615 154.147 3.56948 154.221 3.44681 154.296C3.32415 154.365 3.19881 154.424 3.07081 154.472C2.94281 154.52 2.82548 154.544 2.71881 154.544V154.032C2.86281 154.032 3.00681 153.995 3.15081 153.92C3.29481 153.84 3.42815 153.752 3.55081 153.656C3.67881 153.555 3.78015 153.464 3.85481 153.384C3.93481 153.299 3.97748 153.253 3.98281 153.248H4.53481V158.504H5.55081ZM10.1829 157.128C10.1829 157.485 10.0923 157.813 9.91094 158.112C9.73494 158.405 9.49494 158.64 9.19094 158.816C8.88694 158.992 8.5456 159.08 8.16694 159.08C7.77227 159.08 7.42027 158.987 7.11094 158.8C6.80694 158.608 6.56694 158.333 6.39094 157.976C6.21494 157.619 6.12694 157.195 6.12694 156.704C6.12694 155.931 6.21494 155.293 6.39094 154.792C6.56694 154.285 6.81227 153.907 7.12694 153.656C7.4416 153.405 7.80694 153.28 8.22294 153.28C8.6016 153.28 8.94027 153.376 9.23894 153.568C9.5376 153.755 9.76427 154.011 9.91894 154.336L9.56694 154.656C9.45494 154.384 9.27627 154.168 9.03094 154.008C8.79094 153.843 8.5216 153.76 8.22294 153.76C7.90827 153.76 7.6336 153.859 7.39894 154.056C7.16427 154.253 6.98027 154.536 6.84694 154.904C6.71894 155.272 6.65494 155.717 6.65494 156.24C6.73494 156.032 6.85227 155.851 7.00694 155.696C7.1616 155.541 7.34294 155.421 7.55094 155.336C7.76427 155.251 7.99094 155.208 8.23094 155.208C8.5936 155.208 8.9216 155.293 9.21494 155.464C9.5136 155.635 9.74827 155.867 9.91894 156.16C10.0949 156.448 10.1829 156.771 10.1829 157.128ZM8.18294 158.6C8.4496 158.6 8.69494 158.533 8.91894 158.4C9.14294 158.267 9.3216 158.088 9.45494 157.864C9.5936 157.64 9.66294 157.395 9.66294 157.128C9.66294 156.861 9.5936 156.616 9.45494 156.392C9.3216 156.168 9.14294 155.989 8.91894 155.856C8.69494 155.723 8.4496 155.656 8.18294 155.656C7.91094 155.656 7.66027 155.723 7.43094 155.856C7.20694 155.989 7.02827 156.168 6.89494 156.392C6.7616 156.611 6.69494 156.856 6.69494 157.128C6.69494 157.395 6.7616 157.64 6.89494 157.864C7.0336 158.088 7.21494 158.267 7.43894 158.4C7.66294 158.533 7.91094 158.6 8.18294 158.6ZM13.2673 159.08C12.8833 159.069 12.5446 158.976 12.2513 158.8C11.9579 158.624 11.7126 158.395 11.5153 158.112C11.3179 157.824 11.1686 157.515 11.0673 157.184C10.9659 156.848 10.9153 156.52 10.9153 156.2C10.9153 155.859 10.9686 155.517 11.0753 155.176C11.1873 154.835 11.3446 154.525 11.5473 154.248C11.7553 153.965 12.0033 153.741 12.2913 153.576C12.5793 153.405 12.9046 153.32 13.2673 153.32C13.6566 153.32 13.9953 153.411 14.2833 153.592C14.5766 153.773 14.8219 154.008 15.0193 154.296C15.2166 154.584 15.3633 154.896 15.4593 155.232C15.5606 155.568 15.6113 155.891 15.6113 156.2C15.6113 156.547 15.5553 156.891 15.4433 157.232C15.3366 157.568 15.1819 157.875 14.9793 158.152C14.7766 158.429 14.5286 158.653 14.2353 158.824C13.9473 158.989 13.6246 159.075 13.2673 159.08ZM11.4833 156.2C11.4939 156.477 11.5366 156.757 11.6113 157.04C11.6913 157.317 11.8059 157.573 11.9553 157.808C12.1046 158.037 12.2859 158.224 12.4993 158.368C12.7179 158.507 12.9739 158.576 13.2673 158.576C13.5659 158.576 13.8273 158.501 14.0513 158.352C14.2753 158.203 14.4593 158.008 14.6033 157.768C14.7526 157.523 14.8646 157.264 14.9392 156.992C15.0139 156.715 15.0512 156.451 15.0512 156.2C15.0512 155.923 15.0113 155.645 14.9313 155.368C14.8513 155.085 14.7339 154.829 14.5793 154.6C14.4246 154.365 14.2379 154.179 14.0193 154.04C13.8006 153.896 13.5499 153.824 13.2673 153.824C12.9633 153.824 12.6993 153.901 12.4753 154.056C12.2513 154.205 12.0646 154.4 11.9153 154.64C11.7713 154.88 11.6619 155.139 11.5872 155.416C11.5179 155.688 11.4833 155.949 11.4833 156.2Z" fill="#DEE2E7"/>
<path d="M6.293 132.504V133H3.645V132.504H4.725V127.856C4.677 127.92 4.605 127.992 4.509 128.072C4.41833 128.147 4.31167 128.221 4.189 128.296C4.06633 128.365 3.941 128.424 3.813 128.472C3.685 128.52 3.56767 128.544 3.461 128.544V128.032C3.605 128.032 3.749 127.995 3.893 127.92C4.037 127.84 4.17033 127.752 4.293 127.656C4.421 127.555 4.52233 127.464 4.597 127.384C4.677 127.299 4.71967 127.253 4.725 127.248H5.277V132.504H6.293ZM9.76513 127.824H6.70113V127.32H10.6291L7.74913 133H7.14113L9.76513 127.824ZM13.2673 133.08C12.8833 133.069 12.5446 132.976 12.2513 132.8C11.9579 132.624 11.7126 132.395 11.5153 132.112C11.3179 131.824 11.1686 131.515 11.0673 131.184C10.9659 130.848 10.9153 130.52 10.9153 130.2C10.9153 129.859 10.9686 129.517 11.0753 129.176C11.1873 128.835 11.3446 128.525 11.5473 128.248C11.7553 127.965 12.0033 127.741 12.2913 127.576C12.5793 127.405 12.9046 127.32 13.2673 127.32C13.6566 127.32 13.9953 127.411 14.2833 127.592C14.5766 127.773 14.8219 128.008 15.0193 128.296C15.2166 128.584 15.3633 128.896 15.4593 129.232C15.5606 129.568 15.6113 129.891 15.6113 130.2C15.6113 130.547 15.5553 130.891 15.4433 131.232C15.3366 131.568 15.1819 131.875 14.9793 132.152C14.7766 132.429 14.5286 132.653 14.2353 132.824C13.9473 132.989 13.6246 133.075 13.2673 133.08ZM11.4833 130.2C11.4939 130.477 11.5366 130.757 11.6113 131.04C11.6913 131.317 11.8059 131.573 11.9553 131.808C12.1046 132.037 12.2859 132.224 12.4993 132.368C12.7179 132.507 12.9739 132.576 13.2673 132.576C13.5659 132.576 13.8273 132.501 14.0513 132.352C14.2753 132.203 14.4593 132.008 14.6033 131.768C14.7526 131.523 14.8646 131.264 14.9392 130.992C15.0139 130.715 15.0512 130.451 15.0512 130.2C15.0512 129.923 15.0113 129.645 14.9313 129.368C14.8513 129.085 14.7339 128.829 14.5793 128.6C14.4246 128.365 14.2379 128.179 14.0193 128.04C13.8006 127.896 13.5499 127.824 13.2673 127.824C12.9633 127.824 12.6993 127.901 12.4753 128.056C12.2513 128.205 12.0646 128.4 11.9153 128.64C11.7713 128.88 11.6619 129.139 11.5872 129.416C11.5179 129.688 11.4833 129.949 11.4833 130.2Z" fill="#DEE2E7"/>
<path d="M5.62894 106.504V107H2.98094V106.504H4.06094V101.856C4.01294 101.92 3.94094 101.992 3.84494 102.072C3.75427 102.147 3.6476 102.221 3.52494 102.296C3.40227 102.365 3.27694 102.424 3.14894 102.472C3.02094 102.52 2.9036 102.544 2.79694 102.544V102.032C2.94094 102.032 3.08494 101.995 3.22894 101.92C3.37294 101.84 3.50627 101.752 3.62894 101.656C3.75694 101.555 3.85827 101.464 3.93294 101.384C4.01294 101.299 4.0556 101.253 4.06094 101.248H4.61294V106.504H5.62894ZM10.1331 105.424C10.1331 105.755 10.0397 106.043 9.85306 106.288C9.67173 106.533 9.42906 106.725 9.12506 106.864C8.8264 106.997 8.4984 107.064 8.14106 107.064C7.7624 107.064 7.4264 106.989 7.13306 106.84C6.83973 106.685 6.60773 106.483 6.43706 106.232C6.27173 105.981 6.18906 105.701 6.18906 105.392C6.18906 105.152 6.24506 104.936 6.35706 104.744C6.4744 104.547 6.6184 104.381 6.78906 104.248C6.96506 104.115 7.14373 104.019 7.32506 103.96C7.15973 103.891 7.00506 103.8 6.86106 103.688C6.71706 103.571 6.6024 103.435 6.51706 103.28C6.43173 103.125 6.38906 102.955 6.38906 102.768C6.38906 102.533 6.43973 102.328 6.54106 102.152C6.64773 101.971 6.7864 101.819 6.95706 101.696C7.12773 101.568 7.31706 101.475 7.52506 101.416C7.7384 101.352 7.95173 101.32 8.16506 101.32C8.37306 101.32 8.58106 101.352 8.78906 101.416C9.0024 101.475 9.1944 101.565 9.36506 101.688C9.54106 101.811 9.67973 101.963 9.78106 102.144C9.88773 102.32 9.94106 102.525 9.94106 102.76C9.94106 102.947 9.89573 103.12 9.80506 103.28C9.71973 103.435 9.60506 103.571 9.46106 103.688C9.31706 103.8 9.15973 103.891 8.98906 103.96C9.19706 104.029 9.3864 104.136 9.55706 104.28C9.73306 104.419 9.87173 104.584 9.97306 104.776C10.0797 104.968 10.1331 105.184 10.1331 105.424ZM9.58106 105.384C9.58106 105.192 9.5384 105.024 9.45306 104.88C9.37306 104.731 9.26106 104.605 9.11706 104.504C8.9784 104.403 8.82373 104.325 8.65306 104.272C8.48773 104.219 8.31973 104.192 8.14906 104.192C7.91973 104.192 7.69573 104.243 7.47706 104.344C7.26373 104.44 7.08773 104.579 6.94906 104.76C6.81573 104.936 6.74906 105.147 6.74906 105.392C6.74906 105.579 6.78906 105.744 6.86906 105.888C6.9544 106.032 7.0664 106.157 7.20506 106.264C7.34373 106.365 7.49573 106.443 7.66106 106.496C7.83173 106.549 8.0024 106.576 8.17306 106.576C8.4024 106.576 8.62373 106.528 8.83706 106.432C9.05573 106.331 9.2344 106.189 9.37306 106.008C9.51173 105.827 9.58106 105.619 9.58106 105.384ZM6.93306 102.792C6.93306 102.995 6.9944 103.171 7.11706 103.32C7.24506 103.464 7.40506 103.573 7.59706 103.648C7.78906 103.723 7.97573 103.76 8.15706 103.76C8.34906 103.76 8.5384 103.723 8.72506 103.648C8.91706 103.568 9.0744 103.456 9.19706 103.312C9.32506 103.163 9.38906 102.984 9.38906 102.776C9.38906 102.573 9.3304 102.4 9.21306 102.256C9.09573 102.112 8.94106 102.003 8.74906 101.928C8.5624 101.853 8.3624 101.816 8.14906 101.816C7.9464 101.816 7.74906 101.856 7.55706 101.936C7.3704 102.011 7.2184 102.123 7.10106 102.272C6.98906 102.416 6.93306 102.589 6.93306 102.792ZM13.2673 107.08C12.8833 107.069 12.5446 106.976 12.2513 106.8C11.9579 106.624 11.7126 106.395 11.5153 106.112C11.3179 105.824 11.1686 105.515 11.0673 105.184C10.9659 104.848 10.9153 104.52 10.9153 104.2C10.9153 103.859 10.9686 103.517 11.0753 103.176C11.1873 102.835 11.3446 102.525 11.5473 102.248C11.7553 101.965 12.0033 101.741 12.2913 101.576C12.5793 101.405 12.9046 101.32 13.2673 101.32C13.6566 101.32 13.9953 101.411 14.2833 101.592C14.5766 101.773 14.8219 102.008 15.0193 102.296C15.2166 102.584 15.3633 102.896 15.4593 103.232C15.5606 103.568 15.6113 103.891 15.6113 104.2C15.6113 104.547 15.5553 104.891 15.4433 105.232C15.3366 105.568 15.1819 105.875 14.9793 106.152C14.7766 106.429 14.5286 106.653 14.2353 106.824C13.9473 106.989 13.6246 107.075 13.2673 107.08ZM11.4833 104.2C11.4939 104.477 11.5366 104.757 11.6113 105.04C11.6913 105.317 11.8059 105.573 11.9553 105.808C12.1046 106.037 12.2859 106.224 12.4993 106.368C12.7179 106.507 12.9739 106.576 13.2673 106.576C13.5659 106.576 13.8273 106.501 14.0513 106.352C14.2753 106.203 14.4593 106.008 14.6033 105.768C14.7526 105.523 14.8646 105.264 14.9392 104.992C15.0139 104.715 15.0512 104.451 15.0512 104.2C15.0512 103.923 15.0113 103.645 14.9313 103.368C14.8513 103.085 14.7339 102.829 14.5793 102.6C14.4246 102.365 14.2379 102.179 14.0193 102.04C13.8006 101.896 13.5499 101.824 13.2673 101.824C12.9633 101.824 12.6993 101.901 12.4753 102.056C12.2513 102.205 12.0646 102.4 11.9153 102.64C11.7713 102.88 11.6619 103.139 11.5872 103.416C11.5179 103.688 11.4833 103.949 11.4833 104.2Z" fill="#DEE2E7"/>
<path d="M5.55081 81.504V82H2.90281V81.504H3.98281V76.856C3.93481 76.92 3.86281 76.992 3.76681 77.072C3.67615 77.1467 3.56948 77.2213 3.44681 77.296C3.32415 77.3653 3.19881 77.424 3.07081 77.472C2.94281 77.52 2.82548 77.544 2.71881 77.544V77.032C2.86281 77.032 3.00681 76.9947 3.15081 76.92C3.29481 76.84 3.42815 76.752 3.55081 76.656C3.67881 76.5547 3.78015 76.464 3.85481 76.384C3.93481 76.2987 3.97748 76.2533 3.98281 76.248H4.53481V81.504H5.55081ZM6.06294 78.232C6.06294 77.8693 6.15094 77.5413 6.32694 77.248C6.50294 76.9493 6.74294 76.7147 7.04694 76.544C7.35627 76.368 7.6976 76.28 8.07094 76.28C8.47627 76.28 8.83094 76.376 9.13494 76.568C9.43894 76.7547 9.67627 77.024 9.84694 77.376C10.0229 77.728 10.1109 78.152 10.1109 78.648C10.1109 79.4213 10.0229 80.0613 9.84694 80.568C9.67627 81.0747 9.4336 81.4533 9.11894 81.704C8.80427 81.9547 8.43627 82.08 8.01494 82.08C7.6416 82.08 7.3056 81.9867 7.00694 81.8C6.70827 81.608 6.4816 81.3467 6.32694 81.016L6.67094 80.704C6.78827 80.9707 6.96694 81.1867 7.20694 81.352C7.45227 81.512 7.72427 81.592 8.02294 81.592C8.3376 81.592 8.61227 81.496 8.84694 81.304C9.0816 81.1067 9.26294 80.824 9.39094 80.456C9.52427 80.088 9.59094 79.6427 9.59094 79.12C9.51627 79.3227 9.39894 79.504 9.23894 79.664C9.08427 79.8187 8.90027 79.9387 8.68694 80.024C8.47894 80.1093 8.25494 80.152 8.01494 80.152C7.65227 80.152 7.3216 80.0667 7.02294 79.896C6.7296 79.7253 6.49494 79.4933 6.31894 79.2C6.14827 78.9067 6.06294 78.584 6.06294 78.232ZM8.06294 76.752C7.79627 76.752 7.55094 76.8187 7.32694 76.952C7.10294 77.0853 6.92427 77.264 6.79094 77.488C6.6576 77.712 6.59094 77.9573 6.59094 78.224C6.59094 78.496 6.6576 78.744 6.79094 78.968C6.92427 79.1867 7.10294 79.3653 7.32694 79.504C7.55627 79.6373 7.80427 79.704 8.07094 79.704C8.34294 79.704 8.59094 79.6373 8.81494 79.504C9.03894 79.3653 9.2176 79.1867 9.35094 78.968C9.4896 78.744 9.55894 78.4987 9.55894 78.232C9.55894 77.9653 9.4896 77.72 9.35094 77.496C9.21227 77.272 9.03094 77.0933 8.80694 76.96C8.58294 76.8213 8.33494 76.752 8.06294 76.752ZM13.2673 82.08C12.8833 82.0693 12.5446 81.976 12.2513 81.8C11.9579 81.624 11.7126 81.3947 11.5153 81.112C11.3179 80.824 11.1686 80.5147 11.0673 80.184C10.9659 79.848 10.9153 79.52 10.9153 79.2C10.9153 78.8587 10.9686 78.5173 11.0753 78.176C11.1873 77.8347 11.3446 77.5253 11.5473 77.248C11.7553 76.9653 12.0033 76.7413 12.2913 76.576C12.5793 76.4053 12.9046 76.32 13.2673 76.32C13.6566 76.32 13.9953 76.4107 14.2833 76.592C14.5766 76.7733 14.8219 77.008 15.0193 77.296C15.2166 77.584 15.3633 77.896 15.4593 78.232C15.5606 78.568 15.6113 78.8907 15.6113 79.2C15.6113 79.5467 15.5553 79.8907 15.4433 80.232C15.3366 80.568 15.1819 80.8747 14.9793 81.152C14.7766 81.4293 14.5286 81.6533 14.2353 81.824C13.9473 81.9893 13.6246 82.0747 13.2673 82.08ZM11.4833 79.2C11.4939 79.4773 11.5366 79.7573 11.6113 80.04C11.6913 80.3173 11.8059 80.5733 11.9553 80.808C12.1046 81.0373 12.2859 81.224 12.4993 81.368C12.7179 81.5067 12.9739 81.576 13.2673 81.576C13.5659 81.576 13.8273 81.5013 14.0513 81.352C14.2753 81.2027 14.4593 81.008 14.6033 80.768C14.7526 80.5227 14.8646 80.264 14.9392 79.992C15.0139 79.7147 15.0512 79.4507 15.0512 79.2C15.0512 78.9227 15.0113 78.6453 14.9313 78.368C14.8513 78.0853 14.7339 77.8293 14.5793 77.6C14.4246 77.3653 14.2379 77.1787 14.0193 77.04C13.8006 76.896 13.5499 76.824 13.2673 76.824C12.9633 76.824 12.6993 76.9013 12.4753 77.056C12.2513 77.2053 12.0646 77.4 11.9153 77.64C11.7713 77.88 11.6619 78.1387 11.5872 78.416C11.5179 78.688 11.4833 78.9493 11.4833 79.2Z" fill="#DEE2E7"/>
<path d="M0.798063 56C0.792729 55.664 0.819396 55.368 0.878063 55.112C0.936729 54.856 1.02473 54.6293 1.14206 54.432C1.26473 54.2347 1.4114 54.064 1.58206 53.92C1.75273 53.7707 1.94473 53.64 2.15806 53.528C2.36073 53.416 2.5714 53.3147 2.79006 53.224C3.00873 53.128 3.2114 53.024 3.39806 52.912C3.58473 52.8 3.73406 52.664 3.84606 52.504C3.9634 52.3387 4.02206 52.1333 4.02206 51.888C4.02206 51.6853 3.97673 51.4987 3.88606 51.328C3.80073 51.1573 3.6674 51.0213 3.48606 50.92C3.30473 50.8133 3.0754 50.76 2.79806 50.76C2.52606 50.76 2.2834 50.8053 2.07006 50.896C1.86206 50.9867 1.68606 51.096 1.54206 51.224C1.4034 51.352 1.2914 51.4693 1.20606 51.576L0.846063 51.224C0.878063 51.1867 0.942063 51.1147 1.03806 51.008C1.1394 50.9013 1.27273 50.7893 1.43806 50.672C1.60873 50.5547 1.80873 50.456 2.03806 50.376C2.27273 50.2907 2.54473 50.248 2.85406 50.248C3.24873 50.248 3.57673 50.3253 3.83806 50.48C4.0994 50.6293 4.29406 50.8267 4.42206 51.072C4.5554 51.3173 4.62206 51.5867 4.62206 51.88C4.62206 52.1627 4.56606 52.4027 4.45406 52.6C4.3474 52.792 4.20606 52.9547 4.03006 53.088C3.8594 53.216 3.67273 53.328 3.47006 53.424C3.27273 53.52 3.08606 53.6107 2.91006 53.696C2.56873 53.8507 2.29673 54.0027 2.09406 54.152C1.8914 54.3013 1.7394 54.4507 1.63806 54.6C1.54206 54.7493 1.47806 54.8987 1.44606 55.048C1.41406 55.1973 1.3954 55.3493 1.39006 55.504H4.63006V56H0.798063ZM7.7985 56.08C7.4145 56.0693 7.07583 55.976 6.7825 55.8C6.48917 55.624 6.24383 55.3947 6.0465 55.112C5.84917 54.824 5.69983 54.5147 5.5985 54.184C5.49717 53.848 5.4465 53.52 5.4465 53.2C5.4465 52.8587 5.49983 52.5173 5.6065 52.176C5.7185 51.8347 5.87583 51.5253 6.0785 51.248C6.2865 50.9653 6.5345 50.7413 6.8225 50.576C7.1105 50.4053 7.43583 50.32 7.7985 50.32C8.18783 50.32 8.5265 50.4107 8.8145 50.592C9.10783 50.7733 9.35317 51.008 9.5505 51.296C9.74783 51.584 9.8945 51.896 9.9905 52.232C10.0918 52.568 10.1425 52.8907 10.1425 53.2C10.1425 53.5467 10.0865 53.8907 9.9745 54.232C9.86783 54.568 9.71317 54.8747 9.5105 55.152C9.30783 55.4293 9.05983 55.6533 8.7665 55.824C8.4785 55.9893 8.15583 56.0747 7.7985 56.08ZM6.0145 53.2C6.02517 53.4773 6.06783 53.7573 6.1425 54.04C6.2225 54.3173 6.33717 54.5733 6.4865 54.808C6.63583 55.0373 6.81717 55.224 7.0305 55.368C7.24917 55.5067 7.50517 55.576 7.7985 55.576C8.09717 55.576 8.3585 55.5013 8.5825 55.352C8.8065 55.2027 8.9905 55.008 9.1345 54.768C9.28383 54.5227 9.39583 54.264 9.4705 53.992C9.54517 53.7147 9.5825 53.4507 9.5825 53.2C9.5825 52.9227 9.5425 52.6453 9.4625 52.368C9.3825 52.0853 9.26517 51.8293 9.1105 51.6C8.95583 51.3653 8.76917 51.1787 8.5505 51.04C8.33183 50.896 8.08117 50.824 7.7985 50.824C7.4945 50.824 7.2305 50.9013 7.0065 51.056C6.7825 51.2053 6.59583 51.4 6.4465 51.64C6.3025 51.88 6.19317 52.1387 6.1185 52.416C6.04917 52.688 6.0145 52.9493 6.0145 53.2ZM13.2673 56.08C12.8833 56.0693 12.5446 55.976 12.2513 55.8C11.9579 55.624 11.7126 55.3947 11.5153 55.112C11.3179 54.824 11.1686 54.5147 11.0673 54.184C10.9659 53.848 10.9153 53.52 10.9153 53.2C10.9153 52.8587 10.9686 52.5173 11.0753 52.176C11.1873 51.8347 11.3446 51.5253 11.5473 51.248C11.7553 50.9653 12.0033 50.7413 12.2913 50.576C12.5793 50.4053 12.9046 50.32 13.2673 50.32C13.6566 50.32 13.9953 50.4107 14.2833 50.592C14.5766 50.7733 14.8219 51.008 15.0193 51.296C15.2166 51.584 15.3633 51.896 15.4593 52.232C15.5606 52.568 15.6113 52.8907 15.6113 53.2C15.6113 53.5467 15.5553 53.8907 15.4433 54.232C15.3366 54.568 15.1819 54.8747 14.9793 55.152C14.7766 55.4293 14.5286 55.6533 14.2353 55.824C13.9473 55.9893 13.6246 56.0747 13.2673 56.08ZM11.4833 53.2C11.4939 53.4773 11.5366 53.7573 11.6113 54.04C11.6913 54.3173 11.8059 54.5733 11.9553 54.808C12.1046 55.0373 12.2859 55.224 12.4993 55.368C12.7179 55.5067 12.9739 55.576 13.2673 55.576C13.5659 55.576 13.8273 55.5013 14.0513 55.352C14.2753 55.2027 14.4593 55.008 14.6033 54.768C14.7526 54.5227 14.8646 54.264 14.9392 53.992C15.0139 53.7147 15.0512 53.4507 15.0512 53.2C15.0512 52.9227 15.0113 52.6453 14.9313 52.368C14.8513 52.0853 14.7339 51.8293 14.5793 51.6C14.4246 51.3653 14.2379 51.1787 14.0193 51.04C13.8006 50.896 13.5499 50.824 13.2673 50.824C12.9633 50.824 12.6993 50.9013 12.4753 51.056C12.2513 51.2053 12.0646 51.4 11.9153 51.64C11.7713 51.88 11.6619 52.1387 11.5872 52.416C11.5179 52.688 11.4833 52.9493 11.4833 53.2Z" fill="#DEE2E7"/>
<path d="M2.96213 30C2.95679 29.664 2.98346 29.368 3.04213 29.112C3.10079 28.856 3.18879 28.6293 3.30613 28.432C3.42879 28.2347 3.57546 28.064 3.74613 27.92C3.91679 27.7707 4.10879 27.64 4.32213 27.528C4.52479 27.416 4.73546 27.3147 4.95413 27.224C5.17279 27.128 5.37546 27.024 5.56213 26.912C5.74879 26.8 5.89813 26.664 6.01013 26.504C6.12746 26.3387 6.18613 26.1333 6.18613 25.888C6.18613 25.6853 6.14079 25.4987 6.05013 25.328C5.96479 25.1573 5.83146 25.0213 5.65013 24.92C5.46879 24.8133 5.23946 24.76 4.96213 24.76C4.69013 24.76 4.44746 24.8053 4.23413 24.896C4.02613 24.9867 3.85013 25.096 3.70613 25.224C3.56746 25.352 3.45546 25.4693 3.37013 25.576L3.01013 25.224C3.04213 25.1867 3.10613 25.1147 3.20213 25.008C3.30346 24.9013 3.43679 24.7893 3.60213 24.672C3.77279 24.5547 3.97279 24.456 4.20213 24.376C4.43679 24.2907 4.70879 24.248 5.01813 24.248C5.41279 24.248 5.74079 24.3253 6.00213 24.48C6.26346 24.6293 6.45813 24.8267 6.58613 25.072C6.71946 25.3173 6.78613 25.5867 6.78613 25.88C6.78613 26.1627 6.73013 26.4027 6.61812 26.6C6.51146 26.792 6.37013 26.9547 6.19413 27.088C6.02346 27.216 5.83679 27.328 5.63413 27.424C5.43679 27.52 5.25013 27.6107 5.07413 27.696C4.73279 27.8507 4.46079 28.0027 4.25813 28.152C4.05546 28.3013 3.90346 28.4507 3.80213 28.6C3.70613 28.7493 3.64213 28.8987 3.61013 29.048C3.57813 29.1973 3.55946 29.3493 3.55413 29.504H6.79413V30H2.96213ZM10.3946 29.504V30H7.74656V29.504H8.82656V24.856C8.77856 24.92 8.70656 24.992 8.61056 25.072C8.5199 25.1467 8.41323 25.2213 8.29056 25.296C8.1679 25.3653 8.04256 25.424 7.91456 25.472C7.78656 25.52 7.66923 25.544 7.56256 25.544V25.032C7.70656 25.032 7.85056 24.9947 7.99456 24.92C8.13856 24.84 8.2719 24.752 8.39456 24.656C8.52256 24.5547 8.6239 24.464 8.69856 24.384C8.77856 24.2987 8.82123 24.2533 8.82656 24.248H9.37856V29.504H10.3946ZM13.2673 30.08C12.8833 30.0693 12.5446 29.976 12.2513 29.8C11.9579 29.624 11.7126 29.3947 11.5153 29.112C11.3179 28.824 11.1686 28.5147 11.0673 28.184C10.9659 27.848 10.9153 27.52 10.9153 27.2C10.9153 26.8587 10.9686 26.5173 11.0753 26.176C11.1873 25.8347 11.3446 25.5253 11.5473 25.248C11.7553 24.9653 12.0033 24.7413 12.2913 24.576C12.5793 24.4053 12.9046 24.32 13.2673 24.32C13.6566 24.32 13.9953 24.4107 14.2833 24.592C14.5766 24.7733 14.8219 25.008 15.0193 25.296C15.2166 25.584 15.3633 25.896 15.4593 26.232C15.5606 26.568 15.6113 26.8907 15.6113 27.2C15.6113 27.5467 15.5553 27.8907 15.4433 28.232C15.3366 28.568 15.1819 28.8747 14.9793 29.152C14.7766 29.4293 14.5286 29.6533 14.2353 29.824C13.9473 29.9893 13.6246 30.0747 13.2673 30.08ZM11.4833 27.2C11.4939 27.4773 11.5366 27.7573 11.6113 28.04C11.6913 28.3173 11.8059 28.5733 11.9553 28.808C12.1046 29.0373 12.2859 29.224 12.4993 29.368C12.7179 29.5067 12.9739 29.576 13.2673 29.576C13.5659 29.576 13.8273 29.5013 14.0513 29.352C14.2753 29.2027 14.4593 29.008 14.6033 28.768C14.7526 28.5227 14.8646 28.264 14.9392 27.992C15.0139 27.7147 15.0512 27.4507 15.0512 27.2C15.0512 26.9227 15.0113 26.6453 14.9313 26.368C14.8513 26.0853 14.7339 25.8293 14.5793 25.6C14.4246 25.3653 14.2379 25.1787 14.0193 25.04C13.8006 24.896 13.5499 24.824 13.2673 24.824C12.9633 24.824 12.6993 24.9013 12.4753 25.056C12.2513 25.2053 12.0646 25.4 11.9153 25.64C11.7713 25.88 11.6619 26.1387 11.5872 26.416C11.5179 26.688 11.4833 26.9493 11.4833 27.2Z" fill="#DEE2E7"/>
<path d="M22 168C22 168 61.6 156.476 88 150.351C114.4 144.226 127.6 143.084 154 137.374C180.4 131.664 193.6 137.374 220 121.802C246.4 106.229 286 32 286 32" stroke="#2D6FD0"/>
<path d="M22 172C21.2045 172 20.4415 171.684 19.8789 171.122C19.3164 170.559 19.0002 169.796 19 169.001C18.9998 168.205 19.3156 167.442 19.8779 166.879C20.4402 166.317 21.203 166 21.9985 166C22.794 166 23.5571 166.315 24.12 166.877C24.6829 167.44 24.9994 168.202 25 168.998C25.0006 169.793 24.6852 170.556 24.1232 171.119C23.5612 171.682 22.7985 171.999 22.003 172H22Z" fill="#2D6FD0"/>
<path d="M87 154C86.2045 154 85.4415 153.684 84.8789 153.122C84.3164 152.559 84.0002 151.796 84 151.001C83.9998 150.205 84.3156 149.442 84.8779 148.879C85.4402 148.317 86.203 148 86.9985 148C87.794 148 88.5571 148.315 89.12 148.877C89.6829 149.44 89.9994 150.202 90 150.998C90.0006 151.793 89.6852 152.556 89.1232 153.119C88.5612 153.682 87.7985 153.999 87.003 154H87Z" fill="#2D6FD0"/>
<path d="M154 141C153.204 141 152.442 140.684 151.879 140.122C151.316 139.559 151 138.796 151 138.001C151 137.205 151.316 136.442 151.878 135.879C152.44 135.317 153.203 135 153.999 135C154.794 135 155.557 135.315 156.12 135.877C156.683 136.44 156.999 137.202 157 137.998C157.001 138.793 156.685 139.556 156.123 140.119C155.561 140.682 154.799 140.999 154.003 141H154Z" fill="#2D6FD0"/>
<path d="M220 125C219.204 125 218.442 124.684 217.879 124.122C217.316 123.559 217 122.796 217 122.001C217 121.205 217.316 120.442 217.878 119.879C218.44 119.317 219.203 119 219.998 119C220.794 119 221.557 119.315 222.12 119.877C222.683 120.44 222.999 121.202 223 121.998C223.001 122.793 222.685 123.556 222.123 124.119C221.561 124.682 220.799 124.999 220.003 125H220Z" fill="#2D6FD0"/>
<path d="M286 35C285.204 35 284.442 34.684 283.879 34.1216C283.316 33.5591 283 32.7963 283 32.0007C283 31.2052 283.316 30.4422 283.878 29.8795C284.44 29.3167 285.203 29.0004 285.998 29C286.794 28.9996 287.557 29.3152 288.12 29.8774C288.683 30.4395 288.999 31.2022 289 31.9978C289.001 32.7933 288.685 33.5565 288.123 34.1195C287.561 34.6825 286.799 34.9992 286.003 35L286 35Z" fill="#2D6FD0"/>
<path d="M78.2878 139.04V140H74.0518V139.04H75.6838V132.5C75.6198 132.596 75.5158 132.704 75.3718 132.824C75.2278 132.936 75.0598 133.048 74.8678 133.16C74.6838 133.264 74.4958 133.352 74.3038 133.424C74.1118 133.496 73.9358 133.532 73.7758 133.532V132.548C73.9918 132.548 74.2078 132.492 74.4238 132.38C74.6478 132.268 74.8518 132.136 75.0358 131.984C75.2278 131.832 75.3798 131.696 75.4918 131.576C75.6118 131.456 75.6758 131.392 75.6838 131.384H76.7638V139.04H78.2878ZM85.3006 137.18C85.3006 137.724 85.1646 138.22 84.8926 138.668C84.6286 139.108 84.2646 139.46 83.8006 139.724C83.3446 139.988 82.8286 140.12 82.2526 140.12C81.6446 140.12 81.1086 139.976 80.6446 139.688C80.1806 139.392 79.8166 138.968 79.5526 138.416C79.2966 137.864 79.1686 137.208 79.1686 136.448C79.1686 135.328 79.3006 134.396 79.5646 133.652C79.8286 132.908 80.2006 132.352 80.6806 131.984C81.1606 131.608 81.7206 131.42 82.3606 131.42C82.9126 131.42 83.4126 131.556 83.8606 131.828C84.3166 132.092 84.6726 132.46 84.9286 132.932L84.2806 133.568C84.1046 133.192 83.8446 132.896 83.5006 132.68C83.1566 132.456 82.7726 132.344 82.3486 132.344C81.9166 132.344 81.5366 132.476 81.2086 132.74C80.8806 133.004 80.6246 133.384 80.4406 133.88C80.2646 134.376 80.1726 134.976 80.1646 135.68C80.2846 135.4 80.4526 135.16 80.6686 134.96C80.8846 134.752 81.1366 134.592 81.4246 134.48C81.7206 134.368 82.0326 134.312 82.3606 134.312C82.9126 134.312 83.4086 134.44 83.8486 134.696C84.2966 134.952 84.6486 135.296 84.9046 135.728C85.1686 136.16 85.3006 136.644 85.3006 137.18ZM82.2646 139.208C82.6326 139.208 82.9686 139.116 83.2726 138.932C83.5846 138.748 83.8326 138.504 84.0166 138.2C84.2006 137.888 84.2926 137.548 84.2926 137.18C84.2926 136.812 84.2006 136.476 84.0166 136.172C83.8326 135.868 83.5846 135.624 83.2726 135.44C82.9686 135.256 82.6326 135.164 82.2646 135.164C81.8966 135.164 81.5566 135.256 81.2446 135.44C80.9406 135.624 80.6966 135.868 80.5126 136.172C80.3286 136.476 80.2366 136.812 80.2366 137.18C80.2366 137.548 80.3286 137.888 80.5126 138.2C80.6966 138.504 80.9406 138.748 81.2446 138.932C81.5566 139.116 81.8966 139.208 82.2646 139.208ZM86.386 140C86.386 139.52 86.426 139.096 86.506 138.728C86.594 138.352 86.718 138.016 86.878 137.72C87.046 137.424 87.246 137.164 87.478 136.94C87.71 136.716 87.974 136.516 88.27 136.34C88.582 136.156 88.902 135.988 89.23 135.836C89.558 135.684 89.862 135.524 90.142 135.356C90.422 135.188 90.646 134.988 90.814 134.756C90.99 134.516 91.078 134.22 91.078 133.868C91.078 133.588 91.018 133.336 90.898 133.112C90.778 132.88 90.598 132.696 90.358 132.56C90.118 132.424 89.81 132.356 89.434 132.356C89.058 132.356 88.718 132.42 88.414 132.548C88.118 132.676 87.862 132.828 87.646 133.004C87.43 133.18 87.258 133.348 87.13 133.508L86.446 132.824C86.51 132.744 86.622 132.624 86.782 132.464C86.95 132.304 87.162 132.14 87.418 131.972C87.682 131.804 87.99 131.664 88.342 131.552C88.694 131.432 89.094 131.372 89.542 131.372C90.142 131.372 90.642 131.484 91.042 131.708C91.442 131.932 91.742 132.232 91.942 132.608C92.15 132.984 92.254 133.4 92.254 133.856C92.254 134.264 92.178 134.616 92.026 134.912C91.874 135.2 91.678 135.444 91.438 135.644C91.198 135.844 90.934 136.02 90.646 136.172C90.366 136.324 90.094 136.468 89.83 136.604C89.326 136.844 88.926 137.064 88.63 137.264C88.334 137.464 88.106 137.66 87.946 137.852C87.794 138.036 87.69 138.224 87.634 138.416C87.586 138.608 87.558 138.816 87.55 139.04H92.266V140H86.386ZM93.8001 140.972L94.0401 139.904H93.6801V138.656H94.6761V139.904L94.3161 140.972H93.8001ZM100.471 139.04V140H96.2354V139.04H97.8674V132.5C97.8034 132.596 97.6994 132.704 97.5554 132.824C97.4114 132.936 97.2434 133.048 97.0514 133.16C96.8674 133.264 96.6794 133.352 96.4874 133.424C96.2954 133.496 96.1194 133.532 95.9594 133.532V132.548C96.1754 132.548 96.3914 132.492 96.6074 132.38C96.8314 132.268 97.0354 132.136 97.2194 131.984C97.4114 131.832 97.5634 131.696 97.6754 131.576C97.7954 131.456 97.8594 131.392 97.8674 131.384H98.9474V139.04H100.471Z" fill="#2F2F2F"/>
<path d="M26.4128 157.04V158H22.1768V157.04H23.8088V150.5C23.7448 150.596 23.6408 150.704 23.4968 150.824C23.3528 150.936 23.1848 151.048 22.9928 151.16C22.8088 151.264 22.6208 151.352 22.4288 151.424C22.2368 151.496 22.0608 151.532 21.9008 151.532V150.548C22.1168 150.548 22.3328 150.492 22.5488 150.38C22.7728 150.268 22.9768 150.136 23.1608 149.984C23.3528 149.832 23.5048 149.696 23.6168 149.576C23.7368 149.456 23.8008 149.392 23.8088 149.384H24.8888V157.04H26.4128ZM29.8856 158.12C29.2776 158.12 28.7296 157.976 28.2416 157.688C27.7616 157.4 27.3936 157.012 27.1376 156.524L27.7976 155.948C28.0216 156.316 28.3176 156.612 28.6856 156.836C29.0616 157.06 29.4656 157.172 29.8976 157.172C30.2656 157.172 30.5936 157.092 30.8816 156.932C31.1696 156.772 31.3976 156.552 31.5656 156.272C31.7336 155.992 31.8176 155.668 31.8176 155.3C31.8176 154.94 31.7336 154.624 31.5656 154.352C31.4056 154.08 31.1856 153.868 30.9056 153.716C30.6336 153.556 30.3256 153.476 29.9816 153.476C29.6456 153.476 29.3256 153.552 29.0216 153.704C28.7176 153.856 28.4736 154.072 28.2896 154.352H27.3296L28.2896 149.48H32.4296V150.452H29.0696L28.5536 153.164C28.7296 152.972 28.9496 152.824 29.2136 152.72C29.4856 152.616 29.7856 152.564 30.1136 152.564C30.6416 152.564 31.1136 152.68 31.5296 152.912C31.9536 153.144 32.2856 153.464 32.5256 153.872C32.7736 154.272 32.8976 154.74 32.8976 155.276C32.8976 155.836 32.7616 156.332 32.4896 156.764C32.2256 157.188 31.8656 157.52 31.4096 157.76C30.9616 158 30.4536 158.12 29.8856 158.12ZM36.577 158.12C35.969 158.12 35.421 157.976 34.933 157.688C34.453 157.4 34.085 157.012 33.829 156.524L34.489 155.948C34.713 156.316 35.009 156.612 35.377 156.836C35.753 157.06 36.157 157.172 36.589 157.172C36.957 157.172 37.285 157.092 37.573 156.932C37.861 156.772 38.089 156.552 38.257 156.272C38.425 155.992 38.509 155.668 38.509 155.3C38.509 154.94 38.425 154.624 38.257 154.352C38.097 154.08 37.877 153.868 37.597 153.716C37.325 153.556 37.017 153.476 36.673 153.476C36.337 153.476 36.017 153.552 35.713 153.704C35.409 153.856 35.165 154.072 34.981 154.352H34.021L34.981 149.48H39.121V150.452H35.761L35.245 153.164C35.421 152.972 35.641 152.824 35.905 152.72C36.177 152.616 36.477 152.564 36.805 152.564C37.333 152.564 37.805 152.68 38.221 152.912C38.645 153.144 38.977 153.464 39.217 153.872C39.465 154.272 39.589 154.74 39.589 155.276C39.589 155.836 39.453 156.332 39.181 156.764C38.917 157.188 38.557 157.52 38.101 157.76C37.653 158 37.145 158.12 36.577 158.12ZM40.9525 158.972L41.1925 157.904H40.8325V156.656H41.8285V157.904L41.4685 158.972H40.9525ZM45.9677 158.108C45.4797 158.108 45.0357 158.032 44.6357 157.88C44.2437 157.72 43.9157 157.5 43.6517 157.22C43.3957 156.932 43.2277 156.6 43.1477 156.224L43.7477 155.588C43.7717 155.82 43.8757 156.056 44.0597 156.296C44.2437 156.536 44.4957 156.736 44.8157 156.896C45.1437 157.048 45.5237 157.124 45.9557 157.124C46.3237 157.124 46.6557 157.064 46.9517 156.944C47.2477 156.816 47.4837 156.64 47.6597 156.416C47.8357 156.192 47.9237 155.932 47.9237 155.636C47.9237 155.308 47.8157 155.028 47.5997 154.796C47.3837 154.564 47.0757 154.388 46.6757 154.268C46.2837 154.148 45.8157 154.088 45.2717 154.088H44.8637V153.188H45.2717C46.0077 153.188 46.5957 153.072 47.0357 152.84C47.4757 152.6 47.6957 152.244 47.6957 151.772C47.6957 151.468 47.6117 151.208 47.4437 150.992C47.2837 150.768 47.0677 150.6 46.7957 150.488C46.5317 150.368 46.2477 150.308 45.9437 150.308C45.4317 150.308 44.9957 150.424 44.6357 150.656C44.2837 150.88 44.0357 151.144 43.8917 151.448L43.1837 150.716C43.3437 150.436 43.5677 150.196 43.8557 149.996C44.1437 149.796 44.4677 149.644 44.8277 149.54C45.1877 149.428 45.5557 149.372 45.9317 149.372C46.4837 149.372 46.9757 149.476 47.4077 149.684C47.8477 149.892 48.1917 150.172 48.4397 150.524C48.6877 150.876 48.8117 151.276 48.8117 151.724C48.8117 152.044 48.7477 152.332 48.6197 152.588C48.4917 152.836 48.3037 153.044 48.0557 153.212C47.8077 153.38 47.5077 153.508 47.1557 153.596C47.5317 153.66 47.8597 153.796 48.1397 154.004C48.4197 154.212 48.6357 154.468 48.7877 154.772C48.9397 155.076 49.0157 155.408 49.0157 155.768C49.0157 156.264 48.8717 156.688 48.5837 157.04C48.2957 157.384 47.9197 157.648 47.4557 157.832C46.9997 158.016 46.5037 158.108 45.9677 158.108Z" fill="#2F2F2F"/>
<path d="M146.055 126.04V127H141.819V126.04H143.451V119.5C143.387 119.596 143.283 119.704 143.139 119.824C142.995 119.936 142.827 120.048 142.635 120.16C142.451 120.264 142.263 120.352 142.071 120.424C141.879 120.496 141.703 120.532 141.543 120.532V119.548C141.759 119.548 141.975 119.492 142.191 119.38C142.415 119.268 142.619 119.136 142.803 118.984C142.995 118.832 143.147 118.696 143.259 118.576C143.379 118.456 143.443 118.392 143.451 118.384H144.531V126.04H146.055ZM153.068 124.18C153.068 124.724 152.932 125.22 152.66 125.668C152.396 126.108 152.032 126.46 151.568 126.724C151.112 126.988 150.596 127.12 150.02 127.12C149.412 127.12 148.876 126.976 148.412 126.688C147.948 126.392 147.584 125.968 147.32 125.416C147.064 124.864 146.936 124.208 146.936 123.448C146.936 122.328 147.068 121.396 147.332 120.652C147.596 119.908 147.968 119.352 148.448 118.984C148.928 118.608 149.488 118.42 150.128 118.42C150.68 118.42 151.18 118.556 151.628 118.828C152.084 119.092 152.44 119.46 152.696 119.932L152.048 120.568C151.872 120.192 151.612 119.896 151.268 119.68C150.924 119.456 150.54 119.344 150.116 119.344C149.684 119.344 149.304 119.476 148.976 119.74C148.648 120.004 148.392 120.384 148.208 120.88C148.032 121.376 147.94 121.976 147.932 122.68C148.052 122.4 148.22 122.16 148.436 121.96C148.652 121.752 148.904 121.592 149.192 121.48C149.488 121.368 149.8 121.312 150.128 121.312C150.68 121.312 151.176 121.44 151.616 121.696C152.064 121.952 152.416 122.296 152.672 122.728C152.936 123.16 153.068 123.644 153.068 124.18ZM150.032 126.208C150.4 126.208 150.736 126.116 151.04 125.932C151.352 125.748 151.6 125.504 151.784 125.2C151.968 124.888 152.06 124.548 152.06 124.18C152.06 123.812 151.968 123.476 151.784 123.172C151.6 122.868 151.352 122.624 151.04 122.44C150.736 122.256 150.4 122.164 150.032 122.164C149.664 122.164 149.324 122.256 149.012 122.44C148.708 122.624 148.464 122.868 148.28 123.172C148.096 123.476 148.004 123.812 148.004 124.18C148.004 124.548 148.096 124.888 148.28 125.2C148.464 125.504 148.708 125.748 149.012 125.932C149.324 126.116 149.664 126.208 150.032 126.208ZM158.354 119.452H153.986V118.48H160.034L155.738 127H154.55L158.354 119.452ZM160.033 127.972L160.273 126.904H159.913V125.656H160.909V126.904L160.549 127.972H160.033ZM166.704 126.04V127H162.468V126.04H164.1V119.5C164.036 119.596 163.932 119.704 163.788 119.824C163.644 119.936 163.476 120.048 163.284 120.16C163.1 120.264 162.912 120.352 162.72 120.424C162.528 120.496 162.352 120.532 162.192 120.532V119.548C162.408 119.548 162.624 119.492 162.84 119.38C163.064 119.268 163.268 119.136 163.452 118.984C163.644 118.832 163.796 118.696 163.908 118.576C164.028 118.456 164.092 118.392 164.1 118.384H165.18V126.04H166.704Z" fill="#2F2F2F"/>
<path d="M249.716 36C249.716 35.52 249.756 35.096 249.836 34.728C249.924 34.352 250.048 34.016 250.208 33.72C250.376 33.424 250.576 33.164 250.808 32.94C251.04 32.716 251.304 32.516 251.6 32.34C251.912 32.156 252.232 31.988 252.56 31.836C252.888 31.684 253.192 31.524 253.472 31.356C253.752 31.188 253.976 30.988 254.144 30.756C254.32 30.516 254.408 30.22 254.408 29.868C254.408 29.588 254.348 29.336 254.228 29.112C254.108 28.88 253.928 28.696 253.688 28.56C253.448 28.424 253.14 28.356 252.764 28.356C252.388 28.356 252.048 28.42 251.744 28.548C251.448 28.676 251.192 28.828 250.976 29.004C250.76 29.18 250.588 29.348 250.46 29.508L249.776 28.824C249.84 28.744 249.952 28.624 250.112 28.464C250.28 28.304 250.492 28.14 250.748 27.972C251.012 27.804 251.32 27.664 251.672 27.552C252.024 27.432 252.424 27.372 252.872 27.372C253.472 27.372 253.972 27.484 254.372 27.708C254.772 27.932 255.072 28.232 255.272 28.608C255.48 28.984 255.584 29.4 255.584 29.856C255.584 30.264 255.508 30.616 255.356 30.912C255.204 31.2 255.008 31.444 254.768 31.644C254.528 31.844 254.264 32.02 253.976 32.172C253.696 32.324 253.424 32.468 253.16 32.604C252.656 32.844 252.256 33.064 251.96 33.264C251.664 33.464 251.436 33.66 251.276 33.852C251.124 34.036 251.02 34.224 250.964 34.416C250.916 34.608 250.888 34.816 250.88 35.04H255.596V36H249.716ZM260.382 36.12C259.798 36.104 259.282 35.964 258.834 35.7C258.386 35.436 258.01 35.092 257.706 34.668C257.41 34.236 257.186 33.772 257.034 33.276C256.882 32.772 256.806 32.28 256.806 31.8C256.806 31.288 256.886 30.776 257.046 30.264C257.214 29.752 257.454 29.288 257.766 28.872C258.078 28.448 258.454 28.112 258.894 27.864C259.334 27.608 259.83 27.48 260.382 27.48C260.974 27.48 261.49 27.616 261.93 27.888C262.378 28.16 262.75 28.512 263.046 28.944C263.35 29.376 263.578 29.844 263.73 30.348C263.882 30.852 263.958 31.336 263.958 31.8C263.958 32.32 263.874 32.836 263.706 33.348C263.546 33.852 263.31 34.312 262.998 34.728C262.686 35.144 262.31 35.48 261.87 35.736C261.43 35.984 260.934 36.112 260.382 36.12ZM257.898 31.8C257.914 32.192 257.974 32.584 258.078 32.976C258.182 33.368 258.338 33.728 258.546 34.056C258.754 34.384 259.01 34.648 259.314 34.848C259.618 35.048 259.974 35.148 260.382 35.148C260.806 35.148 261.174 35.044 261.486 34.836C261.798 34.62 262.054 34.344 262.254 34.008C262.462 33.664 262.614 33.3 262.71 32.916C262.814 32.524 262.866 32.152 262.866 31.8C262.866 31.408 262.81 31.016 262.698 30.624C262.594 30.232 262.434 29.872 262.218 29.544C262.002 29.216 261.742 28.952 261.438 28.752C261.134 28.552 260.782 28.452 260.382 28.452C259.958 28.452 259.59 28.56 259.278 28.776C258.966 28.984 258.706 29.26 258.498 29.604C258.298 29.94 258.146 30.304 258.042 30.696C257.946 31.08 257.898 31.448 257.898 31.8ZM269.104 28.452H264.736V27.48H270.784L266.488 36H265.3L269.104 28.452ZM270.783 36.972L271.023 35.904H270.663V34.656H271.659V35.904L271.299 36.972H270.783ZM277.178 28.452H272.81V27.48H278.858L274.562 36H273.374L277.178 28.452Z" fill="#2F2F2F"/>
<path d="M204.251 110.04V111H200.015V110.04H201.647V103.5C201.583 103.596 201.479 103.704 201.335 103.824C201.191 103.936 201.023 104.048 200.831 104.16C200.647 104.264 200.459 104.352 200.267 104.424C200.075 104.496 199.899 104.532 199.739 104.532V103.548C199.955 103.548 200.171 103.492 200.387 103.38C200.611 103.268 200.815 103.136 200.999 102.984C201.191 102.832 201.343 102.696 201.455 102.576C201.575 102.456 201.639 102.392 201.647 102.384H202.727V110.04H204.251ZM209.272 103.452H204.904V102.48H210.952L206.656 111H205.468L209.272 103.452ZM214.302 111.108C213.814 111.108 213.37 111.032 212.97 110.88C212.578 110.72 212.25 110.5 211.986 110.22C211.73 109.932 211.562 109.6 211.482 109.224L212.082 108.588C212.106 108.82 212.21 109.056 212.394 109.296C212.578 109.536 212.83 109.736 213.15 109.896C213.478 110.048 213.858 110.124 214.29 110.124C214.658 110.124 214.99 110.064 215.286 109.944C215.582 109.816 215.818 109.64 215.994 109.416C216.17 109.192 216.258 108.932 216.258 108.636C216.258 108.308 216.15 108.028 215.934 107.796C215.718 107.564 215.41 107.388 215.01 107.268C214.618 107.148 214.15 107.088 213.606 107.088H213.198V106.188H213.606C214.342 106.188 214.93 106.072 215.37 105.84C215.81 105.6 216.03 105.244 216.03 104.772C216.03 104.468 215.946 104.208 215.778 103.992C215.618 103.768 215.402 103.6 215.13 103.488C214.866 103.368 214.582 103.308 214.278 103.308C213.766 103.308 213.33 103.424 212.97 103.656C212.618 103.88 212.37 104.144 212.226 104.448L211.518 103.716C211.678 103.436 211.902 103.196 212.19 102.996C212.478 102.796 212.802 102.644 213.162 102.54C213.522 102.428 213.89 102.372 214.266 102.372C214.818 102.372 215.31 102.476 215.742 102.684C216.182 102.892 216.526 103.172 216.774 103.524C217.022 103.876 217.146 104.276 217.146 104.724C217.146 105.044 217.082 105.332 216.954 105.588C216.826 105.836 216.638 106.044 216.39 106.212C216.142 106.38 215.842 106.508 215.49 106.596C215.866 106.66 216.194 106.796 216.474 107.004C216.754 107.212 216.97 107.468 217.122 107.772C217.274 108.076 217.35 108.408 217.35 108.768C217.35 109.264 217.206 109.688 216.918 110.04C216.63 110.384 216.254 110.648 215.79 110.832C215.334 111.016 214.838 111.108 214.302 111.108ZM218.837 111.972L219.077 110.904H218.717V109.656H219.713V110.904L219.353 111.972H218.837ZM225.508 110.04V111H221.272V110.04H222.904V103.5C222.84 103.596 222.736 103.704 222.592 103.824C222.448 103.936 222.28 104.048 222.088 104.16C221.904 104.264 221.716 104.352 221.524 104.424C221.332 104.496 221.156 104.532 220.996 104.532V103.548C221.212 103.548 221.428 103.492 221.644 103.38C221.868 103.268 222.072 103.136 222.256 102.984C222.448 102.832 222.6 102.696 222.712 102.576C222.832 102.456 222.896 102.392 222.904 102.384H223.984V110.04H225.508Z" fill="#2F2F2F"/>
</svg>
