<svg width="559" height="386" viewBox="0 0 559 386" fill="none" xmlns="http://www.w3.org/2000/svg">
<path d="M30.8074 52.5786L30.8074 360.352" stroke="#F5F6F7"/>
<path d="M161.741 52.5786L161.741 360.352" stroke="#F5F6F7"/>
<path d="M292.677 52.5786L292.677 360.352" stroke="#F5F6F7"/>
<path d="M422.51 52.5786L422.51 360.352" stroke="#F5F6F7"/>
<path d="M554.544 51.2959L554.544 361.634" stroke="#F5F6F7"/>
<path d="M31.908 360.993H554.545" stroke="#F5F6F7"/>
<path d="M31.908 309.698H554.545" stroke="#F5F6F7"/>
<path d="M30.8074 258.402L554.545 258.402" stroke="#F5F6F7"/>
<path d="M30.8074 207.106L554.545 207.106" stroke="#F5F6F7"/>
<path d="M30.8074 154.529L554.545 154.529" stroke="#F5F6F7"/>
<path d="M30.8074 103.233L554.545 103.233" stroke="#F5F6F7"/>
<path d="M30.8074 51.9368L554.545 51.9367" stroke="#F5F6F7"/>
<path d="M30.8074 360.993L554.545 360.993" stroke="#F5F6F7"/>
<path d="M30.8074 51.2959L30.8074 361.634" stroke="#F5F6F7"/>
<path d="M21.711 380.611V380.101L24.621 377.251C24.8877 376.991 25.0877 376.765 25.221 376.571C25.3544 376.371 25.4444 376.185 25.491 376.011C25.5377 375.838 25.561 375.675 25.561 375.521C25.561 375.115 25.421 374.795 25.141 374.561C24.8677 374.328 24.461 374.211 23.921 374.211C23.5077 374.211 23.141 374.275 22.821 374.401C22.5077 374.528 22.2377 374.725 22.011 374.991L21.501 374.551C21.7744 374.231 22.1244 373.985 22.551 373.811C22.9777 373.638 23.4544 373.551 23.981 373.551C24.4544 373.551 24.8644 373.628 25.211 373.781C25.5577 373.928 25.8244 374.145 26.011 374.431C26.2044 374.718 26.301 375.055 26.301 375.441C26.301 375.668 26.2677 375.891 26.201 376.111C26.141 376.331 26.0277 376.565 25.861 376.811C25.701 377.051 25.4644 377.325 25.151 377.631L22.481 380.251L22.281 379.971H26.621V380.611H21.711ZM30.2951 380.671C29.7551 380.671 29.2751 380.531 28.8551 380.251C28.4351 379.965 28.1051 379.558 27.8651 379.031C27.6251 378.498 27.5051 377.858 27.5051 377.111C27.5051 376.365 27.6251 375.728 27.8651 375.201C28.1051 374.668 28.4351 374.261 28.8551 373.981C29.2751 373.695 29.7551 373.551 30.2951 373.551C30.8351 373.551 31.3151 373.695 31.7351 373.981C32.1551 374.261 32.4851 374.668 32.7251 375.201C32.9718 375.728 33.0951 376.365 33.0951 377.111C33.0951 377.858 32.9718 378.498 32.7251 379.031C32.4851 379.558 32.1551 379.965 31.7351 380.251C31.3151 380.531 30.8351 380.671 30.2951 380.671ZM30.2951 380.011C30.7084 380.011 31.0684 379.901 31.3751 379.681C31.6818 379.455 31.9218 379.128 32.0951 378.701C32.2684 378.268 32.3551 377.738 32.3551 377.111C32.3551 376.485 32.2684 375.958 32.0951 375.531C31.9218 375.098 31.6818 374.771 31.3751 374.551C31.0684 374.325 30.7084 374.211 30.2951 374.211C29.8951 374.211 29.5384 374.325 29.2251 374.551C28.9118 374.771 28.6684 375.098 28.4951 375.531C28.3218 375.958 28.2351 376.485 28.2351 377.111C28.2351 377.738 28.3218 378.268 28.4951 378.701C28.6684 379.128 28.9118 379.455 29.2251 379.681C29.5384 379.901 29.8951 380.011 30.2951 380.011ZM35.3462 380.611V373.911L35.6662 374.251H33.6962V373.611H36.0662V380.611H35.3462ZM40.3995 380.671C39.8395 380.671 39.3561 380.591 38.9495 380.431C38.5495 380.271 38.2395 380.041 38.0195 379.741C37.8061 379.435 37.6995 379.075 37.6995 378.661C37.6995 378.261 37.8028 377.921 38.0095 377.641C38.2228 377.355 38.5295 377.135 38.9295 376.981C39.3361 376.828 39.8261 376.751 40.3995 376.751C40.9661 376.751 41.4528 376.828 41.8595 376.981C42.2661 377.135 42.5761 377.355 42.7895 377.641C43.0095 377.921 43.1195 378.261 43.1195 378.661C43.1195 379.075 43.0095 379.435 42.7895 379.741C42.5695 380.041 42.2561 380.271 41.8495 380.431C41.4428 380.591 40.9595 380.671 40.3995 380.671ZM40.3995 380.061C41.0195 380.061 41.5028 379.935 41.8495 379.681C42.2028 379.428 42.3795 379.085 42.3795 378.651C42.3795 378.218 42.2028 377.878 41.8495 377.631C41.5028 377.378 41.0195 377.251 40.3995 377.251C39.7795 377.251 39.2961 377.378 38.9495 377.631C38.6028 377.878 38.4295 378.218 38.4295 378.651C38.4295 379.085 38.6028 379.428 38.9495 379.681C39.2961 379.935 39.7795 380.061 40.3995 380.061ZM40.3995 377.161C39.8795 377.161 39.4361 377.091 39.0695 376.951C38.7095 376.811 38.4328 376.611 38.2395 376.351C38.0461 376.085 37.9495 375.768 37.9495 375.401C37.9495 375.015 38.0495 374.685 38.2495 374.411C38.4561 374.131 38.7428 373.918 39.1095 373.771C39.4761 373.625 39.9061 373.551 40.3995 373.551C40.8928 373.551 41.3228 373.625 41.6895 373.771C42.0628 373.918 42.3528 374.131 42.5595 374.411C42.7661 374.685 42.8695 375.015 42.8695 375.401C42.8695 375.768 42.7728 376.085 42.5795 376.351C42.3861 376.611 42.1028 376.811 41.7295 376.951C41.3628 377.091 40.9195 377.161 40.3995 377.161ZM40.3995 376.681C40.9461 376.681 41.3728 376.568 41.6795 376.341C41.9861 376.115 42.1395 375.811 42.1395 375.431C42.1395 375.031 41.9795 374.721 41.6595 374.501C41.3461 374.275 40.9261 374.161 40.3995 374.161C39.8728 374.161 39.4528 374.275 39.1395 374.501C38.8261 374.721 38.6695 375.028 38.6695 375.421C38.6695 375.808 38.8195 376.115 39.1195 376.341C39.4261 376.568 39.8528 376.681 40.3995 376.681Z" fill="#858C95"/>
<path d="M151.962 380.611V380.101L154.872 377.251C155.139 376.991 155.339 376.765 155.472 376.571C155.605 376.371 155.695 376.185 155.742 376.011C155.789 375.838 155.812 375.675 155.812 375.521C155.812 375.115 155.672 374.795 155.392 374.561C155.119 374.328 154.712 374.211 154.172 374.211C153.759 374.211 153.392 374.275 153.072 374.401C152.759 374.528 152.489 374.725 152.262 374.991L151.752 374.551C152.025 374.231 152.375 373.985 152.802 373.811C153.229 373.638 153.705 373.551 154.232 373.551C154.705 373.551 155.115 373.628 155.462 373.781C155.809 373.928 156.075 374.145 156.262 374.431C156.455 374.718 156.552 375.055 156.552 375.441C156.552 375.668 156.519 375.891 156.452 376.111C156.392 376.331 156.279 376.565 156.112 376.811C155.952 377.051 155.715 377.325 155.402 377.631L152.732 380.251L152.532 379.971H156.872V380.611H151.962ZM160.546 380.671C160.006 380.671 159.526 380.531 159.106 380.251C158.686 379.965 158.356 379.558 158.116 379.031C157.876 378.498 157.756 377.858 157.756 377.111C157.756 376.365 157.876 375.728 158.116 375.201C158.356 374.668 158.686 374.261 159.106 373.981C159.526 373.695 160.006 373.551 160.546 373.551C161.086 373.551 161.566 373.695 161.986 373.981C162.406 374.261 162.736 374.668 162.976 375.201C163.223 375.728 163.346 376.365 163.346 377.111C163.346 377.858 163.223 378.498 162.976 379.031C162.736 379.558 162.406 379.965 161.986 380.251C161.566 380.531 161.086 380.671 160.546 380.671ZM160.546 380.011C160.959 380.011 161.319 379.901 161.626 379.681C161.933 379.455 162.173 379.128 162.346 378.701C162.519 378.268 162.606 377.738 162.606 377.111C162.606 376.485 162.519 375.958 162.346 375.531C162.173 375.098 161.933 374.771 161.626 374.551C161.319 374.325 160.959 374.211 160.546 374.211C160.146 374.211 159.789 374.325 159.476 374.551C159.163 374.771 158.919 375.098 158.746 375.531C158.573 375.958 158.486 376.485 158.486 377.111C158.486 377.738 158.573 378.268 158.746 378.701C158.919 379.128 159.163 379.455 159.476 379.681C159.789 379.901 160.146 380.011 160.546 380.011ZM165.597 380.611V373.911L165.917 374.251H163.947V373.611H166.317V380.611H165.597ZM170.17 373.551C170.79 373.551 171.314 373.691 171.74 373.971C172.167 374.245 172.49 374.641 172.71 375.161C172.93 375.681 173.04 376.311 173.04 377.051C173.04 377.838 172.904 378.501 172.63 379.041C172.364 379.581 171.99 379.988 171.51 380.261C171.03 380.535 170.474 380.671 169.84 380.671C169.527 380.671 169.227 380.641 168.94 380.581C168.66 380.521 168.407 380.425 168.18 380.291L168.47 379.711C168.65 379.831 168.857 379.918 169.09 379.971C169.33 380.018 169.577 380.041 169.83 380.041C170.584 380.041 171.184 379.801 171.63 379.321C172.084 378.841 172.31 378.125 172.31 377.171C172.31 377.018 172.3 376.835 172.28 376.621C172.267 376.408 172.23 376.195 172.17 375.981L172.42 376.171C172.354 376.518 172.21 376.815 171.99 377.061C171.777 377.301 171.51 377.485 171.19 377.611C170.877 377.738 170.527 377.801 170.14 377.801C169.68 377.801 169.27 377.715 168.91 377.541C168.557 377.368 168.28 377.125 168.08 376.811C167.88 376.498 167.78 376.128 167.78 375.701C167.78 375.261 167.884 374.881 168.09 374.561C168.297 374.241 168.58 373.995 168.94 373.821C169.307 373.641 169.717 373.551 170.17 373.551ZM170.2 374.161C169.867 374.161 169.57 374.225 169.31 374.351C169.057 374.471 168.857 374.645 168.71 374.871C168.564 375.098 168.49 375.368 168.49 375.681C168.49 376.141 168.647 376.508 168.96 376.781C169.28 377.055 169.71 377.191 170.25 377.191C170.61 377.191 170.924 377.125 171.19 376.991C171.464 376.858 171.674 376.675 171.82 376.441C171.974 376.208 172.05 375.948 172.05 375.661C172.05 375.401 171.98 375.158 171.84 374.931C171.7 374.705 171.494 374.521 171.22 374.381C170.947 374.235 170.607 374.161 170.2 374.161Z" fill="#858C95"/>
<path d="M281.882 380.611V380.101L284.792 377.251C285.059 376.991 285.259 376.765 285.392 376.571C285.525 376.371 285.615 376.185 285.662 376.011C285.709 375.838 285.732 375.675 285.732 375.521C285.732 375.115 285.592 374.795 285.312 374.561C285.039 374.328 284.632 374.211 284.092 374.211C283.679 374.211 283.312 374.275 282.992 374.401C282.679 374.528 282.409 374.725 282.182 374.991L281.672 374.551C281.945 374.231 282.295 373.985 282.722 373.811C283.149 373.638 283.625 373.551 284.152 373.551C284.625 373.551 285.035 373.628 285.382 373.781C285.729 373.928 285.995 374.145 286.182 374.431C286.375 374.718 286.472 375.055 286.472 375.441C286.472 375.668 286.439 375.891 286.372 376.111C286.312 376.331 286.199 376.565 286.032 376.811C285.872 377.051 285.635 377.325 285.322 377.631L282.652 380.251L282.452 379.971H286.792V380.611H281.882ZM290.466 380.671C289.926 380.671 289.446 380.531 289.026 380.251C288.606 379.965 288.276 379.558 288.036 379.031C287.796 378.498 287.676 377.858 287.676 377.111C287.676 376.365 287.796 375.728 288.036 375.201C288.276 374.668 288.606 374.261 289.026 373.981C289.446 373.695 289.926 373.551 290.466 373.551C291.006 373.551 291.486 373.695 291.906 373.981C292.326 374.261 292.656 374.668 292.896 375.201C293.143 375.728 293.266 376.365 293.266 377.111C293.266 377.858 293.143 378.498 292.896 379.031C292.656 379.558 292.326 379.965 291.906 380.251C291.486 380.531 291.006 380.671 290.466 380.671ZM290.466 380.011C290.879 380.011 291.239 379.901 291.546 379.681C291.853 379.455 292.093 379.128 292.266 378.701C292.439 378.268 292.526 377.738 292.526 377.111C292.526 376.485 292.439 375.958 292.266 375.531C292.093 375.098 291.853 374.771 291.546 374.551C291.239 374.325 290.879 374.211 290.466 374.211C290.066 374.211 289.709 374.325 289.396 374.551C289.083 374.771 288.839 375.098 288.666 375.531C288.493 375.958 288.406 376.485 288.406 377.111C288.406 377.738 288.493 378.268 288.666 378.701C288.839 379.128 289.083 379.455 289.396 379.681C289.709 379.901 290.066 380.011 290.466 380.011ZM294.167 380.611V380.101L297.077 377.251C297.344 376.991 297.544 376.765 297.677 376.571C297.81 376.371 297.9 376.185 297.947 376.011C297.994 375.838 298.017 375.675 298.017 375.521C298.017 375.115 297.877 374.795 297.597 374.561C297.324 374.328 296.917 374.211 296.377 374.211C295.964 374.211 295.597 374.275 295.277 374.401C294.964 374.528 294.694 374.725 294.467 374.991L293.957 374.551C294.23 374.231 294.58 373.985 295.007 373.811C295.434 373.638 295.91 373.551 296.437 373.551C296.91 373.551 297.32 373.628 297.667 373.781C298.014 373.928 298.28 374.145 298.467 374.431C298.66 374.718 298.757 375.055 298.757 375.441C298.757 375.668 298.724 375.891 298.657 376.111C298.597 376.331 298.484 376.565 298.317 376.811C298.157 377.051 297.92 377.325 297.607 377.631L294.937 380.251L294.737 379.971H299.077V380.611H294.167ZM302.751 380.671C302.211 380.671 301.731 380.531 301.311 380.251C300.891 379.965 300.561 379.558 300.321 379.031C300.081 378.498 299.961 377.858 299.961 377.111C299.961 376.365 300.081 375.728 300.321 375.201C300.561 374.668 300.891 374.261 301.311 373.981C301.731 373.695 302.211 373.551 302.751 373.551C303.291 373.551 303.771 373.695 304.191 373.981C304.611 374.261 304.941 374.668 305.181 375.201C305.428 375.728 305.551 376.365 305.551 377.111C305.551 377.858 305.428 378.498 305.181 379.031C304.941 379.558 304.611 379.965 304.191 380.251C303.771 380.531 303.291 380.671 302.751 380.671ZM302.751 380.011C303.164 380.011 303.524 379.901 303.831 379.681C304.138 379.455 304.378 379.128 304.551 378.701C304.724 378.268 304.811 377.738 304.811 377.111C304.811 376.485 304.724 375.958 304.551 375.531C304.378 375.098 304.138 374.771 303.831 374.551C303.524 374.325 303.164 374.211 302.751 374.211C302.351 374.211 301.994 374.325 301.681 374.551C301.368 374.771 301.124 375.098 300.951 375.531C300.778 375.958 300.691 376.485 300.691 377.111C300.691 377.738 300.778 378.268 300.951 378.701C301.124 379.128 301.368 379.455 301.681 379.681C301.994 379.901 302.351 380.011 302.751 380.011Z" fill="#858C95"/>
<path d="M413.486 380.611V380.101L416.396 377.251C416.662 376.991 416.862 376.765 416.996 376.571C417.129 376.371 417.219 376.185 417.266 376.011C417.312 375.838 417.336 375.675 417.336 375.521C417.336 375.115 417.196 374.795 416.916 374.561C416.642 374.328 416.236 374.211 415.696 374.211C415.282 374.211 414.916 374.275 414.596 374.401C414.282 374.528 414.012 374.725 413.786 374.991L413.276 374.551C413.549 374.231 413.899 373.985 414.326 373.811C414.752 373.638 415.229 373.551 415.756 373.551C416.229 373.551 416.639 373.628 416.986 373.781C417.332 373.928 417.599 374.145 417.786 374.431C417.979 374.718 418.076 375.055 418.076 375.441C418.076 375.668 418.042 375.891 417.976 376.111C417.916 376.331 417.802 376.565 417.636 376.811C417.476 377.051 417.239 377.325 416.926 377.631L414.256 380.251L414.056 379.971H418.396V380.611H413.486ZM422.07 380.671C421.53 380.671 421.05 380.531 420.63 380.251C420.21 379.965 419.88 379.558 419.64 379.031C419.4 378.498 419.28 377.858 419.28 377.111C419.28 376.365 419.4 375.728 419.64 375.201C419.88 374.668 420.21 374.261 420.63 373.981C421.05 373.695 421.53 373.551 422.07 373.551C422.61 373.551 423.09 373.695 423.51 373.981C423.93 374.261 424.26 374.668 424.5 375.201C424.746 375.728 424.87 376.365 424.87 377.111C424.87 377.858 424.746 378.498 424.5 379.031C424.26 379.558 423.93 379.965 423.51 380.251C423.09 380.531 422.61 380.671 422.07 380.671ZM422.07 380.011C422.483 380.011 422.843 379.901 423.15 379.681C423.456 379.455 423.696 379.128 423.87 378.701C424.043 378.268 424.13 377.738 424.13 377.111C424.13 376.485 424.043 375.958 423.87 375.531C423.696 375.098 423.456 374.771 423.15 374.551C422.843 374.325 422.483 374.211 422.07 374.211C421.67 374.211 421.313 374.325 421 374.551C420.686 374.771 420.443 375.098 420.27 375.531C420.096 375.958 420.01 376.485 420.01 377.111C420.01 377.738 420.096 378.268 420.27 378.701C420.443 379.128 420.686 379.455 421 379.681C421.313 379.901 421.67 380.011 422.07 380.011ZM425.771 380.611V380.101L428.681 377.251C428.947 376.991 429.147 376.765 429.281 376.571C429.414 376.371 429.504 376.185 429.551 376.011C429.597 375.838 429.621 375.675 429.621 375.521C429.621 375.115 429.481 374.795 429.201 374.561C428.927 374.328 428.521 374.211 427.981 374.211C427.567 374.211 427.201 374.275 426.881 374.401C426.567 374.528 426.297 374.725 426.071 374.991L425.561 374.551C425.834 374.231 426.184 373.985 426.611 373.811C427.037 373.638 427.514 373.551 428.041 373.551C428.514 373.551 428.924 373.628 429.271 373.781C429.617 373.928 429.884 374.145 430.071 374.431C430.264 374.718 430.361 375.055 430.361 375.441C430.361 375.668 430.327 375.891 430.261 376.111C430.201 376.331 430.087 376.565 429.921 376.811C429.761 377.051 429.524 377.325 429.211 377.631L426.541 380.251L426.341 379.971H430.681V380.611H425.771ZM432.804 380.611V373.911L433.124 374.251H431.154V373.611H433.524V380.611H432.804Z" fill="#858C95"/>
<path d="M531.556 380.611V380.101L534.466 377.251C534.733 376.991 534.933 376.765 535.066 376.571C535.199 376.371 535.289 376.185 535.336 376.011C535.383 375.838 535.406 375.675 535.406 375.521C535.406 375.115 535.266 374.795 534.986 374.561C534.713 374.328 534.306 374.211 533.766 374.211C533.353 374.211 532.986 374.275 532.666 374.401C532.353 374.528 532.083 374.725 531.856 374.991L531.346 374.551C531.619 374.231 531.969 373.985 532.396 373.811C532.823 373.638 533.299 373.551 533.826 373.551C534.299 373.551 534.709 373.628 535.056 373.781C535.403 373.928 535.669 374.145 535.856 374.431C536.049 374.718 536.146 375.055 536.146 375.441C536.146 375.668 536.113 375.891 536.046 376.111C535.986 376.331 535.873 376.565 535.706 376.811C535.546 377.051 535.309 377.325 534.996 377.631L532.326 380.251L532.126 379.971H536.466V380.611H531.556ZM540.14 380.671C539.6 380.671 539.12 380.531 538.7 380.251C538.28 379.965 537.95 379.558 537.71 379.031C537.47 378.498 537.35 377.858 537.35 377.111C537.35 376.365 537.47 375.728 537.71 375.201C537.95 374.668 538.28 374.261 538.7 373.981C539.12 373.695 539.6 373.551 540.14 373.551C540.68 373.551 541.16 373.695 541.58 373.981C542 374.261 542.33 374.668 542.57 375.201C542.817 375.728 542.94 376.365 542.94 377.111C542.94 377.858 542.817 378.498 542.57 379.031C542.33 379.558 542 379.965 541.58 380.251C541.16 380.531 540.68 380.671 540.14 380.671ZM540.14 380.011C540.553 380.011 540.913 379.901 541.22 379.681C541.527 379.455 541.767 379.128 541.94 378.701C542.113 378.268 542.2 377.738 542.2 377.111C542.2 376.485 542.113 375.958 541.94 375.531C541.767 375.098 541.527 374.771 541.22 374.551C540.913 374.325 540.553 374.211 540.14 374.211C539.74 374.211 539.383 374.325 539.07 374.551C538.757 374.771 538.513 375.098 538.34 375.531C538.167 375.958 538.08 376.485 538.08 377.111C538.08 377.738 538.167 378.268 538.34 378.701C538.513 379.128 538.757 379.455 539.07 379.681C539.383 379.901 539.74 380.011 540.14 380.011ZM543.841 380.611V380.101L546.751 377.251C547.018 376.991 547.218 376.765 547.351 376.571C547.484 376.371 547.574 376.185 547.621 376.011C547.668 375.838 547.691 375.675 547.691 375.521C547.691 375.115 547.551 374.795 547.271 374.561C546.998 374.328 546.591 374.211 546.051 374.211C545.638 374.211 545.271 374.275 544.951 374.401C544.638 374.528 544.368 374.725 544.141 374.991L543.631 374.551C543.904 374.231 544.254 373.985 544.681 373.811C545.108 373.638 545.584 373.551 546.111 373.551C546.584 373.551 546.994 373.628 547.341 373.781C547.688 373.928 547.954 374.145 548.141 374.431C548.334 374.718 548.431 375.055 548.431 375.441C548.431 375.668 548.398 375.891 548.331 376.111C548.271 376.331 548.158 376.565 547.991 376.811C547.831 377.051 547.594 377.325 547.281 377.631L544.611 380.251L544.411 379.971H548.751V380.611H543.841ZM549.525 380.611V380.101L552.435 377.251C552.701 376.991 552.901 376.765 553.035 376.571C553.168 376.371 553.258 376.185 553.305 376.011C553.351 375.838 553.375 375.675 553.375 375.521C553.375 375.115 553.235 374.795 552.955 374.561C552.681 374.328 552.275 374.211 551.735 374.211C551.321 374.211 550.955 374.275 550.635 374.401C550.321 374.528 550.051 374.725 549.825 374.991L549.315 374.551C549.588 374.231 549.938 373.985 550.365 373.811C550.791 373.638 551.268 373.551 551.795 373.551C552.268 373.551 552.678 373.628 553.025 373.781C553.371 373.928 553.638 374.145 553.825 374.431C554.018 374.718 554.115 375.055 554.115 375.441C554.115 375.668 554.081 375.891 554.015 376.111C553.955 376.331 553.841 376.565 553.675 376.811C553.515 377.051 553.278 377.325 552.965 377.631L550.295 380.251L550.095 379.971H554.435V380.611H549.525Z" fill="#858C95"/>
<path d="M6.74598 363.94V357.24L7.06598 357.58H5.09598V356.94H7.46598V363.94H6.74598ZM11.3493 364C10.8493 364 10.3726 363.92 9.91926 363.76C9.46593 363.594 9.10593 363.374 8.83926 363.1L9.18926 362.53C9.40926 362.764 9.70926 362.957 10.0893 363.11C10.4759 363.264 10.8926 363.34 11.3393 363.34C11.9326 363.34 12.3826 363.21 12.6893 362.95C13.0026 362.684 13.1593 362.337 13.1593 361.91C13.1593 361.61 13.0859 361.354 12.9393 361.14C12.7993 360.92 12.5593 360.75 12.2193 360.63C11.8793 360.51 11.4126 360.45 10.8193 360.45H9.32926L9.68926 356.94H13.5193V357.58H9.97926L10.3493 357.23L10.0393 360.17L9.66926 359.81H10.9793C11.6859 359.81 12.2526 359.897 12.6793 360.07C13.1059 360.244 13.4126 360.487 13.5993 360.8C13.7926 361.107 13.8893 361.467 13.8893 361.88C13.8893 362.274 13.7959 362.634 13.6093 362.96C13.4226 363.28 13.1426 363.534 12.7693 363.72C12.3959 363.907 11.9226 364 11.3493 364ZM17.5933 364C17.0533 364 16.5733 363.86 16.1533 363.58C15.7333 363.294 15.4033 362.887 15.1633 362.36C14.9233 361.827 14.8033 361.187 14.8033 360.44C14.8033 359.694 14.9233 359.057 15.1633 358.53C15.4033 357.997 15.7333 357.59 16.1533 357.31C16.5733 357.024 17.0533 356.88 17.5933 356.88C18.1333 356.88 18.6133 357.024 19.0333 357.31C19.4533 357.59 19.7833 357.997 20.0233 358.53C20.27 359.057 20.3933 359.694 20.3933 360.44C20.3933 361.187 20.27 361.827 20.0233 362.36C19.7833 362.887 19.4533 363.294 19.0333 363.58C18.6133 363.86 18.1333 364 17.5933 364ZM17.5933 363.34C18.0067 363.34 18.3667 363.23 18.6733 363.01C18.98 362.784 19.22 362.457 19.3933 362.03C19.5667 361.597 19.6533 361.067 19.6533 360.44C19.6533 359.814 19.5667 359.287 19.3933 358.86C19.22 358.427 18.98 358.1 18.6733 357.88C18.3667 357.654 18.0067 357.54 17.5933 357.54C17.1933 357.54 16.8367 357.654 16.5233 357.88C16.21 358.1 15.9667 358.427 15.7933 358.86C15.62 359.287 15.5333 359.814 15.5333 360.44C15.5333 361.067 15.62 361.597 15.7933 362.03C15.9667 362.457 16.21 362.784 16.5233 363.01C16.8367 363.23 17.1933 363.34 17.5933 363.34Z" fill="#858C95"/>
<path d="M6.31697 311.362V304.662L6.63697 305.002H4.66697V304.362H7.03697V311.362H6.31697ZM11.5803 311.422C10.9603 311.422 10.4369 311.285 10.0103 311.012C9.58359 310.732 9.26025 310.332 9.04025 309.812C8.82025 309.285 8.71025 308.655 8.71025 307.922C8.71025 307.128 8.84359 306.465 9.11025 305.932C9.38359 305.392 9.76025 304.985 10.2403 304.712C10.7203 304.438 11.2769 304.302 11.9103 304.302C12.2236 304.302 12.5236 304.332 12.8103 304.392C13.0969 304.452 13.3503 304.548 13.5703 304.682L13.2803 305.262C13.1003 305.142 12.8936 305.058 12.6603 305.012C12.4269 304.958 12.1803 304.932 11.9203 304.932C11.1669 304.932 10.5636 305.172 10.1103 305.652C9.66359 306.132 9.44025 306.848 9.44025 307.802C9.44025 307.948 9.44692 308.132 9.46025 308.352C9.48025 308.565 9.52025 308.778 9.58025 308.992L9.33025 308.802C9.40359 308.455 9.54692 308.162 9.76025 307.922C9.97359 307.675 10.2403 307.488 10.5603 307.362C10.8803 307.235 11.2303 307.172 11.6103 307.172C12.0769 307.172 12.4869 307.258 12.8403 307.432C13.1936 307.605 13.4703 307.848 13.6703 308.162C13.8703 308.475 13.9703 308.845 13.9703 309.272C13.9703 309.705 13.8669 310.085 13.6603 310.412C13.4536 310.732 13.1669 310.982 12.8003 311.162C12.4403 311.335 12.0336 311.422 11.5803 311.422ZM11.5503 310.812C11.8836 310.812 12.1769 310.752 12.4303 310.632C12.6903 310.505 12.8936 310.328 13.0403 310.102C13.1869 309.868 13.2603 309.598 13.2603 309.292C13.2603 308.832 13.1003 308.465 12.7803 308.192C12.4669 307.918 12.0403 307.782 11.5003 307.782C11.1403 307.782 10.8269 307.848 10.5603 307.982C10.2936 308.115 10.0836 308.298 9.93025 308.532C9.77692 308.758 9.70025 309.018 9.70025 309.312C9.70025 309.565 9.77025 309.808 9.91025 310.042C10.0503 310.268 10.2569 310.455 10.5303 310.602C10.8103 310.742 11.1503 310.812 11.5503 310.812ZM17.594 311.422C17.054 311.422 16.574 311.282 16.154 311.002C15.734 310.715 15.404 310.308 15.164 309.782C14.924 309.248 14.804 308.608 14.804 307.862C14.804 307.115 14.924 306.478 15.164 305.952C15.404 305.418 15.734 305.012 16.154 304.732C16.574 304.445 17.054 304.302 17.594 304.302C18.134 304.302 18.614 304.445 19.034 304.732C19.454 305.012 19.784 305.418 20.024 305.952C20.2707 306.478 20.394 307.115 20.394 307.862C20.394 308.608 20.2707 309.248 20.024 309.782C19.784 310.308 19.454 310.715 19.034 311.002C18.614 311.282 18.134 311.422 17.594 311.422ZM17.594 310.762C18.0073 310.762 18.3673 310.652 18.674 310.432C18.9807 310.205 19.2207 309.878 19.394 309.452C19.5673 309.018 19.654 308.488 19.654 307.862C19.654 307.235 19.5673 306.708 19.394 306.282C19.2207 305.848 18.9807 305.522 18.674 305.302C18.3673 305.075 18.0073 304.962 17.594 304.962C17.194 304.962 16.8373 305.075 16.524 305.302C16.2107 305.522 15.9673 305.848 15.794 306.282C15.6207 306.708 15.534 307.235 15.534 307.862C15.534 308.488 15.6207 309.018 15.794 309.452C15.9673 309.878 16.2107 310.205 16.524 310.432C16.8373 310.652 17.194 310.762 17.594 310.762Z" fill="#858C95"/>
<path d="M6.71668 260.066V253.366L7.03668 253.706H5.06668V253.066H7.43668V260.066H6.71668ZM10.34 260.066L13.36 253.386L13.58 253.706H9.24997L9.61997 253.356V255.016H8.90997V253.066H14.05V253.576L11.12 260.066H10.34ZM17.5933 260.126C17.0533 260.126 16.5733 259.986 16.1533 259.706C15.7333 259.419 15.4033 259.013 15.1633 258.486C14.9233 257.953 14.8033 257.313 14.8033 256.566C14.8033 255.819 14.9233 255.183 15.1633 254.656C15.4033 254.123 15.7333 253.716 16.1533 253.436C16.5733 253.149 17.0533 253.006 17.5933 253.006C18.1333 253.006 18.6133 253.149 19.0333 253.436C19.4533 253.716 19.7833 254.123 20.0233 254.656C20.27 255.183 20.3933 255.819 20.3933 256.566C20.3933 257.313 20.27 257.953 20.0233 258.486C19.7833 259.013 19.4533 259.419 19.0333 259.706C18.6133 259.986 18.1333 260.126 17.5933 260.126ZM17.5933 259.466C18.0067 259.466 18.3667 259.356 18.6733 259.136C18.98 258.909 19.22 258.583 19.3933 258.156C19.5667 257.723 19.6533 257.193 19.6533 256.566C19.6533 255.939 19.5667 255.413 19.3933 254.986C19.22 254.553 18.98 254.226 18.6733 254.006C18.3667 253.779 18.0067 253.666 17.5933 253.666C17.1933 253.666 16.8367 253.779 16.5233 254.006C16.21 254.226 15.9667 254.553 15.7933 254.986C15.62 255.413 15.5333 255.939 15.5333 256.566C15.5333 257.193 15.62 257.723 15.7933 258.156C15.9667 258.583 16.21 258.909 16.5233 259.136C16.8367 259.356 17.1933 259.466 17.5933 259.466Z" fill="#858C95"/>
<path d="M6.03377 208.771V202.071L6.35377 202.411H4.38377V201.771H6.75377V208.771H6.03377ZM11.087 208.831C10.527 208.831 10.0437 208.751 9.63705 208.591C9.23705 208.431 8.92705 208.201 8.70705 207.901C8.49372 207.594 8.38705 207.234 8.38705 206.821C8.38705 206.421 8.49038 206.081 8.69705 205.801C8.91038 205.514 9.21705 205.294 9.61705 205.141C10.0237 204.988 10.5137 204.911 11.087 204.911C11.6537 204.911 12.1404 204.988 12.547 205.141C12.9537 205.294 13.2637 205.514 13.477 205.801C13.697 206.081 13.807 206.421 13.807 206.821C13.807 207.234 13.697 207.594 13.477 207.901C13.257 208.201 12.9437 208.431 12.537 208.591C12.1304 208.751 11.647 208.831 11.087 208.831ZM11.087 208.221C11.707 208.221 12.1904 208.094 12.537 207.841C12.8904 207.588 13.067 207.244 13.067 206.811C13.067 206.378 12.8904 206.038 12.537 205.791C12.1904 205.538 11.707 205.411 11.087 205.411C10.467 205.411 9.98372 205.538 9.63705 205.791C9.29038 206.038 9.11705 206.378 9.11705 206.811C9.11705 207.244 9.29038 207.588 9.63705 207.841C9.98372 208.094 10.467 208.221 11.087 208.221ZM11.087 205.321C10.567 205.321 10.1237 205.251 9.75705 205.111C9.39705 204.971 9.12038 204.771 8.92705 204.511C8.73372 204.244 8.63705 203.928 8.63705 203.561C8.63705 203.174 8.73705 202.844 8.93705 202.571C9.14372 202.291 9.43038 202.078 9.79705 201.931C10.1637 201.784 10.5937 201.711 11.087 201.711C11.5804 201.711 12.0104 201.784 12.377 201.931C12.7504 202.078 13.0404 202.291 13.247 202.571C13.4537 202.844 13.557 203.174 13.557 203.561C13.557 203.928 13.4604 204.244 13.267 204.511C13.0737 204.771 12.7904 204.971 12.417 205.111C12.0504 205.251 11.607 205.321 11.087 205.321ZM11.087 204.841C11.6337 204.841 12.0604 204.728 12.367 204.501C12.6737 204.274 12.827 203.971 12.827 203.591C12.827 203.191 12.667 202.881 12.347 202.661C12.0337 202.434 11.6137 202.321 11.087 202.321C10.5604 202.321 10.1404 202.434 9.82705 202.661C9.51372 202.881 9.35705 203.188 9.35705 203.581C9.35705 203.968 9.50705 204.274 9.80705 204.501C10.1137 204.728 10.5404 204.841 11.087 204.841ZM17.594 208.831C17.054 208.831 16.574 208.691 16.154 208.411C15.734 208.124 15.404 207.718 15.164 207.191C14.924 206.658 14.804 206.018 14.804 205.271C14.804 204.524 14.924 203.888 15.164 203.361C15.404 202.828 15.734 202.421 16.154 202.141C16.574 201.854 17.054 201.711 17.594 201.711C18.134 201.711 18.614 201.854 19.034 202.141C19.454 202.421 19.784 202.828 20.024 203.361C20.2707 203.888 20.394 204.524 20.394 205.271C20.394 206.018 20.2707 206.658 20.024 207.191C19.784 207.718 19.454 208.124 19.034 208.411C18.614 208.691 18.134 208.831 17.594 208.831ZM17.594 208.171C18.0073 208.171 18.3673 208.061 18.674 207.841C18.9807 207.614 19.2207 207.288 19.394 206.861C19.5673 206.428 19.654 205.898 19.654 205.271C19.654 204.644 19.5673 204.118 19.394 203.691C19.2207 203.258 18.9807 202.931 18.674 202.711C18.3673 202.484 18.0073 202.371 17.594 202.371C17.194 202.371 16.8373 202.484 16.524 202.711C16.2107 202.931 15.9673 203.258 15.794 203.691C15.6207 204.118 15.534 204.644 15.534 205.271C15.534 205.898 15.6207 206.428 15.794 206.861C15.9673 207.288 16.2107 207.614 16.524 207.841C16.8373 208.061 17.194 208.171 17.594 208.171Z" fill="#858C95"/>
<path d="M6.31697 157.475V150.775L6.63697 151.115H4.66697V150.475H7.03697V157.475H6.31697ZM10.8903 150.415C11.5103 150.415 12.0336 150.555 12.4603 150.835C12.8869 151.109 13.2103 151.505 13.4303 152.025C13.6503 152.545 13.7603 153.175 13.7603 153.915C13.7603 154.702 13.6236 155.365 13.3503 155.905C13.0836 156.445 12.7103 156.852 12.2303 157.125C11.7503 157.399 11.1936 157.535 10.5603 157.535C10.2469 157.535 9.94692 157.505 9.66025 157.445C9.38025 157.385 9.12692 157.289 8.90025 157.155L9.19025 156.575C9.37025 156.695 9.57692 156.782 9.81025 156.835C10.0503 156.882 10.2969 156.905 10.5503 156.905C11.3036 156.905 11.9036 156.665 12.3503 156.185C12.8036 155.705 13.0303 154.989 13.0303 154.035C13.0303 153.882 13.0203 153.699 13.0003 153.485C12.9869 153.272 12.9503 153.059 12.8903 152.845L13.1403 153.035C13.0736 153.382 12.9303 153.679 12.7103 153.925C12.4969 154.165 12.2303 154.349 11.9103 154.475C11.5969 154.602 11.2469 154.665 10.8603 154.665C10.4003 154.665 9.99025 154.579 9.63025 154.405C9.27692 154.232 9.00025 153.989 8.80025 153.675C8.60025 153.362 8.50025 152.992 8.50025 152.565C8.50025 152.125 8.60359 151.745 8.81025 151.425C9.01692 151.105 9.30025 150.859 9.66025 150.685C10.0269 150.505 10.4369 150.415 10.8903 150.415ZM10.9203 151.025C10.5869 151.025 10.2903 151.089 10.0303 151.215C9.77692 151.335 9.57692 151.509 9.43025 151.735C9.28359 151.962 9.21025 152.232 9.21025 152.545C9.21025 153.005 9.36692 153.372 9.68025 153.645C10.0003 153.919 10.4303 154.055 10.9703 154.055C11.3303 154.055 11.6436 153.989 11.9103 153.855C12.1836 153.722 12.3936 153.539 12.5403 153.305C12.6936 153.072 12.7703 152.812 12.7703 152.525C12.7703 152.265 12.7003 152.022 12.5603 151.795C12.4203 151.569 12.2136 151.385 11.9403 151.245C11.6669 151.099 11.3269 151.025 10.9203 151.025ZM17.594 157.535C17.054 157.535 16.574 157.395 16.154 157.115C15.734 156.829 15.404 156.422 15.164 155.895C14.924 155.362 14.804 154.722 14.804 153.975C14.804 153.229 14.924 152.592 15.164 152.065C15.404 151.532 15.734 151.125 16.154 150.845C16.574 150.559 17.054 150.415 17.594 150.415C18.134 150.415 18.614 150.559 19.034 150.845C19.454 151.125 19.784 151.532 20.024 152.065C20.2707 152.592 20.394 153.229 20.394 153.975C20.394 154.722 20.2707 155.362 20.024 155.895C19.784 156.422 19.454 156.829 19.034 157.115C18.614 157.395 18.134 157.535 17.594 157.535ZM17.594 156.875C18.0073 156.875 18.3673 156.765 18.674 156.545C18.9807 156.319 19.2207 155.992 19.394 155.565C19.5673 155.132 19.654 154.602 19.654 153.975C19.654 153.349 19.5673 152.822 19.394 152.395C19.2207 151.962 18.9807 151.635 18.674 151.415C18.3673 151.189 18.0073 151.075 17.594 151.075C17.194 151.075 16.8373 151.189 16.524 151.415C16.2107 151.635 15.9673 151.962 15.794 152.395C15.6207 152.822 15.534 153.349 15.534 153.975C15.534 154.602 15.6207 155.132 15.794 155.565C15.9673 155.992 16.2107 156.319 16.524 156.545C16.8373 156.765 17.194 156.875 17.594 156.875Z" fill="#858C95"/>
<path d="M2.38923 106.179V105.669L5.29923 102.819C5.56589 102.559 5.76589 102.333 5.89923 102.139C6.03256 101.939 6.12256 101.753 6.16923 101.579C6.21589 101.406 6.23923 101.243 6.23923 101.089C6.23923 100.683 6.09923 100.363 5.81923 100.129C5.54589 99.8959 5.13923 99.7792 4.59923 99.7792C4.18589 99.7792 3.81923 99.8425 3.49923 99.9692C3.18589 100.096 2.91589 100.293 2.68923 100.559L2.17923 100.119C2.45256 99.7992 2.80256 99.5525 3.22923 99.3792C3.65589 99.2059 4.13256 99.1192 4.65923 99.1192C5.13256 99.1192 5.54256 99.1959 5.88923 99.3492C6.23589 99.4959 6.50256 99.7125 6.68923 99.9992C6.88256 100.286 6.97923 100.623 6.97923 101.009C6.97923 101.236 6.94589 101.459 6.87923 101.679C6.81923 101.899 6.70589 102.133 6.53923 102.379C6.37923 102.619 6.14256 102.893 5.82923 103.199L3.15923 105.819L2.95923 105.539H7.29923V106.179H2.38923ZM10.9733 106.239C10.4333 106.239 9.95329 106.099 9.53329 105.819C9.11329 105.533 8.78329 105.126 8.54329 104.599C8.30329 104.066 8.18329 103.426 8.18329 102.679C8.18329 101.933 8.30329 101.296 8.54329 100.769C8.78329 100.236 9.11329 99.8292 9.53329 99.5492C9.95329 99.2625 10.4333 99.1192 10.9733 99.1192C11.5133 99.1192 11.9933 99.2625 12.4133 99.5492C12.8333 99.8292 13.1633 100.236 13.4033 100.769C13.65 101.296 13.7733 101.933 13.7733 102.679C13.7733 103.426 13.65 104.066 13.4033 104.599C13.1633 105.126 12.8333 105.533 12.4133 105.819C11.9933 106.099 11.5133 106.239 10.9733 106.239ZM10.9733 105.579C11.3866 105.579 11.7466 105.469 12.0533 105.249C12.36 105.023 12.6 104.696 12.7733 104.269C12.9466 103.836 13.0333 103.306 13.0333 102.679C13.0333 102.053 12.9466 101.526 12.7733 101.099C12.6 100.666 12.36 100.339 12.0533 100.119C11.7466 99.8925 11.3866 99.7792 10.9733 99.7792C10.5733 99.7792 10.2166 99.8925 9.90329 100.119C9.58995 100.339 9.34662 100.666 9.17329 101.099C8.99995 101.526 8.91329 102.053 8.91329 102.679C8.91329 103.306 8.99995 103.836 9.17329 104.269C9.34662 104.696 9.58995 105.023 9.90329 105.249C10.2166 105.469 10.5733 105.579 10.9733 105.579ZM17.5944 106.239C17.0544 106.239 16.5744 106.099 16.1544 105.819C15.7344 105.533 15.4044 105.126 15.1644 104.599C14.9244 104.066 14.8044 103.426 14.8044 102.679C14.8044 101.933 14.9244 101.296 15.1644 100.769C15.4044 100.236 15.7344 99.8292 16.1544 99.5492C16.5744 99.2625 17.0544 99.1192 17.5944 99.1192C18.1344 99.1192 18.6144 99.2625 19.0344 99.5492C19.4544 99.8292 19.7844 100.236 20.0244 100.769C20.271 101.296 20.3944 101.933 20.3944 102.679C20.3944 103.426 20.271 104.066 20.0244 104.599C19.7844 105.126 19.4544 105.533 19.0344 105.819C18.6144 106.099 18.1344 106.239 17.5944 106.239ZM17.5944 105.579C18.0077 105.579 18.3677 105.469 18.6744 105.249C18.981 105.023 19.221 104.696 19.3944 104.269C19.5677 103.836 19.6544 103.306 19.6544 102.679C19.6544 102.053 19.5677 101.526 19.3944 101.099C19.221 100.666 18.981 100.339 18.6744 100.119C18.3677 99.8925 18.0077 99.7792 17.5944 99.7792C17.1944 99.7792 16.8377 99.8925 16.5244 100.119C16.211 100.339 15.9677 100.666 15.7944 101.099C15.621 101.526 15.5344 102.053 15.5344 102.679C15.5344 103.306 15.621 103.836 15.7944 104.269C15.9677 104.696 16.211 105.023 16.5244 105.249C16.8377 105.469 17.1944 105.579 17.5944 105.579Z" fill="#858C95"/>
<path d="M5.37645 54.8842V54.3742L8.28645 51.5242C8.55312 51.2642 8.75312 51.0375 8.88645 50.8442C9.01978 50.6442 9.10978 50.4575 9.15645 50.2842C9.20312 50.1108 9.22645 49.9475 9.22645 49.7942C9.22645 49.3875 9.08645 49.0675 8.80645 48.8342C8.53312 48.6008 8.12645 48.4842 7.58645 48.4842C7.17312 48.4842 6.80645 48.5475 6.48645 48.6742C6.17312 48.8008 5.90312 48.9975 5.67645 49.2642L5.16645 48.8242C5.43978 48.5042 5.78978 48.2575 6.21645 48.0842C6.64312 47.9108 7.11978 47.8242 7.64645 47.8242C8.11978 47.8242 8.52978 47.9008 8.87645 48.0542C9.22312 48.2008 9.48978 48.4175 9.67645 48.7042C9.86978 48.9908 9.96645 49.3275 9.96645 49.7142C9.96645 49.9408 9.93312 50.1642 9.86645 50.3842C9.80645 50.6042 9.69312 50.8375 9.52645 51.0842C9.36645 51.3242 9.12978 51.5975 8.81645 51.9042L6.14645 54.5242L5.94645 54.2442H10.2865V54.8842H5.37645ZM12.41 54.8842V48.1842L12.73 48.5242H10.76V47.8842H13.13V54.8842H12.41ZM17.5933 54.9442C17.0533 54.9442 16.5733 54.8042 16.1533 54.5242C15.7333 54.2375 15.4033 53.8308 15.1633 53.3042C14.9233 52.7708 14.8033 52.1308 14.8033 51.3842C14.8033 50.6375 14.9233 50.0008 15.1633 49.4742C15.4033 48.9408 15.7333 48.5342 16.1533 48.2542C16.5733 47.9675 17.0533 47.8242 17.5933 47.8242C18.1333 47.8242 18.6133 47.9675 19.0333 48.2542C19.4533 48.5342 19.7833 48.9408 20.0233 49.4742C20.27 50.0008 20.3933 50.6375 20.3933 51.3842C20.3933 52.1308 20.27 52.7708 20.0233 53.3042C19.7833 53.8308 19.4533 54.2375 19.0333 54.5242C18.6133 54.8042 18.1333 54.9442 17.5933 54.9442ZM17.5933 54.2842C18.0067 54.2842 18.3667 54.1742 18.6733 53.9542C18.98 53.7275 19.22 53.4008 19.3933 52.9742C19.5667 52.5408 19.6533 52.0108 19.6533 51.3842C19.6533 50.7575 19.5667 50.2308 19.3933 49.8042C19.22 49.3708 18.98 49.0442 18.6733 48.8242C18.3667 48.5975 18.0067 48.4842 17.5933 48.4842C17.1933 48.4842 16.8367 48.5975 16.5233 48.8242C16.21 49.0442 15.9667 49.3708 15.7933 49.8042C15.62 50.2308 15.5333 50.7575 15.5333 51.3842C15.5333 52.0108 15.62 52.5408 15.7933 52.9742C15.9667 53.4008 16.21 53.7275 16.5233 53.9542C16.8367 54.1742 17.1933 54.2842 17.5933 54.2842Z" fill="#858C95"/>
<path d="M31.908 333.068C31.908 333.068 110.303 310.212 162.567 298.063C214.831 285.914 240.963 283.649 293.226 272.323C345.49 260.998 371.622 272.323 423.886 241.436C476.149 210.549 554.545 63.3193 554.545 63.3193" stroke="#2D6FD0" stroke-width="2"/>
<path d="M31 338C29.6741 338 28.4026 337.474 27.4649 336.536C26.5273 335.599 26.0003 334.327 26 333.002C25.9997 331.676 26.526 330.404 27.4631 329.466C28.4003 328.528 29.6716 328.001 30.9975 328C32.3234 328 33.5952 328.526 34.5333 329.462C35.4714 330.399 35.999 331.671 36 332.997C36.001 334.322 35.4753 335.594 34.5386 336.533C33.6019 337.471 32.3309 337.999 31.005 338H31Z" fill="#2D6FD0"/>
<path d="M161 303C159.674 303 158.403 302.474 157.465 301.536C156.527 300.599 156 299.327 156 298.002C156 296.676 156.526 295.404 157.463 294.466C158.4 293.528 159.672 293.001 160.998 293C162.323 293 163.595 293.526 164.533 294.462C165.471 295.399 165.999 296.671 166 297.996C166.001 299.322 165.475 300.594 164.539 301.533C163.602 302.471 162.331 302.999 161.005 303H161Z" fill="#2D6FD0"/>
<path d="M293 277C291.674 277 290.403 276.474 289.465 275.536C288.527 274.599 288 273.327 288 272.002C288 270.676 288.526 269.404 289.463 268.466C290.4 267.528 291.672 267.001 292.998 267C294.323 267 295.595 267.526 296.533 268.462C297.471 269.399 297.999 270.671 298 271.996C298.001 273.322 297.475 274.594 296.539 275.533C295.602 276.471 294.331 276.999 293.005 277H293Z" fill="#2D6FD0"/>
<path d="M423 246C421.674 246 420.403 245.474 419.465 244.536C418.527 243.599 418 242.327 418 241.002C418 239.676 418.526 238.404 419.463 237.466C420.4 236.528 421.672 236.001 422.997 236C424.323 236 425.595 236.526 426.533 237.462C427.471 238.399 427.999 239.671 428 240.996C428.001 242.322 427.475 243.594 426.539 244.533C425.602 245.471 424.331 245.999 423.005 246H423Z" fill="#2D6FD0"/>
<path d="M554 68.0002C552.674 68.0002 551.403 67.4736 550.465 66.5362C549.527 65.5988 549 64.3274 549 63.0015C549 61.6756 549.526 60.4039 550.463 59.466C551.4 58.5282 552.672 58.0009 553.997 58.0002C555.323 57.9996 556.595 58.5256 557.533 59.4625C558.471 60.3994 558.999 61.6706 559 62.9965C559.001 64.3224 558.475 65.5943 557.539 66.5327C556.602 67.471 555.331 67.9989 554.005 68.0002L554 68.0002Z" fill="#2D6FD0"/>
<path d="M34.8546 315.4V317H27.7946V315.4H30.5146V304.5C30.4079 304.66 30.2346 304.84 29.9946 305.04C29.7546 305.227 29.4746 305.413 29.1546 305.6C28.8479 305.773 28.5346 305.92 28.2146 306.04C27.8946 306.16 27.6013 306.22 27.3346 306.22V304.58C27.6946 304.58 28.0546 304.487 28.4146 304.3C28.7879 304.113 29.1279 303.893 29.4346 303.64C29.7546 303.387 30.0079 303.16 30.1946 302.96C30.3946 302.76 30.5013 302.653 30.5146 302.64H32.3146V315.4H34.8546ZM40.6427 317.2C39.6294 317.2 38.7161 316.96 37.9027 316.48C37.1027 316 36.4894 315.353 36.0627 314.54L37.1627 313.58C37.5361 314.193 38.0294 314.687 38.6427 315.06C39.2694 315.433 39.9427 315.62 40.6627 315.62C41.2761 315.62 41.8227 315.487 42.3027 315.22C42.7827 314.953 43.1627 314.587 43.4427 314.12C43.7227 313.653 43.8627 313.113 43.8627 312.5C43.8627 311.9 43.7227 311.373 43.4427 310.92C43.1761 310.467 42.8094 310.113 42.3427 309.86C41.8894 309.593 41.3761 309.46 40.8027 309.46C40.2427 309.46 39.7094 309.587 39.2027 309.84C38.6961 310.093 38.2894 310.453 37.9827 310.92H36.3827L37.9827 302.8H44.8827V304.42H39.2827L38.4227 308.94C38.7161 308.62 39.0827 308.373 39.5227 308.2C39.9761 308.027 40.4761 307.94 41.0227 307.94C41.9027 307.94 42.6894 308.133 43.3827 308.52C44.0894 308.907 44.6427 309.44 45.0427 310.12C45.4561 310.787 45.6627 311.567 45.6627 312.46C45.6627 313.393 45.4361 314.22 44.9827 314.94C44.5427 315.647 43.9427 316.2 43.1827 316.6C42.4361 317 41.5894 317.2 40.6427 317.2ZM51.7951 317.2C50.7817 317.2 49.8684 316.96 49.0551 316.48C48.2551 316 47.6417 315.353 47.2151 314.54L48.3151 313.58C48.6884 314.193 49.1817 314.687 49.7951 315.06C50.4217 315.433 51.0951 315.62 51.8151 315.62C52.4284 315.62 52.9751 315.487 53.4551 315.22C53.9351 314.953 54.3151 314.587 54.5951 314.12C54.8751 313.653 55.0151 313.113 55.0151 312.5C55.0151 311.9 54.8751 311.373 54.5951 310.92C54.3284 310.467 53.9617 310.113 53.4951 309.86C53.0417 309.593 52.5284 309.46 51.9551 309.46C51.3951 309.46 50.8617 309.587 50.3551 309.84C49.8484 310.093 49.4417 310.453 49.1351 310.92H47.5351L49.1351 302.8H56.0351V304.42H50.4351L49.5751 308.94C49.8684 308.62 50.2351 308.373 50.6751 308.2C51.1284 308.027 51.6284 307.94 52.1751 307.94C53.0551 307.94 53.8417 308.133 54.5351 308.52C55.2417 308.907 55.7951 309.44 56.1951 310.12C56.6084 310.787 56.8151 311.567 56.8151 312.46C56.8151 313.393 56.5884 314.22 56.1351 314.94C55.6951 315.647 55.0951 316.2 54.3351 316.6C53.5884 317 52.7417 317.2 51.7951 317.2ZM59.0874 318.62L59.4874 316.84H58.8874V314.76H60.5474V316.84L59.9474 318.62H59.0874ZM67.4462 317.18C66.6328 317.18 65.8928 317.053 65.2262 316.8C64.5728 316.533 64.0262 316.167 63.5862 315.7C63.1595 315.22 62.8795 314.667 62.7462 314.04L63.7462 312.98C63.7862 313.367 63.9595 313.76 64.2662 314.16C64.5728 314.56 64.9928 314.893 65.5262 315.16C66.0728 315.413 66.7062 315.54 67.4262 315.54C68.0395 315.54 68.5928 315.44 69.0862 315.24C69.5795 315.027 69.9728 314.733 70.2662 314.36C70.5595 313.987 70.7062 313.553 70.7062 313.06C70.7062 312.513 70.5262 312.047 70.1662 311.66C69.8062 311.273 69.2928 310.98 68.6262 310.78C67.9728 310.58 67.1928 310.48 66.2862 310.48H65.6062V308.98H66.2862C67.5128 308.98 68.4928 308.787 69.2262 308.4C69.9595 308 70.3262 307.407 70.3262 306.62C70.3262 306.113 70.1862 305.68 69.9062 305.32C69.6395 304.947 69.2795 304.667 68.8262 304.48C68.3862 304.28 67.9128 304.18 67.4062 304.18C66.5528 304.18 65.8262 304.373 65.2262 304.76C64.6395 305.133 64.2262 305.573 63.9862 306.08L62.8062 304.86C63.0728 304.393 63.4462 303.993 63.9262 303.66C64.4062 303.327 64.9462 303.073 65.5462 302.9C66.1462 302.713 66.7595 302.62 67.3862 302.62C68.3062 302.62 69.1262 302.793 69.8462 303.14C70.5795 303.487 71.1528 303.953 71.5662 304.54C71.9795 305.127 72.1862 305.793 72.1862 306.54C72.1862 307.073 72.0795 307.553 71.8662 307.98C71.6528 308.393 71.3395 308.74 70.9262 309.02C70.5128 309.3 70.0128 309.513 69.4262 309.66C70.0528 309.767 70.5995 309.993 71.0662 310.34C71.5328 310.687 71.8928 311.113 72.1462 311.62C72.3995 312.127 72.5262 312.68 72.5262 313.28C72.5262 314.107 72.2862 314.813 71.8062 315.4C71.3262 315.973 70.6995 316.413 69.9262 316.72C69.1662 317.027 68.3395 317.18 67.4462 317.18Z" fill="#2F2F2F"/>
<path d="M147.48 282.4V284H140.42V282.4H143.14V271.5C143.033 271.66 142.86 271.84 142.62 272.04C142.38 272.227 142.1 272.413 141.78 272.6C141.473 272.773 141.16 272.92 140.84 273.04C140.52 273.16 140.226 273.22 139.96 273.22V271.58C140.32 271.58 140.68 271.487 141.04 271.3C141.413 271.113 141.753 270.893 142.06 270.64C142.38 270.387 142.633 270.16 142.82 269.96C143.02 269.76 143.126 269.653 143.14 269.64H144.94V282.4H147.48ZM159.168 279.3C159.168 280.207 158.941 281.033 158.488 281.78C158.048 282.513 157.441 283.1 156.668 283.54C155.908 283.98 155.048 284.2 154.088 284.2C153.074 284.2 152.181 283.96 151.408 283.48C150.634 282.987 150.028 282.28 149.588 281.36C149.161 280.44 148.948 279.347 148.948 278.08C148.948 276.213 149.168 274.66 149.608 273.42C150.048 272.18 150.668 271.253 151.468 270.64C152.268 270.013 153.201 269.7 154.268 269.7C155.188 269.7 156.021 269.927 156.768 270.38C157.528 270.82 158.121 271.433 158.548 272.22L157.468 273.28C157.174 272.653 156.741 272.16 156.168 271.8C155.594 271.427 154.954 271.24 154.248 271.24C153.528 271.24 152.894 271.46 152.348 271.9C151.801 272.34 151.374 272.973 151.068 273.8C150.774 274.627 150.621 275.627 150.608 276.8C150.808 276.333 151.088 275.933 151.448 275.6C151.808 275.253 152.228 274.987 152.708 274.8C153.201 274.613 153.721 274.52 154.268 274.52C155.188 274.52 156.014 274.733 156.748 275.16C157.494 275.587 158.081 276.16 158.508 276.88C158.948 277.6 159.168 278.407 159.168 279.3ZM154.108 282.68C154.721 282.68 155.281 282.527 155.788 282.22C156.308 281.913 156.721 281.507 157.028 281C157.334 280.48 157.488 279.913 157.488 279.3C157.488 278.687 157.334 278.127 157.028 277.62C156.721 277.113 156.308 276.707 155.788 276.4C155.281 276.093 154.721 275.94 154.108 275.94C153.494 275.94 152.928 276.093 152.408 276.4C151.901 276.707 151.494 277.113 151.188 277.62C150.881 278.127 150.728 278.687 150.728 279.3C150.728 279.913 150.881 280.48 151.188 281C151.494 281.507 151.901 281.913 152.408 282.22C152.928 282.527 153.494 282.68 154.108 282.68ZM160.977 284C160.977 283.2 161.043 282.493 161.177 281.88C161.323 281.253 161.53 280.693 161.797 280.2C162.077 279.707 162.41 279.273 162.797 278.9C163.183 278.527 163.623 278.193 164.117 277.9C164.637 277.593 165.17 277.313 165.717 277.06C166.263 276.807 166.77 276.54 167.237 276.26C167.703 275.98 168.077 275.647 168.357 275.26C168.65 274.86 168.797 274.367 168.797 273.78C168.797 273.313 168.697 272.893 168.497 272.52C168.297 272.133 167.997 271.827 167.597 271.6C167.197 271.373 166.683 271.26 166.057 271.26C165.43 271.26 164.863 271.367 164.357 271.58C163.863 271.793 163.437 272.047 163.077 272.34C162.717 272.633 162.43 272.913 162.217 273.18L161.077 272.04C161.183 271.907 161.37 271.707 161.637 271.44C161.917 271.173 162.27 270.9 162.697 270.62C163.137 270.34 163.65 270.107 164.237 269.92C164.823 269.72 165.49 269.62 166.237 269.62C167.237 269.62 168.07 269.807 168.737 270.18C169.403 270.553 169.903 271.053 170.237 271.68C170.583 272.307 170.757 273 170.757 273.76C170.757 274.44 170.63 275.027 170.377 275.52C170.123 276 169.797 276.407 169.397 276.74C168.997 277.073 168.557 277.367 168.077 277.62C167.61 277.873 167.157 278.113 166.717 278.34C165.877 278.74 165.21 279.107 164.717 279.44C164.223 279.773 163.843 280.1 163.577 280.42C163.323 280.727 163.15 281.04 163.057 281.36C162.977 281.68 162.93 282.027 162.917 282.4H170.777V284H160.977ZM173.334 285.62L173.734 283.84H173.134V281.76H174.794V283.84L174.194 285.62H173.334ZM184.452 282.4V284H177.392V282.4H180.112V271.5C180.006 271.66 179.832 271.84 179.592 272.04C179.352 272.227 179.072 272.413 178.752 272.6C178.446 272.773 178.132 272.92 177.812 273.04C177.492 273.16 177.199 273.22 176.932 273.22V271.58C177.292 271.58 177.652 271.487 178.012 271.3C178.386 271.113 178.726 270.893 179.032 270.64C179.352 270.387 179.606 270.16 179.792 269.96C179.992 269.76 180.099 269.653 180.112 269.64H181.912V282.4H184.452Z" fill="#2F2F2F"/>
<path d="M279.759 256.4V258H272.699V256.4H275.419V245.5C275.312 245.66 275.139 245.84 274.899 246.04C274.659 246.227 274.379 246.413 274.059 246.6C273.752 246.773 273.439 246.92 273.119 247.04C272.799 247.16 272.506 247.22 272.239 247.22V245.58C272.599 245.58 272.959 245.487 273.319 245.3C273.692 245.113 274.032 244.893 274.339 244.64C274.659 244.387 274.912 244.16 275.099 243.96C275.299 243.76 275.406 243.653 275.419 243.64H277.219V256.4H279.759ZM291.447 253.3C291.447 254.207 291.22 255.033 290.767 255.78C290.327 256.513 289.72 257.1 288.947 257.54C288.187 257.98 287.327 258.2 286.367 258.2C285.354 258.2 284.46 257.96 283.687 257.48C282.914 256.987 282.307 256.28 281.867 255.36C281.44 254.44 281.227 253.347 281.227 252.08C281.227 250.213 281.447 248.66 281.887 247.42C282.327 246.18 282.947 245.253 283.747 244.64C284.547 244.013 285.48 243.7 286.547 243.7C287.467 243.7 288.3 243.927 289.047 244.38C289.807 244.82 290.4 245.433 290.827 246.22L289.747 247.28C289.454 246.653 289.02 246.16 288.447 245.8C287.874 245.427 287.234 245.24 286.527 245.24C285.807 245.24 285.174 245.46 284.627 245.9C284.08 246.34 283.654 246.973 283.347 247.8C283.054 248.627 282.9 249.627 282.887 250.8C283.087 250.333 283.367 249.933 283.727 249.6C284.087 249.253 284.507 248.987 284.987 248.8C285.48 248.613 286 248.52 286.547 248.52C287.467 248.52 288.294 248.733 289.027 249.16C289.774 249.587 290.36 250.16 290.787 250.88C291.227 251.6 291.447 252.407 291.447 253.3ZM286.387 256.68C287 256.68 287.56 256.527 288.067 256.22C288.587 255.913 289 255.507 289.307 255C289.614 254.48 289.767 253.913 289.767 253.3C289.767 252.687 289.614 252.127 289.307 251.62C289 251.113 288.587 250.707 288.067 250.4C287.56 250.093 287 249.94 286.387 249.94C285.774 249.94 285.207 250.093 284.687 250.4C284.18 250.707 283.774 251.113 283.467 251.62C283.16 252.127 283.007 252.687 283.007 253.3C283.007 253.913 283.16 254.48 283.467 255C283.774 255.507 284.18 255.913 284.687 256.22C285.207 256.527 285.774 256.68 286.387 256.68ZM300.256 245.42H292.976V243.8H303.056L295.896 258H293.916L300.256 245.42ZM303.054 259.62L303.454 257.84H302.854V255.76H304.514V257.84L303.914 259.62H303.054ZM314.173 256.4V258H307.113V256.4H309.833V245.5C309.726 245.66 309.553 245.84 309.313 246.04C309.073 246.227 308.793 246.413 308.473 246.6C308.166 246.773 307.853 246.92 307.533 247.04C307.213 247.16 306.92 247.22 306.653 247.22V245.58C307.013 245.58 307.373 245.487 307.733 245.3C308.106 245.113 308.446 244.893 308.753 244.64C309.073 244.387 309.326 244.16 309.513 243.96C309.713 243.76 309.82 243.653 309.833 243.64H311.633V256.4H314.173Z" fill="#2F2F2F"/>
<path d="M407.751 223.4V225H400.691V223.4H403.411V212.5C403.304 212.66 403.131 212.84 402.891 213.04C402.651 213.227 402.371 213.413 402.051 213.6C401.744 213.773 401.431 213.92 401.111 214.04C400.791 214.16 400.498 214.22 400.231 214.22V212.58C400.591 212.58 400.951 212.487 401.311 212.3C401.684 212.113 402.024 211.893 402.331 211.64C402.651 211.387 402.904 211.16 403.091 210.96C403.291 210.76 403.398 210.653 403.411 210.64H405.211V223.4H407.751ZM416.119 212.42H408.839V210.8H418.919L411.759 225H409.779L416.119 212.42ZM424.503 225.18C423.689 225.18 422.949 225.053 422.283 224.8C421.629 224.533 421.083 224.167 420.643 223.7C420.216 223.22 419.936 222.667 419.803 222.04L420.803 220.98C420.843 221.367 421.016 221.76 421.323 222.16C421.629 222.56 422.049 222.893 422.583 223.16C423.129 223.413 423.763 223.54 424.483 223.54C425.096 223.54 425.649 223.44 426.143 223.24C426.636 223.027 427.029 222.733 427.323 222.36C427.616 221.987 427.763 221.553 427.763 221.06C427.763 220.513 427.583 220.047 427.223 219.66C426.863 219.273 426.349 218.98 425.683 218.78C425.029 218.58 424.249 218.48 423.343 218.48H422.663V216.98H423.343C424.569 216.98 425.549 216.787 426.283 216.4C427.016 216 427.383 215.407 427.383 214.62C427.383 214.113 427.243 213.68 426.963 213.32C426.696 212.947 426.336 212.667 425.883 212.48C425.443 212.28 424.969 212.18 424.463 212.18C423.609 212.18 422.883 212.373 422.283 212.76C421.696 213.133 421.283 213.573 421.043 214.08L419.863 212.86C420.129 212.393 420.503 211.993 420.983 211.66C421.463 211.327 422.003 211.073 422.603 210.9C423.203 210.713 423.816 210.62 424.443 210.62C425.363 210.62 426.183 210.793 426.903 211.14C427.636 211.487 428.209 211.953 428.623 212.54C429.036 213.127 429.243 213.793 429.243 214.54C429.243 215.073 429.136 215.553 428.923 215.98C428.709 216.393 428.396 216.74 427.983 217.02C427.569 217.3 427.069 217.513 426.483 217.66C427.109 217.767 427.656 217.993 428.123 218.34C428.589 218.687 428.949 219.113 429.203 219.62C429.456 220.127 429.583 220.68 429.583 221.28C429.583 222.107 429.343 222.813 428.863 223.4C428.383 223.973 427.756 224.413 426.983 224.72C426.223 225.027 425.396 225.18 424.503 225.18ZM432.062 226.62L432.462 224.84H431.862V222.76H433.522V224.84L432.922 226.62H432.062ZM443.181 223.4V225H436.121V223.4H438.841V212.5C438.734 212.66 438.561 212.84 438.321 213.04C438.081 213.227 437.801 213.413 437.481 213.6C437.174 213.773 436.861 213.92 436.541 214.04C436.221 214.16 435.927 214.22 435.661 214.22V212.58C436.021 212.58 436.381 212.487 436.741 212.3C437.114 212.113 437.454 211.893 437.761 211.64C438.081 211.387 438.334 211.16 438.521 210.96C438.721 210.76 438.827 210.653 438.841 210.64H440.641V223.4H443.181Z" fill="#2F2F2F"/>
<path d="M494.193 70C494.193 69.2 494.26 68.4933 494.393 67.88C494.54 67.2533 494.747 66.6933 495.013 66.2C495.293 65.7067 495.627 65.2733 496.013 64.9C496.4 64.5267 496.84 64.1933 497.333 63.9C497.853 63.5933 498.387 63.3133 498.933 63.06C499.48 62.8067 499.987 62.54 500.453 62.26C500.92 61.98 501.293 61.6467 501.573 61.26C501.867 60.86 502.013 60.3667 502.013 59.78C502.013 59.3133 501.913 58.8933 501.713 58.52C501.513 58.1333 501.213 57.8267 500.813 57.6C500.413 57.3733 499.9 57.26 499.273 57.26C498.647 57.26 498.08 57.3667 497.573 57.58C497.08 57.7933 496.653 58.0467 496.293 58.34C495.933 58.6333 495.647 58.9133 495.433 59.18L494.293 58.04C494.4 57.9067 494.587 57.7067 494.853 57.44C495.133 57.1733 495.487 56.9 495.913 56.62C496.353 56.34 496.867 56.1067 497.453 55.92C498.04 55.72 498.707 55.62 499.453 55.62C500.453 55.62 501.287 55.8067 501.953 56.18C502.62 56.5533 503.12 57.0533 503.453 57.68C503.8 58.3067 503.973 59 503.973 59.76C503.973 60.44 503.847 61.0267 503.593 61.52C503.34 62 503.013 62.4067 502.613 62.74C502.213 63.0733 501.773 63.3667 501.293 63.62C500.827 63.8733 500.373 64.1133 499.933 64.34C499.093 64.74 498.427 65.1067 497.933 65.44C497.44 65.7733 497.06 66.1 496.793 66.42C496.54 66.7267 496.367 67.04 496.273 67.36C496.193 67.68 496.147 68.0267 496.133 68.4H503.993V70H494.193ZM511.97 70.2C510.997 70.1733 510.137 69.94 509.39 69.5C508.644 69.06 508.017 68.4867 507.51 67.78C507.017 67.06 506.644 66.2867 506.39 65.46C506.137 64.62 506.01 63.8 506.01 63C506.01 62.1467 506.144 61.2933 506.41 60.44C506.69 59.5867 507.09 58.8133 507.61 58.12C508.13 57.4133 508.757 56.8533 509.49 56.44C510.224 56.0133 511.05 55.8 511.97 55.8C512.957 55.8 513.817 56.0267 514.55 56.48C515.297 56.9333 515.917 57.52 516.41 58.24C516.917 58.96 517.297 59.74 517.55 60.58C517.804 61.42 517.93 62.2267 517.93 63C517.93 63.8667 517.79 64.7267 517.51 65.58C517.244 66.42 516.85 67.1867 516.33 67.88C515.81 68.5733 515.184 69.1333 514.45 69.56C513.717 69.9733 512.89 70.1867 511.97 70.2ZM507.83 63C507.857 63.6533 507.957 64.3067 508.13 64.96C508.304 65.6133 508.564 66.2133 508.91 66.76C509.257 67.3067 509.684 67.7467 510.19 68.08C510.697 68.4133 511.29 68.58 511.97 68.58C512.677 68.58 513.29 68.4067 513.81 68.06C514.33 67.7 514.757 67.24 515.09 66.68C515.437 66.1067 515.69 65.5 515.85 64.86C516.024 64.2067 516.11 63.5867 516.11 63C516.11 62.3467 516.017 61.6933 515.83 61.04C515.657 60.3867 515.39 59.7867 515.03 59.24C514.67 58.6933 514.237 58.2533 513.73 57.92C513.224 57.5867 512.637 57.42 511.97 57.42C511.264 57.42 510.65 57.6 510.13 57.96C509.61 58.3067 509.177 58.7667 508.83 59.34C508.497 59.9 508.244 60.5067 508.07 61.16C507.91 61.8 507.83 62.4133 507.83 63ZM526.506 57.42H519.226V55.8H529.306L522.146 70H520.166L526.506 57.42ZM529.304 71.62L529.704 69.84H529.104V67.76H530.764V69.84L530.164 71.62H529.304ZM539.963 57.42H532.683V55.8H542.763L535.603 70H533.623L539.963 57.42Z" fill="#2F2F2F"/>
</svg>
