<svg width="32" height="32" viewBox="0 0 32 32" fill="none" xmlns="http://www.w3.org/2000/svg">
<g id="icon">
<path id="Vector (Stroke)" fill-rule="evenodd" clip-rule="evenodd" d="M7.14835 7.15225C7.61698 6.68362 8.37677 6.68362 8.8454 7.15225L24.8454 23.1522C25.314 23.6208 25.314 24.3806 24.8454 24.8493C24.3767 25.3179 23.6169 25.3179 23.1483 24.8493L7.14835 8.84931C6.67972 8.38068 6.67972 7.62088 7.14835 7.15225Z" fill="white"/>
<path id="Vector (Stroke)_2" fill-rule="evenodd" clip-rule="evenodd" d="M24.8454 7.15225C25.3141 7.62088 25.3141 8.38068 24.8454 8.84931L8.8454 24.8494C8.37677 25.318 7.61698 25.318 7.14835 24.8494C6.67972 24.3807 6.67972 23.6209 7.14835 23.1523L23.1484 7.15225C23.617 6.68362 24.3768 6.68362 24.8454 7.15225Z" fill="white"/>
</g>
</svg>
