<svg width="258" height="64" viewBox="0 0 258 64" fill="none" xmlns="http://www.w3.org/2000/svg">
<path d="M47 28.7454V17.4672H48.5871V26.1675L55.2241 17.4672H56.699V28.7454H55.1279V20.0612L48.4749 28.7454H47Z" fill="white"/>
<path d="M59.9412 28.7454V20.2062H61.4803V23.8314H66.3217V20.2062H67.8608V28.7454H66.3217V25.1686H61.4803V28.7454H59.9412Z" fill="white"/>
<path d="M70.8532 28.7454V20.2062H74.797C75.7909 20.2062 76.5711 20.3996 77.1376 20.7862C77.7147 21.1622 78.0033 21.6992 78.0033 22.3974C78.0033 23.0956 77.7307 23.638 77.1857 24.0247C76.6513 24.4006 75.9405 24.5886 75.0535 24.5886L75.2939 24.1697C76.3093 24.1697 77.0627 24.3577 77.5544 24.7336C78.046 25.1095 78.2918 25.6627 78.2918 26.3931C78.2918 27.1343 78.0139 27.7143 77.4582 28.1332C76.9131 28.5413 76.0741 28.7454 74.9413 28.7454H70.8532ZM72.3602 27.5532H74.829C75.4703 27.5532 75.9512 27.4565 76.2719 27.2631C76.5925 27.0591 76.7528 26.7368 76.7528 26.2964C76.7528 25.8453 76.6032 25.5177 76.3039 25.3136C76.0154 25.0988 75.5558 24.9914 74.9252 24.9914H72.3602V27.5532ZM72.3602 23.8797H74.6687C75.2565 23.8797 75.7001 23.7723 75.9993 23.5575C76.3093 23.3319 76.4642 23.0204 76.4642 22.623C76.4642 22.2148 76.3093 21.9087 75.9993 21.7046C75.7001 21.5005 75.2565 21.3985 74.6687 21.3985H72.3602V23.8797Z" fill="white"/>
<path d="M84.4841 28.8421C83.5756 28.8421 82.7741 28.6541 82.0794 28.2782C81.3954 27.9022 80.861 27.3867 80.4762 26.7315C80.1022 26.0763 79.9151 25.3244 79.9151 24.4758C79.9151 23.6273 80.0968 22.8754 80.4602 22.2202C80.8343 21.565 81.3419 21.0548 81.9832 20.6896C82.6351 20.3136 83.3672 20.1257 84.1795 20.1257C85.0024 20.1257 85.7292 20.3083 86.3598 20.6735C86.9903 21.0387 87.482 21.5542 87.8346 22.2202C88.198 22.8754 88.3797 23.6434 88.3797 24.5242C88.3797 24.5886 88.3744 24.6638 88.3637 24.7497C88.3637 24.8356 88.3583 24.9162 88.3477 24.9914H81.1175V23.8797H87.5461L86.9209 24.2664C86.9315 23.7186 86.8193 23.2298 86.5842 22.8002C86.3491 22.3706 86.0231 22.0376 85.6063 21.8013C85.2001 21.5542 84.7246 21.4307 84.1795 21.4307C83.6451 21.4307 83.1695 21.5542 82.7527 21.8013C82.3359 22.0376 82.0099 22.3759 81.7748 22.8163C81.5396 23.246 81.4221 23.7401 81.4221 24.2986V24.5564C81.4221 25.1257 81.5503 25.6359 81.8068 26.087C82.074 26.5274 82.4427 26.8711 82.913 27.1181C83.3833 27.3652 83.923 27.4887 84.5322 27.4887C85.0345 27.4887 85.4887 27.4028 85.8948 27.2309C86.3117 27.0591 86.675 26.8013 86.985 26.4576L87.8346 27.4565C87.4499 27.9076 86.9689 28.2513 86.3918 28.4876C85.8254 28.7239 85.1895 28.8421 84.4841 28.8421Z" fill="white"/>
<path d="M94.4705 28.8421C93.6048 28.8421 92.83 28.6541 92.146 28.2782C91.4726 27.9022 90.9436 27.3867 90.5589 26.7315C90.1741 26.0763 89.9817 25.3244 89.9817 24.4758C89.9817 23.6273 90.1741 22.8754 90.5589 22.2202C90.9436 21.565 91.4726 21.0548 92.146 20.6896C92.83 20.3136 93.6048 20.1257 94.4705 20.1257C95.24 20.1257 95.924 20.2814 96.5225 20.5929C97.1317 20.8937 97.602 21.3448 97.9333 21.9463L96.763 22.7035C96.4851 22.2846 96.1431 21.9785 95.737 21.7852C95.3416 21.5811 94.9141 21.479 94.4545 21.479C93.8987 21.479 93.4018 21.6026 92.9636 21.8496C92.5254 22.0967 92.178 22.4457 91.9215 22.8969C91.665 23.3373 91.5368 23.8636 91.5368 24.4758C91.5368 25.0881 91.665 25.6198 91.9215 26.0709C92.178 26.522 92.5254 26.8711 92.9636 27.1181C93.4018 27.3652 93.8987 27.4887 94.4545 27.4887C94.9141 27.4887 95.3416 27.392 95.737 27.1987C96.1431 26.9946 96.4851 26.6831 96.763 26.2642L97.9333 27.0054C97.602 27.5961 97.1317 28.0526 96.5225 28.3749C95.924 28.6863 95.24 28.8421 94.4705 28.8421Z" fill="white"/>
<path d="M101.5 28.7454V21.1568L101.884 21.5596H98.3895V20.2062H106.149V21.5596H102.67L103.039 21.1568V28.7454H101.5Z" fill="white"/>
<path d="M107.722 28.7454V20.2062H109.261V26.4253L114.472 20.2062H115.866V28.7454H114.327V22.5263L109.133 28.7454H107.722Z" fill="white"/>
<path d="M118.854 28.7454V20.2062H120.393V27.392H125.042V20.2062H126.581V28.7454H118.854ZM126.468 30.7272V28.6649L126.853 28.7454H125.042V27.392H127.927V30.7272H126.468Z" fill="white"/>
<path d="M129.922 28.7454V20.2062H131.461V26.4253L136.671 20.2062H138.066V28.7454H136.527V22.5263L131.333 28.7454H129.922Z" fill="white"/>
<path d="M144.692 28.8421C143.837 28.8421 143.079 28.6541 142.416 28.2782C141.753 27.9022 141.23 27.3867 140.845 26.7315C140.46 26.0655 140.268 25.3136 140.268 24.4758C140.268 23.6273 140.46 22.8754 140.845 22.2202C141.23 21.565 141.753 21.0548 142.416 20.6896C143.079 20.3136 143.837 20.1257 144.692 20.1257C145.537 20.1257 146.29 20.3136 146.953 20.6896C147.626 21.0548 148.15 21.565 148.524 22.2202C148.909 22.8646 149.101 23.6165 149.101 24.4758C149.101 25.3244 148.909 26.0763 148.524 26.7315C148.15 27.3867 147.626 27.9022 146.953 28.2782C146.29 28.6541 145.537 28.8421 144.692 28.8421ZM144.692 27.4887C145.238 27.4887 145.724 27.3652 146.151 27.1181C146.589 26.8711 146.932 26.522 147.177 26.0709C147.423 25.609 147.546 25.0773 147.546 24.4758C147.546 23.8636 147.423 23.3373 147.177 22.8969C146.932 22.4457 146.589 22.0967 146.151 21.8496C145.724 21.6026 145.238 21.479 144.692 21.479C144.147 21.479 143.661 21.6026 143.234 21.8496C142.806 22.0967 142.464 22.4457 142.208 22.8969C141.951 23.3373 141.823 23.8636 141.823 24.4758C141.823 25.0773 141.951 25.609 142.208 26.0709C142.464 26.522 142.806 26.8711 143.234 27.1181C143.661 27.3652 144.147 27.4887 144.692 27.4887Z" fill="white"/>
<path d="M151.323 28.7454V20.2062H152.862V23.8314H157.704V20.2062H159.243V28.7454H157.704V25.1686H152.862V28.7454H151.323Z" fill="white"/>
<path d="M162.235 28.7454V20.2062H163.774V23.8314H168.616V20.2062H170.155V28.7454H168.616V25.1686H163.774V28.7454H162.235Z" fill="white"/>
<path d="M181.548 28.7454V20.2062H183.087V28.7454H181.548ZM176.979 23.1063C178.058 23.1171 178.876 23.3641 179.432 23.8475C179.998 24.3308 180.281 25.0129 180.281 25.8937C180.281 26.8174 179.971 27.5317 179.352 28.0365C178.742 28.5306 177.866 28.7723 176.722 28.7615L173.147 28.7454V20.2062H174.686V23.0902L176.979 23.1063ZM176.61 27.5854C177.294 27.5961 177.818 27.4565 178.181 27.1665C178.545 26.8765 178.726 26.4468 178.726 25.8775C178.726 25.319 178.545 24.9108 178.181 24.653C177.829 24.3953 177.305 24.261 176.61 24.2503L174.686 24.218V27.5693L176.61 27.5854Z" fill="white"/>
<path d="M186.079 28.7454V20.2062H187.618V26.4253L192.828 20.2062H194.223V28.7454H192.684V22.5263L187.49 28.7454H186.079ZM190.055 19.0945C189.275 19.0945 188.66 18.9065 188.211 18.5306C187.773 18.1439 187.549 17.5908 187.538 16.8711H188.58C188.591 17.2793 188.724 17.6015 188.981 17.8378C189.248 18.0741 189.601 18.1923 190.039 18.1923C190.477 18.1923 190.83 18.0741 191.097 17.8378C191.364 17.6015 191.503 17.2793 191.514 16.8711H192.588C192.577 17.5908 192.347 18.1439 191.898 18.5306C191.45 18.9065 190.835 19.0945 190.055 19.0945Z" fill="white"/>
<path d="M201.516 28.7454V20.2062H209.387V28.7454H207.848V21.1729L208.217 21.5596H202.686L203.055 21.1729V28.7454H201.516Z" fill="white"/>
<path d="M216.004 28.8421C215.149 28.8421 214.39 28.6541 213.728 28.2782C213.065 27.9022 212.541 27.3867 212.157 26.7315C211.772 26.0655 211.579 25.3136 211.579 24.4758C211.579 23.6273 211.772 22.8754 212.157 22.2202C212.541 21.565 213.065 21.0548 213.728 20.6896C214.39 20.3136 215.149 20.1257 216.004 20.1257C216.848 20.1257 217.602 20.3136 218.264 20.6896C218.938 21.0548 219.462 21.565 219.836 22.2202C220.22 22.8646 220.413 23.6165 220.413 24.4758C220.413 25.3244 220.22 26.0763 219.836 26.7315C219.462 27.3867 218.938 27.9022 218.264 28.2782C217.602 28.6541 216.848 28.8421 216.004 28.8421ZM216.004 27.4887C216.549 27.4887 217.035 27.3652 217.463 27.1181C217.901 26.8711 218.243 26.522 218.489 26.0709C218.735 25.609 218.858 25.0773 218.858 24.4758C218.858 23.8636 218.735 23.3373 218.489 22.8969C218.243 22.4457 217.901 22.0967 217.463 21.8496C217.035 21.6026 216.549 21.479 216.004 21.479C215.459 21.479 214.973 21.6026 214.545 21.8496C214.118 22.0967 213.776 22.4457 213.519 22.8969C213.263 23.3373 213.134 23.8636 213.134 24.4758C213.134 25.0773 213.263 25.609 213.519 26.0709C213.776 26.522 214.118 26.8711 214.545 27.1181C214.973 27.3652 215.459 27.4887 216.004 27.4887Z" fill="white"/>
<path d="M227.14 28.8421C226.435 28.8421 225.788 28.681 225.2 28.3587C224.623 28.0258 224.158 27.537 223.805 26.8926C223.463 26.2481 223.292 25.4425 223.292 24.4758C223.292 23.5091 223.458 22.7035 223.789 22.0591C224.131 21.4146 224.591 20.9312 225.168 20.609C225.756 20.2868 226.413 20.1257 227.14 20.1257C227.974 20.1257 228.711 20.3083 229.352 20.6735C229.993 21.0387 230.501 21.5489 230.875 22.2041C231.249 22.8485 231.436 23.6058 231.436 24.4758C231.436 25.3459 231.249 26.1085 230.875 26.7637C230.501 27.4189 229.993 27.9291 229.352 28.2943C228.711 28.6595 227.974 28.8421 227.14 28.8421ZM222.635 31.8711V20.2062H224.11V22.5102L224.014 24.4919L224.174 26.4737V31.8711H222.635ZM227.012 27.4887C227.557 27.4887 228.043 27.3652 228.47 27.1181C228.909 26.8711 229.251 26.522 229.497 26.0709C229.753 25.609 229.881 25.0773 229.881 24.4758C229.881 23.8636 229.753 23.3373 229.497 22.8969C229.251 22.4457 228.909 22.0967 228.47 21.8496C228.043 21.6026 227.557 21.479 227.012 21.479C226.477 21.479 225.991 21.6026 225.553 21.8496C225.125 22.0967 224.783 22.4457 224.527 22.8969C224.281 23.3373 224.158 23.8636 224.158 24.4758C224.158 25.0773 224.281 25.609 224.527 26.0709C224.783 26.522 225.125 26.8711 225.553 27.1181C225.991 27.3652 226.477 27.4887 227.012 27.4887Z" fill="white"/>
<path d="M235.042 28.7454V21.1568L235.427 21.5596H231.932V20.2062H239.692V21.5596H236.213L236.582 21.1568V28.7454H235.042Z" fill="white"/>
<path d="M246.476 28.7454V26.9409L246.395 26.6026V23.5252C246.395 22.87 246.203 22.3652 245.818 22.0107C245.444 21.6455 244.878 21.4629 244.119 21.4629C243.617 21.4629 243.125 21.5489 242.644 21.7207C242.163 21.8818 241.757 22.102 241.426 22.3813L240.784 21.2213C241.223 20.8668 241.746 20.5983 242.355 20.4157C242.975 20.2223 243.622 20.1257 244.295 20.1257C245.46 20.1257 246.358 20.4103 246.989 20.9796C247.619 21.5489 247.934 22.4189 247.934 23.5897V28.7454H246.476ZM243.686 28.8421C243.055 28.8421 242.5 28.7347 242.019 28.5199C241.549 28.305 241.185 28.0097 240.929 27.6337C240.672 27.247 240.544 26.812 240.544 26.3287C240.544 25.8668 240.651 25.4479 240.865 25.072C241.089 24.696 241.447 24.3953 241.939 24.1697C242.441 23.9441 243.114 23.8314 243.959 23.8314H246.652V24.9431H244.023C243.253 24.9431 242.735 25.072 242.468 25.3297C242.2 25.5875 242.067 25.899 242.067 26.2642C242.067 26.6831 242.233 27.0215 242.564 27.2793C242.895 27.5263 243.355 27.6498 243.943 27.6498C244.52 27.6498 245.022 27.5209 245.45 27.2631C245.888 27.0054 246.203 26.6294 246.395 26.1353L246.7 27.1987C246.497 27.7035 246.139 28.1063 245.626 28.4071C245.113 28.6971 244.466 28.8421 243.686 28.8421Z" fill="white"/>
<path d="M249.295 28.7293L249.391 27.4243C249.466 27.435 249.535 27.4457 249.6 27.4565C249.664 27.4672 249.722 27.4726 249.776 27.4726C250.118 27.4726 250.385 27.3544 250.577 27.1181C250.781 26.8818 250.93 26.5703 251.026 26.1837C251.122 25.7862 251.192 25.3405 251.235 24.8464C251.277 24.3523 251.31 23.8582 251.331 23.3641L251.475 20.2062H258V28.7454H256.461V21.1085L256.83 21.5596H252.469L252.822 21.0924L252.71 23.4608C252.678 24.2127 252.619 24.9162 252.533 25.5714C252.448 26.2266 252.314 26.8013 252.132 27.2954C251.961 27.7895 251.721 28.1761 251.411 28.4554C251.112 28.7347 250.722 28.8743 250.241 28.8743C250.102 28.8743 249.952 28.8582 249.792 28.826C249.642 28.8045 249.477 28.7723 249.295 28.7293Z" fill="white"/>
<path d="M51.3832 44.7011C50.7524 44.7011 50.1696 44.6011 49.6347 44.401C49.0998 44.1932 48.6367 43.9047 48.2455 43.5353C47.8543 43.166 47.5469 42.7312 47.3233 42.231C47.1078 41.7308 47 41.1845 47 40.592C47 39.9995 47.1078 39.4531 47.3233 38.9529C47.5469 38.4528 47.8543 38.018 48.2455 37.6486C48.6447 37.2793 49.1117 36.9946 49.6467 36.7945C50.1816 36.5867 50.7644 36.4828 51.3952 36.4828C52.0019 36.4828 52.5728 36.5829 53.1077 36.783C53.6426 36.9753 54.0937 37.2677 54.461 37.6602L53.8981 38.2027C53.5548 37.8641 53.1756 37.6217 52.7604 37.4755C52.3452 37.3216 51.8981 37.2447 51.4191 37.2447C50.9161 37.2447 50.4491 37.3293 50.0179 37.4986C49.5868 37.6602 49.2115 37.8949 48.8922 38.2027C48.5728 38.5028 48.3213 38.8568 48.1377 39.2646C47.9621 39.6647 47.8742 40.1072 47.8742 40.592C47.8742 41.0768 47.9621 41.5231 48.1377 41.9309C48.3213 42.331 48.5728 42.685 48.8922 42.9928C49.2115 43.2929 49.5868 43.5276 50.0179 43.6969C50.4491 43.8585 50.9161 43.9393 51.4191 43.9393C51.8981 43.9393 52.3452 43.8623 52.7604 43.7084C53.1756 43.5545 53.5548 43.3083 53.8981 42.9697L54.461 43.5122C54.0937 43.9047 53.6426 44.2009 53.1077 44.401C52.5728 44.6011 51.9979 44.7011 51.3832 44.7011Z" fill="white"/>
<path d="M59.8981 44.6318V43.2929L59.8622 43.0736V40.8344C59.8622 40.3188 59.7105 39.9225 59.4071 39.6455C59.1117 39.3685 58.6686 39.23 58.0778 39.23C57.6706 39.23 57.2834 39.2954 56.9161 39.4262C56.5489 39.557 56.2375 39.7301 55.982 39.9456L55.5988 39.3338C55.9181 39.0722 56.3014 38.8721 56.7485 38.7336C57.1956 38.5874 57.6666 38.5143 58.1616 38.5143C58.976 38.5143 59.6027 38.7105 60.0418 39.103C60.4889 39.4877 60.7125 40.0764 60.7125 40.869V44.6318H59.8981ZM57.7305 44.6896C57.2594 44.6896 56.8483 44.6165 56.497 44.4703C56.1537 44.3164 55.8902 44.1086 55.7066 43.847C55.5229 43.5776 55.4311 43.2698 55.4311 42.9236C55.4311 42.6081 55.507 42.3233 55.6587 42.0694C55.8183 41.8078 56.0738 41.6 56.4251 41.4461C56.7844 41.2845 57.2634 41.2037 57.8622 41.2037H60.0299V41.8155H57.8862C57.2794 41.8155 56.8563 41.9194 56.6167 42.1271C56.3852 42.3349 56.2694 42.5927 56.2694 42.9005C56.2694 43.2467 56.4092 43.5238 56.6886 43.7315C56.968 43.9393 57.3592 44.0432 57.8622 44.0432C58.3413 44.0432 58.7524 43.9393 59.0957 43.7315C59.447 43.5161 59.7025 43.2083 59.8622 42.8081L60.0538 43.3737C59.8941 43.7739 59.6147 44.0932 59.2155 44.3317C58.8243 44.5703 58.3293 44.6896 57.7305 44.6896Z" fill="white"/>
<path d="M66.2215 44.6896C65.6786 44.6896 65.1876 44.5703 64.7485 44.3317C64.3093 44.0855 63.9581 43.7354 63.6946 43.2814C63.4391 42.8197 63.3114 42.2579 63.3114 41.5962C63.3114 40.9344 63.4391 40.3765 63.6946 39.9225C63.9501 39.4608 64.2974 39.1107 64.7365 38.8721C65.1756 38.6336 65.6706 38.5143 66.2215 38.5143C66.8203 38.5143 67.3552 38.6451 67.8263 38.9068C68.3053 39.1607 68.6805 39.5224 68.952 39.9918C69.2235 40.4535 69.3592 40.9883 69.3592 41.5962C69.3592 42.2118 69.2235 42.7504 68.952 43.2121C68.6805 43.6738 68.3053 44.0355 67.8263 44.2971C67.3552 44.5587 66.8203 44.6896 66.2215 44.6896ZM62.976 46.8711V38.572H63.7904V40.3958L63.7066 41.6077L63.8263 42.8312V46.8711H62.976ZM66.1616 43.9624C66.6087 43.9624 67.0079 43.8662 67.3592 43.6738C67.7105 43.4738 67.9899 43.1967 68.1975 42.8428C68.4051 42.4811 68.5089 42.0656 68.5089 41.5962C68.5089 41.1268 68.4051 40.7151 68.1975 40.3611C67.9899 40.0072 67.7105 39.7301 67.3592 39.5301C67.0079 39.33 66.6087 39.23 66.1616 39.23C65.7145 39.23 65.3113 39.33 64.9521 39.5301C64.6008 39.7301 64.3213 40.0072 64.1137 40.3611C63.9141 40.7151 63.8143 41.1268 63.8143 41.5962C63.8143 42.0656 63.9141 42.4811 64.1137 42.8428C64.3213 43.1967 64.6008 43.4738 64.9521 43.6738C65.3113 43.8662 65.7145 43.9624 66.1616 43.9624Z" fill="white"/>
<path d="M75.0551 44.6318V43.2929L75.0192 43.0736V40.8344C75.0192 40.3188 74.8675 39.9225 74.5641 39.6455C74.2687 39.3685 73.8256 39.23 73.2348 39.23C72.8276 39.23 72.4404 39.2954 72.0731 39.4262C71.7059 39.557 71.3945 39.7301 71.139 39.9456L70.7558 39.3338C71.0751 39.0722 71.4584 38.8721 71.9055 38.7336C72.3526 38.5874 72.8236 38.5143 73.3186 38.5143C74.133 38.5143 74.7597 38.7105 75.1988 39.103C75.6459 39.4877 75.8695 40.0764 75.8695 40.869V44.6318H75.0551ZM72.8875 44.6896C72.4164 44.6896 72.0053 44.6165 71.654 44.4703C71.3107 44.3164 71.0472 44.1086 70.8636 43.847C70.6799 43.5776 70.5881 43.2698 70.5881 42.9236C70.5881 42.6081 70.664 42.3233 70.8157 42.0694C70.9753 41.8078 71.2308 41.6 71.5821 41.4461C71.9414 41.2845 72.4204 41.2037 73.0192 41.2037H75.1869V41.8155H73.0432C72.4364 41.8155 72.0132 41.9194 71.7737 42.1271C71.5422 42.3349 71.4264 42.5927 71.4264 42.9005C71.4264 43.2467 71.5661 43.5238 71.8456 43.7315C72.125 43.9393 72.5162 44.0432 73.0192 44.0432C73.4983 44.0432 73.9094 43.9393 74.2527 43.7315C74.604 43.5161 74.8595 43.2083 75.0192 42.8081L75.2108 43.3737C75.0511 43.7739 74.7717 44.0932 74.3725 44.3317C73.9813 44.5703 73.4863 44.6896 72.8875 44.6896Z" fill="white"/>
<path d="M79.3306 44.6318V39.0684L79.5462 39.2877H76.9474V38.572H82.5641V39.2877H79.9653L80.1809 39.0684V44.6318H79.3306Z" fill="white"/>
<path d="M86.0879 44.6896C85.4811 44.6896 84.9342 44.5587 84.4472 44.2971C83.9682 44.0278 83.589 43.6623 83.3095 43.2006C83.0301 42.7312 82.8904 42.1964 82.8904 41.5962C82.8904 40.9883 83.0301 40.4535 83.3095 39.9918C83.589 39.5301 83.9682 39.1684 84.4472 38.9068C84.9263 38.6451 85.4732 38.5143 86.0879 38.5143C86.7107 38.5143 87.2616 38.6451 87.7406 38.9068C88.2276 39.1684 88.6068 39.5301 88.8783 39.9918C89.1577 40.4535 89.2975 40.9883 89.2975 41.5962C89.2975 42.1964 89.1577 42.7312 88.8783 43.2006C88.6068 43.6623 88.2276 44.0278 87.7406 44.2971C87.2536 44.5587 86.7027 44.6896 86.0879 44.6896ZM86.0879 43.9624C86.543 43.9624 86.9462 43.8662 87.2975 43.6738C87.6488 43.4738 87.9242 43.1967 88.1238 42.8428C88.3314 42.4811 88.4352 42.0656 88.4352 41.5962C88.4352 41.1191 88.3314 40.7036 88.1238 40.3496C87.9242 39.9956 87.6488 39.7224 87.2975 39.5301C86.9462 39.33 86.547 39.23 86.0999 39.23C85.6528 39.23 85.2536 39.33 84.9023 39.5301C84.551 39.7224 84.2716 39.9956 84.064 40.3496C83.8564 40.7036 83.7526 41.1191 83.7526 41.5962C83.7526 42.0656 83.8564 42.4811 84.064 42.8428C84.2716 43.1967 84.551 43.4738 84.9023 43.6738C85.2536 43.8662 85.6488 43.9624 86.0879 43.9624Z" fill="white"/>
<path d="M91.1147 44.6318V38.572H93.8931C94.6037 38.572 95.1626 38.7029 95.5697 38.9645C95.9849 39.2261 96.1925 39.6109 96.1925 40.1187C96.1925 40.6112 95.9969 40.9921 95.6057 41.2614C95.2145 41.5231 94.6995 41.6539 94.0608 41.6539L94.2284 41.4115C94.9789 41.4115 95.5298 41.5462 95.8811 41.8155C96.2324 42.0848 96.4081 42.4734 96.4081 42.9813C96.4081 43.5045 96.2085 43.9124 95.8093 44.2048C95.418 44.4895 94.8073 44.6318 93.9769 44.6318H91.1147ZM91.941 43.9855H93.941C94.4759 43.9855 94.8791 43.9047 95.1506 43.7431C95.43 43.5738 95.5697 43.3045 95.5697 42.9351C95.5697 42.5657 95.446 42.2964 95.1985 42.1271C94.951 41.9578 94.5598 41.8732 94.0248 41.8732H91.941V43.9855ZM91.941 41.2614H93.8332C94.3203 41.2614 94.6915 41.1729 94.947 40.996C95.2105 40.819 95.3422 40.5612 95.3422 40.2226C95.3422 39.884 95.2105 39.6301 94.947 39.4608C94.6915 39.2915 94.3203 39.2069 93.8332 39.2069H91.941V41.2614Z" fill="white"/>
<path d="M101.036 44.6896C100.413 44.6896 99.8539 44.5587 99.3589 44.2971C98.8719 44.0278 98.4886 43.6623 98.2092 43.2006C97.9298 42.7312 97.7901 42.1964 97.7901 41.5962C97.7901 40.9883 97.9298 40.4535 98.2092 39.9918C98.4886 39.5301 98.8719 39.1684 99.3589 38.9068C99.8539 38.6451 100.413 38.5143 101.036 38.5143C101.57 38.5143 102.053 38.6144 102.485 38.8144C102.916 39.0145 103.255 39.3146 103.503 39.7147L102.868 40.1303C102.652 39.8225 102.385 39.5955 102.065 39.4493C101.746 39.3031 101.399 39.23 101.024 39.23C100.576 39.23 100.173 39.33 99.814 39.5301C99.4547 39.7224 99.1713 39.9956 98.9637 40.3496C98.7561 40.7036 98.6523 41.1191 98.6523 41.5962C98.6523 42.0733 98.7561 42.4888 98.9637 42.8428C99.1713 43.1967 99.4547 43.4738 99.814 43.6738C100.173 43.8662 100.576 43.9624 101.024 43.9624C101.399 43.9624 101.746 43.8893 102.065 43.7431C102.385 43.5969 102.652 43.3737 102.868 43.0736L103.503 43.4891C103.255 43.8816 102.916 44.1817 102.485 44.3895C102.053 44.5895 101.57 44.6896 101.036 44.6896Z" fill="white"/>
<path d="M109.76 44.6318L107.173 41.6308L107.879 41.2268L110.766 44.6318H109.76ZM105.149 44.6318V38.572H105.999V44.6318H105.149ZM105.736 41.9309V41.2268H107.76V41.9309H105.736ZM107.951 41.6885L107.161 41.5731L109.664 38.572H110.586L107.951 41.6885Z" fill="white"/>
<path d="M114.472 44.6896C113.865 44.6896 113.319 44.5587 112.831 44.2971C112.352 44.0278 111.973 43.6623 111.694 43.2006C111.414 42.7312 111.275 42.1964 111.275 41.5962C111.275 40.9883 111.414 40.4535 111.694 39.9918C111.973 39.5301 112.352 39.1684 112.831 38.9068C113.311 38.6451 113.857 38.5143 114.472 38.5143C115.095 38.5143 115.646 38.6451 116.125 38.9068C116.612 39.1684 116.991 39.5301 117.263 39.9918C117.542 40.4535 117.682 40.9883 117.682 41.5962C117.682 42.1964 117.542 42.7312 117.263 43.2006C116.991 43.6623 116.612 44.0278 116.125 44.2971C115.638 44.5587 115.087 44.6896 114.472 44.6896ZM114.472 43.9624C114.927 43.9624 115.33 43.8662 115.682 43.6738C116.033 43.4738 116.308 43.1967 116.508 42.8428C116.716 42.4811 116.819 42.0656 116.819 41.5962C116.819 41.1191 116.716 40.7036 116.508 40.3496C116.308 39.9956 116.033 39.7224 115.682 39.5301C115.33 39.33 114.931 39.23 114.484 39.23C114.037 39.23 113.638 39.33 113.287 39.5301C112.935 39.7224 112.656 39.9956 112.448 40.3496C112.241 40.7036 112.137 41.1191 112.137 41.5962C112.137 42.0656 112.241 42.4811 112.448 42.8428C112.656 43.1967 112.935 43.4738 113.287 43.6738C113.638 43.8662 114.033 43.9624 114.472 43.9624Z" fill="white"/>
<path d="M119.499 44.6318V38.572H120.349V43.3853L124.553 38.572H125.307V44.6318H124.457V39.8071L120.265 44.6318H119.499ZM122.349 37.6948C121.822 37.6948 121.395 37.5678 121.068 37.3139C120.748 37.0523 120.581 36.6791 120.565 36.1943H121.176C121.184 36.5021 121.295 36.7445 121.511 36.9215C121.727 37.0984 122.006 37.1869 122.349 37.1869C122.693 37.1869 122.972 37.0984 123.188 36.9215C123.411 36.7445 123.527 36.5021 123.535 36.1943H124.146C124.138 36.6791 123.97 37.0523 123.643 37.3139C123.315 37.5678 122.884 37.6948 122.349 37.6948Z" fill="white"/>
<path d="M133.465 44.6896C132.858 44.6896 132.312 44.5587 131.825 44.2971C131.345 44.0278 130.966 43.6623 130.687 43.2006C130.407 42.7312 130.268 42.1964 130.268 41.5962C130.268 40.9883 130.407 40.4535 130.687 39.9918C130.966 39.5301 131.345 39.1684 131.825 38.9068C132.304 38.6451 132.85 38.5143 133.465 38.5143C134.088 38.5143 134.639 38.6451 135.118 38.9068C135.605 39.1684 135.984 39.5301 136.256 39.9918C136.535 40.4535 136.675 40.9883 136.675 41.5962C136.675 42.1964 136.535 42.7312 136.256 43.2006C135.984 43.6623 135.605 44.0278 135.118 44.2971C134.631 44.5587 134.08 44.6896 133.465 44.6896ZM133.465 43.9624C133.92 43.9624 134.323 43.8662 134.675 43.6738C135.026 43.4738 135.302 43.1967 135.501 42.8428C135.709 42.4811 135.812 42.0656 135.812 41.5962C135.812 41.1191 135.709 40.7036 135.501 40.3496C135.302 39.9956 135.026 39.7224 134.675 39.5301C134.323 39.33 133.924 39.23 133.477 39.23C133.03 39.23 132.631 39.33 132.28 39.5301C131.928 39.7224 131.649 39.9956 131.441 40.3496C131.234 40.7036 131.13 41.1191 131.13 41.5962C131.13 42.0656 131.234 42.4811 131.441 42.8428C131.649 43.1967 131.928 43.4738 132.28 43.6738C132.631 43.8662 133.026 43.9624 133.465 43.9624Z" fill="white"/>
<path d="M141.318 44.7011C140.807 44.7011 140.352 44.6203 139.953 44.4587C139.562 44.2971 139.227 44.0509 138.947 43.72C138.668 43.3891 138.456 42.9813 138.312 42.4965C138.169 42.004 138.097 41.4346 138.097 40.7882C138.097 40.2111 138.153 39.7071 138.264 39.2761C138.376 38.8375 138.532 38.4605 138.732 38.145C138.931 37.8295 139.163 37.564 139.426 37.3485C139.698 37.1254 139.989 36.9484 140.3 36.8176C140.62 36.6791 140.947 36.5752 141.282 36.5059L144.109 35.8711L144.252 36.6329L141.594 37.21C141.426 37.2485 141.223 37.3024 140.983 37.3716C140.751 37.4409 140.512 37.5448 140.264 37.6833C140.025 37.8218 139.801 38.0142 139.594 38.2604C139.386 38.5066 139.219 38.826 139.091 39.2184C138.971 39.6032 138.911 40.0841 138.911 40.6612C138.911 40.7844 138.915 40.8844 138.923 40.9613C138.931 41.0306 138.939 41.1075 138.947 41.1922C138.963 41.2691 138.975 41.3846 138.983 41.5385L138.612 41.2384C138.7 40.769 138.879 40.3611 139.151 40.0149C139.422 39.6609 139.761 39.3877 140.169 39.1953C140.584 38.9953 141.043 38.8952 141.546 38.8952C142.129 38.8952 142.648 39.0183 143.103 39.2646C143.558 39.5031 143.913 39.8379 144.169 40.2688C144.432 40.6997 144.564 41.1999 144.564 41.7693C144.564 42.331 144.428 42.8351 144.157 43.2814C143.893 43.7277 143.518 44.0778 143.031 44.3317C142.544 44.578 141.973 44.7011 141.318 44.7011ZM141.414 44.0201C141.861 44.0201 142.256 43.9239 142.6 43.7315C142.943 43.5315 143.211 43.2621 143.402 42.9236C143.602 42.585 143.702 42.2041 143.702 41.7809C143.702 41.3653 143.602 40.996 143.402 40.6728C143.211 40.3496 142.943 40.0956 142.6 39.911C142.256 39.7186 141.857 39.6224 141.402 39.6224C140.955 39.6224 140.56 39.7147 140.217 39.8994C139.873 40.0764 139.602 40.3265 139.402 40.6497C139.211 40.9729 139.115 41.3461 139.115 41.7693C139.115 42.1925 139.211 42.5734 139.402 42.912C139.602 43.2506 139.873 43.5199 140.217 43.72C140.568 43.9201 140.967 44.0201 141.414 44.0201Z" fill="white"/>
<path d="M145.201 44.6203L145.261 43.9162C145.317 43.9239 145.369 43.9355 145.417 43.9508C145.473 43.9585 145.521 43.9624 145.561 43.9624C145.816 43.9624 146.02 43.87 146.172 43.6854C146.331 43.5007 146.451 43.2544 146.531 42.9466C146.611 42.6388 146.667 42.2926 146.698 41.9078C146.73 41.5154 146.758 41.1229 146.782 40.7305L146.89 38.572H151.501V44.6318H150.651V39.0453L150.866 39.2877H147.441L147.645 39.0337L147.549 40.7882C147.525 41.3115 147.481 41.8116 147.417 42.2887C147.361 42.7658 147.269 43.1852 147.142 43.5469C147.022 43.9085 146.854 44.1932 146.639 44.401C146.423 44.6011 146.148 44.7011 145.812 44.7011C145.716 44.7011 145.617 44.6934 145.513 44.678C145.417 44.6626 145.313 44.6434 145.201 44.6203Z" fill="white"/>
<path d="M157.822 44.6318V43.2929L157.786 43.0736V40.8344C157.786 40.3188 157.635 39.9225 157.331 39.6455C157.036 39.3685 156.593 39.23 156.002 39.23C155.595 39.23 155.207 39.2954 154.84 39.4262C154.473 39.557 154.161 39.7301 153.906 39.9456L153.523 39.3338C153.842 39.0722 154.225 38.8721 154.672 38.7336C155.12 38.5874 155.591 38.5143 156.086 38.5143C156.9 38.5143 157.527 38.7105 157.966 39.103C158.413 39.4877 158.636 40.0764 158.636 40.869V44.6318H157.822ZM155.654 44.6896C155.183 44.6896 154.772 44.6165 154.421 44.4703C154.078 44.3164 153.814 44.1086 153.631 43.847C153.447 43.5776 153.355 43.2698 153.355 42.9236C153.355 42.6081 153.431 42.3233 153.583 42.0694C153.742 41.8078 153.998 41.6 154.349 41.4461C154.708 41.2845 155.187 41.2037 155.786 41.2037H157.954V41.8155H155.81C155.203 41.8155 154.78 41.9194 154.541 42.1271C154.309 42.3349 154.193 42.5927 154.193 42.9005C154.193 43.2467 154.333 43.5238 154.613 43.7315C154.892 43.9393 155.283 44.0432 155.786 44.0432C156.265 44.0432 156.676 43.9393 157.02 43.7315C157.371 43.5161 157.627 43.2083 157.786 42.8081L157.978 43.3737C157.818 43.7739 157.539 44.0932 157.14 44.3317C156.748 44.5703 156.253 44.6896 155.654 44.6896Z" fill="white"/>
<path d="M163.535 44.6896C162.912 44.6896 162.353 44.5587 161.858 44.2971C161.371 44.0278 160.988 43.6623 160.708 43.2006C160.429 42.7312 160.289 42.1964 160.289 41.5962C160.289 40.9883 160.429 40.4535 160.708 39.9918C160.988 39.5301 161.371 39.1684 161.858 38.9068C162.353 38.6451 162.912 38.5143 163.535 38.5143C164.07 38.5143 164.553 38.6144 164.984 38.8144C165.415 39.0145 165.754 39.3146 166.002 39.7147L165.367 40.1303C165.151 39.8225 164.884 39.5955 164.565 39.4493C164.245 39.3031 163.898 39.23 163.523 39.23C163.076 39.23 162.672 39.33 162.313 39.5301C161.954 39.7224 161.67 39.9956 161.463 40.3496C161.255 40.7036 161.152 41.1191 161.152 41.5962C161.152 42.0733 161.255 42.4888 161.463 42.8428C161.67 43.1967 161.954 43.4738 162.313 43.6738C162.672 43.8662 163.076 43.9624 163.523 43.9624C163.898 43.9624 164.245 43.8893 164.565 43.7431C164.884 43.5969 165.151 43.3737 165.367 43.0736L166.002 43.4891C165.754 43.8816 165.415 44.1817 164.984 44.3895C164.553 44.5895 164.07 44.6896 163.535 44.6896Z" fill="white"/>
<path d="M168.729 44.6318V39.0684L168.944 39.2877H166.346V38.572H171.962V39.2877H169.364L169.579 39.0684V44.6318H168.729Z" fill="white"/>
<path d="M173.192 44.6318V38.572H174.042V43.3853L178.246 38.572H179V44.6318H178.15V39.8071L173.958 44.6318H173.192Z" fill="white"/>
<path fill-rule="evenodd" clip-rule="evenodd" d="M17.7976 38.7331C17.6853 39.1588 17.5729 39.5916 17.4886 40.0245C17.4675 40.138 17.4465 40.2444 17.4254 40.3579C17.4043 40.4573 17.3833 40.5637 17.3481 40.663C17.2006 40.6985 17.0672 40.7482 16.9267 40.7908C17.011 40.9043 17.1023 41.0249 17.1936 41.1384V41.1739L17.2147 41.7699C17.2147 41.9331 17.2147 42.0963 17.2006 42.2524L17.1796 42.4865L17.0883 43.04L17.0461 43.0684C16.8776 43.2457 16.7301 43.4515 16.5896 43.6573C16.5123 43.7779 16.4421 43.8914 16.3719 44.0191C16.1401 44.4732 15.9715 44.9557 15.8521 45.4453C15.817 45.5943 15.7819 45.7504 15.7819 45.9065C15.7819 45.9278 15.7819 45.942 15.7819 45.9633L15.8381 46.318C16.0137 46.1194 16.1963 45.9207 16.3789 45.7291C16.5615 45.5375 16.7441 45.3389 16.9338 45.1544C16.9338 45.2821 16.9338 45.4169 16.9338 45.5517C16.9338 46.2684 16.9548 46.985 16.9829 47.7016C16.997 48.1699 17.004 48.6382 17.011 49.1065C17.011 49.3832 17.018 49.6528 17.0321 49.9296L16.8354 50.2701C16.695 50.5469 16.5685 50.8378 16.4632 51.1358L16.4351 51.2138L16.5896 51.4551C16.695 51.4125 16.7933 51.3841 16.8705 51.299L16.9057 51.2777C16.9759 51.2422 17.0461 51.2067 17.1234 51.1783C17.1655 51.7176 17.2147 52.2497 17.2639 52.789C17.2849 53.0586 17.313 53.3282 17.3411 53.5979L17.1726 53.8036L17.0812 53.9455C16.9829 54.1158 16.9057 54.2932 16.8565 54.4848L16.8424 54.5557L17.0321 54.8679L17.4465 54.5628C17.4816 54.9176 17.5237 55.2724 17.5588 55.6271C17.5869 55.9677 17.5588 56.3083 17.5097 56.6488L17.4675 56.8617C17.4465 56.954 17.4184 57.0391 17.3903 57.1313C17.3622 57.2023 17.3271 57.2803 17.299 57.3513L17.0883 57.9615L16.9759 58.3801L16.9197 58.5149C16.6739 59.1393 16.4842 59.7921 16.2946 60.4378C16.5194 60.1469 16.7441 59.8489 16.9829 59.565C17.0461 59.487 17.1164 59.4089 17.1796 59.338V59.3238C17.32 59.1819 17.4535 59.04 17.594 58.9123L17.6993 58.82V58.8058C17.8047 58.7349 17.903 58.6639 18.0224 58.6072L18.1348 58.5646C18.1839 58.5646 18.2331 58.5504 18.2893 58.5504C18.3385 58.5504 18.3876 58.5646 18.4368 58.5717L18.5421 58.6143C18.7318 58.6994 18.8933 58.8271 19.0478 58.9619C19.4763 59.3451 19.8907 59.7353 20.305 60.1256C20.4806 60.2959 20.6492 60.4661 20.8248 60.6435L20.5228 59.7282C20.3753 59.5154 20.2278 59.3025 20.0873 59.0826C20.0382 59.0116 19.996 58.9406 19.9468 58.8697C19.687 58.373 19.4201 57.8834 19.1883 57.3726C19.104 57.1739 19.0268 56.9752 18.9565 56.7695C18.9214 56.6559 18.8933 56.5495 18.8652 56.436L18.8231 56.2089C18.809 56.0954 18.802 55.989 18.802 55.8755V55.7123L18.9144 54.4635H19.0268L19.1391 54.6409C19.2094 54.4138 19.2304 54.3429 19.3218 54.0449L19.399 53.7965L19.4131 53.7539C19.4692 53.5624 19.5254 53.3708 19.5816 53.1721L19.6238 53.0515C19.6659 52.938 19.7221 52.8387 19.7923 52.7322C19.8415 52.6613 19.8907 52.5903 19.9468 52.5265L20.0592 52.4129C20.0101 52.3349 19.9609 52.2639 19.9117 52.1859C19.7432 51.9021 19.5816 51.6112 19.4201 51.3273C19.4412 51.2067 19.4622 51.0861 19.4903 50.9655C19.4973 50.9016 19.5044 50.8378 19.5044 50.7739C19.5254 50.3979 19.5395 50.0218 19.5606 49.6457L19.6167 49.6316C19.7151 49.5748 19.8134 49.518 19.9117 49.4684L19.6729 48.8298L19.8555 48.6879L19.9749 48.5531L19.8836 48.4183L19.7923 48.0209L19.9398 47.95L20.1576 47.8081L19.9468 47.6307L19.9188 47.5952L19.8696 47.4746C19.8555 47.4036 19.8555 47.3327 19.8485 47.2617L19.8907 47.2475L19.9539 47.2191L20.1014 47.1056L20.0241 46.9566L19.9398 46.5806L20.0382 46.5309L20.1786 46.4174L20.1084 46.2826C20.0803 46.169 20.0662 46.0555 20.0522 45.942L20.0382 45.7433C20.1154 45.6936 20.1997 45.644 20.277 45.5872L20.1435 45.3956C20.0733 45.275 20.0101 45.1473 19.9468 45.0196C20.0733 45.0125 20.2067 44.9912 20.3331 44.9841L20.1997 44.7571L20.1084 44.5442L19.982 43.9979L20.1856 43.8418L19.9398 43.3451L20.0452 43.2387L19.9749 43.0684L20.0311 43.0542C19.8907 42.7987 19.7432 42.5433 19.6378 42.2737C19.6167 42.2027 19.5957 42.1389 19.5746 42.0679C19.5535 42.0041 19.5325 41.9473 19.5114 41.8834C19.3288 41.3726 19.1251 40.8688 18.9565 40.3579C18.788 39.8329 18.6054 39.3149 18.486 38.7757C18.4579 38.6267 18.4227 38.4706 18.4298 38.3145L18.4508 38.1868C18.4017 38.1513 18.3525 38.1229 18.2963 38.0945L18.2542 38.0732L18.191 38.0591H18.0997L17.9943 38.1158L17.9522 38.201C17.91 38.3783 17.8609 38.5628 17.8117 38.7402M16.8916 36.8387C16.5123 36.5903 16.1331 36.342 15.7678 36.0724C15.6765 36.0014 15.5852 35.9375 15.4869 35.8666C15.4026 35.8027 15.3113 35.7389 15.22 35.6892C15.0866 35.7602 14.9531 35.8098 14.8126 35.8666C14.7986 35.7247 14.7775 35.5828 14.7705 35.4409L14.7494 35.4125L14.3491 34.9584C14.2367 34.8307 14.1243 34.7171 14.0049 34.6036L13.8223 34.4404L13.3728 34.0857H13.3237C13.0708 34.0715 12.825 34.0147 12.5792 33.9508C12.4387 33.9154 12.3052 33.8728 12.1718 33.8231C11.6872 33.6316 11.2306 33.3832 10.7952 33.0994C10.6688 33.0072 10.5353 32.9149 10.4229 32.8014C10.4089 32.7872 10.3948 32.773 10.3878 32.7588L10.1771 32.4608C10.444 32.4963 10.7179 32.5247 10.9848 32.5531C11.2517 32.5814 11.5256 32.6098 11.7995 32.624C11.7082 32.5318 11.6169 32.4324 11.5256 32.3331C11.034 31.7939 10.5494 31.2475 10.0788 30.6941C9.76974 30.3322 9.44666 29.9846 9.1306 29.6298C8.94799 29.424 8.75835 29.2183 8.58276 29.0054L8.20349 28.8777C7.90148 28.7642 7.61352 28.6222 7.33257 28.4732L7.25531 28.4307L7.20615 28.1469C7.3115 28.1114 7.40983 28.0688 7.52221 28.083H7.56435C7.64161 28.0617 7.71887 28.0404 7.79613 28.012C7.459 27.5863 7.12889 27.1535 6.79176 26.7207C6.6232 26.5078 6.45463 26.2879 6.29309 26.0679L6.0262 26.0183L5.85763 25.9686C5.668 25.9047 5.48538 25.8267 5.31682 25.7132L5.25361 25.6706L5.17635 25.3087L5.69609 25.2732C5.47836 24.9823 5.26765 24.6985 5.04992 24.4076C4.83219 24.138 4.57935 23.8967 4.30543 23.6839L4.12984 23.5491C4.05258 23.4923 3.97532 23.4426 3.89104 23.4001C3.8208 23.3646 3.74355 23.3291 3.67331 23.2936L3.09738 22.9744L2.73216 22.7331L2.59871 22.6693C1.98064 22.3642 1.39066 21.9952 0.800683 21.6404C1.17293 21.7114 1.53815 21.7894 1.9104 21.8462C2.01576 21.8604 2.11409 21.8746 2.21241 21.8888H2.22646C2.42312 21.9171 2.61978 21.9313 2.81644 21.9384H2.95691L2.97096 21.9526C3.09738 21.9384 3.2238 21.9313 3.3432 21.8959L3.4626 21.8533C3.50475 21.8249 3.54689 21.7965 3.582 21.7681C3.61712 21.7327 3.64522 21.6972 3.68033 21.6546L3.7295 21.5553C3.81378 21.3708 3.8489 21.1721 3.86997 20.9664C3.92616 20.4058 3.9683 19.8453 4.00342 19.2848C4.01746 19.0435 4.02449 18.8094 4.03151 18.5681L4.43888 19.448C4.47399 19.7034 4.51614 19.9588 4.55828 20.2072C4.57232 20.2923 4.59339 20.3704 4.60042 20.4555C4.74791 20.9948 4.88838 21.534 5.07099 22.0591C5.14123 22.2648 5.22551 22.4564 5.31682 22.6551C5.36598 22.7615 5.42217 22.8608 5.47836 22.9602L5.60478 23.1517C5.67502 23.244 5.73823 23.3291 5.81549 23.4143L5.93489 23.5349L6.87604 24.4005L6.96033 24.3296L6.92521 24.1238C7.13591 24.2444 7.20615 24.287 7.47304 24.4502L7.70482 24.585L7.74696 24.6134C7.92255 24.7198 8.09814 24.8262 8.27373 24.9327L8.3861 24.9965C8.49848 25.0533 8.61086 25.0959 8.73026 25.1242C8.81454 25.1455 8.89882 25.1668 8.98311 25.1739H9.14465C9.15869 25.2732 9.17274 25.3655 9.19381 25.4506C9.26405 25.7699 9.34131 26.0892 9.42559 26.4085C9.52392 26.4795 9.62225 26.5575 9.7276 26.6285C9.77677 26.671 9.82593 26.7136 9.8751 26.7633C10.149 27.0329 10.4159 27.3025 10.6968 27.565L10.753 27.5438C10.8654 27.5225 10.9778 27.5012 11.0902 27.4799L11.35 28.1043L11.5818 28.0901L11.7644 28.1114L11.7855 28.2675L11.9892 28.6222L12.1507 28.5797L12.4176 28.5442L12.3825 28.8138V28.8564L12.4317 28.977C12.4668 29.0409 12.5159 29.0905 12.5581 29.1473L12.5932 29.1331L12.6564 29.1118H12.8461L12.8882 29.2679L13.0849 29.6085L13.1902 29.5872H13.3728L13.415 29.7291C13.4711 29.8356 13.5414 29.9278 13.6116 30.02L13.731 30.1761C13.8293 30.1619 13.9207 30.1477 14.012 30.1336L14.0471 30.3606C14.0752 30.4954 14.1173 30.6373 14.1665 30.765C14.2648 30.687 14.3772 30.616 14.4825 30.5451L14.5387 30.8005L14.616 31.0134L14.8969 31.503L15.1568 31.4888L15.3183 32.0138H15.4729L15.5361 32.1912L15.5852 32.1628C15.6555 32.4395 15.7187 32.7304 15.8311 33.0001C15.8591 33.0639 15.8943 33.1278 15.9224 33.1916C15.9505 33.2484 15.9785 33.3123 15.9996 33.369C16.2174 33.8657 16.414 34.3695 16.6388 34.8591C16.8705 35.3557 17.0953 35.8666 17.3762 36.342C17.4535 36.4697 17.5378 36.6116 17.6502 36.718L17.7555 36.8032C17.7415 36.8599 17.7274 36.9167 17.7063 36.9735L17.6853 37.016L17.6502 37.0657L17.5799 37.1225L17.4605 37.1508L17.3692 37.1154C17.2147 37.0089 17.0532 36.9096 16.8916 36.8032V36.8387ZM19.6519 36.9167C20.0311 36.6684 20.4104 36.42 20.7756 36.1504C20.8669 36.0795 20.9582 36.0156 21.0495 35.9446C21.1338 35.8808 21.2251 35.8169 21.3164 35.7673C21.4499 35.8382 21.5833 35.8879 21.7238 35.9446C21.7379 35.8027 21.7589 35.6608 21.7659 35.5189L21.787 35.4905L22.1874 35.0364C22.2997 34.9087 22.4121 34.7952 22.5315 34.6817L22.7141 34.5185L23.1636 34.1637H23.2128C23.4656 34.1495 23.7115 34.0928 23.9573 34.0289C24.0978 33.9934 24.2312 33.9508 24.3647 33.9012C24.8493 33.7096 25.3058 33.4613 25.7413 33.1775C25.8677 33.0852 26.0011 32.993 26.1135 32.8795C26.1276 32.8653 26.1416 32.8511 26.1486 32.8369L26.3593 32.5389C26.0924 32.5744 25.8185 32.6027 25.5516 32.6311C25.2847 32.6595 25.0108 32.6879 24.7369 32.7021C24.8282 32.6027 24.9195 32.5105 25.0108 32.4112C25.5025 31.8719 25.9871 31.3256 26.4577 30.7721C26.7667 30.4174 27.0898 30.0626 27.4058 29.7078C27.5885 29.5021 27.7781 29.2963 27.9537 29.0834L28.333 28.9557C28.635 28.8422 28.9229 28.7003 29.2039 28.5513L29.2811 28.5087L29.3303 28.2249C29.2249 28.1894 29.1266 28.1469 29.0142 28.161H28.9721C28.8948 28.1398 28.8176 28.1185 28.7403 28.0901C29.0774 27.6644 29.4076 27.2316 29.7447 26.7987C29.9132 26.5859 30.0818 26.3659 30.2434 26.146L30.5103 26.0963L30.6788 26.0466C30.8685 25.9828 31.0511 25.9047 31.2196 25.7912L31.2828 25.7486L31.3601 25.3868L30.8404 25.3513C31.0581 25.0604 31.2688 24.7766 31.4865 24.4857C31.7043 24.216 31.9571 23.9748 32.231 23.7619L32.4066 23.6271C32.4839 23.5704 32.5611 23.5207 32.6454 23.4781C32.7156 23.4426 32.7929 23.4072 32.8631 23.3717L33.4391 23.0524L33.8043 22.8112L33.9377 22.7473C34.5558 22.4422 35.1458 22.0732 35.7358 21.7185C35.3635 21.7894 34.9983 21.8675 34.626 21.9242C34.5277 21.9384 34.4224 21.9526 34.324 21.9668H34.31C34.1133 21.9952 33.9167 22.0094 33.72 22.0165H33.5795L33.5655 22.0307C33.4391 22.0165 33.3126 22.0094 33.1932 21.9739L33.0738 21.9313C33.0317 21.903 32.9896 21.8746 32.9544 21.8462C32.9193 21.8107 32.8912 21.7752 32.8561 21.7327L32.8069 21.6333C32.7227 21.4489 32.6875 21.2502 32.6665 21.0444C32.6103 20.4839 32.5681 19.9234 32.533 19.3628C32.519 19.1216 32.512 18.8874 32.5049 18.6462L32.0976 19.526C32.0625 19.7815 32.0203 20.0369 31.9782 20.2852C31.9641 20.3704 31.9431 20.4484 31.936 20.5336C31.7885 21.0728 31.6481 21.612 31.4655 22.1371C31.3952 22.3429 31.3109 22.5344 31.2196 22.7331C31.1705 22.8395 31.1143 22.9389 31.0581 23.0382L30.9317 23.2298C30.8614 23.322 30.7982 23.4072 30.721 23.4923L30.6016 23.6129L29.6604 24.4786L29.5761 24.4076L29.6112 24.2018C29.4005 24.3225 29.3373 24.365 29.0634 24.5282L28.8316 24.663L28.7895 24.6843C28.6139 24.7908 28.4383 24.8972 28.2627 25.0036L28.1503 25.0675C28.038 25.1242 27.9256 25.1597 27.8062 25.1952C27.7219 25.2165 27.6376 25.2378 27.5533 25.2449H27.3918C27.3778 25.3442 27.3637 25.4364 27.3426 25.5216C27.2724 25.8409 27.1951 26.1602 27.1109 26.4795C27.0125 26.5504 26.9142 26.6285 26.8088 26.6994C26.7597 26.742 26.7105 26.7846 26.6614 26.8342C26.3874 27.1038 26.1205 27.3735 25.8396 27.636L25.7834 27.6147C25.671 27.5934 25.5587 27.5721 25.4463 27.5509L25.1864 28.1823L24.9546 28.1681L24.772 28.1894L24.7509 28.3455L24.5473 28.7003L24.3857 28.6577L24.1188 28.6222L24.1539 28.8919V28.9344L24.1048 29.0551C24.0697 29.1189 24.0205 29.1686 23.9784 29.2254L23.9432 29.2112L23.88 29.1899H23.6904L23.6483 29.346L23.4516 29.6865L23.3462 29.6653H23.1636L23.1215 29.8072C23.0653 29.9136 22.9951 30.0058 22.9248 30.0981L22.8054 30.2542C22.7141 30.24 22.6158 30.2258 22.5245 30.2116L22.4894 30.4387C22.4613 30.5735 22.4191 30.7154 22.37 30.8431C22.2716 30.765 22.1593 30.6941 22.0539 30.6231L21.9977 30.8786L21.9205 31.0914L21.6395 31.581L21.3797 31.5668L21.2181 32.0919H21.0636L21.0004 32.2693L20.9512 32.2409C20.881 32.5176 20.8178 32.8085 20.7054 33.0781C20.6773 33.142 20.6422 33.2058 20.6141 33.2697C20.586 33.3265 20.5579 33.3903 20.5368 33.4471C20.3191 33.9438 20.1224 34.4475 19.8977 34.9371C19.6659 35.4338 19.4412 35.9446 19.1602 36.42C19.083 36.5477 18.9987 36.6897 18.8863 36.7961L18.7809 36.8812C18.795 36.938 18.809 36.9948 18.8301 37.0515L18.8512 37.0941L18.8863 37.1438L18.9565 37.2005L19.0759 37.2289L19.1672 37.1934C19.3218 37.087 19.4833 36.9877 19.6448 36.8812L19.6519 36.9167ZM37 17.0923H0V58.7207C0 60.0404 1.11674 61.1189 2.47931 61.1189H14.8759C16.7863 61.1189 17.9522 62.02 18.4789 63.9996C19.1602 62.0342 20.6281 61.1189 22.384 61.1189H34.0571C35.6726 61.1189 36.986 59.8418 36.986 58.2879V17.0781L37 17.0923Z" fill="white"/>
<path fill-rule="evenodd" clip-rule="evenodd" d="M25.8828 13.1358C25.8828 13.1358 23.2623 12.5281 18.9016 12.5493C14.5479 12.5705 11.553 13.3548 11.553 13.3548C11.4768 13.369 11.3589 13.7647 11.4283 13.8141C11.4976 13.8707 13.2307 14.3511 15.9414 14.4006C18.6521 14.4571 21.3281 14.33 23.082 14.1674C24.829 14.0049 25.9313 13.7223 26.0561 13.5951C26.0908 13.5244 26.1462 13.1641 25.8828 13.1358ZM30.0562 2.48725L26.9088 11.3127C26.9088 11.3127 27.1307 11.4894 27.1861 11.8144C27.2416 12.1324 26.6939 12.2243 26.6939 12.2243C26.6939 12.2243 26.5691 12.7613 26.6939 12.9945C26.8187 13.2276 26.9851 13.2418 26.9851 13.4396C26.9851 13.6375 26.9643 13.8495 26.5067 14.118C25.3143 14.7044 20.6487 14.9376 17.938 14.973C15.2273 15.0083 11.8997 14.5631 11.0539 14.3865C10.215 14.2098 10.215 13.9201 10.2289 13.6516C10.2497 13.3831 10.5409 13.0793 10.5409 13.0793L10.5062 12.5069C10.5062 12.5069 10.4508 12.4716 10.3606 12.4716C10.2705 12.4716 10.0695 12.3444 10.014 12.1112C9.95853 11.878 10.2705 11.5601 10.2705 11.5601L6.87351 2.82642C6.87351 2.82642 6.81112 2.82642 6.77645 2.82642C6.34663 2.82642 6 2.48725 6 2.07035C6 1.65346 6.34663 1.31429 6.77645 1.31429C7.20628 1.31429 7.55291 1.65346 7.55291 2.07035C7.55291 2.21874 7.51131 2.36006 7.43505 2.47312C8.09366 3.46236 9.14742 4.16897 10.118 4.50814C11.0262 4.79785 12.4266 5.27127 12.4266 5.27127C12.4266 5.27127 12.7593 4.26083 12.8841 3.82273C12.8841 3.58249 12.8425 3.32811 12.787 3.0596C12.5999 2.98187 12.4543 2.82642 12.4058 2.61444C12.3295 2.27527 12.5513 1.94316 12.898 1.8725C13.2446 1.80184 13.5843 2.01382 13.6536 2.34593C13.7022 2.55084 13.6328 2.75576 13.5011 2.89708C13.5358 3.13733 13.5843 3.36344 13.6536 3.57542C13.7438 3.70261 13.8547 3.851 13.9864 4.00645C14.6242 4.75545 15.2343 5.23594 15.2343 5.23594C15.2343 5.23594 15.7126 4.82611 16.5515 4.35975C16.7664 4.23963 16.9536 4.09831 17.113 3.94992C17.7231 3.31398 18.1321 2.52965 18.139 1.42734C17.8895 1.30015 17.7231 1.04578 17.7231 0.756067C17.7231 0.33917 18.0697 0 18.4995 0C18.9294 0 19.276 0.33917 19.276 0.756067C19.276 1.04578 19.1096 1.30015 18.86 1.42734C18.86 2.10568 19.0126 2.6639 19.276 3.13733C19.4424 3.36344 19.6434 3.58955 19.8791 3.7874C20.7041 4.50107 21.3627 4.80491 21.8549 5.0169C22.056 4.91091 22.6037 4.43041 23.1929 3.60369C23.2484 3.52596 23.2969 3.4553 23.3385 3.37757C23.394 3.14439 23.4356 2.89708 23.4494 2.62857C23.3039 2.49432 23.2207 2.29647 23.2484 2.09155C23.2969 1.75238 23.6158 1.51213 23.9625 1.55453C24.3091 1.59693 24.5587 1.9149 24.5101 2.25407C24.4824 2.46605 24.3507 2.63564 24.1635 2.7275C24.115 3.06667 24.115 3.38464 24.1427 3.68141C24.2814 4.31736 24.6626 5.15822 24.6626 5.15822C24.6626 5.15822 24.9954 4.9957 25.6124 4.74839C26.2502 4.47281 26.6662 4.35975 26.9989 4.27496C27.9557 3.89339 28.9747 3.14439 29.5848 2.12688C29.5016 2.01382 29.4531 1.87957 29.4462 1.73118C29.4254 1.31429 29.7581 0.960983 30.188 0.939785C30.6178 0.918587 30.9783 1.24362 30.9991 1.66052C31.0199 2.07742 30.6871 2.43072 30.2573 2.45192C30.188 2.45192 30.1256 2.45192 30.0632 2.43779L30.0424 2.47312L30.0562 2.48725Z" fill="white"/>
</svg>
