<svg width="40" height="40" viewBox="0 0 40 40" fill="none" xmlns="http://www.w3.org/2000/svg">
<g id="Wrench">
<g id="wrench--crescent-tool-construction-tools-wrench-setting-edit-adjust">
<path id="Union" d="M34.0484 12.9038C34.0053 12.6699 33.9136 12.4477 33.779 12.2516C33.6444 12.0556 33.4701 11.89 33.2672 11.7656L28.8036 16.2292C28.5954 16.4452 28.3459 16.617 28.0698 16.7344C27.7937 16.8517 27.4967 16.9122 27.1967 16.9122C26.8968 16.9122 26.5999 16.8517 26.3238 16.7344C26.0477 16.617 25.7981 16.4452 25.5899 16.2292L23.8937 14.7116C23.4848 14.2944 23.2557 13.7335 23.2557 13.1493C23.2557 12.5651 23.4848 12.0042 23.8937 11.5871L28.3573 7.12344C28.26 6.89477 28.1136 6.69028 27.9285 6.52444C27.7433 6.3586 27.5241 6.23548 27.286 6.16377C25.7287 5.85319 24.1153 5.98613 22.6298 6.54747C21.1442 7.1088 19.8461 8.07595 18.8832 9.33884C17.9204 10.6017 17.3314 12.1096 17.1835 13.6908C17.0449 15.1719 17.2985 16.6617 17.9163 18.0111L5.93884 29.9884C5.05467 30.8727 5.06933 32.3106 5.97135 33.1766L7.2229 34.3782C8.09585 35.2162 9.47767 35.206 10.338 34.3547L22.453 22.371C23.7633 22.9122 25.1907 23.118 26.6051 22.9664C28.1689 22.7988 29.6557 22.2006 30.9 21.2385C32.1444 20.2763 33.0974 18.9879 33.6531 17.5165C34.2091 16.0451 34.3459 14.4483 34.0484 12.9038Z" stroke="#2D6FD0" stroke-width="2" stroke-linecap="round" stroke-linejoin="round"/>
</g>
</g>
</svg>
