<svg width="40" height="40" viewBox="0 0 40 40" fill="none" xmlns="http://www.w3.org/2000/svg">
<g id="Lipstick">
<g id="lipstick--fashion-beauty-lip-lipstick-makeup-shopping">
<path id="Vector" d="M5.69336 24.5016C5.22675 24.971 4.96484 25.606 4.96484 26.2679C4.96484 26.9298 5.22675 27.5646 5.69336 28.0341L10.9294 33.2701C11.3988 33.7369 12.0338 33.9987 12.6956 33.9987C13.3575 33.9987 13.9925 33.7369 14.4619 33.2701L23.7565 23.9755L14.988 15.207L5.69336 24.5016Z" stroke="#2D6FD0" stroke-width="2" stroke-linecap="round" stroke-linejoin="round"/>
<path id="Vector_2" d="M16.3398 16.561L30.7451 2.15558C31.0976 1.80796 31.5448 1.57247 32.0308 1.47883C32.5169 1.3852 33.0197 1.43762 33.4759 1.62947C33.9336 1.81742 34.3252 2.13659 34.6015 2.54675C34.8781 2.95691 35.0269 3.43973 35.0292 3.93435V9.37081C35.0312 9.70051 34.968 10.0273 34.8433 10.3326C34.7185 10.6378 34.5349 10.9155 34.3026 11.1496L22.5028 22.724" stroke="#2D6FD0" stroke-width="2" stroke-linecap="round" stroke-linejoin="round"/>
<path id="Vector_3" d="M22.6055 10.2969L28.8686 16.5601" stroke="#2D6FD0" stroke-width="2" stroke-linecap="round" stroke-linejoin="round"/>
</g>
</g>
</svg>
