<svg width="40" height="40" viewBox="0 0 40 40" fill="none" xmlns="http://www.w3.org/2000/svg">
<g id="Gold">
<g id="gold--gold-money-payment-bars-finance-wealth-bullion-jewelry">
<path id="Vector" d="M16.4157 23.2406C16.2941 22.5986 15.9674 22.0228 15.4923 21.6136C15.0173 21.2043 14.424 20.9874 13.8157 21.0006H7.73188C7.12363 20.9874 6.53035 21.2043 6.05529 21.6136C5.58023 22.0228 5.2535 22.5986 5.13195 23.2406L3 35.0006H18.5996L16.4157 23.2406Z" stroke="#2D6FD0" stroke-width="2" stroke-linecap="round" stroke-linejoin="round"/>
<path id="Vector_2" d="M34.6149 23.2406C34.4932 22.5986 34.1667 22.0228 33.6917 21.6136C33.2164 21.2043 32.6231 20.9874 32.015 21.0006H25.9311C25.3228 20.9874 24.7296 21.2043 24.2545 21.6136C23.7794 22.0228 23.4527 22.5986 23.3312 23.2406L21.1992 35.0006H36.7988L34.6149 23.2406Z" stroke="#2D6FD0" stroke-width="2" stroke-linecap="round" stroke-linejoin="round"/>
<path id="Vector_3" d="M27.7012 21.0005L25.5172 9.24056C25.3957 8.59858 25.069 8.02285 24.5939 7.61357C24.1188 7.20427 23.5256 6.98735 22.9173 7.00057H16.8334C16.2252 6.98735 15.6319 7.20427 15.1569 7.61357C14.6818 8.02285 14.3551 8.59858 14.2335 9.24056L12.1016 21.0005" stroke="#2D6FD0" stroke-width="2" stroke-linecap="round" stroke-linejoin="round"/>
<path id="Vector_4" d="M13.8672 21H25.9309" stroke="#2D6FD0" stroke-width="2" stroke-linecap="round" stroke-linejoin="round"/>
</g>
</g>
</svg>
