<svg width="40" height="40" viewBox="0 0 40 40" fill="none" xmlns="http://www.w3.org/2000/svg">
<g id="Tablet Capsule">
<g id="tablet-capsule--health-medical-hospital-medicine-capsule-tablet">
<path id="Vector" d="M19.053 7.73605C20.8049 5.98419 23.1809 5 25.6585 5C28.1359 5 30.512 5.98419 32.2638 7.73605C34.0157 9.48792 35 11.864 35 14.3415C35 16.819 34.0157 19.195 32.2638 20.9469L20.9469 32.2638C19.195 34.0157 16.819 35 14.3415 35C11.864 35 9.48792 34.0157 7.73605 32.2638C5.98419 30.512 5 28.1359 5 25.6585C5 23.1809 5.98419 20.8049 7.73605 19.053L19.053 7.73605Z" stroke="#2D6FD0" stroke-width="2" stroke-linecap="round" stroke-linejoin="round"/>
<path id="Vector_2" d="M13.9727 12.8164L27.1835 26.0272" stroke="#2D6FD0" stroke-width="2" stroke-linecap="round" stroke-linejoin="round"/>
</g>
</g>
</svg>
