<svg width="40" height="40" viewBox="0 0 40 40" fill="none" xmlns="http://www.w3.org/2000/svg">
<g id="Computer Pc Desktop">
<g id="computer-pc-desktop--screen-desktop-monitor-device-electronics-display-pc-computer">
<path id="Vector 2419" d="M1.42969 18.5681V29.9967C1.42969 31.5747 2.70887 32.8538 4.28683 32.8538H21.4297C23.0076 32.8538 24.2868 31.5747 24.2868 29.9967V18.5681C24.2868 16.9901 23.0076 15.7109 21.4297 15.7109H4.28683C2.70887 15.7109 1.42969 16.9901 1.42969 18.5681Z" stroke="#2D6FD0" stroke-width="2" stroke-linecap="round" stroke-linejoin="round"/>
<path id="Vector 2420" d="M8.57422 38.5703H17.1456" stroke="#2D6FD0" stroke-width="2" stroke-linecap="round" stroke-linejoin="round"/>
<path id="Vector 2421" d="M12.8594 38.5698V32.8555" stroke="#2D6FD0" stroke-width="2" stroke-linecap="round" stroke-linejoin="round"/>
<path id="Vector 2422" d="M21.4297 9.99777V8.5692C21.4297 7.78023 22.0693 7.14062 22.8583 7.14062H37.144C37.9328 7.14062 38.5725 7.78023 38.5725 8.5692V37.1406C38.5725 37.9295 37.9328 38.5692 37.144 38.5692H25.7154" stroke="#2D6FD0" stroke-width="2" stroke-linecap="round" stroke-linejoin="round"/>
<g id="Group 100">
<path id="Ellipse 81" d="M32.502 13.9259C32.3045 13.9259 32.1445 13.7658 32.1445 13.5684C32.1445 13.371 32.3045 13.2109 32.502 13.2109" stroke="#2D6FD0" stroke-width="2" stroke-linecap="round" stroke-linejoin="round"/>
<path id="Ellipse 82" d="M32.5 13.9259C32.6974 13.9259 32.8574 13.7658 32.8574 13.5684C32.8574 13.371 32.6974 13.2109 32.5 13.2109" stroke="#2D6FD0" stroke-width="2" stroke-linecap="round" stroke-linejoin="round"/>
</g>
<path id="Vector 2423" d="M30 20H38.5714" stroke="#2D6FD0" stroke-width="2" stroke-linecap="round" stroke-linejoin="round"/>
</g>
</g>
</svg>
