<svg width="40" height="40" viewBox="0 0 40 40" fill="none" xmlns="http://www.w3.org/2000/svg">
<g id="Bus">
<g id="bus--transportation-travel-bus-transit-transport-motorcoach-public">
<path id="Vector" d="M31.2743 1.42969H8.72431C7.34054 1.42969 6.21875 2.55146 6.21875 3.93525V27.7381C6.21875 29.1219 7.34054 30.2436 8.72431 30.2436H31.2743C32.6582 30.2436 33.7799 29.1219 33.7799 27.7381V3.93525C33.7799 2.55146 32.6582 1.42969 31.2743 1.42969Z" stroke="#2D6FD0" stroke-width="2" stroke-linecap="round" stroke-linejoin="round"/>
<path id="Vector_2" d="M11.2305 30.2422V34.0005" stroke="#2D6FD0" stroke-width="2" stroke-linecap="round" stroke-linejoin="round"/>
<path id="Vector_3" d="M28.7695 30.2422V34.0005" stroke="#2D6FD0" stroke-width="2" stroke-linecap="round" stroke-linejoin="round"/>
<path id="Vector_4" d="M6.21875 17.7148H33.7799" stroke="#2D6FD0" stroke-width="2" stroke-linecap="round" stroke-linejoin="round"/>
<g id="Group 2666">
<path id="Ellipse 1208" d="M12.4858 24.6043C12.1398 24.6043 11.8594 24.3239 11.8594 23.978C11.8594 23.632 12.1398 23.3516 12.4858 23.3516" stroke="#2D6FD0" stroke-width="2" stroke-linecap="round" stroke-linejoin="round"/>
<path id="Ellipse 1209" d="M12.4844 24.6043C12.8303 24.6043 13.1108 24.3239 13.1108 23.978C13.1108 23.632 12.8303 23.3516 12.4844 23.3516" stroke="#2D6FD0" stroke-width="2" stroke-linecap="round" stroke-linejoin="round"/>
</g>
<g id="Group 2667">
<path id="Ellipse 1208_2" d="M27.5131 24.6043C27.1672 24.6043 26.8867 24.3239 26.8867 23.978C26.8867 23.632 27.1672 23.3516 27.5131 23.3516" stroke="#2D6FD0" stroke-width="2" stroke-linecap="round" stroke-linejoin="round"/>
<path id="Ellipse 1209_2" d="M27.5117 24.6043C27.8577 24.6043 28.1381 24.3239 28.1381 23.978C28.1381 23.632 27.8577 23.3516 27.5117 23.3516" stroke="#2D6FD0" stroke-width="2" stroke-linecap="round" stroke-linejoin="round"/>
</g>
</g>
</g>
</svg>
