<svg width="40" height="40" viewBox="0 0 40 40" fill="none" xmlns="http://www.w3.org/2000/svg">
<g id="Vertical Slider Square">
<g id="vertical-slider-square--adjustment-adjust-controls-fader-vertical-settings-slider-square">
<path id="Vector" d="M3.71484 3.93525V31.4964C3.71484 32.8802 4.83662 34.002 6.2204 34.002H33.7816C35.1654 34.002 36.2871 32.8802 36.2871 31.4964V3.93525C36.2871 2.55146 35.1654 1.42969 33.7816 1.42969H6.2204C4.83662 1.42969 3.71484 2.55146 3.71484 3.93525Z" stroke="#2D6FD0" stroke-width="2" stroke-linecap="round" stroke-linejoin="round"/>
<path id="Vector_2" d="M13.7383 27.7387V15.2109" stroke="#2D6FD0" stroke-width="2" stroke-linecap="round" stroke-linejoin="round"/>
<path id="Vector_3" d="M13.7388 15.212C15.8145 15.212 17.4971 13.5293 17.4971 11.4537C17.4971 9.37797 15.8145 7.69531 13.7388 7.69531C11.6631 7.69531 9.98047 9.37797 9.98047 11.4537C9.98047 13.5293 11.6631 15.212 13.7388 15.212Z" stroke="#2D6FD0" stroke-width="2" stroke-linecap="round" stroke-linejoin="round"/>
<path id="Vector_4" d="M26.2656 7.69531V15.212" stroke="#2D6FD0" stroke-width="2" stroke-linecap="round" stroke-linejoin="round"/>
<path id="Vector_5" d="M26.2656 22.7266V27.7377" stroke="#2D6FD0" stroke-width="2" stroke-linecap="round" stroke-linejoin="round"/>
<path id="Vector_6" d="M26.2662 22.7276C28.3418 22.7276 30.0245 21.045 30.0245 18.9693C30.0245 16.8936 28.3418 15.2109 26.2662 15.2109C24.1905 15.2109 22.5078 16.8936 22.5078 18.9693C22.5078 21.045 24.1905 22.7276 26.2662 22.7276Z" stroke="#2D6FD0" stroke-width="2" stroke-linecap="round" stroke-linejoin="round"/>
</g>
</g>
</svg>
