<svg width="193" height="44" viewBox="0 0 193 44" fill="none" xmlns="http://www.w3.org/2000/svg">
<g filter="url(#filter0_d_5703_372546)">
<mask id="path-1-inside-1_5703_372546" fill="white">
<path fill-rule="evenodd" clip-rule="evenodd" d="M2.65396 4.27606C2 5.55953 2 7.23968 2 10.6V25.4C2 28.7603 2 30.4405 2.65396 31.7239C3.2292 32.8529 4.14708 33.7708 5.27606 34.346C6.55953 35 8.23969 35 11.6 35H90.1716C90.702 35 91.2107 35.2107 91.5858 35.5858L95.5858 39.5858C96.3668 40.3668 97.6332 40.3668 98.4142 39.5858L102.414 35.5858C102.789 35.2107 103.298 35 103.828 35H181.4C184.76 35 186.44 35 187.724 34.346C188.853 33.7708 189.771 32.8529 190.346 31.7239C191 30.4405 191 28.7603 191 25.4V10.6C191 7.23969 191 5.55953 190.346 4.27606C189.771 3.14708 188.853 2.2292 187.724 1.65396C186.44 1 184.76 1 181.4 1H11.6C8.23969 1 6.55953 1 5.27606 1.65396C4.14708 2.2292 3.2292 3.14708 2.65396 4.27606Z"/>
</mask>
<path fill-rule="evenodd" clip-rule="evenodd" d="M2.65396 4.27606C2 5.55953 2 7.23968 2 10.6V25.4C2 28.7603 2 30.4405 2.65396 31.7239C3.2292 32.8529 4.14708 33.7708 5.27606 34.346C6.55953 35 8.23969 35 11.6 35H90.1716C90.702 35 91.2107 35.2107 91.5858 35.5858L95.5858 39.5858C96.3668 40.3668 97.6332 40.3668 98.4142 39.5858L102.414 35.5858C102.789 35.2107 103.298 35 103.828 35H181.4C184.76 35 186.44 35 187.724 34.346C188.853 33.7708 189.771 32.8529 190.346 31.7239C191 30.4405 191 28.7603 191 25.4V10.6C191 7.23969 191 5.55953 190.346 4.27606C189.771 3.14708 188.853 2.2292 187.724 1.65396C186.44 1 184.76 1 181.4 1H11.6C8.23969 1 6.55953 1 5.27606 1.65396C4.14708 2.2292 3.2292 3.14708 2.65396 4.27606Z" fill="white"/>
<path d="M2.65396 4.27606L3.54497 4.73005L3.54497 4.73005L2.65396 4.27606ZM2.65396 31.7239L1.76295 32.1779L1.76295 32.1779L2.65396 31.7239ZM5.27606 34.346L4.82207 35.237L4.82207 35.237L5.27606 34.346ZM187.724 34.346L187.27 33.455L187.27 33.455L187.724 34.346ZM190.346 31.7239L191.237 32.1779L191.237 32.1779L190.346 31.7239ZM190.346 4.27606L191.237 3.82207L191.237 3.82207L190.346 4.27606ZM187.724 1.65396L187.27 2.54497L187.27 2.54497L187.724 1.65396ZM5.27606 1.65396L5.73005 2.54497L5.73005 2.54497L5.27606 1.65396ZM3 10.6C3 8.90334 3.00078 7.69099 3.07842 6.74064C3.15512 5.80197 3.30179 5.20731 3.54497 4.73005L1.76295 3.82207C1.35217 4.62827 1.17186 5.51543 1.08507 6.57778C0.999222 7.62846 1 8.93634 1 10.6H3ZM3 25.4V10.6H1V25.4H3ZM3.54497 31.27C3.30179 30.7927 3.15512 30.198 3.07842 29.2594C3.00078 28.309 3 27.0967 3 25.4H1C1 27.0637 0.999222 28.3715 1.08507 29.4222C1.17186 30.4846 1.35217 31.3717 1.76295 32.1779L3.54497 31.27ZM5.73005 33.455C4.78924 32.9757 4.02433 32.2108 3.54497 31.27L1.76295 32.1779C2.43407 33.4951 3.50493 34.5659 4.82207 35.237L5.73005 33.455ZM11.6 34C9.90335 34 8.69099 33.9992 7.74065 33.9216C6.80197 33.8449 6.20731 33.6982 5.73005 33.455L4.82207 35.237C5.62827 35.6478 6.51543 35.8281 7.57778 35.9149C8.62846 36.0008 9.93635 36 11.6 36V34ZM90.1716 34H11.6V36H90.1716V34ZM96.2929 38.8787L92.2929 34.8787L90.8787 36.2929L94.8787 40.2929L96.2929 38.8787ZM101.707 34.8787L97.7071 38.8787L99.1213 40.2929L103.121 36.2929L101.707 34.8787ZM181.4 34H103.828V36H181.4V34ZM187.27 33.455C186.793 33.6982 186.198 33.8449 185.259 33.9216C184.309 33.9992 183.097 34 181.4 34V36C183.064 36 184.372 36.0008 185.422 35.9149C186.485 35.8281 187.372 35.6478 188.178 35.237L187.27 33.455ZM189.455 31.27C188.976 32.2108 188.211 32.9757 187.27 33.455L188.178 35.237C189.495 34.5659 190.566 33.4951 191.237 32.1779L189.455 31.27ZM190 25.4C190 27.0967 189.999 28.309 189.922 29.2594C189.845 30.198 189.698 30.7927 189.455 31.27L191.237 32.1779C191.648 31.3717 191.828 30.4846 191.915 29.4222C192.001 28.3715 192 27.0637 192 25.4H190ZM190 10.6V25.4H192V10.6H190ZM189.455 4.73005C189.698 5.20731 189.845 5.80197 189.922 6.74064C189.999 7.69099 190 8.90334 190 10.6H192C192 8.93634 192.001 7.62846 191.915 6.57778C191.828 5.51543 191.648 4.62827 191.237 3.82207L189.455 4.73005ZM187.27 2.54497C188.211 3.02433 188.976 3.78924 189.455 4.73005L191.237 3.82207C190.566 2.50493 189.495 1.43407 188.178 0.762953L187.27 2.54497ZM181.4 2C183.097 2 184.309 2.00078 185.259 2.07842C186.198 2.15512 186.793 2.30179 187.27 2.54497L188.178 0.762956C187.372 0.352173 186.485 0.171864 185.422 0.0850662C184.372 -0.000777706 183.064 0 181.4 0V2ZM11.6 2H181.4V0H11.6V2ZM5.73005 2.54497C6.20731 2.30179 6.80197 2.15512 7.74064 2.07842C8.69099 2.00078 9.90334 2 11.6 2V0C9.93634 0 8.62846 -0.000777706 7.57778 0.0850662C6.51543 0.171864 5.62827 0.352173 4.82207 0.762954L5.73005 2.54497ZM3.54497 4.73005C4.02433 3.78924 4.78924 3.02433 5.73005 2.54497L4.82207 0.762954C3.50493 1.43407 2.43407 2.50493 1.76295 3.82207L3.54497 4.73005ZM103.121 36.2929C103.309 36.1054 103.563 36 103.828 36V34C103.033 34 102.27 34.3161 101.707 34.8787L103.121 36.2929ZM94.8787 40.2929C96.0503 41.4645 97.9497 41.4645 99.1213 40.2929L97.7071 38.8787C97.3166 39.2692 96.6834 39.2692 96.2929 38.8787L94.8787 40.2929ZM90.1716 36C90.4368 36 90.6911 36.1054 90.8787 36.2929L92.2929 34.8787C91.7303 34.3161 90.9672 34 90.1716 34V36Z" fill="#DEE2E7" mask="url(#path-1-inside-1_5703_372546)"/>
</g>
<defs>
<filter id="filter0_d_5703_372546" x="0" y="0" width="193" height="43.1714" filterUnits="userSpaceOnUse" color-interpolation-filters="sRGB">
<feFlood flood-opacity="0" result="BackgroundImageFix"/>
<feColorMatrix in="SourceAlpha" type="matrix" values="0 0 0 0 0 0 0 0 0 0 0 0 0 0 0 0 0 0 127 0" result="hardAlpha"/>
<feOffset dy="1"/>
<feGaussianBlur stdDeviation="1"/>
<feComposite in2="hardAlpha" operator="out"/>
<feColorMatrix type="matrix" values="0 0 0 0 0.0627451 0 0 0 0 0.0941176 0 0 0 0 0.156863 0 0 0 0.04 0"/>
<feBlend mode="normal" in2="BackgroundImageFix" result="effect1_dropShadow_5703_372546"/>
<feBlend mode="normal" in="SourceGraphic" in2="effect1_dropShadow_5703_372546" result="shape"/>
</filter>
</defs>
</svg>
