<svg width="40" height="40" viewBox="0 0 40 40" fill="none" xmlns="http://www.w3.org/2000/svg">
<g id="icon">
<path id="Vector (Stroke)" fill-rule="evenodd" clip-rule="evenodd" d="M16.6667 6.5C11.0518 6.5 6.5 11.0518 6.5 16.6667C6.5 22.2816 11.0518 26.8333 16.6667 26.8333C22.2816 26.8333 26.8333 22.2816 26.8333 16.6667C26.8333 11.0518 22.2816 6.5 16.6667 6.5ZM3.5 16.6667C3.5 9.39492 9.39492 3.5 16.6667 3.5C23.9384 3.5 29.8333 9.39492 29.8333 16.6667C29.8333 23.9384 23.9384 29.8333 16.6667 29.8333C9.39492 29.8333 3.5 23.9384 3.5 16.6667Z" fill="white"/>
<path id="Vector (Stroke)_2" fill-rule="evenodd" clip-rule="evenodd" d="M23.9393 23.9393C24.5251 23.3536 25.4749 23.3536 26.0607 23.9393L36.0607 33.9393C36.6464 34.5251 36.6464 35.4749 36.0607 36.0607C35.4749 36.6464 34.5251 36.6464 33.9393 36.0607L23.9393 26.0607C23.3536 25.4749 23.3536 24.5251 23.9393 23.9393Z" fill="white"/>
<path id="+" d="M20.878 16.97C20.878 16.4774 20.4786 16.078 19.986 16.078H17.88V13.891C17.88 13.3437 17.4363 12.9 16.889 12.9C16.3417 12.9 15.898 13.3437 15.898 13.891V16.078H13.792C13.2994 16.078 12.9 16.4774 12.9 16.97C12.9 17.4626 13.2994 17.862 13.792 17.862H15.898V20.049C15.898 20.5963 16.3417 21.04 16.889 21.04C17.4363 21.04 17.88 20.5963 17.88 20.049V17.862H19.986C20.4786 17.862 20.878 17.4626 20.878 16.97Z" fill="white" stroke="white" stroke-width="0.2"/>
</g>
</svg>
