<svg width="611" height="292" viewBox="0 0 611 292" fill="none" xmlns="http://www.w3.org/2000/svg">
<path d="M28 41L28 276" stroke="#F5F6F7"/>
<path d="M170 41L170 276" stroke="#F5F6F7"/>
<path d="M314 41L314 276" stroke="#F5F6F7"/>
<path d="M457 41L457 276" stroke="#F5F6F7"/>
<path d="M601 39L601 276" stroke="#F5F6F7"/>
<path d="M30 274H601" stroke="#F5F6F7"/>
<path d="M28 237L601 237" stroke="#F5F6F7"/>
<path d="M28 197L601 197" stroke="#F5F6F7"/>
<path d="M28 158L601 158" stroke="#F5F6F7"/>
<path d="M28 118L601 118" stroke="#F5F6F7"/>
<path d="M28 78L601 78" stroke="#F5F6F7"/>
<path d="M28 39L601 39" stroke="#F5F6F7"/>
<path d="M28 274L601 274" stroke="#F5F6F7"/>
<path d="M28 39L28 274" stroke="#F5F6F7"/>
<path d="M18.4018 290V289.592L20.7298 287.312C20.9432 287.104 21.1032 286.923 21.2098 286.768C21.3165 286.608 21.3885 286.459 21.4258 286.32C21.4632 286.181 21.4818 286.051 21.4818 285.928C21.4818 285.603 21.3698 285.347 21.1458 285.16C20.9272 284.973 20.6018 284.88 20.1698 284.88C19.8392 284.88 19.5458 284.931 19.2898 285.032C19.0392 285.133 18.8232 285.291 18.6418 285.504L18.2338 285.152C18.4525 284.896 18.7325 284.699 19.0738 284.56C19.4152 284.421 19.7965 284.352 20.2178 284.352C20.5965 284.352 20.9245 284.413 21.2018 284.536C21.4792 284.653 21.6925 284.827 21.8418 285.056C21.9965 285.285 22.0738 285.555 22.0738 285.864C22.0738 286.045 22.0472 286.224 21.9938 286.4C21.9458 286.576 21.8552 286.763 21.7218 286.96C21.5938 287.152 21.4045 287.371 21.1538 287.616L19.0178 289.712L18.8578 289.488H22.3298V290H18.4018ZM25.2691 290.048C24.8371 290.048 24.4531 289.936 24.1171 289.712C23.7811 289.483 23.5171 289.157 23.3251 288.736C23.1331 288.309 23.0371 287.797 23.0371 287.2C23.0371 286.603 23.1331 286.093 23.3251 285.672C23.5171 285.245 23.7811 284.92 24.1171 284.696C24.4531 284.467 24.8371 284.352 25.2691 284.352C25.7011 284.352 26.0851 284.467 26.4211 284.696C26.7571 284.92 27.0211 285.245 27.2131 285.672C27.4104 286.093 27.5091 286.603 27.5091 287.2C27.5091 287.797 27.4104 288.309 27.2131 288.736C27.0211 289.157 26.7571 289.483 26.4211 289.712C26.0851 289.936 25.7011 290.048 25.2691 290.048ZM25.2691 289.52C25.5998 289.52 25.8878 289.432 26.1331 289.256C26.3784 289.075 26.5704 288.813 26.7091 288.472C26.8478 288.125 26.9171 287.701 26.9171 287.2C26.9171 286.699 26.8478 286.277 26.7091 285.936C26.5704 285.589 26.3784 285.328 26.1331 285.152C25.8878 284.971 25.5998 284.88 25.2691 284.88C24.9491 284.88 24.6638 284.971 24.4131 285.152C24.1624 285.328 23.9678 285.589 23.8291 285.936C23.6904 286.277 23.6211 286.699 23.6211 287.2C23.6211 287.701 23.6904 288.125 23.8291 288.472C23.9678 288.813 24.1624 289.075 24.4131 289.256C24.6638 289.432 24.9491 289.52 25.2691 289.52ZM29.31 290V284.64L29.566 284.912H27.99V284.4H29.886V290H29.31ZM33.3526 290.048C32.9046 290.048 32.5179 289.984 32.1926 289.856C31.8726 289.728 31.6246 289.544 31.4486 289.304C31.2779 289.059 31.1926 288.771 31.1926 288.44C31.1926 288.12 31.2753 287.848 31.4406 287.624C31.6113 287.395 31.8566 287.219 32.1766 287.096C32.5019 286.973 32.8939 286.912 33.3526 286.912C33.8059 286.912 34.1953 286.973 34.5206 287.096C34.8459 287.219 35.0939 287.395 35.2646 287.624C35.4406 287.848 35.5286 288.12 35.5286 288.44C35.5286 288.771 35.4406 289.059 35.2646 289.304C35.0886 289.544 34.8379 289.728 34.5126 289.856C34.1873 289.984 33.8006 290.048 33.3526 290.048ZM33.3526 289.56C33.8486 289.56 34.2353 289.459 34.5126 289.256C34.7953 289.053 34.9366 288.779 34.9366 288.432C34.9366 288.085 34.7953 287.813 34.5126 287.616C34.2353 287.413 33.8486 287.312 33.3526 287.312C32.8566 287.312 32.4699 287.413 32.1926 287.616C31.9153 287.813 31.7766 288.085 31.7766 288.432C31.7766 288.779 31.9153 289.053 32.1926 289.256C32.4699 289.459 32.8566 289.56 33.3526 289.56ZM33.3526 287.24C32.9366 287.24 32.5819 287.184 32.2886 287.072C32.0006 286.96 31.7793 286.8 31.6246 286.592C31.4699 286.379 31.3926 286.125 31.3926 285.832C31.3926 285.523 31.4726 285.259 31.6326 285.04C31.7979 284.816 32.0273 284.645 32.3206 284.528C32.6139 284.411 32.9579 284.352 33.3526 284.352C33.7473 284.352 34.0913 284.411 34.3846 284.528C34.6833 284.645 34.9153 284.816 35.0806 285.04C35.2459 285.259 35.3286 285.523 35.3286 285.832C35.3286 286.125 35.2513 286.379 35.0966 286.592C34.9419 286.8 34.7153 286.96 34.4166 287.072C34.1233 287.184 33.7686 287.24 33.3526 287.24ZM33.3526 286.856C33.7899 286.856 34.1313 286.765 34.3766 286.584C34.6219 286.403 34.7446 286.16 34.7446 285.856C34.7446 285.536 34.6166 285.288 34.3606 285.112C34.1099 284.931 33.7739 284.84 33.3526 284.84C32.9313 284.84 32.5953 284.931 32.3446 285.112C32.0939 285.288 31.9686 285.533 31.9686 285.848C31.9686 286.157 32.0886 286.403 32.3286 286.584C32.5739 286.765 32.9153 286.856 33.3526 286.856Z" fill="#858C95"/>
<path d="M161.515 290V289.592L163.843 287.312C164.056 287.104 164.216 286.923 164.323 286.768C164.43 286.608 164.502 286.459 164.539 286.32C164.576 286.181 164.595 286.051 164.595 285.928C164.595 285.603 164.483 285.347 164.259 285.16C164.04 284.973 163.715 284.88 163.283 284.88C162.952 284.88 162.659 284.931 162.403 285.032C162.152 285.133 161.936 285.291 161.755 285.504L161.347 285.152C161.566 284.896 161.846 284.699 162.187 284.56C162.528 284.421 162.91 284.352 163.331 284.352C163.71 284.352 164.038 284.413 164.315 284.536C164.592 284.653 164.806 284.827 164.955 285.056C165.11 285.285 165.187 285.555 165.187 285.864C165.187 286.045 165.16 286.224 165.107 286.4C165.059 286.576 164.968 286.763 164.835 286.96C164.707 287.152 164.518 287.371 164.267 287.616L162.131 289.712L161.971 289.488H165.443V290H161.515ZM168.382 290.048C167.95 290.048 167.566 289.936 167.23 289.712C166.894 289.483 166.63 289.157 166.438 288.736C166.246 288.309 166.15 287.797 166.15 287.2C166.15 286.603 166.246 286.093 166.438 285.672C166.63 285.245 166.894 284.92 167.23 284.696C167.566 284.467 167.95 284.352 168.382 284.352C168.814 284.352 169.198 284.467 169.534 284.696C169.87 284.92 170.134 285.245 170.326 285.672C170.524 286.093 170.622 286.603 170.622 287.2C170.622 287.797 170.524 288.309 170.326 288.736C170.134 289.157 169.87 289.483 169.534 289.712C169.198 289.936 168.814 290.048 168.382 290.048ZM168.382 289.52C168.713 289.52 169.001 289.432 169.246 289.256C169.492 289.075 169.684 288.813 169.822 288.472C169.961 288.125 170.03 287.701 170.03 287.2C170.03 286.699 169.961 286.277 169.822 285.936C169.684 285.589 169.492 285.328 169.246 285.152C169.001 284.971 168.713 284.88 168.382 284.88C168.062 284.88 167.777 284.971 167.526 285.152C167.276 285.328 167.081 285.589 166.942 285.936C166.804 286.277 166.734 286.699 166.734 287.2C166.734 287.701 166.804 288.125 166.942 288.472C167.081 288.813 167.276 289.075 167.526 289.256C167.777 289.432 168.062 289.52 168.382 289.52ZM172.423 290V284.64L172.679 284.912H171.103V284.4H172.999V290H172.423ZM176.082 284.352C176.578 284.352 176.997 284.464 177.338 284.688C177.679 284.907 177.938 285.224 178.114 285.64C178.29 286.056 178.378 286.56 178.378 287.152C178.378 287.781 178.269 288.312 178.05 288.744C177.837 289.176 177.538 289.501 177.154 289.72C176.77 289.939 176.325 290.048 175.818 290.048C175.567 290.048 175.327 290.024 175.098 289.976C174.874 289.928 174.671 289.851 174.49 289.744L174.722 289.28C174.866 289.376 175.031 289.445 175.218 289.488C175.41 289.525 175.607 289.544 175.81 289.544C176.413 289.544 176.893 289.352 177.25 288.968C177.613 288.584 177.794 288.011 177.794 287.248C177.794 287.125 177.786 286.979 177.77 286.808C177.759 286.637 177.73 286.467 177.682 286.296L177.882 286.448C177.829 286.725 177.714 286.963 177.538 287.16C177.367 287.352 177.154 287.499 176.898 287.6C176.647 287.701 176.367 287.752 176.058 287.752C175.69 287.752 175.362 287.683 175.074 287.544C174.791 287.405 174.57 287.211 174.41 286.96C174.25 286.709 174.17 286.413 174.17 286.072C174.17 285.72 174.253 285.416 174.418 285.16C174.583 284.904 174.81 284.707 175.098 284.568C175.391 284.424 175.719 284.352 176.082 284.352ZM176.106 284.84C175.839 284.84 175.602 284.891 175.394 284.992C175.191 285.088 175.031 285.227 174.914 285.408C174.797 285.589 174.738 285.805 174.738 286.056C174.738 286.424 174.863 286.717 175.114 286.936C175.37 287.155 175.714 287.264 176.146 287.264C176.434 287.264 176.685 287.211 176.898 287.104C177.117 286.997 177.285 286.851 177.402 286.664C177.525 286.477 177.586 286.269 177.586 286.04C177.586 285.832 177.53 285.637 177.418 285.456C177.306 285.275 177.141 285.128 176.922 285.016C176.703 284.899 176.431 284.84 176.106 284.84Z" fill="#858C95"/>
<path d="M304.484 290V289.592L306.812 287.312C307.025 287.104 307.185 286.923 307.292 286.768C307.399 286.608 307.471 286.459 307.508 286.32C307.545 286.181 307.564 286.051 307.564 285.928C307.564 285.603 307.452 285.347 307.228 285.16C307.009 284.973 306.684 284.88 306.252 284.88C305.921 284.88 305.628 284.931 305.372 285.032C305.121 285.133 304.905 285.291 304.724 285.504L304.316 285.152C304.535 284.896 304.815 284.699 305.156 284.56C305.497 284.421 305.879 284.352 306.3 284.352C306.679 284.352 307.007 284.413 307.284 284.536C307.561 284.653 307.775 284.827 307.924 285.056C308.079 285.285 308.156 285.555 308.156 285.864C308.156 286.045 308.129 286.224 308.076 286.4C308.028 286.576 307.937 286.763 307.804 286.96C307.676 287.152 307.487 287.371 307.236 287.616L305.1 289.712L304.94 289.488H308.412V290H304.484ZM311.351 290.048C310.919 290.048 310.535 289.936 310.199 289.712C309.863 289.483 309.599 289.157 309.407 288.736C309.215 288.309 309.119 287.797 309.119 287.2C309.119 286.603 309.215 286.093 309.407 285.672C309.599 285.245 309.863 284.92 310.199 284.696C310.535 284.467 310.919 284.352 311.351 284.352C311.783 284.352 312.167 284.467 312.503 284.696C312.839 284.92 313.103 285.245 313.295 285.672C313.492 286.093 313.591 286.603 313.591 287.2C313.591 287.797 313.492 288.309 313.295 288.736C313.103 289.157 312.839 289.483 312.503 289.712C312.167 289.936 311.783 290.048 311.351 290.048ZM311.351 289.52C311.682 289.52 311.97 289.432 312.215 289.256C312.46 289.075 312.652 288.813 312.791 288.472C312.93 288.125 312.999 287.701 312.999 287.2C312.999 286.699 312.93 286.277 312.791 285.936C312.652 285.589 312.46 285.328 312.215 285.152C311.97 284.971 311.682 284.88 311.351 284.88C311.031 284.88 310.746 284.971 310.495 285.152C310.244 285.328 310.05 285.589 309.911 285.936C309.772 286.277 309.703 286.699 309.703 287.2C309.703 287.701 309.772 288.125 309.911 288.472C310.05 288.813 310.244 289.075 310.495 289.256C310.746 289.432 311.031 289.52 311.351 289.52ZM314.312 290V289.592L316.64 287.312C316.853 287.104 317.013 286.923 317.12 286.768C317.227 286.608 317.299 286.459 317.336 286.32C317.373 286.181 317.392 286.051 317.392 285.928C317.392 285.603 317.28 285.347 317.056 285.16C316.837 284.973 316.512 284.88 316.08 284.88C315.749 284.88 315.456 284.931 315.2 285.032C314.949 285.133 314.733 285.291 314.552 285.504L314.144 285.152C314.363 284.896 314.643 284.699 314.984 284.56C315.325 284.421 315.707 284.352 316.128 284.352C316.507 284.352 316.835 284.413 317.112 284.536C317.389 284.653 317.603 284.827 317.752 285.056C317.907 285.285 317.984 285.555 317.984 285.864C317.984 286.045 317.957 286.224 317.904 286.4C317.856 286.576 317.765 286.763 317.632 286.96C317.504 287.152 317.315 287.371 317.064 287.616L314.928 289.712L314.768 289.488H318.24V290H314.312ZM321.179 290.048C320.747 290.048 320.363 289.936 320.027 289.712C319.691 289.483 319.427 289.157 319.235 288.736C319.043 288.309 318.947 287.797 318.947 287.2C318.947 286.603 319.043 286.093 319.235 285.672C319.427 285.245 319.691 284.92 320.027 284.696C320.363 284.467 320.747 284.352 321.179 284.352C321.611 284.352 321.995 284.467 322.331 284.696C322.667 284.92 322.931 285.245 323.123 285.672C323.321 286.093 323.419 286.603 323.419 287.2C323.419 287.797 323.321 288.309 323.123 288.736C322.931 289.157 322.667 289.483 322.331 289.712C321.995 289.936 321.611 290.048 321.179 290.048ZM321.179 289.52C321.51 289.52 321.798 289.432 322.043 289.256C322.289 289.075 322.481 288.813 322.619 288.472C322.758 288.125 322.827 287.701 322.827 287.2C322.827 286.699 322.758 286.277 322.619 285.936C322.481 285.589 322.289 285.328 322.043 285.152C321.798 284.971 321.51 284.88 321.179 284.88C320.859 284.88 320.574 284.971 320.323 285.152C320.073 285.328 319.878 285.589 319.739 285.936C319.601 286.277 319.531 286.699 319.531 287.2C319.531 287.701 319.601 288.125 319.739 288.472C319.878 288.813 320.073 289.075 320.323 289.256C320.574 289.432 320.859 289.52 321.179 289.52Z" fill="#858C95"/>
<path d="M449.679 290V289.592L452.007 287.312C452.221 287.104 452.381 286.923 452.487 286.768C452.594 286.608 452.666 286.459 452.703 286.32C452.741 286.181 452.759 286.051 452.759 285.928C452.759 285.603 452.647 285.347 452.423 285.16C452.205 284.973 451.879 284.88 451.447 284.88C451.117 284.88 450.823 284.931 450.567 285.032C450.317 285.133 450.101 285.291 449.919 285.504L449.511 285.152C449.73 284.896 450.01 284.699 450.351 284.56C450.693 284.421 451.074 284.352 451.495 284.352C451.874 284.352 452.202 284.413 452.479 284.536C452.757 284.653 452.97 284.827 453.119 285.056C453.274 285.285 453.351 285.555 453.351 285.864C453.351 286.045 453.325 286.224 453.271 286.4C453.223 286.576 453.133 286.763 452.999 286.96C452.871 287.152 452.682 287.371 452.431 287.616L450.295 289.712L450.135 289.488H453.607V290H449.679ZM456.546 290.048C456.114 290.048 455.73 289.936 455.394 289.712C455.058 289.483 454.794 289.157 454.602 288.736C454.41 288.309 454.314 287.797 454.314 287.2C454.314 286.603 454.41 286.093 454.602 285.672C454.794 285.245 455.058 284.92 455.394 284.696C455.73 284.467 456.114 284.352 456.546 284.352C456.978 284.352 457.362 284.467 457.698 284.696C458.034 284.92 458.298 285.245 458.49 285.672C458.688 286.093 458.786 286.603 458.786 287.2C458.786 287.797 458.688 288.309 458.49 288.736C458.298 289.157 458.034 289.483 457.698 289.712C457.362 289.936 456.978 290.048 456.546 290.048ZM456.546 289.52C456.877 289.52 457.165 289.432 457.41 289.256C457.656 289.075 457.848 288.813 457.986 288.472C458.125 288.125 458.194 287.701 458.194 287.2C458.194 286.699 458.125 286.277 457.986 285.936C457.848 285.589 457.656 285.328 457.41 285.152C457.165 284.971 456.877 284.88 456.546 284.88C456.226 284.88 455.941 284.971 455.69 285.152C455.44 285.328 455.245 285.589 455.106 285.936C454.968 286.277 454.898 286.699 454.898 287.2C454.898 287.701 454.968 288.125 455.106 288.472C455.245 288.813 455.44 289.075 455.69 289.256C455.941 289.432 456.226 289.52 456.546 289.52ZM459.507 290V289.592L461.835 287.312C462.049 287.104 462.209 286.923 462.315 286.768C462.422 286.608 462.494 286.459 462.531 286.32C462.569 286.181 462.587 286.051 462.587 285.928C462.587 285.603 462.475 285.347 462.251 285.16C462.033 284.973 461.707 284.88 461.275 284.88C460.945 284.88 460.651 284.931 460.395 285.032C460.145 285.133 459.929 285.291 459.747 285.504L459.339 285.152C459.558 284.896 459.838 284.699 460.179 284.56C460.521 284.421 460.902 284.352 461.323 284.352C461.702 284.352 462.03 284.413 462.307 284.536C462.585 284.653 462.798 284.827 462.947 285.056C463.102 285.285 463.179 285.555 463.179 285.864C463.179 286.045 463.153 286.224 463.099 286.4C463.051 286.576 462.961 286.763 462.827 286.96C462.699 287.152 462.51 287.371 462.259 287.616L460.123 289.712L459.963 289.488H463.435V290H459.507ZM465.134 290V284.64L465.39 284.912H463.814V284.4H465.71V290H465.134Z" fill="#858C95"/>
<path d="M592.351 290V289.592L594.679 287.312C594.892 287.104 595.052 286.923 595.159 286.768C595.266 286.608 595.338 286.459 595.375 286.32C595.412 286.181 595.431 286.051 595.431 285.928C595.431 285.603 595.319 285.347 595.095 285.16C594.876 284.973 594.551 284.88 594.119 284.88C593.788 284.88 593.495 284.931 593.239 285.032C592.988 285.133 592.772 285.291 592.591 285.504L592.183 285.152C592.402 284.896 592.682 284.699 593.023 284.56C593.364 284.421 593.746 284.352 594.167 284.352C594.546 284.352 594.874 284.413 595.151 284.536C595.428 284.653 595.642 284.827 595.791 285.056C595.946 285.285 596.023 285.555 596.023 285.864C596.023 286.045 595.996 286.224 595.943 286.4C595.895 286.576 595.804 286.763 595.671 286.96C595.543 287.152 595.354 287.371 595.103 287.616L592.967 289.712L592.807 289.488H596.279V290H592.351ZM599.218 290.048C598.786 290.048 598.402 289.936 598.066 289.712C597.73 289.483 597.466 289.157 597.274 288.736C597.082 288.309 596.986 287.797 596.986 287.2C596.986 286.603 597.082 286.093 597.274 285.672C597.466 285.245 597.73 284.92 598.066 284.696C598.402 284.467 598.786 284.352 599.218 284.352C599.65 284.352 600.034 284.467 600.37 284.696C600.706 284.92 600.97 285.245 601.162 285.672C601.36 286.093 601.458 286.603 601.458 287.2C601.458 287.797 601.36 288.309 601.162 288.736C600.97 289.157 600.706 289.483 600.37 289.712C600.034 289.936 599.65 290.048 599.218 290.048ZM599.218 289.52C599.549 289.52 599.837 289.432 600.082 289.256C600.328 289.075 600.52 288.813 600.658 288.472C600.797 288.125 600.866 287.701 600.866 287.2C600.866 286.699 600.797 286.277 600.658 285.936C600.52 285.589 600.328 285.328 600.082 285.152C599.837 284.971 599.549 284.88 599.218 284.88C598.898 284.88 598.613 284.971 598.362 285.152C598.112 285.328 597.917 285.589 597.778 285.936C597.64 286.277 597.57 286.699 597.57 287.2C597.57 287.701 597.64 288.125 597.778 288.472C597.917 288.813 598.112 289.075 598.362 289.256C598.613 289.432 598.898 289.52 599.218 289.52ZM602.179 290V289.592L604.507 287.312C604.721 287.104 604.881 286.923 604.987 286.768C605.094 286.608 605.166 286.459 605.203 286.32C605.241 286.181 605.259 286.051 605.259 285.928C605.259 285.603 605.147 285.347 604.923 285.16C604.705 284.973 604.379 284.88 603.947 284.88C603.617 284.88 603.323 284.931 603.067 285.032C602.817 285.133 602.601 285.291 602.419 285.504L602.011 285.152C602.23 284.896 602.51 284.699 602.851 284.56C603.193 284.421 603.574 284.352 603.995 284.352C604.374 284.352 604.702 284.413 604.979 284.536C605.257 284.653 605.47 284.827 605.619 285.056C605.774 285.285 605.851 285.555 605.851 285.864C605.851 286.045 605.825 286.224 605.771 286.4C605.723 286.576 605.633 286.763 605.499 286.96C605.371 287.152 605.182 287.371 604.931 287.616L602.795 289.712L602.635 289.488H606.107V290H602.179ZM606.726 290V289.592L609.054 287.312C609.267 287.104 609.427 286.923 609.534 286.768C609.641 286.608 609.713 286.459 609.75 286.32C609.787 286.181 609.806 286.051 609.806 285.928C609.806 285.603 609.694 285.347 609.47 285.16C609.251 284.973 608.926 284.88 608.494 284.88C608.163 284.88 607.87 284.931 607.614 285.032C607.363 285.133 607.147 285.291 606.966 285.504L606.558 285.152C606.777 284.896 607.057 284.699 607.398 284.56C607.739 284.421 608.121 284.352 608.542 284.352C608.921 284.352 609.249 284.413 609.526 284.536C609.803 284.653 610.017 284.827 610.166 285.056C610.321 285.285 610.398 285.555 610.398 285.864C610.398 286.045 610.371 286.224 610.318 286.4C610.27 286.576 610.179 286.763 610.046 286.96C609.918 287.152 609.729 287.371 609.478 287.616L607.342 289.712L607.182 289.488H610.654V290H606.726Z" fill="#858C95"/>
<path d="M1.96213 42C1.95679 41.664 1.98346 41.368 2.04213 41.112C2.10079 40.856 2.18879 40.6293 2.30613 40.432C2.42879 40.2347 2.57546 40.064 2.74613 39.92C2.91679 39.7707 3.10879 39.64 3.32213 39.528C3.52479 39.416 3.73546 39.3147 3.95413 39.224C4.17279 39.128 4.37546 39.024 4.56213 38.912C4.74879 38.8 4.89813 38.664 5.01013 38.504C5.12746 38.3387 5.18613 38.1333 5.18613 37.888C5.18613 37.6853 5.14079 37.4987 5.05013 37.328C4.96479 37.1573 4.83146 37.0213 4.65013 36.92C4.46879 36.8133 4.23946 36.76 3.96213 36.76C3.69013 36.76 3.44746 36.8053 3.23413 36.896C3.02613 36.9867 2.85013 37.096 2.70613 37.224C2.56746 37.352 2.45546 37.4693 2.37013 37.576L2.01013 37.224C2.04213 37.1867 2.10613 37.1147 2.20213 37.008C2.30346 36.9013 2.43679 36.7893 2.60213 36.672C2.77279 36.5547 2.97279 36.456 3.20213 36.376C3.43679 36.2907 3.70879 36.248 4.01813 36.248C4.41279 36.248 4.74079 36.3253 5.00213 36.48C5.26346 36.6293 5.45813 36.8267 5.58613 37.072C5.71946 37.3173 5.78613 37.5867 5.78613 37.88C5.78613 38.1627 5.73013 38.4027 5.61812 38.6C5.51146 38.792 5.37013 38.9547 5.19413 39.088C5.02346 39.216 4.83679 39.328 4.63413 39.424C4.43679 39.52 4.25013 39.6107 4.07413 39.696C3.73279 39.8507 3.46079 40.0027 3.25813 40.152C3.05546 40.3013 2.90346 40.4507 2.80213 40.6C2.70613 40.7493 2.64213 40.8987 2.61013 41.048C2.57813 41.1973 2.55946 41.3493 2.55413 41.504H5.79413V42H1.96213ZM9.39456 41.504V42H6.74656V41.504H7.82656V36.856C7.77856 36.92 7.70656 36.992 7.61056 37.072C7.5199 37.1467 7.41323 37.2213 7.29056 37.296C7.1679 37.3653 7.04256 37.424 6.91456 37.472C6.78656 37.52 6.66923 37.544 6.56256 37.544V37.032C6.70656 37.032 6.85056 36.9947 6.99456 36.92C7.13856 36.84 7.2719 36.752 7.39456 36.656C7.52256 36.5547 7.6239 36.464 7.69856 36.384C7.77856 36.2987 7.82123 36.2533 7.82656 36.248H8.37856V41.504H9.39456ZM12.2673 42.08C11.8833 42.0693 11.5446 41.976 11.2513 41.8C10.9579 41.624 10.7126 41.3947 10.5153 41.112C10.3179 40.824 10.1686 40.5147 10.0673 40.184C9.96592 39.848 9.91525 39.52 9.91525 39.2C9.91525 38.8587 9.96858 38.5173 10.0753 38.176C10.1873 37.8347 10.3446 37.5253 10.5473 37.248C10.7553 36.9653 11.0033 36.7413 11.2913 36.576C11.5793 36.4053 11.9046 36.32 12.2673 36.32C12.6566 36.32 12.9953 36.4107 13.2833 36.592C13.5766 36.7733 13.8219 37.008 14.0193 37.296C14.2166 37.584 14.3633 37.896 14.4593 38.232C14.5606 38.568 14.6113 38.8907 14.6113 39.2C14.6113 39.5467 14.5553 39.8907 14.4433 40.232C14.3366 40.568 14.1819 40.8747 13.9793 41.152C13.7766 41.4293 13.5286 41.6533 13.2353 41.824C12.9473 41.9893 12.6246 42.0747 12.2673 42.08ZM10.4833 39.2C10.4939 39.4773 10.5366 39.7573 10.6113 40.04C10.6913 40.3173 10.8059 40.5733 10.9553 40.808C11.1046 41.0373 11.2859 41.224 11.4993 41.368C11.7179 41.5067 11.9739 41.576 12.2673 41.576C12.5659 41.576 12.8273 41.5013 13.0513 41.352C13.2753 41.2027 13.4593 41.008 13.6033 40.768C13.7526 40.5227 13.8646 40.264 13.9392 39.992C14.0139 39.7147 14.0512 39.4507 14.0512 39.2C14.0512 38.9227 14.0113 38.6453 13.9313 38.368C13.8513 38.0853 13.7339 37.8293 13.5793 37.6C13.4246 37.3653 13.2379 37.1787 13.0193 37.04C12.8006 36.896 12.5499 36.824 12.2673 36.824C11.9633 36.824 11.6993 36.9013 11.4753 37.056C11.2513 37.2053 11.0646 37.4 10.9153 37.64C10.7713 37.88 10.6619 38.1387 10.5872 38.416C10.5179 38.688 10.4833 38.9493 10.4833 39.2Z" fill="#858C95"/>
<path d="M0.798063 80C0.792729 79.664 0.819396 79.368 0.878063 79.112C0.936729 78.856 1.02473 78.6293 1.14206 78.432C1.26473 78.2347 1.4114 78.064 1.58206 77.92C1.75273 77.7707 1.94473 77.64 2.15806 77.528C2.36073 77.416 2.5714 77.3147 2.79006 77.224C3.00873 77.128 3.2114 77.024 3.39806 76.912C3.58473 76.8 3.73406 76.664 3.84606 76.504C3.9634 76.3387 4.02206 76.1333 4.02206 75.888C4.02206 75.6853 3.97673 75.4987 3.88606 75.328C3.80073 75.1573 3.6674 75.0213 3.48606 74.92C3.30473 74.8133 3.0754 74.76 2.79806 74.76C2.52606 74.76 2.2834 74.8053 2.07006 74.896C1.86206 74.9867 1.68606 75.096 1.54206 75.224C1.4034 75.352 1.2914 75.4693 1.20606 75.576L0.846063 75.224C0.878063 75.1867 0.942063 75.1147 1.03806 75.008C1.1394 74.9013 1.27273 74.7893 1.43806 74.672C1.60873 74.5547 1.80873 74.456 2.03806 74.376C2.27273 74.2907 2.54473 74.248 2.85406 74.248C3.24873 74.248 3.57673 74.3253 3.83806 74.48C4.0994 74.6293 4.29406 74.8267 4.42206 75.072C4.5554 75.3173 4.62206 75.5867 4.62206 75.88C4.62206 76.1627 4.56606 76.4027 4.45406 76.6C4.3474 76.792 4.20606 76.9547 4.03006 77.088C3.8594 77.216 3.67273 77.328 3.47006 77.424C3.27273 77.52 3.08606 77.6107 2.91006 77.696C2.56873 77.8507 2.29673 78.0027 2.09406 78.152C1.8914 78.3013 1.7394 78.4507 1.63806 78.6C1.54206 78.7493 1.47806 78.8987 1.44606 79.048C1.41406 79.1973 1.3954 79.3493 1.39006 79.504H4.63006V80H0.798063ZM7.7985 80.08C7.4145 80.0693 7.07583 79.976 6.7825 79.8C6.48917 79.624 6.24383 79.3947 6.0465 79.112C5.84917 78.824 5.69983 78.5147 5.5985 78.184C5.49717 77.848 5.4465 77.52 5.4465 77.2C5.4465 76.8587 5.49983 76.5173 5.6065 76.176C5.7185 75.8347 5.87583 75.5253 6.0785 75.248C6.2865 74.9653 6.5345 74.7413 6.8225 74.576C7.1105 74.4053 7.43583 74.32 7.7985 74.32C8.18783 74.32 8.5265 74.4107 8.8145 74.592C9.10783 74.7733 9.35317 75.008 9.5505 75.296C9.74783 75.584 9.8945 75.896 9.9905 76.232C10.0918 76.568 10.1425 76.8907 10.1425 77.2C10.1425 77.5467 10.0865 77.8907 9.9745 78.232C9.86783 78.568 9.71317 78.8747 9.5105 79.152C9.30783 79.4293 9.05983 79.6533 8.7665 79.824C8.4785 79.9893 8.15583 80.0747 7.7985 80.08ZM6.0145 77.2C6.02517 77.4773 6.06783 77.7573 6.1425 78.04C6.2225 78.3173 6.33717 78.5733 6.4865 78.808C6.63583 79.0373 6.81717 79.224 7.0305 79.368C7.24917 79.5067 7.50517 79.576 7.7985 79.576C8.09717 79.576 8.3585 79.5013 8.5825 79.352C8.8065 79.2027 8.9905 79.008 9.1345 78.768C9.28383 78.5227 9.39583 78.264 9.4705 77.992C9.54517 77.7147 9.5825 77.4507 9.5825 77.2C9.5825 76.9227 9.5425 76.6453 9.4625 76.368C9.3825 76.0853 9.26517 75.8293 9.1105 75.6C8.95583 75.3653 8.76917 75.1787 8.5505 75.04C8.33183 74.896 8.08117 74.824 7.7985 74.824C7.4945 74.824 7.2305 74.9013 7.0065 75.056C6.7825 75.2053 6.59583 75.4 6.4465 75.64C6.3025 75.88 6.19317 76.1387 6.1185 76.416C6.04917 76.688 6.0145 76.9493 6.0145 77.2ZM13.2673 80.08C12.8833 80.0693 12.5446 79.976 12.2513 79.8C11.9579 79.624 11.7126 79.3947 11.5153 79.112C11.3179 78.824 11.1686 78.5147 11.0673 78.184C10.9659 77.848 10.9153 77.52 10.9153 77.2C10.9153 76.8587 10.9686 76.5173 11.0753 76.176C11.1873 75.8347 11.3446 75.5253 11.5473 75.248C11.7553 74.9653 12.0033 74.7413 12.2913 74.576C12.5793 74.4053 12.9046 74.32 13.2673 74.32C13.6566 74.32 13.9953 74.4107 14.2833 74.592C14.5766 74.7733 14.8219 75.008 15.0193 75.296C15.2166 75.584 15.3633 75.896 15.4593 76.232C15.5606 76.568 15.6113 76.8907 15.6113 77.2C15.6113 77.5467 15.5553 77.8907 15.4433 78.232C15.3366 78.568 15.1819 78.8747 14.9793 79.152C14.7766 79.4293 14.5286 79.6533 14.2353 79.824C13.9473 79.9893 13.6246 80.0747 13.2673 80.08ZM11.4833 77.2C11.4939 77.4773 11.5366 77.7573 11.6113 78.04C11.6913 78.3173 11.8059 78.5733 11.9553 78.808C12.1046 79.0373 12.2859 79.224 12.4993 79.368C12.7179 79.5067 12.9739 79.576 13.2673 79.576C13.5659 79.576 13.8273 79.5013 14.0513 79.352C14.2753 79.2027 14.4593 79.008 14.6033 78.768C14.7526 78.5227 14.8646 78.264 14.9392 77.992C15.0139 77.7147 15.0512 77.4507 15.0512 77.2C15.0512 76.9227 15.0113 76.6453 14.9313 76.368C14.8513 76.0853 14.7339 75.8293 14.5793 75.6C14.4246 75.3653 14.2379 75.1787 14.0193 75.04C13.8006 74.896 13.5499 74.824 13.2673 74.824C12.9633 74.824 12.6993 74.9013 12.4753 75.056C12.2513 75.2053 12.0646 75.4 11.9153 75.64C11.7713 75.88 11.6619 76.1387 11.5872 76.416C11.5179 76.688 11.4833 76.9493 11.4833 77.2Z" fill="#858C95"/>
<path d="M4.55081 117.504V118H1.90281V117.504H2.98281V112.856C2.93481 112.92 2.86281 112.992 2.76681 113.072C2.67615 113.147 2.56948 113.221 2.44681 113.296C2.32415 113.365 2.19881 113.424 2.07081 113.472C1.94281 113.52 1.82548 113.544 1.71881 113.544V113.032C1.86281 113.032 2.00681 112.995 2.15081 112.92C2.29481 112.84 2.42815 112.752 2.55081 112.656C2.67881 112.555 2.78015 112.464 2.85481 112.384C2.93481 112.299 2.97748 112.253 2.98281 112.248H3.53481V117.504H4.55081ZM5.06294 114.232C5.06294 113.869 5.15094 113.541 5.32694 113.248C5.50294 112.949 5.74294 112.715 6.04694 112.544C6.35627 112.368 6.6976 112.28 7.07094 112.28C7.47627 112.28 7.83094 112.376 8.13494 112.568C8.43894 112.755 8.67627 113.024 8.84694 113.376C9.02294 113.728 9.11094 114.152 9.11094 114.648C9.11094 115.421 9.02294 116.061 8.84694 116.568C8.67627 117.075 8.4336 117.453 8.11894 117.704C7.80427 117.955 7.43627 118.08 7.01494 118.08C6.6416 118.08 6.3056 117.987 6.00694 117.8C5.70827 117.608 5.4816 117.347 5.32694 117.016L5.67094 116.704C5.78827 116.971 5.96694 117.187 6.20694 117.352C6.45227 117.512 6.72427 117.592 7.02294 117.592C7.3376 117.592 7.61227 117.496 7.84694 117.304C8.0816 117.107 8.26294 116.824 8.39094 116.456C8.52427 116.088 8.59094 115.643 8.59094 115.12C8.51627 115.323 8.39894 115.504 8.23894 115.664C8.08427 115.819 7.90027 115.939 7.68694 116.024C7.47894 116.109 7.25494 116.152 7.01494 116.152C6.65227 116.152 6.3216 116.067 6.02294 115.896C5.7296 115.725 5.49494 115.493 5.31894 115.2C5.14827 114.907 5.06294 114.584 5.06294 114.232ZM7.06294 112.752C6.79627 112.752 6.55094 112.819 6.32694 112.952C6.10294 113.085 5.92427 113.264 5.79094 113.488C5.6576 113.712 5.59094 113.957 5.59094 114.224C5.59094 114.496 5.6576 114.744 5.79094 114.968C5.92427 115.187 6.10294 115.365 6.32694 115.504C6.55627 115.637 6.80427 115.704 7.07094 115.704C7.34294 115.704 7.59094 115.637 7.81494 115.504C8.03894 115.365 8.2176 115.187 8.35094 114.968C8.4896 114.744 8.55894 114.499 8.55894 114.232C8.55894 113.965 8.4896 113.72 8.35094 113.496C8.21227 113.272 8.03094 113.093 7.80694 112.96C7.58294 112.821 7.33494 112.752 7.06294 112.752ZM12.2673 118.08C11.8833 118.069 11.5446 117.976 11.2513 117.8C10.9579 117.624 10.7126 117.395 10.5153 117.112C10.3179 116.824 10.1686 116.515 10.0673 116.184C9.96592 115.848 9.91525 115.52 9.91525 115.2C9.91525 114.859 9.96858 114.517 10.0753 114.176C10.1873 113.835 10.3446 113.525 10.5473 113.248C10.7553 112.965 11.0033 112.741 11.2913 112.576C11.5793 112.405 11.9046 112.32 12.2673 112.32C12.6566 112.32 12.9953 112.411 13.2833 112.592C13.5766 112.773 13.8219 113.008 14.0193 113.296C14.2166 113.584 14.3633 113.896 14.4593 114.232C14.5606 114.568 14.6113 114.891 14.6113 115.2C14.6113 115.547 14.5553 115.891 14.4433 116.232C14.3366 116.568 14.1819 116.875 13.9793 117.152C13.7766 117.429 13.5286 117.653 13.2353 117.824C12.9473 117.989 12.6246 118.075 12.2673 118.08ZM10.4833 115.2C10.4939 115.477 10.5366 115.757 10.6113 116.04C10.6913 116.317 10.8059 116.573 10.9553 116.808C11.1046 117.037 11.2859 117.224 11.4993 117.368C11.7179 117.507 11.9739 117.576 12.2673 117.576C12.5659 117.576 12.8273 117.501 13.0513 117.352C13.2753 117.203 13.4593 117.008 13.6033 116.768C13.7526 116.523 13.8646 116.264 13.9392 115.992C14.0139 115.715 14.0512 115.451 14.0512 115.2C14.0512 114.923 14.0113 114.645 13.9313 114.368C13.8513 114.085 13.7339 113.829 13.5793 113.6C13.4246 113.365 13.2379 113.179 13.0193 113.04C12.8006 112.896 12.5499 112.824 12.2673 112.824C11.9633 112.824 11.6993 112.901 11.4753 113.056C11.2513 113.205 11.0646 113.4 10.9153 113.64C10.7713 113.88 10.6619 114.139 10.5872 114.416C10.5179 114.688 10.4833 114.949 10.4833 115.2Z" fill="#858C95"/>
<path d="M4.62894 155.504V156H1.98094V155.504H3.06094V150.856C3.01294 150.92 2.94094 150.992 2.84494 151.072C2.75427 151.147 2.6476 151.221 2.52494 151.296C2.40227 151.365 2.27694 151.424 2.14894 151.472C2.02094 151.52 1.9036 151.544 1.79694 151.544V151.032C1.94094 151.032 2.08494 150.995 2.22894 150.92C2.37294 150.84 2.50627 150.752 2.62894 150.656C2.75694 150.555 2.85827 150.464 2.93294 150.384C3.01294 150.299 3.0556 150.253 3.06094 150.248H3.61294V155.504H4.62894ZM9.13306 154.424C9.13306 154.755 9.03973 155.043 8.85306 155.288C8.67173 155.533 8.42906 155.725 8.12506 155.864C7.8264 155.997 7.4984 156.064 7.14106 156.064C6.7624 156.064 6.4264 155.989 6.13306 155.84C5.83973 155.685 5.60773 155.483 5.43706 155.232C5.27173 154.981 5.18906 154.701 5.18906 154.392C5.18906 154.152 5.24506 153.936 5.35706 153.744C5.4744 153.547 5.6184 153.381 5.78906 153.248C5.96506 153.115 6.14373 153.019 6.32506 152.96C6.15973 152.891 6.00506 152.8 5.86106 152.688C5.71706 152.571 5.6024 152.435 5.51706 152.28C5.43173 152.125 5.38906 151.955 5.38906 151.768C5.38906 151.533 5.43973 151.328 5.54106 151.152C5.64773 150.971 5.7864 150.819 5.95706 150.696C6.12773 150.568 6.31706 150.475 6.52506 150.416C6.7384 150.352 6.95173 150.32 7.16506 150.32C7.37306 150.32 7.58106 150.352 7.78906 150.416C8.0024 150.475 8.1944 150.565 8.36506 150.688C8.54106 150.811 8.67973 150.963 8.78106 151.144C8.88773 151.32 8.94106 151.525 8.94106 151.76C8.94106 151.947 8.89573 152.12 8.80506 152.28C8.71973 152.435 8.60506 152.571 8.46106 152.688C8.31706 152.8 8.15973 152.891 7.98906 152.96C8.19706 153.029 8.3864 153.136 8.55706 153.28C8.73306 153.419 8.87173 153.584 8.97306 153.776C9.07973 153.968 9.13306 154.184 9.13306 154.424ZM8.58106 154.384C8.58106 154.192 8.5384 154.024 8.45306 153.88C8.37306 153.731 8.26106 153.605 8.11706 153.504C7.9784 153.403 7.82373 153.325 7.65306 153.272C7.48773 153.219 7.31973 153.192 7.14906 153.192C6.91973 153.192 6.69573 153.243 6.47706 153.344C6.26373 153.44 6.08773 153.579 5.94906 153.76C5.81573 153.936 5.74906 154.147 5.74906 154.392C5.74906 154.579 5.78906 154.744 5.86906 154.888C5.9544 155.032 6.0664 155.157 6.20506 155.264C6.34373 155.365 6.49573 155.443 6.66106 155.496C6.83173 155.549 7.0024 155.576 7.17306 155.576C7.4024 155.576 7.62373 155.528 7.83706 155.432C8.05573 155.331 8.2344 155.189 8.37306 155.008C8.51173 154.827 8.58106 154.619 8.58106 154.384ZM5.93306 151.792C5.93306 151.995 5.9944 152.171 6.11706 152.32C6.24506 152.464 6.40506 152.573 6.59706 152.648C6.78906 152.723 6.97573 152.76 7.15706 152.76C7.34906 152.76 7.5384 152.723 7.72506 152.648C7.91706 152.568 8.0744 152.456 8.19706 152.312C8.32506 152.163 8.38906 151.984 8.38906 151.776C8.38906 151.573 8.3304 151.4 8.21306 151.256C8.09573 151.112 7.94106 151.003 7.74906 150.928C7.5624 150.853 7.3624 150.816 7.14906 150.816C6.9464 150.816 6.74906 150.856 6.55706 150.936C6.3704 151.011 6.2184 151.123 6.10106 151.272C5.98906 151.416 5.93306 151.589 5.93306 151.792ZM12.2673 156.08C11.8833 156.069 11.5446 155.976 11.2513 155.8C10.9579 155.624 10.7126 155.395 10.5153 155.112C10.3179 154.824 10.1686 154.515 10.0673 154.184C9.96592 153.848 9.91525 153.52 9.91525 153.2C9.91525 152.859 9.96858 152.517 10.0753 152.176C10.1873 151.835 10.3446 151.525 10.5473 151.248C10.7553 150.965 11.0033 150.741 11.2913 150.576C11.5793 150.405 11.9046 150.32 12.2673 150.32C12.6566 150.32 12.9953 150.411 13.2833 150.592C13.5766 150.773 13.8219 151.008 14.0193 151.296C14.2166 151.584 14.3633 151.896 14.4593 152.232C14.5606 152.568 14.6113 152.891 14.6113 153.2C14.6113 153.547 14.5553 153.891 14.4433 154.232C14.3366 154.568 14.1819 154.875 13.9793 155.152C13.7766 155.429 13.5286 155.653 13.2353 155.824C12.9473 155.989 12.6246 156.075 12.2673 156.08ZM10.4833 153.2C10.4939 153.477 10.5366 153.757 10.6113 154.04C10.6913 154.317 10.8059 154.573 10.9553 154.808C11.1046 155.037 11.2859 155.224 11.4993 155.368C11.7179 155.507 11.9739 155.576 12.2673 155.576C12.5659 155.576 12.8273 155.501 13.0513 155.352C13.2753 155.203 13.4593 155.008 13.6033 154.768C13.7526 154.523 13.8646 154.264 13.9392 153.992C14.0139 153.715 14.0512 153.451 14.0512 153.2C14.0512 152.923 14.0113 152.645 13.9313 152.368C13.8513 152.085 13.7339 151.829 13.5793 151.6C13.4246 151.365 13.2379 151.179 13.0193 151.04C12.8006 150.896 12.5499 150.824 12.2673 150.824C11.9633 150.824 11.6993 150.901 11.4753 151.056C11.2513 151.205 11.0646 151.4 10.9153 151.64C10.7713 151.88 10.6619 152.139 10.5872 152.416C10.5179 152.688 10.4833 152.949 10.4833 153.2Z" fill="#858C95"/>
<path d="M4.793 193.504V194H2.145V193.504H3.225V188.856C3.177 188.92 3.105 188.992 3.009 189.072C2.91833 189.147 2.81167 189.221 2.689 189.296C2.56633 189.365 2.441 189.424 2.313 189.472C2.185 189.52 2.06767 189.544 1.961 189.544V189.032C2.105 189.032 2.249 188.995 2.393 188.92C2.537 188.84 2.67033 188.752 2.793 188.656C2.921 188.555 3.02233 188.464 3.097 188.384C3.177 188.299 3.21967 188.253 3.225 188.248H3.777V193.504H4.793ZM8.26513 188.824H5.20113V188.32H9.12913L6.24913 194H5.64113L8.26513 188.824ZM11.7673 194.08C11.3833 194.069 11.0446 193.976 10.7513 193.8C10.4579 193.624 10.2126 193.395 10.0153 193.112C9.81792 192.824 9.66858 192.515 9.56725 192.184C9.46592 191.848 9.41525 191.52 9.41525 191.2C9.41525 190.859 9.46858 190.517 9.57525 190.176C9.68725 189.835 9.84458 189.525 10.0473 189.248C10.2553 188.965 10.5033 188.741 10.7913 188.576C11.0793 188.405 11.4046 188.32 11.7673 188.32C12.1566 188.32 12.4953 188.411 12.7833 188.592C13.0766 188.773 13.3219 189.008 13.5193 189.296C13.7166 189.584 13.8633 189.896 13.9593 190.232C14.0606 190.568 14.1113 190.891 14.1113 191.2C14.1113 191.547 14.0553 191.891 13.9433 192.232C13.8366 192.568 13.6819 192.875 13.4793 193.152C13.2766 193.429 13.0286 193.653 12.7353 193.824C12.4473 193.989 12.1246 194.075 11.7673 194.08ZM9.98325 191.2C9.99392 191.477 10.0366 191.757 10.1113 192.04C10.1913 192.317 10.3059 192.573 10.4553 192.808C10.6046 193.037 10.7859 193.224 10.9993 193.368C11.2179 193.507 11.4739 193.576 11.7673 193.576C12.0659 193.576 12.3273 193.501 12.5513 193.352C12.7753 193.203 12.9593 193.008 13.1033 192.768C13.2526 192.523 13.3646 192.264 13.4392 191.992C13.5139 191.715 13.5512 191.451 13.5512 191.2C13.5512 190.923 13.5113 190.645 13.4313 190.368C13.3513 190.085 13.2339 189.829 13.0793 189.6C12.9246 189.365 12.7379 189.179 12.5193 189.04C12.3006 188.896 12.0499 188.824 11.7673 188.824C11.4633 188.824 11.1993 188.901 10.9753 189.056C10.7513 189.205 10.5646 189.4 10.4153 189.64C10.2713 189.88 10.1619 190.139 10.0872 190.416C10.0179 190.688 9.98325 190.949 9.98325 191.2Z" fill="#858C95"/>
<path d="M4.55081 231.504V232H1.90281V231.504H2.98281V226.856C2.93481 226.92 2.86281 226.992 2.76681 227.072C2.67615 227.147 2.56948 227.221 2.44681 227.296C2.32415 227.365 2.19881 227.424 2.07081 227.472C1.94281 227.52 1.82548 227.544 1.71881 227.544V227.032C1.86281 227.032 2.00681 226.995 2.15081 226.92C2.29481 226.84 2.42815 226.752 2.55081 226.656C2.67881 226.555 2.78015 226.464 2.85481 226.384C2.93481 226.299 2.97748 226.253 2.98281 226.248H3.53481V231.504H4.55081ZM9.18294 230.128C9.18294 230.485 9.09227 230.813 8.91094 231.112C8.73494 231.405 8.49494 231.64 8.19094 231.816C7.88694 231.992 7.5456 232.08 7.16694 232.08C6.77227 232.08 6.42027 231.987 6.11094 231.8C5.80694 231.608 5.56694 231.333 5.39094 230.976C5.21494 230.619 5.12694 230.195 5.12694 229.704C5.12694 228.931 5.21494 228.293 5.39094 227.792C5.56694 227.285 5.81227 226.907 6.12694 226.656C6.4416 226.405 6.80694 226.28 7.22294 226.28C7.6016 226.28 7.94027 226.376 8.23894 226.568C8.5376 226.755 8.76427 227.011 8.91894 227.336L8.56694 227.656C8.45494 227.384 8.27627 227.168 8.03094 227.008C7.79094 226.843 7.5216 226.76 7.22294 226.76C6.90827 226.76 6.6336 226.859 6.39894 227.056C6.16427 227.253 5.98027 227.536 5.84694 227.904C5.71894 228.272 5.65494 228.717 5.65494 229.24C5.73494 229.032 5.85227 228.851 6.00694 228.696C6.1616 228.541 6.34294 228.421 6.55094 228.336C6.76427 228.251 6.99094 228.208 7.23094 228.208C7.5936 228.208 7.9216 228.293 8.21494 228.464C8.5136 228.635 8.74827 228.867 8.91894 229.16C9.09494 229.448 9.18294 229.771 9.18294 230.128ZM7.18294 231.6C7.4496 231.6 7.69494 231.533 7.91894 231.4C8.14294 231.267 8.3216 231.088 8.45494 230.864C8.5936 230.64 8.66294 230.395 8.66294 230.128C8.66294 229.861 8.5936 229.616 8.45494 229.392C8.3216 229.168 8.14294 228.989 7.91894 228.856C7.69494 228.723 7.4496 228.656 7.18294 228.656C6.91094 228.656 6.66027 228.723 6.43094 228.856C6.20694 228.989 6.02827 229.168 5.89494 229.392C5.7616 229.611 5.69494 229.856 5.69494 230.128C5.69494 230.395 5.7616 230.64 5.89494 230.864C6.0336 231.088 6.21494 231.267 6.43894 231.4C6.66294 231.533 6.91094 231.6 7.18294 231.6ZM12.2673 232.08C11.8833 232.069 11.5446 231.976 11.2513 231.8C10.9579 231.624 10.7126 231.395 10.5153 231.112C10.3179 230.824 10.1686 230.515 10.0673 230.184C9.96592 229.848 9.91525 229.52 9.91525 229.2C9.91525 228.859 9.96858 228.517 10.0753 228.176C10.1873 227.835 10.3446 227.525 10.5473 227.248C10.7553 226.965 11.0033 226.741 11.2913 226.576C11.5793 226.405 11.9046 226.32 12.2673 226.32C12.6566 226.32 12.9953 226.411 13.2833 226.592C13.5766 226.773 13.8219 227.008 14.0193 227.296C14.2166 227.584 14.3633 227.896 14.4593 228.232C14.5606 228.568 14.6113 228.891 14.6113 229.2C14.6113 229.547 14.5553 229.891 14.4433 230.232C14.3366 230.568 14.1819 230.875 13.9793 231.152C13.7766 231.429 13.5286 231.653 13.2353 231.824C12.9473 231.989 12.6246 232.075 12.2673 232.08ZM10.4833 229.2C10.4939 229.477 10.5366 229.757 10.6113 230.04C10.6913 230.317 10.8059 230.573 10.9553 230.808C11.1046 231.037 11.2859 231.224 11.4993 231.368C11.7179 231.507 11.9739 231.576 12.2673 231.576C12.5659 231.576 12.8273 231.501 13.0513 231.352C13.2753 231.203 13.4593 231.008 13.6033 230.768C13.7526 230.523 13.8646 230.264 13.9392 229.992C14.0139 229.715 14.0512 229.451 14.0512 229.2C14.0512 228.923 14.0113 228.645 13.9313 228.368C13.8513 228.085 13.7339 227.829 13.5793 227.6C13.4246 227.365 13.2379 227.179 13.0193 227.04C12.8006 226.896 12.5499 226.824 12.2673 226.824C11.9633 226.824 11.6993 226.901 11.4753 227.056C11.2513 227.205 11.0646 227.4 10.9153 227.64C10.7713 227.88 10.6619 228.139 10.5872 228.416C10.5179 228.688 10.4833 228.949 10.4833 229.2Z" fill="#858C95"/>
<path d="M4.92581 269.504V270H2.27781V269.504H3.35781V264.856C3.30981 264.92 3.23781 264.992 3.14181 265.072C3.05115 265.147 2.94448 265.221 2.82181 265.296C2.69915 265.365 2.57381 265.424 2.44581 265.472C2.31781 265.52 2.20048 265.544 2.09381 265.544V265.032C2.23781 265.032 2.38181 264.995 2.52581 264.92C2.66981 264.84 2.80315 264.752 2.92581 264.656C3.05381 264.555 3.15515 264.464 3.22981 264.384C3.30981 264.299 3.35248 264.253 3.35781 264.248H3.90981V269.504H4.92581ZM7.22994 270.08C6.8246 270.08 6.45927 269.981 6.13394 269.784C5.81394 269.581 5.57127 269.315 5.40594 268.984L5.77394 268.712C5.91794 268.973 6.1206 269.184 6.38194 269.344C6.64327 269.504 6.9286 269.584 7.23794 269.584C7.5046 269.584 7.74194 269.525 7.94994 269.408C8.16327 269.291 8.33127 269.131 8.45394 268.928C8.58194 268.72 8.64594 268.48 8.64594 268.208C8.64594 267.947 8.5846 267.717 8.46194 267.52C8.33927 267.317 8.1766 267.16 7.97394 267.048C7.77127 266.931 7.54194 266.872 7.28594 266.872C7.0406 266.872 6.80594 266.928 6.58194 267.04C6.35794 267.152 6.1766 267.309 6.03794 267.512H5.52594L6.16594 264.32H8.90994V264.824H6.57394L6.17394 266.864C6.3126 266.715 6.48327 266.6 6.68594 266.52C6.89394 266.435 7.11527 266.392 7.34994 266.392C7.6966 266.392 8.0086 266.469 8.28594 266.624C8.5686 266.779 8.78994 266.992 8.94994 267.264C9.11527 267.531 9.19794 267.843 9.19794 268.2C9.19794 268.568 9.10994 268.896 8.93394 269.184C8.75794 269.467 8.5206 269.688 8.22194 269.848C7.9286 270.003 7.59794 270.08 7.22994 270.08ZM12.2673 270.08C11.8833 270.069 11.5446 269.976 11.2513 269.8C10.9579 269.624 10.7126 269.395 10.5153 269.112C10.3179 268.824 10.1686 268.515 10.0673 268.184C9.96592 267.848 9.91525 267.52 9.91525 267.2C9.91525 266.859 9.96858 266.517 10.0753 266.176C10.1873 265.835 10.3446 265.525 10.5473 265.248C10.7553 264.965 11.0033 264.741 11.2913 264.576C11.5793 264.405 11.9046 264.32 12.2673 264.32C12.6566 264.32 12.9953 264.411 13.2833 264.592C13.5766 264.773 13.8219 265.008 14.0193 265.296C14.2166 265.584 14.3633 265.896 14.4593 266.232C14.5606 266.568 14.6113 266.891 14.6113 267.2C14.6113 267.547 14.5553 267.891 14.4433 268.232C14.3366 268.568 14.1819 268.875 13.9793 269.152C13.7766 269.429 13.5286 269.653 13.2353 269.824C12.9473 269.989 12.6246 270.075 12.2673 270.08ZM10.4833 267.2C10.4939 267.477 10.5366 267.757 10.6113 268.04C10.6913 268.317 10.8059 268.573 10.9553 268.808C11.1046 269.037 11.2859 269.224 11.4993 269.368C11.7179 269.507 11.9739 269.576 12.2673 269.576C12.5659 269.576 12.8273 269.501 13.0513 269.352C13.2753 269.203 13.4593 269.008 13.6033 268.768C13.7526 268.523 13.8646 268.264 13.9392 267.992C14.0139 267.715 14.0512 267.451 14.0512 267.2C14.0512 266.923 14.0113 266.645 13.9313 266.368C13.8513 266.085 13.7339 265.829 13.5793 265.6C13.4246 265.365 13.2379 265.179 13.0193 265.04C12.8006 264.896 12.5499 264.824 12.2673 264.824C11.9633 264.824 11.6993 264.901 11.4753 265.056C11.2513 265.205 11.0646 265.4 10.9153 265.64C10.7713 265.88 10.6619 266.139 10.5872 266.416C10.5179 266.688 10.4833 266.949 10.4833 267.2Z" fill="#858C95"/>
<path d="M30 253C30 253 115.65 235.63 172.75 226.397C229.85 217.164 258.4 215.443 315.5 206.836C372.6 198.229 401.15 206.836 458.25 183.363C515.35 159.889 601 48 601 48" stroke="#2D6FD0" stroke-width="2"/>
<path d="M28 259C26.409 259 24.8831 258.368 23.7579 257.243C22.6327 256.118 22.0004 254.593 22 253.002C21.9996 251.41 22.6312 249.884 23.7558 248.759C24.8804 247.634 26.406 247.001 27.997 247C29.588 246.999 31.1143 247.63 32.24 248.755C33.3657 249.879 33.9988 251.404 34 252.996C34.0012 254.587 33.3704 256.113 32.2464 257.239C31.1223 258.365 29.597 258.998 28.006 259H28Z" fill="#2D6FD0"/>
<path d="M170 233C168.409 233 166.883 232.368 165.758 231.243C164.633 230.118 164 228.593 164 227.002C164 225.41 164.631 223.884 165.756 222.759C166.88 221.634 168.406 221.001 169.997 221C171.588 220.999 173.114 221.63 174.24 222.755C175.366 223.879 175.999 225.404 176 226.995C176.001 228.587 175.37 230.113 174.246 231.239C173.122 232.365 171.597 232.998 170.006 233H170Z" fill="#2D6FD0"/>
<path d="M315 213C313.409 213 311.883 212.368 310.758 211.243C309.633 210.118 309 208.593 309 207.002C309 205.41 309.631 203.884 310.756 202.759C311.88 201.634 313.406 201.001 314.997 201C316.588 200.999 318.114 201.63 319.24 202.755C320.366 203.879 320.999 205.404 321 206.995C321.001 208.587 320.37 210.113 319.246 211.239C318.122 212.365 316.597 212.998 315.006 213H315Z" fill="#2D6FD0"/>
<path d="M457 189C455.409 189 453.883 188.368 452.758 187.243C451.633 186.118 451 184.593 451 183.002C451 181.41 451.631 179.884 452.756 178.759C453.88 177.634 455.406 177.001 456.997 177C458.588 176.999 460.114 177.63 461.24 178.755C462.366 179.879 462.999 181.404 463 182.995C463.001 184.587 462.37 186.113 461.246 187.239C460.122 188.365 458.597 188.998 457.006 189H457Z" fill="#2D6FD0"/>
<path d="M601 54C599.409 54 597.883 53.3681 596.758 52.2432C595.633 51.1183 595 49.5925 595 48.0015C595 46.4105 595.631 44.8844 596.756 43.759C597.88 42.6335 599.406 42.0008 600.997 42C602.588 41.9992 604.114 42.6304 605.24 43.7547C606.366 44.879 606.999 46.4045 607 47.9955C607.001 49.5865 606.37 51.1129 605.246 52.2389C604.122 53.3649 602.597 53.9984 601.006 54L601 54Z" fill="#2D6FD0"/>
<path d="M33.4128 228.04V229H29.1768V228.04H30.8088V221.5C30.7448 221.596 30.6408 221.704 30.4968 221.824C30.3528 221.936 30.1848 222.048 29.9928 222.16C29.8088 222.264 29.6208 222.352 29.4288 222.424C29.2368 222.496 29.0608 222.532 28.9008 222.532V221.548C29.1168 221.548 29.3328 221.492 29.5488 221.38C29.7728 221.268 29.9768 221.136 30.1608 220.984C30.3528 220.832 30.5048 220.696 30.6168 220.576C30.7368 220.456 30.8008 220.392 30.8088 220.384H31.8888V228.04H33.4128ZM36.8856 229.12C36.2776 229.12 35.7296 228.976 35.2416 228.688C34.7616 228.4 34.3936 228.012 34.1376 227.524L34.7976 226.948C35.0216 227.316 35.3176 227.612 35.6856 227.836C36.0616 228.06 36.4656 228.172 36.8976 228.172C37.2656 228.172 37.5936 228.092 37.8816 227.932C38.1696 227.772 38.3976 227.552 38.5656 227.272C38.7336 226.992 38.8176 226.668 38.8176 226.3C38.8176 225.94 38.7336 225.624 38.5656 225.352C38.4056 225.08 38.1856 224.868 37.9056 224.716C37.6336 224.556 37.3256 224.476 36.9816 224.476C36.6456 224.476 36.3256 224.552 36.0216 224.704C35.7176 224.856 35.4736 225.072 35.2896 225.352H34.3296L35.2896 220.48H39.4296V221.452H36.0696L35.5536 224.164C35.7296 223.972 35.9496 223.824 36.2136 223.72C36.4856 223.616 36.7856 223.564 37.1136 223.564C37.6416 223.564 38.1136 223.68 38.5296 223.912C38.9536 224.144 39.2856 224.464 39.5256 224.872C39.7736 225.272 39.8976 225.74 39.8976 226.276C39.8976 226.836 39.7616 227.332 39.4896 227.764C39.2256 228.188 38.8656 228.52 38.4096 228.76C37.9616 229 37.4536 229.12 36.8856 229.12ZM43.577 229.12C42.969 229.12 42.421 228.976 41.933 228.688C41.453 228.4 41.085 228.012 40.829 227.524L41.489 226.948C41.713 227.316 42.009 227.612 42.377 227.836C42.753 228.06 43.157 228.172 43.589 228.172C43.957 228.172 44.285 228.092 44.573 227.932C44.861 227.772 45.089 227.552 45.257 227.272C45.425 226.992 45.509 226.668 45.509 226.3C45.509 225.94 45.425 225.624 45.257 225.352C45.097 225.08 44.877 224.868 44.597 224.716C44.325 224.556 44.017 224.476 43.673 224.476C43.337 224.476 43.017 224.552 42.713 224.704C42.409 224.856 42.165 225.072 41.981 225.352H41.021L41.981 220.48H46.121V221.452H42.761L42.245 224.164C42.421 223.972 42.641 223.824 42.905 223.72C43.177 223.616 43.477 223.564 43.805 223.564C44.333 223.564 44.805 223.68 45.221 223.912C45.645 224.144 45.977 224.464 46.217 224.872C46.465 225.272 46.589 225.74 46.589 226.276C46.589 226.836 46.453 227.332 46.181 227.764C45.917 228.188 45.557 228.52 45.101 228.76C44.653 229 44.145 229.12 43.577 229.12ZM47.9525 229.972L48.1925 228.904H47.8325V227.656H48.8285V228.904L48.4685 229.972H47.9525ZM52.9677 229.108C52.4797 229.108 52.0357 229.032 51.6357 228.88C51.2437 228.72 50.9157 228.5 50.6517 228.22C50.3957 227.932 50.2277 227.6 50.1477 227.224L50.7477 226.588C50.7717 226.82 50.8757 227.056 51.0597 227.296C51.2437 227.536 51.4957 227.736 51.8157 227.896C52.1437 228.048 52.5237 228.124 52.9557 228.124C53.3237 228.124 53.6557 228.064 53.9517 227.944C54.2477 227.816 54.4837 227.64 54.6597 227.416C54.8357 227.192 54.9237 226.932 54.9237 226.636C54.9237 226.308 54.8157 226.028 54.5997 225.796C54.3837 225.564 54.0757 225.388 53.6757 225.268C53.2837 225.148 52.8157 225.088 52.2717 225.088H51.8637V224.188H52.2717C53.0077 224.188 53.5957 224.072 54.0357 223.84C54.4757 223.6 54.6957 223.244 54.6957 222.772C54.6957 222.468 54.6117 222.208 54.4437 221.992C54.2837 221.768 54.0677 221.6 53.7957 221.488C53.5317 221.368 53.2477 221.308 52.9437 221.308C52.4317 221.308 51.9957 221.424 51.6357 221.656C51.2837 221.88 51.0357 222.144 50.8917 222.448L50.1837 221.716C50.3437 221.436 50.5677 221.196 50.8557 220.996C51.1437 220.796 51.4677 220.644 51.8277 220.54C52.1877 220.428 52.5557 220.372 52.9317 220.372C53.4837 220.372 53.9757 220.476 54.4077 220.684C54.8477 220.892 55.1917 221.172 55.4397 221.524C55.6877 221.876 55.8117 222.276 55.8117 222.724C55.8117 223.044 55.7477 223.332 55.6197 223.588C55.4917 223.836 55.3037 224.044 55.0557 224.212C54.8077 224.38 54.5077 224.508 54.1557 224.596C54.5317 224.66 54.8597 224.796 55.1397 225.004C55.4197 225.212 55.6357 225.468 55.7877 225.772C55.9397 226.076 56.0157 226.408 56.0157 226.768C56.0157 227.264 55.8717 227.688 55.5837 228.04C55.2957 228.384 54.9197 228.648 54.4557 228.832C53.9997 229.016 53.5037 229.108 52.9677 229.108Z" fill="#2F2F2F"/>
<path d="M161.288 205.04V206H157.052V205.04H158.684V198.5C158.62 198.596 158.516 198.704 158.372 198.824C158.228 198.936 158.06 199.048 157.868 199.16C157.684 199.264 157.496 199.352 157.304 199.424C157.112 199.496 156.936 199.532 156.776 199.532V198.548C156.992 198.548 157.208 198.492 157.424 198.38C157.648 198.268 157.852 198.136 158.036 197.984C158.228 197.832 158.38 197.696 158.492 197.576C158.612 197.456 158.676 197.392 158.684 197.384H159.764V205.04H161.288ZM168.301 203.18C168.301 203.724 168.165 204.22 167.893 204.668C167.629 205.108 167.265 205.46 166.801 205.724C166.345 205.988 165.829 206.12 165.253 206.12C164.645 206.12 164.109 205.976 163.645 205.688C163.181 205.392 162.817 204.968 162.553 204.416C162.297 203.864 162.169 203.208 162.169 202.448C162.169 201.328 162.301 200.396 162.565 199.652C162.829 198.908 163.201 198.352 163.681 197.984C164.161 197.608 164.721 197.42 165.361 197.42C165.913 197.42 166.413 197.556 166.861 197.828C167.317 198.092 167.673 198.46 167.929 198.932L167.281 199.568C167.105 199.192 166.845 198.896 166.501 198.68C166.157 198.456 165.773 198.344 165.349 198.344C164.917 198.344 164.537 198.476 164.209 198.74C163.881 199.004 163.625 199.384 163.441 199.88C163.265 200.376 163.173 200.976 163.165 201.68C163.285 201.4 163.453 201.16 163.669 200.96C163.885 200.752 164.137 200.592 164.425 200.48C164.721 200.368 165.033 200.312 165.361 200.312C165.913 200.312 166.409 200.44 166.849 200.696C167.297 200.952 167.649 201.296 167.905 201.728C168.169 202.16 168.301 202.644 168.301 203.18ZM165.265 205.208C165.633 205.208 165.969 205.116 166.273 204.932C166.585 204.748 166.833 204.504 167.017 204.2C167.201 203.888 167.293 203.548 167.293 203.18C167.293 202.812 167.201 202.476 167.017 202.172C166.833 201.868 166.585 201.624 166.273 201.44C165.969 201.256 165.633 201.164 165.265 201.164C164.897 201.164 164.557 201.256 164.245 201.44C163.941 201.624 163.697 201.868 163.513 202.172C163.329 202.476 163.237 202.812 163.237 203.18C163.237 203.548 163.329 203.888 163.513 204.2C163.697 204.504 163.941 204.748 164.245 204.932C164.557 205.116 164.897 205.208 165.265 205.208ZM169.386 206C169.386 205.52 169.426 205.096 169.506 204.728C169.594 204.352 169.718 204.016 169.878 203.72C170.046 203.424 170.246 203.164 170.478 202.94C170.71 202.716 170.974 202.516 171.27 202.34C171.582 202.156 171.902 201.988 172.23 201.836C172.558 201.684 172.862 201.524 173.142 201.356C173.422 201.188 173.646 200.988 173.814 200.756C173.99 200.516 174.078 200.22 174.078 199.868C174.078 199.588 174.018 199.336 173.898 199.112C173.778 198.88 173.598 198.696 173.358 198.56C173.118 198.424 172.81 198.356 172.434 198.356C172.058 198.356 171.718 198.42 171.414 198.548C171.118 198.676 170.862 198.828 170.646 199.004C170.43 199.18 170.258 199.348 170.13 199.508L169.446 198.824C169.51 198.744 169.622 198.624 169.782 198.464C169.95 198.304 170.162 198.14 170.418 197.972C170.682 197.804 170.99 197.664 171.342 197.552C171.694 197.432 172.094 197.372 172.542 197.372C173.142 197.372 173.642 197.484 174.042 197.708C174.442 197.932 174.742 198.232 174.942 198.608C175.15 198.984 175.254 199.4 175.254 199.856C175.254 200.264 175.178 200.616 175.026 200.912C174.874 201.2 174.678 201.444 174.438 201.644C174.198 201.844 173.934 202.02 173.646 202.172C173.366 202.324 173.094 202.468 172.83 202.604C172.326 202.844 171.926 203.064 171.63 203.264C171.334 203.464 171.106 203.66 170.946 203.852C170.794 204.036 170.69 204.224 170.634 204.416C170.586 204.608 170.558 204.816 170.55 205.04H175.266V206H169.386ZM176.8 206.972L177.04 205.904H176.68V204.656H177.676V205.904L177.316 206.972H176.8ZM183.471 205.04V206H179.235V205.04H180.867V198.5C180.803 198.596 180.699 198.704 180.555 198.824C180.411 198.936 180.243 199.048 180.051 199.16C179.867 199.264 179.679 199.352 179.487 199.424C179.295 199.496 179.119 199.532 178.959 199.532V198.548C179.175 198.548 179.391 198.492 179.607 198.38C179.831 198.268 180.035 198.136 180.219 197.984C180.411 197.832 180.563 197.696 180.675 197.576C180.795 197.456 180.859 197.392 180.867 197.384H181.947V205.04H183.471Z" fill="#2F2F2F"/>
<path d="M308.055 188.04V189H303.819V188.04H305.451V181.5C305.387 181.596 305.283 181.704 305.139 181.824C304.995 181.936 304.827 182.048 304.635 182.16C304.451 182.264 304.263 182.352 304.071 182.424C303.879 182.496 303.703 182.532 303.543 182.532V181.548C303.759 181.548 303.975 181.492 304.191 181.38C304.415 181.268 304.619 181.136 304.803 180.984C304.995 180.832 305.147 180.696 305.259 180.576C305.379 180.456 305.443 180.392 305.451 180.384H306.531V188.04H308.055ZM315.068 186.18C315.068 186.724 314.932 187.22 314.66 187.668C314.396 188.108 314.032 188.46 313.568 188.724C313.112 188.988 312.596 189.12 312.02 189.12C311.412 189.12 310.876 188.976 310.412 188.688C309.948 188.392 309.584 187.968 309.32 187.416C309.064 186.864 308.936 186.208 308.936 185.448C308.936 184.328 309.068 183.396 309.332 182.652C309.596 181.908 309.968 181.352 310.448 180.984C310.928 180.608 311.488 180.42 312.128 180.42C312.68 180.42 313.18 180.556 313.628 180.828C314.084 181.092 314.44 181.46 314.696 181.932L314.048 182.568C313.872 182.192 313.612 181.896 313.268 181.68C312.924 181.456 312.54 181.344 312.116 181.344C311.684 181.344 311.304 181.476 310.976 181.74C310.648 182.004 310.392 182.384 310.208 182.88C310.032 183.376 309.94 183.976 309.932 184.68C310.052 184.4 310.22 184.16 310.436 183.96C310.652 183.752 310.904 183.592 311.192 183.48C311.488 183.368 311.8 183.312 312.128 183.312C312.68 183.312 313.176 183.44 313.616 183.696C314.064 183.952 314.416 184.296 314.672 184.728C314.936 185.16 315.068 185.644 315.068 186.18ZM312.032 188.208C312.4 188.208 312.736 188.116 313.04 187.932C313.352 187.748 313.6 187.504 313.784 187.2C313.968 186.888 314.06 186.548 314.06 186.18C314.06 185.812 313.968 185.476 313.784 185.172C313.6 184.868 313.352 184.624 313.04 184.44C312.736 184.256 312.4 184.164 312.032 184.164C311.664 184.164 311.324 184.256 311.012 184.44C310.708 184.624 310.464 184.868 310.28 185.172C310.096 185.476 310.004 185.812 310.004 186.18C310.004 186.548 310.096 186.888 310.28 187.2C310.464 187.504 310.708 187.748 311.012 187.932C311.324 188.116 311.664 188.208 312.032 188.208ZM320.354 181.452H315.986V180.48H322.034L317.738 189H316.55L320.354 181.452ZM322.033 189.972L322.273 188.904H321.913V187.656H322.909V188.904L322.549 189.972H322.033ZM328.704 188.04V189H324.468V188.04H326.1V181.5C326.036 181.596 325.932 181.704 325.788 181.824C325.644 181.936 325.476 182.048 325.284 182.16C325.1 182.264 324.912 182.352 324.72 182.424C324.528 182.496 324.352 182.532 324.192 182.532V181.548C324.408 181.548 324.624 181.492 324.84 181.38C325.064 181.268 325.268 181.136 325.452 180.984C325.644 180.832 325.796 180.696 325.908 180.576C326.028 180.456 326.092 180.392 326.1 180.384H327.18V188.04H328.704Z" fill="#2F2F2F"/>
<path d="M449.251 162.04V163H445.015V162.04H446.647V155.5C446.583 155.596 446.479 155.704 446.335 155.824C446.191 155.936 446.023 156.048 445.831 156.16C445.647 156.264 445.459 156.352 445.267 156.424C445.075 156.496 444.899 156.532 444.739 156.532V155.548C444.955 155.548 445.171 155.492 445.387 155.38C445.611 155.268 445.815 155.136 445.999 154.984C446.191 154.832 446.343 154.696 446.455 154.576C446.575 154.456 446.639 154.392 446.647 154.384H447.727V162.04H449.251ZM454.272 155.452H449.904V154.48H455.952L451.656 163H450.468L454.272 155.452ZM459.302 163.108C458.814 163.108 458.37 163.032 457.97 162.88C457.578 162.72 457.25 162.5 456.986 162.22C456.73 161.932 456.562 161.6 456.482 161.224L457.082 160.588C457.106 160.82 457.21 161.056 457.394 161.296C457.578 161.536 457.83 161.736 458.15 161.896C458.478 162.048 458.858 162.124 459.29 162.124C459.658 162.124 459.99 162.064 460.286 161.944C460.582 161.816 460.818 161.64 460.994 161.416C461.17 161.192 461.258 160.932 461.258 160.636C461.258 160.308 461.15 160.028 460.934 159.796C460.718 159.564 460.41 159.388 460.01 159.268C459.618 159.148 459.15 159.088 458.606 159.088H458.198V158.188H458.606C459.342 158.188 459.93 158.072 460.37 157.84C460.81 157.6 461.03 157.244 461.03 156.772C461.03 156.468 460.946 156.208 460.778 155.992C460.618 155.768 460.402 155.6 460.13 155.488C459.866 155.368 459.582 155.308 459.278 155.308C458.766 155.308 458.33 155.424 457.97 155.656C457.618 155.88 457.37 156.144 457.226 156.448L456.518 155.716C456.678 155.436 456.902 155.196 457.19 154.996C457.478 154.796 457.802 154.644 458.162 154.54C458.522 154.428 458.89 154.372 459.266 154.372C459.818 154.372 460.31 154.476 460.742 154.684C461.182 154.892 461.526 155.172 461.774 155.524C462.022 155.876 462.146 156.276 462.146 156.724C462.146 157.044 462.082 157.332 461.954 157.588C461.826 157.836 461.638 158.044 461.39 158.212C461.142 158.38 460.842 158.508 460.49 158.596C460.866 158.66 461.194 158.796 461.474 159.004C461.754 159.212 461.97 159.468 462.122 159.772C462.274 160.076 462.35 160.408 462.35 160.768C462.35 161.264 462.206 161.688 461.918 162.04C461.63 162.384 461.254 162.648 460.79 162.832C460.334 163.016 459.838 163.108 459.302 163.108ZM463.837 163.972L464.077 162.904H463.717V161.656H464.713V162.904L464.353 163.972H463.837ZM470.508 162.04V163H466.272V162.04H467.904V155.5C467.84 155.596 467.736 155.704 467.592 155.824C467.448 155.936 467.28 156.048 467.088 156.16C466.904 156.264 466.716 156.352 466.524 156.424C466.332 156.496 466.156 156.532 465.996 156.532V155.548C466.212 155.548 466.428 155.492 466.644 155.38C466.868 155.268 467.072 155.136 467.256 154.984C467.448 154.832 467.6 154.696 467.712 154.576C467.832 154.456 467.896 154.392 467.904 154.384H468.984V162.04H470.508Z" fill="#2F2F2F"/>
<path d="M557.716 53C557.716 52.52 557.756 52.096 557.836 51.728C557.924 51.352 558.048 51.016 558.208 50.72C558.376 50.424 558.576 50.164 558.808 49.94C559.04 49.716 559.304 49.516 559.6 49.34C559.912 49.156 560.232 48.988 560.56 48.836C560.888 48.684 561.192 48.524 561.472 48.356C561.752 48.188 561.976 47.988 562.144 47.756C562.32 47.516 562.408 47.22 562.408 46.868C562.408 46.588 562.348 46.336 562.228 46.112C562.108 45.88 561.928 45.696 561.688 45.56C561.448 45.424 561.14 45.356 560.764 45.356C560.388 45.356 560.048 45.42 559.744 45.548C559.448 45.676 559.192 45.828 558.976 46.004C558.76 46.18 558.588 46.348 558.46 46.508L557.776 45.824C557.84 45.744 557.952 45.624 558.112 45.464C558.28 45.304 558.492 45.14 558.748 44.972C559.012 44.804 559.32 44.664 559.672 44.552C560.024 44.432 560.424 44.372 560.872 44.372C561.472 44.372 561.972 44.484 562.372 44.708C562.772 44.932 563.072 45.232 563.272 45.608C563.48 45.984 563.584 46.4 563.584 46.856C563.584 47.264 563.508 47.616 563.356 47.912C563.204 48.2 563.008 48.444 562.768 48.644C562.528 48.844 562.264 49.02 561.976 49.172C561.696 49.324 561.424 49.468 561.16 49.604C560.656 49.844 560.256 50.064 559.96 50.264C559.664 50.464 559.436 50.66 559.276 50.852C559.124 51.036 559.02 51.224 558.964 51.416C558.916 51.608 558.888 51.816 558.88 52.04H563.596V53H557.716ZM568.382 53.12C567.798 53.104 567.282 52.964 566.834 52.7C566.386 52.436 566.01 52.092 565.706 51.668C565.41 51.236 565.186 50.772 565.034 50.276C564.882 49.772 564.806 49.28 564.806 48.8C564.806 48.288 564.886 47.776 565.046 47.264C565.214 46.752 565.454 46.288 565.766 45.872C566.078 45.448 566.454 45.112 566.894 44.864C567.334 44.608 567.83 44.48 568.382 44.48C568.974 44.48 569.49 44.616 569.93 44.888C570.378 45.16 570.75 45.512 571.046 45.944C571.35 46.376 571.578 46.844 571.73 47.348C571.882 47.852 571.958 48.336 571.958 48.8C571.958 49.32 571.874 49.836 571.706 50.348C571.546 50.852 571.31 51.312 570.998 51.728C570.686 52.144 570.31 52.48 569.87 52.736C569.43 52.984 568.934 53.112 568.382 53.12ZM565.898 48.8C565.914 49.192 565.974 49.584 566.078 49.976C566.182 50.368 566.338 50.728 566.546 51.056C566.754 51.384 567.01 51.648 567.314 51.848C567.618 52.048 567.974 52.148 568.382 52.148C568.806 52.148 569.174 52.044 569.486 51.836C569.798 51.62 570.054 51.344 570.254 51.008C570.462 50.664 570.614 50.3 570.71 49.916C570.814 49.524 570.866 49.152 570.866 48.8C570.866 48.408 570.81 48.016 570.698 47.624C570.594 47.232 570.434 46.872 570.218 46.544C570.002 46.216 569.742 45.952 569.438 45.752C569.134 45.552 568.782 45.452 568.382 45.452C567.958 45.452 567.59 45.56 567.278 45.776C566.966 45.984 566.706 46.26 566.498 46.604C566.298 46.94 566.146 47.304 566.042 47.696C565.946 48.08 565.898 48.448 565.898 48.8ZM577.104 45.452H572.736V44.48H578.784L574.488 53H573.3L577.104 45.452ZM578.783 53.972L579.023 52.904H578.663V51.656H579.659V52.904L579.299 53.972H578.783ZM585.178 45.452H580.81V44.48H586.858L582.562 53H581.374L585.178 45.452Z" fill="#2F2F2F"/>
</svg>
