<svg width="450" height="393" viewBox="0 0 450 393" fill="none" xmlns="http://www.w3.org/2000/svg">
<path d="M22.9614 52.5786L22.9614 360.352" stroke="#F3F4F5"/>
<path d="M120.549 52.5786L120.549 360.352" stroke="#F3F4F5"/>
<path d="M218.138 52.5786L218.138 360.352" stroke="#F3F4F5"/>
<path d="M314.905 52.5786L314.905 360.352" stroke="#F3F4F5"/>
<path d="M413.313 51.2958L413.313 361.634" stroke="#F3F4F5"/>
<path d="M23.7817 360.993H413.313" stroke="#F3F4F5"/>
<path d="M23.7817 309.698H413.313" stroke="#F3F4F5"/>
<path d="M22.9614 258.402L413.313 258.402" stroke="#F3F4F5"/>
<path d="M22.9614 207.106L413.313 207.106" stroke="#F3F4F5"/>
<path d="M22.9614 154.529L413.313 154.529" stroke="#F3F4F5"/>
<path d="M22.9614 103.233L413.313 103.233" stroke="#F3F4F5"/>
<path d="M22.9614 51.9368L413.313 51.9367" stroke="#F3F4F5"/>
<path d="M22.9614 360.993L413.313 360.993" stroke="#F3F4F5"/>
<path d="M22.9614 51.2958L22.9614 361.634" stroke="#F3F4F5"/>
<path d="M16.633 380.611V380.101L19.543 377.251C19.8097 376.991 20.0097 376.765 20.143 376.571C20.2764 376.371 20.3664 376.185 20.413 376.011C20.4597 375.838 20.483 375.675 20.483 375.521C20.483 375.115 20.343 374.795 20.063 374.561C19.7897 374.328 19.383 374.211 18.843 374.211C18.4297 374.211 18.063 374.275 17.743 374.401C17.4297 374.528 17.1597 374.725 16.933 374.991L16.423 374.551C16.6964 374.231 17.0464 373.985 17.473 373.811C17.8997 373.638 18.3764 373.551 18.903 373.551C19.3764 373.551 19.7864 373.628 20.133 373.781C20.4797 373.928 20.7464 374.145 20.933 374.431C21.1264 374.718 21.223 375.055 21.223 375.441C21.223 375.668 21.1897 375.891 21.123 376.111C21.063 376.331 20.9497 376.565 20.783 376.811C20.623 377.051 20.3864 377.325 20.073 377.631L17.403 380.251L17.203 379.971H21.543V380.611H16.633ZM25.2171 380.671C24.6771 380.671 24.1971 380.531 23.7771 380.251C23.3571 379.965 23.0271 379.558 22.7871 379.031C22.5471 378.498 22.4271 377.858 22.4271 377.111C22.4271 376.365 22.5471 375.728 22.7871 375.201C23.0271 374.668 23.3571 374.261 23.7771 373.981C24.1971 373.695 24.6771 373.551 25.2171 373.551C25.7571 373.551 26.2371 373.695 26.6571 373.981C27.0771 374.261 27.4071 374.668 27.6471 375.201C27.8938 375.728 28.0171 376.365 28.0171 377.111C28.0171 377.858 27.8938 378.498 27.6471 379.031C27.4071 379.558 27.0771 379.965 26.6571 380.251C26.2371 380.531 25.7571 380.671 25.2171 380.671ZM25.2171 380.011C25.6304 380.011 25.9904 379.901 26.2971 379.681C26.6038 379.455 26.8438 379.128 27.0171 378.701C27.1904 378.268 27.2771 377.738 27.2771 377.111C27.2771 376.485 27.1904 375.958 27.0171 375.531C26.8438 375.098 26.6038 374.771 26.2971 374.551C25.9904 374.325 25.6304 374.211 25.2171 374.211C24.8171 374.211 24.4604 374.325 24.1471 374.551C23.8338 374.771 23.5904 375.098 23.4171 375.531C23.2438 375.958 23.1571 376.485 23.1571 377.111C23.1571 377.738 23.2438 378.268 23.4171 378.701C23.5904 379.128 23.8338 379.455 24.1471 379.681C24.4604 379.901 24.8171 380.011 25.2171 380.011ZM30.2682 380.611V373.911L30.5882 374.251H28.6182V373.611H30.9882V380.611H30.2682ZM24.1838 392.671C23.6238 392.671 23.1404 392.591 22.7338 392.431C22.3338 392.271 22.0238 392.041 21.8038 391.741C21.5904 391.435 21.4838 391.075 21.4838 390.661C21.4838 390.261 21.5871 389.921 21.7938 389.641C22.0071 389.355 22.3138 389.135 22.7138 388.981C23.1204 388.828 23.6104 388.751 24.1838 388.751C24.7504 388.751 25.2371 388.828 25.6438 388.981C26.0504 389.135 26.3604 389.355 26.5738 389.641C26.7938 389.921 26.9038 390.261 26.9038 390.661C26.9038 391.075 26.7938 391.435 26.5738 391.741C26.3538 392.041 26.0404 392.271 25.6338 392.431C25.2271 392.591 24.7438 392.671 24.1838 392.671ZM24.1838 392.061C24.8038 392.061 25.2871 391.935 25.6338 391.681C25.9871 391.428 26.1638 391.085 26.1638 390.651C26.1638 390.218 25.9871 389.878 25.6338 389.631C25.2871 389.378 24.8038 389.251 24.1838 389.251C23.5638 389.251 23.0804 389.378 22.7338 389.631C22.3871 389.878 22.2138 390.218 22.2138 390.651C22.2138 391.085 22.3871 391.428 22.7338 391.681C23.0804 391.935 23.5638 392.061 24.1838 392.061ZM24.1838 389.161C23.6638 389.161 23.2204 389.091 22.8538 388.951C22.4938 388.811 22.2171 388.611 22.0238 388.351C21.8304 388.085 21.7338 387.768 21.7338 387.401C21.7338 387.015 21.8338 386.685 22.0338 386.411C22.2404 386.131 22.5271 385.918 22.8938 385.771C23.2604 385.625 23.6904 385.551 24.1838 385.551C24.6771 385.551 25.1071 385.625 25.4738 385.771C25.8471 385.918 26.1371 386.131 26.3438 386.411C26.5504 386.685 26.6538 387.015 26.6538 387.401C26.6538 387.768 26.5571 388.085 26.3638 388.351C26.1704 388.611 25.8871 388.811 25.5138 388.951C25.1471 389.091 24.7038 389.161 24.1838 389.161ZM24.1838 388.681C24.7304 388.681 25.1571 388.568 25.4638 388.341C25.7704 388.115 25.9238 387.811 25.9238 387.431C25.9238 387.031 25.7638 386.721 25.4438 386.501C25.1304 386.275 24.7104 386.161 24.1838 386.161C23.6571 386.161 23.2371 386.275 22.9238 386.501C22.6104 386.721 22.4538 387.028 22.4538 387.421C22.4538 387.808 22.6038 388.115 22.9038 388.341C23.2104 388.568 23.6371 388.681 24.1838 388.681Z" fill="#A3A3A3"/>
<path d="M113.606 380.611V380.101L116.516 377.251C116.783 376.991 116.983 376.765 117.116 376.571C117.249 376.371 117.339 376.185 117.386 376.011C117.433 375.838 117.456 375.675 117.456 375.521C117.456 375.115 117.316 374.795 117.036 374.561C116.763 374.328 116.356 374.211 115.816 374.211C115.403 374.211 115.036 374.275 114.716 374.401C114.403 374.528 114.133 374.725 113.906 374.991L113.396 374.551C113.669 374.231 114.019 373.985 114.446 373.811C114.873 373.638 115.349 373.551 115.876 373.551C116.349 373.551 116.759 373.628 117.106 373.781C117.453 373.928 117.719 374.145 117.906 374.431C118.099 374.718 118.196 375.055 118.196 375.441C118.196 375.668 118.163 375.891 118.096 376.111C118.036 376.331 117.923 376.565 117.756 376.811C117.596 377.051 117.359 377.325 117.046 377.631L114.376 380.251L114.176 379.971H118.516V380.611H113.606ZM122.19 380.671C121.65 380.671 121.17 380.531 120.75 380.251C120.33 379.965 120 379.558 119.76 379.031C119.52 378.498 119.4 377.858 119.4 377.111C119.4 376.365 119.52 375.728 119.76 375.201C120 374.668 120.33 374.261 120.75 373.981C121.17 373.695 121.65 373.551 122.19 373.551C122.73 373.551 123.21 373.695 123.63 373.981C124.05 374.261 124.38 374.668 124.62 375.201C124.867 375.728 124.99 376.365 124.99 377.111C124.99 377.858 124.867 378.498 124.62 379.031C124.38 379.558 124.05 379.965 123.63 380.251C123.21 380.531 122.73 380.671 122.19 380.671ZM122.19 380.011C122.603 380.011 122.963 379.901 123.27 379.681C123.577 379.455 123.817 379.128 123.99 378.701C124.163 378.268 124.25 377.738 124.25 377.111C124.25 376.485 124.163 375.958 123.99 375.531C123.817 375.098 123.577 374.771 123.27 374.551C122.963 374.325 122.603 374.211 122.19 374.211C121.79 374.211 121.433 374.325 121.12 374.551C120.807 374.771 120.563 375.098 120.39 375.531C120.217 375.958 120.13 376.485 120.13 377.111C120.13 377.738 120.217 378.268 120.39 378.701C120.563 379.128 120.807 379.455 121.12 379.681C121.433 379.901 121.79 380.011 122.19 380.011ZM127.241 380.611V373.911L127.561 374.251H125.591V373.611H127.961V380.611H127.241ZM120.818 385.551C121.438 385.551 121.962 385.691 122.388 385.971C122.815 386.245 123.138 386.641 123.358 387.161C123.578 387.681 123.688 388.311 123.688 389.051C123.688 389.838 123.552 390.501 123.278 391.041C123.012 391.581 122.638 391.988 122.158 392.261C121.678 392.535 121.122 392.671 120.488 392.671C120.175 392.671 119.875 392.641 119.588 392.581C119.308 392.521 119.055 392.425 118.828 392.291L119.118 391.711C119.298 391.831 119.505 391.918 119.738 391.971C119.978 392.018 120.225 392.041 120.478 392.041C121.232 392.041 121.832 391.801 122.278 391.321C122.732 390.841 122.958 390.125 122.958 389.171C122.958 389.018 122.948 388.835 122.928 388.621C122.915 388.408 122.878 388.195 122.818 387.981L123.068 388.171C123.002 388.518 122.858 388.815 122.638 389.061C122.425 389.301 122.158 389.485 121.838 389.611C121.525 389.738 121.175 389.801 120.788 389.801C120.328 389.801 119.918 389.715 119.558 389.541C119.205 389.368 118.928 389.125 118.728 388.811C118.528 388.498 118.428 388.128 118.428 387.701C118.428 387.261 118.532 386.881 118.738 386.561C118.945 386.241 119.228 385.995 119.588 385.821C119.955 385.641 120.365 385.551 120.818 385.551ZM120.848 386.161C120.515 386.161 120.218 386.225 119.958 386.351C119.705 386.471 119.505 386.645 119.358 386.871C119.212 387.098 119.138 387.368 119.138 387.681C119.138 388.141 119.295 388.508 119.608 388.781C119.928 389.055 120.358 389.191 120.898 389.191C121.258 389.191 121.572 389.125 121.838 388.991C122.112 388.858 122.322 388.675 122.468 388.441C122.622 388.208 122.698 387.948 122.698 387.661C122.698 387.401 122.628 387.158 122.488 386.931C122.348 386.705 122.142 386.521 121.868 386.381C121.595 386.235 121.255 386.161 120.848 386.161Z" fill="#A3A3A3"/>
<path d="M210.373 380.611V380.101L213.283 377.251C213.55 376.991 213.75 376.765 213.883 376.571C214.017 376.371 214.107 376.185 214.153 376.011C214.2 375.838 214.223 375.675 214.223 375.521C214.223 375.115 214.083 374.795 213.803 374.561C213.53 374.328 213.123 374.211 212.583 374.211C212.17 374.211 211.803 374.275 211.483 374.401C211.17 374.528 210.9 374.725 210.673 374.991L210.163 374.551C210.437 374.231 210.787 373.985 211.213 373.811C211.64 373.638 212.117 373.551 212.643 373.551C213.117 373.551 213.527 373.628 213.873 373.781C214.22 373.928 214.487 374.145 214.673 374.431C214.867 374.718 214.963 375.055 214.963 375.441C214.963 375.668 214.93 375.891 214.863 376.111C214.803 376.331 214.69 376.565 214.523 376.811C214.363 377.051 214.127 377.325 213.813 377.631L211.143 380.251L210.943 379.971H215.283V380.611H210.373ZM218.957 380.671C218.417 380.671 217.937 380.531 217.517 380.251C217.097 379.965 216.767 379.558 216.527 379.031C216.287 378.498 216.167 377.858 216.167 377.111C216.167 376.365 216.287 375.728 216.527 375.201C216.767 374.668 217.097 374.261 217.517 373.981C217.937 373.695 218.417 373.551 218.957 373.551C219.497 373.551 219.977 373.695 220.397 373.981C220.817 374.261 221.147 374.668 221.387 375.201C221.634 375.728 221.757 376.365 221.757 377.111C221.757 377.858 221.634 378.498 221.387 379.031C221.147 379.558 220.817 379.965 220.397 380.251C219.977 380.531 219.497 380.671 218.957 380.671ZM218.957 380.011C219.371 380.011 219.731 379.901 220.037 379.681C220.344 379.455 220.584 379.128 220.757 378.701C220.931 378.268 221.017 377.738 221.017 377.111C221.017 376.485 220.931 375.958 220.757 375.531C220.584 375.098 220.344 374.771 220.037 374.551C219.731 374.325 219.371 374.211 218.957 374.211C218.557 374.211 218.201 374.325 217.887 374.551C217.574 374.771 217.331 375.098 217.157 375.531C216.984 375.958 216.897 376.485 216.897 377.111C216.897 377.738 216.984 378.268 217.157 378.701C217.331 379.128 217.574 379.455 217.887 379.681C218.201 379.901 218.557 380.011 218.957 380.011ZM222.658 380.611V380.101L225.568 377.251C225.835 376.991 226.035 376.765 226.168 376.571C226.302 376.371 226.392 376.185 226.438 376.011C226.485 375.838 226.508 375.675 226.508 375.521C226.508 375.115 226.368 374.795 226.088 374.561C225.815 374.328 225.408 374.211 224.868 374.211C224.455 374.211 224.088 374.275 223.768 374.401C223.455 374.528 223.185 374.725 222.958 374.991L222.448 374.551C222.722 374.231 223.072 373.985 223.498 373.811C223.925 373.638 224.402 373.551 224.928 373.551C225.402 373.551 225.812 373.628 226.158 373.781C226.505 373.928 226.772 374.145 226.958 374.431C227.152 374.718 227.248 375.055 227.248 375.441C227.248 375.668 227.215 375.891 227.148 376.111C227.088 376.331 226.975 376.565 226.808 376.811C226.648 377.051 226.412 377.325 226.098 377.631L223.428 380.251L223.228 379.971H227.568V380.611H222.658ZM218.957 392.671C218.417 392.671 217.937 392.531 217.517 392.251C217.097 391.965 216.767 391.558 216.527 391.031C216.287 390.498 216.167 389.858 216.167 389.111C216.167 388.365 216.287 387.728 216.527 387.201C216.767 386.668 217.097 386.261 217.517 385.981C217.937 385.695 218.417 385.551 218.957 385.551C219.497 385.551 219.977 385.695 220.397 385.981C220.817 386.261 221.147 386.668 221.387 387.201C221.634 387.728 221.757 388.365 221.757 389.111C221.757 389.858 221.634 390.498 221.387 391.031C221.147 391.558 220.817 391.965 220.397 392.251C219.977 392.531 219.497 392.671 218.957 392.671ZM218.957 392.011C219.371 392.011 219.731 391.901 220.037 391.681C220.344 391.455 220.584 391.128 220.757 390.701C220.931 390.268 221.017 389.738 221.017 389.111C221.017 388.485 220.931 387.958 220.757 387.531C220.584 387.098 220.344 386.771 220.037 386.551C219.731 386.325 219.371 386.211 218.957 386.211C218.557 386.211 218.201 386.325 217.887 386.551C217.574 386.771 217.331 387.098 217.157 387.531C216.984 387.958 216.897 388.485 216.897 389.111C216.897 389.738 216.984 390.268 217.157 390.701C217.331 391.128 217.574 391.455 217.887 391.681C218.201 391.901 218.557 392.011 218.957 392.011Z" fill="#A3A3A3"/>
<path d="M307.337 380.611V380.101L310.247 377.251C310.513 376.991 310.713 376.765 310.847 376.571C310.98 376.371 311.07 376.185 311.117 376.011C311.163 375.838 311.187 375.675 311.187 375.521C311.187 375.115 311.047 374.795 310.767 374.561C310.493 374.328 310.087 374.211 309.547 374.211C309.133 374.211 308.767 374.275 308.447 374.401C308.133 374.528 307.863 374.725 307.637 374.991L307.127 374.551C307.4 374.231 307.75 373.985 308.177 373.811C308.603 373.638 309.08 373.551 309.607 373.551C310.08 373.551 310.49 373.628 310.837 373.781C311.183 373.928 311.45 374.145 311.637 374.431C311.83 374.718 311.927 375.055 311.927 375.441C311.927 375.668 311.893 375.891 311.827 376.111C311.767 376.331 311.653 376.565 311.487 376.811C311.327 377.051 311.09 377.325 310.777 377.631L308.107 380.251L307.907 379.971H312.247V380.611H307.337ZM315.921 380.671C315.381 380.671 314.901 380.531 314.481 380.251C314.061 379.965 313.731 379.558 313.491 379.031C313.251 378.498 313.131 377.858 313.131 377.111C313.131 376.365 313.251 375.728 313.491 375.201C313.731 374.668 314.061 374.261 314.481 373.981C314.901 373.695 315.381 373.551 315.921 373.551C316.461 373.551 316.941 373.695 317.361 373.981C317.781 374.261 318.111 374.668 318.351 375.201C318.597 375.728 318.721 376.365 318.721 377.111C318.721 377.858 318.597 378.498 318.351 379.031C318.111 379.558 317.781 379.965 317.361 380.251C316.941 380.531 316.461 380.671 315.921 380.671ZM315.921 380.011C316.334 380.011 316.694 379.901 317.001 379.681C317.307 379.455 317.547 379.128 317.721 378.701C317.894 378.268 317.981 377.738 317.981 377.111C317.981 376.485 317.894 375.958 317.721 375.531C317.547 375.098 317.307 374.771 317.001 374.551C316.694 374.325 316.334 374.211 315.921 374.211C315.521 374.211 315.164 374.325 314.851 374.551C314.537 374.771 314.294 375.098 314.121 375.531C313.947 375.958 313.861 376.485 313.861 377.111C313.861 377.738 313.947 378.268 314.121 378.701C314.294 379.128 314.537 379.455 314.851 379.681C315.164 379.901 315.521 380.011 315.921 380.011ZM319.622 380.611V380.101L322.532 377.251C322.798 376.991 322.998 376.765 323.132 376.571C323.265 376.371 323.355 376.185 323.402 376.011C323.448 375.838 323.472 375.675 323.472 375.521C323.472 375.115 323.332 374.795 323.052 374.561C322.778 374.328 322.372 374.211 321.832 374.211C321.418 374.211 321.052 374.275 320.732 374.401C320.418 374.528 320.148 374.725 319.922 374.991L319.412 374.551C319.685 374.231 320.035 373.985 320.462 373.811C320.888 373.638 321.365 373.551 321.892 373.551C322.365 373.551 322.775 373.628 323.122 373.781C323.468 373.928 323.735 374.145 323.922 374.431C324.115 374.718 324.212 375.055 324.212 375.441C324.212 375.668 324.178 375.891 324.112 376.111C324.052 376.331 323.938 376.565 323.772 376.811C323.612 377.051 323.375 377.325 323.062 377.631L320.392 380.251L320.192 379.971H324.532V380.611H319.622ZM315.864 392.611V385.911L316.184 386.251H314.214V385.611H316.584V392.611H315.864Z" fill="#A3A3A3"/>
<path d="M396.108 380.611V380.101L399.018 377.251C399.285 376.991 399.485 376.765 399.618 376.571C399.752 376.371 399.842 376.185 399.888 376.011C399.935 375.838 399.958 375.675 399.958 375.521C399.958 375.115 399.818 374.795 399.538 374.561C399.265 374.328 398.858 374.211 398.318 374.211C397.905 374.211 397.538 374.275 397.218 374.401C396.905 374.528 396.635 374.725 396.408 374.991L395.898 374.551C396.172 374.231 396.522 373.985 396.948 373.811C397.375 373.638 397.852 373.551 398.378 373.551C398.852 373.551 399.262 373.628 399.608 373.781C399.955 373.928 400.222 374.145 400.408 374.431C400.602 374.718 400.698 375.055 400.698 375.441C400.698 375.668 400.665 375.891 400.598 376.111C400.538 376.331 400.425 376.565 400.258 376.811C400.098 377.051 399.862 377.325 399.548 377.631L396.878 380.251L396.678 379.971H401.018V380.611H396.108ZM404.692 380.671C404.152 380.671 403.672 380.531 403.252 380.251C402.832 379.965 402.502 379.558 402.262 379.031C402.022 378.498 401.902 377.858 401.902 377.111C401.902 376.365 402.022 375.728 402.262 375.201C402.502 374.668 402.832 374.261 403.252 373.981C403.672 373.695 404.152 373.551 404.692 373.551C405.232 373.551 405.712 373.695 406.132 373.981C406.552 374.261 406.882 374.668 407.122 375.201C407.369 375.728 407.492 376.365 407.492 377.111C407.492 377.858 407.369 378.498 407.122 379.031C406.882 379.558 406.552 379.965 406.132 380.251C405.712 380.531 405.232 380.671 404.692 380.671ZM404.692 380.011C405.106 380.011 405.466 379.901 405.772 379.681C406.079 379.455 406.319 379.128 406.492 378.701C406.666 378.268 406.752 377.738 406.752 377.111C406.752 376.485 406.666 375.958 406.492 375.531C406.319 375.098 406.079 374.771 405.772 374.551C405.466 374.325 405.106 374.211 404.692 374.211C404.292 374.211 403.936 374.325 403.622 374.551C403.309 374.771 403.066 375.098 402.892 375.531C402.719 375.958 402.632 376.485 402.632 377.111C402.632 377.738 402.719 378.268 402.892 378.701C403.066 379.128 403.309 379.455 403.622 379.681C403.936 379.901 404.292 380.011 404.692 380.011ZM408.393 380.611V380.101L411.303 377.251C411.57 376.991 411.77 376.765 411.903 376.571C412.037 376.371 412.127 376.185 412.173 376.011C412.22 375.838 412.243 375.675 412.243 375.521C412.243 375.115 412.103 374.795 411.823 374.561C411.55 374.328 411.143 374.211 410.603 374.211C410.19 374.211 409.823 374.275 409.503 374.401C409.19 374.528 408.92 374.725 408.693 374.991L408.183 374.551C408.457 374.231 408.807 373.985 409.233 373.811C409.66 373.638 410.137 373.551 410.663 373.551C411.137 373.551 411.547 373.628 411.893 373.781C412.24 373.928 412.507 374.145 412.693 374.431C412.887 374.718 412.983 375.055 412.983 375.441C412.983 375.668 412.95 375.891 412.883 376.111C412.823 376.331 412.71 376.565 412.543 376.811C412.383 377.051 412.147 377.325 411.833 377.631L409.163 380.251L408.963 379.971H413.303V380.611H408.393ZM402.251 392.611V392.101L405.161 389.251C405.427 388.991 405.627 388.765 405.761 388.571C405.894 388.371 405.984 388.185 406.031 388.011C406.077 387.838 406.101 387.675 406.101 387.521C406.101 387.115 405.961 386.795 405.681 386.561C405.407 386.328 405.001 386.211 404.461 386.211C404.047 386.211 403.681 386.275 403.361 386.401C403.047 386.528 402.777 386.725 402.551 386.991L402.041 386.551C402.314 386.231 402.664 385.985 403.091 385.811C403.517 385.638 403.994 385.551 404.521 385.551C404.994 385.551 405.404 385.628 405.751 385.781C406.097 385.928 406.364 386.145 406.551 386.431C406.744 386.718 406.841 387.055 406.841 387.441C406.841 387.668 406.807 387.891 406.741 388.111C406.681 388.331 406.567 388.565 406.401 388.811C406.241 389.051 406.004 389.325 405.691 389.631L403.021 392.251L402.821 391.971H407.161V392.611H402.251Z" fill="#A3A3A3"/>
<path d="M8.0432 363.94V357.24L8.3632 357.58H6.3932V356.94H8.7632V363.94H8.0432ZM12.6465 364C12.1465 364 11.6698 363.92 11.2165 363.76C10.7631 363.594 10.4031 363.374 10.1365 363.1L10.4865 362.53C10.7065 362.764 11.0065 362.957 11.3865 363.11C11.7731 363.264 12.1898 363.34 12.6365 363.34C13.2298 363.34 13.6798 363.21 13.9865 362.95C14.2998 362.684 14.4565 362.337 14.4565 361.91C14.4565 361.61 14.3831 361.354 14.2365 361.14C14.0965 360.92 13.8565 360.75 13.5165 360.63C13.1765 360.51 12.7098 360.45 12.1165 360.45H10.6265L10.9865 356.94H14.8165V357.58H11.2765L11.6465 357.23L11.3365 360.17L10.9665 359.81H12.2765C12.9831 359.81 13.5498 359.897 13.9765 360.07C14.4031 360.244 14.7098 360.487 14.8965 360.8C15.0898 361.107 15.1865 361.467 15.1865 361.88C15.1865 362.274 15.0931 362.634 14.9065 362.96C14.7198 363.28 14.4398 363.534 14.0665 363.72C13.6931 363.907 13.2198 364 12.6465 364ZM12.2694 376C11.7294 376 11.2494 375.86 10.8294 375.58C10.4094 375.294 10.0794 374.887 9.83945 374.36C9.59945 373.827 9.47945 373.187 9.47945 372.44C9.47945 371.694 9.59945 371.057 9.83945 370.53C10.0794 369.997 10.4094 369.59 10.8294 369.31C11.2494 369.024 11.7294 368.88 12.2694 368.88C12.8094 368.88 13.2894 369.024 13.7094 369.31C14.1294 369.59 14.4594 369.997 14.6994 370.53C14.9461 371.057 15.0694 371.694 15.0694 372.44C15.0694 373.187 14.9461 373.827 14.6994 374.36C14.4594 374.887 14.1294 375.294 13.7094 375.58C13.2894 375.86 12.8094 376 12.2694 376ZM12.2694 375.34C12.6828 375.34 13.0428 375.23 13.3494 375.01C13.6561 374.784 13.8961 374.457 14.0694 374.03C14.2428 373.597 14.3294 373.067 14.3294 372.44C14.3294 371.814 14.2428 371.287 14.0694 370.86C13.8961 370.427 13.6561 370.1 13.3494 369.88C13.0428 369.654 12.6828 369.54 12.2694 369.54C11.8694 369.54 11.5128 369.654 11.1994 369.88C10.8861 370.1 10.6428 370.427 10.4694 370.86C10.2961 371.287 10.2094 371.814 10.2094 372.44C10.2094 373.067 10.2961 373.597 10.4694 374.03C10.6428 374.457 10.8861 374.784 11.1994 375.01C11.5128 375.23 11.8694 375.34 12.2694 375.34Z" fill="#A3A3A3"/>
<path d="M7.61399 311.362V304.662L7.93399 305.002H5.96399V304.362H8.33399V311.362H7.61399ZM12.8773 311.422C12.2573 311.422 11.7339 311.285 11.3073 311.012C10.8806 310.732 10.5573 310.332 10.3373 309.812C10.1173 309.285 10.0073 308.655 10.0073 307.922C10.0073 307.128 10.1406 306.465 10.4073 305.932C10.6806 305.392 11.0573 304.985 11.5373 304.712C12.0173 304.438 12.5739 304.302 13.2073 304.302C13.5206 304.302 13.8206 304.332 14.1073 304.392C14.3939 304.452 14.6473 304.548 14.8673 304.682L14.5773 305.262C14.3973 305.142 14.1906 305.058 13.9573 305.012C13.7239 304.958 13.4773 304.932 13.2173 304.932C12.4639 304.932 11.8606 305.172 11.4073 305.652C10.9606 306.132 10.7373 306.848 10.7373 307.802C10.7373 307.948 10.7439 308.132 10.7573 308.352C10.7773 308.565 10.8173 308.778 10.8773 308.992L10.6273 308.802C10.7006 308.455 10.8439 308.162 11.0573 307.922C11.2706 307.675 11.5373 307.488 11.8573 307.362C12.1773 307.235 12.5273 307.172 12.9073 307.172C13.3739 307.172 13.7839 307.258 14.1373 307.432C14.4906 307.605 14.7673 307.848 14.9673 308.162C15.1673 308.475 15.2673 308.845 15.2673 309.272C15.2673 309.705 15.1639 310.085 14.9573 310.412C14.7506 310.732 14.4639 310.982 14.0973 311.162C13.7373 311.335 13.3306 311.422 12.8773 311.422ZM12.8473 310.812C13.1806 310.812 13.4739 310.752 13.7273 310.632C13.9873 310.505 14.1906 310.328 14.3373 310.102C14.4839 309.868 14.5573 309.598 14.5573 309.292C14.5573 308.832 14.3973 308.465 14.0773 308.192C13.7639 307.918 13.3373 307.782 12.7973 307.782C12.4373 307.782 12.1239 307.848 11.8573 307.982C11.5906 308.115 11.3806 308.298 11.2273 308.532C11.0739 308.758 10.9973 309.018 10.9973 309.312C10.9973 309.565 11.0673 309.808 11.2073 310.042C11.3473 310.268 11.5539 310.455 11.8273 310.602C12.1073 310.742 12.4473 310.812 12.8473 310.812ZM12.2699 323.422C11.7299 323.422 11.2499 323.282 10.8299 323.002C10.4099 322.715 10.0799 322.308 9.83993 321.782C9.59993 321.248 9.47993 320.608 9.47993 319.862C9.47993 319.115 9.59993 318.478 9.83993 317.952C10.0799 317.418 10.4099 317.012 10.8299 316.732C11.2499 316.445 11.7299 316.302 12.2699 316.302C12.8099 316.302 13.2899 316.445 13.7099 316.732C14.1299 317.012 14.4599 317.418 14.6999 317.952C14.9466 318.478 15.0699 319.115 15.0699 319.862C15.0699 320.608 14.9466 321.248 14.6999 321.782C14.4599 322.308 14.1299 322.715 13.7099 323.002C13.2899 323.282 12.8099 323.422 12.2699 323.422ZM12.2699 322.762C12.6833 322.762 13.0433 322.652 13.3499 322.432C13.6566 322.205 13.8966 321.878 14.0699 321.452C14.2433 321.018 14.3299 320.488 14.3299 319.862C14.3299 319.235 14.2433 318.708 14.0699 318.282C13.8966 317.848 13.6566 317.522 13.3499 317.302C13.0433 317.075 12.6833 316.962 12.2699 316.962C11.8699 316.962 11.5133 317.075 11.1999 317.302C10.8866 317.522 10.6433 317.848 10.4699 318.282C10.2966 318.708 10.2099 319.235 10.2099 319.862C10.2099 320.488 10.2966 321.018 10.4699 321.452C10.6433 321.878 10.8866 322.205 11.1999 322.432C11.5133 322.652 11.8699 322.762 12.2699 322.762Z" fill="#A3A3A3"/>
<path d="M8.0139 260.066V253.366L8.3339 253.706H6.3639V253.066H8.7339V260.066H8.0139ZM11.6372 260.066L14.6572 253.386L14.8772 253.706H10.5472L10.9172 253.356V255.016H10.2072V253.066H15.3472V253.576L12.4172 260.066H11.6372ZM12.2694 272.126C11.7294 272.126 11.2494 271.986 10.8294 271.706C10.4094 271.419 10.0794 271.013 9.83945 270.486C9.59945 269.953 9.47945 269.313 9.47945 268.566C9.47945 267.819 9.59945 267.183 9.83945 266.656C10.0794 266.123 10.4094 265.716 10.8294 265.436C11.2494 265.149 11.7294 265.006 12.2694 265.006C12.8094 265.006 13.2894 265.149 13.7094 265.436C14.1294 265.716 14.4594 266.123 14.6994 266.656C14.9461 267.183 15.0694 267.819 15.0694 268.566C15.0694 269.313 14.9461 269.953 14.6994 270.486C14.4594 271.013 14.1294 271.419 13.7094 271.706C13.2894 271.986 12.8094 272.126 12.2694 272.126ZM12.2694 271.466C12.6828 271.466 13.0428 271.356 13.3494 271.136C13.6561 270.909 13.8961 270.583 14.0694 270.156C14.2428 269.723 14.3294 269.193 14.3294 268.566C14.3294 267.939 14.2428 267.413 14.0694 266.986C13.8961 266.553 13.6561 266.226 13.3494 266.006C13.0428 265.779 12.6828 265.666 12.2694 265.666C11.8694 265.666 11.5128 265.779 11.1994 266.006C10.8861 266.226 10.6428 266.553 10.4694 266.986C10.2961 267.413 10.2094 267.939 10.2094 268.566C10.2094 269.193 10.2961 269.723 10.4694 270.156C10.6428 270.583 10.8861 270.909 11.1994 271.136C11.5128 271.356 11.8694 271.466 12.2694 271.466Z" fill="#A3A3A3"/>
<path d="M7.33079 208.771V202.071L7.65079 202.411H5.68079V201.771H8.05079V208.771H7.33079ZM12.3841 208.831C11.8241 208.831 11.3407 208.751 10.9341 208.591C10.5341 208.431 10.2241 208.201 10.0041 207.901C9.79074 207.594 9.68407 207.234 9.68407 206.821C9.68407 206.421 9.78741 206.081 9.99407 205.801C10.2074 205.514 10.5141 205.294 10.9141 205.141C11.3207 204.988 11.8107 204.911 12.3841 204.911C12.9507 204.911 13.4374 204.988 13.8441 205.141C14.2507 205.294 14.5607 205.514 14.7741 205.801C14.9941 206.081 15.1041 206.421 15.1041 206.821C15.1041 207.234 14.9941 207.594 14.7741 207.901C14.5541 208.201 14.2407 208.431 13.8341 208.591C13.4274 208.751 12.9441 208.831 12.3841 208.831ZM12.3841 208.221C13.0041 208.221 13.4874 208.094 13.8341 207.841C14.1874 207.588 14.3641 207.244 14.3641 206.811C14.3641 206.378 14.1874 206.038 13.8341 205.791C13.4874 205.538 13.0041 205.411 12.3841 205.411C11.7641 205.411 11.2807 205.538 10.9341 205.791C10.5874 206.038 10.4141 206.378 10.4141 206.811C10.4141 207.244 10.5874 207.588 10.9341 207.841C11.2807 208.094 11.7641 208.221 12.3841 208.221ZM12.3841 205.321C11.8641 205.321 11.4207 205.251 11.0541 205.111C10.6941 204.971 10.4174 204.771 10.2241 204.511C10.0307 204.244 9.93407 203.928 9.93407 203.561C9.93407 203.174 10.0341 202.844 10.2341 202.571C10.4407 202.291 10.7274 202.078 11.0941 201.931C11.4607 201.784 11.8907 201.711 12.3841 201.711C12.8774 201.711 13.3074 201.784 13.6741 201.931C14.0474 202.078 14.3374 202.291 14.5441 202.571C14.7507 202.844 14.8541 203.174 14.8541 203.561C14.8541 203.928 14.7574 204.244 14.5641 204.511C14.3707 204.771 14.0874 204.971 13.7141 205.111C13.3474 205.251 12.9041 205.321 12.3841 205.321ZM12.3841 204.841C12.9307 204.841 13.3574 204.728 13.6641 204.501C13.9707 204.274 14.1241 203.971 14.1241 203.591C14.1241 203.191 13.9641 202.881 13.6441 202.661C13.3307 202.434 12.9107 202.321 12.3841 202.321C11.8574 202.321 11.4374 202.434 11.1241 202.661C10.8107 202.881 10.6541 203.188 10.6541 203.581C10.6541 203.968 10.8041 204.274 11.1041 204.501C11.4107 204.728 11.8374 204.841 12.3841 204.841ZM12.2699 220.831C11.7299 220.831 11.2499 220.691 10.8299 220.411C10.4099 220.124 10.0799 219.718 9.83993 219.191C9.59993 218.658 9.47993 218.018 9.47993 217.271C9.47993 216.524 9.59993 215.888 9.83993 215.361C10.0799 214.828 10.4099 214.421 10.8299 214.141C11.2499 213.854 11.7299 213.711 12.2699 213.711C12.8099 213.711 13.2899 213.854 13.7099 214.141C14.1299 214.421 14.4599 214.828 14.6999 215.361C14.9466 215.888 15.0699 216.524 15.0699 217.271C15.0699 218.018 14.9466 218.658 14.6999 219.191C14.4599 219.718 14.1299 220.124 13.7099 220.411C13.2899 220.691 12.8099 220.831 12.2699 220.831ZM12.2699 220.171C12.6833 220.171 13.0433 220.061 13.3499 219.841C13.6566 219.614 13.8966 219.288 14.0699 218.861C14.2433 218.428 14.3299 217.898 14.3299 217.271C14.3299 216.644 14.2433 216.118 14.0699 215.691C13.8966 215.258 13.6566 214.931 13.3499 214.711C13.0433 214.484 12.6833 214.371 12.2699 214.371C11.8699 214.371 11.5133 214.484 11.1999 214.711C10.8866 214.931 10.6433 215.258 10.4699 215.691C10.2966 216.118 10.2099 216.644 10.2099 217.271C10.2099 217.898 10.2966 218.428 10.4699 218.861C10.6433 219.288 10.8866 219.614 11.1999 219.841C11.5133 220.061 11.8699 220.171 12.2699 220.171Z" fill="#A3A3A3"/>
<path d="M7.61399 157.475V150.775L7.93399 151.115H5.96399V150.475H8.33399V157.475H7.61399ZM12.1873 150.415C12.8073 150.415 13.3306 150.555 13.7573 150.835C14.1839 151.109 14.5073 151.505 14.7273 152.025C14.9473 152.545 15.0573 153.175 15.0573 153.915C15.0573 154.702 14.9206 155.365 14.6473 155.905C14.3806 156.445 14.0073 156.852 13.5273 157.125C13.0473 157.399 12.4906 157.535 11.8573 157.535C11.5439 157.535 11.2439 157.505 10.9573 157.445C10.6773 157.385 10.4239 157.289 10.1973 157.155L10.4873 156.575C10.6673 156.695 10.8739 156.782 11.1073 156.835C11.3473 156.882 11.5939 156.905 11.8473 156.905C12.6006 156.905 13.2006 156.665 13.6473 156.185C14.1006 155.705 14.3273 154.989 14.3273 154.035C14.3273 153.882 14.3173 153.699 14.2973 153.485C14.2839 153.272 14.2473 153.059 14.1873 152.845L14.4373 153.035C14.3706 153.382 14.2273 153.679 14.0073 153.925C13.7939 154.165 13.5273 154.349 13.2073 154.475C12.8939 154.602 12.5439 154.665 12.1573 154.665C11.6973 154.665 11.2873 154.579 10.9273 154.405C10.5739 154.232 10.2973 153.989 10.0973 153.675C9.89728 153.362 9.79728 152.992 9.79728 152.565C9.79728 152.125 9.90061 151.745 10.1073 151.425C10.3139 151.105 10.5973 150.859 10.9573 150.685C11.3239 150.505 11.7339 150.415 12.1873 150.415ZM12.2173 151.025C11.8839 151.025 11.5873 151.089 11.3273 151.215C11.0739 151.335 10.8739 151.509 10.7273 151.735C10.5806 151.962 10.5073 152.232 10.5073 152.545C10.5073 153.005 10.6639 153.372 10.9773 153.645C11.2973 153.919 11.7273 154.055 12.2673 154.055C12.6273 154.055 12.9406 153.989 13.2073 153.855C13.4806 153.722 13.6906 153.539 13.8373 153.305C13.9906 153.072 14.0673 152.812 14.0673 152.525C14.0673 152.265 13.9973 152.022 13.8573 151.795C13.7173 151.569 13.5106 151.385 13.2373 151.245C12.9639 151.099 12.6239 151.025 12.2173 151.025ZM12.2699 169.535C11.7299 169.535 11.2499 169.395 10.8299 169.115C10.4099 168.829 10.0799 168.422 9.83993 167.895C9.59993 167.362 9.47993 166.722 9.47993 165.975C9.47993 165.229 9.59993 164.592 9.83993 164.065C10.0799 163.532 10.4099 163.125 10.8299 162.845C11.2499 162.559 11.7299 162.415 12.2699 162.415C12.8099 162.415 13.2899 162.559 13.7099 162.845C14.1299 163.125 14.4599 163.532 14.6999 164.065C14.9466 164.592 15.0699 165.229 15.0699 165.975C15.0699 166.722 14.9466 167.362 14.6999 167.895C14.4599 168.422 14.1299 168.829 13.7099 169.115C13.2899 169.395 12.8099 169.535 12.2699 169.535ZM12.2699 168.875C12.6833 168.875 13.0433 168.765 13.3499 168.545C13.6566 168.319 13.8966 167.992 14.0699 167.565C14.2433 167.132 14.3299 166.602 14.3299 165.975C14.3299 165.349 14.2433 164.822 14.0699 164.395C13.8966 163.962 13.6566 163.635 13.3499 163.415C13.0433 163.189 12.6833 163.075 12.2699 163.075C11.8699 163.075 11.5133 163.189 11.1999 163.415C10.8866 163.635 10.6433 163.962 10.4699 164.395C10.2966 164.822 10.2099 165.349 10.2099 165.975C10.2099 166.602 10.2966 167.132 10.4699 167.565C10.6433 167.992 10.8866 168.319 11.1999 168.545C11.5133 168.765 11.8699 168.875 12.2699 168.875Z" fill="#A3A3A3"/>
<path d="M3.68611 106.179V105.669L6.59611 102.819C6.86277 102.559 7.06277 102.333 7.19611 102.139C7.32944 101.939 7.41944 101.753 7.46611 101.579C7.51278 101.406 7.53611 101.243 7.53611 101.089C7.53611 100.683 7.39611 100.363 7.11611 100.129C6.84278 99.896 6.43611 99.7793 5.89611 99.7793C5.48278 99.7793 5.11611 99.8427 4.79611 99.9693C4.48277 100.096 4.21277 100.293 3.98611 100.559L3.47611 100.119C3.74944 99.7993 4.09944 99.5527 4.52611 99.3793C4.95277 99.206 5.42944 99.1193 5.95611 99.1193C6.42944 99.1193 6.83944 99.196 7.18611 99.3493C7.53278 99.496 7.79944 99.7127 7.98611 99.9993C8.17944 100.286 8.27611 100.623 8.27611 101.009C8.27611 101.236 8.24278 101.459 8.17611 101.679C8.11611 101.899 8.00278 102.133 7.83611 102.379C7.67611 102.619 7.43944 102.893 7.12611 103.199L4.45611 105.819L4.25611 105.539H8.59611V106.179H3.68611ZM12.2702 106.239C11.7302 106.239 11.2502 106.099 10.8302 105.819C10.4102 105.533 10.0802 105.126 9.84017 104.599C9.60017 104.066 9.48017 103.426 9.48017 102.679C9.48017 101.933 9.60017 101.296 9.84017 100.769C10.0802 100.236 10.4102 99.8293 10.8302 99.5493C11.2502 99.2627 11.7302 99.1193 12.2702 99.1193C12.8102 99.1193 13.2902 99.2627 13.7102 99.5493C14.1302 99.8293 14.4602 100.236 14.7002 100.769C14.9468 101.296 15.0702 101.933 15.0702 102.679C15.0702 103.426 14.9468 104.066 14.7002 104.599C14.4602 105.126 14.1302 105.533 13.7102 105.819C13.2902 106.099 12.8102 106.239 12.2702 106.239ZM12.2702 105.579C12.6835 105.579 13.0435 105.469 13.3502 105.249C13.6568 105.023 13.8968 104.696 14.0702 104.269C14.2435 103.836 14.3302 103.306 14.3302 102.679C14.3302 102.053 14.2435 101.526 14.0702 101.099C13.8968 100.666 13.6568 100.339 13.3502 100.119C13.0435 99.8927 12.6835 99.7793 12.2702 99.7793C11.8702 99.7793 11.5135 99.8927 11.2002 100.119C10.8868 100.339 10.6435 100.666 10.4702 101.099C10.2968 101.526 10.2102 102.053 10.2102 102.679C10.2102 103.306 10.2968 103.836 10.4702 104.269C10.6435 104.696 10.8868 105.023 11.2002 105.249C11.5135 105.469 11.8702 105.579 12.2702 105.579ZM12.2702 118.239C11.7302 118.239 11.2502 118.099 10.8302 117.819C10.4102 117.533 10.0802 117.126 9.84017 116.599C9.60017 116.066 9.48017 115.426 9.48017 114.679C9.48017 113.933 9.60017 113.296 9.84017 112.769C10.0802 112.236 10.4102 111.829 10.8302 111.549C11.2502 111.263 11.7302 111.119 12.2702 111.119C12.8102 111.119 13.2902 111.263 13.7102 111.549C14.1302 111.829 14.4602 112.236 14.7002 112.769C14.9468 113.296 15.0702 113.933 15.0702 114.679C15.0702 115.426 14.9468 116.066 14.7002 116.599C14.4602 117.126 14.1302 117.533 13.7102 117.819C13.2902 118.099 12.8102 118.239 12.2702 118.239ZM12.2702 117.579C12.6835 117.579 13.0435 117.469 13.3502 117.249C13.6568 117.023 13.8968 116.696 14.0702 116.269C14.2435 115.836 14.3302 115.306 14.3302 114.679C14.3302 114.053 14.2435 113.526 14.0702 113.099C13.8968 112.666 13.6568 112.339 13.3502 112.119C13.0435 111.893 12.6835 111.779 12.2702 111.779C11.8702 111.779 11.5135 111.893 11.2002 112.119C10.8868 112.339 10.6435 112.666 10.4702 113.099C10.2968 113.526 10.2102 114.053 10.2102 114.679C10.2102 115.306 10.2968 115.836 10.4702 116.269C10.6435 116.696 10.8868 117.023 11.2002 117.249C11.5135 117.469 11.8702 117.579 12.2702 117.579Z" fill="#A3A3A3"/>
<path d="M6.67367 54.8842V54.3742L9.58367 51.5242C9.85033 51.2642 10.0503 51.0375 10.1837 50.8442C10.317 50.6442 10.407 50.4575 10.4537 50.2842C10.5003 50.1108 10.5237 49.9475 10.5237 49.7942C10.5237 49.3875 10.3837 49.0675 10.1037 48.8342C9.83033 48.6008 9.42367 48.4842 8.88367 48.4842C8.47033 48.4842 8.10367 48.5475 7.78367 48.6742C7.47033 48.8008 7.20033 48.9975 6.97367 49.2642L6.46367 48.8242C6.737 48.5042 7.087 48.2575 7.51367 48.0842C7.94033 47.9108 8.417 47.8242 8.94367 47.8242C9.417 47.8242 9.827 47.9008 10.1737 48.0542C10.5203 48.2008 10.787 48.4175 10.9737 48.7042C11.167 48.9908 11.2637 49.3275 11.2637 49.7142C11.2637 49.9408 11.2303 50.1642 11.1637 50.3842C11.1037 50.6042 10.9903 50.8375 10.8237 51.0842C10.6637 51.3242 10.427 51.5975 10.1137 51.9042L7.44367 54.5242L7.24367 54.2442H11.5837V54.8842H6.67367ZM13.7073 54.8842V48.1842L14.0273 48.5242H12.0573V47.8842H14.4273V54.8842H13.7073ZM12.2694 66.9442C11.7294 66.9442 11.2494 66.8042 10.8294 66.5242C10.4094 66.2375 10.0794 65.8308 9.83945 65.3042C9.59945 64.7708 9.47945 64.1308 9.47945 63.3842C9.47945 62.6375 9.59945 62.0008 9.83945 61.4742C10.0794 60.9408 10.4094 60.5342 10.8294 60.2542C11.2494 59.9675 11.7294 59.8242 12.2694 59.8242C12.8094 59.8242 13.2894 59.9675 13.7094 60.2542C14.1294 60.5342 14.4594 60.9408 14.6994 61.4742C14.9461 62.0008 15.0694 62.6375 15.0694 63.3842C15.0694 64.1308 14.9461 64.7708 14.6994 65.3042C14.4594 65.8308 14.1294 66.2375 13.7094 66.5242C13.2894 66.8042 12.8094 66.9442 12.2694 66.9442ZM12.2694 66.2842C12.6828 66.2842 13.0428 66.1742 13.3494 65.9542C13.6561 65.7275 13.8961 65.4008 14.0694 64.9742C14.2428 64.5408 14.3294 64.0108 14.3294 63.3842C14.3294 62.7575 14.2428 62.2308 14.0694 61.8042C13.8961 61.3708 13.6561 61.0442 13.3494 60.8242C13.0428 60.5975 12.6828 60.4842 12.2694 60.4842C11.8694 60.4842 11.5128 60.5975 11.1994 60.8242C10.8861 61.0442 10.6428 61.3708 10.4694 61.8042C10.2961 62.2308 10.2094 62.7575 10.2094 63.3842C10.2094 64.0108 10.2961 64.5408 10.4694 64.9742C10.6428 65.4008 10.8861 65.7275 11.1994 65.9542C11.5128 66.1742 11.8694 66.2842 12.2694 66.2842Z" fill="#A3A3A3"/>
<path d="M23.7817 333.068C23.7817 333.068 82.2115 310.212 121.165 298.063C160.118 285.914 179.594 283.649 218.548 272.323C257.501 260.998 276.977 272.323 315.93 241.436C354.884 210.549 413.313 63.3195 413.313 63.3195" stroke="#2D6FD0" stroke-width="2"/>
<path d="M23.1048 338C22.1166 338 21.1688 337.474 20.47 336.536C19.7712 335.599 19.3784 334.327 19.3782 333.002C19.3779 331.676 19.7702 330.404 20.4687 329.466C21.1672 328.528 22.1147 328.001 23.1029 328C24.0911 328 25.039 328.526 25.7382 329.462C26.4374 330.399 26.8306 331.671 26.8314 332.997C26.8321 334.322 26.4403 335.594 25.7422 336.533C25.044 337.471 24.0967 337.999 23.1085 338H23.1048Z" fill="#2D6FD0"/>
<path d="M119.997 303C119.008 303 118.061 302.474 117.362 301.536C116.663 300.599 116.27 299.327 116.27 298.002C116.27 296.676 116.662 295.404 117.361 294.466C118.059 293.528 119.007 293.001 119.995 293C120.983 293 121.931 293.526 122.63 294.462C123.329 295.399 123.722 296.671 123.723 297.996C123.724 299.322 123.332 300.594 122.634 301.533C121.936 302.471 120.989 302.999 120 303H119.997Z" fill="#2D6FD0"/>
<path d="M218.378 277C217.39 277 216.443 276.474 215.744 275.536C215.045 274.599 214.652 273.327 214.652 272.002C214.652 270.676 215.044 269.404 215.742 268.466C216.441 267.528 217.388 267.001 218.377 267C219.365 267 220.313 267.526 221.012 268.462C221.711 269.399 222.104 270.671 222.105 271.996C222.106 273.322 221.714 274.594 221.016 275.533C220.318 276.471 219.37 276.999 218.382 277H218.378Z" fill="#2D6FD0"/>
<path d="M315.271 246C314.282 246 313.335 245.474 312.636 244.536C311.937 243.599 311.544 242.327 311.544 241.002C311.544 239.676 311.936 238.404 312.634 237.466C313.333 236.528 314.28 236.001 315.269 236C316.257 236 317.205 236.526 317.904 237.462C318.603 238.399 318.996 239.671 318.997 240.996C318.998 242.322 318.606 243.594 317.908 244.533C317.21 245.471 316.262 245.999 315.274 246H315.271Z" fill="#2D6FD0"/>
<path d="M412.907 68.0002C411.919 68.0002 410.971 67.4736 410.272 66.5362C409.574 65.5988 409.181 64.3274 409.181 63.0015C409.18 61.6756 409.573 60.4039 410.271 59.466C410.97 58.5282 411.917 58.0009 412.905 58.0002C413.894 57.9996 414.842 58.5256 415.541 59.4625C416.24 60.3994 416.633 61.6706 416.634 62.9965C416.635 64.3224 416.243 65.5943 415.545 66.5327C414.847 67.471 413.899 67.9989 412.911 68.0002L412.907 68.0002Z" fill="#2D6FD0"/>
<path d="M34.8546 315.4V317H27.7946V315.4H30.5146V304.5C30.4079 304.66 30.2346 304.84 29.9946 305.04C29.7546 305.227 29.4746 305.413 29.1546 305.6C28.8479 305.773 28.5346 305.92 28.2146 306.04C27.8946 306.16 27.6013 306.22 27.3346 306.22V304.58C27.6946 304.58 28.0546 304.487 28.4146 304.3C28.7879 304.113 29.1279 303.893 29.4346 303.64C29.7546 303.387 30.0079 303.16 30.1946 302.96C30.3946 302.76 30.5013 302.653 30.5146 302.64H32.3146V315.4H34.8546ZM40.6427 317.2C39.6294 317.2 38.7161 316.96 37.9027 316.48C37.1027 316 36.4894 315.353 36.0627 314.54L37.1627 313.58C37.5361 314.193 38.0294 314.687 38.6427 315.06C39.2694 315.433 39.9427 315.62 40.6627 315.62C41.2761 315.62 41.8227 315.487 42.3027 315.22C42.7827 314.953 43.1627 314.587 43.4427 314.12C43.7227 313.653 43.8627 313.113 43.8627 312.5C43.8627 311.9 43.7227 311.373 43.4427 310.92C43.1761 310.467 42.8094 310.113 42.3427 309.86C41.8894 309.593 41.3761 309.46 40.8027 309.46C40.2427 309.46 39.7094 309.587 39.2027 309.84C38.6961 310.093 38.2894 310.453 37.9827 310.92H36.3827L37.9827 302.8H44.8827V304.42H39.2827L38.4227 308.94C38.7161 308.62 39.0827 308.373 39.5227 308.2C39.9761 308.027 40.4761 307.94 41.0227 307.94C41.9027 307.94 42.6894 308.133 43.3827 308.52C44.0894 308.907 44.6427 309.44 45.0427 310.12C45.4561 310.787 45.6627 311.567 45.6627 312.46C45.6627 313.393 45.4361 314.22 44.9827 314.94C44.5427 315.647 43.9427 316.2 43.1827 316.6C42.4361 317 41.5894 317.2 40.6427 317.2ZM51.7951 317.2C50.7817 317.2 49.8684 316.96 49.0551 316.48C48.2551 316 47.6417 315.353 47.2151 314.54L48.3151 313.58C48.6884 314.193 49.1817 314.687 49.7951 315.06C50.4217 315.433 51.0951 315.62 51.8151 315.62C52.4284 315.62 52.9751 315.487 53.4551 315.22C53.9351 314.953 54.3151 314.587 54.5951 314.12C54.8751 313.653 55.0151 313.113 55.0151 312.5C55.0151 311.9 54.8751 311.373 54.5951 310.92C54.3284 310.467 53.9617 310.113 53.4951 309.86C53.0417 309.593 52.5284 309.46 51.9551 309.46C51.3951 309.46 50.8617 309.587 50.3551 309.84C49.8484 310.093 49.4417 310.453 49.1351 310.92H47.5351L49.1351 302.8H56.0351V304.42H50.4351L49.5751 308.94C49.8684 308.62 50.2351 308.373 50.6751 308.2C51.1284 308.027 51.6284 307.94 52.1751 307.94C53.0551 307.94 53.8417 308.133 54.5351 308.52C55.2417 308.907 55.7951 309.44 56.1951 310.12C56.6084 310.787 56.8151 311.567 56.8151 312.46C56.8151 313.393 56.5884 314.22 56.1351 314.94C55.6951 315.647 55.0951 316.2 54.3351 316.6C53.5884 317 52.7417 317.2 51.7951 317.2ZM59.0874 318.62L59.4874 316.84H58.8874V314.76H60.5474V316.84L59.9474 318.62H59.0874ZM67.4462 317.18C66.6328 317.18 65.8928 317.053 65.2262 316.8C64.5728 316.533 64.0262 316.167 63.5862 315.7C63.1595 315.22 62.8795 314.667 62.7462 314.04L63.7462 312.98C63.7862 313.367 63.9595 313.76 64.2662 314.16C64.5728 314.56 64.9928 314.893 65.5262 315.16C66.0728 315.413 66.7062 315.54 67.4262 315.54C68.0395 315.54 68.5928 315.44 69.0862 315.24C69.5795 315.027 69.9728 314.733 70.2662 314.36C70.5595 313.987 70.7062 313.553 70.7062 313.06C70.7062 312.513 70.5262 312.047 70.1662 311.66C69.8062 311.273 69.2928 310.98 68.6262 310.78C67.9728 310.58 67.1928 310.48 66.2862 310.48H65.6062V308.98H66.2862C67.5128 308.98 68.4928 308.787 69.2262 308.4C69.9595 308 70.3262 307.407 70.3262 306.62C70.3262 306.113 70.1862 305.68 69.9062 305.32C69.6395 304.947 69.2795 304.667 68.8262 304.48C68.3862 304.28 67.9128 304.18 67.4062 304.18C66.5528 304.18 65.8262 304.373 65.2262 304.76C64.6395 305.133 64.2262 305.573 63.9862 306.08L62.8062 304.86C63.0728 304.393 63.4462 303.993 63.9262 303.66C64.4062 303.327 64.9462 303.073 65.5462 302.9C66.1462 302.713 66.7595 302.62 67.3862 302.62C68.3062 302.62 69.1262 302.793 69.8462 303.14C70.5795 303.487 71.1528 303.953 71.5662 304.54C71.9795 305.127 72.1862 305.793 72.1862 306.54C72.1862 307.073 72.0795 307.553 71.8662 307.98C71.6528 308.393 71.3395 308.74 70.9262 309.02C70.5128 309.3 70.0128 309.513 69.4262 309.66C70.0528 309.767 70.5995 309.993 71.0662 310.34C71.5328 310.687 71.8928 311.113 72.1462 311.62C72.3995 312.127 72.5262 312.68 72.5262 313.28C72.5262 314.107 72.2862 314.813 71.8062 315.4C71.3262 315.973 70.6995 316.413 69.9262 316.72C69.1662 317.027 68.3395 317.18 67.4462 317.18Z" fill="#2F2F2F"/>
<path d="M147.48 282.4V284H140.42V282.4H143.14V271.5C143.033 271.66 142.86 271.84 142.62 272.04C142.38 272.227 142.1 272.413 141.78 272.6C141.473 272.773 141.16 272.92 140.84 273.04C140.52 273.16 140.226 273.22 139.96 273.22V271.58C140.32 271.58 140.68 271.487 141.04 271.3C141.413 271.113 141.753 270.893 142.06 270.64C142.38 270.387 142.633 270.16 142.82 269.96C143.02 269.76 143.126 269.653 143.14 269.64H144.94V282.4H147.48ZM159.168 279.3C159.168 280.207 158.941 281.033 158.488 281.78C158.048 282.513 157.441 283.1 156.668 283.54C155.908 283.98 155.048 284.2 154.088 284.2C153.074 284.2 152.181 283.96 151.408 283.48C150.634 282.987 150.028 282.28 149.588 281.36C149.161 280.44 148.948 279.347 148.948 278.08C148.948 276.213 149.168 274.66 149.608 273.42C150.048 272.18 150.668 271.253 151.468 270.64C152.268 270.013 153.201 269.7 154.268 269.7C155.188 269.7 156.021 269.927 156.768 270.38C157.528 270.82 158.121 271.433 158.548 272.22L157.468 273.28C157.174 272.653 156.741 272.16 156.168 271.8C155.594 271.427 154.954 271.24 154.248 271.24C153.528 271.24 152.894 271.46 152.348 271.9C151.801 272.34 151.374 272.973 151.068 273.8C150.774 274.627 150.621 275.627 150.608 276.8C150.808 276.333 151.088 275.933 151.448 275.6C151.808 275.253 152.228 274.987 152.708 274.8C153.201 274.613 153.721 274.52 154.268 274.52C155.188 274.52 156.014 274.733 156.748 275.16C157.494 275.587 158.081 276.16 158.508 276.88C158.948 277.6 159.168 278.407 159.168 279.3ZM154.108 282.68C154.721 282.68 155.281 282.527 155.788 282.22C156.308 281.913 156.721 281.507 157.028 281C157.334 280.48 157.488 279.913 157.488 279.3C157.488 278.687 157.334 278.127 157.028 277.62C156.721 277.113 156.308 276.707 155.788 276.4C155.281 276.093 154.721 275.94 154.108 275.94C153.494 275.94 152.928 276.093 152.408 276.4C151.901 276.707 151.494 277.113 151.188 277.62C150.881 278.127 150.728 278.687 150.728 279.3C150.728 279.913 150.881 280.48 151.188 281C151.494 281.507 151.901 281.913 152.408 282.22C152.928 282.527 153.494 282.68 154.108 282.68ZM160.977 284C160.977 283.2 161.043 282.493 161.177 281.88C161.323 281.253 161.53 280.693 161.797 280.2C162.077 279.707 162.41 279.273 162.797 278.9C163.183 278.527 163.623 278.193 164.117 277.9C164.637 277.593 165.17 277.313 165.717 277.06C166.263 276.807 166.77 276.54 167.237 276.26C167.703 275.98 168.077 275.647 168.357 275.26C168.65 274.86 168.797 274.367 168.797 273.78C168.797 273.313 168.697 272.893 168.497 272.52C168.297 272.133 167.997 271.827 167.597 271.6C167.197 271.373 166.683 271.26 166.057 271.26C165.43 271.26 164.863 271.367 164.357 271.58C163.863 271.793 163.437 272.047 163.077 272.34C162.717 272.633 162.43 272.913 162.217 273.18L161.077 272.04C161.183 271.907 161.37 271.707 161.637 271.44C161.917 271.173 162.27 270.9 162.697 270.62C163.137 270.34 163.65 270.107 164.237 269.92C164.823 269.72 165.49 269.62 166.237 269.62C167.237 269.62 168.07 269.807 168.737 270.18C169.403 270.553 169.903 271.053 170.237 271.68C170.583 272.307 170.757 273 170.757 273.76C170.757 274.44 170.63 275.027 170.377 275.52C170.123 276 169.797 276.407 169.397 276.74C168.997 277.073 168.557 277.367 168.077 277.62C167.61 277.873 167.157 278.113 166.717 278.34C165.877 278.74 165.21 279.107 164.717 279.44C164.223 279.773 163.843 280.1 163.577 280.42C163.323 280.727 163.15 281.04 163.057 281.36C162.977 281.68 162.93 282.027 162.917 282.4H170.777V284H160.977ZM173.334 285.62L173.734 283.84H173.134V281.76H174.794V283.84L174.194 285.62H173.334ZM184.452 282.4V284H177.392V282.4H180.112V271.5C180.006 271.66 179.832 271.84 179.592 272.04C179.352 272.227 179.072 272.413 178.752 272.6C178.446 272.773 178.132 272.92 177.812 273.04C177.492 273.16 177.199 273.22 176.932 273.22V271.58C177.292 271.58 177.652 271.487 178.012 271.3C178.386 271.113 178.726 270.893 179.032 270.64C179.352 270.387 179.606 270.16 179.792 269.96C179.992 269.76 180.099 269.653 180.112 269.64H181.912V282.4H184.452Z" fill="#2F2F2F"/>
<path d="M279.759 256.4V258H272.699V256.4H275.419V245.5C275.312 245.66 275.139 245.84 274.899 246.04C274.659 246.227 274.379 246.413 274.059 246.6C273.752 246.773 273.439 246.92 273.119 247.04C272.799 247.16 272.506 247.22 272.239 247.22V245.58C272.599 245.58 272.959 245.487 273.319 245.3C273.692 245.113 274.032 244.893 274.339 244.64C274.659 244.387 274.912 244.16 275.099 243.96C275.299 243.76 275.406 243.653 275.419 243.64H277.219V256.4H279.759ZM291.447 253.3C291.447 254.207 291.22 255.033 290.767 255.78C290.327 256.513 289.72 257.1 288.947 257.54C288.187 257.98 287.327 258.2 286.367 258.2C285.354 258.2 284.46 257.96 283.687 257.48C282.914 256.987 282.307 256.28 281.867 255.36C281.44 254.44 281.227 253.347 281.227 252.08C281.227 250.213 281.447 248.66 281.887 247.42C282.327 246.18 282.947 245.253 283.747 244.64C284.547 244.013 285.48 243.7 286.547 243.7C287.467 243.7 288.3 243.927 289.047 244.38C289.807 244.82 290.4 245.433 290.827 246.22L289.747 247.28C289.454 246.653 289.02 246.16 288.447 245.8C287.874 245.427 287.234 245.24 286.527 245.24C285.807 245.24 285.174 245.46 284.627 245.9C284.08 246.34 283.654 246.973 283.347 247.8C283.054 248.627 282.9 249.627 282.887 250.8C283.087 250.333 283.367 249.933 283.727 249.6C284.087 249.253 284.507 248.987 284.987 248.8C285.48 248.613 286 248.52 286.547 248.52C287.467 248.52 288.294 248.733 289.027 249.16C289.774 249.587 290.36 250.16 290.787 250.88C291.227 251.6 291.447 252.407 291.447 253.3ZM286.387 256.68C287 256.68 287.56 256.527 288.067 256.22C288.587 255.913 289 255.507 289.307 255C289.614 254.48 289.767 253.913 289.767 253.3C289.767 252.687 289.614 252.127 289.307 251.62C289 251.113 288.587 250.707 288.067 250.4C287.56 250.093 287 249.94 286.387 249.94C285.774 249.94 285.207 250.093 284.687 250.4C284.18 250.707 283.774 251.113 283.467 251.62C283.16 252.127 283.007 252.687 283.007 253.3C283.007 253.913 283.16 254.48 283.467 255C283.774 255.507 284.18 255.913 284.687 256.22C285.207 256.527 285.774 256.68 286.387 256.68ZM300.256 245.42H292.976V243.8H303.056L295.896 258H293.916L300.256 245.42ZM303.054 259.62L303.454 257.84H302.854V255.76H304.514V257.84L303.914 259.62H303.054ZM314.173 256.4V258H307.113V256.4H309.833V245.5C309.726 245.66 309.553 245.84 309.313 246.04C309.073 246.227 308.793 246.413 308.473 246.6C308.166 246.773 307.853 246.92 307.533 247.04C307.213 247.16 306.92 247.22 306.653 247.22V245.58C307.013 245.58 307.373 245.487 307.733 245.3C308.106 245.113 308.446 244.893 308.753 244.64C309.073 244.387 309.326 244.16 309.513 243.96C309.713 243.76 309.82 243.653 309.833 243.64H311.633V256.4H314.173Z" fill="#2F2F2F"/>
<path d="M407.751 223.4V225H400.691V223.4H403.411V212.5C403.304 212.66 403.131 212.84 402.891 213.04C402.651 213.227 402.371 213.413 402.051 213.6C401.744 213.773 401.431 213.92 401.111 214.04C400.791 214.16 400.498 214.22 400.231 214.22V212.58C400.591 212.58 400.951 212.487 401.311 212.3C401.684 212.113 402.024 211.893 402.331 211.64C402.651 211.387 402.904 211.16 403.091 210.96C403.291 210.76 403.398 210.653 403.411 210.64H405.211V223.4H407.751ZM416.119 212.42H408.839V210.8H418.919L411.759 225H409.779L416.119 212.42ZM424.503 225.18C423.689 225.18 422.949 225.053 422.283 224.8C421.629 224.533 421.083 224.167 420.643 223.7C420.216 223.22 419.936 222.667 419.803 222.04L420.803 220.98C420.843 221.367 421.016 221.76 421.323 222.16C421.629 222.56 422.049 222.893 422.583 223.16C423.129 223.413 423.763 223.54 424.483 223.54C425.096 223.54 425.649 223.44 426.143 223.24C426.636 223.027 427.029 222.733 427.323 222.36C427.616 221.987 427.763 221.553 427.763 221.06C427.763 220.513 427.583 220.047 427.223 219.66C426.863 219.273 426.349 218.98 425.683 218.78C425.029 218.58 424.249 218.48 423.343 218.48H422.663V216.98H423.343C424.569 216.98 425.549 216.787 426.283 216.4C427.016 216 427.383 215.407 427.383 214.62C427.383 214.113 427.243 213.68 426.963 213.32C426.696 212.947 426.336 212.667 425.883 212.48C425.443 212.28 424.969 212.18 424.463 212.18C423.609 212.18 422.883 212.373 422.283 212.76C421.696 213.133 421.283 213.573 421.043 214.08L419.863 212.86C420.129 212.393 420.503 211.993 420.983 211.66C421.463 211.327 422.003 211.073 422.603 210.9C423.203 210.713 423.816 210.62 424.443 210.62C425.363 210.62 426.183 210.793 426.903 211.14C427.636 211.487 428.209 211.953 428.623 212.54C429.036 213.127 429.243 213.793 429.243 214.54C429.243 215.073 429.136 215.553 428.923 215.98C428.709 216.393 428.396 216.74 427.983 217.02C427.569 217.3 427.069 217.513 426.483 217.66C427.109 217.767 427.656 217.993 428.123 218.34C428.589 218.687 428.949 219.113 429.203 219.62C429.456 220.127 429.583 220.68 429.583 221.28C429.583 222.107 429.343 222.813 428.863 223.4C428.383 223.973 427.756 224.413 426.983 224.72C426.223 225.027 425.396 225.18 424.503 225.18ZM432.062 226.62L432.462 224.84H431.862V222.76H433.522V224.84L432.922 226.62H432.062ZM443.181 223.4V225H436.121V223.4H438.841V212.5C438.734 212.66 438.561 212.84 438.321 213.04C438.081 213.227 437.801 213.413 437.481 213.6C437.174 213.773 436.861 213.92 436.541 214.04C436.221 214.16 435.927 214.22 435.661 214.22V212.58C436.021 212.58 436.381 212.487 436.741 212.3C437.114 212.113 437.454 211.893 437.761 211.64C438.081 211.387 438.334 211.16 438.521 210.96C438.721 210.76 438.827 210.653 438.841 210.64H440.641V223.4H443.181Z" fill="#2F2F2F"/>
</svg>
