<svg width="64" height="65" viewBox="0 0 64 65" fill="none" xmlns="http://www.w3.org/2000/svg">
<g clip-path="url(#clip0_1960_268557)">
<path d="M58.9474 29.5454L64 27.145C63.6258 24.929 63.0643 22.7131 62.3159 20.6819L56.7017 21.0512C55.9531 19.3891 55.0176 17.9119 54.0819 16.25L57.2632 11.6335C55.9531 9.78693 54.269 8.30966 52.5848 6.83238L47.9064 9.97159C46.4094 9.23296 44.9122 8.125 43.228 7.38637L43.6023 1.84659C41.5439 1.10795 39.4854 0.553978 37.2397 0L34.807 5.17046C32.9357 4.98579 31.0643 4.98579 29.3801 5.17046L26.7603 0C24.5146 0.369319 22.4561 0.923296 20.3977 1.66193L20.772 7.38637C19.0878 8.125 17.5906 9.04829 16.0936 10.1562L11.6023 6.83238C9.91814 8.30966 8.23392 9.78693 6.92397 11.6335L10.1053 16.4347C8.98246 17.9119 8.04678 19.5738 7.48538 21.2359L1.87134 20.8665C1.12281 22.8978 0.561404 25.1137 0.187134 27.3296L5.23977 29.5454C5.05263 31.3921 5.05263 33.2387 5.23977 35.0853L0 37.4859C0.374268 39.7016 0.935672 41.9175 1.68421 43.9488L7.29824 43.5796C8.04678 45.2415 8.98246 46.7188 9.91814 48.3806L6.73685 53.1819C8.04678 55.0284 9.73099 56.5056 11.4152 57.9829L16.0936 54.8438C17.5906 55.9516 19.0878 56.875 20.772 57.6137L20.3977 63.3381C22.4561 64.0766 24.5146 64.6306 26.7603 65L29.193 59.8296C31.0643 60.0141 32.9357 60.0141 34.6199 59.8296L37.0526 65C39.2983 64.6306 41.3568 64.0766 43.4152 63.3381L43.0409 57.2444C44.7251 56.5056 46.2223 55.5825 47.7193 54.4744L52.3977 57.6137C54.0819 56.1363 55.5789 54.6591 57.076 52.8125L53.8948 48.0113C55.0176 46.5341 55.9531 44.8722 56.5146 43.2103L62.1286 43.5796C62.8772 41.5484 63.4387 39.3325 63.8129 37.1165L58.9474 35.0853C58.9474 33.2387 58.9474 31.3921 58.9474 29.5454ZM49.5906 34.1619L52.772 35.8238C52.5849 37.3012 52.2104 38.7784 51.6491 40.071L47.9064 39.8863C47.3449 40.9944 46.7836 42.1022 46.2223 43.0256L48.2807 46.1647C47.3449 47.2728 46.4094 48.3806 45.2866 49.304L42.2923 47.2728C41.3568 47.8266 40.234 48.5653 39.1112 49.1194L39.2983 52.8125C37.9883 53.3665 36.4913 53.7359 34.9941 53.9204L33.6841 50.0425C32.5613 50.2272 31.2514 50.2272 30.1286 50.0425L28.6315 53.5512C27.1345 53.3665 25.8246 52.9972 24.5146 52.4431L24.7017 48.75C23.5789 48.196 22.6432 47.6421 21.5204 46.9034L18.5263 48.9347C17.4035 48.0113 16.4678 46.9034 15.5322 45.7954L17.5906 42.6562C17.0292 41.7329 16.2807 40.625 15.9064 39.5171L12.1637 39.7016C11.6023 38.4091 11.2281 36.9319 11.0409 35.4546L14.4094 33.7925C14.2222 32.5 14.2222 31.3921 14.4094 30.0994L11.0409 28.4375C11.2281 27.3296 11.6023 25.8522 12.1637 24.5597L15.9064 24.7444C16.4678 23.6363 17.0292 22.5284 17.5906 21.605L15.5322 18.4659C16.4678 17.358 17.4035 16.4347 18.5263 15.3267L21.5204 17.358C22.4561 16.804 23.5789 16.0653 24.7017 15.5114L24.5146 11.8182C25.8246 11.2642 27.3216 10.8949 28.8186 10.7102L30.503 14.0341C31.6258 13.8494 32.9357 13.8494 34.0585 14.0341L35.3685 11.0795C36.8655 11.2642 38.1754 11.6335 39.4854 12.1875L39.2983 15.8807C40.4211 16.4347 41.3568 16.9886 42.4796 17.7273L45.4737 15.696C46.5965 16.6193 47.5322 17.7273 48.4678 18.8352L46.4094 21.9744C46.9707 22.8978 47.7193 24.0056 48.0936 25.1137L51.8362 24.929C52.3977 26.2216 52.772 27.6988 52.9591 29.1762L49.5906 30.8381C49.7777 31.7613 49.7777 32.8694 49.5906 34.1619Z" fill="#1B5DA9"/>
<path d="M43.6023 31.2075L45.6608 30.0994C45.4737 29.1762 45.2864 28.2528 44.9122 27.3296L42.4794 27.5141C42.1052 26.7756 41.731 26.2216 41.3566 25.4829L42.6665 23.4516C42.1052 22.7131 41.3566 21.9744 40.6082 21.4204L38.5497 22.7131C37.9881 22.1591 37.2397 21.7897 36.4911 21.4204L36.6782 19.0199C35.7427 18.6506 34.807 18.4659 34.0584 18.2812L32.9355 20.4972C32.1871 20.4972 31.2514 20.4972 30.6901 20.4972L29.7544 18.4659C28.8186 18.6506 27.8829 18.8352 27.1345 19.2046L27.3216 21.605C26.573 21.9744 26.0117 22.3437 25.2631 22.8978L23.2045 21.605C22.4561 22.1591 21.7075 22.8978 21.1462 23.6363L22.4561 25.6675C21.8946 26.2216 21.5204 26.9603 21.3333 27.6988L18.9005 27.5141C18.5263 28.4375 18.3391 29.3609 18.152 30.2841L20.2105 31.3921C20.2105 32.1306 20.2105 33.054 20.2105 33.7925L17.9648 34.9006C18.152 35.8238 18.3391 36.7472 18.7134 37.6704L21.1462 37.4859C21.5204 38.2244 21.8946 38.7784 22.269 39.5171L20.9591 41.5484C21.5204 42.2869 22.269 43.0256 23.0174 43.5796L25.076 42.2869C25.6373 42.8409 26.3859 43.2103 27.1345 43.5796L26.9474 45.98C27.8829 46.3494 28.8186 46.5341 29.5673 46.7188L30.6901 44.5028C31.4385 44.5028 32.3742 44.5028 32.9355 44.5028L34.0584 46.7188C34.9941 46.5341 35.9298 46.3494 36.6782 45.98L36.4911 43.5796C37.2397 43.2103 37.801 42.8409 38.5497 42.2869L40.6082 43.5796C41.3566 43.0256 42.1052 42.2869 42.6665 41.5484L41.5437 39.7016C42.1052 39.1478 42.4794 38.4091 42.6665 37.6704L45.0993 37.855C45.4737 36.9319 45.6608 36.0085 45.8479 35.0853L43.7894 33.9772C43.6023 32.6847 43.6023 31.946 43.6023 31.2075ZM32 37.3012C29.1929 37.3012 26.9474 35.0853 26.9474 32.3153C26.9474 29.5454 29.1929 27.3296 32 27.3296C34.807 27.3296 37.0526 29.5454 37.0526 32.3153C37.0526 35.0853 34.807 37.3012 32 37.3012Z" fill="#ED1C24"/>
</g>
<defs>
<clipPath id="clip0_1960_268557">
<rect width="64" height="65" fill="white"/>
</clipPath>
</defs>
</svg>
