<svg width="64" height="64" viewBox="0 0 64 64" fill="none" xmlns="http://www.w3.org/2000/svg">
<g clip-path="url(#clip0_1960_268564)">
<path d="M63.9968 37.6797H0.109375V41.3914H63.9968V37.6797Z" fill="black"/>
<path d="M0.109375 64.0056H4.0461V59.7315H26.4292V45.1094H0.109375V64.0056ZM4.0461 48.8212H22.4924V56.0198H4.0461V48.8212Z" fill="black"/>
<path d="M30.1445 59.7315H44.9916V64.0056H49.0408V59.7315H63.8879V45.1094H30.1445V59.7315ZM49.0408 48.8212H60.0636V56.0198H49.0408V48.8212ZM34.0812 48.8212H44.9916V56.0198H34.0812V48.8212Z" fill="black"/>
<path d="M33.9665 0H18.8945V33.8559H33.9665V0ZM30.0299 30.1441H22.8312V3.82425H30.0299V30.1441Z" fill="black"/>
<path d="M41.7296 11.3603L48.9282 3.82425V33.9684H52.865V11.3603L59.9511 3.82425V33.9684H63.8878V0H58.3764L52.865 5.84885V0H47.3535L37.793 9.89807V33.9684H41.7296V11.3603Z" fill="black"/>
<path d="M11.1353 33.9684H15.072V30.2565V0H9.56063L0 9.89807V30.1441V33.8559H3.93673H11.1353V33.9684ZM4.0492 11.3603L11.2478 3.82425V30.1441H4.0492V11.3603Z" fill="black"/>
</g>
<defs>
<clipPath id="clip0_1960_268564">
<rect width="64" height="64" fill="white"/>
</clipPath>
</defs>
</svg>
