<svg width="63" height="62" viewBox="0 0 63 62" fill="none" xmlns="http://www.w3.org/2000/svg">
<g clip-path="url(#clip0_1960_268540)">
<path d="M40.6348 33.2632C38.753 33.6908 36.8802 34.1291 34.9984 34.5567C34.9984 24.2519 34.9804 13.9577 34.9984 3.6529C34.9984 2.76565 34.8543 2.62669 34.161 2.94738C33.1616 3.41772 32.1261 3.77048 31.0547 4.04841C32.2612 2.77634 33.4857 1.50427 34.6742 0.210827C34.9173 -0.0457252 35.0524 -0.0777942 35.3135 0.168068C36.9702 1.69669 38.6269 3.22531 40.3016 4.72186C40.6618 5.04255 40.6348 5.43807 40.6258 5.86565C40.6258 14.8129 40.6258 23.7601 40.6258 32.7074C40.6258 32.8891 40.6258 33.0815 40.6258 33.2632H40.6348Z" fill="#E32125"/>
<path d="M33.2255 35.1064C31.3437 35.8333 29.4619 36.5495 27.5801 37.2764C27.5801 30.1999 27.5801 23.1233 27.5801 15.9292C26.2295 16.4637 24.951 16.9661 23.6724 17.4685C23.6544 17.4257 23.6274 17.3723 23.6094 17.3295C24.8249 16.0468 26.0494 14.7747 27.2559 13.4812C27.481 13.2354 27.6341 13.2781 27.8502 13.4812C29.5519 15.0419 31.2537 16.5919 32.9734 18.1419C33.2885 18.4306 33.2075 18.794 33.2075 19.1468C33.2165 24.4702 33.2165 29.7937 33.2255 35.1171V35.1064Z" fill="#E32125"/>
<path d="M25.8045 38.0663C23.9047 39.0177 22.0049 39.9798 20.105 40.9312C20.105 36.2598 20.105 31.5777 20.105 26.8101C18.7815 27.3339 17.4939 27.8363 16.2064 28.3388C16.1884 28.3067 16.1704 28.2639 16.1523 28.2319C17.3769 26.9491 18.6014 25.6877 19.8079 24.3836C20.096 24.0736 20.2761 24.1698 20.5282 24.405C22.1669 25.9122 23.8056 27.4195 25.4623 28.8946C25.7955 29.1939 25.7955 29.536 25.7955 29.9422C25.7955 32.6467 25.7955 35.3619 25.8045 38.0663Z" fill="#E32125"/>
<path d="M18.4297 57.9217C22.0853 55.463 25.7588 54.982 29.6035 56.8099C31.4763 57.6972 33.259 58.8303 35.1138 59.7817C35.9422 60.1986 36.7886 60.562 37.797 61.0217C35.0238 62.1013 32.4217 62.3793 29.8016 61.3958C28.523 60.9148 27.2715 60.3375 26.0199 59.7496C23.9761 58.7982 21.8692 58.2744 19.6722 58.1782C19.2851 58.1568 18.8979 58.1461 18.4297 57.9217Z" fill="#36A9E1"/>
<path d="M62.6392 39.355C58.2994 36.0198 53.5273 34.2881 48.3771 33.9781C45.784 33.8177 43.1999 34.0208 40.6248 34.3308C40.4447 34.1598 40.2466 34.1919 40.0396 34.2239C38.5629 34.4377 37.1223 34.8546 35.6637 35.2074C35.4026 35.2715 35.2045 35.4639 34.9884 35.635C34.3941 35.8167 33.7999 36.0091 33.2146 36.1908C31.2518 36.5008 29.379 37.185 27.6322 38.2967C27.5422 38.3501 27.6502 38.2753 27.5782 38.3608C26.984 38.6174 26.3987 38.8846 25.8045 39.1412C25.5073 38.9701 25.2462 39.1839 24.9941 39.3015C23.7066 39.9536 22.401 40.5201 21.1405 41.2577C20.7803 41.4715 20.3391 41.5357 20.096 42.006C19.988 42.0915 19.8889 42.1877 19.7719 42.2519C12.983 45.9932 6.52719 50.4615 0.215483 55.2398C-0.180687 55.5498 0.00839445 55.6032 0.332533 55.5925C1.27794 55.5819 2.22334 55.5712 3.17775 55.5605C3.59193 55.6674 3.92507 55.4322 4.25822 55.1863C5.80688 54.0639 7.34654 52.9308 8.91321 51.8512C16.4494 46.656 24.2108 42.0381 32.5934 39.045C35.1234 38.1363 37.6895 37.4094 40.4897 36.9391C36.5371 40.0177 34.9434 44.347 34.8803 49.5957C34.8623 51.2739 34.8803 51.2312 33.4847 50.9853C32.7734 50.857 32.3863 50.5257 32.0801 49.7239C31.0267 47.0301 29.2529 45.4053 26.7318 44.9991C24.2558 44.6036 21.9418 45.3625 19.6908 46.4101C15.0448 48.5801 10.9391 51.8405 6.95037 55.3253C6.77029 55.475 6.51818 55.5605 6.49117 55.9132C6.87834 55.9881 7.28351 55.9881 7.63466 56.1591C8.72413 56.6615 9.55249 56.2125 10.4529 55.4429C13.5322 52.8346 16.7466 50.4722 20.2851 48.8046C22.1759 47.9174 24.1117 47.2439 26.1826 47.447C27.9384 47.6181 29.2349 48.6229 30.0903 50.5791C26.7409 50.857 23.9226 52.4605 21.2215 54.7267C21.6627 54.887 21.9598 54.8122 22.2659 54.7267C25.6154 53.6257 28.8297 54.1601 31.9271 55.9346C32.8365 56.4584 33.7729 56.9074 34.6732 57.4525C39.2832 60.2319 43.9652 60.1036 48.7643 58.2008C52.0777 56.8967 54.2476 54.1174 56.1655 50.7608C55.3371 50.9212 54.6618 51.3167 53.9775 51.6694C48.5932 54.4808 43.1459 54.545 37.6175 52.3322C37.1853 52.1612 37.0413 51.9153 37.0503 51.4236C37.0683 50.4081 36.9872 49.3925 37.0593 48.377C37.4104 43.4598 39.4093 39.9429 43.362 38.1363C44.8026 37.4843 46.3062 37.185 47.8459 37.1529C52.4109 37.0674 56.6067 38.7136 60.6494 41.076C62.027 41.8777 62 41.8777 62.8283 40.3598C63.0984 39.8681 63.0174 39.6543 62.6302 39.3657L62.6392 39.355Z" fill="#36A9E1"/>
</g>
<defs>
<clipPath id="clip0_1960_268540">
<rect width="63" height="62" fill="white"/>
</clipPath>
</defs>
</svg>
