<svg width="686" height="341" viewBox="0 0 686 341" fill="none" xmlns="http://www.w3.org/2000/svg">
<path d="M372.322 118.2C371.349 118.173 370.489 117.94 369.742 117.5C368.995 117.06 368.369 116.487 367.862 115.78C367.369 115.06 366.995 114.287 366.742 113.46C366.489 112.62 366.362 111.8 366.362 111C366.362 110.147 366.495 109.293 366.762 108.44C367.042 107.587 367.442 106.813 367.962 106.12C368.482 105.413 369.109 104.853 369.842 104.44C370.575 104.013 371.402 103.8 372.322 103.8C373.309 103.8 374.169 104.027 374.902 104.48C375.649 104.933 376.269 105.52 376.762 106.24C377.269 106.96 377.649 107.74 377.902 108.58C378.155 109.42 378.282 110.227 378.282 111C378.282 111.867 378.142 112.727 377.862 113.58C377.595 114.42 377.202 115.187 376.682 115.88C376.162 116.573 375.535 117.133 374.802 117.56C374.069 117.973 373.242 118.187 372.322 118.2ZM368.182 111C368.209 111.653 368.309 112.307 368.482 112.96C368.655 113.613 368.915 114.213 369.262 114.76C369.609 115.307 370.035 115.747 370.542 116.08C371.049 116.413 371.642 116.58 372.322 116.58C373.029 116.58 373.642 116.407 374.162 116.06C374.682 115.7 375.109 115.24 375.442 114.68C375.789 114.107 376.042 113.5 376.202 112.86C376.375 112.207 376.462 111.587 376.462 111C376.462 110.347 376.369 109.693 376.182 109.04C376.009 108.387 375.742 107.787 375.382 107.24C375.022 106.693 374.589 106.253 374.082 105.92C373.575 105.587 372.989 105.42 372.322 105.42C371.615 105.42 371.002 105.6 370.482 105.96C369.962 106.307 369.529 106.767 369.182 107.34C368.849 107.9 368.595 108.507 368.422 109.16C368.262 109.8 368.182 110.413 368.182 111ZM380.71 119.62L381.11 117.84H380.51V115.76H382.17V117.84L381.57 119.62H380.71ZM394.689 113.3C394.689 114.207 394.463 115.033 394.009 115.78C393.569 116.513 392.963 117.1 392.189 117.54C391.429 117.98 390.569 118.2 389.609 118.2C388.596 118.2 387.703 117.96 386.929 117.48C386.156 116.987 385.549 116.28 385.109 115.36C384.683 114.44 384.469 113.347 384.469 112.08C384.469 110.213 384.689 108.66 385.129 107.42C385.569 106.18 386.189 105.253 386.989 104.64C387.789 104.013 388.723 103.7 389.789 103.7C390.709 103.7 391.543 103.927 392.289 104.38C393.049 104.82 393.643 105.433 394.069 106.22L392.989 107.28C392.696 106.653 392.263 106.16 391.689 105.8C391.116 105.427 390.476 105.24 389.769 105.24C389.049 105.24 388.416 105.46 387.869 105.9C387.323 106.34 386.896 106.973 386.589 107.8C386.296 108.627 386.143 109.627 386.129 110.8C386.329 110.333 386.609 109.933 386.969 109.6C387.329 109.253 387.749 108.987 388.229 108.8C388.723 108.613 389.243 108.52 389.789 108.52C390.709 108.52 391.536 108.733 392.269 109.16C393.016 109.587 393.603 110.16 394.029 110.88C394.469 111.6 394.689 112.407 394.689 113.3ZM389.629 116.68C390.243 116.68 390.803 116.527 391.309 116.22C391.829 115.913 392.243 115.507 392.549 115C392.856 114.48 393.009 113.913 393.009 113.3C393.009 112.687 392.856 112.127 392.549 111.62C392.243 111.113 391.829 110.707 391.309 110.4C390.803 110.093 390.243 109.94 389.629 109.94C389.016 109.94 388.449 110.093 387.929 110.4C387.423 110.707 387.016 111.113 386.709 111.62C386.403 112.127 386.249 112.687 386.249 113.3C386.249 113.913 386.403 114.48 386.709 115C387.016 115.507 387.423 115.913 387.929 116.22C388.449 116.527 389.016 116.68 389.629 116.68Z" fill="#2F2F2F"/>
<path d="M32.8047 7.57812L32.8047 315.352" stroke="#F5F6F7"/>
<path d="M141 7.57812L141 315.352" stroke="#F5F6F7"/>
<path d="M249 7.57812L249 315.352" stroke="#F5F6F7"/>
<path d="M465 7L465 316" stroke="#F5F6F7"/>
<path d="M357 6L357 315" stroke="#F5F6F7"/>
<path d="M573 7L573 316" stroke="#F5F6F7"/>
<path d="M681 7L681 316" stroke="#F5F6F7"/>
<path d="M34 238H682" stroke="#F5F6F7"/>
<path d="M33 161L682 161" stroke="#F5F6F7"/>
<path d="M33 84L682 83.9999" stroke="#F5F6F7"/>
<path d="M32.8047 6.9375L556.542 6.93745" stroke="#F5F6F7"/>
<path d="M33 315L682 315" stroke="#F5F6F7"/>
<path d="M33 6L33 315" stroke="#F5F6F7"/>
<path d="M37.0091 339.791C35.0651 339.791 33.6611 338.195 33.6611 335.519C33.6611 332.843 35.0651 331.247 37.0091 331.247C38.9531 331.247 40.3691 332.843 40.3691 335.519C40.3691 338.195 38.9531 339.791 37.0091 339.791ZM37.0091 338.999C38.4731 338.999 39.4811 337.763 39.4811 335.519C39.4811 333.275 38.4731 332.039 37.0091 332.039C35.5451 332.039 34.5371 333.275 34.5371 335.519C34.5371 337.763 35.5451 338.999 37.0091 338.999ZM41.067 331.319H43.911V339.719H43.047V332.087H41.067V331.319ZM46.5669 339.779C46.2189 339.779 45.9309 339.491 45.9309 339.119C45.9309 338.747 46.2189 338.471 46.5669 338.471C46.9149 338.471 47.2149 338.747 47.2149 339.119C47.2149 339.491 46.9149 339.779 46.5669 339.779ZM51.681 339.791C49.737 339.791 48.333 338.195 48.333 335.519C48.333 332.843 49.737 331.247 51.681 331.247C53.625 331.247 55.041 332.843 55.041 335.519C55.041 338.195 53.625 339.791 51.681 339.791ZM51.681 338.999C53.145 338.999 54.153 337.763 54.153 335.519C54.153 333.275 53.145 332.039 51.681 332.039C50.217 332.039 49.209 333.275 49.209 335.519C49.209 337.763 50.217 338.999 51.681 338.999ZM55.7389 331.319H58.5829V339.719H57.7189V332.087H55.7389V331.319ZM61.2388 339.779C60.8908 339.779 60.6028 339.491 60.6028 339.119C60.6028 338.747 60.8908 338.471 61.2388 338.471C61.5868 338.471 61.8868 338.747 61.8868 339.119C61.8868 339.491 61.5868 339.779 61.2388 339.779ZM64.367 338.951H68.987V339.719H63.095V339.107L66.587 335.687C67.535 334.751 67.715 334.187 67.715 333.611C67.715 332.639 67.031 332.039 65.747 332.039C64.763 332.039 64.007 332.339 63.455 332.975L62.843 332.447C63.491 331.679 64.535 331.247 65.819 331.247C67.523 331.247 68.603 332.111 68.603 333.515C68.603 334.319 68.351 335.039 67.223 336.143L64.367 338.951ZM73.3724 339.791C71.4284 339.791 70.0244 338.195 70.0244 335.519C70.0244 332.843 71.4284 331.247 73.3724 331.247C75.3164 331.247 76.7324 332.843 76.7324 335.519C76.7324 338.195 75.3164 339.791 73.3724 339.791ZM73.3724 338.999C74.8364 338.999 75.8444 337.763 75.8444 335.519C75.8444 333.275 74.8364 332.039 73.3724 332.039C71.9084 332.039 70.9004 333.275 70.9004 335.519C70.9004 337.763 71.9084 338.999 73.3724 338.999ZM79.0623 338.951H83.6823V339.719H77.7903V339.107L81.2823 335.687C82.2303 334.751 82.4103 334.187 82.4103 333.611C82.4103 332.639 81.7263 332.039 80.4423 332.039C79.4583 332.039 78.7023 332.339 78.1503 332.975L77.5383 332.447C78.1863 331.679 79.2303 331.247 80.5143 331.247C82.2183 331.247 83.2983 332.111 83.2983 333.515C83.2983 334.319 83.0463 335.039 81.9183 336.143L79.0623 338.951ZM85.8826 338.951H90.5026V339.719H84.6106V339.107L88.1026 335.687C89.0506 334.751 89.2306 334.187 89.2306 333.611C89.2306 332.639 88.5466 332.039 87.2626 332.039C86.2786 332.039 85.5226 332.339 84.9706 332.975L84.3586 332.447C85.0066 331.679 86.0506 331.247 87.3346 331.247C89.0386 331.247 90.1186 332.111 90.1186 333.515C90.1186 334.319 89.8666 335.039 88.7386 336.143L85.8826 338.951Z" fill="#858C95"/>
<path d="M332.009 340.072C330.065 340.072 328.661 338.476 328.661 335.8C328.661 333.124 330.065 331.528 332.009 331.528C333.953 331.528 335.369 333.124 335.369 335.8C335.369 338.476 333.953 340.072 332.009 340.072ZM332.009 339.28C333.473 339.28 334.481 338.044 334.481 335.8C334.481 333.556 333.473 332.32 332.009 332.32C330.545 332.32 329.537 333.556 329.537 335.8C329.537 338.044 330.545 339.28 332.009 339.28ZM336.067 331.6H338.911V340H338.047V332.368H336.067V331.6ZM341.567 340.06C341.219 340.06 340.931 339.772 340.931 339.4C340.931 339.028 341.219 338.752 341.567 338.752C341.915 338.752 342.215 339.028 342.215 339.4C342.215 339.772 341.915 340.06 341.567 340.06ZM346.681 340.072C344.737 340.072 343.333 338.476 343.333 335.8C343.333 333.124 344.737 331.528 346.681 331.528C348.625 331.528 350.041 333.124 350.041 335.8C350.041 338.476 348.625 340.072 346.681 340.072ZM346.681 339.28C348.145 339.28 349.153 338.044 349.153 335.8C349.153 333.556 348.145 332.32 346.681 332.32C345.217 332.32 344.209 333.556 344.209 335.8C344.209 338.044 345.217 339.28 346.681 339.28ZM350.739 331.6H353.583V340H352.719V332.368H350.739V331.6ZM356.239 340.06C355.891 340.06 355.603 339.772 355.603 339.4C355.603 339.028 355.891 338.752 356.239 338.752C356.587 338.752 356.887 339.028 356.887 339.4C356.887 339.772 356.587 340.06 356.239 340.06ZM359.367 339.232H363.987V340H358.095V339.388L361.587 335.968C362.535 335.032 362.715 334.468 362.715 333.892C362.715 332.92 362.031 332.32 360.747 332.32C359.763 332.32 359.007 332.62 358.455 333.256L357.843 332.728C358.491 331.96 359.535 331.528 360.819 331.528C362.523 331.528 363.603 332.392 363.603 333.796C363.603 334.6 363.351 335.32 362.223 336.424L359.367 339.232ZM368.372 340.072C366.428 340.072 365.024 338.476 365.024 335.8C365.024 333.124 366.428 331.528 368.372 331.528C370.316 331.528 371.732 333.124 371.732 335.8C371.732 338.476 370.316 340.072 368.372 340.072ZM368.372 339.28C369.836 339.28 370.844 338.044 370.844 335.8C370.844 333.556 369.836 332.32 368.372 332.32C366.908 332.32 365.9 333.556 365.9 335.8C365.9 338.044 366.908 339.28 368.372 339.28ZM374.062 339.232H378.682V340H372.79V339.388L376.282 335.968C377.23 335.032 377.41 334.468 377.41 333.892C377.41 332.92 376.726 332.32 375.442 332.32C374.458 332.32 373.702 332.62 373.15 333.256L372.538 332.728C373.186 331.96 374.23 331.528 375.514 331.528C377.218 331.528 378.298 332.392 378.298 333.796C378.298 334.6 378.046 335.32 376.918 336.424L374.062 339.232ZM380.883 339.232H385.503V340H379.611V339.388L383.103 335.968C384.051 335.032 384.231 334.468 384.231 333.892C384.231 332.92 383.547 332.32 382.263 332.32C381.279 332.32 380.523 332.62 379.971 333.256L379.359 332.728C380.007 331.96 381.051 331.528 382.335 331.528C384.039 331.528 385.119 332.392 385.119 333.796C385.119 334.6 384.867 335.32 383.739 336.424L380.883 339.232Z" fill="#858C95"/>
<path d="M625.208 340.072C623.264 340.072 621.86 338.476 621.86 335.8C621.86 333.124 623.264 331.528 625.208 331.528C627.152 331.528 628.568 333.124 628.568 335.8C628.568 338.476 627.152 340.072 625.208 340.072ZM625.208 339.28C626.672 339.28 627.68 338.044 627.68 335.8C627.68 333.556 626.672 332.32 625.208 332.32C623.744 332.32 622.736 333.556 622.736 335.8C622.736 338.044 623.744 339.28 625.208 339.28ZM629.266 331.6H632.11V340H631.246V332.368H629.266V331.6ZM634.766 340.06C634.418 340.06 634.13 339.772 634.13 339.4C634.13 339.028 634.418 338.752 634.766 338.752C635.114 338.752 635.414 339.028 635.414 339.4C635.414 339.772 635.114 340.06 634.766 340.06ZM639.88 340.072C637.936 340.072 636.532 338.476 636.532 335.8C636.532 333.124 637.936 331.528 639.88 331.528C641.824 331.528 643.24 333.124 643.24 335.8C643.24 338.476 641.824 340.072 639.88 340.072ZM639.88 339.28C641.344 339.28 642.352 338.044 642.352 335.8C642.352 333.556 641.344 332.32 639.88 332.32C638.416 332.32 637.408 333.556 637.408 335.8C637.408 338.044 638.416 339.28 639.88 339.28ZM645.57 339.232H650.19V340H644.298V339.388L647.79 335.968C648.738 335.032 648.918 334.468 648.918 333.892C648.918 332.92 648.234 332.32 646.95 332.32C645.966 332.32 645.21 332.62 644.658 333.256L644.046 332.728C644.694 331.96 645.738 331.528 647.022 331.528C648.726 331.528 649.806 332.392 649.806 333.796C649.806 334.6 649.554 335.32 648.426 336.424L645.57 339.232ZM652.04 340.06C651.692 340.06 651.404 339.772 651.404 339.4C651.404 339.028 651.692 338.752 652.04 338.752C652.388 338.752 652.688 339.028 652.688 339.4C652.688 339.772 652.388 340.06 652.04 340.06ZM655.168 339.232H659.788V340H653.896V339.388L657.388 335.968C658.336 335.032 658.516 334.468 658.516 333.892C658.516 332.92 657.832 332.32 656.548 332.32C655.564 332.32 654.808 332.62 654.256 333.256L653.644 332.728C654.292 331.96 655.336 331.528 656.62 331.528C658.324 331.528 659.404 332.392 659.404 333.796C659.404 334.6 659.152 335.32 658.024 336.424L655.168 339.232ZM664.173 340.072C662.229 340.072 660.825 338.476 660.825 335.8C660.825 333.124 662.229 331.528 664.173 331.528C666.117 331.528 667.533 333.124 667.533 335.8C667.533 338.476 666.117 340.072 664.173 340.072ZM664.173 339.28C665.637 339.28 666.645 338.044 666.645 335.8C666.645 333.556 665.637 332.32 664.173 332.32C662.709 332.32 661.701 333.556 661.701 335.8C661.701 338.044 662.709 339.28 664.173 339.28ZM669.863 339.232H674.483V340H668.591V339.388L672.083 335.968C673.031 335.032 673.211 334.468 673.211 333.892C673.211 332.92 672.527 332.32 671.243 332.32C670.259 332.32 669.503 332.62 668.951 333.256L668.339 332.728C668.987 331.96 670.031 331.528 671.315 331.528C673.019 331.528 674.099 332.392 674.099 333.796C674.099 334.6 673.847 335.32 672.719 336.424L669.863 339.232ZM676.683 339.232H681.303V340H675.411V339.388L678.903 335.968C679.851 335.032 680.031 334.468 680.031 333.892C680.031 332.92 679.347 332.32 678.063 332.32C677.079 332.32 676.323 332.62 675.771 333.256L675.159 332.728C675.807 331.96 676.851 331.528 678.135 331.528C679.839 331.528 680.919 332.392 680.919 333.796C680.919 334.6 680.667 335.32 679.539 336.424L676.683 339.232Z" fill="#858C95"/>
<path d="M15.8017 319.072C13.8577 319.072 12.4537 317.476 12.4537 314.8C12.4537 312.124 13.8577 310.528 15.8017 310.528C17.7457 310.528 19.1617 312.124 19.1617 314.8C19.1617 317.476 17.7457 319.072 15.8017 319.072ZM15.8017 318.28C17.2657 318.28 18.2737 317.044 18.2737 314.8C18.2737 312.556 17.2657 311.32 15.8017 311.32C14.3377 311.32 13.3297 312.556 13.3297 314.8C13.3297 317.044 14.3377 318.28 15.8017 318.28Z" fill="#858C95"/>
<path d="M4.87825 242.072C2.93425 242.072 1.53025 240.476 1.53025 237.8C1.53025 235.124 2.93425 233.528 4.87825 233.528C6.82225 233.528 8.23825 235.124 8.23825 237.8C8.23825 240.476 6.82225 242.072 4.87825 242.072ZM4.87825 241.28C6.34225 241.28 7.35025 240.044 7.35025 237.8C7.35025 235.556 6.34225 234.32 4.87825 234.32C3.41425 234.32 2.40625 235.556 2.40625 237.8C2.40625 240.044 3.41425 241.28 4.87825 241.28ZM10.0067 240.752C10.3787 240.752 10.6427 241.04 10.6427 241.4C10.6427 241.604 10.5947 241.76 10.4747 242.096L9.97066 243.752H9.39466L9.80266 242.012C9.55066 241.94 9.37066 241.712 9.37066 241.4C9.37066 241.028 9.64666 240.752 10.0067 240.752ZM13.1228 241.232H17.7428V242H11.8508V241.388L15.3428 237.968C16.2908 237.032 16.4708 236.468 16.4708 235.892C16.4708 234.92 15.7868 234.32 14.5028 234.32C13.5188 234.32 12.7628 234.62 12.2108 235.256L11.5988 234.728C12.2468 233.96 13.2908 233.528 14.5748 233.528C16.2788 233.528 17.3588 234.392 17.3588 235.796C17.3588 236.6 17.1068 237.32 15.9788 238.424L13.1228 241.232ZM21.0351 237.044C23.5671 237.044 24.5271 238.04 24.5271 239.528C24.5271 240.956 23.5311 242.072 21.4791 242.072C20.2671 242.072 19.1151 241.652 18.4671 240.992L18.8871 240.308C19.4271 240.872 20.3871 241.28 21.4671 241.28C22.8951 241.28 23.6511 240.584 23.6511 239.564C23.6511 238.484 22.9791 237.812 20.8431 237.812H19.0551L19.4871 233.6H24.0831V234.368H20.2431L19.9551 237.044H21.0351Z" fill="#858C95"/>
<path d="M3.54231 88.072C1.59831 88.072 0.194313 86.476 0.194313 83.8C0.194313 81.124 1.59831 79.528 3.54231 79.528C5.48631 79.528 6.90231 81.124 6.90231 83.8C6.90231 86.476 5.48631 88.072 3.54231 88.072ZM3.54231 87.28C5.00631 87.28 6.01431 86.044 6.01431 83.8C6.01431 81.556 5.00631 80.32 3.54231 80.32C2.07831 80.32 1.07031 81.556 1.07031 83.8C1.07031 86.044 2.07831 87.28 3.54231 87.28ZM8.67072 86.752C9.04272 86.752 9.30672 87.04 9.30672 87.4C9.30672 87.604 9.25872 87.76 9.13872 88.096L8.63472 89.752H8.05872L8.46672 88.012C8.21472 87.94 8.03472 87.712 8.03472 87.4C8.03472 87.028 8.31072 86.752 8.67072 86.752ZM10.1731 79.6H16.3411V80.212L12.8251 88H11.8891L15.3451 80.368H11.0251V81.94H10.1731V79.6ZM19.4648 83.044C21.9968 83.044 22.9568 84.04 22.9568 85.528C22.9568 86.956 21.9608 88.072 19.9088 88.072C18.6968 88.072 17.5448 87.652 16.8968 86.992L17.3168 86.308C17.8568 86.872 18.8168 87.28 19.8968 87.28C21.3248 87.28 22.0808 86.584 22.0808 85.564C22.0808 84.484 21.4088 83.812 19.2728 83.812H17.4848L17.9168 79.6H22.5128V80.368H18.6728L18.3848 83.044H19.4648Z" fill="#858C95"/>
<path d="M11.5207 165.072C9.57665 165.072 8.17265 163.476 8.17265 160.8C8.17265 158.124 9.57665 156.528 11.5207 156.528C13.4647 156.528 14.8807 158.124 14.8807 160.8C14.8807 163.476 13.4647 165.072 11.5207 165.072ZM11.5207 164.28C12.9847 164.28 13.9927 163.044 13.9927 160.8C13.9927 158.556 12.9847 157.32 11.5207 157.32C10.0567 157.32 9.04865 158.556 9.04865 160.8C9.04865 163.044 10.0567 164.28 11.5207 164.28ZM16.6491 163.752C17.0211 163.752 17.2851 164.04 17.2851 164.4C17.2851 164.604 17.2371 164.76 17.1171 165.096L16.6131 166.752H16.0371L16.4451 165.012C16.1931 164.94 16.0131 164.712 16.0131 164.4C16.0131 164.028 16.2891 163.752 16.6491 163.752ZM20.74 160.044C23.272 160.044 24.232 161.04 24.232 162.528C24.232 163.956 23.236 165.072 21.184 165.072C19.972 165.072 18.82 164.652 18.172 163.992L18.592 163.308C19.132 163.872 20.092 164.28 21.172 164.28C22.6 164.28 23.356 163.584 23.356 162.564C23.356 161.484 22.684 160.812 20.548 160.812H18.76L19.192 156.6H23.788V157.368H19.948L19.66 160.044H20.74Z" fill="#858C95"/>
<path d="M8.56265 3.48281H11.4067V11.8828H10.5427V4.25081H8.56265V3.48281ZM14.0746 10.6348C14.4466 10.6348 14.7106 10.9228 14.7106 11.2828C14.7106 11.4868 14.6626 11.6428 14.5426 11.9788L14.0386 13.6348H13.4626L13.8706 11.8948C13.6186 11.8228 13.4386 11.5948 13.4386 11.2828C13.4386 10.9108 13.7146 10.6348 14.0746 10.6348ZM19.1767 11.9548C17.2327 11.9548 15.8287 10.3588 15.8287 7.68281C15.8287 5.00681 17.2327 3.41081 19.1767 3.41081C21.1207 3.41081 22.5367 5.00681 22.5367 7.68281C22.5367 10.3588 21.1207 11.9548 19.1767 11.9548ZM19.1767 11.1628C20.6407 11.1628 21.6487 9.92681 21.6487 7.68281C21.6487 5.43881 20.6407 4.20281 19.1767 4.20281C17.7127 4.20281 16.7047 5.43881 16.7047 7.68281C16.7047 9.92681 17.7127 11.1628 19.1767 11.1628Z" fill="#858C95"/>
<path d="M681 129.998C681 129.998 681 129.5 357 130.5C33 131.5 33 41.4983 33 41.4983" stroke="#2D6FD0" stroke-width="2"/>
<path d="M33 47C31.6741 47 30.4026 46.4734 29.4649 45.536C28.5273 44.5985 28.0003 43.3271 28 42.0013C27.9997 40.6754 28.526 39.4037 29.4631 38.4658C30.4003 37.5279 31.6716 37.0007 32.9975 37C34.3234 36.9993 35.5952 37.5253 36.5333 38.4623C37.4714 39.3992 37.999 40.6704 38 41.9963C38.001 43.3221 37.4753 44.5941 36.5386 45.5324C35.6019 46.4708 34.3309 46.9987 33.005 47H33Z" fill="#2D6FD0"/>
<path d="M357 135C355.674 135 354.403 134.473 353.465 133.536C352.527 132.599 352 131.327 352 130.001C352 128.675 352.526 127.404 353.463 126.466C354.4 125.528 355.672 125.001 356.998 125C358.323 124.999 359.595 125.525 360.533 126.462C361.471 127.399 361.999 128.67 362 129.996C362.001 131.322 361.475 132.594 360.539 133.532C359.602 134.471 358.331 134.999 357.005 135H357Z" fill="#2D6FD0"/>
<path d="M681 135C679.674 135 678.403 134.473 677.465 133.536C676.527 132.599 676 131.327 676 130.001C676 128.675 676.526 127.404 677.463 126.466C678.4 125.528 679.672 125.001 680.997 125C682.323 124.999 683.595 125.525 684.533 126.462C685.471 127.399 685.999 128.67 686 129.996C686.001 131.322 685.475 132.594 684.539 133.532C683.602 134.471 682.331 134.999 681.005 135L681 135Z" fill="#2D6FD0"/>
<path d="M652.322 118.2C651.349 118.173 650.489 117.94 649.742 117.5C648.995 117.06 648.369 116.487 647.862 115.78C647.369 115.06 646.995 114.287 646.742 113.46C646.489 112.62 646.362 111.8 646.362 111C646.362 110.147 646.495 109.293 646.762 108.44C647.042 107.587 647.442 106.813 647.962 106.12C648.482 105.413 649.109 104.853 649.842 104.44C650.575 104.013 651.402 103.8 652.322 103.8C653.309 103.8 654.169 104.027 654.902 104.48C655.649 104.933 656.269 105.52 656.762 106.24C657.269 106.96 657.649 107.74 657.902 108.58C658.155 109.42 658.282 110.227 658.282 111C658.282 111.867 658.142 112.727 657.862 113.58C657.595 114.42 657.202 115.187 656.682 115.88C656.162 116.573 655.535 117.133 654.802 117.56C654.069 117.973 653.242 118.187 652.322 118.2ZM648.182 111C648.209 111.653 648.309 112.307 648.482 112.96C648.655 113.613 648.915 114.213 649.262 114.76C649.609 115.307 650.035 115.747 650.542 116.08C651.049 116.413 651.642 116.58 652.322 116.58C653.029 116.58 653.642 116.407 654.162 116.06C654.682 115.7 655.109 115.24 655.442 114.68C655.789 114.107 656.042 113.5 656.202 112.86C656.375 112.207 656.462 111.587 656.462 111C656.462 110.347 656.369 109.693 656.182 109.04C656.009 108.387 655.742 107.787 655.382 107.24C655.022 106.693 654.589 106.253 654.082 105.92C653.575 105.587 652.989 105.42 652.322 105.42C651.615 105.42 651.002 105.6 650.482 105.96C649.962 106.307 649.529 106.767 649.182 107.34C648.849 107.9 648.595 108.507 648.422 109.16C648.262 109.8 648.182 110.413 648.182 111ZM660.71 119.62L661.11 117.84H660.51V115.76H662.17V117.84L661.57 119.62H660.71ZM674.689 113.3C674.689 114.207 674.463 115.033 674.009 115.78C673.569 116.513 672.963 117.1 672.189 117.54C671.429 117.98 670.569 118.2 669.609 118.2C668.596 118.2 667.703 117.96 666.929 117.48C666.156 116.987 665.549 116.28 665.109 115.36C664.683 114.44 664.469 113.347 664.469 112.08C664.469 110.213 664.689 108.66 665.129 107.42C665.569 106.18 666.189 105.253 666.989 104.64C667.789 104.013 668.723 103.7 669.789 103.7C670.709 103.7 671.543 103.927 672.289 104.38C673.049 104.82 673.643 105.433 674.069 106.22L672.989 107.28C672.696 106.653 672.263 106.16 671.689 105.8C671.116 105.427 670.476 105.24 669.769 105.24C669.049 105.24 668.416 105.46 667.869 105.9C667.323 106.34 666.896 106.973 666.589 107.8C666.296 108.627 666.143 109.627 666.129 110.8C666.329 110.333 666.609 109.933 666.969 109.6C667.329 109.253 667.749 108.987 668.229 108.8C668.723 108.613 669.243 108.52 669.789 108.52C670.709 108.52 671.536 108.733 672.269 109.16C673.016 109.587 673.603 110.16 674.029 110.88C674.469 111.6 674.689 112.407 674.689 113.3ZM669.629 116.68C670.243 116.68 670.803 116.527 671.309 116.22C671.829 115.913 672.243 115.507 672.549 115C672.856 114.48 673.009 113.913 673.009 113.3C673.009 112.687 672.856 112.127 672.549 111.62C672.243 111.113 671.829 110.707 671.309 110.4C670.803 110.093 670.243 109.94 669.629 109.94C669.016 109.94 668.449 110.093 667.929 110.4C667.423 110.707 667.016 111.113 666.709 111.62C666.403 112.127 666.249 112.687 666.249 113.3C666.249 113.913 666.403 114.48 666.709 115C667.016 115.507 667.423 115.913 667.929 116.22C668.449 116.527 669.016 116.68 669.629 116.68Z" fill="#2F2F2F"/>
<path d="M54.9098 49.2C53.9364 49.1733 53.0764 48.94 52.3298 48.5C51.5831 48.06 50.9564 47.4867 50.4498 46.78C49.9564 46.06 49.5831 45.2867 49.3298 44.46C49.0764 43.62 48.9498 42.8 48.9498 42C48.9498 41.1467 49.0831 40.2933 49.3498 39.44C49.6298 38.5867 50.0298 37.8133 50.5498 37.12C51.0698 36.4133 51.6964 35.8533 52.4298 35.44C53.1631 35.0133 53.9898 34.8 54.9098 34.8C55.8964 34.8 56.7564 35.0267 57.4898 35.48C58.2364 35.9333 58.8564 36.52 59.3498 37.24C59.8564 37.96 60.2364 38.74 60.4898 39.58C60.7431 40.42 60.8698 41.2267 60.8698 42C60.8698 42.8667 60.7298 43.7267 60.4498 44.58C60.1831 45.42 59.7898 46.1867 59.2698 46.88C58.7498 47.5733 58.1231 48.1333 57.3898 48.56C56.6564 48.9733 55.8298 49.1867 54.9098 49.2ZM50.7698 42C50.7964 42.6533 50.8964 43.3067 51.0698 43.96C51.2431 44.6133 51.5031 45.2133 51.8498 45.76C52.1964 46.3067 52.6231 46.7467 53.1298 47.08C53.6364 47.4133 54.2298 47.58 54.9098 47.58C55.6164 47.58 56.2298 47.4067 56.7498 47.06C57.2698 46.7 57.6964 46.24 58.0298 45.68C58.3764 45.1067 58.6298 44.5 58.7898 43.86C58.9631 43.2067 59.0498 42.5867 59.0498 42C59.0498 41.3467 58.9564 40.6933 58.7698 40.04C58.5964 39.3867 58.3298 38.7867 57.9698 38.24C57.6098 37.6933 57.1764 37.2533 56.6698 36.92C56.1631 36.5867 55.5764 36.42 54.9098 36.42C54.2031 36.42 53.5898 36.6 53.0698 36.96C52.5498 37.3067 52.1164 37.7667 51.7698 38.34C51.4364 38.9 51.1831 39.5067 51.0098 40.16C50.8498 40.8 50.7698 41.4133 50.7698 42ZM63.2984 50.62L63.6984 48.84H63.0984V46.76H64.7584V48.84L64.1584 50.62H63.2984ZM77.0171 44.98C77.0171 45.82 76.7838 46.5533 76.3171 47.18C75.8638 47.8067 75.2504 48.2933 74.4771 48.64C73.7171 48.9867 72.8838 49.16 71.9771 49.16C71.0304 49.16 70.1838 48.9733 69.4371 48.6C68.6904 48.2133 68.0971 47.7 67.6571 47.06C67.2304 46.42 67.0171 45.7 67.0171 44.9C67.0171 44.3133 67.1504 43.7867 67.4171 43.32C67.6838 42.8533 68.0171 42.46 68.4171 42.14C68.8304 41.8067 69.2504 41.56 69.6771 41.4C69.2904 41.2267 68.9304 41 68.5971 40.72C68.2638 40.44 67.9971 40.1133 67.7971 39.74C67.5971 39.3667 67.4971 38.96 67.4971 38.52C67.4971 37.92 67.6304 37.3933 67.8971 36.94C68.1638 36.4733 68.5171 36.08 68.9571 35.76C69.3971 35.44 69.8838 35.2 70.4171 35.04C70.9504 34.88 71.4838 34.8 72.0171 34.8C72.5504 34.8 73.0838 34.88 73.6171 35.04C74.1504 35.2 74.6371 35.44 75.0771 35.76C75.5304 36.0667 75.8904 36.4533 76.1571 36.92C76.4238 37.3733 76.5571 37.9 76.5571 38.5C76.5571 38.94 76.4571 39.3533 76.2571 39.74C76.0571 40.1133 75.7838 40.44 75.4371 40.72C75.1038 41 74.7371 41.2267 74.3371 41.4C74.8171 41.5867 75.2571 41.8533 75.6571 42.2C76.0704 42.5333 76.3971 42.9333 76.6371 43.4C76.8904 43.8667 77.0171 44.3933 77.0171 44.98ZM75.2371 44.86C75.2371 44.4333 75.1438 44.0533 74.9571 43.72C74.7704 43.3733 74.5171 43.0867 74.1971 42.86C73.8771 42.62 73.5238 42.44 73.1371 42.32C72.7638 42.2 72.3838 42.14 71.9971 42.14C71.4638 42.14 70.9504 42.2533 70.4571 42.48C69.9771 42.7067 69.5838 43.0267 69.2771 43.44C68.9704 43.84 68.8171 44.32 68.8171 44.88C68.8171 45.2933 68.9104 45.6667 69.0971 46C69.2838 46.3333 69.5304 46.62 69.8371 46.86C70.1571 47.1 70.5038 47.28 70.8771 47.4C71.2638 47.52 71.6504 47.58 72.0371 47.58C72.5704 47.58 73.0771 47.4667 73.5571 47.24C74.0504 47.0133 74.4504 46.6933 74.7571 46.28C75.0771 45.8667 75.2371 45.3933 75.2371 44.86ZM69.2771 38.58C69.2771 39.0467 69.4171 39.4467 69.6971 39.78C69.9771 40.1133 70.3304 40.3667 70.7571 40.54C71.1838 40.7 71.6038 40.78 72.0171 40.78C72.4438 40.78 72.8638 40.6933 73.2771 40.52C73.7038 40.3467 74.0571 40.0933 74.3371 39.76C74.6171 39.4267 74.7571 39.02 74.7571 38.54C74.7571 38.0867 74.6238 37.7 74.3571 37.38C74.1038 37.06 73.7638 36.8133 73.3371 36.64C72.9238 36.4667 72.4771 36.38 71.9971 36.38C71.5304 36.38 71.0838 36.4733 70.6571 36.66C70.2438 36.8333 69.9104 37.0867 69.6571 37.42C69.4038 37.74 69.2771 38.1267 69.2771 38.58Z" fill="#2F2F2F"/>
</svg>
