<svg width="304" height="153" viewBox="0 0 304 153" fill="none" xmlns="http://www.w3.org/2000/svg">
<path d="M171.576 49.1205C170.992 49.1045 170.476 48.9645 170.028 48.7005C169.58 48.4365 169.204 48.0925 168.9 47.6685C168.604 47.2365 168.38 46.7725 168.228 46.2765C168.076 45.7725 168 45.2805 168 44.8005C168 44.2885 168.08 43.7765 168.24 43.2645C168.408 42.7525 168.648 42.2885 168.96 41.8725C169.272 41.4485 169.648 41.1125 170.088 40.8645C170.528 40.6085 171.024 40.4805 171.576 40.4805C172.168 40.4805 172.684 40.6165 173.124 40.8885C173.572 41.1605 173.944 41.5125 174.24 41.9445C174.544 42.3765 174.772 42.8445 174.924 43.3485C175.076 43.8525 175.152 44.3365 175.152 44.8005C175.152 45.3205 175.068 45.8365 174.9 46.3485C174.74 46.8525 174.504 47.3125 174.192 47.7285C173.88 48.1445 173.504 48.4805 173.064 48.7365C172.624 48.9845 172.128 49.1125 171.576 49.1205ZM169.092 44.8005C169.108 45.1925 169.168 45.5845 169.272 45.9765C169.376 46.3685 169.532 46.7285 169.74 47.0565C169.948 47.3845 170.204 47.6485 170.508 47.8485C170.812 48.0485 171.168 48.1485 171.576 48.1485C172 48.1485 172.368 48.0445 172.68 47.8365C172.992 47.6205 173.248 47.3445 173.448 47.0085C173.656 46.6645 173.808 46.3005 173.904 45.9165C174.008 45.5245 174.06 45.1525 174.06 44.8005C174.06 44.4085 174.004 44.0165 173.892 43.6245C173.788 43.2325 173.628 42.8725 173.412 42.5445C173.196 42.2165 172.936 41.9525 172.632 41.7525C172.328 41.5525 171.976 41.4525 171.576 41.4525C171.152 41.4525 170.784 41.5605 170.472 41.7765C170.16 41.9845 169.9 42.2605 169.692 42.6045C169.492 42.9405 169.34 43.3045 169.236 43.6965C169.14 44.0805 169.092 44.4485 169.092 44.8005ZM176.609 49.9725L176.849 48.9045H176.489V47.6565H177.485V48.9045L177.125 49.9725H176.609ZM184.996 46.1805C184.996 46.7245 184.86 47.2205 184.588 47.6685C184.324 48.1085 183.96 48.4605 183.496 48.7245C183.04 48.9885 182.524 49.1205 181.948 49.1205C181.34 49.1205 180.804 48.9765 180.34 48.6885C179.876 48.3925 179.512 47.9685 179.248 47.4165C178.992 46.8645 178.864 46.2085 178.864 45.4485C178.864 44.3285 178.996 43.3965 179.26 42.6525C179.524 41.9085 179.896 41.3525 180.376 40.9845C180.856 40.6085 181.416 40.4205 182.056 40.4205C182.608 40.4205 183.108 40.5565 183.556 40.8285C184.012 41.0925 184.368 41.4605 184.624 41.9325L183.976 42.5685C183.8 42.1925 183.54 41.8965 183.196 41.6805C182.852 41.4565 182.468 41.3445 182.044 41.3445C181.612 41.3445 181.232 41.4765 180.904 41.7405C180.576 42.0045 180.32 42.3845 180.136 42.8805C179.96 43.3765 179.868 43.9765 179.86 44.6805C179.98 44.4005 180.148 44.1605 180.364 43.9605C180.58 43.7525 180.832 43.5925 181.12 43.4805C181.416 43.3685 181.728 43.3125 182.056 43.3125C182.608 43.3125 183.104 43.4405 183.544 43.6965C183.992 43.9525 184.344 44.2965 184.6 44.7285C184.864 45.1605 184.996 45.6445 184.996 46.1805ZM181.96 48.2085C182.328 48.2085 182.664 48.1165 182.968 47.9325C183.28 47.7485 183.528 47.5045 183.712 47.2005C183.896 46.8885 183.988 46.5485 183.988 46.1805C183.988 45.8125 183.896 45.4765 183.712 45.1725C183.528 44.8685 183.28 44.6245 182.968 44.4405C182.664 44.2565 182.328 44.1645 181.96 44.1645C181.592 44.1645 181.252 44.2565 180.94 44.4405C180.636 44.6245 180.392 44.8685 180.208 45.1725C180.024 45.4765 179.932 45.8125 179.932 46.1805C179.932 46.5485 180.024 46.8885 180.208 47.2005C180.392 47.5045 180.636 47.7485 180.94 47.9325C181.252 48.1165 181.592 48.2085 181.96 48.2085Z" fill="#2F2F2F"/>
<path d="M21.1387 1.20361L21.1387 136.477" stroke="#F5F6F7" stroke-width="0.439522"/>
<path d="M67.5996 1.58154L67.5996 136.582" stroke="#F5F6F7" stroke-width="0.439522"/>
<path d="M114.6 1.58154L114.6 136.582" stroke="#F5F6F7" stroke-width="0.439522"/>
<path d="M207.6 0.581543L207.6 136.582" stroke="#F5F6F7" stroke-width="0.439522"/>
<path d="M161.6 0.581543L161.6 136.582" stroke="#F5F6F7" stroke-width="0.439522"/>
<path d="M254.6 0.581543L254.6 136.582" stroke="#F5F6F7" stroke-width="0.439522"/>
<path d="M301.6 0.581543L301.6 136.582" stroke="#F5F6F7" stroke-width="0.439522"/>
<path d="M21.6152 136.758H251.326" stroke="#F5F6F7" stroke-width="0.439522"/>
<path d="M21.5996 103H301.6" stroke="#F5F6F7" stroke-width="0.439522"/>
<path d="M21.5996 69.0005L301.6 69.0005" stroke="#F5F6F7" stroke-width="0.439522"/>
<path d="M21.5996 35.0005L301.6 35.0005" stroke="#F5F6F7" stroke-width="0.439522"/>
<path d="M21.1387 0.921387L251.333 0.921363" stroke="#F5F6F7" stroke-width="0.439522"/>
<path d="M21.5996 137L301.6 137" stroke="#F5F6F7" stroke-width="0.439522"/>
<path d="M21.1387 0.640137L21.1387 137.041" stroke="#F5F6F7" stroke-width="0.439522"/>
<path d="M23.439 150.373C22.143 150.373 21.207 149.309 21.207 147.525C21.207 145.741 22.143 144.677 23.439 144.677C24.735 144.677 25.679 145.741 25.679 147.525C25.679 149.309 24.735 150.373 23.439 150.373ZM23.439 149.845C24.415 149.845 25.087 149.021 25.087 147.525C25.087 146.029 24.415 145.205 23.439 145.205C22.463 145.205 21.791 146.029 21.791 147.525C21.791 149.021 22.463 149.845 23.439 149.845ZM26.1443 144.725H28.0403V150.325H27.4643V145.237H26.1443V144.725ZM29.8109 150.365C29.5789 150.365 29.3869 150.173 29.3869 149.925C29.3869 149.677 29.5789 149.493 29.8109 149.493C30.0429 149.493 30.2429 149.677 30.2429 149.925C30.2429 150.173 30.0429 150.365 29.8109 150.365ZM33.2203 150.373C31.9243 150.373 30.9883 149.309 30.9883 147.525C30.9883 145.741 31.9243 144.677 33.2203 144.677C34.5163 144.677 35.4603 145.741 35.4603 147.525C35.4603 149.309 34.5163 150.373 33.2203 150.373ZM33.2203 149.845C34.1963 149.845 34.8683 149.021 34.8683 147.525C34.8683 146.029 34.1963 145.205 33.2203 145.205C32.2443 145.205 31.5723 146.029 31.5723 147.525C31.5723 149.021 32.2443 149.845 33.2203 149.845ZM35.9255 144.725H37.8215V150.325H37.2455V145.237H35.9255V144.725ZM39.5921 150.365C39.3601 150.365 39.1681 150.173 39.1681 149.925C39.1681 149.677 39.3601 149.493 39.5921 149.493C39.8241 149.493 40.0241 149.677 40.0241 149.925C40.0241 150.173 39.8241 150.365 39.5921 150.365ZM41.6776 149.813H44.7576V150.325H40.8296V149.917L43.1576 147.637C43.7896 147.013 43.9096 146.637 43.9096 146.253C43.9096 145.605 43.4536 145.205 42.5976 145.205C41.9416 145.205 41.4376 145.405 41.0696 145.829L40.6616 145.477C41.0936 144.965 41.7896 144.677 42.6456 144.677C43.7816 144.677 44.5016 145.253 44.5016 146.189C44.5016 146.725 44.3336 147.205 43.5816 147.941L41.6776 149.813ZM47.6812 150.373C46.3852 150.373 45.4492 149.309 45.4492 147.525C45.4492 145.741 46.3852 144.677 47.6812 144.677C48.9772 144.677 49.9212 145.741 49.9212 147.525C49.9212 149.309 48.9772 150.373 47.6812 150.373ZM47.6812 149.845C48.6572 149.845 49.3292 149.021 49.3292 147.525C49.3292 146.029 48.6572 145.205 47.6812 145.205C46.7052 145.205 46.0332 146.029 46.0332 147.525C46.0332 149.021 46.7052 149.845 47.6812 149.845ZM51.4745 149.813H54.5545V150.325H50.6265V149.917L52.9545 147.637C53.5865 147.013 53.7065 146.637 53.7065 146.253C53.7065 145.605 53.2505 145.205 52.3945 145.205C51.7385 145.205 51.2345 145.405 50.8665 145.829L50.4585 145.477C50.8905 144.965 51.5865 144.677 52.4425 144.677C53.5785 144.677 54.2985 145.253 54.2985 146.189C54.2985 146.725 54.1305 147.205 53.3785 147.941L51.4745 149.813ZM56.0213 149.813H59.1013V150.325H55.1733V149.917L57.5013 147.637C58.1333 147.013 58.2533 146.637 58.2533 146.253C58.2533 145.605 57.7973 145.205 56.9413 145.205C56.2853 145.205 55.7813 145.405 55.4133 145.829L55.0053 145.477C55.4373 144.965 56.1333 144.677 56.9893 144.677C58.1253 144.677 58.8453 145.253 58.8453 146.189C58.8453 146.725 58.6773 147.205 57.9253 147.941L56.0213 149.813Z" fill="#858C95"/>
<path d="M144.248 150.63C142.952 150.63 142.016 149.566 142.016 147.782C142.016 145.998 142.952 144.934 144.248 144.934C145.544 144.934 146.488 145.998 146.488 147.782C146.488 149.566 145.544 150.63 144.248 150.63ZM144.248 150.102C145.224 150.102 145.896 149.278 145.896 147.782C145.896 146.286 145.224 145.462 144.248 145.462C143.272 145.462 142.6 146.286 142.6 147.782C142.6 149.278 143.272 150.102 144.248 150.102ZM146.953 144.982H148.849V150.582H148.273V145.494H146.953V144.982ZM150.619 150.622C150.387 150.622 150.195 150.43 150.195 150.182C150.195 149.934 150.387 149.75 150.619 149.75C150.851 149.75 151.051 149.934 151.051 150.182C151.051 150.43 150.851 150.622 150.619 150.622ZM154.029 150.63C152.733 150.63 151.797 149.566 151.797 147.782C151.797 145.998 152.733 144.934 154.029 144.934C155.325 144.934 156.269 145.998 156.269 147.782C156.269 149.566 155.325 150.63 154.029 150.63ZM154.029 150.102C155.005 150.102 155.677 149.278 155.677 147.782C155.677 146.286 155.005 145.462 154.029 145.462C153.053 145.462 152.381 146.286 152.381 147.782C152.381 149.278 153.053 150.102 154.029 150.102ZM156.734 144.982H158.63V150.582H158.054V145.494H156.734V144.982ZM160.401 150.622C160.169 150.622 159.977 150.43 159.977 150.182C159.977 149.934 160.169 149.75 160.401 149.75C160.633 149.75 160.833 149.934 160.833 150.182C160.833 150.43 160.633 150.622 160.401 150.622ZM162.486 150.07H165.566V150.582H161.638V150.174L163.966 147.894C164.598 147.27 164.718 146.894 164.718 146.51C164.718 145.862 164.262 145.462 163.406 145.462C162.75 145.462 162.246 145.662 161.878 146.086L161.47 145.734C161.902 145.222 162.598 144.934 163.454 144.934C164.59 144.934 165.31 145.51 165.31 146.446C165.31 146.982 165.142 147.462 164.39 148.198L162.486 150.07ZM168.49 150.63C167.194 150.63 166.258 149.566 166.258 147.782C166.258 145.998 167.194 144.934 168.49 144.934C169.786 144.934 170.73 145.998 170.73 147.782C170.73 149.566 169.786 150.63 168.49 150.63ZM168.49 150.102C169.466 150.102 170.138 149.278 170.138 147.782C170.138 146.286 169.466 145.462 168.49 145.462C167.514 145.462 166.842 146.286 166.842 147.782C166.842 149.278 167.514 150.102 168.49 150.102ZM172.283 150.07H175.363V150.582H171.435V150.174L173.763 147.894C174.395 147.27 174.515 146.894 174.515 146.51C174.515 145.862 174.059 145.462 173.203 145.462C172.547 145.462 172.043 145.662 171.675 146.086L171.267 145.734C171.699 145.222 172.395 144.934 173.251 144.934C174.387 144.934 175.107 145.51 175.107 146.446C175.107 146.982 174.939 147.462 174.187 148.198L172.283 150.07ZM177.99 147.382C179.19 147.446 179.79 148.078 179.79 148.974C179.79 149.91 179.11 150.63 177.758 150.63C176.95 150.63 176.174 150.35 175.742 149.91L176.022 149.454C176.382 149.83 177.03 150.102 177.758 150.102C178.686 150.102 179.198 149.67 179.198 148.974C179.198 148.302 178.726 147.862 177.686 147.862H177.286V147.438L178.838 145.494H175.974V144.982H179.574V145.39L177.99 147.382Z" fill="#858C95"/>
<path d="M263.587 150.63C262.291 150.63 261.355 149.566 261.355 147.782C261.355 145.998 262.291 144.934 263.587 144.934C264.883 144.934 265.827 145.998 265.827 147.782C265.827 149.566 264.883 150.63 263.587 150.63ZM263.587 150.102C264.563 150.102 265.235 149.278 265.235 147.782C265.235 146.286 264.563 145.462 263.587 145.462C262.611 145.462 261.939 146.286 261.939 147.782C261.939 149.278 262.611 150.102 263.587 150.102ZM266.293 144.982H268.189V150.582H267.613V145.494H266.293V144.982ZM269.959 150.622C269.727 150.622 269.535 150.43 269.535 150.182C269.535 149.934 269.727 149.75 269.959 149.75C270.191 149.75 270.391 149.934 270.391 150.182C270.391 150.43 270.191 150.622 269.959 150.622ZM273.369 150.63C272.073 150.63 271.137 149.566 271.137 147.782C271.137 145.998 272.073 144.934 273.369 144.934C274.665 144.934 275.609 145.998 275.609 147.782C275.609 149.566 274.665 150.63 273.369 150.63ZM273.369 150.102C274.345 150.102 275.017 149.278 275.017 147.782C275.017 146.286 274.345 145.462 273.369 145.462C272.393 145.462 271.721 146.286 271.721 147.782C271.721 149.278 272.393 150.102 273.369 150.102ZM277.162 150.07H280.242V150.582H276.314V150.174L278.642 147.894C279.274 147.27 279.394 146.894 279.394 146.51C279.394 145.862 278.938 145.462 278.082 145.462C277.426 145.462 276.922 145.662 276.554 146.086L276.146 145.734C276.578 145.222 277.274 144.934 278.13 144.934C279.266 144.934 279.986 145.51 279.986 146.446C279.986 146.982 279.818 147.462 279.066 148.198L277.162 150.07ZM281.475 150.622C281.243 150.622 281.051 150.43 281.051 150.182C281.051 149.934 281.243 149.75 281.475 149.75C281.707 149.75 281.907 149.934 281.907 150.182C281.907 150.43 281.707 150.622 281.475 150.622ZM283.56 150.07H286.64V150.582H282.712V150.174L285.04 147.894C285.672 147.27 285.792 146.894 285.792 146.51C285.792 145.862 285.336 145.462 284.48 145.462C283.824 145.462 283.32 145.662 282.952 146.086L282.544 145.734C282.976 145.222 283.672 144.934 284.528 144.934C285.664 144.934 286.384 145.51 286.384 146.446C286.384 146.982 286.216 147.462 285.464 148.198L283.56 150.07ZM289.564 150.63C288.268 150.63 287.332 149.566 287.332 147.782C287.332 145.998 288.268 144.934 289.564 144.934C290.86 144.934 291.804 145.998 291.804 147.782C291.804 149.566 290.86 150.63 289.564 150.63ZM289.564 150.102C290.54 150.102 291.212 149.278 291.212 147.782C291.212 146.286 290.54 145.462 289.564 145.462C288.588 145.462 287.916 146.286 287.916 147.782C287.916 149.278 288.588 150.102 289.564 150.102ZM293.357 150.07H296.437V150.582H292.509V150.174L294.837 147.894C295.469 147.27 295.589 146.894 295.589 146.51C295.589 145.862 295.133 145.462 294.277 145.462C293.621 145.462 293.117 145.662 292.749 146.086L292.341 145.734C292.773 145.222 293.469 144.934 294.325 144.934C295.461 144.934 296.181 145.51 296.181 146.446C296.181 146.982 296.013 147.462 295.261 148.198L293.357 150.07ZM299.064 147.382C300.264 147.446 300.864 148.078 300.864 148.974C300.864 149.91 300.184 150.63 298.832 150.63C298.024 150.63 297.248 150.35 296.816 149.91L297.096 149.454C297.456 149.83 298.104 150.102 298.832 150.102C299.76 150.102 300.272 149.67 300.272 148.974C300.272 148.302 299.8 147.862 298.76 147.862H298.36V147.438L299.912 145.494H297.048V144.982H300.648V145.39L299.064 147.382Z" fill="#858C95"/>
<path d="M13.3335 138.048C12.0375 138.048 11.1015 136.984 11.1015 135.2C11.1015 133.416 12.0375 132.352 13.3335 132.352C14.6295 132.352 15.5735 133.416 15.5735 135.2C15.5735 136.984 14.6295 138.048 13.3335 138.048ZM13.3335 137.52C14.3095 137.52 14.9815 136.696 14.9815 135.2C14.9815 133.704 14.3095 132.88 13.3335 132.88C12.3575 132.88 11.6855 133.704 11.6855 135.2C11.6855 136.696 12.3575 137.52 13.3335 137.52Z" fill="#858C95"/>
<path d="M8.19292 72.0485C6.89692 72.0485 5.96092 70.9845 5.96092 69.2005C5.96092 67.4165 6.89692 66.3525 8.19292 66.3525C9.48892 66.3525 10.4329 67.4165 10.4329 69.2005C10.4329 70.9845 9.48892 72.0485 8.19292 72.0485ZM8.19292 71.5205C9.16892 71.5205 9.84092 70.6965 9.84092 69.2005C9.84092 67.7045 9.16892 66.8805 8.19292 66.8805C7.21692 66.8805 6.54492 67.7045 6.54492 69.2005C6.54492 70.6965 7.21692 71.5205 8.19292 71.5205ZM11.6119 71.1685C11.8599 71.1685 12.0359 71.3605 12.0359 71.6005C12.0359 71.7365 12.0039 71.8405 11.9239 72.0645L11.5879 73.1685H11.2039L11.4759 72.0085C11.3079 71.9605 11.1879 71.8085 11.1879 71.6005C11.1879 71.3525 11.3719 71.1685 11.6119 71.1685ZM14.3392 68.6965C16.0272 68.6965 16.6672 69.3605 16.6672 70.3525C16.6672 71.3045 16.0032 72.0485 14.6352 72.0485C13.8272 72.0485 13.0592 71.7685 12.6272 71.3285L12.9072 70.8725C13.2672 71.2485 13.9072 71.5205 14.6272 71.5205C15.5792 71.5205 16.0832 71.0565 16.0832 70.3765C16.0832 69.6565 15.6352 69.2085 14.2112 69.2085H13.0192L13.3072 66.4005H16.3712V66.9125H13.8112L13.6192 68.6965H14.3392Z" fill="#858C95"/>
<path d="M2.72417 37.0485C1.42817 37.0485 0.492172 35.9845 0.492172 34.2005C0.492172 32.4165 1.42817 31.3525 2.72417 31.3525C4.02017 31.3525 4.96417 32.4165 4.96417 34.2005C4.96417 35.9845 4.02017 37.0485 2.72417 37.0485ZM2.72417 36.5205C3.70017 36.5205 4.37217 35.6965 4.37217 34.2005C4.37217 32.7045 3.70017 31.8805 2.72417 31.8805C1.74817 31.8805 1.07617 32.7045 1.07617 34.2005C1.07617 35.6965 1.74817 36.5205 2.72417 36.5205ZM6.14311 36.1685C6.39111 36.1685 6.56711 36.3605 6.56711 36.6005C6.56711 36.7365 6.53511 36.8405 6.45511 37.0645L6.11911 38.1685H5.73511L6.00711 37.0085C5.83911 36.9605 5.71911 36.8085 5.71911 36.6005C5.71911 36.3525 5.90311 36.1685 6.14311 36.1685ZM7.14467 31.4005H11.2567V31.8085L8.91267 37.0005H8.28867L10.5927 31.9125H7.71267V32.9605H7.14467V31.4005ZM13.3392 33.6965C15.0272 33.6965 15.6672 34.3605 15.6672 35.3525C15.6672 36.3045 15.0032 37.0485 13.6352 37.0485C12.8272 37.0485 12.0592 36.7685 11.6272 36.3285L11.9072 35.8725C12.2672 36.2485 12.9072 36.5205 13.6272 36.5205C14.5792 36.5205 15.0832 36.0565 15.0832 35.3765C15.0832 34.6565 14.6352 34.2085 13.2112 34.2085H12.0192L12.3072 31.4005H15.3712V31.9125H12.8112L12.6192 33.6965H13.3392Z" fill="#858C95"/>
<path d="M12.9639 0.221777H14.8599V5.82178H14.2839V0.733777H12.9639V0.221777Z" fill="#858C95"/>
<path d="M301.482 55.0005C301.482 55.0005 295.482 55.5005 161.982 55.5005C28.4824 55.5005 20.9824 26.0005 20.9824 26.0005" stroke="#2D6FD0" stroke-width="0.879044"/>
<path d="M21.18 28.3957C20.5973 28.3957 20.0384 28.1642 19.6263 27.7522C19.2142 27.3402 18.9826 26.7814 18.9824 26.1987C18.9823 25.6159 19.2136 25.057 19.6255 24.6447C20.0374 24.2325 20.5962 24.0008 21.1789 24.0005C21.7617 24.0002 22.3207 24.2314 22.733 24.6432C23.1453 25.055 23.3772 25.6137 23.3776 26.1965C23.3781 26.7792 23.147 27.3383 22.7353 27.7507C22.3236 28.1631 21.765 28.3951 21.1822 28.3957H21.18Z" fill="#2D6FD0"/>
<path d="M162.18 57.3957C161.597 57.3957 161.038 57.1642 160.626 56.7522C160.214 56.3402 159.983 55.7814 159.982 55.1987C159.982 54.6159 160.214 54.057 160.626 53.6447C161.037 53.2325 161.596 53.0008 162.179 53.0005C162.762 53.0002 163.321 53.2314 163.733 53.6432C164.145 54.055 164.377 54.6137 164.378 55.1964C164.378 55.7792 164.147 56.3383 163.735 56.7507C163.324 57.1631 162.765 57.3951 162.182 57.3957H162.18Z" fill="#2D6FD0"/>
<path d="M301.18 57.3957C300.597 57.3957 300.038 57.1642 299.626 56.7522C299.214 56.3402 298.983 55.7814 298.982 55.1986C298.982 54.6159 299.214 54.057 299.625 53.6447C300.037 53.2325 300.596 53.0008 301.179 53.0005C301.762 53.0002 302.321 53.2314 302.733 53.6432C303.145 54.055 303.377 54.6137 303.378 55.1964C303.378 55.7792 303.147 56.3383 302.735 56.7507C302.324 57.1631 301.765 57.3951 301.182 57.3957L301.18 57.3957Z" fill="#2D6FD0"/>
<path d="M3.56792 105.048C2.27192 105.048 1.33592 103.984 1.33592 102.2C1.33592 100.416 2.27192 99.3525 3.56792 99.3525C4.86392 99.3525 5.80792 100.416 5.80792 102.2C5.80792 103.984 4.86392 105.048 3.56792 105.048ZM3.56792 104.52C4.54392 104.52 5.21592 103.696 5.21592 102.2C5.21592 100.704 4.54392 99.8805 3.56792 99.8805C2.59192 99.8805 1.91992 100.704 1.91992 102.2C1.91992 103.696 2.59192 104.52 3.56792 104.52ZM6.98686 104.168C7.23486 104.168 7.41086 104.36 7.41086 104.6C7.41086 104.736 7.37886 104.84 7.29886 105.064L6.96286 106.168H6.57886L6.85086 105.008C6.68286 104.96 6.56286 104.808 6.56286 104.6C6.56286 104.352 6.74686 104.168 6.98686 104.168ZM9.0643 104.488H12.1443V105H8.2163V104.592L10.5443 102.312C11.1763 101.688 11.2963 101.312 11.2963 100.928C11.2963 100.28 10.8403 99.8805 9.9843 99.8805C9.3283 99.8805 8.8243 100.08 8.4563 100.504L8.0483 100.152C8.4803 99.6405 9.1763 99.3525 10.0323 99.3525C11.1683 99.3525 11.8883 99.9285 11.8883 100.864C11.8883 101.4 11.7203 101.88 10.9683 102.616L9.0643 104.488ZM14.3392 101.696C16.0272 101.696 16.6672 102.36 16.6672 103.352C16.6672 104.304 16.0032 105.048 14.6352 105.048C13.8272 105.048 13.0592 104.768 12.6272 104.328L12.9072 103.872C13.2672 104.248 13.9072 104.52 14.6272 104.52C15.5792 104.52 16.0832 104.056 16.0832 103.376C16.0832 102.656 15.6352 102.208 14.2112 102.208H13.0192L13.3072 99.4005H16.3712V99.9125H13.8112L13.6192 101.696H14.3392Z" fill="#858C95"/>
<path d="M284.576 48.1205C283.992 48.1045 283.476 47.9645 283.028 47.7005C282.58 47.4365 282.204 47.0925 281.9 46.6685C281.604 46.2365 281.38 45.7725 281.228 45.2765C281.076 44.7725 281 44.2805 281 43.8005C281 43.2885 281.08 42.7765 281.24 42.2645C281.408 41.7525 281.648 41.2885 281.96 40.8725C282.272 40.4485 282.648 40.1125 283.088 39.8645C283.528 39.6085 284.024 39.4805 284.576 39.4805C285.168 39.4805 285.684 39.6165 286.124 39.8885C286.572 40.1605 286.944 40.5125 287.24 40.9445C287.544 41.3765 287.772 41.8445 287.924 42.3485C288.076 42.8525 288.152 43.3365 288.152 43.8005C288.152 44.3205 288.068 44.8365 287.9 45.3485C287.74 45.8525 287.504 46.3125 287.192 46.7285C286.88 47.1445 286.504 47.4805 286.064 47.7365C285.624 47.9845 285.128 48.1125 284.576 48.1205ZM282.092 43.8005C282.108 44.1925 282.168 44.5845 282.272 44.9765C282.376 45.3685 282.532 45.7285 282.74 46.0565C282.948 46.3845 283.204 46.6485 283.508 46.8485C283.812 47.0485 284.168 47.1485 284.576 47.1485C285 47.1485 285.368 47.0445 285.68 46.8365C285.992 46.6205 286.248 46.3445 286.448 46.0085C286.656 45.6645 286.808 45.3005 286.904 44.9165C287.008 44.5245 287.06 44.1525 287.06 43.8005C287.06 43.4085 287.004 43.0165 286.892 42.6245C286.788 42.2325 286.628 41.8725 286.412 41.5445C286.196 41.2165 285.936 40.9525 285.632 40.7525C285.328 40.5525 284.976 40.4525 284.576 40.4525C284.152 40.4525 283.784 40.5605 283.472 40.7765C283.16 40.9845 282.9 41.2605 282.692 41.6045C282.492 41.9405 282.34 42.3045 282.236 42.6965C282.14 43.0805 282.092 43.4485 282.092 43.8005ZM289.609 48.9725L289.849 47.9045H289.489V46.6565H290.485V47.9045L290.125 48.9725H289.609ZM297.996 45.1805C297.996 45.7245 297.86 46.2205 297.588 46.6685C297.324 47.1085 296.96 47.4605 296.496 47.7245C296.04 47.9885 295.524 48.1205 294.948 48.1205C294.34 48.1205 293.804 47.9765 293.34 47.6885C292.876 47.3925 292.512 46.9685 292.248 46.4165C291.992 45.8645 291.864 45.2085 291.864 44.4485C291.864 43.3285 291.996 42.3965 292.26 41.6525C292.524 40.9085 292.896 40.3525 293.376 39.9845C293.856 39.6085 294.416 39.4205 295.056 39.4205C295.608 39.4205 296.108 39.5565 296.556 39.8285C297.012 40.0925 297.368 40.4605 297.624 40.9325L296.976 41.5685C296.8 41.1925 296.54 40.8965 296.196 40.6805C295.852 40.4565 295.468 40.3445 295.044 40.3445C294.612 40.3445 294.232 40.4765 293.904 40.7405C293.576 41.0045 293.32 41.3845 293.136 41.8805C292.96 42.3765 292.868 42.9765 292.86 43.6805C292.98 43.4005 293.148 43.1605 293.364 42.9605C293.58 42.7525 293.832 42.5925 294.12 42.4805C294.416 42.3685 294.728 42.3125 295.056 42.3125C295.608 42.3125 296.104 42.4405 296.544 42.6965C296.992 42.9525 297.344 43.2965 297.6 43.7285C297.864 44.1605 297.996 44.6445 297.996 45.1805ZM294.96 47.2085C295.328 47.2085 295.664 47.1165 295.968 46.9325C296.28 46.7485 296.528 46.5045 296.712 46.2005C296.896 45.8885 296.988 45.5485 296.988 45.1805C296.988 44.8125 296.896 44.4765 296.712 44.1725C296.528 43.8685 296.28 43.6245 295.968 43.4405C295.664 43.2565 295.328 43.1645 294.96 43.1645C294.592 43.1645 294.252 43.2565 293.94 43.4405C293.636 43.6245 293.392 43.8685 293.208 44.1725C293.024 44.4765 292.932 44.8125 292.932 45.1805C292.932 45.5485 293.024 45.8885 293.208 46.2005C293.392 46.5045 293.636 46.7485 293.94 46.9325C294.252 47.1165 294.592 47.2085 294.96 47.2085Z" fill="#2F2F2F"/>
<path d="M35.1283 26.1205C34.5443 26.1045 34.0283 25.9645 33.5803 25.7005C33.1323 25.4365 32.7563 25.0925 32.4523 24.6685C32.1563 24.2365 31.9323 23.7725 31.7803 23.2765C31.6283 22.7725 31.5523 22.2805 31.5523 21.8005C31.5523 21.2885 31.6323 20.7765 31.7923 20.2645C31.9603 19.7525 32.2003 19.2885 32.5123 18.8725C32.8243 18.4485 33.2003 18.1125 33.6403 17.8645C34.0803 17.6085 34.5763 17.4805 35.1283 17.4805C35.7203 17.4805 36.2363 17.6165 36.6763 17.8885C37.1243 18.1605 37.4963 18.5125 37.7923 18.9445C38.0963 19.3765 38.3243 19.8445 38.4763 20.3485C38.6283 20.8525 38.7043 21.3365 38.7043 21.8005C38.7043 22.3205 38.6203 22.8365 38.4523 23.3485C38.2923 23.8525 38.0563 24.3125 37.7443 24.7285C37.4323 25.1445 37.0563 25.4805 36.6163 25.7365C36.1763 25.9845 35.6803 26.1125 35.1283 26.1205ZM32.6443 21.8005C32.6603 22.1925 32.7203 22.5845 32.8243 22.9765C32.9283 23.3685 33.0843 23.7285 33.2923 24.0565C33.5003 24.3845 33.7563 24.6485 34.0603 24.8485C34.3643 25.0485 34.7203 25.1485 35.1283 25.1485C35.5523 25.1485 35.9203 25.0445 36.2323 24.8365C36.5443 24.6205 36.8003 24.3445 37.0003 24.0085C37.2083 23.6645 37.3603 23.3005 37.4563 22.9165C37.5603 22.5245 37.6123 22.1525 37.6123 21.8005C37.6123 21.4085 37.5563 21.0165 37.4443 20.6245C37.3403 20.2325 37.1803 19.8725 36.9643 19.5445C36.7483 19.2165 36.4883 18.9525 36.1843 18.7525C35.8803 18.5525 35.5283 18.4525 35.1283 18.4525C34.7043 18.4525 34.3363 18.5605 34.0243 18.7765C33.7123 18.9845 33.4523 19.2605 33.2443 19.6045C33.0443 19.9405 32.8923 20.3045 32.7883 20.6965C32.6923 21.0805 32.6443 21.4485 32.6443 21.8005ZM40.1614 26.9725L40.4014 25.9045H40.0414V24.6565H41.0374V25.9045L40.6774 26.9725H40.1614ZM48.3927 23.5885C48.3927 24.0925 48.2527 24.5325 47.9727 24.9085C47.7007 25.2845 47.3327 25.5765 46.8687 25.7845C46.4127 25.9925 45.9127 26.0965 45.3687 26.0965C44.8007 26.0965 44.2927 25.9845 43.8447 25.7605C43.3967 25.5285 43.0407 25.2205 42.7767 24.8365C42.5207 24.4525 42.3927 24.0205 42.3927 23.5405C42.3927 23.1885 42.4727 22.8725 42.6327 22.5925C42.7927 22.3125 42.9927 22.0765 43.2327 21.8845C43.4807 21.6845 43.7327 21.5365 43.9887 21.4405C43.7567 21.3365 43.5407 21.2005 43.3407 21.0325C43.1407 20.8645 42.9807 20.6685 42.8607 20.4445C42.7407 20.2205 42.6807 19.9765 42.6807 19.7125C42.6807 19.3525 42.7607 19.0365 42.9207 18.7645C43.0807 18.4845 43.2927 18.2485 43.5567 18.0565C43.8207 17.8645 44.1127 17.7205 44.4327 17.6245C44.7527 17.5285 45.0727 17.4805 45.3927 17.4805C45.7127 17.4805 46.0327 17.5285 46.3527 17.6245C46.6727 17.7205 46.9647 17.8645 47.2287 18.0565C47.5007 18.2405 47.7167 18.4725 47.8767 18.7525C48.0367 19.0245 48.1167 19.3405 48.1167 19.7005C48.1167 19.9645 48.0567 20.2125 47.9367 20.4445C47.8167 20.6685 47.6527 20.8645 47.4447 21.0325C47.2447 21.2005 47.0247 21.3365 46.7847 21.4405C47.0727 21.5525 47.3367 21.7125 47.5767 21.9205C47.8247 22.1205 48.0207 22.3605 48.1647 22.6405C48.3167 22.9205 48.3927 23.2365 48.3927 23.5885ZM47.3247 23.5165C47.3247 23.2605 47.2687 23.0325 47.1567 22.8325C47.0447 22.6245 46.8927 22.4525 46.7007 22.3165C46.5087 22.1725 46.2967 22.0645 46.0647 21.9925C45.8407 21.9205 45.6127 21.8845 45.3807 21.8845C45.0607 21.8845 44.7527 21.9525 44.4567 22.0885C44.1687 22.2245 43.9327 22.4165 43.7487 22.6645C43.5647 22.9045 43.4727 23.1925 43.4727 23.5285C43.4727 23.7765 43.5287 24.0005 43.6407 24.2005C43.7527 24.4005 43.9007 24.5725 44.0847 24.7165C44.2767 24.8605 44.4847 24.9685 44.7087 25.0405C44.9407 25.1125 45.1727 25.1485 45.4047 25.1485C45.7247 25.1485 46.0287 25.0805 46.3167 24.9445C46.6127 24.8085 46.8527 24.6165 47.0367 24.3685C47.2287 24.1205 47.3247 23.8365 47.3247 23.5165ZM43.7487 19.7485C43.7487 20.0285 43.8327 20.2685 44.0007 20.4685C44.1687 20.6685 44.3807 20.8205 44.6367 20.9245C44.8927 21.0205 45.1447 21.0685 45.3927 21.0685C45.6487 21.0685 45.9007 21.0165 46.1487 20.9125C46.4047 20.8085 46.6167 20.6565 46.7847 20.4565C46.9527 20.2565 47.0367 20.0125 47.0367 19.7245C47.0367 19.4525 46.9567 19.2205 46.7967 19.0285C46.6447 18.8365 46.4407 18.6885 46.1847 18.5845C45.9367 18.4805 45.6687 18.4285 45.3807 18.4285C45.1007 18.4285 44.8327 18.4845 44.5767 18.5965C44.3287 18.7005 44.1287 18.8525 43.9767 19.0525C43.8247 19.2445 43.7487 19.4765 43.7487 19.7485Z" fill="#2F2F2F"/>
</svg>
