<svg width="298" height="153" viewBox="0 0 298 153" fill="none" xmlns="http://www.w3.org/2000/svg">
<path d="M164.891 60.4518H160.523V59.4798H166.571L162.275 67.9998H161.087L164.891 60.4518ZM174.612 67.0398V67.9998H170.376V67.0398H172.008V60.4998C171.944 60.5958 171.84 60.7038 171.696 60.8238C171.552 60.9358 171.384 61.0478 171.192 61.1598C171.008 61.2638 170.82 61.3518 170.628 61.4238C170.436 61.4958 170.26 61.5318 170.1 61.5318V60.5478C170.316 60.5478 170.532 60.4918 170.748 60.3798C170.972 60.2678 171.176 60.1358 171.36 59.9838C171.552 59.8318 171.704 59.6958 171.816 59.5758C171.936 59.4558 172 59.3918 172.008 59.3838H173.088V67.0398H174.612ZM178.253 68.1078C177.765 68.1078 177.321 68.0318 176.921 67.8798C176.529 67.7198 176.201 67.4998 175.937 67.2198C175.681 66.9318 175.513 66.5998 175.433 66.2238L176.033 65.5878C176.057 65.8198 176.161 66.0558 176.345 66.2958C176.529 66.5358 176.781 66.7358 177.101 66.8958C177.429 67.0478 177.809 67.1238 178.241 67.1238C178.609 67.1238 178.941 67.0638 179.237 66.9438C179.533 66.8158 179.769 66.6398 179.945 66.4158C180.121 66.1918 180.209 65.9318 180.209 65.6358C180.209 65.3078 180.101 65.0278 179.885 64.7958C179.669 64.5638 179.361 64.3878 178.961 64.2678C178.569 64.1478 178.101 64.0878 177.557 64.0878H177.149V63.1878H177.557C178.293 63.1878 178.881 63.0718 179.321 62.8398C179.761 62.5998 179.981 62.2438 179.981 61.7718C179.981 61.4678 179.897 61.2078 179.729 60.9918C179.569 60.7678 179.353 60.5998 179.081 60.4878C178.817 60.3678 178.533 60.3078 178.229 60.3078C177.717 60.3078 177.281 60.4238 176.921 60.6558C176.569 60.8798 176.321 61.1438 176.177 61.4478L175.469 60.7158C175.629 60.4358 175.853 60.1958 176.141 59.9958C176.429 59.7958 176.753 59.6438 177.113 59.5398C177.473 59.4278 177.841 59.3718 178.217 59.3718C178.769 59.3718 179.261 59.4758 179.693 59.6838C180.133 59.8918 180.477 60.1718 180.725 60.5238C180.973 60.8758 181.097 61.2758 181.097 61.7238C181.097 62.0438 181.033 62.3318 180.905 62.5878C180.777 62.8358 180.589 63.0438 180.341 63.2118C180.093 63.3798 179.793 63.5078 179.441 63.5958C179.817 63.6598 180.145 63.7958 180.425 64.0038C180.705 64.2118 180.921 64.4678 181.073 64.7718C181.225 65.0758 181.301 65.4078 181.301 65.7678C181.301 66.2638 181.157 66.6878 180.869 67.0398C180.581 67.3838 180.205 67.6478 179.741 67.8318C179.285 68.0158 178.789 68.1078 178.253 68.1078ZM186.232 67.9998V65.8278H182.224V64.8798L186.556 59.4798H187.288V64.8678H188.344V65.8278H187.288V67.9998H186.232ZM183.328 64.8678H186.34V61.0998L183.328 64.8678Z" fill="#2F2F2F"/>
<path d="M14.5137 1.6228L14.5137 136.896" stroke="#F5F6F7" stroke-width="0.439522"/>
<path d="M60.9824 2.00073L60.9824 137.001" stroke="#F5F6F7" stroke-width="0.439522"/>
<path d="M107.982 2.00073L107.982 137.001" stroke="#F5F6F7" stroke-width="0.439522"/>
<path d="M200.982 1.00073L200.982 137.001" stroke="#F5F6F7" stroke-width="0.439522"/>
<path d="M154.982 1.00073L154.982 137.001" stroke="#F5F6F7" stroke-width="0.439522"/>
<path d="M247.982 1.00073L247.982 137.001" stroke="#F5F6F7" stroke-width="0.439522"/>
<path d="M294.982 1.00073L294.982 137.001" stroke="#F5F6F7" stroke-width="0.439522"/>
<path d="M14.998 137.178H244.708" stroke="#F5F6F7" stroke-width="0.439522"/>
<path d="M14.9824 115.001H294.982" stroke="#F5F6F7" stroke-width="0.439522"/>
<path d="M14.9824 92.0007L294.982 92.0007" stroke="#F5F6F7" stroke-width="0.439522"/>
<path d="M14.9824 69.0007L294.982 69.0007" stroke="#F5F6F7" stroke-width="0.439522"/>
<path d="M14.9824 47.0007L294.982 47.0007" stroke="#F5F6F7" stroke-width="0.439522"/>
<path d="M14.9824 24.0007L294.982 24.0007" stroke="#F5F6F7" stroke-width="0.439522"/>
<path d="M14.5137 1.34058L244.708 1.34055" stroke="#F5F6F7" stroke-width="0.439522"/>
<path d="M14.9824 137.001L294.982 137.001" stroke="#F5F6F7" stroke-width="0.439522"/>
<path d="M14.5137 1.05933L14.5137 137.46" stroke="#F5F6F7" stroke-width="0.439522"/>
<path d="M16.8218 150.792C15.5258 150.792 14.5898 149.728 14.5898 147.944C14.5898 146.16 15.5258 145.096 16.8218 145.096C18.1178 145.096 19.0618 146.16 19.0618 147.944C19.0618 149.728 18.1178 150.792 16.8218 150.792ZM16.8218 150.264C17.7978 150.264 18.4698 149.44 18.4698 147.944C18.4698 146.448 17.7978 145.624 16.8218 145.624C15.8458 145.624 15.1738 146.448 15.1738 147.944C15.1738 149.44 15.8458 150.264 16.8218 150.264ZM19.5271 145.144H21.4231V150.744H20.8471V145.656H19.5271V145.144ZM23.1937 150.784C22.9617 150.784 22.7697 150.592 22.7697 150.344C22.7697 150.096 22.9617 149.912 23.1937 149.912C23.4257 149.912 23.6257 150.096 23.6257 150.344C23.6257 150.592 23.4257 150.784 23.1937 150.784ZM26.6031 150.792C25.3071 150.792 24.3711 149.728 24.3711 147.944C24.3711 146.16 25.3071 145.096 26.6031 145.096C27.8991 145.096 28.8431 146.16 28.8431 147.944C28.8431 149.728 27.8991 150.792 26.6031 150.792ZM26.6031 150.264C27.5791 150.264 28.2511 149.44 28.2511 147.944C28.2511 146.448 27.5791 145.624 26.6031 145.624C25.6271 145.624 24.9551 146.448 24.9551 147.944C24.9551 149.44 25.6271 150.264 26.6031 150.264ZM29.3083 145.144H31.2043V150.744H30.6283V145.656H29.3083V145.144ZM32.975 150.784C32.743 150.784 32.551 150.592 32.551 150.344C32.551 150.096 32.743 149.912 32.975 149.912C33.207 149.912 33.407 150.096 33.407 150.344C33.407 150.592 33.207 150.784 32.975 150.784ZM35.0604 150.232H38.1404V150.744H34.2124V150.336L36.5404 148.056C37.1724 147.432 37.2924 147.056 37.2924 146.672C37.2924 146.024 36.8364 145.624 35.9804 145.624C35.3244 145.624 34.8204 145.824 34.4524 146.248L34.0444 145.896C34.4764 145.384 35.1724 145.096 36.0284 145.096C37.1644 145.096 37.8844 145.672 37.8844 146.608C37.8844 147.144 37.7164 147.624 36.9644 148.36L35.0604 150.232ZM41.064 150.792C39.768 150.792 38.832 149.728 38.832 147.944C38.832 146.16 39.768 145.096 41.064 145.096C42.36 145.096 43.304 146.16 43.304 147.944C43.304 149.728 42.36 150.792 41.064 150.792ZM41.064 150.264C42.04 150.264 42.712 149.44 42.712 147.944C42.712 146.448 42.04 145.624 41.064 145.624C40.088 145.624 39.416 146.448 39.416 147.944C39.416 149.44 40.088 150.264 41.064 150.264ZM44.8573 150.232H47.9373V150.744H44.0093V150.336L46.3373 148.056C46.9693 147.432 47.0893 147.056 47.0893 146.672C47.0893 146.024 46.6333 145.624 45.7773 145.624C45.1213 145.624 44.6173 145.824 44.2493 146.248L43.8413 145.896C44.2733 145.384 44.9693 145.096 45.8253 145.096C46.9613 145.096 47.6813 145.672 47.6813 146.608C47.6813 147.144 47.5133 147.624 46.7613 148.36L44.8573 150.232ZM49.4041 150.232H52.4841V150.744H48.5561V150.336L50.8841 148.056C51.5161 147.432 51.6361 147.056 51.6361 146.672C51.6361 146.024 51.1801 145.624 50.3241 145.624C49.6681 145.624 49.1641 145.824 48.7961 146.248L48.3881 145.896C48.8201 145.384 49.5161 145.096 50.3721 145.096C51.5081 145.096 52.2281 145.672 52.2281 146.608C52.2281 147.144 52.0601 147.624 51.3081 148.36L49.4041 150.232Z" fill="#858C95"/>
<path d="M137.63 151.049C136.334 151.049 135.398 149.985 135.398 148.201C135.398 146.417 136.334 145.353 137.63 145.353C138.926 145.353 139.87 146.417 139.87 148.201C139.87 149.985 138.926 151.049 137.63 151.049ZM137.63 150.521C138.606 150.521 139.278 149.697 139.278 148.201C139.278 146.705 138.606 145.881 137.63 145.881C136.654 145.881 135.982 146.705 135.982 148.201C135.982 149.697 136.654 150.521 137.63 150.521ZM140.336 145.401H142.232V151.001H141.656V145.913H140.336V145.401ZM144.002 151.041C143.77 151.041 143.578 150.849 143.578 150.601C143.578 150.353 143.77 150.169 144.002 150.169C144.234 150.169 144.434 150.353 144.434 150.601C144.434 150.849 144.234 151.041 144.002 151.041ZM147.412 151.049C146.116 151.049 145.18 149.985 145.18 148.201C145.18 146.417 146.116 145.353 147.412 145.353C148.708 145.353 149.652 146.417 149.652 148.201C149.652 149.985 148.708 151.049 147.412 151.049ZM147.412 150.521C148.388 150.521 149.06 149.697 149.06 148.201C149.06 146.705 148.388 145.881 147.412 145.881C146.436 145.881 145.764 146.705 145.764 148.201C145.764 149.697 146.436 150.521 147.412 150.521ZM150.117 145.401H152.013V151.001H151.437V145.913H150.117V145.401ZM153.784 151.041C153.552 151.041 153.36 150.849 153.36 150.601C153.36 150.353 153.552 150.169 153.784 150.169C154.016 150.169 154.216 150.353 154.216 150.601C154.216 150.849 154.016 151.041 153.784 151.041ZM155.869 150.489H158.949V151.001H155.021V150.593L157.349 148.313C157.981 147.689 158.101 147.313 158.101 146.929C158.101 146.281 157.645 145.881 156.789 145.881C156.133 145.881 155.629 146.081 155.261 146.505L154.853 146.153C155.285 145.641 155.981 145.353 156.837 145.353C157.973 145.353 158.693 145.929 158.693 146.865C158.693 147.401 158.525 147.881 157.773 148.617L155.869 150.489ZM161.873 151.049C160.577 151.049 159.641 149.985 159.641 148.201C159.641 146.417 160.577 145.353 161.873 145.353C163.169 145.353 164.113 146.417 164.113 148.201C164.113 149.985 163.169 151.049 161.873 151.049ZM161.873 150.521C162.849 150.521 163.521 149.697 163.521 148.201C163.521 146.705 162.849 145.881 161.873 145.881C160.897 145.881 160.225 146.705 160.225 148.201C160.225 149.697 160.897 150.521 161.873 150.521ZM165.666 150.489H168.746V151.001H164.818V150.593L167.146 148.313C167.778 147.689 167.898 147.313 167.898 146.929C167.898 146.281 167.442 145.881 166.586 145.881C165.93 145.881 165.426 146.081 165.058 146.505L164.65 146.153C165.082 145.641 165.778 145.353 166.634 145.353C167.77 145.353 168.49 145.929 168.49 146.865C168.49 147.401 168.322 147.881 167.57 148.617L165.666 150.489ZM171.373 147.801C172.573 147.865 173.173 148.497 173.173 149.393C173.173 150.329 172.493 151.049 171.141 151.049C170.333 151.049 169.557 150.769 169.125 150.329L169.405 149.873C169.765 150.249 170.413 150.521 171.141 150.521C172.069 150.521 172.581 150.089 172.581 149.393C172.581 148.721 172.109 148.281 171.069 148.281H170.669V147.857L172.221 145.913H169.357V145.401H172.957V145.809L171.373 147.801Z" fill="#858C95"/>
<path d="M256.97 151.049C255.674 151.049 254.738 149.985 254.738 148.201C254.738 146.417 255.674 145.353 256.97 145.353C258.266 145.353 259.21 146.417 259.21 148.201C259.21 149.985 258.266 151.049 256.97 151.049ZM256.97 150.521C257.946 150.521 258.618 149.697 258.618 148.201C258.618 146.705 257.946 145.881 256.97 145.881C255.994 145.881 255.322 146.705 255.322 148.201C255.322 149.697 255.994 150.521 256.97 150.521ZM259.676 145.401H261.572V151.001H260.996V145.913H259.676V145.401ZM263.342 151.041C263.11 151.041 262.918 150.849 262.918 150.601C262.918 150.353 263.11 150.169 263.342 150.169C263.574 150.169 263.774 150.353 263.774 150.601C263.774 150.849 263.574 151.041 263.342 151.041ZM266.752 151.049C265.456 151.049 264.52 149.985 264.52 148.201C264.52 146.417 265.456 145.353 266.752 145.353C268.048 145.353 268.992 146.417 268.992 148.201C268.992 149.985 268.048 151.049 266.752 151.049ZM266.752 150.521C267.728 150.521 268.4 149.697 268.4 148.201C268.4 146.705 267.728 145.881 266.752 145.881C265.776 145.881 265.104 146.705 265.104 148.201C265.104 149.697 265.776 150.521 266.752 150.521ZM270.545 150.489H273.625V151.001H269.697V150.593L272.025 148.313C272.657 147.689 272.777 147.313 272.777 146.929C272.777 146.281 272.321 145.881 271.465 145.881C270.809 145.881 270.305 146.081 269.937 146.505L269.529 146.153C269.961 145.641 270.657 145.353 271.513 145.353C272.649 145.353 273.369 145.929 273.369 146.865C273.369 147.401 273.201 147.881 272.449 148.617L270.545 150.489ZM274.858 151.041C274.626 151.041 274.434 150.849 274.434 150.601C274.434 150.353 274.626 150.169 274.858 150.169C275.09 150.169 275.29 150.353 275.29 150.601C275.29 150.849 275.09 151.041 274.858 151.041ZM276.943 150.489H280.023V151.001H276.095V150.593L278.423 148.313C279.055 147.689 279.175 147.313 279.175 146.929C279.175 146.281 278.719 145.881 277.863 145.881C277.207 145.881 276.703 146.081 276.335 146.505L275.927 146.153C276.359 145.641 277.055 145.353 277.911 145.353C279.047 145.353 279.767 145.929 279.767 146.865C279.767 147.401 279.599 147.881 278.847 148.617L276.943 150.489ZM282.947 151.049C281.651 151.049 280.715 149.985 280.715 148.201C280.715 146.417 281.651 145.353 282.947 145.353C284.243 145.353 285.187 146.417 285.187 148.201C285.187 149.985 284.243 151.049 282.947 151.049ZM282.947 150.521C283.923 150.521 284.595 149.697 284.595 148.201C284.595 146.705 283.923 145.881 282.947 145.881C281.971 145.881 281.299 146.705 281.299 148.201C281.299 149.697 281.971 150.521 282.947 150.521ZM286.74 150.489H289.82V151.001H285.892V150.593L288.22 148.313C288.852 147.689 288.972 147.313 288.972 146.929C288.972 146.281 288.516 145.881 287.66 145.881C287.004 145.881 286.5 146.081 286.132 146.505L285.724 146.153C286.156 145.641 286.852 145.353 287.708 145.353C288.844 145.353 289.564 145.929 289.564 146.865C289.564 147.401 289.396 147.881 288.644 148.617L286.74 150.489ZM292.447 147.801C293.647 147.865 294.247 148.497 294.247 149.393C294.247 150.329 293.567 151.049 292.215 151.049C291.407 151.049 290.631 150.769 290.199 150.329L290.479 149.873C290.839 150.249 291.487 150.521 292.215 150.521C293.143 150.521 293.655 150.089 293.655 149.393C293.655 148.721 293.183 148.281 292.143 148.281H291.743V147.857L293.295 145.913H290.431V145.401H294.031V145.809L292.447 147.801Z" fill="#858C95"/>
<path d="M8.07678 135.44C9.76478 135.44 10.4048 136.104 10.4048 137.096C10.4048 138.048 9.74078 138.792 8.37278 138.792C7.56478 138.792 6.79678 138.512 6.36478 138.072L6.64478 137.616C7.00478 137.992 7.64478 138.264 8.36478 138.264C9.31678 138.264 9.82078 137.8 9.82078 137.12C9.82078 136.4 9.37278 135.952 7.94878 135.952H6.75678L7.04478 133.144H10.1088V133.656H7.54878L7.35678 135.44H8.07678Z" fill="#858C95"/>
<path d="M5.2651 89.1439H9.3771V89.5519L7.0331 94.7439H6.4091L8.7131 89.6559H5.8331V90.7039H5.2651V89.1439Z" fill="#858C95"/>
<path d="M7.48863 44.0959C8.97663 44.0959 9.78463 45.1279 9.78463 46.8959C9.78463 48.7999 8.74463 49.7919 7.22463 49.7919C6.72063 49.7919 6.24863 49.7039 5.89663 49.4879L6.12863 49.0239C6.41663 49.2159 6.80063 49.2879 7.21663 49.2879C8.42463 49.2879 9.20063 48.5119 9.20063 46.9919C9.20063 46.8639 9.19263 46.7039 9.17663 46.5359C8.89663 47.1519 8.24063 47.4959 7.46463 47.4959C6.35263 47.4959 5.57663 46.8399 5.57663 45.8159C5.57663 44.7679 6.40063 44.0959 7.48863 44.0959ZM7.55263 47.0079C8.40863 47.0079 8.99263 46.4799 8.99263 45.7839C8.99263 45.1679 8.48063 44.5839 7.51263 44.5839C6.70463 44.5839 6.14463 45.0559 6.14463 45.7999C6.14463 46.5359 6.68863 47.0079 7.55263 47.0079Z" fill="#858C95"/>
<path d="M4.4561 0.640966H6.3521V6.24097H5.7761V1.15297H4.4561V0.640966ZM7.34672 0.640966H9.24272V6.24097H8.66672V1.15297H7.34672V0.640966Z" fill="#858C95"/>
<path d="M294.982 86.0007C294.982 86.0007 205.746 82.8389 155.482 76.0007C105.219 69.1626 13.9824 41.0007 13.9824 41.0007" stroke="#2D6FD0" stroke-width="0.879044"/>
<path d="M15.0394 43.1235C14.4567 43.1235 13.8978 42.892 13.4857 42.48C13.0735 42.068 12.8419 41.5092 12.8418 40.9264C12.8417 40.3437 13.073 39.7847 13.4849 39.3725C13.8968 38.9603 14.4556 38.7286 15.0383 38.7283C15.6211 38.728 16.1801 38.9592 16.5924 39.371C17.0047 39.7828 17.2366 40.3415 17.237 40.9242C17.2375 41.507 17.0064 42.066 16.5947 42.4785C16.183 42.8909 15.6243 43.1229 15.0416 43.1235H15.0394Z" fill="#2D6FD0"/>
<path d="M155.18 78.3959C154.597 78.3959 154.038 78.1645 153.626 77.7525C153.214 77.3405 152.983 76.7816 152.982 76.1989C152.982 75.6161 153.214 75.0572 153.626 74.645C154.037 74.2328 154.596 74.001 155.179 74.0007C155.762 74.0004 156.321 74.2316 156.733 74.6434C157.145 75.0552 157.377 75.6139 157.378 76.1967C157.378 76.7794 157.147 77.3385 156.735 77.7509C156.324 78.1634 155.765 78.3954 155.182 78.3959H155.18Z" fill="#2D6FD0"/>
<path d="M295.18 88.3959C294.597 88.3959 294.038 88.1645 293.626 87.7525C293.214 87.3405 292.983 86.7816 292.982 86.1989C292.982 85.6161 293.214 85.0572 293.625 84.645C294.037 84.2328 294.596 84.001 295.179 84.0007C295.762 84.0004 296.321 84.2316 296.733 84.6434C297.145 85.0552 297.377 85.6139 297.378 86.1967C297.378 86.7794 297.147 87.3385 296.735 87.7509C296.324 88.1633 295.765 88.3954 295.182 88.3959L295.18 88.3959Z" fill="#2D6FD0"/>
<path d="M264.82 71.4518H260.452V70.4798H266.5L262.204 78.9998H261.016L264.82 71.4518ZM273.654 79.1198C273.07 79.1038 272.554 78.9638 272.106 78.6998C271.658 78.4358 271.282 78.0918 270.978 77.6678C270.682 77.2358 270.458 76.7718 270.306 76.2758C270.154 75.7718 270.078 75.2798 270.078 74.7998C270.078 74.2878 270.158 73.7758 270.318 73.2638C270.486 72.7518 270.726 72.2878 271.038 71.8718C271.35 71.4478 271.726 71.1118 272.166 70.8638C272.606 70.6078 273.102 70.4798 273.654 70.4798C274.246 70.4798 274.762 70.6158 275.202 70.8878C275.65 71.1598 276.022 71.5118 276.318 71.9438C276.622 72.3758 276.85 72.8438 277.002 73.3478C277.154 73.8518 277.23 74.3358 277.23 74.7998C277.23 75.3198 277.146 75.8358 276.978 76.3478C276.818 76.8518 276.582 77.3118 276.27 77.7278C275.958 78.1438 275.582 78.4798 275.142 78.7358C274.702 78.9838 274.206 79.1118 273.654 79.1198ZM271.17 74.7998C271.186 75.1918 271.246 75.5838 271.35 75.9758C271.454 76.3678 271.61 76.7278 271.818 77.0558C272.026 77.3838 272.282 77.6478 272.586 77.8478C272.89 78.0478 273.246 78.1478 273.654 78.1478C274.078 78.1478 274.446 78.0438 274.758 77.8358C275.07 77.6198 275.326 77.3438 275.526 77.0078C275.734 76.6638 275.886 76.2998 275.982 75.9158C276.086 75.5238 276.138 75.1518 276.138 74.7998C276.138 74.4078 276.082 74.0158 275.97 73.6238C275.866 73.2318 275.706 72.8718 275.49 72.5438C275.274 72.2158 275.014 71.9518 274.71 71.7518C274.406 71.5518 274.054 71.4518 273.654 71.4518C273.23 71.4518 272.862 71.5598 272.55 71.7758C272.238 71.9838 271.978 72.2598 271.77 72.6038C271.57 72.9398 271.418 73.3038 271.314 73.6958C271.218 74.0798 271.17 74.4478 271.17 74.7998ZM278.351 78.9998C278.351 78.5198 278.391 78.0958 278.471 77.7278C278.559 77.3518 278.683 77.0158 278.843 76.7198C279.011 76.4238 279.211 76.1638 279.443 75.9398C279.675 75.7158 279.939 75.5158 280.235 75.3398C280.547 75.1558 280.867 74.9878 281.195 74.8358C281.523 74.6838 281.827 74.5238 282.107 74.3558C282.387 74.1878 282.611 73.9878 282.779 73.7558C282.955 73.5158 283.043 73.2198 283.043 72.8678C283.043 72.5878 282.983 72.3358 282.863 72.1118C282.743 71.8798 282.563 71.6958 282.323 71.5598C282.083 71.4238 281.775 71.3558 281.399 71.3558C281.023 71.3558 280.683 71.4198 280.379 71.5478C280.083 71.6758 279.827 71.8278 279.611 72.0038C279.395 72.1798 279.223 72.3478 279.095 72.5078L278.411 71.8238C278.475 71.7438 278.587 71.6238 278.747 71.4638C278.915 71.3038 279.127 71.1398 279.383 70.9718C279.647 70.8038 279.955 70.6638 280.307 70.5518C280.659 70.4318 281.059 70.3718 281.507 70.3718C282.107 70.3718 282.607 70.4838 283.007 70.7078C283.407 70.9318 283.707 71.2318 283.907 71.6078C284.115 71.9838 284.219 72.3998 284.219 72.8558C284.219 73.2638 284.143 73.6158 283.991 73.9118C283.839 74.1998 283.643 74.4438 283.403 74.6438C283.163 74.8438 282.899 75.0198 282.611 75.1718C282.331 75.3238 282.059 75.4678 281.795 75.6038C281.291 75.8438 280.891 76.0638 280.595 76.2638C280.299 76.4638 280.071 76.6598 279.911 76.8518C279.759 77.0358 279.655 77.2238 279.599 77.4158C279.551 77.6078 279.523 77.8158 279.515 78.0398H284.231V78.9998H278.351ZM288.249 79.1078C287.761 79.1078 287.317 79.0318 286.917 78.8798C286.525 78.7198 286.197 78.4998 285.933 78.2198C285.677 77.9318 285.509 77.5998 285.429 77.2238L286.029 76.5878C286.053 76.8198 286.157 77.0558 286.341 77.2958C286.525 77.5358 286.777 77.7358 287.097 77.8958C287.425 78.0478 287.805 78.1238 288.237 78.1238C288.605 78.1238 288.937 78.0638 289.233 77.9438C289.529 77.8158 289.765 77.6398 289.941 77.4158C290.117 77.1918 290.205 76.9318 290.205 76.6358C290.205 76.3078 290.097 76.0278 289.881 75.7958C289.665 75.5638 289.357 75.3878 288.957 75.2678C288.565 75.1478 288.097 75.0878 287.553 75.0878H287.145V74.1878H287.553C288.289 74.1878 288.877 74.0718 289.317 73.8398C289.757 73.5998 289.977 73.2438 289.977 72.7718C289.977 72.4678 289.893 72.2078 289.725 71.9918C289.565 71.7678 289.349 71.5998 289.077 71.4878C288.813 71.3678 288.529 71.3078 288.225 71.3078C287.713 71.3078 287.277 71.4238 286.917 71.6558C286.565 71.8798 286.317 72.1438 286.173 72.4478L285.465 71.7158C285.625 71.4358 285.849 71.1958 286.137 70.9958C286.425 70.7958 286.749 70.6438 287.109 70.5398C287.469 70.4278 287.837 70.3718 288.213 70.3718C288.765 70.3718 289.257 70.4758 289.689 70.6838C290.129 70.8918 290.473 71.1718 290.721 71.5238C290.969 71.8758 291.093 72.2758 291.093 72.7238C291.093 73.0438 291.029 73.3318 290.901 73.5878C290.773 73.8358 290.585 74.0438 290.337 74.2118C290.089 74.3798 289.789 74.5078 289.437 74.5958C289.813 74.6598 290.141 74.7958 290.421 75.0038C290.701 75.2118 290.917 75.4678 291.069 75.7718C291.221 76.0758 291.297 76.4078 291.297 76.7678C291.297 77.2638 291.153 77.6878 290.865 78.0398C290.577 78.3838 290.201 78.6478 289.737 78.8318C289.281 79.0158 288.785 79.1078 288.249 79.1078Z" fill="#2F2F2F"/>
<path d="M20.7956 29.3598C20.7956 28.8078 20.9276 28.3118 21.1916 27.8718C21.4636 27.4238 21.8316 27.0718 22.2956 26.8158C22.7596 26.5518 23.2756 26.4198 23.8436 26.4198C24.4596 26.4198 24.9956 26.5678 25.4516 26.8638C25.9156 27.1518 26.2756 27.5678 26.5316 28.1118C26.7956 28.6558 26.9276 29.3118 26.9276 30.0798C26.9276 31.1998 26.7956 32.1358 26.5316 32.8878C26.2676 33.6318 25.8956 34.1918 25.4156 34.5678C24.9356 34.9358 24.3756 35.1198 23.7356 35.1198C23.1836 35.1198 22.6796 34.9878 22.2236 34.7238C21.7756 34.4518 21.4236 34.0758 21.1676 33.5958L21.8156 32.9598C21.9916 33.3278 22.2516 33.6238 22.5956 33.8478C22.9476 34.0718 23.3316 34.1838 23.7476 34.1838C24.1876 34.1838 24.5676 34.0558 24.8876 33.7998C25.2156 33.5358 25.4716 33.1558 25.6556 32.6598C25.8396 32.1638 25.9316 31.5638 25.9316 30.8598C25.8196 31.1318 25.6516 31.3718 25.4276 31.5798C25.2116 31.7878 24.9596 31.9478 24.6716 32.0598C24.3836 32.1718 24.0716 32.2278 23.7356 32.2278C23.1916 32.2278 22.6956 32.0998 22.2476 31.8438C21.7996 31.5878 21.4436 31.2438 21.1796 30.8118C20.9236 30.3718 20.7956 29.8878 20.7956 29.3598ZM23.8316 27.3198C23.4636 27.3198 23.1276 27.4118 22.8236 27.5958C22.5196 27.7798 22.2756 28.0278 22.0916 28.3398C21.9076 28.6438 21.8156 28.9798 21.8156 29.3478C21.8156 29.7158 21.9076 30.0518 22.0916 30.3558C22.2756 30.6598 22.5196 30.9038 22.8236 31.0878C23.1356 31.2718 23.4756 31.3638 23.8436 31.3638C24.2116 31.3638 24.5476 31.2718 24.8516 31.0878C25.1636 30.9038 25.4116 30.6598 25.5956 30.3558C25.7796 30.0518 25.8716 29.7198 25.8716 29.3598C25.8716 28.9918 25.7756 28.6558 25.5836 28.3518C25.3996 28.0398 25.1516 27.7918 24.8396 27.6078C24.5356 27.4158 24.1996 27.3198 23.8316 27.3198ZM31.1321 34.9998C31.1321 34.5198 31.1721 34.0958 31.2521 33.7278C31.3401 33.3518 31.4641 33.0158 31.6241 32.7198C31.7921 32.4238 31.9921 32.1638 32.2241 31.9398C32.4561 31.7158 32.7201 31.5158 33.0161 31.3398C33.3281 31.1558 33.6481 30.9878 33.9761 30.8358C34.3041 30.6838 34.6081 30.5238 34.8881 30.3558C35.1681 30.1878 35.3921 29.9878 35.5601 29.7558C35.7361 29.5158 35.8241 29.2198 35.8241 28.8678C35.8241 28.5878 35.7641 28.3358 35.6441 28.1118C35.5241 27.8798 35.3441 27.6958 35.1041 27.5598C34.8641 27.4238 34.5561 27.3558 34.1801 27.3558C33.8041 27.3558 33.4641 27.4198 33.1601 27.5478C32.8641 27.6758 32.6081 27.8278 32.3921 28.0038C32.1761 28.1798 32.0041 28.3478 31.8761 28.5078L31.1921 27.8238C31.2561 27.7438 31.3681 27.6238 31.5281 27.4638C31.6961 27.3038 31.9081 27.1398 32.1641 26.9718C32.4281 26.8038 32.7361 26.6638 33.0881 26.5518C33.4401 26.4318 33.8401 26.3718 34.2881 26.3718C34.8881 26.3718 35.3881 26.4838 35.7881 26.7078C36.1881 26.9318 36.4881 27.2318 36.6881 27.6078C36.8961 27.9838 37.0001 28.3998 37.0001 28.8558C37.0001 29.2638 36.9241 29.6158 36.7721 29.9118C36.6201 30.1998 36.4241 30.4438 36.1841 30.6438C35.9441 30.8438 35.6801 31.0198 35.3921 31.1718C35.1121 31.3238 34.8401 31.4678 34.5761 31.6038C34.0721 31.8438 33.6721 32.0638 33.3761 32.2638C33.0801 32.4638 32.8521 32.6598 32.6921 32.8518C32.5401 33.0358 32.4361 33.2238 32.3801 33.4158C32.3321 33.6078 32.3041 33.8158 32.2961 34.0398H37.0121V34.9998H31.1321ZM41.0302 35.1078C40.5422 35.1078 40.0982 35.0318 39.6982 34.8798C39.3062 34.7198 38.9782 34.4998 38.7142 34.2198C38.4582 33.9318 38.2902 33.5998 38.2102 33.2238L38.8102 32.5878C38.8342 32.8198 38.9382 33.0558 39.1222 33.2958C39.3062 33.5358 39.5582 33.7358 39.8782 33.8958C40.2062 34.0478 40.5862 34.1238 41.0182 34.1238C41.3862 34.1238 41.7182 34.0638 42.0142 33.9438C42.3102 33.8158 42.5462 33.6398 42.7222 33.4158C42.8982 33.1918 42.9862 32.9318 42.9862 32.6358C42.9862 32.3078 42.8782 32.0278 42.6622 31.7958C42.4462 31.5638 42.1382 31.3878 41.7382 31.2678C41.3462 31.1478 40.8782 31.0878 40.3342 31.0878H39.9262V30.1878H40.3342C41.0702 30.1878 41.6582 30.0718 42.0982 29.8398C42.5382 29.5998 42.7582 29.2438 42.7582 28.7718C42.7582 28.4678 42.6742 28.2078 42.5062 27.9918C42.3462 27.7678 42.1302 27.5998 41.8582 27.4878C41.5942 27.3678 41.3102 27.3078 41.0062 27.3078C40.4942 27.3078 40.0582 27.4238 39.6982 27.6558C39.3462 27.8798 39.0982 28.1438 38.9542 28.4478L38.2462 27.7158C38.4062 27.4358 38.6302 27.1958 38.9182 26.9958C39.2062 26.7958 39.5302 26.6438 39.8902 26.5398C40.2502 26.4278 40.6182 26.3718 40.9942 26.3718C41.5462 26.3718 42.0382 26.4758 42.4702 26.6838C42.9102 26.8918 43.2542 27.1718 43.5022 27.5238C43.7502 27.8758 43.8742 28.2758 43.8742 28.7238C43.8742 29.0438 43.8102 29.3318 43.6822 29.5878C43.5542 29.8358 43.3662 30.0438 43.1182 30.2118C42.8702 30.3798 42.5702 30.5078 42.2182 30.5958C42.5942 30.6598 42.9222 30.7958 43.2022 31.0038C43.4822 31.2118 43.6982 31.4678 43.8502 31.7718C44.0022 32.0758 44.0782 32.4078 44.0782 32.7678C44.0782 33.2638 43.9342 33.6878 43.6462 34.0398C43.3582 34.3838 42.9822 34.6478 42.5182 34.8318C42.0622 35.0158 41.5662 35.1078 41.0302 35.1078ZM48.0497 35.1078C47.5617 35.1078 47.1177 35.0318 46.7177 34.8798C46.3257 34.7198 45.9977 34.4998 45.7337 34.2198C45.4777 33.9318 45.3097 33.5998 45.2297 33.2238L45.8297 32.5878C45.8537 32.8198 45.9577 33.0558 46.1417 33.2958C46.3257 33.5358 46.5777 33.7358 46.8977 33.8958C47.2257 34.0478 47.6057 34.1238 48.0377 34.1238C48.4057 34.1238 48.7377 34.0638 49.0337 33.9438C49.3297 33.8158 49.5657 33.6398 49.7417 33.4158C49.9177 33.1918 50.0057 32.9318 50.0057 32.6358C50.0057 32.3078 49.8977 32.0278 49.6817 31.7958C49.4657 31.5638 49.1577 31.3878 48.7577 31.2678C48.3657 31.1478 47.8977 31.0878 47.3537 31.0878H46.9457V30.1878H47.3537C48.0897 30.1878 48.6777 30.0718 49.1177 29.8398C49.5577 29.5998 49.7777 29.2438 49.7777 28.7718C49.7777 28.4678 49.6937 28.2078 49.5257 27.9918C49.3657 27.7678 49.1497 27.5998 48.8777 27.4878C48.6137 27.3678 48.3297 27.3078 48.0257 27.3078C47.5137 27.3078 47.0777 27.4238 46.7177 27.6558C46.3657 27.8798 46.1177 28.1438 45.9737 28.4478L45.2657 27.7158C45.4257 27.4358 45.6497 27.1958 45.9377 26.9958C46.2257 26.7958 46.5497 26.6438 46.9097 26.5398C47.2697 26.4278 47.6377 26.3718 48.0137 26.3718C48.5657 26.3718 49.0577 26.4758 49.4897 26.6838C49.9297 26.8918 50.2737 27.1718 50.5217 27.5238C50.7697 27.8758 50.8937 28.2758 50.8937 28.7238C50.8937 29.0438 50.8297 29.3318 50.7017 29.5878C50.5737 29.8358 50.3857 30.0438 50.1377 30.2118C49.8897 30.3798 49.5897 30.5078 49.2377 30.5958C49.6137 30.6598 49.9417 30.7958 50.2217 31.0038C50.5017 31.2118 50.7177 31.4678 50.8697 31.7718C51.0217 32.0758 51.0977 32.4078 51.0977 32.7678C51.0977 33.2638 50.9537 33.6878 50.6657 34.0398C50.3777 34.3838 50.0017 34.6478 49.5377 34.8318C49.0817 35.0158 48.5857 35.1078 48.0497 35.1078Z" fill="#2F2F2F"/>
</svg>
