<svg width="687" height="340" viewBox="0 0 687 340" fill="none" xmlns="http://www.w3.org/2000/svg">
<path d="M38 8L38 315.774" stroke="#F5F6F7"/>
<path d="M146 7L146 318" stroke="#F5F6F7"/>
<path d="M254 7L254 318" stroke="#F5F6F7"/>
<path d="M470 7L470 319" stroke="#F5F6F7"/>
<path d="M362 7L362 318" stroke="#F5F6F7"/>
<path d="M578 7L578 319" stroke="#F5F6F7"/>
<path d="M686 7L686 319" stroke="#F5F6F7"/>
<path d="M38 255L687 255" stroke="#F5F6F7"/>
<path d="M38 193H686" stroke="#F5F6F7"/>
<path d="M38 131L686 131" stroke="#F5F6F7"/>
<path d="M38 69L686 68.9999" stroke="#F5F6F7"/>
<path d="M38 7H686" stroke="#F5F6F7"/>
<path d="M38 317L686 317" stroke="#F5F6F7"/>
<path d="M38 7L38 317" stroke="#F5F6F7"/>
<path d="M456.74 338.232H461.36V339H455.468V338.388L458.96 334.968C459.908 334.032 460.088 333.468 460.088 332.892C460.088 331.92 459.404 331.32 458.12 331.32C457.136 331.32 456.38 331.62 455.828 332.256L455.216 331.728C455.864 330.96 456.908 330.528 458.192 330.528C459.896 330.528 460.976 331.392 460.976 332.796C460.976 333.6 460.724 334.32 459.596 335.424L456.74 338.232ZM465.745 339.072C463.801 339.072 462.397 337.476 462.397 334.8C462.397 332.124 463.801 330.528 465.745 330.528C467.689 330.528 469.105 332.124 469.105 334.8C469.105 337.476 467.689 339.072 465.745 339.072ZM465.745 338.28C467.209 338.28 468.217 337.044 468.217 334.8C468.217 332.556 467.209 331.32 465.745 331.32C464.281 331.32 463.273 332.556 463.273 334.8C463.273 337.044 464.281 338.28 465.745 338.28ZM473.082 334.2C474.882 334.296 475.782 335.244 475.782 336.588C475.782 337.992 474.762 339.072 472.734 339.072C471.522 339.072 470.358 338.652 469.71 337.992L470.13 337.308C470.67 337.872 471.642 338.28 472.734 338.28C474.126 338.28 474.894 337.632 474.894 336.588C474.894 335.58 474.186 334.92 472.626 334.92H472.026V334.284L474.354 331.368H470.058V330.6H475.458V331.212L473.082 334.2ZM480.347 339.072C478.403 339.072 476.999 337.476 476.999 334.8C476.999 332.124 478.403 330.528 480.347 330.528C482.291 330.528 483.707 332.124 483.707 334.8C483.707 337.476 482.291 339.072 480.347 339.072ZM480.347 338.28C481.811 338.28 482.819 337.044 482.819 334.8C482.819 332.556 481.811 331.32 480.347 331.32C478.883 331.32 477.875 332.556 477.875 334.8C477.875 337.044 478.883 338.28 480.347 338.28Z" fill="#858C95"/>
<path d="M243.74 338.232H248.36V339H242.468V338.388L245.96 334.968C246.908 334.032 247.088 333.468 247.088 332.892C247.088 331.92 246.404 331.32 245.12 331.32C244.136 331.32 243.38 331.62 242.828 332.256L242.216 331.728C242.864 330.96 243.908 330.528 245.192 330.528C246.896 330.528 247.976 331.392 247.976 332.796C247.976 333.6 247.724 334.32 246.596 335.424L243.74 338.232ZM252.745 339.072C250.801 339.072 249.397 337.476 249.397 334.8C249.397 332.124 250.801 330.528 252.745 330.528C254.689 330.528 256.105 332.124 256.105 334.8C256.105 337.476 254.689 339.072 252.745 339.072ZM252.745 338.28C254.209 338.28 255.217 337.044 255.217 334.8C255.217 332.556 254.209 331.32 252.745 331.32C251.281 331.32 250.273 332.556 250.273 334.8C250.273 337.044 251.281 338.28 252.745 338.28ZM256.803 330.6H259.647V339H258.783V331.368H256.803V330.6ZM263.863 334.044C266.395 334.044 267.355 335.04 267.355 336.528C267.355 337.956 266.359 339.072 264.307 339.072C263.095 339.072 261.943 338.652 261.295 337.992L261.715 337.308C262.255 337.872 263.215 338.28 264.295 338.28C265.723 338.28 266.479 337.584 266.479 336.564C266.479 335.484 265.807 334.812 263.671 334.812H261.883L262.315 330.6H266.911V331.368H263.071L262.783 334.044H263.863Z" fill="#858C95"/>
<path d="M29.6313 319.072C27.6873 319.072 26.2833 317.476 26.2833 314.8C26.2833 312.124 27.6873 310.528 29.6313 310.528C31.5753 310.528 32.9913 312.124 32.9913 314.8C32.9913 317.476 31.5753 319.072 29.6313 319.072ZM29.6313 318.28C31.0953 318.28 32.1033 317.044 32.1033 314.8C32.1033 312.556 31.0953 311.32 29.6313 311.32C28.1673 311.32 27.1593 312.556 27.1593 314.8C27.1593 317.044 28.1673 318.28 29.6313 318.28Z" fill="#858C95"/>
<path d="M12.832 254.044C15.364 254.044 16.324 255.04 16.324 256.528C16.324 257.956 15.328 259.072 13.276 259.072C12.064 259.072 10.912 258.652 10.264 257.992L10.684 257.308C11.224 257.872 12.184 258.28 13.264 258.28C14.692 258.28 15.448 257.584 15.448 256.564C15.448 255.484 14.776 254.812 12.64 254.812H10.852L11.284 250.6H15.88V251.368H12.04L11.752 254.044H12.832ZM20.7689 259.072C18.8249 259.072 17.4209 257.476 17.4209 254.8C17.4209 252.124 18.8249 250.528 20.7689 250.528C22.7129 250.528 24.1289 252.124 24.1289 254.8C24.1289 257.476 22.7129 259.072 20.7689 259.072ZM20.7689 258.28C22.2329 258.28 23.2409 257.044 23.2409 254.8C23.2409 252.556 22.2329 251.32 20.7689 251.32C19.3049 251.32 18.2969 252.556 18.2969 254.8C18.2969 257.044 19.3049 258.28 20.7689 258.28ZM28.7142 259.072C26.7702 259.072 25.3662 257.476 25.3662 254.8C25.3662 252.124 26.7702 250.528 28.7142 250.528C30.6582 250.528 32.0742 252.124 32.0742 254.8C32.0742 257.476 30.6582 259.072 28.7142 259.072ZM28.7142 258.28C30.1782 258.28 31.1862 257.044 31.1862 254.8C31.1862 252.556 30.1782 251.32 28.7142 251.32C27.2502 251.32 26.2422 252.556 26.2422 254.8C26.2422 257.044 27.2502 258.28 28.7142 258.28Z" fill="#858C95"/>
<path d="M3.108 126.6H5.952V135H5.088V127.368H3.108V126.6ZM13.3086 130.044C15.8406 130.044 16.8006 131.04 16.8006 132.528C16.8006 133.956 15.8046 135.072 13.7526 135.072C12.5406 135.072 11.3886 134.652 10.7406 133.992L11.1606 133.308C11.7006 133.872 12.6606 134.28 13.7406 134.28C15.1686 134.28 15.9246 133.584 15.9246 132.564C15.9246 131.484 15.2526 130.812 13.1166 130.812H11.3286L11.7606 126.6H16.3566V127.368H12.5166L12.2286 130.044H13.3086ZM21.2454 135.072C19.3014 135.072 17.8974 133.476 17.8974 130.8C17.8974 128.124 19.3014 126.528 21.2454 126.528C23.1894 126.528 24.6054 128.124 24.6054 130.8C24.6054 133.476 23.1894 135.072 21.2454 135.072ZM21.2454 134.28C22.7094 134.28 23.7174 133.044 23.7174 130.8C23.7174 128.556 22.7094 127.32 21.2454 127.32C19.7814 127.32 18.7734 128.556 18.7734 130.8C18.7734 133.044 19.7814 134.28 21.2454 134.28ZM29.1908 135.072C27.2468 135.072 25.8428 133.476 25.8428 130.8C25.8428 128.124 27.2468 126.528 29.1908 126.528C31.1348 126.528 32.5508 128.124 32.5508 130.8C32.5508 133.476 31.1348 135.072 29.1908 135.072ZM29.1908 134.28C30.6548 134.28 31.6628 133.044 31.6628 130.8C31.6628 128.556 30.6548 127.32 29.1908 127.32C27.7268 127.32 26.7188 128.556 26.7188 130.8C26.7188 133.044 27.7268 134.28 29.1908 134.28Z" fill="#858C95"/>
<path d="M1.74 72.232H6.36V73H0.468V72.388L3.96 68.968C4.908 68.032 5.088 67.468 5.088 66.892C5.088 65.92 4.404 65.32 3.12 65.32C2.136 65.32 1.38 65.62 0.828 66.256L0.216 65.728C0.864 64.96 1.908 64.528 3.192 64.528C4.896 64.528 5.976 65.392 5.976 66.796C5.976 67.6 5.724 68.32 4.596 69.424L1.74 72.232ZM13.9329 73.072C11.9889 73.072 10.5849 71.476 10.5849 68.8C10.5849 66.124 11.9889 64.528 13.9329 64.528C15.8769 64.528 17.2929 66.124 17.2929 68.8C17.2929 71.476 15.8769 73.072 13.9329 73.072ZM13.9329 72.28C15.3969 72.28 16.4049 71.044 16.4049 68.8C16.4049 66.556 15.3969 65.32 13.9329 65.32C12.4689 65.32 11.4609 66.556 11.4609 68.8C11.4609 71.044 12.4689 72.28 13.9329 72.28ZM21.8783 73.072C19.9343 73.072 18.5303 71.476 18.5303 68.8C18.5303 66.124 19.9343 64.528 21.8783 64.528C23.8223 64.528 25.2383 66.124 25.2383 68.8C25.2383 71.476 23.8223 73.072 21.8783 73.072ZM21.8783 72.28C23.3423 72.28 24.3503 71.044 24.3503 68.8C24.3503 66.556 23.3423 65.32 21.8783 65.32C20.4143 65.32 19.4062 66.556 19.4062 68.8C19.4062 71.044 20.4143 72.28 21.8783 72.28ZM29.8236 73.072C27.8796 73.072 26.4756 71.476 26.4756 68.8C26.4756 66.124 27.8796 64.528 29.8236 64.528C31.7676 64.528 33.1836 66.124 33.1836 68.8C33.1836 71.476 31.7676 73.072 29.8236 73.072ZM29.8236 72.28C31.2876 72.28 32.2956 71.044 32.2956 68.8C32.2956 66.556 31.2876 65.32 29.8236 65.32C28.3596 65.32 27.3516 66.556 27.3516 68.8C27.3516 71.044 28.3596 72.28 29.8236 72.28Z" fill="#858C95"/>
<path d="M2.108 188.6H4.952V197H4.088V189.368H2.108V188.6ZM13.4486 197.072C11.5046 197.072 10.1006 195.476 10.1006 192.8C10.1006 190.124 11.5046 188.528 13.4486 188.528C15.3926 188.528 16.8086 190.124 16.8086 192.8C16.8086 195.476 15.3926 197.072 13.4486 197.072ZM13.4486 196.28C14.9126 196.28 15.9206 195.044 15.9206 192.8C15.9206 190.556 14.9126 189.32 13.4486 189.32C11.9846 189.32 10.9766 190.556 10.9766 192.8C10.9766 195.044 11.9846 196.28 13.4486 196.28ZM21.3939 197.072C19.4499 197.072 18.0459 195.476 18.0459 192.8C18.0459 190.124 19.4499 188.528 21.3939 188.528C23.3379 188.528 24.7539 190.124 24.7539 192.8C24.7539 195.476 23.3379 197.072 21.3939 197.072ZM21.3939 196.28C22.8579 196.28 23.8659 195.044 23.8659 192.8C23.8659 190.556 22.8579 189.32 21.3939 189.32C19.9299 189.32 18.9219 190.556 18.9219 192.8C18.9219 195.044 19.9299 196.28 21.3939 196.28ZM29.3392 197.072C27.3952 197.072 25.9912 195.476 25.9912 192.8C25.9912 190.124 27.3952 188.528 29.3392 188.528C31.2832 188.528 32.6992 190.124 32.6992 192.8C32.6992 195.476 31.2832 197.072 29.3392 197.072ZM29.3392 196.28C30.8032 196.28 31.8112 195.044 31.8112 192.8C31.8112 190.556 30.8032 189.32 29.3392 189.32C27.8752 189.32 26.8672 190.556 26.8672 192.8C26.8672 195.044 27.8752 196.28 29.3392 196.28Z" fill="#858C95"/>
<path d="M2.74 11.1148H7.36V11.8828H1.468V11.2708L4.96 7.85081C5.908 6.91481 6.088 6.35081 6.088 5.77481C6.088 4.80281 5.404 4.20281 4.12 4.20281C3.136 4.20281 2.38 4.50281 1.828 5.13881L1.216 4.61081C1.864 3.84281 2.908 3.41081 4.192 3.41081C5.896 3.41081 6.976 4.27481 6.976 5.67881C6.976 6.48281 6.724 7.20281 5.596 8.30681L2.74 11.1148ZM13.7929 6.92681C16.3249 6.92681 17.2849 7.92281 17.2849 9.41081C17.2849 10.8388 16.2889 11.9548 14.2369 11.9548C13.0249 11.9548 11.8729 11.5348 11.2249 10.8748L11.6449 10.1908C12.1849 10.7548 13.1449 11.1628 14.2249 11.1628C15.6529 11.1628 16.4089 10.4668 16.4089 9.44681C16.4089 8.36681 15.7369 7.69481 13.6009 7.69481H11.8129L12.2449 3.48281H16.8409V4.25081H13.0009L12.7129 6.92681H13.7929ZM21.7298 11.9548C19.7858 11.9548 18.3818 10.3588 18.3818 7.68281C18.3818 5.00681 19.7858 3.41081 21.7298 3.41081C23.6738 3.41081 25.0898 5.00681 25.0898 7.68281C25.0898 10.3588 23.6738 11.9548 21.7298 11.9548ZM21.7298 11.1628C23.1938 11.1628 24.2018 9.92681 24.2018 7.68281C24.2018 5.43881 23.1938 4.20281 21.7298 4.20281C20.2658 4.20281 19.2578 5.43881 19.2578 7.68281C19.2578 9.92681 20.2658 11.1628 21.7298 11.1628ZM29.6751 11.9548C27.7311 11.9548 26.3271 10.3588 26.3271 7.68281C26.3271 5.00681 27.7311 3.41081 29.6751 3.41081C31.6191 3.41081 33.0351 5.00681 33.0351 7.68281C33.0351 10.3588 31.6191 11.9548 29.6751 11.9548ZM29.6751 11.1628C31.1391 11.1628 32.1471 9.92681 32.1471 7.68281C32.1471 5.43881 31.1391 4.20281 29.6751 4.20281C28.2111 4.20281 27.2031 5.43881 27.2031 7.68281C27.2031 9.92681 28.2111 11.1628 29.6751 11.1628Z" fill="#858C95"/>
<path d="M295.32 250.3C295.32 251.207 295.093 252.033 294.64 252.78C294.2 253.513 293.593 254.1 292.82 254.54C292.06 254.98 291.2 255.2 290.24 255.2C289.227 255.2 288.333 254.96 287.56 254.48C286.787 253.987 286.18 253.28 285.74 252.36C285.313 251.44 285.1 250.347 285.1 249.08C285.1 247.213 285.32 245.66 285.76 244.42C286.2 243.18 286.82 242.253 287.62 241.64C288.42 241.013 289.353 240.7 290.42 240.7C291.34 240.7 292.173 240.927 292.92 241.38C293.68 241.82 294.273 242.433 294.7 243.22L293.62 244.28C293.327 243.653 292.893 243.16 292.32 242.8C291.747 242.427 291.107 242.24 290.4 242.24C289.68 242.24 289.047 242.46 288.5 242.9C287.953 243.34 287.527 243.973 287.22 244.8C286.927 245.627 286.773 246.627 286.76 247.8C286.96 247.333 287.24 246.933 287.6 246.6C287.96 246.253 288.38 245.987 288.86 245.8C289.353 245.613 289.873 245.52 290.42 245.52C291.34 245.52 292.167 245.733 292.9 246.16C293.647 246.587 294.233 247.16 294.66 247.88C295.1 248.6 295.32 249.407 295.32 250.3ZM290.26 253.68C290.873 253.68 291.433 253.527 291.94 253.22C292.46 252.913 292.873 252.507 293.18 252C293.487 251.48 293.64 250.913 293.64 250.3C293.64 249.687 293.487 249.127 293.18 248.62C292.873 248.113 292.46 247.707 291.94 247.4C291.433 247.093 290.873 246.94 290.26 246.94C289.647 246.94 289.08 247.093 288.56 247.4C288.053 247.707 287.647 248.113 287.34 248.62C287.033 249.127 286.88 249.687 286.88 250.3C286.88 250.913 287.033 251.48 287.34 252C287.647 252.507 288.053 252.913 288.56 253.22C289.08 253.527 289.647 253.68 290.26 253.68ZM303.109 255.2C302.136 255.173 301.276 254.94 300.529 254.5C299.782 254.06 299.156 253.487 298.649 252.78C298.156 252.06 297.782 251.287 297.529 250.46C297.276 249.62 297.149 248.8 297.149 248C297.149 247.147 297.282 246.293 297.549 245.44C297.829 244.587 298.229 243.813 298.749 243.12C299.269 242.413 299.896 241.853 300.629 241.44C301.362 241.013 302.189 240.8 303.109 240.8C304.096 240.8 304.956 241.027 305.689 241.48C306.436 241.933 307.056 242.52 307.549 243.24C308.056 243.96 308.436 244.74 308.689 245.58C308.942 246.42 309.069 247.227 309.069 248C309.069 248.867 308.929 249.727 308.649 250.58C308.382 251.42 307.989 252.187 307.469 252.88C306.949 253.573 306.322 254.133 305.589 254.56C304.856 254.973 304.029 255.187 303.109 255.2ZM298.969 248C298.996 248.653 299.096 249.307 299.269 249.96C299.442 250.613 299.702 251.213 300.049 251.76C300.396 252.307 300.822 252.747 301.329 253.08C301.836 253.413 302.429 253.58 303.109 253.58C303.816 253.58 304.429 253.407 304.949 253.06C305.469 252.7 305.896 252.24 306.229 251.68C306.576 251.107 306.829 250.5 306.989 249.86C307.162 249.207 307.249 248.587 307.249 248C307.249 247.347 307.156 246.693 306.969 246.04C306.796 245.387 306.529 244.787 306.169 244.24C305.809 243.693 305.376 243.253 304.869 242.92C304.362 242.587 303.776 242.42 303.109 242.42C302.402 242.42 301.789 242.6 301.269 242.96C300.749 243.307 300.316 243.767 299.969 244.34C299.636 244.9 299.382 245.507 299.209 246.16C299.049 246.8 298.969 247.413 298.969 248ZM321.258 250.3C321.258 251.207 321.031 252.033 320.578 252.78C320.138 253.513 319.531 254.1 318.758 254.54C317.998 254.98 317.138 255.2 316.178 255.2C315.164 255.2 314.271 254.96 313.498 254.48C312.724 253.987 312.118 253.28 311.678 252.36C311.251 251.44 311.038 250.347 311.038 249.08C311.038 247.213 311.258 245.66 311.698 244.42C312.138 243.18 312.758 242.253 313.558 241.64C314.358 241.013 315.291 240.7 316.358 240.7C317.278 240.7 318.111 240.927 318.858 241.38C319.618 241.82 320.211 242.433 320.638 243.22L319.558 244.28C319.264 243.653 318.831 243.16 318.258 242.8C317.684 242.427 317.044 242.24 316.338 242.24C315.618 242.24 314.984 242.46 314.438 242.9C313.891 243.34 313.464 243.973 313.158 244.8C312.864 245.627 312.711 246.627 312.698 247.8C312.898 247.333 313.178 246.933 313.538 246.6C313.898 246.253 314.318 245.987 314.798 245.8C315.291 245.613 315.811 245.52 316.358 245.52C317.278 245.52 318.104 245.733 318.838 246.16C319.584 246.587 320.171 247.16 320.598 247.88C321.038 248.6 321.258 249.407 321.258 250.3ZM316.198 253.68C316.811 253.68 317.371 253.527 317.878 253.22C318.398 252.913 318.811 252.507 319.118 252C319.424 251.48 319.578 250.913 319.578 250.3C319.578 249.687 319.424 249.127 319.118 248.62C318.811 248.113 318.398 247.707 317.878 247.4C317.371 247.093 316.811 246.94 316.198 246.94C315.584 246.94 315.018 247.093 314.498 247.4C313.991 247.707 313.584 248.113 313.278 248.62C312.971 249.127 312.818 249.687 312.818 250.3C312.818 250.913 312.971 251.48 313.278 252C313.584 252.507 313.991 252.913 314.498 253.22C315.018 253.527 315.584 253.68 316.198 253.68ZM323.626 256.62L324.026 254.84H323.426V252.76H325.086V254.84L324.486 256.62H323.626ZM337.345 250.98C337.345 251.82 337.112 252.553 336.645 253.18C336.192 253.807 335.579 254.293 334.805 254.64C334.045 254.987 333.212 255.16 332.305 255.16C331.359 255.16 330.512 254.973 329.765 254.6C329.019 254.213 328.425 253.7 327.985 253.06C327.559 252.42 327.345 251.7 327.345 250.9C327.345 250.313 327.479 249.787 327.745 249.32C328.012 248.853 328.345 248.46 328.745 248.14C329.159 247.807 329.579 247.56 330.005 247.4C329.619 247.227 329.259 247 328.925 246.72C328.592 246.44 328.325 246.113 328.125 245.74C327.925 245.367 327.825 244.96 327.825 244.52C327.825 243.92 327.959 243.393 328.225 242.94C328.492 242.473 328.845 242.08 329.285 241.76C329.725 241.44 330.212 241.2 330.745 241.04C331.279 240.88 331.812 240.8 332.345 240.8C332.879 240.8 333.412 240.88 333.945 241.04C334.479 241.2 334.965 241.44 335.405 241.76C335.859 242.067 336.219 242.453 336.485 242.92C336.752 243.373 336.885 243.9 336.885 244.5C336.885 244.94 336.785 245.353 336.585 245.74C336.385 246.113 336.112 246.44 335.765 246.72C335.432 247 335.065 247.227 334.665 247.4C335.145 247.587 335.585 247.853 335.985 248.2C336.399 248.533 336.725 248.933 336.965 249.4C337.219 249.867 337.345 250.393 337.345 250.98ZM335.565 250.86C335.565 250.433 335.472 250.053 335.285 249.72C335.099 249.373 334.845 249.087 334.525 248.86C334.205 248.62 333.852 248.44 333.465 248.32C333.092 248.2 332.712 248.14 332.325 248.14C331.792 248.14 331.279 248.253 330.785 248.48C330.305 248.707 329.912 249.027 329.605 249.44C329.299 249.84 329.145 250.32 329.145 250.88C329.145 251.293 329.239 251.667 329.425 252C329.612 252.333 329.859 252.62 330.165 252.86C330.485 253.1 330.832 253.28 331.205 253.4C331.592 253.52 331.979 253.58 332.365 253.58C332.899 253.58 333.405 253.467 333.885 253.24C334.379 253.013 334.779 252.693 335.085 252.28C335.405 251.867 335.565 251.393 335.565 250.86ZM329.605 244.58C329.605 245.047 329.745 245.447 330.025 245.78C330.305 246.113 330.659 246.367 331.085 246.54C331.512 246.7 331.932 246.78 332.345 246.78C332.772 246.78 333.192 246.693 333.605 246.52C334.032 246.347 334.385 246.093 334.665 245.76C334.945 245.427 335.085 245.02 335.085 244.54C335.085 244.087 334.952 243.7 334.685 243.38C334.432 243.06 334.092 242.813 333.665 242.64C333.252 242.467 332.805 242.38 332.325 242.38C331.859 242.38 331.412 242.473 330.985 242.66C330.572 242.833 330.239 243.087 329.985 243.42C329.732 243.74 329.605 244.127 329.605 244.58ZM344.777 255V244.56H346.597L350.477 251.4L354.377 244.56H356.157V255H354.477V247.1L351.037 253.14H349.917L346.457 247.1V255H344.777ZM358.076 255.08V253.5C358.423 253.5 358.73 253.413 358.996 253.24C359.276 253.053 359.523 252.747 359.736 252.32C359.95 251.88 360.116 251.28 360.236 250.52C360.37 249.747 360.456 248.767 360.496 247.58L360.616 244.56H367.716V255H365.956V246.12H362.176L362.136 247.74C362.083 249.167 361.963 250.353 361.776 251.3C361.59 252.247 361.33 252.993 360.996 253.54C360.663 254.087 360.25 254.48 359.756 254.72C359.276 254.96 358.716 255.08 358.076 255.08ZM376.179 255.2C375.325 255.2 374.565 254.987 373.899 254.56C373.232 254.133 372.705 253.593 372.319 252.94V259.26H370.559V244.56H372.119V246.52C372.532 245.88 373.072 245.367 373.739 244.98C374.405 244.58 375.132 244.38 375.919 244.38C376.639 244.38 377.299 244.527 377.899 244.82C378.499 245.113 379.019 245.513 379.459 246.02C379.899 246.527 380.239 247.107 380.479 247.76C380.732 248.4 380.859 249.073 380.859 249.78C380.859 250.767 380.659 251.673 380.259 252.5C379.872 253.327 379.325 253.987 378.619 254.48C377.912 254.96 377.099 255.2 376.179 255.2ZM375.639 253.68C376.159 253.68 376.625 253.573 377.039 253.36C377.465 253.133 377.825 252.84 378.119 252.48C378.425 252.107 378.659 251.687 378.819 251.22C378.979 250.753 379.059 250.273 379.059 249.78C379.059 249.26 378.965 248.767 378.779 248.3C378.605 247.833 378.352 247.42 378.019 247.06C377.699 246.7 377.319 246.42 376.879 246.22C376.452 246.007 375.985 245.9 375.479 245.9C375.159 245.9 374.825 245.96 374.479 246.08C374.145 246.2 373.825 246.373 373.519 246.6C373.212 246.813 372.952 247.06 372.739 247.34C372.525 247.62 372.385 247.92 372.319 248.24V251.22C372.519 251.673 372.785 252.087 373.119 252.46C373.452 252.833 373.839 253.133 374.279 253.36C374.719 253.573 375.172 253.68 375.639 253.68ZM381.86 257.46V253.44H382.08C382.373 253.44 382.64 253.353 382.88 253.18C383.133 253.007 383.353 252.707 383.54 252.28C383.74 251.84 383.9 251.24 384.02 250.48C384.14 249.72 384.22 248.753 384.26 247.58L384.36 244.56H391.46V253.44H392.88V257.46H391.32V255H383.42V257.46H381.86ZM384.54 253.44H389.7V246.12H385.92L385.86 247.74C385.82 248.873 385.74 249.827 385.62 250.6C385.513 251.36 385.366 251.967 385.18 252.42C385.006 252.873 384.793 253.213 384.54 253.44ZM398.475 249.9V248.3H404.095V249.9H398.475ZM398.475 252.58V251.18H405.095V252.58H398.475ZM400.155 255V240.8H405.075C405.755 240.8 406.355 240.933 406.875 241.2C407.408 241.453 407.861 241.8 408.235 242.24C408.608 242.667 408.888 243.153 409.075 243.7C409.275 244.233 409.375 244.78 409.375 245.34C409.375 246.113 409.215 246.853 408.895 247.56C408.575 248.253 408.101 248.82 407.475 249.26C406.861 249.687 406.101 249.9 405.195 249.9H401.955V255H400.155ZM401.955 248.3H405.095C405.721 248.3 406.215 248.167 406.575 247.9C406.935 247.633 407.188 247.273 407.335 246.82C407.481 246.367 407.555 245.873 407.555 245.34C407.555 244.78 407.461 244.28 407.275 243.84C407.101 243.387 406.821 243.033 406.435 242.78C406.048 242.527 405.555 242.4 404.955 242.4H401.955V248.3Z" fill="#2F2F2F"/>
<path d="M499.127 74C499.127 73.2 499.194 72.4933 499.327 71.88C499.474 71.2533 499.68 70.6933 499.947 70.2C500.227 69.7067 500.56 69.2733 500.947 68.9C501.334 68.5267 501.774 68.1933 502.267 67.9C502.787 67.5933 503.32 67.3133 503.867 67.06C504.414 66.8067 504.92 66.54 505.387 66.26C505.854 65.98 506.227 65.6467 506.507 65.26C506.8 64.86 506.947 64.3667 506.947 63.78C506.947 63.3133 506.847 62.8933 506.647 62.52C506.447 62.1333 506.147 61.8267 505.747 61.6C505.347 61.3733 504.834 61.26 504.207 61.26C503.58 61.26 503.014 61.3667 502.507 61.58C502.014 61.7933 501.587 62.0467 501.227 62.34C500.867 62.6333 500.58 62.9133 500.367 63.18L499.227 62.04C499.334 61.9067 499.52 61.7067 499.787 61.44C500.067 61.1733 500.42 60.9 500.847 60.62C501.287 60.34 501.8 60.1067 502.387 59.92C502.974 59.72 503.64 59.62 504.387 59.62C505.387 59.62 506.22 59.8067 506.887 60.18C507.554 60.5533 508.054 61.0533 508.387 61.68C508.734 62.3067 508.907 63 508.907 63.76C508.907 64.44 508.78 65.0267 508.527 65.52C508.274 66 507.947 66.4067 507.547 66.74C507.147 67.0733 506.707 67.3667 506.227 67.62C505.76 67.8733 505.307 68.1133 504.867 68.34C504.027 68.74 503.36 69.1067 502.867 69.44C502.374 69.7733 501.994 70.1 501.727 70.42C501.474 70.7267 501.3 71.04 501.207 71.36C501.127 71.68 501.08 72.0267 501.067 72.4H508.927V74H499.127ZM521.963 74.2C520.989 74.1733 520.129 73.94 519.383 73.5C518.636 73.06 518.009 72.4867 517.503 71.78C517.009 71.06 516.636 70.2867 516.382 69.46C516.129 68.62 516.003 67.8 516.003 67C516.003 66.1467 516.136 65.2933 516.403 64.44C516.683 63.5867 517.083 62.8133 517.603 62.12C518.123 61.4133 518.749 60.8533 519.483 60.44C520.216 60.0133 521.043 59.8 521.963 59.8C522.949 59.8 523.809 60.0267 524.543 60.48C525.289 60.9333 525.909 61.52 526.403 62.24C526.909 62.96 527.289 63.74 527.543 64.58C527.796 65.42 527.923 66.2267 527.923 67C527.923 67.8667 527.783 68.7267 527.503 69.58C527.236 70.42 526.843 71.1867 526.323 71.88C525.803 72.5733 525.176 73.1333 524.443 73.56C523.709 73.9733 522.883 74.1867 521.963 74.2ZM517.823 67C517.849 67.6533 517.949 68.3067 518.123 68.96C518.296 69.6133 518.556 70.2133 518.903 70.76C519.249 71.3067 519.676 71.7467 520.183 72.08C520.689 72.4133 521.283 72.58 521.963 72.58C522.669 72.58 523.283 72.4067 523.803 72.06C524.323 71.7 524.749 71.24 525.083 70.68C525.429 70.1067 525.683 69.5 525.843 68.86C526.016 68.2067 526.103 67.5867 526.103 67C526.103 66.3467 526.009 65.6933 525.823 65.04C525.649 64.3867 525.383 63.7867 525.023 63.24C524.663 62.6933 524.229 62.2533 523.723 61.92C523.216 61.5867 522.629 61.42 521.963 61.42C521.256 61.42 520.643 61.6 520.123 61.96C519.603 62.3067 519.169 62.7667 518.823 63.34C518.489 63.9 518.236 64.5067 518.063 65.16C517.903 65.8 517.823 66.4133 517.823 67ZM537.251 72.4V74H530.191V72.4H532.911V61.5C532.804 61.66 532.631 61.84 532.391 62.04C532.151 62.2267 531.871 62.4133 531.551 62.6C531.244 62.7733 530.931 62.92 530.611 63.04C530.291 63.16 529.998 63.22 529.731 63.22V61.58C530.091 61.58 530.451 61.4867 530.811 61.3C531.184 61.1133 531.524 60.8933 531.831 60.64C532.151 60.3867 532.404 60.16 532.591 59.96C532.791 59.76 532.898 59.6533 532.911 59.64H534.711V72.4H537.251ZM544.599 74.2C543.626 74.1733 542.766 73.94 542.019 73.5C541.273 73.06 540.646 72.4867 540.139 71.78C539.646 71.06 539.273 70.2867 539.019 69.46C538.766 68.62 538.639 67.8 538.639 67C538.639 66.1467 538.773 65.2933 539.039 64.44C539.319 63.5867 539.719 62.8133 540.239 62.12C540.759 61.4133 541.386 60.8533 542.119 60.44C542.853 60.0133 543.679 59.8 544.599 59.8C545.586 59.8 546.446 60.0267 547.179 60.48C547.926 60.9333 548.546 61.52 549.039 62.24C549.546 62.96 549.926 63.74 550.179 64.58C550.433 65.42 550.559 66.2267 550.559 67C550.559 67.8667 550.419 68.7267 550.139 69.58C549.873 70.42 549.479 71.1867 548.959 71.88C548.439 72.5733 547.813 73.1333 547.079 73.56C546.346 73.9733 545.519 74.1867 544.599 74.2ZM540.459 67C540.486 67.6533 540.586 68.3067 540.759 68.96C540.933 69.6133 541.193 70.2133 541.539 70.76C541.886 71.3067 542.313 71.7467 542.819 72.08C543.326 72.4133 543.919 72.58 544.599 72.58C545.306 72.58 545.919 72.4067 546.439 72.06C546.959 71.7 547.386 71.24 547.719 70.68C548.066 70.1067 548.319 69.5 548.479 68.86C548.653 68.2067 548.739 67.5867 548.739 67C548.739 66.3467 548.646 65.6933 548.459 65.04C548.286 64.3867 548.019 63.7867 547.659 63.24C547.299 62.6933 546.866 62.2533 546.359 61.92C545.853 61.5867 545.266 61.42 544.599 61.42C543.893 61.42 543.279 61.6 542.759 61.96C542.239 62.3067 541.806 62.7667 541.459 63.34C541.126 63.9 540.873 64.5067 540.699 65.16C540.539 65.8 540.459 66.4133 540.459 67ZM552.988 75.62L553.388 73.84H552.788V71.76H554.448V73.84L553.848 75.62H552.988ZM556.607 64.6C556.607 63.68 556.827 62.8533 557.267 62.12C557.72 61.3733 558.333 60.7867 559.107 60.36C559.88 59.92 560.74 59.7 561.687 59.7C562.713 59.7 563.607 59.9467 564.367 60.44C565.14 60.92 565.74 61.6133 566.167 62.52C566.607 63.4267 566.827 64.52 566.827 65.8C566.827 67.6667 566.607 69.2267 566.167 70.48C565.727 71.72 565.107 72.6533 564.307 73.28C563.507 73.8933 562.573 74.2 561.507 74.2C560.587 74.2 559.747 73.98 558.987 73.54C558.24 73.0867 557.653 72.46 557.227 71.66L558.307 70.6C558.6 71.2133 559.033 71.7067 559.607 72.08C560.193 72.4533 560.833 72.64 561.527 72.64C562.26 72.64 562.893 72.4267 563.427 72C563.973 71.56 564.4 70.9267 564.707 70.1C565.013 69.2733 565.167 68.2733 565.167 67.1C564.98 67.5533 564.7 67.9533 564.327 68.3C563.967 68.6467 563.547 68.9133 563.067 69.1C562.587 69.2867 562.067 69.38 561.507 69.38C560.6 69.38 559.773 69.1667 559.027 68.74C558.28 68.3133 557.687 67.74 557.247 67.02C556.82 66.2867 556.607 65.48 556.607 64.6ZM561.667 61.2C561.053 61.2 560.493 61.3533 559.987 61.66C559.48 61.9667 559.073 62.38 558.767 62.9C558.46 63.4067 558.307 63.9667 558.307 64.58C558.307 65.1933 558.46 65.7533 558.767 66.26C559.073 66.7667 559.48 67.1733 559.987 67.48C560.507 67.7867 561.073 67.94 561.687 67.94C562.3 67.94 562.86 67.7867 563.367 67.48C563.887 67.1733 564.3 66.7667 564.607 66.26C564.913 65.7533 565.067 65.2 565.067 64.6C565.067 63.9867 564.907 63.4267 564.587 62.92C564.28 62.4 563.867 61.9867 563.347 61.68C562.84 61.36 562.28 61.2 561.667 61.2ZM574.394 74V63.58H575.794L579.934 70.76L584.094 63.58H585.434V74H584.134V65.62L580.374 72.14H579.494L575.694 65.62V74H574.394ZM587.438 74.06V72.82C587.798 72.82 588.118 72.7267 588.398 72.54C588.678 72.34 588.924 72.0067 589.138 71.54C589.364 71.0733 589.544 70.4333 589.678 69.62C589.811 68.7933 589.898 67.7467 589.938 66.48L590.058 63.58H596.818V74H595.458V64.8H591.258L591.218 66.6C591.164 68.04 591.051 69.2467 590.878 70.22C590.704 71.18 590.458 71.94 590.138 72.5C589.831 73.06 589.451 73.46 588.998 73.7C588.544 73.94 588.024 74.06 587.438 74.06ZM605.144 74.2C604.278 74.2 603.498 73.9733 602.804 73.52C602.124 73.0667 601.584 72.5067 601.184 71.84V78.26H599.824V63.58H601.044V65.6C601.458 64.9467 602.011 64.42 602.704 64.02C603.398 63.6067 604.138 63.4 604.924 63.4C605.644 63.4 606.304 63.5533 606.904 63.86C607.504 64.1533 608.024 64.5533 608.464 65.06C608.904 65.5667 609.244 66.1467 609.484 66.8C609.738 67.44 609.864 68.1067 609.864 68.8C609.864 69.7733 609.664 70.6733 609.264 71.5C608.878 72.3133 608.331 72.9667 607.624 73.46C606.918 73.9533 606.091 74.2 605.144 74.2ZM604.764 73C605.338 73 605.851 72.8867 606.304 72.66C606.758 72.42 607.144 72.1 607.464 71.7C607.798 71.3 608.051 70.8533 608.224 70.36C608.398 69.8533 608.484 69.3333 608.484 68.8C608.484 68.24 608.384 67.7067 608.184 67.2C607.998 66.6933 607.724 66.2467 607.364 65.86C607.004 65.4733 606.591 65.1667 606.124 64.94C605.658 64.7133 605.151 64.6 604.604 64.6C604.258 64.6 603.898 64.6667 603.524 64.8C603.151 64.9333 602.791 65.1267 602.444 65.38C602.111 65.62 601.831 65.8933 601.604 66.2C601.378 66.5067 601.238 66.8333 601.184 67.18V70.38C601.398 70.8733 601.684 71.32 602.044 71.72C602.404 72.1067 602.818 72.42 603.284 72.66C603.764 72.8867 604.258 73 604.764 73ZM611.008 76.42V72.78H611.188C611.495 72.78 611.775 72.6867 612.028 72.5C612.281 72.3133 612.508 71.9867 612.708 71.52C612.908 71.0533 613.068 70.4133 613.188 69.6C613.308 68.7733 613.388 67.7333 613.428 66.48L613.528 63.58H620.308V72.78H621.708V76.42H620.488V74H612.208V76.42H611.008ZM613.248 72.78H618.948V64.8H614.748L614.688 66.6C614.648 67.84 614.561 68.88 614.428 69.72C614.308 70.5467 614.148 71.2067 613.948 71.7C613.761 72.18 613.528 72.54 613.248 72.78ZM627.367 68.76V67.52H632.907V68.76H627.367ZM627.367 71.18V70.08H634.027V71.18H627.367ZM629.127 74V59.8H634.007C634.661 59.8 635.247 59.9267 635.767 60.18C636.287 60.4333 636.727 60.78 637.087 61.22C637.461 61.6467 637.741 62.1267 637.927 62.66C638.127 63.18 638.227 63.7133 638.227 64.26C638.227 65.0333 638.067 65.7667 637.747 66.46C637.427 67.14 636.961 67.6933 636.347 68.12C635.747 68.5467 635.014 68.76 634.147 68.76H630.527V74H629.127ZM630.527 67.52H634.067C634.721 67.52 635.247 67.3667 635.647 67.06C636.061 66.7533 636.361 66.3533 636.547 65.86C636.734 65.3667 636.827 64.8333 636.827 64.26C636.827 63.6733 636.714 63.1333 636.487 62.64C636.274 62.1467 635.947 61.76 635.507 61.48C635.081 61.1867 634.554 61.04 633.927 61.04H630.527V67.52Z" fill="#2F2F2F"/>
<rect x="234" y="242" width="41" height="75" fill="#2D6FD0"/>
<rect x="449" y="60" width="41" height="257" fill="#2D6FD0"/>
</svg>
