<svg width="684" height="340" viewBox="0 0 684 340" fill="none" xmlns="http://www.w3.org/2000/svg">
<path d="M31 8L31 315.774" stroke="#F5F6F7"/>
<path d="M139 8L139 317" stroke="#F5F6F7"/>
<path d="M247 8L247 317" stroke="#F5F6F7"/>
<path d="M463 7L463 316" stroke="#F5F6F7"/>
<path d="M355 6L355 317" stroke="#F5F6F7"/>
<path d="M571 7L571 317" stroke="#F5F6F7"/>
<path d="M679 7L679 317" stroke="#F5F6F7"/>
<path d="M31 255L679 255" stroke="#F5F6F7"/>
<path d="M31 193H679" stroke="#F5F6F7"/>
<path d="M31 131L679 131" stroke="#F5F6F7"/>
<path d="M31 69L679 68.9999" stroke="#F5F6F7"/>
<path d="M31 7H679" stroke="#F5F6F7"/>
<path d="M31 317L679 317" stroke="#F5F6F7"/>
<path d="M31 6L31 317" stroke="#F5F6F7"/>
<path d="M450.74 337.232H455.36V338H449.468V337.388L452.96 333.968C453.908 333.032 454.088 332.468 454.088 331.892C454.088 330.92 453.404 330.32 452.12 330.32C451.136 330.32 450.38 330.62 449.828 331.256L449.216 330.728C449.864 329.96 450.908 329.528 452.192 329.528C453.896 329.528 454.976 330.392 454.976 331.796C454.976 332.6 454.724 333.32 453.596 334.424L450.74 337.232ZM459.745 338.072C457.801 338.072 456.397 336.476 456.397 333.8C456.397 331.124 457.801 329.528 459.745 329.528C461.689 329.528 463.105 331.124 463.105 333.8C463.105 336.476 461.689 338.072 459.745 338.072ZM459.745 337.28C461.209 337.28 462.217 336.044 462.217 333.8C462.217 331.556 461.209 330.32 459.745 330.32C458.281 330.32 457.273 331.556 457.273 333.8C457.273 336.044 458.281 337.28 459.745 337.28ZM465.435 337.232H470.055V338H464.163V337.388L467.655 333.968C468.603 333.032 468.783 332.468 468.783 331.892C468.783 330.92 468.099 330.32 466.815 330.32C465.831 330.32 465.075 330.62 464.523 331.256L463.911 330.728C464.559 329.96 465.603 329.528 466.887 329.528C468.591 329.528 469.671 330.392 469.671 331.796C469.671 332.6 469.419 333.32 468.291 334.424L465.435 337.232ZM473.348 333.044C475.88 333.044 476.84 334.04 476.84 335.528C476.84 336.956 475.844 338.072 473.792 338.072C472.58 338.072 471.428 337.652 470.78 336.992L471.2 336.308C471.74 336.872 472.7 337.28 473.78 337.28C475.208 337.28 475.964 336.584 475.964 335.564C475.964 334.484 475.292 333.812 473.156 333.812H471.368L471.8 329.6H476.396V330.368H472.556L472.268 333.044H473.348Z" fill="#858C95"/>
<path d="M653.74 337.232H658.36V338H652.468V337.388L655.96 333.968C656.908 333.032 657.088 332.468 657.088 331.892C657.088 330.92 656.404 330.32 655.12 330.32C654.136 330.32 653.38 330.62 652.828 331.256L652.216 330.728C652.864 329.96 653.908 329.528 655.192 329.528C656.896 329.528 657.976 330.392 657.976 331.796C657.976 332.6 657.724 333.32 656.596 334.424L653.74 337.232ZM662.745 338.072C660.801 338.072 659.397 336.476 659.397 333.8C659.397 331.124 660.801 329.528 662.745 329.528C664.689 329.528 666.105 331.124 666.105 333.8C666.105 336.476 664.689 338.072 662.745 338.072ZM662.745 337.28C664.209 337.28 665.217 336.044 665.217 333.8C665.217 331.556 664.209 330.32 662.745 330.32C661.281 330.32 660.273 331.556 660.273 333.8C660.273 336.044 661.281 337.28 662.745 337.28ZM670.082 333.2C671.882 333.296 672.782 334.244 672.782 335.588C672.782 336.992 671.762 338.072 669.734 338.072C668.522 338.072 667.358 337.652 666.71 336.992L667.13 336.308C667.67 336.872 668.642 337.28 669.734 337.28C671.126 337.28 671.894 336.632 671.894 335.588C671.894 334.58 671.186 333.92 669.626 333.92H669.026V333.284L671.354 330.368H667.058V329.6H672.458V330.212L670.082 333.2ZM677.347 338.072C675.403 338.072 673.999 336.476 673.999 333.8C673.999 331.124 675.403 329.528 677.347 329.528C679.291 329.528 680.707 331.124 680.707 333.8C680.707 336.476 679.291 338.072 677.347 338.072ZM677.347 337.28C678.811 337.28 679.819 336.044 679.819 333.8C679.819 331.556 678.811 330.32 677.347 330.32C675.883 330.32 674.875 331.556 674.875 333.8C674.875 336.044 675.883 337.28 677.347 337.28Z" fill="#858C95"/>
<path d="M233.74 337.232H238.36V338H232.468V337.388L235.96 333.968C236.908 333.032 237.088 332.468 237.088 331.892C237.088 330.92 236.404 330.32 235.12 330.32C234.136 330.32 233.38 330.62 232.828 331.256L232.216 330.728C232.864 329.96 233.908 329.528 235.192 329.528C236.896 329.528 237.976 330.392 237.976 331.796C237.976 332.6 237.724 333.32 236.596 334.424L233.74 337.232ZM242.745 338.072C240.801 338.072 239.397 336.476 239.397 333.8C239.397 331.124 240.801 329.528 242.745 329.528C244.689 329.528 246.105 331.124 246.105 333.8C246.105 336.476 244.689 338.072 242.745 338.072ZM242.745 337.28C244.209 337.28 245.217 336.044 245.217 333.8C245.217 331.556 244.209 330.32 242.745 330.32C241.281 330.32 240.273 331.556 240.273 333.8C240.273 336.044 241.281 337.28 242.745 337.28ZM248.435 337.232H253.055V338H247.163V337.388L250.655 333.968C251.603 333.032 251.783 332.468 251.783 331.892C251.783 330.92 251.099 330.32 249.815 330.32C248.831 330.32 248.075 330.62 247.523 331.256L246.911 330.728C247.559 329.96 248.603 329.528 249.887 329.528C251.591 329.528 252.671 330.392 252.671 331.796C252.671 332.6 252.419 333.32 251.291 334.424L248.435 337.232ZM257.441 338.072C255.497 338.072 254.093 336.476 254.093 333.8C254.093 331.124 255.497 329.528 257.441 329.528C259.385 329.528 260.801 331.124 260.801 333.8C260.801 336.476 259.385 338.072 257.441 338.072ZM257.441 337.28C258.905 337.28 259.913 336.044 259.913 333.8C259.913 331.556 258.905 330.32 257.441 330.32C255.977 330.32 254.969 331.556 254.969 333.8C254.969 336.044 255.977 337.28 257.441 337.28Z" fill="#858C95"/>
<path d="M32.74 337.232H37.36V338H31.468V337.388L34.96 333.968C35.908 333.032 36.088 332.468 36.088 331.892C36.088 330.92 35.404 330.32 34.12 330.32C33.136 330.32 32.38 330.62 31.828 331.256L31.216 330.728C31.864 329.96 32.908 329.528 34.192 329.528C35.896 329.528 36.976 330.392 36.976 331.796C36.976 332.6 36.724 333.32 35.596 334.424L32.74 337.232ZM41.7454 338.072C39.8014 338.072 38.3974 336.476 38.3974 333.8C38.3974 331.124 39.8014 329.528 41.7454 329.528C43.6894 329.528 45.1054 331.124 45.1054 333.8C45.1054 336.476 43.6894 338.072 41.7454 338.072ZM41.7454 337.28C43.2094 337.28 44.2174 336.044 44.2174 333.8C44.2174 331.556 43.2094 330.32 41.7454 330.32C40.2814 330.32 39.2734 331.556 39.2734 333.8C39.2734 336.044 40.2814 337.28 41.7454 337.28ZM45.8033 329.6H48.6473V338H47.7833V330.368H45.8033V329.6ZM52.8633 333.044C55.3953 333.044 56.3553 334.04 56.3553 335.528C56.3553 336.956 55.3593 338.072 53.3073 338.072C52.0953 338.072 50.9433 337.652 50.2953 336.992L50.7153 336.308C51.2553 336.872 52.2153 337.28 53.2953 337.28C54.7233 337.28 55.4793 336.584 55.4793 335.564C55.4793 334.484 54.8073 333.812 52.6713 333.812H50.8833L51.3153 329.6H55.9113V330.368H52.0713L51.7833 333.044H52.8633Z" fill="#858C95"/>
<path d="M14.108 312.6H16.952V321H16.088V313.368H14.108V312.6ZM22.3079 321.072C20.3639 321.072 18.9599 319.476 18.9599 316.8C18.9599 314.124 20.3639 312.528 22.3079 312.528C24.2519 312.528 25.6679 314.124 25.6679 316.8C25.6679 319.476 24.2519 321.072 22.3079 321.072ZM22.3079 320.28C23.7719 320.28 24.7799 319.044 24.7799 316.8C24.7799 314.556 23.7719 313.32 22.3079 313.32C20.8439 313.32 19.8359 314.556 19.8359 316.8C19.8359 319.044 20.8439 320.28 22.3079 320.28Z" fill="#858C95"/>
<path d="M15.108 251.6H17.952V260H17.088V252.368H15.108V251.6ZM22.1679 255.044C24.6999 255.044 25.6599 256.04 25.6599 257.528C25.6599 258.956 24.6639 260.072 22.6119 260.072C21.3999 260.072 20.2479 259.652 19.5999 258.992L20.0199 258.308C20.5599 258.872 21.5199 259.28 22.5999 259.28C24.0279 259.28 24.7839 258.584 24.7839 257.564C24.7839 256.484 24.1119 255.812 21.9759 255.812H20.1879L20.6199 251.6H25.2159V252.368H21.3759L21.0879 255.044H22.1679Z" fill="#858C95"/>
<path d="M14.74 136.232H19.36V137H13.468V136.388L16.96 132.968C17.908 132.032 18.088 131.468 18.088 130.892C18.088 129.92 17.404 129.32 16.12 129.32C15.136 129.32 14.38 129.62 13.828 130.256L13.216 129.728C13.864 128.96 14.908 128.528 16.192 128.528C17.896 128.528 18.976 129.392 18.976 130.796C18.976 131.6 18.724 132.32 17.596 133.424L14.74 136.232ZM22.6523 132.044C25.1843 132.044 26.1443 133.04 26.1443 134.528C26.1443 135.956 25.1483 137.072 23.0963 137.072C21.8843 137.072 20.7323 136.652 20.0843 135.992L20.5043 135.308C21.0443 135.872 22.0043 136.28 23.0843 136.28C24.5123 136.28 25.2683 135.584 25.2683 134.564C25.2683 133.484 24.5963 132.812 22.4603 132.812H20.6723L21.1043 128.6H25.7003V129.368H21.8603L21.5723 132.044H22.6523Z" fill="#858C95"/>
<path d="M15.48 70.2C17.28 70.296 18.18 71.244 18.18 72.588C18.18 73.992 17.16 75.072 15.132 75.072C13.92 75.072 12.756 74.652 12.108 73.992L12.528 73.308C13.068 73.872 14.04 74.28 15.132 74.28C16.524 74.28 17.292 73.632 17.292 72.588C17.292 71.58 16.584 70.92 15.024 70.92H14.424V70.284L16.752 67.368H12.456V66.6H17.856V67.212L15.48 70.2ZM22.7454 75.072C20.8014 75.072 19.3974 73.476 19.3974 70.8C19.3974 68.124 20.8014 66.528 22.7454 66.528C24.6894 66.528 26.1054 68.124 26.1054 70.8C26.1054 73.476 24.6894 75.072 22.7454 75.072ZM22.7454 74.28C24.2094 74.28 25.2174 73.044 25.2174 70.8C25.2174 68.556 24.2094 67.32 22.7454 67.32C21.2814 67.32 20.2734 68.556 20.2734 70.8C20.2734 73.044 21.2814 74.28 22.7454 74.28Z" fill="#858C95"/>
<path d="M13.74 197.232H18.36V198H12.468V197.388L15.96 193.968C16.908 193.032 17.088 192.468 17.088 191.892C17.088 190.92 16.404 190.32 15.12 190.32C14.136 190.32 13.38 190.62 12.828 191.256L12.216 190.728C12.864 189.96 13.908 189.528 15.192 189.528C16.896 189.528 17.976 190.392 17.976 191.796C17.976 192.6 17.724 193.32 16.596 194.424L13.74 197.232ZM22.7454 198.072C20.8014 198.072 19.3974 196.476 19.3974 193.8C19.3974 191.124 20.8014 189.528 22.7454 189.528C24.6894 189.528 26.1054 191.124 26.1054 193.8C26.1054 196.476 24.6894 198.072 22.7454 198.072ZM22.7454 197.28C24.2094 197.28 25.2174 196.044 25.2174 193.8C25.2174 191.556 24.2094 190.32 22.7454 190.32C21.2814 190.32 20.2734 191.556 20.2734 193.8C20.2734 196.044 21.2814 197.28 22.7454 197.28Z" fill="#858C95"/>
<path d="M16.48 7.08477C18.28 7.18077 19.18 8.12877 19.18 9.47277C19.18 10.8768 18.16 11.9568 16.132 11.9568C14.92 11.9568 13.756 11.5368 13.108 10.8768L13.528 10.1928C14.068 10.7568 15.04 11.1648 16.132 11.1648C17.524 11.1648 18.292 10.5168 18.292 9.47277C18.292 8.46477 17.584 7.80477 16.024 7.80477H15.424V7.16877L17.752 4.25277H13.456V3.48477H18.856V4.09677L16.48 7.08477ZM22.4883 6.92877C25.0203 6.92877 25.9803 7.92477 25.9803 9.41277C25.9803 10.8408 24.9843 11.9568 22.9323 11.9568C21.7203 11.9568 20.5683 11.5368 19.9203 10.8768L20.3403 10.1928C20.8803 10.7568 21.8403 11.1648 22.9203 11.1648C24.3483 11.1648 25.1043 10.4688 25.1043 9.44877C25.1043 8.36877 24.4323 7.69677 22.2963 7.69677H20.5083L20.9403 3.48477H25.5363V4.25277H21.6963L21.4083 6.92877H22.4883Z" fill="#858C95"/>
<path d="M44.172 225C44.172 224.2 44.2386 223.493 44.372 222.88C44.5186 222.253 44.7253 221.693 44.992 221.2C45.272 220.707 45.6053 220.273 45.992 219.9C46.3786 219.527 46.8186 219.193 47.312 218.9C47.832 218.593 48.3653 218.313 48.912 218.06C49.4586 217.807 49.9653 217.54 50.432 217.26C50.8986 216.98 51.272 216.647 51.552 216.26C51.8453 215.86 51.992 215.367 51.992 214.78C51.992 214.313 51.892 213.893 51.692 213.52C51.492 213.133 51.192 212.827 50.792 212.6C50.392 212.373 49.8786 212.26 49.252 212.26C48.6253 212.26 48.0586 212.367 47.552 212.58C47.0586 212.793 46.632 213.047 46.272 213.34C45.912 213.633 45.6253 213.913 45.412 214.18L44.272 213.04C44.3786 212.907 44.5653 212.707 44.832 212.44C45.112 212.173 45.4653 211.9 45.892 211.62C46.332 211.34 46.8453 211.107 47.432 210.92C48.0186 210.72 48.6853 210.62 49.432 210.62C50.432 210.62 51.2653 210.807 51.932 211.18C52.5986 211.553 53.0986 212.053 53.432 212.68C53.7786 213.307 53.952 214 53.952 214.76C53.952 215.44 53.8253 216.027 53.572 216.52C53.3186 217 52.992 217.407 52.592 217.74C52.192 218.073 51.752 218.367 51.272 218.62C50.8053 218.873 50.352 219.113 49.912 219.34C49.072 219.74 48.4053 220.107 47.912 220.44C47.4186 220.773 47.0386 221.1 46.772 221.42C46.5186 221.727 46.3453 222.04 46.252 222.36C46.172 222.68 46.1253 223.027 46.112 223.4H53.972V225H44.172ZM60.6688 225.18C59.8555 225.18 59.1155 225.053 58.4488 224.8C57.7955 224.533 57.2488 224.167 56.8088 223.7C56.3822 223.22 56.1022 222.667 55.9688 222.04L56.9688 220.98C57.0088 221.367 57.1822 221.76 57.4888 222.16C57.7955 222.56 58.2155 222.893 58.7488 223.16C59.2955 223.413 59.9288 223.54 60.6488 223.54C61.2622 223.54 61.8155 223.44 62.3088 223.24C62.8022 223.027 63.1955 222.733 63.4888 222.36C63.7822 221.987 63.9288 221.553 63.9288 221.06C63.9288 220.513 63.7488 220.047 63.3888 219.66C63.0288 219.273 62.5155 218.98 61.8488 218.78C61.1955 218.58 60.4155 218.48 59.5088 218.48H58.8288V216.98H59.5088C60.7355 216.98 61.7155 216.787 62.4488 216.4C63.1822 216 63.5488 215.407 63.5488 214.62C63.5488 214.113 63.4088 213.68 63.1288 213.32C62.8622 212.947 62.5022 212.667 62.0488 212.48C61.6088 212.28 61.1355 212.18 60.6288 212.18C59.7755 212.18 59.0488 212.373 58.4488 212.76C57.8622 213.133 57.4488 213.573 57.2088 214.08L56.0288 212.86C56.2955 212.393 56.6688 211.993 57.1488 211.66C57.6288 211.327 58.1688 211.073 58.7688 210.9C59.3688 210.713 59.9822 210.62 60.6088 210.62C61.5288 210.62 62.3488 210.793 63.0688 211.14C63.8022 211.487 64.3755 211.953 64.7888 212.54C65.2022 213.127 65.4088 213.793 65.4088 214.54C65.4088 215.073 65.3022 215.553 65.0888 215.98C64.8755 216.393 64.5622 216.74 64.1488 217.02C63.7355 217.3 63.2355 217.513 62.6488 217.66C63.2755 217.767 63.8222 217.993 64.2888 218.34C64.7555 218.687 65.1155 219.113 65.3688 219.62C65.6222 220.127 65.7488 220.68 65.7488 221.28C65.7488 222.107 65.5088 222.813 65.0288 223.4C64.5488 223.973 63.9222 224.413 63.1488 224.72C62.3888 225.027 61.5622 225.18 60.6688 225.18Z" fill="#2F2F2F"/>
<path d="M648.921 53.18C648.107 53.18 647.367 53.0533 646.701 52.8C646.047 52.5333 645.501 52.1667 645.061 51.7C644.634 51.22 644.354 50.6667 644.221 50.04L645.221 48.98C645.261 49.3667 645.434 49.76 645.741 50.16C646.047 50.56 646.467 50.8933 647.001 51.16C647.547 51.4133 648.181 51.54 648.901 51.54C649.514 51.54 650.067 51.44 650.561 51.24C651.054 51.0267 651.447 50.7333 651.741 50.36C652.034 49.9867 652.181 49.5533 652.181 49.06C652.181 48.5133 652.001 48.0467 651.641 47.66C651.281 47.2733 650.767 46.98 650.101 46.78C649.447 46.58 648.667 46.48 647.761 46.48H647.081V44.98H647.761C648.987 44.98 649.967 44.7867 650.701 44.4C651.434 44 651.801 43.4067 651.801 42.62C651.801 42.1133 651.661 41.68 651.381 41.32C651.114 40.9467 650.754 40.6667 650.301 40.48C649.861 40.28 649.387 40.18 648.881 40.18C648.027 40.18 647.301 40.3733 646.701 40.76C646.114 41.1333 645.701 41.5733 645.461 42.08L644.281 40.86C644.547 40.3933 644.921 39.9933 645.401 39.66C645.881 39.3267 646.421 39.0733 647.021 38.9C647.621 38.7133 648.234 38.62 648.861 38.62C649.781 38.62 650.601 38.7933 651.321 39.14C652.054 39.4867 652.627 39.9533 653.041 40.54C653.454 41.1267 653.661 41.7933 653.661 42.54C653.661 43.0733 653.554 43.5533 653.341 43.98C653.127 44.3933 652.814 44.74 652.401 45.02C651.987 45.3 651.487 45.5133 650.901 45.66C651.527 45.7667 652.074 45.9933 652.541 46.34C653.007 46.6867 653.367 47.1133 653.621 47.62C653.874 48.1267 654.001 48.68 654.001 49.28C654.001 50.1067 653.761 50.8133 653.281 51.4C652.801 51.9733 652.174 52.4133 651.401 52.72C650.641 53.0267 649.814 53.18 648.921 53.18ZM660.62 53.18C659.807 53.18 659.067 53.0533 658.4 52.8C657.747 52.5333 657.2 52.1667 656.76 51.7C656.333 51.22 656.053 50.6667 655.92 50.04L656.92 48.98C656.96 49.3667 657.133 49.76 657.44 50.16C657.747 50.56 658.167 50.8933 658.7 51.16C659.247 51.4133 659.88 51.54 660.6 51.54C661.213 51.54 661.767 51.44 662.26 51.24C662.753 51.0267 663.147 50.7333 663.44 50.36C663.733 49.9867 663.88 49.5533 663.88 49.06C663.88 48.5133 663.7 48.0467 663.34 47.66C662.98 47.2733 662.467 46.98 661.8 46.78C661.147 46.58 660.367 46.48 659.46 46.48H658.78V44.98H659.46C660.687 44.98 661.667 44.7867 662.4 44.4C663.133 44 663.5 43.4067 663.5 42.62C663.5 42.1133 663.36 41.68 663.08 41.32C662.813 40.9467 662.453 40.6667 662 40.48C661.56 40.28 661.087 40.18 660.58 40.18C659.727 40.18 659 40.3733 658.4 40.76C657.813 41.1333 657.4 41.5733 657.16 42.08L655.98 40.86C656.247 40.3933 656.62 39.9933 657.1 39.66C657.58 39.3267 658.12 39.0733 658.72 38.9C659.32 38.7133 659.933 38.62 660.56 38.62C661.48 38.62 662.3 38.7933 663.02 39.14C663.753 39.4867 664.327 39.9533 664.74 40.54C665.153 41.1267 665.36 41.7933 665.36 42.54C665.36 43.0733 665.253 43.5533 665.04 43.98C664.827 44.3933 664.513 44.74 664.1 45.02C663.687 45.3 663.187 45.5133 662.6 45.66C663.227 45.7667 663.773 45.9933 664.24 46.34C664.707 46.6867 665.067 47.1133 665.32 47.62C665.573 48.1267 665.7 48.68 665.7 49.28C665.7 50.1067 665.46 50.8133 664.98 51.4C664.5 51.9733 663.873 52.4133 663.1 52.72C662.34 53.0267 661.513 53.18 660.62 53.18Z" fill="#2F2F2F"/>
<path d="M680 60.0001C680 60.0001 548 138.371 463 161C378 183.629 265.5 205.662 247 208C228.5 210.338 31 240 31 240" stroke="#2D6FD0" stroke-width="2"/>
<path d="M679 65C677.674 65 676.403 64.4734 675.465 63.536C674.527 62.5986 674 61.3271 674 60.0013C674 58.6754 674.526 57.4037 675.463 56.4658C676.4 55.5279 677.672 55.0007 678.998 55C680.323 54.9993 681.595 55.5253 682.533 56.4623C683.471 57.3992 683.999 58.6704 684 59.9962C684.001 61.3221 683.475 62.5941 682.539 63.5324C681.602 64.4708 680.331 64.9987 679.005 65H679Z" fill="#2D6FD0"/>
<path d="M463 166C461.674 166 460.403 165.473 459.465 164.536C458.527 163.599 458 162.327 458 161.001C458 159.675 458.526 158.404 459.463 157.466C460.4 156.528 461.672 156.001 462.998 156C464.323 155.999 465.595 156.525 466.533 157.462C467.471 158.399 467.999 159.67 468 160.996C468.001 162.322 467.475 163.594 466.539 164.532C465.602 165.471 464.331 165.999 463.005 166H463Z" fill="#2D6FD0"/>
<path d="M247 213C245.674 213 244.403 212.473 243.465 211.536C242.527 210.599 242 209.327 242 208.001C242 206.675 242.526 205.404 243.463 204.466C244.4 203.528 245.672 203.001 246.998 203C248.323 202.999 249.595 203.525 250.533 204.462C251.471 205.399 251.999 206.67 252 207.996C252.001 209.322 251.475 210.594 250.539 211.532C249.602 212.471 248.331 212.999 247.005 213H247Z" fill="#2D6FD0"/>
<path d="M31 245C29.6741 245 28.4025 244.473 27.4649 243.536C26.5273 242.599 26.0003 241.327 26 240.001C25.9997 238.675 26.526 237.404 27.4631 236.466C28.4003 235.528 29.6716 235.001 30.9975 235C32.3234 234.999 33.5952 235.525 34.5333 236.462C35.4714 237.399 35.999 238.67 36 239.996C36.001 241.322 35.4753 242.594 34.5386 243.532C33.6019 244.471 32.3309 244.999 31.005 245H31Z" fill="#2D6FD0"/>
</svg>
