<svg width="283" height="297" viewBox="0 0 283 297" fill="none" xmlns="http://www.w3.org/2000/svg">
<path d="M62 5L62 278" stroke="#F5F6F7"/>
<path d="M106 5L106 278" stroke="#F5F6F7"/>
<path d="M192 5L192 278" stroke="#F5F6F7"/>
<path d="M149 5L149 279" stroke="#F5F6F7"/>
<path d="M236 5L236 278" stroke="#F5F6F7"/>
<path d="M279 5L279 278" stroke="#F5F6F7"/>
<path d="M19 221H279" stroke="#F5F6F7"/>
<path d="M19 167L279 167" stroke="#F5F6F7"/>
<path d="M19 114L279 114" stroke="#F5F6F7"/>
<path d="M19 59L279 59" stroke="#F5F6F7"/>
<path d="M19 5H279" stroke="#F5F6F7"/>
<path d="M19 278L279 278" stroke="#F5F6F7"/>
<path d="M19 5L19 278" stroke="#F5F6F7"/>
<path d="M19.7963 294V293.49L22.7063 290.64C22.9729 290.38 23.1729 290.153 23.3063 289.96C23.4396 289.76 23.5296 289.573 23.5763 289.4C23.6229 289.227 23.6463 289.063 23.6463 288.91C23.6463 288.503 23.5063 288.183 23.2263 287.95C22.9529 287.717 22.5463 287.6 22.0063 287.6C21.5929 287.6 21.2263 287.663 20.9063 287.79C20.5929 287.917 20.3229 288.113 20.0963 288.38L19.5863 287.94C19.8596 287.62 20.2096 287.373 20.6363 287.2C21.0629 287.027 21.5396 286.94 22.0663 286.94C22.5396 286.94 22.9496 287.017 23.2963 287.17C23.6429 287.317 23.9096 287.533 24.0963 287.82C24.2896 288.107 24.3863 288.443 24.3863 288.83C24.3863 289.057 24.3529 289.28 24.2863 289.5C24.2263 289.72 24.1129 289.953 23.9463 290.2C23.7863 290.44 23.5496 290.713 23.2363 291.02L20.5663 293.64L20.3663 293.36H24.7063V294H19.7963ZM28.3803 294.06C27.8403 294.06 27.3603 293.92 26.9403 293.64C26.5203 293.353 26.1903 292.947 25.9503 292.42C25.7103 291.887 25.5903 291.247 25.5903 290.5C25.5903 289.753 25.7103 289.117 25.9503 288.59C26.1903 288.057 26.5203 287.65 26.9403 287.37C27.3603 287.083 27.8403 286.94 28.3803 286.94C28.9203 286.94 29.4003 287.083 29.8203 287.37C30.2403 287.65 30.5703 288.057 30.8103 288.59C31.057 289.117 31.1803 289.753 31.1803 290.5C31.1803 291.247 31.057 291.887 30.8103 292.42C30.5703 292.947 30.2403 293.353 29.8203 293.64C29.4003 293.92 28.9203 294.06 28.3803 294.06ZM28.3803 293.4C28.7936 293.4 29.1536 293.29 29.4603 293.07C29.767 292.843 30.007 292.517 30.1803 292.09C30.3536 291.657 30.4403 291.127 30.4403 290.5C30.4403 289.873 30.3536 289.347 30.1803 288.92C30.007 288.487 29.767 288.16 29.4603 287.94C29.1536 287.713 28.7936 287.6 28.3803 287.6C27.9803 287.6 27.6236 287.713 27.3103 287.94C26.997 288.16 26.7536 288.487 26.5803 288.92C26.407 289.347 26.3203 289.873 26.3203 290.5C26.3203 291.127 26.407 291.657 26.5803 292.09C26.7536 292.517 26.997 292.843 27.3103 293.07C27.6236 293.29 27.9803 293.4 28.3803 293.4ZM33.4314 294V287.3L33.7514 287.64H31.7814V287H34.1514V294H33.4314ZM38.0347 294.06C37.5347 294.06 37.058 293.98 36.6047 293.82C36.1514 293.653 35.7914 293.433 35.5247 293.16L35.8747 292.59C36.0947 292.823 36.3947 293.017 36.7747 293.17C37.1614 293.323 37.578 293.4 38.0247 293.4C38.618 293.4 39.068 293.27 39.3747 293.01C39.688 292.743 39.8447 292.397 39.8447 291.97C39.8447 291.67 39.7714 291.413 39.6247 291.2C39.4847 290.98 39.2447 290.81 38.9047 290.69C38.5647 290.57 38.098 290.51 37.5047 290.51H36.0147L36.3747 287H40.2047V287.64H36.6647L37.0347 287.29L36.7247 290.23L36.3547 289.87H37.6647C38.3714 289.87 38.938 289.957 39.3647 290.13C39.7914 290.303 40.098 290.547 40.2847 290.86C40.478 291.167 40.5747 291.527 40.5747 291.94C40.5747 292.333 40.4814 292.693 40.2947 293.02C40.108 293.34 39.828 293.593 39.4547 293.78C39.0814 293.967 38.608 294.06 38.0347 294.06Z" fill="#858C95"/>
<path d="M180.796 294V293.49L183.706 290.64C183.973 290.38 184.173 290.153 184.306 289.96C184.44 289.76 184.53 289.573 184.576 289.4C184.623 289.227 184.646 289.063 184.646 288.91C184.646 288.503 184.506 288.183 184.226 287.95C183.953 287.717 183.546 287.6 183.006 287.6C182.593 287.6 182.226 287.663 181.906 287.79C181.593 287.917 181.323 288.113 181.096 288.38L180.586 287.94C180.86 287.62 181.21 287.373 181.636 287.2C182.063 287.027 182.54 286.94 183.066 286.94C183.54 286.94 183.95 287.017 184.296 287.17C184.643 287.317 184.91 287.533 185.096 287.82C185.29 288.107 185.386 288.443 185.386 288.83C185.386 289.057 185.353 289.28 185.286 289.5C185.226 289.72 185.113 289.953 184.946 290.2C184.786 290.44 184.55 290.713 184.236 291.02L181.566 293.64L181.366 293.36H185.706V294H180.796ZM189.38 294.06C188.84 294.06 188.36 293.92 187.94 293.64C187.52 293.353 187.19 292.947 186.95 292.42C186.71 291.887 186.59 291.247 186.59 290.5C186.59 289.753 186.71 289.117 186.95 288.59C187.19 288.057 187.52 287.65 187.94 287.37C188.36 287.083 188.84 286.94 189.38 286.94C189.92 286.94 190.4 287.083 190.82 287.37C191.24 287.65 191.57 288.057 191.81 288.59C192.057 289.117 192.18 289.753 192.18 290.5C192.18 291.247 192.057 291.887 191.81 292.42C191.57 292.947 191.24 293.353 190.82 293.64C190.4 293.92 189.92 294.06 189.38 294.06ZM189.38 293.4C189.794 293.4 190.154 293.29 190.46 293.07C190.767 292.843 191.007 292.517 191.18 292.09C191.354 291.657 191.44 291.127 191.44 290.5C191.44 289.873 191.354 289.347 191.18 288.92C191.007 288.487 190.767 288.16 190.46 287.94C190.154 287.713 189.794 287.6 189.38 287.6C188.98 287.6 188.624 287.713 188.31 287.94C187.997 288.16 187.754 288.487 187.58 288.92C187.407 289.347 187.32 289.873 187.32 290.5C187.32 291.127 187.407 291.657 187.58 292.09C187.754 292.517 187.997 292.843 188.31 293.07C188.624 293.29 188.98 293.4 189.38 293.4ZM193.081 294V293.49L195.991 290.64C196.258 290.38 196.458 290.153 196.591 289.96C196.725 289.76 196.815 289.573 196.861 289.4C196.908 289.227 196.931 289.063 196.931 288.91C196.931 288.503 196.791 288.183 196.511 287.95C196.238 287.717 195.831 287.6 195.291 287.6C194.878 287.6 194.511 287.663 194.191 287.79C193.878 287.917 193.608 288.113 193.381 288.38L192.871 287.94C193.145 287.62 193.495 287.373 193.921 287.2C194.348 287.027 194.825 286.94 195.351 286.94C195.825 286.94 196.235 287.017 196.581 287.17C196.928 287.317 197.195 287.533 197.381 287.82C197.575 288.107 197.671 288.443 197.671 288.83C197.671 289.057 197.638 289.28 197.571 289.5C197.511 289.72 197.398 289.953 197.231 290.2C197.071 290.44 196.835 290.713 196.521 291.02L193.851 293.64L193.651 293.36H197.991V294H193.081ZM201.105 294.06C200.605 294.06 200.128 293.98 199.675 293.82C199.222 293.653 198.862 293.433 198.595 293.16L198.945 292.59C199.165 292.823 199.465 293.017 199.845 293.17C200.232 293.323 200.648 293.4 201.095 293.4C201.688 293.4 202.138 293.27 202.445 293.01C202.758 292.743 202.915 292.397 202.915 291.97C202.915 291.67 202.842 291.413 202.695 291.2C202.555 290.98 202.315 290.81 201.975 290.69C201.635 290.57 201.168 290.51 200.575 290.51H199.085L199.445 287H203.275V287.64H199.735L200.105 287.29L199.795 290.23L199.425 289.87H200.735C201.442 289.87 202.008 289.957 202.435 290.13C202.862 290.303 203.168 290.547 203.355 290.86C203.548 291.167 203.645 291.527 203.645 291.94C203.645 292.333 203.552 292.693 203.365 293.02C203.178 293.34 202.898 293.593 202.525 293.78C202.152 293.967 201.678 294.06 201.105 294.06Z" fill="#858C95"/>
<path d="M93.7963 294V293.49L96.7063 290.64C96.9729 290.38 97.1729 290.153 97.3063 289.96C97.4396 289.76 97.5296 289.573 97.5763 289.4C97.6229 289.227 97.6463 289.063 97.6463 288.91C97.6463 288.503 97.5063 288.183 97.2263 287.95C96.9529 287.717 96.5463 287.6 96.0063 287.6C95.5929 287.6 95.2263 287.663 94.9063 287.79C94.5929 287.917 94.3229 288.113 94.0963 288.38L93.5863 287.94C93.8596 287.62 94.2096 287.373 94.6363 287.2C95.0629 287.027 95.5396 286.94 96.0663 286.94C96.5396 286.94 96.9496 287.017 97.2963 287.17C97.6429 287.317 97.9096 287.533 98.0963 287.82C98.2896 288.107 98.3863 288.443 98.3863 288.83C98.3863 289.057 98.3529 289.28 98.2863 289.5C98.2263 289.72 98.1129 289.953 97.9463 290.2C97.7863 290.44 97.5496 290.713 97.2363 291.02L94.5663 293.64L94.3663 293.36H98.7063V294H93.7963ZM102.38 294.06C101.84 294.06 101.36 293.92 100.94 293.64C100.52 293.353 100.19 292.947 99.9503 292.42C99.7103 291.887 99.5903 291.247 99.5903 290.5C99.5903 289.753 99.7103 289.117 99.9503 288.59C100.19 288.057 100.52 287.65 100.94 287.37C101.36 287.083 101.84 286.94 102.38 286.94C102.92 286.94 103.4 287.083 103.82 287.37C104.24 287.65 104.57 288.057 104.81 288.59C105.057 289.117 105.18 289.753 105.18 290.5C105.18 291.247 105.057 291.887 104.81 292.42C104.57 292.947 104.24 293.353 103.82 293.64C103.4 293.92 102.92 294.06 102.38 294.06ZM102.38 293.4C102.794 293.4 103.154 293.29 103.46 293.07C103.767 292.843 104.007 292.517 104.18 292.09C104.354 291.657 104.44 291.127 104.44 290.5C104.44 289.873 104.354 289.347 104.18 288.92C104.007 288.487 103.767 288.16 103.46 287.94C103.154 287.713 102.794 287.6 102.38 287.6C101.98 287.6 101.624 287.713 101.31 287.94C100.997 288.16 100.754 288.487 100.58 288.92C100.407 289.347 100.32 289.873 100.32 290.5C100.32 291.127 100.407 291.657 100.58 292.09C100.754 292.517 100.997 292.843 101.31 293.07C101.624 293.29 101.98 293.4 102.38 293.4ZM107.431 294V287.3L107.751 287.64H105.781V287H108.151V294H107.431ZM112.485 294.06C111.925 294.06 111.441 293.98 111.035 293.82C110.635 293.66 110.325 293.43 110.105 293.13C109.891 292.823 109.785 292.463 109.785 292.05C109.785 291.65 109.888 291.31 110.095 291.03C110.308 290.743 110.615 290.523 111.015 290.37C111.421 290.217 111.911 290.14 112.485 290.14C113.051 290.14 113.538 290.217 113.945 290.37C114.351 290.523 114.661 290.743 114.875 291.03C115.095 291.31 115.205 291.65 115.205 292.05C115.205 292.463 115.095 292.823 114.875 293.13C114.655 293.43 114.341 293.66 113.935 293.82C113.528 293.98 113.045 294.06 112.485 294.06ZM112.485 293.45C113.105 293.45 113.588 293.323 113.935 293.07C114.288 292.817 114.465 292.473 114.465 292.04C114.465 291.607 114.288 291.267 113.935 291.02C113.588 290.767 113.105 290.64 112.485 290.64C111.865 290.64 111.381 290.767 111.035 291.02C110.688 291.267 110.515 291.607 110.515 292.04C110.515 292.473 110.688 292.817 111.035 293.07C111.381 293.323 111.865 293.45 112.485 293.45ZM112.485 290.55C111.965 290.55 111.521 290.48 111.155 290.34C110.795 290.2 110.518 290 110.325 289.74C110.131 289.473 110.035 289.157 110.035 288.79C110.035 288.403 110.135 288.073 110.335 287.8C110.541 287.52 110.828 287.307 111.195 287.16C111.561 287.013 111.991 286.94 112.485 286.94C112.978 286.94 113.408 287.013 113.775 287.16C114.148 287.307 114.438 287.52 114.645 287.8C114.851 288.073 114.955 288.403 114.955 288.79C114.955 289.157 114.858 289.473 114.665 289.74C114.471 290 114.188 290.2 113.815 290.34C113.448 290.48 113.005 290.55 112.485 290.55ZM112.485 290.07C113.031 290.07 113.458 289.957 113.765 289.73C114.071 289.503 114.225 289.2 114.225 288.82C114.225 288.42 114.065 288.11 113.745 287.89C113.431 287.663 113.011 287.55 112.485 287.55C111.958 287.55 111.538 287.663 111.225 287.89C110.911 288.11 110.755 288.417 110.755 288.81C110.755 289.197 110.905 289.503 111.205 289.73C111.511 289.957 111.938 290.07 112.485 290.07Z" fill="#858C95"/>
<path d="M255.796 294V293.49L258.706 290.64C258.973 290.38 259.173 290.153 259.306 289.96C259.44 289.76 259.53 289.573 259.576 289.4C259.623 289.227 259.646 289.063 259.646 288.91C259.646 288.503 259.506 288.183 259.226 287.95C258.953 287.717 258.546 287.6 258.006 287.6C257.593 287.6 257.226 287.663 256.906 287.79C256.593 287.917 256.323 288.113 256.096 288.38L255.586 287.94C255.86 287.62 256.21 287.373 256.636 287.2C257.063 287.027 257.54 286.94 258.066 286.94C258.54 286.94 258.95 287.017 259.296 287.17C259.643 287.317 259.91 287.533 260.096 287.82C260.29 288.107 260.386 288.443 260.386 288.83C260.386 289.057 260.353 289.28 260.286 289.5C260.226 289.72 260.113 289.953 259.946 290.2C259.786 290.44 259.55 290.713 259.236 291.02L256.566 293.64L256.366 293.36H260.706V294H255.796ZM264.38 294.06C263.84 294.06 263.36 293.92 262.94 293.64C262.52 293.353 262.19 292.947 261.95 292.42C261.71 291.887 261.59 291.247 261.59 290.5C261.59 289.753 261.71 289.117 261.95 288.59C262.19 288.057 262.52 287.65 262.94 287.37C263.36 287.083 263.84 286.94 264.38 286.94C264.92 286.94 265.4 287.083 265.82 287.37C266.24 287.65 266.57 288.057 266.81 288.59C267.057 289.117 267.18 289.753 267.18 290.5C267.18 291.247 267.057 291.887 266.81 292.42C266.57 292.947 266.24 293.353 265.82 293.64C265.4 293.92 264.92 294.06 264.38 294.06ZM264.38 293.4C264.794 293.4 265.154 293.29 265.46 293.07C265.767 292.843 266.007 292.517 266.18 292.09C266.354 291.657 266.44 291.127 266.44 290.5C266.44 289.873 266.354 289.347 266.18 288.92C266.007 288.487 265.767 288.16 265.46 287.94C265.154 287.713 264.794 287.6 264.38 287.6C263.98 287.6 263.624 287.713 263.31 287.94C262.997 288.16 262.754 288.487 262.58 288.92C262.407 289.347 262.32 289.873 262.32 290.5C262.32 291.127 262.407 291.657 262.58 292.09C262.754 292.517 262.997 292.843 263.31 293.07C263.624 293.29 263.98 293.4 264.38 293.4ZM270.204 294.06C269.697 294.06 269.217 293.98 268.764 293.82C268.317 293.653 267.957 293.433 267.684 293.16L268.034 292.59C268.26 292.823 268.564 293.017 268.944 293.17C269.33 293.323 269.75 293.4 270.204 293.4C270.784 293.4 271.227 293.273 271.534 293.02C271.847 292.767 272.004 292.427 272.004 292C272.004 291.573 271.85 291.233 271.544 290.98C271.244 290.727 270.767 290.6 270.114 290.6H269.614V290.07L271.774 287.36L271.874 287.64H267.974V287H272.474V287.51L270.314 290.22L269.964 289.99H270.234C271.074 289.99 271.7 290.177 272.114 290.55C272.534 290.923 272.744 291.403 272.744 291.99C272.744 292.383 272.65 292.737 272.464 293.05C272.277 293.363 271.994 293.61 271.614 293.79C271.24 293.97 270.77 294.06 270.204 294.06ZM276.548 294.06C276.008 294.06 275.528 293.92 275.108 293.64C274.688 293.353 274.358 292.947 274.118 292.42C273.878 291.887 273.758 291.247 273.758 290.5C273.758 289.753 273.878 289.117 274.118 288.59C274.358 288.057 274.688 287.65 275.108 287.37C275.528 287.083 276.008 286.94 276.548 286.94C277.088 286.94 277.568 287.083 277.988 287.37C278.408 287.65 278.738 288.057 278.978 288.59C279.225 289.117 279.348 289.753 279.348 290.5C279.348 291.247 279.225 291.887 278.978 292.42C278.738 292.947 278.408 293.353 277.988 293.64C277.568 293.92 277.088 294.06 276.548 294.06ZM276.548 293.4C276.962 293.4 277.322 293.29 277.628 293.07C277.935 292.843 278.175 292.517 278.348 292.09C278.522 291.657 278.608 291.127 278.608 290.5C278.608 289.873 278.522 289.347 278.348 288.92C278.175 288.487 277.935 288.16 277.628 287.94C277.322 287.713 276.962 287.6 276.548 287.6C276.148 287.6 275.792 287.713 275.478 287.94C275.165 288.16 274.922 288.487 274.748 288.92C274.575 289.347 274.488 289.873 274.488 290.5C274.488 291.127 274.575 291.657 274.748 292.09C274.922 292.517 275.165 292.843 275.478 293.07C275.792 293.29 276.148 293.4 276.548 293.4Z" fill="#858C95"/>
<path d="M2.09 271H4.46V278H3.74V271.64H2.09V271ZM8.92328 278.06C7.30328 278.06 6.13328 276.73 6.13328 274.5C6.13328 272.27 7.30328 270.94 8.92328 270.94C10.5433 270.94 11.7233 272.27 11.7233 274.5C11.7233 276.73 10.5433 278.06 8.92328 278.06ZM8.92328 277.4C10.1433 277.4 10.9833 276.37 10.9833 274.5C10.9833 272.63 10.1433 271.6 8.92328 271.6C7.70328 271.6 6.86328 272.63 6.86328 274.5C6.86328 276.37 7.70328 277.4 8.92328 277.4Z" fill="#858C95"/>
<path d="M3.09 217H5.46V224H4.74V217.64H3.09V217ZM8.97328 219.87C11.0833 219.87 11.8833 220.7 11.8833 221.94C11.8833 223.13 11.0533 224.06 9.34328 224.06C8.33328 224.06 7.37328 223.71 6.83328 223.16L7.18328 222.59C7.63328 223.06 8.43328 223.4 9.33328 223.4C10.5233 223.4 11.1533 222.82 11.1533 221.97C11.1533 221.07 10.5933 220.51 8.81328 220.51H7.32328L7.68328 217H11.5133V217.64H8.31328L8.07328 219.87H8.97328Z" fill="#858C95"/>
<path d="M2.45 115.36H6.3V116H1.39V115.49L4.3 112.64C5.09 111.86 5.24 111.39 5.24 110.91C5.24 110.1 4.67 109.6 3.6 109.6C2.78 109.6 2.15 109.85 1.69 110.38L1.18 109.94C1.72 109.3 2.59 108.94 3.66 108.94C5.08 108.94 5.98 109.66 5.98 110.83C5.98 111.5 5.77 112.1 4.83 113.02L2.45 115.36ZM9.04359 111.87C11.1536 111.87 11.9536 112.7 11.9536 113.94C11.9536 115.13 11.1236 116.06 9.41359 116.06C8.40359 116.06 7.44359 115.71 6.90359 115.16L7.25359 114.59C7.70359 115.06 8.50359 115.4 9.40359 115.4C10.5936 115.4 11.2236 114.82 11.2236 113.97C11.2236 113.07 10.6636 112.51 8.88359 112.51H7.39359L7.75359 109H11.5836V109.64H8.38359L8.14359 111.87H9.04359Z" fill="#858C95"/>
<path d="M2.9 58C4.4 58.08 5.15 58.87 5.15 59.99C5.15 61.16 4.3 62.06 2.61 62.06C1.6 62.06 0.63 61.71 0.09 61.16L0.44 60.59C0.89 61.06 1.7 61.4 2.61 61.4C3.77 61.4 4.41 60.86 4.41 59.99C4.41 59.15 3.82 58.6 2.52 58.6H2.02V58.07L3.96 55.64H0.38V55H4.88V55.51L2.9 58ZM8.95453 62.06C7.33453 62.06 6.16453 60.73 6.16453 58.5C6.16453 56.27 7.33453 54.94 8.95453 54.94C10.5745 54.94 11.7545 56.27 11.7545 58.5C11.7545 60.73 10.5745 62.06 8.95453 62.06ZM8.95453 61.4C10.1745 61.4 11.0145 60.37 11.0145 58.5C11.0145 56.63 10.1745 55.6 8.95453 55.6C7.73453 55.6 6.89453 56.63 6.89453 58.5C6.89453 60.37 7.73453 61.4 8.95453 61.4Z" fill="#858C95"/>
<path d="M1.45 169.36H5.3V170H0.39V169.49L3.3 166.64C4.09 165.86 4.24 165.39 4.24 164.91C4.24 164.1 3.67 163.6 2.6 163.6C1.78 163.6 1.15 163.85 0.69 164.38L0.18 163.94C0.72 163.3 1.59 162.94 2.66 162.94C4.08 162.94 4.98 163.66 4.98 164.83C4.98 165.5 4.77 166.1 3.83 167.02L1.45 169.36ZM8.95453 170.06C7.33453 170.06 6.16453 168.73 6.16453 166.5C6.16453 164.27 7.33453 162.94 8.95453 162.94C10.5745 162.94 11.7545 164.27 11.7545 166.5C11.7545 168.73 10.5745 170.06 8.95453 170.06ZM8.95453 169.4C10.1745 169.4 11.0145 168.37 11.0145 166.5C11.0145 164.63 10.1745 163.6 8.95453 163.6C7.73453 163.6 6.89453 164.63 6.89453 166.5C6.89453 168.37 7.73453 169.4 8.95453 169.4Z" fill="#858C95"/>
<path d="M3.9 4.1875C5.4 4.2675 6.15 5.0575 6.15 6.1775C6.15 7.3475 5.3 8.2475 3.61 8.2475C2.6 8.2475 1.63 7.8975 1.09 7.3475L1.44 6.7775C1.89 7.2475 2.7 7.5875 3.61 7.5875C4.77 7.5875 5.41 7.0475 5.41 6.1775C5.41 5.3375 4.82 4.7875 3.52 4.7875H3.02V4.2575L4.96 1.8275H1.38V1.1875H5.88V1.6975L3.9 4.1875ZM8.90688 4.0575C11.0169 4.0575 11.8169 4.8875 11.8169 6.1275C11.8169 7.3175 10.9869 8.2475 9.27688 8.2475C8.26688 8.2475 7.30688 7.8975 6.76688 7.3475L7.11688 6.7775C7.56688 7.2475 8.36688 7.5875 9.26688 7.5875C10.4569 7.5875 11.0869 7.0075 11.0869 6.1575C11.0869 5.2575 10.5269 4.6975 8.74688 4.6975H7.25688L7.61688 1.1875H11.4469V1.8275H8.24688L8.00688 4.0575H8.90688Z" fill="#858C95"/>
<path d="M279 30C279 30 218.5 70.5 192 85.5C165.5 100.5 134.5 117 104.5 125C74.5 133 19 141 19 141" stroke="#2D6FD0" stroke-width="2"/>
<path d="M19.4069 144.64C18.4372 144.64 17.5072 144.255 16.8214 143.569C16.1356 142.884 15.7502 141.954 15.75 140.984C15.7498 140.014 16.1347 139.084 16.8201 138.398C17.5056 137.712 18.4354 137.327 19.4051 137.326C20.3748 137.326 21.305 137.71 21.9912 138.396C22.6773 139.081 23.0631 140.011 23.0639 140.98C23.0646 141.95 22.6801 142.88 21.995 143.567C21.3099 144.253 20.3803 144.639 19.4106 144.64H19.4069Z" fill="#2D6FD0"/>
<path d="M192.368 89.4135C191.398 89.4135 190.468 89.0283 189.782 88.3427C189.097 87.6571 188.711 86.7272 188.711 85.7575C188.711 84.7877 189.096 83.8576 189.781 83.1717C190.467 82.4857 191.396 82.1001 192.366 82.0996C193.336 82.0991 194.266 82.4838 194.952 83.1691C195.638 83.8543 196.024 84.7841 196.025 85.7538C196.026 86.7235 195.641 87.6538 194.956 88.3401C194.271 89.0264 193.341 89.4125 192.372 89.4135H192.368Z" fill="#2D6FD0"/>
<path d="M106.391 128.206C105.422 128.206 104.492 127.821 103.806 127.136C103.12 126.45 102.735 125.52 102.734 124.55C102.734 123.581 103.119 122.651 103.805 121.965C104.49 121.279 105.42 120.893 106.389 120.893C107.359 120.892 108.289 121.277 108.976 121.962C109.662 122.647 110.048 123.577 110.048 124.547C110.049 125.516 109.665 126.447 108.979 127.133C108.294 127.819 107.365 128.205 106.395 128.206H106.391Z" fill="#2D6FD0"/>
<path d="M279.344 33.142C278.375 33.142 277.445 32.7568 276.759 32.0712C276.073 31.3856 275.688 30.4557 275.688 29.486C275.687 28.5163 276.072 27.5861 276.758 26.9002C277.443 26.2142 278.373 25.8286 279.343 25.8281C280.312 25.8276 281.243 26.2123 281.929 26.8976C282.615 27.5829 283.001 28.5126 283.001 29.4823C283.002 30.452 282.618 31.3823 281.933 32.0686C281.247 32.7549 280.318 33.141 279.348 33.142L279.344 33.142Z" fill="#2D6FD0"/>
<path d="M22.879 132C22.879 131.4 22.929 130.87 23.029 130.41C23.139 129.94 23.294 129.52 23.494 129.15C23.704 128.78 23.954 128.455 24.244 128.175C24.534 127.895 24.864 127.645 25.234 127.425C25.624 127.195 26.024 126.985 26.434 126.795C26.844 126.605 27.224 126.405 27.574 126.195C27.924 125.985 28.204 125.735 28.414 125.445C28.634 125.145 28.744 124.775 28.744 124.335C28.744 123.985 28.669 123.67 28.519 123.39C28.369 123.1 28.144 122.87 27.844 122.7C27.544 122.53 27.159 122.445 26.689 122.445C26.219 122.445 25.794 122.525 25.414 122.685C25.044 122.845 24.724 123.035 24.454 123.255C24.184 123.475 23.969 123.685 23.809 123.885L22.954 123.03C23.034 122.93 23.174 122.78 23.374 122.58C23.584 122.38 23.849 122.175 24.169 121.965C24.499 121.755 24.884 121.58 25.324 121.44C25.764 121.29 26.264 121.215 26.824 121.215C27.574 121.215 28.199 121.355 28.699 121.635C29.199 121.915 29.574 122.29 29.824 122.76C30.084 123.23 30.214 123.75 30.214 124.32C30.214 124.83 30.119 125.27 29.929 125.64C29.739 126 29.494 126.305 29.194 126.555C28.894 126.805 28.564 127.025 28.204 127.215C27.854 127.405 27.514 127.585 27.184 127.755C26.554 128.055 26.054 128.33 25.684 128.58C25.314 128.83 25.029 129.075 24.829 129.315C24.639 129.545 24.509 129.78 24.439 130.02C24.379 130.26 24.344 130.52 24.334 130.8H30.229V132H22.879ZM35.2516 132.135C34.6416 132.135 34.0866 132.04 33.5866 131.85C33.0966 131.65 32.6866 131.375 32.3566 131.025C32.0366 130.665 31.8266 130.25 31.7266 129.78L32.4766 128.985C32.5066 129.275 32.6366 129.57 32.8666 129.87C33.0966 130.17 33.4116 130.42 33.8116 130.62C34.2216 130.81 34.6966 130.905 35.2366 130.905C35.6966 130.905 36.1116 130.83 36.4816 130.68C36.8516 130.52 37.1466 130.3 37.3666 130.02C37.5866 129.74 37.6966 129.415 37.6966 129.045C37.6966 128.635 37.5616 128.285 37.2916 127.995C37.0216 127.705 36.6366 127.485 36.1366 127.335C35.6466 127.185 35.0616 127.11 34.3816 127.11H33.8716V125.985H34.3816C35.3016 125.985 36.0366 125.84 36.5866 125.55C37.1366 125.25 37.4116 124.805 37.4116 124.215C37.4116 123.835 37.3066 123.51 37.0966 123.24C36.8966 122.96 36.6266 122.75 36.2866 122.61C35.9566 122.46 35.6016 122.385 35.2216 122.385C34.5816 122.385 34.0366 122.53 33.5866 122.82C33.1466 123.1 32.8366 123.43 32.6566 123.81L31.7716 122.895C31.9716 122.545 32.2516 122.245 32.6116 121.995C32.9716 121.745 33.3766 121.555 33.8266 121.425C34.2766 121.285 34.7366 121.215 35.2066 121.215C35.8966 121.215 36.5116 121.345 37.0516 121.605C37.6016 121.865 38.0316 122.215 38.3416 122.655C38.6516 123.095 38.8066 123.595 38.8066 124.155C38.8066 124.555 38.7266 124.915 38.5666 125.235C38.4066 125.545 38.1716 125.805 37.8616 126.015C37.5516 126.225 37.1766 126.385 36.7366 126.495C37.2066 126.575 37.6166 126.745 37.9666 127.005C38.3166 127.265 38.5866 127.585 38.7766 127.965C38.9666 128.345 39.0616 128.76 39.0616 129.21C39.0616 129.83 38.8816 130.36 38.5216 130.8C38.1616 131.23 37.6916 131.56 37.1116 131.79C36.5416 132.02 35.9216 132.135 35.2516 132.135Z" fill="#2F2F2F"/>
<path d="M257.441 26.135C256.831 26.135 256.276 26.04 255.776 25.85C255.286 25.65 254.876 25.375 254.546 25.025C254.226 24.665 254.016 24.25 253.916 23.78L254.666 22.985C254.696 23.275 254.826 23.57 255.056 23.87C255.286 24.17 255.601 24.42 256.001 24.62C256.411 24.81 256.886 24.905 257.426 24.905C257.886 24.905 258.301 24.83 258.671 24.68C259.041 24.52 259.336 24.3 259.556 24.02C259.776 23.74 259.886 23.415 259.886 23.045C259.886 22.635 259.751 22.285 259.481 21.995C259.211 21.705 258.826 21.485 258.326 21.335C257.836 21.185 257.251 21.11 256.571 21.11H256.061V19.985H256.571C257.491 19.985 258.226 19.84 258.776 19.55C259.326 19.25 259.601 18.805 259.601 18.215C259.601 17.835 259.496 17.51 259.286 17.24C259.086 16.96 258.816 16.75 258.476 16.61C258.146 16.46 257.791 16.385 257.411 16.385C256.771 16.385 256.226 16.53 255.776 16.82C255.336 17.1 255.026 17.43 254.846 17.81L253.961 16.895C254.161 16.545 254.441 16.245 254.801 15.995C255.161 15.745 255.566 15.555 256.016 15.425C256.466 15.285 256.926 15.215 257.396 15.215C258.086 15.215 258.701 15.345 259.241 15.605C259.791 15.865 260.221 16.215 260.531 16.655C260.841 17.095 260.996 17.595 260.996 18.155C260.996 18.555 260.916 18.915 260.756 19.235C260.596 19.545 260.361 19.805 260.051 20.015C259.741 20.225 259.366 20.385 258.926 20.495C259.396 20.575 259.806 20.745 260.156 21.005C260.506 21.265 260.776 21.585 260.966 21.965C261.156 22.345 261.251 22.76 261.251 23.21C261.251 23.83 261.071 24.36 260.711 24.8C260.351 25.23 259.881 25.56 259.301 25.79C258.731 26.02 258.111 26.135 257.441 26.135ZM266.215 26.135C265.605 26.135 265.05 26.04 264.55 25.85C264.06 25.65 263.65 25.375 263.32 25.025C263 24.665 262.79 24.25 262.69 23.78L263.44 22.985C263.47 23.275 263.6 23.57 263.83 23.87C264.06 24.17 264.375 24.42 264.775 24.62C265.185 24.81 265.66 24.905 266.2 24.905C266.66 24.905 267.075 24.83 267.445 24.68C267.815 24.52 268.11 24.3 268.33 24.02C268.55 23.74 268.66 23.415 268.66 23.045C268.66 22.635 268.525 22.285 268.255 21.995C267.985 21.705 267.6 21.485 267.1 21.335C266.61 21.185 266.025 21.11 265.345 21.11H264.835V19.985H265.345C266.265 19.985 267 19.84 267.55 19.55C268.1 19.25 268.375 18.805 268.375 18.215C268.375 17.835 268.27 17.51 268.06 17.24C267.86 16.96 267.59 16.75 267.25 16.61C266.92 16.46 266.565 16.385 266.185 16.385C265.545 16.385 265 16.53 264.55 16.82C264.11 17.1 263.8 17.43 263.62 17.81L262.735 16.895C262.935 16.545 263.215 16.245 263.575 15.995C263.935 15.745 264.34 15.555 264.79 15.425C265.24 15.285 265.7 15.215 266.17 15.215C266.86 15.215 267.475 15.345 268.015 15.605C268.565 15.865 268.995 16.215 269.305 16.655C269.615 17.095 269.77 17.595 269.77 18.155C269.77 18.555 269.69 18.915 269.53 19.235C269.37 19.545 269.135 19.805 268.825 20.015C268.515 20.225 268.14 20.385 267.7 20.495C268.17 20.575 268.58 20.745 268.93 21.005C269.28 21.265 269.55 21.585 269.74 21.965C269.93 22.345 270.025 22.76 270.025 23.21C270.025 23.83 269.845 24.36 269.485 24.8C269.125 25.23 268.655 25.56 268.075 25.79C267.505 26.02 266.885 26.135 266.215 26.135Z" fill="#2F2F2F"/>
</svg>
