<svg width="602" height="321" viewBox="0 0 602 321" fill="none" xmlns="http://www.w3.org/2000/svg">
<path d="M23 15L23 297" stroke="#F5F6F7"/>
<path d="M120 15L120 297" stroke="#F5F6F7"/>
<path d="M216 15L216 296" stroke="#F5F6F7"/>
<path d="M408 14L408 296" stroke="#F5F6F7"/>
<path d="M312 13L312 296" stroke="#F5F6F7"/>
<path d="M504 14L504 296" stroke="#F5F6F7"/>
<path d="M600 14L600 296" stroke="#F5F6F7"/>
<path d="M23.3906 202.226H600.458" stroke="#F5F6F7"/>
<path d="M23.3906 249.286H600.458" stroke="#F5F6F7"/>
<path d="M23.3906 108.104H600.458" stroke="#F5F6F7"/>
<path d="M23.3906 155.165L601.349 155.165" stroke="#F5F6F7"/>
<path d="M23.3906 61.0439L601.349 61.0439" stroke="#F5F6F7"/>
<path d="M23.3906 13.9824H601.349" stroke="#F5F6F7"/>
<path d="M23.3906 296.347L601.349 296.347" stroke="#F5F6F7"/>
<path d="M23 13L23 296" stroke="#F5F6F7"/>
<path d="M392.89 318.112V317.5L396.382 314.08C396.702 313.768 396.942 313.496 397.102 313.264C397.262 313.024 397.37 312.8 397.426 312.592C397.482 312.384 397.51 312.188 397.51 312.004C397.51 311.516 397.342 311.132 397.006 310.852C396.678 310.572 396.19 310.432 395.542 310.432C395.046 310.432 394.606 310.508 394.222 310.66C393.846 310.812 393.522 311.048 393.25 311.368L392.638 310.84C392.966 310.456 393.386 310.16 393.898 309.952C394.41 309.744 394.982 309.64 395.614 309.64C396.182 309.64 396.674 309.732 397.09 309.916C397.506 310.092 397.826 310.352 398.05 310.696C398.282 311.04 398.398 311.444 398.398 311.908C398.398 312.18 398.358 312.448 398.278 312.712C398.206 312.976 398.07 313.256 397.87 313.552C397.678 313.84 397.394 314.168 397.018 314.536L393.814 317.68L393.574 317.344H398.782V318.112H392.89ZM403.191 318.184C402.543 318.184 401.967 318.016 401.463 317.68C400.959 317.336 400.563 316.848 400.275 316.216C399.987 315.576 399.843 314.808 399.843 313.912C399.843 313.016 399.987 312.252 400.275 311.62C400.563 310.98 400.959 310.492 401.463 310.156C401.967 309.812 402.543 309.64 403.191 309.64C403.839 309.64 404.415 309.812 404.919 310.156C405.423 310.492 405.819 310.98 406.107 311.62C406.403 312.252 406.551 313.016 406.551 313.912C406.551 314.808 406.403 315.576 406.107 316.216C405.819 316.848 405.423 317.336 404.919 317.68C404.415 318.016 403.839 318.184 403.191 318.184ZM403.191 317.392C403.687 317.392 404.119 317.26 404.487 316.996C404.855 316.724 405.143 316.332 405.351 315.82C405.559 315.3 405.663 314.664 405.663 313.912C405.663 313.16 405.559 312.528 405.351 312.016C405.143 311.496 404.855 311.104 404.487 310.84C404.119 310.568 403.687 310.432 403.191 310.432C402.711 310.432 402.283 310.568 401.907 310.84C401.531 311.104 401.239 311.496 401.031 312.016C400.823 312.528 400.719 313.16 400.719 313.912C400.719 314.664 400.823 315.3 401.031 315.82C401.239 316.332 401.531 316.724 401.907 316.996C402.283 317.26 402.711 317.392 403.191 317.392ZM410.179 318.184C409.571 318.184 408.995 318.088 408.451 317.896C407.915 317.696 407.483 317.432 407.155 317.104L407.575 316.42C407.847 316.7 408.211 316.932 408.667 317.116C409.131 317.3 409.635 317.392 410.179 317.392C410.875 317.392 411.407 317.24 411.775 316.936C412.151 316.632 412.339 316.224 412.339 315.712C412.339 315.2 412.155 314.792 411.787 314.488C411.427 314.184 410.855 314.032 410.071 314.032H409.471V313.396L412.063 310.144L412.183 310.48H407.503V309.712H412.903V310.324L410.311 313.576L409.891 313.3H410.215C411.223 313.3 411.975 313.524 412.471 313.972C412.975 314.42 413.227 314.996 413.227 315.7C413.227 316.172 413.115 316.596 412.891 316.972C412.667 317.348 412.327 317.644 411.871 317.86C411.423 318.076 410.859 318.184 410.179 318.184ZM417.792 318.184C417.144 318.184 416.568 318.016 416.064 317.68C415.56 317.336 415.164 316.848 414.876 316.216C414.588 315.576 414.444 314.808 414.444 313.912C414.444 313.016 414.588 312.252 414.876 311.62C415.164 310.98 415.56 310.492 416.064 310.156C416.568 309.812 417.144 309.64 417.792 309.64C418.44 309.64 419.016 309.812 419.52 310.156C420.024 310.492 420.42 310.98 420.708 311.62C421.004 312.252 421.152 313.016 421.152 313.912C421.152 314.808 421.004 315.576 420.708 316.216C420.42 316.848 420.024 317.336 419.52 317.68C419.016 318.016 418.44 318.184 417.792 318.184ZM417.792 317.392C418.288 317.392 418.72 317.26 419.088 316.996C419.456 316.724 419.744 316.332 419.952 315.82C420.16 315.3 420.264 314.664 420.264 313.912C420.264 313.16 420.16 312.528 419.952 312.016C419.744 311.496 419.456 311.104 419.088 310.84C418.72 310.568 418.288 310.432 417.792 310.432C417.312 310.432 416.884 310.568 416.508 310.84C416.132 311.104 415.84 311.496 415.632 312.016C415.424 312.528 415.32 313.16 415.32 313.912C415.32 314.664 415.424 315.3 415.632 315.82C415.84 316.332 416.132 316.724 416.508 316.996C416.884 317.26 417.312 317.392 417.792 317.392Z" fill="#858C95"/>
<path d="M202.187 318.112V317.5L205.679 314.08C205.999 313.768 206.239 313.496 206.399 313.264C206.559 313.024 206.667 312.8 206.723 312.592C206.779 312.384 206.807 312.188 206.807 312.004C206.807 311.516 206.639 311.132 206.303 310.852C205.975 310.572 205.487 310.432 204.839 310.432C204.343 310.432 203.903 310.508 203.519 310.66C203.143 310.812 202.819 311.048 202.547 311.368L201.935 310.84C202.263 310.456 202.683 310.16 203.195 309.952C203.707 309.744 204.279 309.64 204.911 309.64C205.479 309.64 205.971 309.732 206.387 309.916C206.803 310.092 207.123 310.352 207.347 310.696C207.579 311.04 207.695 311.444 207.695 311.908C207.695 312.18 207.655 312.448 207.575 312.712C207.503 312.976 207.367 313.256 207.167 313.552C206.975 313.84 206.691 314.168 206.315 314.536L203.111 317.68L202.871 317.344H208.079V318.112H202.187ZM212.488 318.184C211.84 318.184 211.264 318.016 210.76 317.68C210.256 317.336 209.86 316.848 209.572 316.216C209.284 315.576 209.14 314.808 209.14 313.912C209.14 313.016 209.284 312.252 209.572 311.62C209.86 310.98 210.256 310.492 210.76 310.156C211.264 309.812 211.84 309.64 212.488 309.64C213.136 309.64 213.712 309.812 214.216 310.156C214.72 310.492 215.116 310.98 215.404 311.62C215.7 312.252 215.848 313.016 215.848 313.912C215.848 314.808 215.7 315.576 215.404 316.216C215.116 316.848 214.72 317.336 214.216 317.68C213.712 318.016 213.136 318.184 212.488 318.184ZM212.488 317.392C212.984 317.392 213.416 317.26 213.784 316.996C214.152 316.724 214.44 316.332 214.648 315.82C214.856 315.3 214.96 314.664 214.96 313.912C214.96 313.16 214.856 312.528 214.648 312.016C214.44 311.496 214.152 311.104 213.784 310.84C213.416 310.568 212.984 310.432 212.488 310.432C212.008 310.432 211.58 310.568 211.204 310.84C210.828 311.104 210.536 311.496 210.328 312.016C210.12 312.528 210.016 313.16 210.016 313.912C210.016 314.664 210.12 315.3 210.328 315.82C210.536 316.332 210.828 316.724 211.204 316.996C211.58 317.26 212.008 317.392 212.488 317.392ZM218.549 318.112V310.072L218.933 310.48H216.569V309.712H219.413V318.112H218.549ZM221.277 315.904V315.28L225.729 309.712H226.689L222.273 315.28L221.805 315.136H228.561V315.904H221.277ZM226.017 318.112V315.904L226.041 315.136V313.192H226.881V318.112H226.017Z" fill="#858C95"/>
<path d="M12.0267 299.072C11.3787 299.072 10.8027 298.904 10.2987 298.568C9.79469 298.224 9.39869 297.736 9.11069 297.104C8.82269 296.464 8.67869 295.696 8.67869 294.8C8.67869 293.904 8.82269 293.14 9.11069 292.508C9.39869 291.868 9.79469 291.38 10.2987 291.044C10.8027 290.7 11.3787 290.528 12.0267 290.528C12.6747 290.528 13.2507 290.7 13.7547 291.044C14.2587 291.38 14.6547 291.868 14.9427 292.508C15.2387 293.14 15.3867 293.904 15.3867 294.8C15.3867 295.696 15.2387 296.464 14.9427 297.104C14.6547 297.736 14.2587 298.224 13.7547 298.568C13.2507 298.904 12.6747 299.072 12.0267 299.072ZM12.0267 298.28C12.5227 298.28 12.9547 298.148 13.3227 297.884C13.6907 297.612 13.9787 297.22 14.1867 296.708C14.3947 296.188 14.4987 295.552 14.4987 294.8C14.4987 294.048 14.3947 293.416 14.1867 292.904C13.9787 292.384 13.6907 291.992 13.3227 291.728C12.9547 291.456 12.5227 291.32 12.0267 291.32C11.5467 291.32 11.1187 291.456 10.7427 291.728C10.3667 291.992 10.0747 292.384 9.86669 292.904C9.65869 293.416 9.55469 294.048 9.55469 294.8C9.55469 295.552 9.65869 296.188 9.86669 296.708C10.0747 297.22 10.3667 297.612 10.7427 297.884C11.1187 298.148 11.5467 298.28 12.0267 298.28Z" fill="#858C95"/>
<path d="M12.0383 254.607C11.4303 254.607 10.8543 254.511 10.3103 254.319C9.77425 254.119 9.34225 253.855 9.01425 253.527L9.43425 252.843C9.70625 253.123 10.0703 253.355 10.5263 253.539C10.9903 253.723 11.4943 253.815 12.0383 253.815C12.7343 253.815 13.2663 253.663 13.6343 253.359C14.0103 253.055 14.1983 252.647 14.1983 252.135C14.1983 251.623 14.0143 251.215 13.6463 250.911C13.2863 250.607 12.7143 250.455 11.9303 250.455H11.3303V249.819L13.9223 246.567L14.0423 246.903H9.36225V246.135H14.7623V246.747L12.1703 249.999L11.7503 249.723H12.0742C13.0823 249.723 13.8343 249.947 14.3303 250.395C14.8343 250.843 15.0863 251.419 15.0863 252.123C15.0863 252.595 14.9743 253.019 14.7503 253.395C14.5263 253.771 14.1863 254.067 13.7303 254.283C13.2823 254.499 12.7183 254.607 12.0383 254.607Z" fill="#858C95"/>
<path d="M6.93175 113.646V105.606L7.31575 106.014H4.95175V105.246H7.79575V113.646H6.93175ZM9.64769 113.646V113.034L13.1397 109.614C13.4597 109.302 13.6997 109.03 13.8597 108.798C14.0197 108.558 14.1277 108.334 14.1837 108.126C14.2397 107.918 14.2677 107.722 14.2677 107.538C14.2677 107.05 14.0997 106.666 13.7637 106.386C13.4357 106.106 12.9477 105.966 12.2997 105.966C11.8037 105.966 11.3637 106.042 10.9797 106.194C10.6037 106.346 10.2797 106.582 10.0077 106.902L9.39569 106.374C9.72369 105.99 10.1437 105.694 10.6557 105.486C11.1677 105.278 11.7397 105.174 12.3717 105.174C12.9397 105.174 13.4317 105.266 13.8477 105.45C14.2637 105.626 14.5837 105.886 14.8077 106.23C15.0397 106.574 15.1557 106.978 15.1557 107.442C15.1557 107.714 15.1157 107.982 15.0357 108.246C14.9637 108.51 14.8277 108.79 14.6277 109.086C14.4357 109.374 14.1517 109.702 13.7757 110.07L10.5717 113.214L10.3317 112.878H15.5397V113.646H9.64769Z" fill="#858C95"/>
<path d="M6.95519 66.584V58.544L7.33919 58.952H4.97519V58.184H7.81919V66.584H6.95519ZM12.4791 66.656C11.8791 66.656 11.3071 66.56 10.7631 66.368C10.2191 66.168 9.78713 65.904 9.46713 65.576L9.88713 64.892C10.1511 65.172 10.5111 65.404 10.9671 65.588C11.4311 65.772 11.9311 65.864 12.4671 65.864C13.1791 65.864 13.7191 65.708 14.0871 65.396C14.4631 65.076 14.6511 64.66 14.6511 64.148C14.6511 63.788 14.5631 63.48 14.3871 63.224C14.2191 62.96 13.9311 62.756 13.5231 62.612C13.1151 62.468 12.5551 62.396 11.8431 62.396H10.0551L10.4871 58.184H15.0831V58.952H10.8351L11.2791 58.532L10.9071 62.06L10.4631 61.628H12.0351C12.8831 61.628 13.5631 61.732 14.0751 61.94C14.5871 62.148 14.9551 62.44 15.1791 62.816C15.4111 63.184 15.5271 63.616 15.5271 64.112C15.5271 64.584 15.4151 65.016 15.1911 65.408C14.9671 65.792 14.6311 66.096 14.1831 66.32C13.7351 66.544 13.1671 66.656 12.4791 66.656Z" fill="#858C95"/>
<path d="M11.9738 152.233C12.7178 152.233 13.3458 152.401 13.8578 152.737C14.3698 153.065 14.7578 153.541 15.0218 154.165C15.2858 154.789 15.4178 155.545 15.4178 156.433C15.4178 157.377 15.2538 158.173 14.9258 158.821C14.6058 159.469 14.1578 159.957 13.5818 160.285C13.0058 160.613 12.3378 160.777 11.5778 160.777C11.2018 160.777 10.8418 160.741 10.4978 160.669C10.1618 160.597 9.85776 160.481 9.58576 160.321L9.93376 159.625C10.1498 159.769 10.3978 159.873 10.6778 159.937C10.9658 159.993 11.2618 160.021 11.5658 160.021C12.4698 160.021 13.1898 159.733 13.7258 159.157C14.2698 158.581 14.5418 157.721 14.5418 156.577C14.5418 156.393 14.5298 156.173 14.5058 155.917C14.4898 155.661 14.4458 155.405 14.3738 155.149L14.6738 155.377C14.5938 155.793 14.4218 156.149 14.1578 156.445C13.9018 156.733 13.5818 156.953 13.1978 157.105C12.8218 157.257 12.4018 157.333 11.9378 157.333C11.3858 157.333 10.8938 157.229 10.4618 157.021C10.0378 156.813 9.70576 156.521 9.46576 156.145C9.22576 155.769 9.10576 155.325 9.10576 154.813C9.10576 154.285 9.22976 153.829 9.47776 153.445C9.72576 153.061 10.0658 152.765 10.4978 152.557C10.9378 152.341 11.4298 152.233 11.9738 152.233ZM12.0098 152.965C11.6098 152.965 11.2538 153.041 10.9418 153.193C10.6378 153.337 10.3978 153.545 10.2218 153.817C10.0458 154.089 9.95776 154.413 9.95776 154.789C9.95776 155.341 10.1458 155.781 10.5218 156.109C10.9058 156.437 11.4218 156.601 12.0698 156.601C12.5018 156.601 12.8778 156.521 13.1978 156.361C13.5258 156.201 13.7778 155.981 13.9538 155.701C14.1378 155.421 14.2298 155.109 14.2298 154.765C14.2298 154.453 14.1458 154.161 13.9778 153.889C13.8098 153.617 13.5618 153.397 13.2338 153.229C12.9058 153.053 12.4978 152.965 12.0098 152.965Z" fill="#858C95"/>
<path d="M12.8018 206.332C12.0578 206.332 11.4298 206.168 10.9178 205.84C10.4058 205.504 10.0178 205.024 9.75376 204.4C9.48976 203.768 9.35776 203.012 9.35776 202.132C9.35776 201.18 9.51776 200.384 9.83776 199.744C10.1658 199.096 10.6178 198.608 11.1938 198.28C11.7698 197.952 12.4378 197.788 13.1978 197.788C13.5738 197.788 13.9338 197.824 14.2778 197.896C14.6218 197.968 14.9258 198.084 15.1898 198.244L14.8418 198.94C14.6258 198.796 14.3778 198.696 14.0978 198.64C13.8178 198.576 13.5218 198.544 13.2098 198.544C12.3058 198.544 11.5818 198.832 11.0378 199.408C10.5018 199.984 10.2338 200.844 10.2338 201.988C10.2338 202.164 10.2418 202.384 10.2578 202.648C10.2818 202.904 10.3298 203.16 10.4018 203.416L10.1018 203.188C10.1898 202.772 10.3618 202.42 10.6178 202.132C10.8738 201.836 11.1938 201.612 11.5778 201.46C11.9618 201.308 12.3818 201.232 12.8378 201.232C13.3978 201.232 13.8898 201.336 14.3138 201.544C14.7378 201.752 15.0698 202.044 15.3098 202.42C15.5498 202.796 15.6698 203.24 15.6698 203.752C15.6698 204.272 15.5458 204.728 15.2978 205.12C15.0498 205.504 14.7058 205.804 14.2658 206.02C13.8338 206.228 13.3458 206.332 12.8018 206.332ZM12.7658 205.6C13.1658 205.6 13.5178 205.528 13.8218 205.384C14.1338 205.232 14.3778 205.02 14.5538 204.748C14.7298 204.468 14.8178 204.144 14.8178 203.776C14.8178 203.224 14.6258 202.784 14.2418 202.456C13.8658 202.128 13.3538 201.964 12.7058 201.964C12.2738 201.964 11.8978 202.044 11.5778 202.204C11.2578 202.364 11.0058 202.584 10.8218 202.864C10.6378 203.136 10.5458 203.448 10.5458 203.8C10.5458 204.104 10.6298 204.396 10.7978 204.676C10.9658 204.948 11.2138 205.172 11.5418 205.348C11.8778 205.516 12.2858 205.6 12.7658 205.6Z" fill="#858C95"/>
<path d="M5.7466 19.417V11.377L6.1306 11.785H3.7666V11.017H6.6106V19.417H5.7466ZM11.8105 19.489C11.1385 19.489 10.5585 19.393 10.0705 19.201C9.59054 19.009 9.21854 18.733 8.95454 18.373C8.69854 18.005 8.57054 17.573 8.57054 17.077C8.57054 16.597 8.69454 16.189 8.94254 15.853C9.19854 15.509 9.56654 15.245 10.0465 15.061C10.5345 14.877 11.1225 14.785 11.8105 14.785C12.4905 14.785 13.0745 14.877 13.5625 15.061C14.0505 15.245 14.4225 15.509 14.6785 15.853C14.9425 16.189 15.0745 16.597 15.0745 17.077C15.0745 17.573 14.9425 18.005 14.6785 18.373C14.4145 18.733 14.0385 19.009 13.5505 19.201C13.0625 19.393 12.4825 19.489 11.8105 19.489ZM11.8105 18.757C12.5545 18.757 13.1345 18.605 13.5505 18.301C13.9745 17.997 14.1865 17.585 14.1865 17.065C14.1865 16.545 13.9745 16.137 13.5505 15.841C13.1345 15.537 12.5545 15.385 11.8105 15.385C11.0665 15.385 10.4865 15.537 10.0705 15.841C9.65454 16.137 9.44654 16.545 9.44654 17.065C9.44654 17.585 9.65454 17.997 10.0705 18.301C10.4865 18.605 11.0665 18.757 11.8105 18.757ZM11.8105 15.277C11.1865 15.277 10.6545 15.193 10.2145 15.025C9.78254 14.857 9.45054 14.617 9.21854 14.305C8.98654 13.985 8.87054 13.605 8.87054 13.165C8.87054 12.701 8.99054 12.305 9.23054 11.977C9.47854 11.641 9.82254 11.385 10.2625 11.209C10.7025 11.033 11.2185 10.945 11.8105 10.945C12.4025 10.945 12.9185 11.033 13.3585 11.209C13.8065 11.385 14.1545 11.641 14.4025 11.977C14.6505 12.305 14.7745 12.701 14.7745 13.165C14.7745 13.605 14.6585 13.985 14.4265 14.305C14.1945 14.617 13.8545 14.857 13.4065 15.025C12.9665 15.193 12.4345 15.277 11.8105 15.277ZM11.8105 14.701C12.4665 14.701 12.9785 14.565 13.3465 14.293C13.7145 14.021 13.8985 13.657 13.8985 13.201C13.8985 12.721 13.7065 12.349 13.3225 12.085C12.9465 11.813 12.4425 11.677 11.8105 11.677C11.1785 11.677 10.6745 11.813 10.2985 12.085C9.92254 12.349 9.73454 12.717 9.73454 13.189C9.73454 13.653 9.91454 14.021 10.2745 14.293C10.6425 14.565 11.1545 14.701 11.8105 14.701Z" fill="#858C95"/>
<path d="M258.28 190.77C258.28 191.586 258.076 192.33 257.668 193.002C257.272 193.662 256.726 194.19 256.03 194.586C255.346 194.982 254.572 195.18 253.708 195.18C252.796 195.18 251.992 194.964 251.296 194.532C250.6 194.088 250.054 193.452 249.658 192.624C249.274 191.796 249.082 190.812 249.082 189.672C249.082 187.992 249.28 186.594 249.676 185.478C250.072 184.362 250.63 183.528 251.35 182.976C252.07 182.412 252.91 182.13 253.87 182.13C254.698 182.13 255.448 182.334 256.12 182.742C256.804 183.138 257.338 183.69 257.722 184.398L256.75 185.352C256.486 184.788 256.096 184.344 255.58 184.02C255.064 183.684 254.488 183.516 253.852 183.516C253.204 183.516 252.634 183.714 252.142 184.11C251.65 184.506 251.266 185.076 250.99 185.82C250.726 186.564 250.588 187.464 250.576 188.52C250.756 188.1 251.008 187.74 251.332 187.44C251.656 187.128 252.034 186.888 252.466 186.72C252.91 186.552 253.378 186.468 253.87 186.468C254.698 186.468 255.442 186.66 256.102 187.044C256.774 187.428 257.302 187.944 257.686 188.592C258.082 189.24 258.28 189.966 258.28 190.77ZM253.726 193.812C254.278 193.812 254.782 193.674 255.238 193.398C255.706 193.122 256.078 192.756 256.354 192.3C256.63 191.832 256.768 191.322 256.768 190.77C256.768 190.218 256.63 189.714 256.354 189.258C256.078 188.802 255.706 188.436 255.238 188.16C254.782 187.884 254.278 187.746 253.726 187.746C253.174 187.746 252.664 187.884 252.196 188.16C251.74 188.436 251.374 188.802 251.098 189.258C250.822 189.714 250.684 190.218 250.684 190.77C250.684 191.322 250.822 191.832 251.098 192.3C251.374 192.756 251.74 193.122 252.196 193.398C252.664 193.674 253.174 193.812 253.726 193.812ZM260.412 196.458L260.772 194.856H260.232V192.984H261.726V194.856L261.186 196.458H260.412ZM272.759 191.382C272.759 192.138 272.549 192.798 272.129 193.362C271.721 193.926 271.169 194.364 270.473 194.676C269.789 194.988 269.039 195.144 268.223 195.144C267.371 195.144 266.609 194.976 265.937 194.64C265.265 194.292 264.731 193.83 264.335 193.254C263.951 192.678 263.759 192.03 263.759 191.31C263.759 190.782 263.879 190.308 264.119 189.888C264.359 189.468 264.659 189.114 265.019 188.826C265.391 188.526 265.769 188.304 266.153 188.16C265.805 188.004 265.481 187.8 265.181 187.548C264.881 187.296 264.641 187.002 264.461 186.666C264.281 186.33 264.191 185.964 264.191 185.568C264.191 185.028 264.311 184.554 264.551 184.146C264.791 183.726 265.109 183.372 265.505 183.084C265.901 182.796 266.339 182.58 266.819 182.436C267.299 182.292 267.779 182.22 268.259 182.22C268.739 182.22 269.219 182.292 269.699 182.436C270.179 182.58 270.617 182.796 271.013 183.084C271.421 183.36 271.745 183.708 271.985 184.128C272.225 184.536 272.345 185.01 272.345 185.55C272.345 185.946 272.255 186.318 272.075 186.666C271.895 187.002 271.649 187.296 271.337 187.548C271.037 187.8 270.707 188.004 270.347 188.16C270.779 188.328 271.175 188.568 271.535 188.88C271.907 189.18 272.201 189.54 272.417 189.96C272.645 190.38 272.759 190.854 272.759 191.382ZM271.157 191.274C271.157 190.89 271.073 190.548 270.905 190.248C270.737 189.936 270.509 189.678 270.221 189.474C269.933 189.258 269.615 189.096 269.267 188.988C268.931 188.88 268.589 188.826 268.241 188.826C267.761 188.826 267.299 188.928 266.855 189.132C266.423 189.336 266.069 189.624 265.793 189.996C265.517 190.356 265.379 190.788 265.379 191.292C265.379 191.664 265.463 192 265.631 192.3C265.799 192.6 266.021 192.858 266.297 193.074C266.585 193.29 266.897 193.452 267.233 193.56C267.581 193.668 267.929 193.722 268.277 193.722C268.757 193.722 269.213 193.62 269.645 193.416C270.089 193.212 270.449 192.924 270.725 192.552C271.013 192.18 271.157 191.754 271.157 191.274ZM265.793 185.622C265.793 186.042 265.919 186.402 266.171 186.702C266.423 187.002 266.741 187.23 267.125 187.386C267.509 187.53 267.887 187.602 268.259 187.602C268.643 187.602 269.021 187.524 269.393 187.368C269.777 187.212 270.095 186.984 270.347 186.684C270.599 186.384 270.725 186.018 270.725 185.586C270.725 185.178 270.605 184.83 270.365 184.542C270.137 184.254 269.831 184.032 269.447 183.876C269.075 183.72 268.673 183.642 268.241 183.642C267.821 183.642 267.419 183.726 267.035 183.894C266.663 184.05 266.363 184.278 266.135 184.578C265.907 184.866 265.793 185.214 265.793 185.622ZM277.073 187.296C276.569 187.296 276.107 187.182 275.687 186.954C275.267 186.714 274.931 186.396 274.679 186C274.427 185.592 274.301 185.148 274.301 184.668C274.301 184.176 274.427 183.732 274.679 183.336C274.931 182.94 275.267 182.628 275.687 182.4C276.107 182.16 276.569 182.04 277.073 182.04C277.589 182.04 278.057 182.16 278.477 182.4C278.897 182.628 279.227 182.94 279.467 183.336C279.719 183.732 279.845 184.17 279.845 184.65C279.845 185.142 279.719 185.592 279.467 186C279.227 186.396 278.897 186.714 278.477 186.954C278.057 187.182 277.589 187.296 277.073 187.296ZM277.073 186.432C277.373 186.432 277.643 186.354 277.883 186.198C278.135 186.03 278.333 185.814 278.477 185.55C278.621 185.274 278.693 184.98 278.693 184.668C278.693 184.344 278.615 184.05 278.459 183.786C278.315 183.51 278.117 183.294 277.865 183.138C277.625 182.982 277.361 182.904 277.073 182.904C276.773 182.904 276.497 182.988 276.245 183.156C276.005 183.312 275.813 183.528 275.669 183.804C275.525 184.068 275.453 184.356 275.453 184.668C275.453 184.992 275.525 185.286 275.669 185.55C275.825 185.814 276.023 186.03 276.263 186.198C276.515 186.354 276.785 186.432 277.073 186.432ZM283.391 195.18C282.875 195.18 282.407 195.066 281.987 194.838C281.579 194.598 281.249 194.28 280.997 193.884C280.745 193.476 280.619 193.032 280.619 192.552C280.619 192.06 280.745 191.616 280.997 191.22C281.249 190.824 281.579 190.512 281.987 190.284C282.407 190.044 282.875 189.924 283.391 189.924C283.907 189.924 284.375 190.044 284.795 190.284C285.215 190.512 285.545 190.824 285.785 191.22C286.037 191.616 286.163 192.054 286.163 192.534C286.163 193.026 286.037 193.476 285.785 193.884C285.545 194.28 285.215 194.598 284.795 194.838C284.375 195.066 283.907 195.18 283.391 195.18ZM283.391 194.316C283.691 194.316 283.961 194.238 284.201 194.082C284.453 193.914 284.651 193.698 284.795 193.434C284.939 193.158 285.011 192.864 285.011 192.552C285.011 192.228 284.933 191.934 284.777 191.67C284.633 191.394 284.435 191.178 284.183 191.022C283.943 190.866 283.679 190.788 283.391 190.788C283.091 190.788 282.815 190.872 282.563 191.04C282.323 191.196 282.131 191.412 281.987 191.688C281.843 191.952 281.771 192.24 281.771 192.552C281.771 192.876 281.843 193.17 281.987 193.434C282.143 193.698 282.341 193.914 282.581 194.082C282.833 194.238 283.103 194.316 283.391 194.316ZM274.913 194.406L279.953 188.34L284.777 182.13L285.551 182.796L280.565 188.826L275.669 195.09L274.913 194.406Z" fill="#2F2F2F"/>
<path d="M448.95 79.56V81H442.596V79.56H445.044V69.75C444.948 69.894 444.792 70.056 444.576 70.236C444.36 70.404 444.108 70.572 443.82 70.74C443.544 70.896 443.262 71.028 442.974 71.136C442.686 71.244 442.422 71.298 442.182 71.298V69.822C442.506 69.822 442.83 69.738 443.154 69.57C443.49 69.402 443.796 69.204 444.072 68.976C444.36 68.748 444.588 68.544 444.756 68.364C444.936 68.184 445.032 68.088 445.044 68.076H446.664V79.56H448.95ZM454.16 81.18C453.248 81.18 452.426 80.964 451.694 80.532C450.974 80.1 450.422 79.518 450.038 78.786L451.028 77.922C451.364 78.474 451.808 78.918 452.36 79.254C452.924 79.59 453.53 79.758 454.178 79.758C454.73 79.758 455.222 79.638 455.654 79.398C456.086 79.158 456.428 78.828 456.68 78.408C456.932 77.988 457.058 77.502 457.058 76.95C457.058 76.41 456.932 75.936 456.68 75.528C456.44 75.12 456.11 74.802 455.69 74.574C455.282 74.334 454.82 74.214 454.304 74.214C453.8 74.214 453.32 74.328 452.864 74.556C452.408 74.784 452.042 75.108 451.766 75.528H450.326L451.766 68.22H457.976V69.678H452.936L452.162 73.746C452.426 73.458 452.756 73.236 453.152 73.08C453.56 72.924 454.01 72.846 454.502 72.846C455.294 72.846 456.002 73.02 456.626 73.368C457.262 73.716 457.76 74.196 458.12 74.808C458.492 75.408 458.678 76.11 458.678 76.914C458.678 77.754 458.474 78.498 458.066 79.146C457.67 79.782 457.13 80.28 456.446 80.64C455.774 81 455.012 81.18 454.16 81.18ZM462.829 73.296C462.325 73.296 461.863 73.182 461.443 72.954C461.023 72.714 460.687 72.396 460.435 72C460.183 71.592 460.057 71.148 460.057 70.668C460.057 70.176 460.183 69.732 460.435 69.336C460.687 68.94 461.023 68.628 461.443 68.4C461.863 68.16 462.325 68.04 462.829 68.04C463.345 68.04 463.813 68.16 464.233 68.4C464.653 68.628 464.983 68.94 465.223 69.336C465.475 69.732 465.601 70.17 465.601 70.65C465.601 71.142 465.475 71.592 465.223 72C464.983 72.396 464.653 72.714 464.233 72.954C463.813 73.182 463.345 73.296 462.829 73.296ZM462.829 72.432C463.129 72.432 463.399 72.354 463.639 72.198C463.891 72.03 464.089 71.814 464.233 71.55C464.377 71.274 464.449 70.98 464.449 70.668C464.449 70.344 464.371 70.05 464.215 69.786C464.071 69.51 463.873 69.294 463.621 69.138C463.381 68.982 463.117 68.904 462.829 68.904C462.529 68.904 462.253 68.988 462.001 69.156C461.761 69.312 461.569 69.528 461.425 69.804C461.281 70.068 461.209 70.356 461.209 70.668C461.209 70.992 461.281 71.286 461.425 71.55C461.581 71.814 461.779 72.03 462.019 72.198C462.271 72.354 462.541 72.432 462.829 72.432ZM469.147 81.18C468.631 81.18 468.163 81.066 467.743 80.838C467.335 80.598 467.005 80.28 466.753 79.884C466.501 79.476 466.375 79.032 466.375 78.552C466.375 78.06 466.501 77.616 466.753 77.22C467.005 76.824 467.335 76.512 467.743 76.284C468.163 76.044 468.631 75.924 469.147 75.924C469.663 75.924 470.131 76.044 470.551 76.284C470.971 76.512 471.301 76.824 471.541 77.22C471.793 77.616 471.919 78.054 471.919 78.534C471.919 79.026 471.793 79.476 471.541 79.884C471.301 80.28 470.971 80.598 470.551 80.838C470.131 81.066 469.663 81.18 469.147 81.18ZM469.147 80.316C469.447 80.316 469.717 80.238 469.957 80.082C470.209 79.914 470.407 79.698 470.551 79.434C470.695 79.158 470.767 78.864 470.767 78.552C470.767 78.228 470.689 77.934 470.533 77.67C470.389 77.394 470.191 77.178 469.939 77.022C469.699 76.866 469.435 76.788 469.147 76.788C468.847 76.788 468.571 76.872 468.319 77.04C468.079 77.196 467.887 77.412 467.743 77.688C467.599 77.952 467.527 78.24 467.527 78.552C467.527 78.876 467.599 79.17 467.743 79.434C467.899 79.698 468.097 79.914 468.337 80.082C468.589 80.238 468.859 80.316 469.147 80.316ZM460.669 80.406L465.709 74.34L470.533 68.13L471.307 68.796L466.321 74.826L461.425 81.09L460.669 80.406Z" fill="#2F2F2F"/>
<rect x="191" y="181" width="49" height="115" fill="#2D6FD0"/>
<rect x="382" y="61" width="51" height="235" fill="#2D6FD0"/>
</svg>
