<svg width="287" height="308" viewBox="0 0 287 308" fill="none" xmlns="http://www.w3.org/2000/svg">
<path d="M23 8L23 290" stroke="#F5F6F7"/>
<path d="M67 8L67 290" stroke="#F5F6F7"/>
<path d="M111 8L111 289" stroke="#F5F6F7"/>
<path d="M199 7L199 289" stroke="#F5F6F7"/>
<path d="M155 6L155 289" stroke="#F5F6F7"/>
<path d="M243 7L243 289" stroke="#F5F6F7"/>
<path d="M286 7L286 289" stroke="#F5F6F7"/>
<path d="M23 195H287" stroke="#F5F6F7"/>
<path d="M23 242H287" stroke="#F5F6F7"/>
<path d="M23 101H287" stroke="#F5F6F7"/>
<path d="M23 148L287 148" stroke="#F5F6F7"/>
<path d="M23 54L287 54" stroke="#F5F6F7"/>
<path d="M23 7H287" stroke="#F5F6F7"/>
<path d="M23 289L287 289" stroke="#F5F6F7"/>
<path d="M23 6L23 289" stroke="#F5F6F7"/>
<path d="M186.812 307.113V306.603L189.722 303.753C189.989 303.493 190.189 303.267 190.322 303.073C190.455 302.873 190.545 302.687 190.592 302.513C190.639 302.34 190.662 302.177 190.662 302.023C190.662 301.617 190.522 301.297 190.242 301.063C189.969 300.83 189.562 300.713 189.022 300.713C188.609 300.713 188.242 300.777 187.922 300.903C187.609 301.03 187.339 301.227 187.112 301.493L186.602 301.053C186.875 300.733 187.225 300.487 187.652 300.313C188.079 300.14 188.555 300.053 189.082 300.053C189.555 300.053 189.965 300.13 190.312 300.283C190.659 300.43 190.925 300.647 191.112 300.933C191.305 301.22 191.402 301.557 191.402 301.943C191.402 302.17 191.369 302.393 191.302 302.613C191.242 302.833 191.129 303.067 190.962 303.313C190.802 303.553 190.565 303.827 190.252 304.133L187.582 306.753L187.382 306.473H191.722V307.113H186.812ZM195.396 307.173C194.856 307.173 194.376 307.033 193.956 306.753C193.536 306.467 193.206 306.06 192.966 305.533C192.726 305 192.606 304.36 192.606 303.613C192.606 302.867 192.726 302.23 192.966 301.703C193.206 301.17 193.536 300.763 193.956 300.483C194.376 300.197 194.856 300.053 195.396 300.053C195.936 300.053 196.416 300.197 196.836 300.483C197.256 300.763 197.586 301.17 197.826 301.703C198.073 302.23 198.196 302.867 198.196 303.613C198.196 304.36 198.073 305 197.826 305.533C197.586 306.06 197.256 306.467 196.836 306.753C196.416 307.033 195.936 307.173 195.396 307.173ZM195.396 306.513C195.809 306.513 196.169 306.403 196.476 306.183C196.783 305.957 197.023 305.63 197.196 305.203C197.369 304.77 197.456 304.24 197.456 303.613C197.456 302.987 197.369 302.46 197.196 302.033C197.023 301.6 196.783 301.273 196.476 301.053C196.169 300.827 195.809 300.713 195.396 300.713C194.996 300.713 194.639 300.827 194.326 301.053C194.013 301.273 193.769 301.6 193.596 302.033C193.423 302.46 193.336 302.987 193.336 303.613C193.336 304.24 193.423 304.77 193.596 305.203C193.769 305.63 194.013 305.957 194.326 306.183C194.639 306.403 194.996 306.513 195.396 306.513ZM201.219 307.173C200.713 307.173 200.233 307.093 199.779 306.933C199.333 306.767 198.973 306.547 198.699 306.273L199.049 305.703C199.276 305.937 199.579 306.13 199.959 306.283C200.346 306.437 200.766 306.513 201.219 306.513C201.799 306.513 202.243 306.387 202.549 306.133C202.863 305.88 203.019 305.54 203.019 305.113C203.019 304.687 202.866 304.347 202.559 304.093C202.259 303.84 201.783 303.713 201.129 303.713H200.629V303.183L202.789 300.473L202.889 300.753H198.989V300.113H203.489V300.623L201.329 303.333L200.979 303.103H201.249C202.089 303.103 202.716 303.29 203.129 303.663C203.549 304.037 203.759 304.517 203.759 305.103C203.759 305.497 203.666 305.85 203.479 306.163C203.293 306.477 203.009 306.723 202.629 306.903C202.256 307.083 201.786 307.173 201.219 307.173ZM207.564 307.173C207.024 307.173 206.544 307.033 206.124 306.753C205.704 306.467 205.374 306.06 205.134 305.533C204.894 305 204.774 304.36 204.774 303.613C204.774 302.867 204.894 302.23 205.134 301.703C205.374 301.17 205.704 300.763 206.124 300.483C206.544 300.197 207.024 300.053 207.564 300.053C208.104 300.053 208.584 300.197 209.004 300.483C209.424 300.763 209.754 301.17 209.994 301.703C210.241 302.23 210.364 302.867 210.364 303.613C210.364 304.36 210.241 305 209.994 305.533C209.754 306.06 209.424 306.467 209.004 306.753C208.584 307.033 208.104 307.173 207.564 307.173ZM207.564 306.513C207.977 306.513 208.337 306.403 208.644 306.183C208.951 305.957 209.191 305.63 209.364 305.203C209.537 304.77 209.624 304.24 209.624 303.613C209.624 302.987 209.537 302.46 209.364 302.033C209.191 301.6 208.951 301.273 208.644 301.053C208.337 300.827 207.977 300.713 207.564 300.713C207.164 300.713 206.807 300.827 206.494 301.053C206.181 301.273 205.937 301.6 205.764 302.033C205.591 302.46 205.504 302.987 205.504 303.613C205.504 304.24 205.591 304.77 205.764 305.203C205.937 305.63 206.181 305.957 206.494 306.183C206.807 306.403 207.164 306.513 207.564 306.513Z" fill="#858C95"/>
<path d="M52.1088 307.113V306.603L55.0188 303.753C55.2854 303.493 55.4854 303.267 55.6188 303.073C55.7521 302.873 55.8421 302.687 55.8888 302.513C55.9354 302.34 55.9588 302.177 55.9588 302.023C55.9588 301.617 55.8188 301.297 55.5388 301.063C55.2654 300.83 54.8588 300.713 54.3188 300.713C53.9054 300.713 53.5388 300.777 53.2188 300.903C52.9054 301.03 52.6354 301.227 52.4088 301.493L51.8988 301.053C52.1721 300.733 52.5221 300.487 52.9488 300.313C53.3754 300.14 53.8521 300.053 54.3788 300.053C54.8521 300.053 55.2621 300.13 55.6088 300.283C55.9554 300.43 56.2221 300.647 56.4088 300.933C56.6021 301.22 56.6988 301.557 56.6988 301.943C56.6988 302.17 56.6654 302.393 56.5988 302.613C56.5388 302.833 56.4254 303.067 56.2588 303.313C56.0988 303.553 55.8621 303.827 55.5488 304.133L52.8788 306.753L52.6788 306.473H57.0188V307.113H52.1088ZM60.6928 307.173C60.1528 307.173 59.6728 307.033 59.2528 306.753C58.8328 306.467 58.5028 306.06 58.2628 305.533C58.0228 305 57.9028 304.36 57.9028 303.613C57.9028 302.867 58.0228 302.23 58.2628 301.703C58.5028 301.17 58.8328 300.763 59.2528 300.483C59.6728 300.197 60.1528 300.053 60.6928 300.053C61.2328 300.053 61.7128 300.197 62.1328 300.483C62.5528 300.763 62.8828 301.17 63.1228 301.703C63.3695 302.23 63.4928 302.867 63.4928 303.613C63.4928 304.36 63.3695 305 63.1228 305.533C62.8828 306.06 62.5528 306.467 62.1328 306.753C61.7128 307.033 61.2328 307.173 60.6928 307.173ZM60.6928 306.513C61.1061 306.513 61.4661 306.403 61.7728 306.183C62.0795 305.957 62.3195 305.63 62.4928 305.203C62.6661 304.77 62.7528 304.24 62.7528 303.613C62.7528 302.987 62.6661 302.46 62.4928 302.033C62.3195 301.6 62.0795 301.273 61.7728 301.053C61.4661 300.827 61.1061 300.713 60.6928 300.713C60.2928 300.713 59.9361 300.827 59.6228 301.053C59.3095 301.273 59.0661 301.6 58.8928 302.033C58.7195 302.46 58.6328 302.987 58.6328 303.613C58.6328 304.24 58.7195 304.77 58.8928 305.203C59.0661 305.63 59.3095 305.957 59.6228 306.183C59.9361 306.403 60.2928 306.513 60.6928 306.513ZM65.7439 307.113V300.413L66.0639 300.753H64.0939V300.113H66.4639V307.113H65.7439ZM68.0172 305.273V304.753L71.7272 300.113H72.5272L68.8472 304.753L68.4572 304.633H74.0872V305.273H68.0172ZM71.9672 307.113V305.273L71.9872 304.633V303.013H72.6872V307.113H71.9672Z" fill="#858C95"/>
<path d="M12.6889 290.06C12.1489 290.06 11.6689 289.92 11.2489 289.64C10.8289 289.353 10.4989 288.947 10.2589 288.42C10.0189 287.887 9.89891 287.247 9.89891 286.5C9.89891 285.753 10.0189 285.117 10.2589 284.59C10.4989 284.057 10.8289 283.65 11.2489 283.37C11.6689 283.083 12.1489 282.94 12.6889 282.94C13.2289 282.94 13.7089 283.083 14.1289 283.37C14.5489 283.65 14.8789 284.057 15.1189 284.59C15.3656 285.117 15.4889 285.753 15.4889 286.5C15.4889 287.247 15.3656 287.887 15.1189 288.42C14.8789 288.947 14.5489 289.353 14.1289 289.64C13.7089 289.92 13.2289 290.06 12.6889 290.06ZM12.6889 289.4C13.1022 289.4 13.4622 289.29 13.7689 289.07C14.0756 288.843 14.3156 288.517 14.4889 288.09C14.6622 287.657 14.7489 287.127 14.7489 286.5C14.7489 285.873 14.6622 285.347 14.4889 284.92C14.3156 284.487 14.0756 284.16 13.7689 283.94C13.4622 283.713 13.1022 283.6 12.6889 283.6C12.2889 283.6 11.9322 283.713 11.6189 283.94C11.3056 284.16 11.0622 284.487 10.8889 284.92C10.7156 285.347 10.6289 285.873 10.6289 286.5C10.6289 287.127 10.7156 287.657 10.8889 288.09C11.0622 288.517 11.3056 288.843 11.6189 289.07C11.9322 289.29 12.2889 289.4 12.6889 289.4Z" fill="#858C95"/>
<path d="M12.6452 245.595C12.1385 245.595 11.6585 245.515 11.2052 245.355C10.7585 245.188 10.3985 244.968 10.1252 244.695L10.4752 244.125C10.7018 244.358 11.0052 244.552 11.3852 244.705C11.7718 244.858 12.1918 244.935 12.6452 244.935C13.2252 244.935 13.6685 244.808 13.9752 244.555C14.2885 244.302 14.4452 243.962 14.4452 243.535C14.4452 243.108 14.2918 242.768 13.9852 242.515C13.6852 242.262 13.2085 242.135 12.5552 242.135H12.0552V241.605L14.2152 238.895L14.3152 239.175H10.4152V238.535H14.9152V239.045L12.7552 241.755L12.4052 241.525H12.6752C13.5152 241.525 14.1418 241.712 14.5552 242.085C14.9752 242.458 15.1852 242.938 15.1852 243.525C15.1852 243.918 15.0918 244.272 14.9052 244.585C14.7185 244.898 14.4352 245.145 14.0552 245.325C13.6818 245.505 13.2118 245.595 12.6452 245.595Z" fill="#858C95"/>
<path d="M8.44313 104.645V97.9445L8.76313 98.2845H6.79313V97.6445H9.16313V104.645H8.44313ZM10.7064 104.645V104.135L13.6164 101.285C13.8831 101.025 14.0831 100.798 14.2164 100.605C14.3497 100.405 14.4397 100.218 14.4864 100.045C14.5331 99.8712 14.5564 99.7079 14.5564 99.5545C14.5564 99.1479 14.4164 98.8279 14.1364 98.5945C13.8631 98.3612 13.4564 98.2445 12.9164 98.2445C12.5031 98.2445 12.1364 98.3079 11.8164 98.4345C11.5031 98.5612 11.2331 98.7579 11.0064 99.0245L10.4964 98.5845C10.7697 98.2645 11.1197 98.0179 11.5464 97.8445C11.9731 97.6712 12.4497 97.5845 12.9764 97.5845C13.4497 97.5845 13.8597 97.6612 14.2064 97.8145C14.5531 97.9612 14.8197 98.1779 15.0064 98.4645C15.1997 98.7512 15.2964 99.0879 15.2964 99.4745C15.2964 99.7012 15.2631 99.9245 15.1964 100.145C15.1364 100.365 15.0231 100.598 14.8564 100.845C14.6964 101.085 14.4597 101.358 14.1464 101.665L11.4764 104.285L11.2764 104.005H15.6164V104.645H10.7064Z" fill="#858C95"/>
<path d="M8.46266 57.584V50.884L8.78266 51.224H6.81266V50.584H9.18266V57.584H8.46266ZM13.0659 57.644C12.5659 57.644 12.0893 57.564 11.6359 57.404C11.1826 57.2373 10.8226 57.0173 10.5559 56.744L10.9059 56.174C11.1259 56.4073 11.4259 56.6007 11.8059 56.754C12.1926 56.9073 12.6093 56.984 13.0559 56.984C13.6493 56.984 14.0993 56.854 14.4059 56.594C14.7193 56.3273 14.8759 55.9807 14.8759 55.554C14.8759 55.254 14.8026 54.9973 14.6559 54.784C14.5159 54.564 14.2759 54.394 13.9359 54.274C13.5959 54.154 13.1293 54.094 12.5359 54.094H11.0459L11.4059 50.584H15.2359V51.224H11.6959L12.0659 50.874L11.7559 53.814L11.3859 53.454H12.6959C13.4026 53.454 13.9693 53.5407 14.3959 53.714C14.8226 53.8873 15.1293 54.1307 15.3159 54.444C15.5093 54.7507 15.6059 55.1107 15.6059 55.524C15.6059 55.9173 15.5126 56.2773 15.3259 56.604C15.1393 56.924 14.8593 57.1773 14.4859 57.364C14.1126 57.5507 13.6393 57.644 13.0659 57.644Z" fill="#858C95"/>
<path d="M12.6525 144.645C13.2725 144.645 13.7958 144.785 14.2225 145.065C14.6492 145.338 14.9725 145.735 15.1925 146.255C15.4125 146.775 15.5225 147.405 15.5225 148.145C15.5225 148.932 15.3858 149.595 15.1125 150.135C14.8458 150.675 14.4725 151.082 13.9925 151.355C13.5125 151.628 12.9558 151.765 12.3225 151.765C12.0092 151.765 11.7092 151.735 11.4225 151.675C11.1425 151.615 10.8892 151.518 10.6625 151.385L10.9525 150.805C11.1325 150.925 11.3392 151.012 11.5725 151.065C11.8125 151.112 12.0592 151.135 12.3125 151.135C13.0658 151.135 13.6658 150.895 14.1125 150.415C14.5658 149.935 14.7925 149.218 14.7925 148.265C14.7925 148.112 14.7825 147.928 14.7625 147.715C14.7492 147.502 14.7125 147.288 14.6525 147.075L14.9025 147.265C14.8358 147.612 14.6925 147.908 14.4725 148.155C14.2592 148.395 13.9925 148.578 13.6725 148.705C13.3592 148.832 13.0092 148.895 12.6225 148.895C12.1625 148.895 11.7525 148.808 11.3925 148.635C11.0392 148.462 10.7625 148.218 10.5625 147.905C10.3625 147.592 10.2625 147.222 10.2625 146.795C10.2625 146.355 10.3658 145.975 10.5725 145.655C10.7792 145.335 11.0625 145.088 11.4225 144.915C11.7892 144.735 12.1992 144.645 12.6525 144.645ZM12.6825 145.255C12.3492 145.255 12.0525 145.318 11.7925 145.445C11.5392 145.565 11.3392 145.738 11.1925 145.965C11.0458 146.192 10.9725 146.462 10.9725 146.775C10.9725 147.235 11.1292 147.602 11.4425 147.875C11.7625 148.148 12.1925 148.285 12.7325 148.285C13.0925 148.285 13.4058 148.218 13.6725 148.085C13.9458 147.952 14.1558 147.768 14.3025 147.535C14.4558 147.302 14.5325 147.042 14.5325 146.755C14.5325 146.495 14.4625 146.252 14.3225 146.025C14.1825 145.798 13.9758 145.615 13.7025 145.475C13.4292 145.328 13.0892 145.255 12.6825 145.255Z" fill="#858C95"/>
<path d="M13.3425 197.32C12.7225 197.32 12.1992 197.183 11.7725 196.91C11.3458 196.63 11.0225 196.23 10.8025 195.71C10.5825 195.183 10.4725 194.553 10.4725 193.82C10.4725 193.026 10.6058 192.363 10.8725 191.83C11.1458 191.29 11.5225 190.883 12.0025 190.61C12.4825 190.336 13.0392 190.2 13.6725 190.2C13.9858 190.2 14.2858 190.23 14.5725 190.29C14.8592 190.35 15.1125 190.446 15.3325 190.58L15.0425 191.16C14.8625 191.04 14.6558 190.956 14.4225 190.91C14.1892 190.856 13.9425 190.83 13.6825 190.83C12.9292 190.83 12.3258 191.07 11.8725 191.55C11.4258 192.03 11.2025 192.746 11.2025 193.7C11.2025 193.846 11.2092 194.03 11.2225 194.25C11.2425 194.463 11.2825 194.676 11.3425 194.89L11.0925 194.7C11.1658 194.353 11.3092 194.06 11.5225 193.82C11.7358 193.573 12.0025 193.386 12.3225 193.26C12.6425 193.133 12.9925 193.07 13.3725 193.07C13.8392 193.07 14.2492 193.156 14.6025 193.33C14.9558 193.503 15.2325 193.746 15.4325 194.06C15.6325 194.373 15.7325 194.743 15.7325 195.17C15.7325 195.603 15.6292 195.983 15.4225 196.31C15.2158 196.63 14.9292 196.88 14.5625 197.06C14.2025 197.233 13.7958 197.32 13.3425 197.32ZM13.3125 196.71C13.6458 196.71 13.9392 196.65 14.1925 196.53C14.4525 196.403 14.6558 196.226 14.8025 196C14.9492 195.766 15.0225 195.496 15.0225 195.19C15.0225 194.73 14.8625 194.363 14.5425 194.09C14.2292 193.816 13.8025 193.68 13.2625 193.68C12.9025 193.68 12.5892 193.746 12.3225 193.88C12.0558 194.013 11.8458 194.196 11.6925 194.43C11.5392 194.656 11.4625 194.916 11.4625 195.21C11.4625 195.463 11.5325 195.706 11.6725 195.94C11.8125 196.166 12.0192 196.353 12.2925 196.5C12.5725 196.64 12.9125 196.71 13.3125 196.71Z" fill="#858C95"/>
<path d="M7.39664 10.418V3.71797L7.71664 4.05797H5.74664V3.41797H8.11664V10.418H7.39664ZM12.4499 10.478C11.8899 10.478 11.4066 10.398 10.9999 10.238C10.5999 10.078 10.2899 9.84797 10.0699 9.54797C9.85659 9.2413 9.74993 8.8813 9.74993 8.46797C9.74993 8.06797 9.85326 7.72797 10.0599 7.44797C10.2733 7.1613 10.5799 6.9413 10.9799 6.78797C11.3866 6.63464 11.8766 6.55797 12.4499 6.55797C13.0166 6.55797 13.5033 6.63464 13.9099 6.78797C14.3166 6.9413 14.6266 7.1613 14.8399 7.44797C15.0599 7.72797 15.1699 8.06797 15.1699 8.46797C15.1699 8.8813 15.0599 9.2413 14.8399 9.54797C14.6199 9.84797 14.3066 10.078 13.8999 10.238C13.4933 10.398 13.0099 10.478 12.4499 10.478ZM12.4499 9.86797C13.0699 9.86797 13.5533 9.7413 13.8999 9.48797C14.2533 9.23464 14.4299 8.8913 14.4299 8.45797C14.4299 8.02464 14.2533 7.68464 13.8999 7.43797C13.5533 7.18464 13.0699 7.05797 12.4499 7.05797C11.8299 7.05797 11.3466 7.18464 10.9999 7.43797C10.6533 7.68464 10.4799 8.02464 10.4799 8.45797C10.4799 8.8913 10.6533 9.23464 10.9999 9.48797C11.3466 9.7413 11.8299 9.86797 12.4499 9.86797ZM12.4499 6.96797C11.9299 6.96797 11.4866 6.89797 11.1199 6.75797C10.7599 6.61797 10.4833 6.41797 10.2899 6.15797C10.0966 5.8913 9.99993 5.57464 9.99993 5.20797C9.99993 4.8213 10.0999 4.4913 10.2999 4.21797C10.5066 3.93797 10.7933 3.72463 11.1599 3.57797C11.5266 3.4313 11.9566 3.35797 12.4499 3.35797C12.9433 3.35797 13.3733 3.4313 13.7399 3.57797C14.1133 3.72463 14.4033 3.93797 14.6099 4.21797C14.8166 4.4913 14.9199 4.8213 14.9199 5.20797C14.9199 5.57464 14.8233 5.8913 14.6299 6.15797C14.4366 6.41797 14.1533 6.61797 13.7799 6.75797C13.4133 6.89797 12.9699 6.96797 12.4499 6.96797ZM12.4499 6.48797C12.9966 6.48797 13.4233 6.37464 13.7299 6.14797C14.0366 5.9213 14.1899 5.61797 14.1899 5.23797C14.1899 4.83797 14.0299 4.52797 13.7099 4.30797C13.3966 4.0813 12.9766 3.96797 12.4499 3.96797C11.9233 3.96797 11.5033 4.0813 11.1899 4.30797C10.8766 4.52797 10.7199 4.83464 10.7199 5.22797C10.7199 5.61464 10.8699 5.9213 11.1699 6.14797C11.4766 6.37464 11.9033 6.48797 12.4499 6.48797Z" fill="#858C95"/>
<path d="M108.305 182.24C108.305 182.965 108.123 183.627 107.76 184.224C107.409 184.811 106.923 185.28 106.305 185.632C105.697 185.984 105.009 186.16 104.241 186.16C103.43 186.16 102.715 185.968 102.097 185.584C101.478 185.189 100.993 184.624 100.641 183.888C100.299 183.152 100.129 182.277 100.129 181.264C100.129 179.771 100.305 178.528 100.657 177.536C101.009 176.544 101.505 175.803 102.145 175.312C102.785 174.811 103.531 174.56 104.385 174.56C105.121 174.56 105.787 174.741 106.385 175.104C106.993 175.456 107.467 175.947 107.809 176.576L106.945 177.424C106.71 176.923 106.363 176.528 105.905 176.24C105.446 175.941 104.934 175.792 104.369 175.792C103.793 175.792 103.286 175.968 102.849 176.32C102.411 176.672 102.07 177.179 101.825 177.84C101.59 178.501 101.467 179.301 101.457 180.24C101.617 179.867 101.841 179.547 102.129 179.28C102.417 179.003 102.753 178.789 103.137 178.64C103.531 178.491 103.947 178.416 104.385 178.416C105.121 178.416 105.782 178.587 106.369 178.928C106.966 179.269 107.435 179.728 107.777 180.304C108.129 180.88 108.305 181.525 108.305 182.24ZM104.257 184.944C104.747 184.944 105.195 184.821 105.601 184.576C106.017 184.331 106.347 184.005 106.593 183.6C106.838 183.184 106.961 182.731 106.961 182.24C106.961 181.749 106.838 181.301 106.593 180.896C106.347 180.491 106.017 180.165 105.601 179.92C105.195 179.675 104.747 179.552 104.257 179.552C103.766 179.552 103.313 179.675 102.897 179.92C102.491 180.165 102.166 180.491 101.921 180.896C101.675 181.301 101.553 181.749 101.553 182.24C101.553 182.731 101.675 183.184 101.921 183.6C102.166 184.005 102.491 184.331 102.897 184.576C103.313 184.821 103.766 184.944 104.257 184.944ZM110.2 187.296L110.52 185.872H110.04V184.208H111.368V185.872L110.888 187.296H110.2ZM121.175 182.784C121.175 183.456 120.988 184.043 120.615 184.544C120.252 185.045 119.761 185.435 119.143 185.712C118.535 185.989 117.868 186.128 117.143 186.128C116.385 186.128 115.708 185.979 115.111 185.68C114.513 185.371 114.039 184.96 113.687 184.448C113.345 183.936 113.175 183.36 113.175 182.72C113.175 182.251 113.281 181.829 113.495 181.456C113.708 181.083 113.975 180.768 114.295 180.512C114.625 180.245 114.961 180.048 115.303 179.92C114.993 179.781 114.705 179.6 114.439 179.376C114.172 179.152 113.959 178.891 113.799 178.592C113.639 178.293 113.559 177.968 113.559 177.616C113.559 177.136 113.665 176.715 113.879 176.352C114.092 175.979 114.375 175.664 114.727 175.408C115.079 175.152 115.468 174.96 115.895 174.832C116.321 174.704 116.748 174.64 117.175 174.64C117.601 174.64 118.028 174.704 118.455 174.832C118.881 174.96 119.271 175.152 119.623 175.408C119.985 175.653 120.273 175.963 120.487 176.336C120.7 176.699 120.807 177.12 120.807 177.6C120.807 177.952 120.727 178.283 120.567 178.592C120.407 178.891 120.188 179.152 119.911 179.376C119.644 179.6 119.351 179.781 119.031 179.92C119.415 180.069 119.767 180.283 120.087 180.56C120.417 180.827 120.679 181.147 120.871 181.52C121.073 181.893 121.175 182.315 121.175 182.784ZM119.751 182.688C119.751 182.347 119.676 182.043 119.527 181.776C119.377 181.499 119.175 181.269 118.919 181.088C118.663 180.896 118.38 180.752 118.071 180.656C117.772 180.56 117.468 180.512 117.159 180.512C116.732 180.512 116.321 180.603 115.927 180.784C115.543 180.965 115.228 181.221 114.983 181.552C114.737 181.872 114.615 182.256 114.615 182.704C114.615 183.035 114.689 183.333 114.839 183.6C114.988 183.867 115.185 184.096 115.431 184.288C115.687 184.48 115.964 184.624 116.263 184.72C116.572 184.816 116.881 184.864 117.191 184.864C117.617 184.864 118.023 184.773 118.407 184.592C118.801 184.411 119.121 184.155 119.367 183.824C119.623 183.493 119.751 183.115 119.751 182.688ZM114.983 177.664C114.983 178.037 115.095 178.357 115.319 178.624C115.543 178.891 115.825 179.093 116.167 179.232C116.508 179.36 116.844 179.424 117.175 179.424C117.516 179.424 117.852 179.355 118.183 179.216C118.524 179.077 118.807 178.875 119.031 178.608C119.255 178.341 119.367 178.016 119.367 177.632C119.367 177.269 119.26 176.96 119.047 176.704C118.844 176.448 118.572 176.251 118.231 176.112C117.9 175.973 117.543 175.904 117.159 175.904C116.785 175.904 116.428 175.979 116.087 176.128C115.756 176.267 115.489 176.469 115.287 176.736C115.084 176.992 114.983 177.301 114.983 177.664ZM125.009 179.152C124.561 179.152 124.15 179.051 123.777 178.848C123.404 178.635 123.105 178.352 122.881 178C122.657 177.637 122.545 177.243 122.545 176.816C122.545 176.379 122.657 175.984 122.881 175.632C123.105 175.28 123.404 175.003 123.777 174.8C124.15 174.587 124.561 174.48 125.009 174.48C125.468 174.48 125.884 174.587 126.257 174.8C126.63 175.003 126.924 175.28 127.137 175.632C127.361 175.984 127.473 176.373 127.473 176.8C127.473 177.237 127.361 177.637 127.137 178C126.924 178.352 126.63 178.635 126.257 178.848C125.884 179.051 125.468 179.152 125.009 179.152ZM125.009 178.384C125.276 178.384 125.516 178.315 125.729 178.176C125.953 178.027 126.129 177.835 126.257 177.6C126.385 177.355 126.449 177.093 126.449 176.816C126.449 176.528 126.38 176.267 126.241 176.032C126.113 175.787 125.937 175.595 125.713 175.456C125.5 175.317 125.265 175.248 125.009 175.248C124.742 175.248 124.497 175.323 124.273 175.472C124.06 175.611 123.889 175.803 123.761 176.048C123.633 176.283 123.569 176.539 123.569 176.816C123.569 177.104 123.633 177.365 123.761 177.6C123.9 177.835 124.076 178.027 124.289 178.176C124.513 178.315 124.753 178.384 125.009 178.384ZM130.625 186.16C130.166 186.16 129.75 186.059 129.377 185.856C129.014 185.643 128.721 185.36 128.497 185.008C128.273 184.645 128.161 184.251 128.161 183.824C128.161 183.387 128.273 182.992 128.497 182.64C128.721 182.288 129.014 182.011 129.377 181.808C129.75 181.595 130.166 181.488 130.625 181.488C131.084 181.488 131.5 181.595 131.873 181.808C132.246 182.011 132.54 182.288 132.753 182.64C132.977 182.992 133.089 183.381 133.089 183.808C133.089 184.245 132.977 184.645 132.753 185.008C132.54 185.36 132.246 185.643 131.873 185.856C131.5 186.059 131.084 186.16 130.625 186.16ZM130.625 185.392C130.892 185.392 131.132 185.323 131.345 185.184C131.569 185.035 131.745 184.843 131.873 184.608C132.001 184.363 132.065 184.101 132.065 183.824C132.065 183.536 131.996 183.275 131.857 183.04C131.729 182.795 131.553 182.603 131.329 182.464C131.116 182.325 130.881 182.256 130.625 182.256C130.358 182.256 130.113 182.331 129.889 182.48C129.676 182.619 129.505 182.811 129.377 183.056C129.249 183.291 129.185 183.547 129.185 183.824C129.185 184.112 129.249 184.373 129.377 184.608C129.516 184.843 129.692 185.035 129.905 185.184C130.129 185.323 130.369 185.392 130.625 185.392ZM123.089 185.472L127.569 180.08L131.857 174.56L132.545 175.152L128.113 180.512L123.761 186.08L123.089 185.472Z" fill="#2F2F2F"/>
<path d="M240.845 64.72V66H235.197V64.72H237.373V56C237.287 56.128 237.149 56.272 236.957 56.432C236.765 56.5813 236.541 56.7307 236.285 56.88C236.039 57.0187 235.789 57.136 235.533 57.232C235.277 57.328 235.042 57.376 234.829 57.376V56.064C235.117 56.064 235.405 55.9893 235.693 55.84C235.991 55.6907 236.263 55.5147 236.509 55.312C236.765 55.1093 236.967 54.928 237.117 54.768C237.277 54.608 237.362 54.5227 237.373 54.512H238.813V64.72H240.845ZM245.475 66.16C244.664 66.16 243.934 65.968 243.283 65.584C242.643 65.2 242.152 64.6827 241.811 64.032L242.691 63.264C242.99 63.7547 243.384 64.1493 243.875 64.448C244.376 64.7467 244.915 64.896 245.491 64.896C245.982 64.896 246.419 64.7893 246.803 64.576C247.187 64.3627 247.491 64.0693 247.715 63.696C247.939 63.3227 248.051 62.8907 248.051 62.4C248.051 61.92 247.939 61.4987 247.715 61.136C247.502 60.7733 247.208 60.4907 246.835 60.288C246.472 60.0747 246.062 59.968 245.603 59.968C245.155 59.968 244.728 60.0693 244.323 60.272C243.918 60.4747 243.592 60.7627 243.347 61.136H242.067L243.347 54.64H248.867V55.936H244.387L243.699 59.552C243.934 59.296 244.227 59.0987 244.579 58.96C244.942 58.8213 245.342 58.752 245.779 58.752C246.483 58.752 247.112 58.9067 247.667 59.216C248.232 59.5253 248.675 59.952 248.995 60.496C249.326 61.0293 249.491 61.6533 249.491 62.368C249.491 63.1147 249.31 63.776 248.947 64.352C248.595 64.9173 248.115 65.36 247.507 65.68C246.91 66 246.232 66.16 245.475 66.16ZM253.181 59.152C252.733 59.152 252.322 59.0507 251.949 58.848C251.576 58.6347 251.277 58.352 251.053 58C250.829 57.6373 250.717 57.2427 250.717 56.816C250.717 56.3787 250.829 55.984 251.053 55.632C251.277 55.28 251.576 55.0027 251.949 54.8C252.322 54.5867 252.733 54.48 253.181 54.48C253.64 54.48 254.056 54.5867 254.429 54.8C254.802 55.0027 255.096 55.28 255.309 55.632C255.533 55.984 255.645 56.3733 255.645 56.8C255.645 57.2373 255.533 57.6373 255.309 58C255.096 58.352 254.802 58.6347 254.429 58.848C254.056 59.0507 253.64 59.152 253.181 59.152ZM253.181 58.384C253.448 58.384 253.688 58.3147 253.901 58.176C254.125 58.0267 254.301 57.8347 254.429 57.6C254.557 57.3547 254.621 57.0933 254.621 56.816C254.621 56.528 254.552 56.2667 254.413 56.032C254.285 55.7867 254.109 55.5947 253.885 55.456C253.672 55.3173 253.437 55.248 253.181 55.248C252.914 55.248 252.669 55.3227 252.445 55.472C252.232 55.6107 252.061 55.8027 251.933 56.048C251.805 56.2827 251.741 56.5387 251.741 56.816C251.741 57.104 251.805 57.3653 251.933 57.6C252.072 57.8347 252.248 58.0267 252.461 58.176C252.685 58.3147 252.925 58.384 253.181 58.384ZM258.797 66.16C258.338 66.16 257.922 66.0587 257.549 65.856C257.186 65.6427 256.893 65.36 256.669 65.008C256.445 64.6453 256.333 64.2507 256.333 63.824C256.333 63.3867 256.445 62.992 256.669 62.64C256.893 62.288 257.186 62.0107 257.549 61.808C257.922 61.5947 258.338 61.488 258.797 61.488C259.256 61.488 259.672 61.5947 260.045 61.808C260.418 62.0107 260.712 62.288 260.925 62.64C261.149 62.992 261.261 63.3813 261.261 63.808C261.261 64.2453 261.149 64.6453 260.925 65.008C260.712 65.36 260.418 65.6427 260.045 65.856C259.672 66.0587 259.256 66.16 258.797 66.16ZM258.797 65.392C259.064 65.392 259.304 65.3227 259.517 65.184C259.741 65.0347 259.917 64.8427 260.045 64.608C260.173 64.3627 260.237 64.1013 260.237 63.824C260.237 63.536 260.168 63.2747 260.029 63.04C259.901 62.7947 259.725 62.6027 259.501 62.464C259.288 62.3253 259.053 62.256 258.797 62.256C258.53 62.256 258.285 62.3307 258.061 62.48C257.848 62.6187 257.677 62.8107 257.549 63.056C257.421 63.2907 257.357 63.5467 257.357 63.824C257.357 64.112 257.421 64.3733 257.549 64.608C257.688 64.8427 257.864 65.0347 258.077 65.184C258.301 65.3227 258.541 65.392 258.797 65.392ZM251.261 65.472L255.741 60.08L260.029 54.56L260.717 55.152L256.285 60.512L251.933 66.08L251.261 65.472Z" fill="#2F2F2F"/>
<rect x="42" y="174" width="49" height="115" fill="#2D6FD0"/>
<rect x="175" y="54" width="51" height="235" fill="#2D6FD0"/>
</svg>
