<svg width="287" height="308" viewBox="0 0 287 308" fill="none" xmlns="http://www.w3.org/2000/svg">
<path d="M23 8L23 290" stroke="#F5F6F7"/>
<path d="M67 8L67 290" stroke="#F5F6F7"/>
<path d="M111 8L111 289" stroke="#F5F6F7"/>
<path d="M199 7L199 289" stroke="#F5F6F7"/>
<path d="M155 6L155 289" stroke="#F5F6F7"/>
<path d="M243 7L243 289" stroke="#F5F6F7"/>
<path d="M286 7L286 289" stroke="#F5F6F7"/>
<path d="M23 175H287" stroke="#F5F6F7"/>
<path d="M23 231H287" stroke="#F5F6F7"/>
<path d="M23 120H287" stroke="#F5F6F7"/>
<path d="M23 64L287 64" stroke="#F5F6F7"/>
<path d="M23 7H287" stroke="#F5F6F7"/>
<path d="M23 289L287 289" stroke="#F5F6F7"/>
<path d="M23 6L23 289" stroke="#F5F6F7"/>
<path d="M186.812 307.113V306.603L189.722 303.753C189.989 303.493 190.189 303.267 190.322 303.073C190.455 302.873 190.545 302.687 190.592 302.513C190.639 302.34 190.662 302.177 190.662 302.023C190.662 301.617 190.522 301.297 190.242 301.063C189.969 300.83 189.562 300.713 189.022 300.713C188.609 300.713 188.242 300.777 187.922 300.903C187.609 301.03 187.339 301.227 187.112 301.493L186.602 301.053C186.875 300.733 187.225 300.487 187.652 300.313C188.079 300.14 188.555 300.053 189.082 300.053C189.555 300.053 189.965 300.13 190.312 300.283C190.659 300.43 190.925 300.647 191.112 300.933C191.305 301.22 191.402 301.557 191.402 301.943C191.402 302.17 191.369 302.393 191.302 302.613C191.242 302.833 191.129 303.067 190.962 303.313C190.802 303.553 190.565 303.827 190.252 304.133L187.582 306.753L187.382 306.473H191.722V307.113H186.812ZM195.396 307.173C194.856 307.173 194.376 307.033 193.956 306.753C193.536 306.467 193.206 306.06 192.966 305.533C192.726 305 192.606 304.36 192.606 303.613C192.606 302.867 192.726 302.23 192.966 301.703C193.206 301.17 193.536 300.763 193.956 300.483C194.376 300.197 194.856 300.053 195.396 300.053C195.936 300.053 196.416 300.197 196.836 300.483C197.256 300.763 197.586 301.17 197.826 301.703C198.073 302.23 198.196 302.867 198.196 303.613C198.196 304.36 198.073 305 197.826 305.533C197.586 306.06 197.256 306.467 196.836 306.753C196.416 307.033 195.936 307.173 195.396 307.173ZM195.396 306.513C195.809 306.513 196.169 306.403 196.476 306.183C196.783 305.957 197.023 305.63 197.196 305.203C197.369 304.77 197.456 304.24 197.456 303.613C197.456 302.987 197.369 302.46 197.196 302.033C197.023 301.6 196.783 301.273 196.476 301.053C196.169 300.827 195.809 300.713 195.396 300.713C194.996 300.713 194.639 300.827 194.326 301.053C194.013 301.273 193.769 301.6 193.596 302.033C193.423 302.46 193.336 302.987 193.336 303.613C193.336 304.24 193.423 304.77 193.596 305.203C193.769 305.63 194.013 305.957 194.326 306.183C194.639 306.403 194.996 306.513 195.396 306.513ZM201.219 307.173C200.713 307.173 200.233 307.093 199.779 306.933C199.333 306.767 198.973 306.547 198.699 306.273L199.049 305.703C199.276 305.937 199.579 306.13 199.959 306.283C200.346 306.437 200.766 306.513 201.219 306.513C201.799 306.513 202.243 306.387 202.549 306.133C202.863 305.88 203.019 305.54 203.019 305.113C203.019 304.687 202.866 304.347 202.559 304.093C202.259 303.84 201.783 303.713 201.129 303.713H200.629V303.183L202.789 300.473L202.889 300.753H198.989V300.113H203.489V300.623L201.329 303.333L200.979 303.103H201.249C202.089 303.103 202.716 303.29 203.129 303.663C203.549 304.037 203.759 304.517 203.759 305.103C203.759 305.497 203.666 305.85 203.479 306.163C203.293 306.477 203.009 306.723 202.629 306.903C202.256 307.083 201.786 307.173 201.219 307.173ZM207.564 307.173C207.024 307.173 206.544 307.033 206.124 306.753C205.704 306.467 205.374 306.06 205.134 305.533C204.894 305 204.774 304.36 204.774 303.613C204.774 302.867 204.894 302.23 205.134 301.703C205.374 301.17 205.704 300.763 206.124 300.483C206.544 300.197 207.024 300.053 207.564 300.053C208.104 300.053 208.584 300.197 209.004 300.483C209.424 300.763 209.754 301.17 209.994 301.703C210.241 302.23 210.364 302.867 210.364 303.613C210.364 304.36 210.241 305 209.994 305.533C209.754 306.06 209.424 306.467 209.004 306.753C208.584 307.033 208.104 307.173 207.564 307.173ZM207.564 306.513C207.977 306.513 208.337 306.403 208.644 306.183C208.951 305.957 209.191 305.63 209.364 305.203C209.537 304.77 209.624 304.24 209.624 303.613C209.624 302.987 209.537 302.46 209.364 302.033C209.191 301.6 208.951 301.273 208.644 301.053C208.337 300.827 207.977 300.713 207.564 300.713C207.164 300.713 206.807 300.827 206.494 301.053C206.181 301.273 205.937 301.6 205.764 302.033C205.591 302.46 205.504 302.987 205.504 303.613C205.504 304.24 205.591 304.77 205.764 305.203C205.937 305.63 206.181 305.957 206.494 306.183C206.807 306.403 207.164 306.513 207.564 306.513Z" fill="#858C95"/>
<path d="M52.1088 307.113V306.603L55.0188 303.753C55.2854 303.493 55.4854 303.267 55.6188 303.073C55.7521 302.873 55.8421 302.687 55.8888 302.513C55.9354 302.34 55.9588 302.177 55.9588 302.023C55.9588 301.617 55.8188 301.297 55.5388 301.063C55.2654 300.83 54.8588 300.713 54.3188 300.713C53.9054 300.713 53.5388 300.777 53.2188 300.903C52.9054 301.03 52.6354 301.227 52.4088 301.493L51.8988 301.053C52.1721 300.733 52.5221 300.487 52.9488 300.313C53.3754 300.14 53.8521 300.053 54.3788 300.053C54.8521 300.053 55.2621 300.13 55.6088 300.283C55.9554 300.43 56.2221 300.647 56.4088 300.933C56.6021 301.22 56.6988 301.557 56.6988 301.943C56.6988 302.17 56.6654 302.393 56.5988 302.613C56.5388 302.833 56.4254 303.067 56.2588 303.313C56.0988 303.553 55.8621 303.827 55.5488 304.133L52.8788 306.753L52.6788 306.473H57.0188V307.113H52.1088ZM60.6928 307.173C60.1528 307.173 59.6728 307.033 59.2528 306.753C58.8328 306.467 58.5028 306.06 58.2628 305.533C58.0228 305 57.9028 304.36 57.9028 303.613C57.9028 302.867 58.0228 302.23 58.2628 301.703C58.5028 301.17 58.8328 300.763 59.2528 300.483C59.6728 300.197 60.1528 300.053 60.6928 300.053C61.2328 300.053 61.7128 300.197 62.1328 300.483C62.5528 300.763 62.8828 301.17 63.1228 301.703C63.3695 302.23 63.4928 302.867 63.4928 303.613C63.4928 304.36 63.3695 305 63.1228 305.533C62.8828 306.06 62.5528 306.467 62.1328 306.753C61.7128 307.033 61.2328 307.173 60.6928 307.173ZM60.6928 306.513C61.1061 306.513 61.4661 306.403 61.7728 306.183C62.0795 305.957 62.3195 305.63 62.4928 305.203C62.6661 304.77 62.7528 304.24 62.7528 303.613C62.7528 302.987 62.6661 302.46 62.4928 302.033C62.3195 301.6 62.0795 301.273 61.7728 301.053C61.4661 300.827 61.1061 300.713 60.6928 300.713C60.2928 300.713 59.9361 300.827 59.6228 301.053C59.3095 301.273 59.0661 301.6 58.8928 302.033C58.7195 302.46 58.6328 302.987 58.6328 303.613C58.6328 304.24 58.7195 304.77 58.8928 305.203C59.0661 305.63 59.3095 305.957 59.6228 306.183C59.9361 306.403 60.2928 306.513 60.6928 306.513ZM65.7439 307.113V300.413L66.0639 300.753H64.0939V300.113H66.4639V307.113H65.7439ZM68.0172 305.273V304.753L71.7272 300.113H72.5272L68.8472 304.753L68.4572 304.633H74.0872V305.273H68.0172ZM71.9672 307.113V305.273L71.9872 304.633V303.013H72.6872V307.113H71.9672Z" fill="#858C95"/>
<path d="M12.6889 289.06C12.1489 289.06 11.6689 288.92 11.2489 288.64C10.8289 288.353 10.4989 287.947 10.2589 287.42C10.0189 286.887 9.89891 286.247 9.89891 285.5C9.89891 284.753 10.0189 284.117 10.2589 283.59C10.4989 283.057 10.8289 282.65 11.2489 282.37C11.6689 282.083 12.1489 281.94 12.6889 281.94C13.2289 281.94 13.7089 282.083 14.1289 282.37C14.5489 282.65 14.8789 283.057 15.1189 283.59C15.3656 284.117 15.4889 284.753 15.4889 285.5C15.4889 286.247 15.3656 286.887 15.1189 287.42C14.8789 287.947 14.5489 288.353 14.1289 288.64C13.7089 288.92 13.2289 289.06 12.6889 289.06ZM12.6889 288.4C13.1022 288.4 13.4622 288.29 13.7689 288.07C14.0756 287.843 14.3156 287.517 14.4889 287.09C14.6622 286.657 14.7489 286.127 14.7489 285.5C14.7489 284.873 14.6622 284.347 14.4889 283.92C14.3156 283.487 14.0756 283.16 13.7689 282.94C13.4622 282.713 13.1022 282.6 12.6889 282.6C12.2889 282.6 11.9322 282.713 11.6189 282.94C11.3056 283.16 11.0622 283.487 10.8889 283.92C10.7156 284.347 10.6289 284.873 10.6289 285.5C10.6289 286.127 10.7156 286.657 10.8889 287.09C11.0622 287.517 11.3056 287.843 11.6189 288.07C11.9322 288.29 12.2889 288.4 12.6889 288.4Z" fill="#858C95"/>
<path d="M10.3861 233V232.49L13.2961 229.64C13.5628 229.38 13.7628 229.153 13.8961 228.96C14.0294 228.76 14.1194 228.573 14.1661 228.4C14.2128 228.227 14.2361 228.063 14.2361 227.91C14.2361 227.503 14.0961 227.183 13.8161 226.95C13.5428 226.717 13.1361 226.6 12.5961 226.6C12.1828 226.6 11.8161 226.663 11.4961 226.79C11.1828 226.917 10.9128 227.113 10.6861 227.38L10.1761 226.94C10.4494 226.62 10.7994 226.373 11.2261 226.2C11.6528 226.027 12.1294 225.94 12.6561 225.94C13.1294 225.94 13.5394 226.017 13.8861 226.17C14.2328 226.317 14.4994 226.533 14.6861 226.82C14.8794 227.107 14.9761 227.443 14.9761 227.83C14.9761 228.057 14.9428 228.28 14.8761 228.5C14.8161 228.72 14.7028 228.953 14.5361 229.2C14.3761 229.44 14.1394 229.713 13.8261 230.02L11.1561 232.64L10.9561 232.36H15.2961V233H10.3861Z" fill="#858C95"/>
<path d="M12.803 67.06C12.243 67.06 11.7597 66.98 11.353 66.82C10.953 66.66 10.643 66.43 10.423 66.13C10.2097 65.8233 10.103 65.4633 10.103 65.05C10.103 64.65 10.2064 64.31 10.413 64.03C10.6264 63.7433 10.933 63.5233 11.333 63.37C11.7397 63.2167 12.2297 63.14 12.803 63.14C13.3697 63.14 13.8564 63.2167 14.263 63.37C14.6697 63.5233 14.9797 63.7433 15.193 64.03C15.413 64.31 15.523 64.65 15.523 65.05C15.523 65.4633 15.413 65.8233 15.193 66.13C14.973 66.43 14.6597 66.66 14.253 66.82C13.8464 66.98 13.363 67.06 12.803 67.06ZM12.803 66.45C13.423 66.45 13.9064 66.3233 14.253 66.07C14.6064 65.8167 14.783 65.4733 14.783 65.04C14.783 64.6067 14.6064 64.2667 14.253 64.02C13.9064 63.7667 13.423 63.64 12.803 63.64C12.183 63.64 11.6997 63.7667 11.353 64.02C11.0064 64.2667 10.833 64.6067 10.833 65.04C10.833 65.4733 11.0064 65.8167 11.353 66.07C11.6997 66.3233 12.183 66.45 12.803 66.45ZM12.803 63.55C12.283 63.55 11.8397 63.48 11.473 63.34C11.113 63.2 10.8364 63 10.643 62.74C10.4497 62.4733 10.353 62.1567 10.353 61.79C10.353 61.4033 10.453 61.0733 10.653 60.8C10.8597 60.52 11.1464 60.3067 11.513 60.16C11.8797 60.0133 12.3097 59.94 12.803 59.94C13.2964 59.94 13.7264 60.0133 14.093 60.16C14.4664 60.3067 14.7564 60.52 14.963 60.8C15.1697 61.0733 15.273 61.4033 15.273 61.79C15.273 62.1567 15.1764 62.4733 14.983 62.74C14.7897 63 14.5064 63.2 14.133 63.34C13.7664 63.48 13.323 63.55 12.803 63.55ZM12.803 63.07C13.3497 63.07 13.7764 62.9567 14.083 62.73C14.3897 62.5033 14.543 62.2 14.543 61.82C14.543 61.42 14.383 61.11 14.063 60.89C13.7497 60.6633 13.3297 60.55 12.803 60.55C12.2764 60.55 11.8564 60.6633 11.543 60.89C11.2297 61.11 11.073 61.4167 11.073 61.81C11.073 62.1967 11.223 62.5033 11.523 62.73C11.8297 62.9567 12.2564 63.07 12.803 63.07Z" fill="#858C95"/>
<path d="M7.50563 10.584V3.88398L7.82563 4.22398H5.85563V3.58398H8.22563V10.584H7.50563ZM12.6889 10.644C12.1489 10.644 11.6689 10.504 11.2489 10.224C10.8289 9.93732 10.4989 9.53065 10.2589 9.00398C10.0189 8.47065 9.89891 7.83065 9.89891 7.08398C9.89891 6.33732 10.0189 5.70065 10.2589 5.17398C10.4989 4.64065 10.8289 4.23398 11.2489 3.95398C11.6689 3.66732 12.1489 3.52398 12.6889 3.52398C13.2289 3.52398 13.7089 3.66732 14.1289 3.95398C14.5489 4.23398 14.8789 4.64065 15.1189 5.17398C15.3656 5.70065 15.4889 6.33732 15.4889 7.08398C15.4889 7.83065 15.3656 8.47065 15.1189 9.00398C14.8789 9.53065 14.5489 9.93732 14.1289 10.224C13.7089 10.504 13.2289 10.644 12.6889 10.644ZM12.6889 9.98398C13.1022 9.98398 13.4622 9.87398 13.7689 9.65398C14.0756 9.42732 14.3156 9.10065 14.4889 8.67398C14.6622 8.24065 14.7489 7.71065 14.7489 7.08398C14.7489 6.45732 14.6622 5.93065 14.4889 5.50398C14.3156 5.07065 14.0756 4.74398 13.7689 4.52398C13.4622 4.29732 13.1022 4.18398 12.6889 4.18398C12.2889 4.18398 11.9322 4.29732 11.6189 4.52398C11.3056 4.74398 11.0622 5.07065 10.8889 5.50398C10.7156 5.93065 10.6289 6.45732 10.6289 7.08398C10.6289 7.71065 10.7156 8.24065 10.8889 8.67398C11.0622 9.10065 11.3056 9.42732 11.6189 9.65398C11.9322 9.87398 12.2889 9.98398 12.6889 9.98398Z" fill="#858C95"/>
<path d="M13.3425 123.06C12.7225 123.06 12.1992 122.923 11.7725 122.65C11.3458 122.37 11.0225 121.97 10.8025 121.45C10.5825 120.923 10.4725 120.293 10.4725 119.56C10.4725 118.767 10.6058 118.103 10.8725 117.57C11.1458 117.03 11.5225 116.623 12.0025 116.35C12.4825 116.077 13.0392 115.94 13.6725 115.94C13.9858 115.94 14.2858 115.97 14.5725 116.03C14.8592 116.09 15.1125 116.187 15.3325 116.32L15.0425 116.9C14.8625 116.78 14.6558 116.697 14.4225 116.65C14.1892 116.597 13.9425 116.57 13.6825 116.57C12.9292 116.57 12.3258 116.81 11.8725 117.29C11.4258 117.77 11.2025 118.487 11.2025 119.44C11.2025 119.587 11.2092 119.77 11.2225 119.99C11.2425 120.203 11.2825 120.417 11.3425 120.63L11.0925 120.44C11.1658 120.093 11.3092 119.8 11.5225 119.56C11.7358 119.313 12.0025 119.127 12.3225 119C12.6425 118.873 12.9925 118.81 13.3725 118.81C13.8392 118.81 14.2492 118.897 14.6025 119.07C14.9558 119.243 15.2325 119.487 15.4325 119.8C15.6325 120.113 15.7325 120.483 15.7325 120.91C15.7325 121.343 15.6292 121.723 15.4225 122.05C15.2158 122.37 14.9292 122.62 14.5625 122.8C14.2025 122.973 13.7958 123.06 13.3425 123.06ZM13.3125 122.45C13.6458 122.45 13.9392 122.39 14.1925 122.27C14.4525 122.143 14.6558 121.967 14.8025 121.74C14.9492 121.507 15.0225 121.237 15.0225 120.93C15.0225 120.47 14.8625 120.103 14.5425 119.83C14.2292 119.557 13.8025 119.42 13.2625 119.42C12.9025 119.42 12.5892 119.487 12.3225 119.62C12.0558 119.753 11.8458 119.937 11.6925 120.17C11.5392 120.397 11.4625 120.657 11.4625 120.95C11.4625 121.203 11.5325 121.447 11.6725 121.68C11.8125 121.907 12.0192 122.093 12.2925 122.24C12.5725 122.38 12.9125 122.45 13.3125 122.45Z" fill="#858C95"/>
<path d="M9.83493 176.16V175.64L13.5449 171H14.3449L10.6649 175.64L10.2749 175.52H15.9049V176.16H9.83493ZM13.7849 178V176.16L13.8049 175.52V173.9H14.5049V178H13.7849Z" fill="#858C95"/>
<path d="M97.855 225C97.855 224.4 97.905 223.87 98.005 223.41C98.115 222.94 98.27 222.52 98.47 222.15C98.68 221.78 98.93 221.455 99.22 221.175C99.51 220.895 99.84 220.645 100.21 220.425C100.6 220.195 101 219.985 101.41 219.795C101.82 219.605 102.2 219.405 102.55 219.195C102.9 218.985 103.18 218.735 103.39 218.445C103.61 218.145 103.72 217.775 103.72 217.335C103.72 216.985 103.645 216.67 103.495 216.39C103.345 216.1 103.12 215.87 102.82 215.7C102.52 215.53 102.135 215.445 101.665 215.445C101.195 215.445 100.77 215.525 100.39 215.685C100.02 215.845 99.7 216.035 99.43 216.255C99.16 216.475 98.945 216.685 98.785 216.885L97.93 216.03C98.01 215.93 98.15 215.78 98.35 215.58C98.56 215.38 98.825 215.175 99.145 214.965C99.475 214.755 99.86 214.58 100.3 214.44C100.74 214.29 101.24 214.215 101.8 214.215C102.55 214.215 103.175 214.355 103.675 214.635C104.175 214.915 104.55 215.29 104.8 215.76C105.06 216.23 105.19 216.75 105.19 217.32C105.19 217.83 105.095 218.27 104.905 218.64C104.715 219 104.47 219.305 104.17 219.555C103.87 219.805 103.54 220.025 103.18 220.215C102.83 220.405 102.49 220.585 102.16 220.755C101.53 221.055 101.03 221.33 100.66 221.58C100.29 221.83 100.005 222.075 99.805 222.315C99.615 222.545 99.485 222.78 99.415 223.02C99.355 223.26 99.32 223.52 99.31 223.8H105.205V225H97.855ZM107.123 226.215L107.423 224.88H106.973V223.32H108.218V224.88L107.768 226.215H107.123ZM114.592 225V222.285H109.582V221.1L114.997 214.35H115.912V221.085H117.232V222.285H115.912V225H114.592ZM110.962 221.085H114.727V216.375L110.962 221.085ZM120.699 218.58C120.279 218.58 119.894 218.485 119.544 218.295C119.194 218.095 118.914 217.83 118.704 217.5C118.494 217.16 118.389 216.79 118.389 216.39C118.389 215.98 118.494 215.61 118.704 215.28C118.914 214.95 119.194 214.69 119.544 214.5C119.894 214.3 120.279 214.2 120.699 214.2C121.129 214.2 121.519 214.3 121.869 214.5C122.219 214.69 122.494 214.95 122.694 215.28C122.904 215.61 123.009 215.975 123.009 216.375C123.009 216.785 122.904 217.16 122.694 217.5C122.494 217.83 122.219 218.095 121.869 218.295C121.519 218.485 121.129 218.58 120.699 218.58ZM120.699 217.86C120.949 217.86 121.174 217.795 121.374 217.665C121.584 217.525 121.749 217.345 121.869 217.125C121.989 216.895 122.049 216.65 122.049 216.39C122.049 216.12 121.984 215.875 121.854 215.655C121.734 215.425 121.569 215.245 121.359 215.115C121.159 214.985 120.939 214.92 120.699 214.92C120.449 214.92 120.219 214.99 120.009 215.13C119.809 215.26 119.649 215.44 119.529 215.67C119.409 215.89 119.349 216.13 119.349 216.39C119.349 216.66 119.409 216.905 119.529 217.125C119.659 217.345 119.824 217.525 120.024 217.665C120.234 217.795 120.459 217.86 120.699 217.86ZM125.964 225.15C125.534 225.15 125.144 225.055 124.794 224.865C124.454 224.665 124.179 224.4 123.969 224.07C123.759 223.73 123.654 223.36 123.654 222.96C123.654 222.55 123.759 222.18 123.969 221.85C124.179 221.52 124.454 221.26 124.794 221.07C125.144 220.87 125.534 220.77 125.964 220.77C126.394 220.77 126.784 220.87 127.134 221.07C127.484 221.26 127.759 221.52 127.959 221.85C128.169 222.18 128.274 222.545 128.274 222.945C128.274 223.355 128.169 223.73 127.959 224.07C127.759 224.4 127.484 224.665 127.134 224.865C126.784 225.055 126.394 225.15 125.964 225.15ZM125.964 224.43C126.214 224.43 126.439 224.365 126.639 224.235C126.849 224.095 127.014 223.915 127.134 223.695C127.254 223.465 127.314 223.22 127.314 222.96C127.314 222.69 127.249 222.445 127.119 222.225C126.999 221.995 126.834 221.815 126.624 221.685C126.424 221.555 126.204 221.49 125.964 221.49C125.714 221.49 125.484 221.56 125.274 221.7C125.074 221.83 124.914 222.01 124.794 222.24C124.674 222.46 124.614 222.7 124.614 222.96C124.614 223.23 124.674 223.475 124.794 223.695C124.924 223.915 125.089 224.095 125.289 224.235C125.499 224.365 125.724 224.43 125.964 224.43ZM118.899 224.505L123.099 219.45L127.119 214.275L127.764 214.83L123.609 219.855L119.529 225.075L118.899 224.505Z" fill="#2F2F2F"/>
<path d="M232.851 34.95C232.851 34.26 233.016 33.64 233.346 33.09C233.686 32.53 234.146 32.09 234.726 31.77C235.306 31.44 235.951 31.275 236.661 31.275C237.431 31.275 238.101 31.46 238.671 31.83C239.251 32.19 239.701 32.71 240.021 33.39C240.351 34.07 240.516 34.89 240.516 35.85C240.516 37.25 240.351 38.42 240.021 39.36C239.691 40.29 239.226 40.99 238.626 41.46C238.026 41.92 237.326 42.15 236.526 42.15C235.836 42.15 235.206 41.985 234.636 41.655C234.076 41.315 233.636 40.845 233.316 40.245L234.126 39.45C234.346 39.91 234.671 40.28 235.101 40.56C235.541 40.84 236.021 40.98 236.541 40.98C237.091 40.98 237.566 40.82 237.966 40.5C238.376 40.17 238.696 39.695 238.926 39.075C239.156 38.455 239.271 37.705 239.271 36.825C239.131 37.165 238.921 37.465 238.641 37.725C238.371 37.985 238.056 38.185 237.696 38.325C237.336 38.465 236.946 38.535 236.526 38.535C235.846 38.535 235.226 38.375 234.666 38.055C234.106 37.735 233.661 37.305 233.331 36.765C233.011 36.215 232.851 35.61 232.851 34.95ZM236.646 32.4C236.186 32.4 235.766 32.515 235.386 32.745C235.006 32.975 234.701 33.285 234.471 33.675C234.241 34.055 234.126 34.475 234.126 34.935C234.126 35.395 234.241 35.815 234.471 36.195C234.701 36.575 235.006 36.88 235.386 37.11C235.776 37.34 236.201 37.455 236.661 37.455C237.121 37.455 237.541 37.34 237.921 37.11C238.311 36.88 238.621 36.575 238.851 36.195C239.081 35.815 239.196 35.4 239.196 34.95C239.196 34.49 239.076 34.07 238.836 33.69C238.606 33.3 238.296 32.99 237.906 32.76C237.526 32.52 237.106 32.4 236.646 32.4ZM242.398 43.215L242.698 41.88H242.248V40.32H243.493V41.88L243.043 43.215H242.398ZM249.627 42.15C248.897 42.13 248.252 41.955 247.692 41.625C247.132 41.295 246.662 40.865 246.282 40.335C245.912 39.795 245.632 39.215 245.442 38.595C245.252 37.965 245.157 37.35 245.157 36.75C245.157 36.11 245.257 35.47 245.457 34.83C245.667 34.19 245.967 33.61 246.357 33.09C246.747 32.56 247.217 32.14 247.767 31.83C248.317 31.51 248.937 31.35 249.627 31.35C250.367 31.35 251.012 31.52 251.562 31.86C252.122 32.2 252.587 32.64 252.957 33.18C253.337 33.72 253.622 34.305 253.812 34.935C254.002 35.565 254.097 36.17 254.097 36.75C254.097 37.4 253.992 38.045 253.782 38.685C253.582 39.315 253.287 39.89 252.897 40.41C252.507 40.93 252.037 41.35 251.487 41.67C250.937 41.98 250.317 42.14 249.627 42.15ZM246.522 36.75C246.542 37.24 246.617 37.73 246.747 38.22C246.877 38.71 247.072 39.16 247.332 39.57C247.592 39.98 247.912 40.31 248.292 40.56C248.672 40.81 249.117 40.935 249.627 40.935C250.157 40.935 250.617 40.805 251.007 40.545C251.397 40.275 251.717 39.93 251.967 39.51C252.227 39.08 252.417 38.625 252.537 38.145C252.667 37.655 252.732 37.19 252.732 36.75C252.732 36.26 252.662 35.77 252.522 35.28C252.392 34.79 252.192 34.34 251.922 33.93C251.652 33.52 251.327 33.19 250.947 32.94C250.567 32.69 250.127 32.565 249.627 32.565C249.097 32.565 248.637 32.7 248.247 32.97C247.857 33.23 247.532 33.575 247.272 34.005C247.022 34.425 246.832 34.88 246.702 35.37C246.582 35.85 246.522 36.31 246.522 36.75ZM257.673 35.58C257.253 35.58 256.868 35.485 256.518 35.295C256.168 35.095 255.888 34.83 255.678 34.5C255.468 34.16 255.363 33.79 255.363 33.39C255.363 32.98 255.468 32.61 255.678 32.28C255.888 31.95 256.168 31.69 256.518 31.5C256.868 31.3 257.253 31.2 257.673 31.2C258.103 31.2 258.493 31.3 258.843 31.5C259.193 31.69 259.468 31.95 259.668 32.28C259.878 32.61 259.983 32.975 259.983 33.375C259.983 33.785 259.878 34.16 259.668 34.5C259.468 34.83 259.193 35.095 258.843 35.295C258.493 35.485 258.103 35.58 257.673 35.58ZM257.673 34.86C257.923 34.86 258.148 34.795 258.348 34.665C258.558 34.525 258.723 34.345 258.843 34.125C258.963 33.895 259.023 33.65 259.023 33.39C259.023 33.12 258.958 32.875 258.828 32.655C258.708 32.425 258.543 32.245 258.333 32.115C258.133 31.985 257.913 31.92 257.673 31.92C257.423 31.92 257.193 31.99 256.983 32.13C256.783 32.26 256.623 32.44 256.503 32.67C256.383 32.89 256.323 33.13 256.323 33.39C256.323 33.66 256.383 33.905 256.503 34.125C256.633 34.345 256.798 34.525 256.998 34.665C257.208 34.795 257.433 34.86 257.673 34.86ZM262.938 42.15C262.508 42.15 262.118 42.055 261.768 41.865C261.428 41.665 261.153 41.4 260.943 41.07C260.733 40.73 260.628 40.36 260.628 39.96C260.628 39.55 260.733 39.18 260.943 38.85C261.153 38.52 261.428 38.26 261.768 38.07C262.118 37.87 262.508 37.77 262.938 37.77C263.368 37.77 263.758 37.87 264.108 38.07C264.458 38.26 264.733 38.52 264.933 38.85C265.143 39.18 265.248 39.545 265.248 39.945C265.248 40.355 265.143 40.73 264.933 41.07C264.733 41.4 264.458 41.665 264.108 41.865C263.758 42.055 263.368 42.15 262.938 42.15ZM262.938 41.43C263.188 41.43 263.413 41.365 263.613 41.235C263.823 41.095 263.988 40.915 264.108 40.695C264.228 40.465 264.288 40.22 264.288 39.96C264.288 39.69 264.223 39.445 264.093 39.225C263.973 38.995 263.808 38.815 263.598 38.685C263.398 38.555 263.178 38.49 262.938 38.49C262.688 38.49 262.458 38.56 262.248 38.7C262.048 38.83 261.888 39.01 261.768 39.24C261.648 39.46 261.588 39.7 261.588 39.96C261.588 40.23 261.648 40.475 261.768 40.695C261.898 40.915 262.063 41.095 262.263 41.235C262.473 41.365 262.698 41.43 262.938 41.43ZM255.873 41.505L260.073 36.45L264.093 31.275L264.738 31.83L260.583 36.855L256.503 42.075L255.873 41.505Z" fill="#2F2F2F"/>
<rect x="42" y="214" width="49" height="75" fill="#2D6FD0"/>
<rect x="175" y="32" width="51" height="257" fill="#2D6FD0"/>
</svg>
