<svg width="602" height="321" viewBox="0 0 602 321" fill="none" xmlns="http://www.w3.org/2000/svg">
<path d="M23 15L23 297" stroke="#F5F6F7"/>
<path d="M120 15L120 297" stroke="#F5F6F7"/>
<path d="M216 15L216 296" stroke="#F5F6F7"/>
<path d="M408 14L408 296" stroke="#F5F6F7"/>
<path d="M312 13L312 296" stroke="#F5F6F7"/>
<path d="M504 14L504 296" stroke="#F5F6F7"/>
<path d="M600 14L600 296" stroke="#F5F6F7"/>
<path d="M23.3906 184.227H600.458" stroke="#F5F6F7"/>
<path d="M23.3906 239.285H600.458" stroke="#F5F6F7"/>
<path d="M23.3906 131.105H600.458" stroke="#F5F6F7"/>
<path d="M23.3906 73.043L601.349 73.0429" stroke="#F5F6F7"/>
<path d="M23.3906 13.9824H601.349" stroke="#F5F6F7"/>
<path d="M23.3906 296.348L601.349 296.348" stroke="#F5F6F7"/>
<path d="M23 13L23 296" stroke="#F5F6F7"/>
<path d="M392.89 318.113V317.501L396.382 314.081C396.702 313.769 396.942 313.497 397.102 313.265C397.262 313.025 397.37 312.801 397.426 312.593C397.482 312.385 397.51 312.189 397.51 312.005C397.51 311.517 397.342 311.133 397.006 310.853C396.678 310.573 396.19 310.433 395.542 310.433C395.046 310.433 394.606 310.509 394.222 310.661C393.846 310.813 393.522 311.049 393.25 311.369L392.638 310.841C392.966 310.457 393.386 310.161 393.898 309.953C394.41 309.745 394.982 309.641 395.614 309.641C396.182 309.641 396.674 309.733 397.09 309.917C397.506 310.093 397.826 310.353 398.05 310.697C398.282 311.041 398.398 311.445 398.398 311.909C398.398 312.181 398.358 312.449 398.278 312.713C398.206 312.977 398.07 313.257 397.87 313.553C397.678 313.841 397.394 314.169 397.018 314.537L393.814 317.681L393.574 317.345H398.782V318.113H392.89ZM403.191 318.185C402.543 318.185 401.967 318.017 401.463 317.681C400.959 317.337 400.563 316.849 400.275 316.217C399.987 315.577 399.843 314.809 399.843 313.913C399.843 313.017 399.987 312.253 400.275 311.621C400.563 310.981 400.959 310.493 401.463 310.157C401.967 309.813 402.543 309.641 403.191 309.641C403.839 309.641 404.415 309.813 404.919 310.157C405.423 310.493 405.819 310.981 406.107 311.621C406.403 312.253 406.551 313.017 406.551 313.913C406.551 314.809 406.403 315.577 406.107 316.217C405.819 316.849 405.423 317.337 404.919 317.681C404.415 318.017 403.839 318.185 403.191 318.185ZM403.191 317.393C403.687 317.393 404.119 317.261 404.487 316.997C404.855 316.725 405.143 316.333 405.351 315.821C405.559 315.301 405.663 314.665 405.663 313.913C405.663 313.161 405.559 312.529 405.351 312.017C405.143 311.497 404.855 311.105 404.487 310.841C404.119 310.569 403.687 310.433 403.191 310.433C402.711 310.433 402.283 310.569 401.907 310.841C401.531 311.105 401.239 311.497 401.031 312.017C400.823 312.529 400.719 313.161 400.719 313.913C400.719 314.665 400.823 315.301 401.031 315.821C401.239 316.333 401.531 316.725 401.907 316.997C402.283 317.261 402.711 317.393 403.191 317.393ZM410.179 318.185C409.571 318.185 408.995 318.089 408.451 317.897C407.915 317.697 407.483 317.433 407.155 317.105L407.575 316.421C407.847 316.701 408.211 316.933 408.667 317.117C409.131 317.301 409.635 317.393 410.179 317.393C410.875 317.393 411.407 317.241 411.775 316.937C412.151 316.633 412.339 316.225 412.339 315.713C412.339 315.201 412.155 314.793 411.787 314.489C411.427 314.185 410.855 314.033 410.071 314.033H409.471V313.397L412.063 310.145L412.183 310.481H407.503V309.713H412.903V310.325L410.311 313.577L409.891 313.301H410.215C411.223 313.301 411.975 313.525 412.471 313.973C412.975 314.421 413.227 314.997 413.227 315.701C413.227 316.173 413.115 316.597 412.891 316.973C412.667 317.349 412.327 317.645 411.871 317.861C411.423 318.077 410.859 318.185 410.179 318.185ZM417.792 318.185C417.144 318.185 416.568 318.017 416.064 317.681C415.56 317.337 415.164 316.849 414.876 316.217C414.588 315.577 414.444 314.809 414.444 313.913C414.444 313.017 414.588 312.253 414.876 311.621C415.164 310.981 415.56 310.493 416.064 310.157C416.568 309.813 417.144 309.641 417.792 309.641C418.44 309.641 419.016 309.813 419.52 310.157C420.024 310.493 420.42 310.981 420.708 311.621C421.004 312.253 421.152 313.017 421.152 313.913C421.152 314.809 421.004 315.577 420.708 316.217C420.42 316.849 420.024 317.337 419.52 317.681C419.016 318.017 418.44 318.185 417.792 318.185ZM417.792 317.393C418.288 317.393 418.72 317.261 419.088 316.997C419.456 316.725 419.744 316.333 419.952 315.821C420.16 315.301 420.264 314.665 420.264 313.913C420.264 313.161 420.16 312.529 419.952 312.017C419.744 311.497 419.456 311.105 419.088 310.841C418.72 310.569 418.288 310.433 417.792 310.433C417.312 310.433 416.884 310.569 416.508 310.841C416.132 311.105 415.84 311.497 415.632 312.017C415.424 312.529 415.32 313.161 415.32 313.913C415.32 314.665 415.424 315.301 415.632 315.821C415.84 316.333 416.132 316.725 416.508 316.997C416.884 317.261 417.312 317.393 417.792 317.393Z" fill="#858C95"/>
<path d="M202.187 318.113V317.501L205.679 314.081C205.999 313.769 206.239 313.497 206.399 313.265C206.559 313.025 206.667 312.801 206.723 312.593C206.779 312.385 206.807 312.189 206.807 312.005C206.807 311.517 206.639 311.133 206.303 310.853C205.975 310.573 205.487 310.433 204.839 310.433C204.343 310.433 203.903 310.509 203.519 310.661C203.143 310.813 202.819 311.049 202.547 311.369L201.935 310.841C202.263 310.457 202.683 310.161 203.195 309.953C203.707 309.745 204.279 309.641 204.911 309.641C205.479 309.641 205.971 309.733 206.387 309.917C206.803 310.093 207.123 310.353 207.347 310.697C207.579 311.041 207.695 311.445 207.695 311.909C207.695 312.181 207.655 312.449 207.575 312.713C207.503 312.977 207.367 313.257 207.167 313.553C206.975 313.841 206.691 314.169 206.315 314.537L203.111 317.681L202.871 317.345H208.079V318.113H202.187ZM212.488 318.185C211.84 318.185 211.264 318.017 210.76 317.681C210.256 317.337 209.86 316.849 209.572 316.217C209.284 315.577 209.14 314.809 209.14 313.913C209.14 313.017 209.284 312.253 209.572 311.621C209.86 310.981 210.256 310.493 210.76 310.157C211.264 309.813 211.84 309.641 212.488 309.641C213.136 309.641 213.712 309.813 214.216 310.157C214.72 310.493 215.116 310.981 215.404 311.621C215.7 312.253 215.848 313.017 215.848 313.913C215.848 314.809 215.7 315.577 215.404 316.217C215.116 316.849 214.72 317.337 214.216 317.681C213.712 318.017 213.136 318.185 212.488 318.185ZM212.488 317.393C212.984 317.393 213.416 317.261 213.784 316.997C214.152 316.725 214.44 316.333 214.648 315.821C214.856 315.301 214.96 314.665 214.96 313.913C214.96 313.161 214.856 312.529 214.648 312.017C214.44 311.497 214.152 311.105 213.784 310.841C213.416 310.569 212.984 310.433 212.488 310.433C212.008 310.433 211.58 310.569 211.204 310.841C210.828 311.105 210.536 311.497 210.328 312.017C210.12 312.529 210.016 313.161 210.016 313.913C210.016 314.665 210.12 315.301 210.328 315.821C210.536 316.333 210.828 316.725 211.204 316.997C211.58 317.261 212.008 317.393 212.488 317.393ZM218.549 318.113V310.073L218.933 310.481H216.569V309.713H219.413V318.113H218.549ZM221.277 315.905V315.281L225.729 309.713H226.689L222.273 315.281L221.805 315.137H228.561V315.905H221.277ZM226.017 318.113V315.905L226.041 315.137V313.193H226.881V318.113H226.017Z" fill="#858C95"/>
<path d="M12.0267 299.072C11.3787 299.072 10.8027 298.904 10.2987 298.568C9.79469 298.224 9.39869 297.736 9.11069 297.104C8.82269 296.464 8.67869 295.696 8.67869 294.8C8.67869 293.904 8.82269 293.14 9.11069 292.508C9.39869 291.868 9.79469 291.38 10.2987 291.044C10.8027 290.7 11.3787 290.528 12.0267 290.528C12.6747 290.528 13.2507 290.7 13.7547 291.044C14.2587 291.38 14.6547 291.868 14.9427 292.508C15.2387 293.14 15.3867 293.904 15.3867 294.8C15.3867 295.696 15.2387 296.464 14.9427 297.104C14.6547 297.736 14.2587 298.224 13.7547 298.568C13.2507 298.904 12.6747 299.072 12.0267 299.072ZM12.0267 298.28C12.5227 298.28 12.9547 298.148 13.3227 297.884C13.6907 297.612 13.9787 297.22 14.1867 296.708C14.3947 296.188 14.4987 295.552 14.4987 294.8C14.4987 294.048 14.3947 293.416 14.1867 292.904C13.9787 292.384 13.6907 291.992 13.3227 291.728C12.9547 291.456 12.5227 291.32 12.0267 291.32C11.5467 291.32 11.1187 291.456 10.7427 291.728C10.3667 291.992 10.0747 292.384 9.86669 292.904C9.65869 293.416 9.55469 294.048 9.55469 294.8C9.55469 295.552 9.65869 296.188 9.86669 296.708C10.0747 297.22 10.3667 297.612 10.7427 297.884C11.1187 298.148 11.5467 298.28 12.0267 298.28Z" fill="#858C95"/>
<path d="M9.32738 242V241.388L12.8194 237.968C13.1394 237.656 13.3794 237.384 13.5394 237.152C13.6994 236.912 13.8074 236.688 13.8634 236.48C13.9194 236.272 13.9474 236.076 13.9474 235.892C13.9474 235.404 13.7794 235.02 13.4434 234.74C13.1154 234.46 12.6274 234.32 11.9794 234.32C11.4834 234.32 11.0434 234.396 10.6594 234.548C10.2834 234.7 9.95938 234.936 9.68738 235.256L9.07538 234.728C9.40338 234.344 9.82338 234.048 10.3354 233.84C10.8474 233.632 11.4194 233.528 12.0514 233.528C12.6194 233.528 13.1114 233.62 13.5274 233.804C13.9434 233.98 14.2634 234.24 14.4874 234.584C14.7194 234.928 14.8354 235.332 14.8354 235.796C14.8354 236.068 14.7954 236.336 14.7154 236.6C14.6434 236.864 14.5074 237.144 14.3074 237.44C14.1154 237.728 13.8314 238.056 13.4554 238.424L10.2514 241.568L10.0114 241.232H15.2194V242H9.32738Z" fill="#858C95"/>
<path d="M12.1637 77.072C11.4917 77.072 10.9117 76.976 10.4237 76.784C9.94366 76.592 9.57166 76.316 9.30766 75.956C9.05166 75.588 8.92366 75.156 8.92366 74.66C8.92366 74.18 9.04766 73.772 9.29566 73.436C9.55166 73.092 9.91966 72.828 10.3997 72.644C10.8877 72.46 11.4757 72.368 12.1637 72.368C12.8437 72.368 13.4277 72.46 13.9157 72.644C14.4037 72.828 14.7757 73.092 15.0317 73.436C15.2957 73.772 15.4277 74.18 15.4277 74.66C15.4277 75.156 15.2957 75.588 15.0317 75.956C14.7677 76.316 14.3917 76.592 13.9037 76.784C13.4157 76.976 12.8357 77.072 12.1637 77.072ZM12.1637 76.34C12.9077 76.34 13.4877 76.188 13.9037 75.884C14.3277 75.58 14.5397 75.168 14.5397 74.648C14.5397 74.128 14.3277 73.72 13.9037 73.424C13.4877 73.12 12.9077 72.968 12.1637 72.968C11.4197 72.968 10.8397 73.12 10.4237 73.424C10.0077 73.72 9.79966 74.128 9.79966 74.648C9.79966 75.168 10.0077 75.58 10.4237 75.884C10.8397 76.188 11.4197 76.34 12.1637 76.34ZM12.1637 72.86C11.5397 72.86 11.0077 72.776 10.5677 72.608C10.1357 72.44 9.80366 72.2 9.57166 71.888C9.33966 71.568 9.22366 71.188 9.22366 70.748C9.22366 70.284 9.34366 69.888 9.58366 69.56C9.83166 69.224 10.1757 68.968 10.6157 68.792C11.0557 68.616 11.5717 68.528 12.1637 68.528C12.7557 68.528 13.2717 68.616 13.7117 68.792C14.1597 68.968 14.5077 69.224 14.7557 69.56C15.0037 69.888 15.1277 70.284 15.1277 70.748C15.1277 71.188 15.0117 71.568 14.7797 71.888C14.5477 72.2 14.2077 72.44 13.7597 72.608C13.3197 72.776 12.7877 72.86 12.1637 72.86ZM12.1637 72.284C12.8197 72.284 13.3317 72.148 13.6997 71.876C14.0677 71.604 14.2517 71.24 14.2517 70.784C14.2517 70.304 14.0597 69.932 13.6757 69.668C13.2997 69.396 12.7957 69.26 12.1637 69.26C11.5317 69.26 11.0277 69.396 10.6517 69.668C10.2757 69.932 10.0877 70.3 10.0877 70.772C10.0877 71.236 10.2677 71.604 10.6277 71.876C10.9957 72.148 11.5077 72.284 12.1637 72.284Z" fill="#858C95"/>
<path d="M5.80675 19.584V11.544L6.19075 11.952H3.82675V11.184H6.67075V19.584H5.80675ZM12.0267 19.656C11.3787 19.656 10.8027 19.488 10.2987 19.152C9.79469 18.808 9.39869 18.32 9.11069 17.688C8.82269 17.048 8.67869 16.28 8.67869 15.384C8.67869 14.488 8.82269 13.724 9.11069 13.092C9.39869 12.452 9.79469 11.964 10.2987 11.628C10.8027 11.284 11.3787 11.112 12.0267 11.112C12.6747 11.112 13.2507 11.284 13.7547 11.628C14.2587 11.964 14.6547 12.452 14.9427 13.092C15.2387 13.724 15.3867 14.488 15.3867 15.384C15.3867 16.28 15.2387 17.048 14.9427 17.688C14.6547 18.32 14.2587 18.808 13.7547 19.152C13.2507 19.488 12.6747 19.656 12.0267 19.656ZM12.0267 18.864C12.5227 18.864 12.9547 18.732 13.3227 18.468C13.6907 18.196 13.9787 17.804 14.1867 17.292C14.3947 16.772 14.4987 16.136 14.4987 15.384C14.4987 14.632 14.3947 14 14.1867 13.488C13.9787 12.968 13.6907 12.576 13.3227 12.312C12.9547 12.04 12.5227 11.904 12.0267 11.904C11.5467 11.904 11.1187 12.04 10.7427 12.312C10.3667 12.576 10.0747 12.968 9.86669 13.488C9.65869 14 9.55469 14.632 9.55469 15.384C9.55469 16.136 9.65869 16.772 9.86669 17.292C10.0747 17.804 10.3667 18.196 10.7427 18.468C11.1187 18.732 11.5467 18.864 12.0267 18.864Z" fill="#858C95"/>
<path d="M12.8018 134.072C12.0578 134.072 11.4298 133.908 10.9178 133.58C10.4058 133.244 10.0178 132.764 9.75376 132.14C9.48976 131.508 9.35776 130.752 9.35776 129.872C9.35776 128.92 9.51776 128.124 9.83776 127.484C10.1658 126.836 10.6178 126.348 11.1938 126.02C11.7698 125.692 12.4378 125.528 13.1978 125.528C13.5738 125.528 13.9338 125.564 14.2778 125.636C14.6218 125.708 14.9258 125.824 15.1898 125.984L14.8418 126.68C14.6258 126.536 14.3778 126.436 14.0978 126.38C13.8178 126.316 13.5218 126.284 13.2098 126.284C12.3058 126.284 11.5818 126.572 11.0378 127.148C10.5018 127.724 10.2338 128.584 10.2338 129.728C10.2338 129.904 10.2418 130.124 10.2578 130.388C10.2818 130.644 10.3298 130.9 10.4018 131.156L10.1018 130.928C10.1898 130.512 10.3618 130.16 10.6178 129.872C10.8738 129.576 11.1938 129.352 11.5778 129.2C11.9618 129.048 12.3818 128.972 12.8378 128.972C13.3978 128.972 13.8898 129.076 14.3138 129.284C14.7378 129.492 15.0698 129.784 15.3098 130.16C15.5498 130.536 15.6698 130.98 15.6698 131.492C15.6698 132.012 15.5458 132.468 15.2978 132.86C15.0498 133.244 14.7058 133.544 14.2658 133.76C13.8338 133.968 13.3458 134.072 12.8018 134.072ZM12.7658 133.34C13.1658 133.34 13.5178 133.268 13.8218 133.124C14.1338 132.972 14.3778 132.76 14.5538 132.488C14.7298 132.208 14.8178 131.884 14.8178 131.516C14.8178 130.964 14.6258 130.524 14.2418 130.196C13.8658 129.868 13.3538 129.704 12.7058 129.704C12.2738 129.704 11.8978 129.784 11.5778 129.944C11.2578 130.104 11.0058 130.324 10.8218 130.604C10.6378 130.876 10.5458 131.188 10.5458 131.54C10.5458 131.844 10.6298 132.136 10.7978 132.416C10.9658 132.688 11.2138 132.912 11.5418 133.088C11.8778 133.256 12.2858 133.34 12.7658 133.34Z" fill="#858C95"/>
<path d="M8.59266 185.792V185.168L13.0447 179.6H14.0047L9.58866 185.168L9.12066 185.024H15.8767V185.792H8.59266ZM13.3327 188V185.792L13.3567 185.024V183.08H14.1967V188H13.3327Z" fill="#858C95"/>
<path d="M249.326 237C249.326 236.28 249.386 235.644 249.506 235.092C249.638 234.528 249.824 234.024 250.064 233.58C250.316 233.136 250.616 232.746 250.964 232.41C251.312 232.074 251.708 231.774 252.152 231.51C252.62 231.234 253.1 230.982 253.592 230.754C254.084 230.526 254.54 230.286 254.96 230.034C255.38 229.782 255.716 229.482 255.968 229.134C256.232 228.774 256.364 228.33 256.364 227.802C256.364 227.382 256.274 227.004 256.094 226.668C255.914 226.32 255.644 226.044 255.284 225.84C254.924 225.636 254.462 225.534 253.898 225.534C253.334 225.534 252.824 225.63 252.368 225.822C251.924 226.014 251.54 226.242 251.216 226.506C250.892 226.77 250.634 227.022 250.442 227.262L249.416 226.236C249.512 226.116 249.68 225.936 249.92 225.696C250.172 225.456 250.49 225.21 250.874 224.958C251.27 224.706 251.732 224.496 252.26 224.328C252.788 224.148 253.388 224.058 254.06 224.058C254.96 224.058 255.71 224.226 256.31 224.562C256.91 224.898 257.36 225.348 257.66 225.912C257.972 226.476 258.128 227.1 258.128 227.784C258.128 228.396 258.014 228.924 257.786 229.368C257.558 229.8 257.264 230.166 256.904 230.466C256.544 230.766 256.148 231.03 255.716 231.258C255.296 231.486 254.888 231.702 254.492 231.906C253.736 232.266 253.136 232.596 252.692 232.896C252.248 233.196 251.906 233.49 251.666 233.778C251.438 234.054 251.282 234.336 251.198 234.624C251.126 234.912 251.084 235.224 251.072 235.56H258.146V237H249.326ZM260.447 238.458L260.807 236.856H260.267V234.984H261.761V236.856L261.221 238.458H260.447ZM269.41 237V233.742H263.398V232.32L269.896 224.22H270.994V232.302H272.578V233.742H270.994V237H269.41ZM265.054 232.302H269.572V226.65L265.054 232.302ZM276.739 229.296C276.235 229.296 275.773 229.182 275.353 228.954C274.933 228.714 274.597 228.396 274.345 228C274.093 227.592 273.967 227.148 273.967 226.668C273.967 226.176 274.093 225.732 274.345 225.336C274.597 224.94 274.933 224.628 275.353 224.4C275.773 224.16 276.235 224.04 276.739 224.04C277.255 224.04 277.723 224.16 278.143 224.4C278.563 224.628 278.893 224.94 279.133 225.336C279.385 225.732 279.511 226.17 279.511 226.65C279.511 227.142 279.385 227.592 279.133 228C278.893 228.396 278.563 228.714 278.143 228.954C277.723 229.182 277.255 229.296 276.739 229.296ZM276.739 228.432C277.039 228.432 277.309 228.354 277.549 228.198C277.801 228.03 277.999 227.814 278.143 227.55C278.287 227.274 278.359 226.98 278.359 226.668C278.359 226.344 278.281 226.05 278.125 225.786C277.981 225.51 277.783 225.294 277.531 225.138C277.291 224.982 277.027 224.904 276.739 224.904C276.439 224.904 276.163 224.988 275.911 225.156C275.671 225.312 275.479 225.528 275.335 225.804C275.191 226.068 275.119 226.356 275.119 226.668C275.119 226.992 275.191 227.286 275.335 227.55C275.491 227.814 275.689 228.03 275.929 228.198C276.181 228.354 276.451 228.432 276.739 228.432ZM283.057 237.18C282.541 237.18 282.073 237.066 281.653 236.838C281.245 236.598 280.915 236.28 280.663 235.884C280.411 235.476 280.285 235.032 280.285 234.552C280.285 234.06 280.411 233.616 280.663 233.22C280.915 232.824 281.245 232.512 281.653 232.284C282.073 232.044 282.541 231.924 283.057 231.924C283.573 231.924 284.041 232.044 284.461 232.284C284.881 232.512 285.211 232.824 285.451 233.22C285.703 233.616 285.829 234.054 285.829 234.534C285.829 235.026 285.703 235.476 285.451 235.884C285.211 236.28 284.881 236.598 284.461 236.838C284.041 237.066 283.573 237.18 283.057 237.18ZM283.057 236.316C283.357 236.316 283.627 236.238 283.867 236.082C284.119 235.914 284.317 235.698 284.461 235.434C284.605 235.158 284.677 234.864 284.677 234.552C284.677 234.228 284.599 233.934 284.443 233.67C284.299 233.394 284.101 233.178 283.849 233.022C283.609 232.866 283.345 232.788 283.057 232.788C282.757 232.788 282.481 232.872 282.229 233.04C281.989 233.196 281.797 233.412 281.653 233.688C281.509 233.952 281.437 234.24 281.437 234.552C281.437 234.876 281.509 235.17 281.653 235.434C281.809 235.698 282.007 235.914 282.247 236.082C282.499 236.238 282.769 236.316 283.057 236.316ZM274.579 236.406L279.619 230.34L284.443 224.13L285.217 224.796L280.231 230.826L275.335 237.09L274.579 236.406Z" fill="#2F2F2F"/>
<path d="M442.121 45.54C442.121 44.712 442.319 43.968 442.715 43.308C443.123 42.636 443.675 42.108 444.371 41.724C445.067 41.328 445.841 41.13 446.693 41.13C447.617 41.13 448.421 41.352 449.105 41.796C449.801 42.228 450.341 42.852 450.725 43.668C451.121 44.484 451.319 45.468 451.319 46.62C451.319 48.3 451.121 49.704 450.725 50.832C450.329 51.948 449.771 52.788 449.051 53.352C448.331 53.904 447.491 54.18 446.531 54.18C445.703 54.18 444.947 53.982 444.263 53.586C443.591 53.178 443.063 52.614 442.679 51.894L443.651 50.94C443.915 51.492 444.305 51.936 444.821 52.272C445.349 52.608 445.925 52.776 446.549 52.776C447.209 52.776 447.779 52.584 448.259 52.2C448.751 51.804 449.135 51.234 449.411 50.49C449.687 49.746 449.825 48.846 449.825 47.79C449.657 48.198 449.405 48.558 449.069 48.87C448.745 49.182 448.367 49.422 447.935 49.59C447.503 49.758 447.035 49.842 446.531 49.842C445.715 49.842 444.971 49.65 444.299 49.266C443.627 48.882 443.093 48.366 442.697 47.718C442.313 47.058 442.121 46.332 442.121 45.54ZM446.675 42.48C446.123 42.48 445.619 42.618 445.163 42.894C444.707 43.17 444.341 43.542 444.065 44.01C443.789 44.466 443.651 44.97 443.651 45.522C443.651 46.074 443.789 46.578 444.065 47.034C444.341 47.49 444.707 47.856 445.163 48.132C445.631 48.408 446.141 48.546 446.693 48.546C447.245 48.546 447.749 48.408 448.205 48.132C448.673 47.856 449.045 47.49 449.321 47.034C449.597 46.578 449.735 46.08 449.735 45.54C449.735 44.988 449.591 44.484 449.303 44.028C449.027 43.56 448.655 43.188 448.187 42.912C447.731 42.624 447.227 42.48 446.675 42.48ZM453.577 55.458L453.937 53.856H453.397V51.984H454.891V53.856L454.351 55.458H453.577ZM462.252 54.18C461.376 54.156 460.602 53.946 459.93 53.55C459.258 53.154 458.694 52.638 458.238 52.002C457.794 51.354 457.458 50.658 457.23 49.914C457.002 49.158 456.888 48.42 456.888 47.7C456.888 46.932 457.008 46.164 457.248 45.396C457.5 44.628 457.86 43.932 458.328 43.308C458.796 42.672 459.36 42.168 460.02 41.796C460.68 41.412 461.424 41.22 462.252 41.22C463.14 41.22 463.914 41.424 464.574 41.832C465.246 42.24 465.804 42.768 466.248 43.416C466.704 44.064 467.046 44.766 467.274 45.522C467.502 46.278 467.616 47.004 467.616 47.7C467.616 48.48 467.49 49.254 467.238 50.022C466.998 50.778 466.644 51.468 466.176 52.092C465.708 52.716 465.144 53.22 464.484 53.604C463.824 53.976 463.08 54.168 462.252 54.18ZM458.526 47.7C458.55 48.288 458.64 48.876 458.796 49.464C458.952 50.052 459.186 50.592 459.498 51.084C459.81 51.576 460.194 51.972 460.65 52.272C461.106 52.572 461.64 52.722 462.252 52.722C462.888 52.722 463.44 52.566 463.908 52.254C464.376 51.93 464.76 51.516 465.06 51.012C465.372 50.496 465.6 49.95 465.744 49.374C465.9 48.786 465.978 48.228 465.978 47.7C465.978 47.112 465.894 46.524 465.726 45.936C465.57 45.348 465.33 44.808 465.006 44.316C464.682 43.824 464.292 43.428 463.836 43.128C463.38 42.828 462.852 42.678 462.252 42.678C461.616 42.678 461.064 42.84 460.596 43.164C460.128 43.476 459.738 43.89 459.426 44.406C459.126 44.91 458.898 45.456 458.742 46.044C458.598 46.62 458.526 47.172 458.526 47.7ZM471.908 46.296C471.404 46.296 470.942 46.182 470.522 45.954C470.102 45.714 469.766 45.396 469.514 45C469.262 44.592 469.136 44.148 469.136 43.668C469.136 43.176 469.262 42.732 469.514 42.336C469.766 41.94 470.102 41.628 470.522 41.4C470.942 41.16 471.404 41.04 471.908 41.04C472.424 41.04 472.892 41.16 473.312 41.4C473.732 41.628 474.062 41.94 474.302 42.336C474.554 42.732 474.68 43.17 474.68 43.65C474.68 44.142 474.554 44.592 474.302 45C474.062 45.396 473.732 45.714 473.312 45.954C472.892 46.182 472.424 46.296 471.908 46.296ZM471.908 45.432C472.208 45.432 472.478 45.354 472.718 45.198C472.97 45.03 473.168 44.814 473.312 44.55C473.456 44.274 473.528 43.98 473.528 43.668C473.528 43.344 473.45 43.05 473.294 42.786C473.15 42.51 472.952 42.294 472.7 42.138C472.46 41.982 472.196 41.904 471.908 41.904C471.608 41.904 471.332 41.988 471.08 42.156C470.84 42.312 470.648 42.528 470.504 42.804C470.36 43.068 470.288 43.356 470.288 43.668C470.288 43.992 470.36 44.286 470.504 44.55C470.66 44.814 470.858 45.03 471.098 45.198C471.35 45.354 471.62 45.432 471.908 45.432ZM478.226 54.18C477.71 54.18 477.242 54.066 476.822 53.838C476.414 53.598 476.084 53.28 475.832 52.884C475.58 52.476 475.454 52.032 475.454 51.552C475.454 51.06 475.58 50.616 475.832 50.22C476.084 49.824 476.414 49.512 476.822 49.284C477.242 49.044 477.71 48.924 478.226 48.924C478.742 48.924 479.21 49.044 479.63 49.284C480.05 49.512 480.38 49.824 480.62 50.22C480.872 50.616 480.998 51.054 480.998 51.534C480.998 52.026 480.872 52.476 480.62 52.884C480.38 53.28 480.05 53.598 479.63 53.838C479.21 54.066 478.742 54.18 478.226 54.18ZM478.226 53.316C478.526 53.316 478.796 53.238 479.036 53.082C479.288 52.914 479.486 52.698 479.63 52.434C479.774 52.158 479.846 51.864 479.846 51.552C479.846 51.228 479.768 50.934 479.612 50.67C479.468 50.394 479.27 50.178 479.018 50.022C478.778 49.866 478.514 49.788 478.226 49.788C477.926 49.788 477.65 49.872 477.398 50.04C477.158 50.196 476.966 50.412 476.822 50.688C476.678 50.952 476.606 51.24 476.606 51.552C476.606 51.876 476.678 52.17 476.822 52.434C476.978 52.698 477.176 52.914 477.416 53.082C477.668 53.238 477.938 53.316 478.226 53.316ZM469.748 53.406L474.788 47.34L479.612 41.13L480.386 41.796L475.4 47.826L470.504 54.09L469.748 53.406Z" fill="#2F2F2F"/>
<rect x="191" y="223" width="49" height="73" fill="#2D6FD0"/>
<rect x="382" y="40" width="51" height="256" fill="#2D6FD0"/>
</svg>
