<svg width="500" height="258" viewBox="0 0 500 258" fill="none" xmlns="http://www.w3.org/2000/svg">
<path d="M24.0469 5.94238L24.0469 239.747" stroke="#F5F6F7"/>
<path d="M103.375 5.94238L103.375 239.747" stroke="#F5F6F7"/>
<path d="M182.555 5.94238L182.555 239.747" stroke="#F5F6F7"/>
<path d="M340.914 5.50293L340.914 240.239" stroke="#F5F6F7"/>
<path d="M261.734 4.74316L261.734 239.48" stroke="#F5F6F7"/>
<path d="M420.086 5.50293L420.086 240.239" stroke="#F5F6F7"/>
<path d="M499.273 5.50293L499.273 240.239" stroke="#F5F6F7"/>
<path d="M24.1953 160.475H499.27" stroke="#F5F6F7"/>
<path d="M24.1953 199.218H499.27" stroke="#F5F6F7"/>
<path d="M24.1953 82.9883H499.27" stroke="#F5F6F7"/>
<path d="M24.1953 121.731L500.003 121.731" stroke="#F5F6F7"/>
<path d="M24.1953 44.2461L500.003 44.246" stroke="#F5F6F7"/>
<path d="M24.1953 5.50293H500.003" stroke="#F5F6F7"/>
<path d="M24.1953 237.96L500.003 237.96" stroke="#F5F6F7"/>
<path d="M24.1953 4.74316L24.1953 239.48" stroke="#F5F6F7"/>
<path d="M329.45 255.36H333.3V256H328.39V255.49L331.3 252.64C332.09 251.86 332.24 251.39 332.24 250.91C332.24 250.1 331.67 249.6 330.6 249.6C329.78 249.6 329.15 249.85 328.69 250.38L328.18 249.94C328.72 249.3 329.59 248.94 330.66 248.94C332.08 248.94 332.98 249.66 332.98 250.83C332.98 251.5 332.77 252.1 331.83 253.02L329.45 255.36ZM336.955 256.06C335.335 256.06 334.165 254.73 334.165 252.5C334.165 250.27 335.335 248.94 336.955 248.94C338.575 248.94 339.755 250.27 339.755 252.5C339.755 254.73 338.575 256.06 336.955 256.06ZM336.955 255.4C338.175 255.4 339.015 254.37 339.015 252.5C339.015 250.63 338.175 249.6 336.955 249.6C335.735 249.6 334.895 250.63 334.895 252.5C334.895 254.37 335.735 255.4 336.955 255.4ZM343.068 252C344.568 252.08 345.318 252.87 345.318 253.99C345.318 255.16 344.468 256.06 342.778 256.06C341.768 256.06 340.798 255.71 340.258 255.16L340.608 254.59C341.058 255.06 341.868 255.4 342.778 255.4C343.938 255.4 344.578 254.86 344.578 253.99C344.578 253.15 343.988 252.6 342.688 252.6H342.188V252.07L344.128 249.64H340.548V249H345.048V249.51L343.068 252ZM349.123 256.06C347.503 256.06 346.333 254.73 346.333 252.5C346.333 250.27 347.503 248.94 349.123 248.94C350.743 248.94 351.923 250.27 351.923 252.5C351.923 254.73 350.743 256.06 349.123 256.06ZM349.123 255.4C350.343 255.4 351.183 254.37 351.183 252.5C351.183 250.63 350.343 249.6 349.123 249.6C347.903 249.6 347.062 250.63 347.062 252.5C347.062 254.37 347.903 255.4 349.123 255.4Z" fill="#858C95"/>
<path d="M172.45 255.36H176.3V256H171.39V255.49L174.3 252.64C175.09 251.86 175.24 251.39 175.24 250.91C175.24 250.1 174.67 249.6 173.6 249.6C172.78 249.6 172.15 249.85 171.69 250.38L171.18 249.94C171.72 249.3 172.59 248.94 173.66 248.94C175.08 248.94 175.98 249.66 175.98 250.83C175.98 251.5 175.77 252.1 174.83 253.02L172.45 255.36ZM179.955 256.06C178.335 256.06 177.165 254.73 177.165 252.5C177.165 250.27 178.335 248.94 179.955 248.94C181.575 248.94 182.755 250.27 182.755 252.5C182.755 254.73 181.575 256.06 179.955 256.06ZM179.955 255.4C181.175 255.4 182.015 254.37 182.015 252.5C182.015 250.63 181.175 249.6 179.955 249.6C178.735 249.6 177.895 250.63 177.895 252.5C177.895 254.37 178.735 255.4 179.955 255.4ZM183.336 249H185.706V256H184.986V249.64H183.336V249ZM193.329 253.52V254.16H191.929V256H191.209V254.16H187.259V253.64L190.969 249H191.769L188.189 253.52H191.229V251.9H191.929V253.52H193.329Z" fill="#858C95"/>
<path d="M16.1893 240.423C14.5693 240.423 13.3993 239.093 13.3993 236.863C13.3993 234.633 14.5693 233.303 16.1893 233.303C17.8093 233.303 18.9893 234.633 18.9893 236.863C18.9893 239.093 17.8093 240.423 16.1893 240.423ZM16.1893 239.763C17.4093 239.763 18.2493 238.733 18.2493 236.863C18.2493 234.993 17.4093 233.963 16.1893 233.963C14.9693 233.963 14.1293 234.993 14.1293 236.863C14.1293 238.733 14.9693 239.763 16.1893 239.763Z" fill="#858C95"/>
<path d="M17.054 199.659C18.554 199.739 19.304 200.529 19.304 201.649C19.304 202.819 18.454 203.719 16.764 203.719C15.754 203.719 14.784 203.369 14.244 202.819L14.594 202.249C15.044 202.719 15.854 203.059 16.764 203.059C17.924 203.059 18.564 202.519 18.564 201.649C18.564 200.809 17.974 200.259 16.674 200.259H16.174V199.729L18.114 197.299H14.534V196.659H19.034V197.169L17.054 199.659Z" fill="#858C95"/>
<path d="M10.5879 80.6709H12.9579V87.6709H12.2379V81.3109H10.5879V80.6709ZM15.5612 87.0309H19.4112V87.6709H14.5012V87.1609L17.4112 84.3109C18.2012 83.5309 18.3512 83.0609 18.3512 82.5809C18.3512 81.7709 17.7812 81.2709 16.7112 81.2709C15.8912 81.2709 15.2612 81.5209 14.8012 82.0509L14.2912 81.6109C14.8312 80.9709 15.7012 80.6109 16.7712 80.6109C18.1912 80.6109 19.0912 81.3309 19.0912 82.5009C19.0912 83.1709 18.8812 83.7709 17.9412 84.6909L15.5612 87.0309Z" fill="#858C95"/>
<path d="M10.6074 41.9277H12.9774V48.9277H12.2574V42.5677H10.6074V41.9277ZM16.4907 44.7977C18.6007 44.7977 19.4007 45.6277 19.4007 46.8677C19.4007 48.0577 18.5707 48.9877 16.8607 48.9877C15.8507 48.9877 14.8907 48.6377 14.3507 48.0877L14.7007 47.5177C15.1507 47.9877 15.9507 48.3277 16.8507 48.3277C18.0407 48.3277 18.6707 47.7477 18.6707 46.8977C18.6707 45.9977 18.1107 45.4377 16.3307 45.4377H14.8407L15.2007 41.9277H19.0307V42.5677H15.8307L15.5907 44.7977H16.4907Z" fill="#858C95"/>
<path d="M16.3945 119.354C18.2545 119.354 19.2645 120.644 19.2645 122.854C19.2645 125.234 17.9645 126.474 16.0645 126.474C15.4345 126.474 14.8445 126.364 14.4045 126.094L14.6945 125.514C15.0545 125.754 15.5345 125.844 16.0545 125.844C17.5645 125.844 18.5345 124.874 18.5345 122.974C18.5345 122.814 18.5245 122.614 18.5045 122.404C18.1545 123.174 17.3345 123.604 16.3645 123.604C14.9745 123.604 14.0045 122.784 14.0045 121.504C14.0045 120.194 15.0345 119.354 16.3945 119.354ZM16.4745 122.994C17.5445 122.994 18.2745 122.334 18.2745 121.464C18.2745 120.694 17.6345 119.964 16.4245 119.964C15.4145 119.964 14.7145 120.554 14.7145 121.484C14.7145 122.404 15.3945 122.994 16.4745 122.994Z" fill="#858C95"/>
<path d="M17.1145 159.726C18.5045 159.726 19.4745 160.546 19.4745 161.826C19.4745 163.136 18.4445 163.976 17.0845 163.976C15.2245 163.976 14.2145 162.686 14.2145 160.476C14.2145 158.096 15.5145 156.856 17.4145 156.856C18.0445 156.856 18.6345 156.966 19.0745 157.236L18.7845 157.816C18.4245 157.576 17.9445 157.486 17.4245 157.486C15.9145 157.486 14.9445 158.456 14.9445 160.356C14.9445 160.516 14.9545 160.716 14.9745 160.926C15.3245 160.156 16.1445 159.726 17.1145 159.726ZM17.0545 163.366C18.0645 163.366 18.7645 162.776 18.7645 161.846C18.7645 160.926 18.0845 160.336 17.0045 160.336C15.9345 160.336 15.2045 160.996 15.2045 161.866C15.2045 162.636 15.8445 163.366 17.0545 163.366Z" fill="#858C95"/>
<path d="M9.56852 3.09668H11.9385V10.0967H11.2185V3.73668H9.56852V3.09668ZM17.6218 6.42668C18.5018 6.71668 18.9918 7.31668 18.9918 8.14668C18.9918 9.38668 17.9418 10.1567 16.2718 10.1567C14.5918 10.1567 13.5718 9.38668 13.5718 8.14668C13.5718 7.30668 14.0518 6.71668 14.9218 6.42668C14.2118 6.14668 13.8218 5.61668 13.8218 4.88668C13.8218 3.74668 14.7918 3.03668 16.2718 3.03668C17.7518 3.03668 18.7418 3.74668 18.7418 4.88668C18.7418 5.61668 18.3418 6.14668 17.6218 6.42668ZM14.5418 4.90668C14.5418 5.67668 15.1818 6.16668 16.2718 6.16668C17.3618 6.16668 18.0118 5.67668 18.0118 4.91668C18.0118 4.12668 17.3218 3.64668 16.2718 3.64668C15.2118 3.64668 14.5418 4.12668 14.5418 4.90668ZM16.2718 9.54668C17.5118 9.54668 18.2518 9.00668 18.2518 8.13668C18.2518 7.27668 17.5118 6.73668 16.2718 6.73668C15.0318 6.73668 14.3018 7.27668 14.3018 8.13668C14.3018 9.00668 15.0318 9.54668 16.2718 9.54668Z" fill="#858C95"/>
<path d="M219.28 149.77C219.28 150.586 219.076 151.33 218.668 152.002C218.272 152.662 217.726 153.19 217.03 153.586C216.346 153.982 215.572 154.18 214.708 154.18C213.796 154.18 212.992 153.964 212.296 153.532C211.6 153.088 211.054 152.452 210.658 151.624C210.274 150.796 210.082 149.812 210.082 148.672C210.082 146.992 210.28 145.594 210.676 144.478C211.072 143.362 211.63 142.528 212.35 141.976C213.07 141.412 213.91 141.13 214.87 141.13C215.698 141.13 216.448 141.334 217.12 141.742C217.804 142.138 218.338 142.69 218.722 143.398L217.75 144.352C217.486 143.788 217.096 143.344 216.58 143.02C216.064 142.684 215.488 142.516 214.852 142.516C214.204 142.516 213.634 142.714 213.142 143.11C212.65 143.506 212.266 144.076 211.99 144.82C211.726 145.564 211.588 146.464 211.576 147.52C211.756 147.1 212.008 146.74 212.332 146.44C212.656 146.128 213.034 145.888 213.466 145.72C213.91 145.552 214.378 145.468 214.87 145.468C215.698 145.468 216.442 145.66 217.102 146.044C217.774 146.428 218.302 146.944 218.686 147.592C219.082 148.24 219.28 148.966 219.28 149.77ZM214.726 152.812C215.278 152.812 215.782 152.674 216.238 152.398C216.706 152.122 217.078 151.756 217.354 151.3C217.63 150.832 217.768 150.322 217.768 149.77C217.768 149.218 217.63 148.714 217.354 148.258C217.078 147.802 216.706 147.436 216.238 147.16C215.782 146.884 215.278 146.746 214.726 146.746C214.174 146.746 213.664 146.884 213.196 147.16C212.74 147.436 212.374 147.802 212.098 148.258C211.822 148.714 211.684 149.218 211.684 149.77C211.684 150.322 211.822 150.832 212.098 151.3C212.374 151.756 212.74 152.122 213.196 152.398C213.664 152.674 214.174 152.812 214.726 152.812ZM221.412 155.458L221.772 153.856H221.232V151.984H222.726V153.856L222.186 155.458H221.412ZM233.759 150.382C233.759 151.138 233.549 151.798 233.129 152.362C232.721 152.926 232.169 153.364 231.473 153.676C230.789 153.988 230.039 154.144 229.223 154.144C228.371 154.144 227.609 153.976 226.937 153.64C226.265 153.292 225.731 152.83 225.335 152.254C224.951 151.678 224.759 151.03 224.759 150.31C224.759 149.782 224.879 149.308 225.119 148.888C225.359 148.468 225.659 148.114 226.019 147.826C226.391 147.526 226.769 147.304 227.153 147.16C226.805 147.004 226.481 146.8 226.181 146.548C225.881 146.296 225.641 146.002 225.461 145.666C225.281 145.33 225.191 144.964 225.191 144.568C225.191 144.028 225.311 143.554 225.551 143.146C225.791 142.726 226.109 142.372 226.505 142.084C226.901 141.796 227.339 141.58 227.819 141.436C228.299 141.292 228.779 141.22 229.259 141.22C229.739 141.22 230.219 141.292 230.699 141.436C231.179 141.58 231.617 141.796 232.013 142.084C232.421 142.36 232.745 142.708 232.985 143.128C233.225 143.536 233.345 144.01 233.345 144.55C233.345 144.946 233.255 145.318 233.075 145.666C232.895 146.002 232.649 146.296 232.337 146.548C232.037 146.8 231.707 147.004 231.347 147.16C231.779 147.328 232.175 147.568 232.535 147.88C232.907 148.18 233.201 148.54 233.417 148.96C233.645 149.38 233.759 149.854 233.759 150.382ZM232.157 150.274C232.157 149.89 232.073 149.548 231.905 149.248C231.737 148.936 231.509 148.678 231.221 148.474C230.933 148.258 230.615 148.096 230.267 147.988C229.931 147.88 229.589 147.826 229.241 147.826C228.761 147.826 228.299 147.928 227.855 148.132C227.423 148.336 227.069 148.624 226.793 148.996C226.517 149.356 226.379 149.788 226.379 150.292C226.379 150.664 226.463 151 226.631 151.3C226.799 151.6 227.021 151.858 227.297 152.074C227.585 152.29 227.897 152.452 228.233 152.56C228.581 152.668 228.929 152.722 229.277 152.722C229.757 152.722 230.213 152.62 230.645 152.416C231.089 152.212 231.449 151.924 231.725 151.552C232.013 151.18 232.157 150.754 232.157 150.274ZM226.793 144.622C226.793 145.042 226.919 145.402 227.171 145.702C227.423 146.002 227.741 146.23 228.125 146.386C228.509 146.53 228.887 146.602 229.259 146.602C229.643 146.602 230.021 146.524 230.393 146.368C230.777 146.212 231.095 145.984 231.347 145.684C231.599 145.384 231.725 145.018 231.725 144.586C231.725 144.178 231.605 143.83 231.365 143.542C231.137 143.254 230.831 143.032 230.447 142.876C230.075 142.72 229.673 142.642 229.241 142.642C228.821 142.642 228.419 142.726 228.035 142.894C227.663 143.05 227.363 143.278 227.135 143.578C226.907 143.866 226.793 144.214 226.793 144.622ZM238.073 146.296C237.569 146.296 237.107 146.182 236.687 145.954C236.267 145.714 235.931 145.396 235.679 145C235.427 144.592 235.301 144.148 235.301 143.668C235.301 143.176 235.427 142.732 235.679 142.336C235.931 141.94 236.267 141.628 236.687 141.4C237.107 141.16 237.569 141.04 238.073 141.04C238.589 141.04 239.057 141.16 239.477 141.4C239.897 141.628 240.227 141.94 240.467 142.336C240.719 142.732 240.845 143.17 240.845 143.65C240.845 144.142 240.719 144.592 240.467 145C240.227 145.396 239.897 145.714 239.477 145.954C239.057 146.182 238.589 146.296 238.073 146.296ZM238.073 145.432C238.373 145.432 238.643 145.354 238.883 145.198C239.135 145.03 239.333 144.814 239.477 144.55C239.621 144.274 239.693 143.98 239.693 143.668C239.693 143.344 239.615 143.05 239.459 142.786C239.315 142.51 239.117 142.294 238.865 142.138C238.625 141.982 238.361 141.904 238.073 141.904C237.773 141.904 237.497 141.988 237.245 142.156C237.005 142.312 236.813 142.528 236.669 142.804C236.525 143.068 236.453 143.356 236.453 143.668C236.453 143.992 236.525 144.286 236.669 144.55C236.825 144.814 237.023 145.03 237.263 145.198C237.515 145.354 237.785 145.432 238.073 145.432ZM244.391 154.18C243.875 154.18 243.407 154.066 242.987 153.838C242.579 153.598 242.249 153.28 241.997 152.884C241.745 152.476 241.619 152.032 241.619 151.552C241.619 151.06 241.745 150.616 241.997 150.22C242.249 149.824 242.579 149.512 242.987 149.284C243.407 149.044 243.875 148.924 244.391 148.924C244.907 148.924 245.375 149.044 245.795 149.284C246.215 149.512 246.545 149.824 246.785 150.22C247.037 150.616 247.163 151.054 247.163 151.534C247.163 152.026 247.037 152.476 246.785 152.884C246.545 153.28 246.215 153.598 245.795 153.838C245.375 154.066 244.907 154.18 244.391 154.18ZM244.391 153.316C244.691 153.316 244.961 153.238 245.201 153.082C245.453 152.914 245.651 152.698 245.795 152.434C245.939 152.158 246.011 151.864 246.011 151.552C246.011 151.228 245.933 150.934 245.777 150.67C245.633 150.394 245.435 150.178 245.183 150.022C244.943 149.866 244.679 149.788 244.391 149.788C244.091 149.788 243.815 149.872 243.563 150.04C243.323 150.196 243.131 150.412 242.987 150.688C242.843 150.952 242.771 151.24 242.771 151.552C242.771 151.876 242.843 152.17 242.987 152.434C243.143 152.698 243.341 152.914 243.581 153.082C243.833 153.238 244.103 153.316 244.391 153.316ZM235.913 153.406L240.953 147.34L245.777 141.13L246.551 141.796L241.565 147.826L236.669 154.09L235.913 153.406Z" fill="#2F2F2F"/>
<path d="M374.95 56.56V58H368.596V56.56H371.044V46.75C370.948 46.894 370.792 47.056 370.576 47.236C370.36 47.404 370.108 47.572 369.82 47.74C369.544 47.896 369.262 48.028 368.974 48.136C368.686 48.244 368.422 48.298 368.182 48.298V46.822C368.506 46.822 368.83 46.738 369.154 46.57C369.49 46.402 369.796 46.204 370.072 45.976C370.36 45.748 370.588 45.544 370.756 45.364C370.936 45.184 371.032 45.088 371.044 45.076H372.664V56.56H374.95ZM380.16 58.18C379.248 58.18 378.426 57.964 377.694 57.532C376.974 57.1 376.422 56.518 376.038 55.786L377.028 54.922C377.364 55.474 377.808 55.918 378.36 56.254C378.924 56.59 379.53 56.758 380.178 56.758C380.73 56.758 381.222 56.638 381.654 56.398C382.086 56.158 382.428 55.828 382.68 55.408C382.932 54.988 383.058 54.502 383.058 53.95C383.058 53.41 382.932 52.936 382.68 52.528C382.44 52.12 382.11 51.802 381.69 51.574C381.282 51.334 380.82 51.214 380.304 51.214C379.8 51.214 379.32 51.328 378.864 51.556C378.408 51.784 378.042 52.108 377.766 52.528H376.326L377.766 45.22H383.976V46.678H378.936L378.162 50.746C378.426 50.458 378.756 50.236 379.152 50.08C379.56 49.924 380.01 49.846 380.502 49.846C381.294 49.846 382.002 50.02 382.626 50.368C383.262 50.716 383.76 51.196 384.12 51.808C384.492 52.408 384.678 53.11 384.678 53.914C384.678 54.754 384.474 55.498 384.066 56.146C383.67 56.782 383.13 57.28 382.446 57.64C381.774 58 381.012 58.18 380.16 58.18ZM388.829 50.296C388.325 50.296 387.863 50.182 387.443 49.954C387.023 49.714 386.687 49.396 386.435 49C386.183 48.592 386.057 48.148 386.057 47.668C386.057 47.176 386.183 46.732 386.435 46.336C386.687 45.94 387.023 45.628 387.443 45.4C387.863 45.16 388.325 45.04 388.829 45.04C389.345 45.04 389.813 45.16 390.233 45.4C390.653 45.628 390.983 45.94 391.223 46.336C391.475 46.732 391.601 47.17 391.601 47.65C391.601 48.142 391.475 48.592 391.223 49C390.983 49.396 390.653 49.714 390.233 49.954C389.813 50.182 389.345 50.296 388.829 50.296ZM388.829 49.432C389.129 49.432 389.399 49.354 389.639 49.198C389.891 49.03 390.089 48.814 390.233 48.55C390.377 48.274 390.449 47.98 390.449 47.668C390.449 47.344 390.371 47.05 390.215 46.786C390.071 46.51 389.873 46.294 389.621 46.138C389.381 45.982 389.117 45.904 388.829 45.904C388.529 45.904 388.253 45.988 388.001 46.156C387.761 46.312 387.569 46.528 387.425 46.804C387.281 47.068 387.209 47.356 387.209 47.668C387.209 47.992 387.281 48.286 387.425 48.55C387.581 48.814 387.779 49.03 388.019 49.198C388.271 49.354 388.541 49.432 388.829 49.432ZM395.147 58.18C394.631 58.18 394.163 58.066 393.743 57.838C393.335 57.598 393.005 57.28 392.753 56.884C392.501 56.476 392.375 56.032 392.375 55.552C392.375 55.06 392.501 54.616 392.753 54.22C393.005 53.824 393.335 53.512 393.743 53.284C394.163 53.044 394.631 52.924 395.147 52.924C395.663 52.924 396.131 53.044 396.551 53.284C396.971 53.512 397.301 53.824 397.541 54.22C397.793 54.616 397.919 55.054 397.919 55.534C397.919 56.026 397.793 56.476 397.541 56.884C397.301 57.28 396.971 57.598 396.551 57.838C396.131 58.066 395.663 58.18 395.147 58.18ZM395.147 57.316C395.447 57.316 395.717 57.238 395.957 57.082C396.209 56.914 396.407 56.698 396.551 56.434C396.695 56.158 396.767 55.864 396.767 55.552C396.767 55.228 396.689 54.934 396.533 54.67C396.389 54.394 396.191 54.178 395.939 54.022C395.699 53.866 395.435 53.788 395.147 53.788C394.847 53.788 394.571 53.872 394.319 54.04C394.079 54.196 393.887 54.412 393.743 54.688C393.599 54.952 393.527 55.24 393.527 55.552C393.527 55.876 393.599 56.17 393.743 56.434C393.899 56.698 394.097 56.914 394.337 57.082C394.589 57.238 394.859 57.316 395.147 57.316ZM386.669 57.406L391.709 51.34L396.533 45.13L397.307 45.796L392.321 51.826L387.425 58.09L386.669 57.406Z" fill="#2F2F2F"/>
<rect x="162" y="140" width="41" height="98" fill="#2D6FD0"/>
<rect x="320" y="44" width="41" height="194" fill="#2D6FD0"/>
</svg>
