<svg width="292" height="297" viewBox="0 0 292 297" fill="none" xmlns="http://www.w3.org/2000/svg">
<path d="M71 5L71 278" stroke="#F5F6F7"/>
<path d="M115 5L115 278" stroke="#F5F6F7"/>
<path d="M201 5L201 278" stroke="#F5F6F7"/>
<path d="M158 5L158 279" stroke="#F5F6F7"/>
<path d="M245 5L245 278" stroke="#F5F6F7"/>
<path d="M288 5L288 278" stroke="#F5F6F7"/>
<path d="M28 210H288" stroke="#F5F6F7"/>
<path d="M28 142L288 142" stroke="#F5F6F7"/>
<path d="M28 74L288 74" stroke="#F5F6F7"/>
<path d="M28 5H288" stroke="#F5F6F7"/>
<path d="M28 278L288 278" stroke="#F5F6F7"/>
<path d="M28 4L28 278" stroke="#F5F6F7"/>
<path d="M28.7963 294V293.49L31.7063 290.64C31.9729 290.38 32.1729 290.153 32.3063 289.96C32.4396 289.76 32.5296 289.573 32.5763 289.4C32.6229 289.227 32.6463 289.063 32.6463 288.91C32.6463 288.503 32.5063 288.183 32.2263 287.95C31.9529 287.717 31.5463 287.6 31.0063 287.6C30.5929 287.6 30.2263 287.663 29.9063 287.79C29.5929 287.917 29.3229 288.113 29.0963 288.38L28.5863 287.94C28.8596 287.62 29.2096 287.373 29.6363 287.2C30.0629 287.027 30.5396 286.94 31.0663 286.94C31.5396 286.94 31.9496 287.017 32.2963 287.17C32.6429 287.317 32.9096 287.533 33.0963 287.82C33.2896 288.107 33.3863 288.443 33.3863 288.83C33.3863 289.057 33.3529 289.28 33.2863 289.5C33.2263 289.72 33.1129 289.953 32.9463 290.2C32.7863 290.44 32.5496 290.713 32.2363 291.02L29.5663 293.64L29.3663 293.36H33.7063V294H28.7963ZM37.3803 294.06C36.8403 294.06 36.3603 293.92 35.9403 293.64C35.5203 293.353 35.1903 292.947 34.9503 292.42C34.7103 291.887 34.5903 291.247 34.5903 290.5C34.5903 289.753 34.7103 289.117 34.9503 288.59C35.1903 288.057 35.5203 287.65 35.9403 287.37C36.3603 287.083 36.8403 286.94 37.3803 286.94C37.9203 286.94 38.4003 287.083 38.8203 287.37C39.2403 287.65 39.5703 288.057 39.8103 288.59C40.057 289.117 40.1803 289.753 40.1803 290.5C40.1803 291.247 40.057 291.887 39.8103 292.42C39.5703 292.947 39.2403 293.353 38.8203 293.64C38.4003 293.92 37.9203 294.06 37.3803 294.06ZM37.3803 293.4C37.7936 293.4 38.1536 293.29 38.4603 293.07C38.767 292.843 39.007 292.517 39.1803 292.09C39.3536 291.657 39.4403 291.127 39.4403 290.5C39.4403 289.873 39.3536 289.347 39.1803 288.92C39.007 288.487 38.767 288.16 38.4603 287.94C38.1536 287.713 37.7936 287.6 37.3803 287.6C36.9803 287.6 36.6236 287.713 36.3103 287.94C35.997 288.16 35.7536 288.487 35.5803 288.92C35.407 289.347 35.3203 289.873 35.3203 290.5C35.3203 291.127 35.407 291.657 35.5803 292.09C35.7536 292.517 35.997 292.843 36.3103 293.07C36.6236 293.29 36.9803 293.4 37.3803 293.4ZM42.4314 294V287.3L42.7514 287.64H40.7814V287H43.1514V294H42.4314ZM47.0347 294.06C46.5347 294.06 46.058 293.98 45.6047 293.82C45.1514 293.653 44.7914 293.433 44.5247 293.16L44.8747 292.59C45.0947 292.823 45.3947 293.017 45.7747 293.17C46.1614 293.323 46.578 293.4 47.0247 293.4C47.618 293.4 48.068 293.27 48.3747 293.01C48.688 292.743 48.8447 292.397 48.8447 291.97C48.8447 291.67 48.7714 291.413 48.6247 291.2C48.4847 290.98 48.2447 290.81 47.9047 290.69C47.5647 290.57 47.098 290.51 46.5047 290.51H45.0147L45.3747 287H49.2047V287.64H45.6647L46.0347 287.29L45.7247 290.23L45.3547 289.87H46.6647C47.3714 289.87 47.938 289.957 48.3647 290.13C48.7914 290.303 49.098 290.547 49.2847 290.86C49.478 291.167 49.5747 291.527 49.5747 291.94C49.5747 292.333 49.4814 292.693 49.2947 293.02C49.108 293.34 48.828 293.593 48.4547 293.78C48.0814 293.967 47.608 294.06 47.0347 294.06Z" fill="#858C95"/>
<path d="M190.796 294V293.49L193.706 290.64C193.973 290.38 194.173 290.153 194.306 289.96C194.44 289.76 194.53 289.573 194.576 289.4C194.623 289.227 194.646 289.063 194.646 288.91C194.646 288.503 194.506 288.183 194.226 287.95C193.953 287.717 193.546 287.6 193.006 287.6C192.593 287.6 192.226 287.663 191.906 287.79C191.593 287.917 191.323 288.113 191.096 288.38L190.586 287.94C190.86 287.62 191.21 287.373 191.636 287.2C192.063 287.027 192.54 286.94 193.066 286.94C193.54 286.94 193.95 287.017 194.296 287.17C194.643 287.317 194.91 287.533 195.096 287.82C195.29 288.107 195.386 288.443 195.386 288.83C195.386 289.057 195.353 289.28 195.286 289.5C195.226 289.72 195.113 289.953 194.946 290.2C194.786 290.44 194.55 290.713 194.236 291.02L191.566 293.64L191.366 293.36H195.706V294H190.796ZM199.38 294.06C198.84 294.06 198.36 293.92 197.94 293.64C197.52 293.353 197.19 292.947 196.95 292.42C196.71 291.887 196.59 291.247 196.59 290.5C196.59 289.753 196.71 289.117 196.95 288.59C197.19 288.057 197.52 287.65 197.94 287.37C198.36 287.083 198.84 286.94 199.38 286.94C199.92 286.94 200.4 287.083 200.82 287.37C201.24 287.65 201.57 288.057 201.81 288.59C202.057 289.117 202.18 289.753 202.18 290.5C202.18 291.247 202.057 291.887 201.81 292.42C201.57 292.947 201.24 293.353 200.82 293.64C200.4 293.92 199.92 294.06 199.38 294.06ZM199.38 293.4C199.794 293.4 200.154 293.29 200.46 293.07C200.767 292.843 201.007 292.517 201.18 292.09C201.354 291.657 201.44 291.127 201.44 290.5C201.44 289.873 201.354 289.347 201.18 288.92C201.007 288.487 200.767 288.16 200.46 287.94C200.154 287.713 199.794 287.6 199.38 287.6C198.98 287.6 198.624 287.713 198.31 287.94C197.997 288.16 197.754 288.487 197.58 288.92C197.407 289.347 197.32 289.873 197.32 290.5C197.32 291.127 197.407 291.657 197.58 292.09C197.754 292.517 197.997 292.843 198.31 293.07C198.624 293.29 198.98 293.4 199.38 293.4ZM203.081 294V293.49L205.991 290.64C206.258 290.38 206.458 290.153 206.591 289.96C206.725 289.76 206.815 289.573 206.861 289.4C206.908 289.227 206.931 289.063 206.931 288.91C206.931 288.503 206.791 288.183 206.511 287.95C206.238 287.717 205.831 287.6 205.291 287.6C204.878 287.6 204.511 287.663 204.191 287.79C203.878 287.917 203.608 288.113 203.381 288.38L202.871 287.94C203.145 287.62 203.495 287.373 203.921 287.2C204.348 287.027 204.825 286.94 205.351 286.94C205.825 286.94 206.235 287.017 206.581 287.17C206.928 287.317 207.195 287.533 207.381 287.82C207.575 288.107 207.671 288.443 207.671 288.83C207.671 289.057 207.638 289.28 207.571 289.5C207.511 289.72 207.398 289.953 207.231 290.2C207.071 290.44 206.835 290.713 206.521 291.02L203.851 293.64L203.651 293.36H207.991V294H203.081ZM211.105 294.06C210.605 294.06 210.128 293.98 209.675 293.82C209.222 293.653 208.862 293.433 208.595 293.16L208.945 292.59C209.165 292.823 209.465 293.017 209.845 293.17C210.232 293.323 210.648 293.4 211.095 293.4C211.688 293.4 212.138 293.27 212.445 293.01C212.758 292.743 212.915 292.397 212.915 291.97C212.915 291.67 212.842 291.413 212.695 291.2C212.555 290.98 212.315 290.81 211.975 290.69C211.635 290.57 211.168 290.51 210.575 290.51H209.085L209.445 287H213.275V287.64H209.735L210.105 287.29L209.795 290.23L209.425 289.87H210.735C211.442 289.87 212.008 289.957 212.435 290.13C212.862 290.303 213.168 290.547 213.355 290.86C213.548 291.167 213.645 291.527 213.645 291.94C213.645 292.333 213.552 292.693 213.365 293.02C213.178 293.34 212.898 293.593 212.525 293.78C212.152 293.967 211.678 294.06 211.105 294.06Z" fill="#858C95"/>
<path d="M103.796 294V293.49L106.706 290.64C106.973 290.38 107.173 290.153 107.306 289.96C107.44 289.76 107.53 289.573 107.576 289.4C107.623 289.227 107.646 289.063 107.646 288.91C107.646 288.503 107.506 288.183 107.226 287.95C106.953 287.717 106.546 287.6 106.006 287.6C105.593 287.6 105.226 287.663 104.906 287.79C104.593 287.917 104.323 288.113 104.096 288.38L103.586 287.94C103.86 287.62 104.21 287.373 104.636 287.2C105.063 287.027 105.54 286.94 106.066 286.94C106.54 286.94 106.95 287.017 107.296 287.17C107.643 287.317 107.91 287.533 108.096 287.82C108.29 288.107 108.386 288.443 108.386 288.83C108.386 289.057 108.353 289.28 108.286 289.5C108.226 289.72 108.113 289.953 107.946 290.2C107.786 290.44 107.55 290.713 107.236 291.02L104.566 293.64L104.366 293.36H108.706V294H103.796ZM112.38 294.06C111.84 294.06 111.36 293.92 110.94 293.64C110.52 293.353 110.19 292.947 109.95 292.42C109.71 291.887 109.59 291.247 109.59 290.5C109.59 289.753 109.71 289.117 109.95 288.59C110.19 288.057 110.52 287.65 110.94 287.37C111.36 287.083 111.84 286.94 112.38 286.94C112.92 286.94 113.4 287.083 113.82 287.37C114.24 287.65 114.57 288.057 114.81 288.59C115.057 289.117 115.18 289.753 115.18 290.5C115.18 291.247 115.057 291.887 114.81 292.42C114.57 292.947 114.24 293.353 113.82 293.64C113.4 293.92 112.92 294.06 112.38 294.06ZM112.38 293.4C112.794 293.4 113.154 293.29 113.46 293.07C113.767 292.843 114.007 292.517 114.18 292.09C114.354 291.657 114.44 291.127 114.44 290.5C114.44 289.873 114.354 289.347 114.18 288.92C114.007 288.487 113.767 288.16 113.46 287.94C113.154 287.713 112.794 287.6 112.38 287.6C111.98 287.6 111.624 287.713 111.31 287.94C110.997 288.16 110.754 288.487 110.58 288.92C110.407 289.347 110.32 289.873 110.32 290.5C110.32 291.127 110.407 291.657 110.58 292.09C110.754 292.517 110.997 292.843 111.31 293.07C111.624 293.29 111.98 293.4 112.38 293.4ZM117.431 294V287.3L117.751 287.64H115.781V287H118.151V294H117.431ZM122.485 294.06C121.925 294.06 121.441 293.98 121.035 293.82C120.635 293.66 120.325 293.43 120.105 293.13C119.891 292.823 119.785 292.463 119.785 292.05C119.785 291.65 119.888 291.31 120.095 291.03C120.308 290.743 120.615 290.523 121.015 290.37C121.421 290.217 121.911 290.14 122.485 290.14C123.051 290.14 123.538 290.217 123.945 290.37C124.351 290.523 124.661 290.743 124.875 291.03C125.095 291.31 125.205 291.65 125.205 292.05C125.205 292.463 125.095 292.823 124.875 293.13C124.655 293.43 124.341 293.66 123.935 293.82C123.528 293.98 123.045 294.06 122.485 294.06ZM122.485 293.45C123.105 293.45 123.588 293.323 123.935 293.07C124.288 292.817 124.465 292.473 124.465 292.04C124.465 291.607 124.288 291.267 123.935 291.02C123.588 290.767 123.105 290.64 122.485 290.64C121.865 290.64 121.381 290.767 121.035 291.02C120.688 291.267 120.515 291.607 120.515 292.04C120.515 292.473 120.688 292.817 121.035 293.07C121.381 293.323 121.865 293.45 122.485 293.45ZM122.485 290.55C121.965 290.55 121.521 290.48 121.155 290.34C120.795 290.2 120.518 290 120.325 289.74C120.131 289.473 120.035 289.157 120.035 288.79C120.035 288.403 120.135 288.073 120.335 287.8C120.541 287.52 120.828 287.307 121.195 287.16C121.561 287.013 121.991 286.94 122.485 286.94C122.978 286.94 123.408 287.013 123.775 287.16C124.148 287.307 124.438 287.52 124.645 287.8C124.851 288.073 124.955 288.403 124.955 288.79C124.955 289.157 124.858 289.473 124.665 289.74C124.471 290 124.188 290.2 123.815 290.34C123.448 290.48 123.005 290.55 122.485 290.55ZM122.485 290.07C123.031 290.07 123.458 289.957 123.765 289.73C124.071 289.503 124.225 289.2 124.225 288.82C124.225 288.42 124.065 288.11 123.745 287.89C123.431 287.663 123.011 287.55 122.485 287.55C121.958 287.55 121.538 287.663 121.225 287.89C120.911 288.11 120.755 288.417 120.755 288.81C120.755 289.197 120.905 289.503 121.205 289.73C121.511 289.957 121.938 290.07 122.485 290.07Z" fill="#858C95"/>
<path d="M264.796 294V293.49L267.706 290.64C267.973 290.38 268.173 290.153 268.306 289.96C268.44 289.76 268.53 289.573 268.576 289.4C268.623 289.227 268.646 289.063 268.646 288.91C268.646 288.503 268.506 288.183 268.226 287.95C267.953 287.717 267.546 287.6 267.006 287.6C266.593 287.6 266.226 287.663 265.906 287.79C265.593 287.917 265.323 288.113 265.096 288.38L264.586 287.94C264.86 287.62 265.21 287.373 265.636 287.2C266.063 287.027 266.54 286.94 267.066 286.94C267.54 286.94 267.95 287.017 268.296 287.17C268.643 287.317 268.91 287.533 269.096 287.82C269.29 288.107 269.386 288.443 269.386 288.83C269.386 289.057 269.353 289.28 269.286 289.5C269.226 289.72 269.113 289.953 268.946 290.2C268.786 290.44 268.55 290.713 268.236 291.02L265.566 293.64L265.366 293.36H269.706V294H264.796ZM273.38 294.06C272.84 294.06 272.36 293.92 271.94 293.64C271.52 293.353 271.19 292.947 270.95 292.42C270.71 291.887 270.59 291.247 270.59 290.5C270.59 289.753 270.71 289.117 270.95 288.59C271.19 288.057 271.52 287.65 271.94 287.37C272.36 287.083 272.84 286.94 273.38 286.94C273.92 286.94 274.4 287.083 274.82 287.37C275.24 287.65 275.57 288.057 275.81 288.59C276.057 289.117 276.18 289.753 276.18 290.5C276.18 291.247 276.057 291.887 275.81 292.42C275.57 292.947 275.24 293.353 274.82 293.64C274.4 293.92 273.92 294.06 273.38 294.06ZM273.38 293.4C273.794 293.4 274.154 293.29 274.46 293.07C274.767 292.843 275.007 292.517 275.18 292.09C275.354 291.657 275.44 291.127 275.44 290.5C275.44 289.873 275.354 289.347 275.18 288.92C275.007 288.487 274.767 288.16 274.46 287.94C274.154 287.713 273.794 287.6 273.38 287.6C272.98 287.6 272.624 287.713 272.31 287.94C271.997 288.16 271.754 288.487 271.58 288.92C271.407 289.347 271.32 289.873 271.32 290.5C271.32 291.127 271.407 291.657 271.58 292.09C271.754 292.517 271.997 292.843 272.31 293.07C272.624 293.29 272.98 293.4 273.38 293.4ZM279.204 294.06C278.697 294.06 278.217 293.98 277.764 293.82C277.317 293.653 276.957 293.433 276.684 293.16L277.034 292.59C277.26 292.823 277.564 293.017 277.944 293.17C278.33 293.323 278.75 293.4 279.204 293.4C279.784 293.4 280.227 293.273 280.534 293.02C280.847 292.767 281.004 292.427 281.004 292C281.004 291.573 280.85 291.233 280.544 290.98C280.244 290.727 279.767 290.6 279.114 290.6H278.614V290.07L280.774 287.36L280.874 287.64H276.974V287H281.474V287.51L279.314 290.22L278.964 289.99H279.234C280.074 289.99 280.7 290.177 281.114 290.55C281.534 290.923 281.744 291.403 281.744 291.99C281.744 292.383 281.65 292.737 281.464 293.05C281.277 293.363 280.994 293.61 280.614 293.79C280.24 293.97 279.77 294.06 279.204 294.06ZM285.548 294.06C285.008 294.06 284.528 293.92 284.108 293.64C283.688 293.353 283.358 292.947 283.118 292.42C282.878 291.887 282.758 291.247 282.758 290.5C282.758 289.753 282.878 289.117 283.118 288.59C283.358 288.057 283.688 287.65 284.108 287.37C284.528 287.083 285.008 286.94 285.548 286.94C286.088 286.94 286.568 287.083 286.988 287.37C287.408 287.65 287.738 288.057 287.978 288.59C288.225 289.117 288.348 289.753 288.348 290.5C288.348 291.247 288.225 291.887 287.978 292.42C287.738 292.947 287.408 293.353 286.988 293.64C286.568 293.92 286.088 294.06 285.548 294.06ZM285.548 293.4C285.962 293.4 286.322 293.29 286.628 293.07C286.935 292.843 287.175 292.517 287.348 292.09C287.522 291.657 287.608 291.127 287.608 290.5C287.608 289.873 287.522 289.347 287.348 288.92C287.175 288.487 286.935 288.16 286.628 287.94C286.322 287.713 285.962 287.6 285.548 287.6C285.148 287.6 284.792 287.713 284.478 287.94C284.165 288.16 283.922 288.487 283.748 288.92C283.575 289.347 283.488 289.873 283.488 290.5C283.488 291.127 283.575 291.657 283.748 292.09C283.922 292.517 284.165 292.843 284.478 293.07C284.792 293.29 285.148 293.4 285.548 293.4Z" fill="#858C95"/>
<path d="M17.31 276.404C16.77 276.404 16.29 276.264 15.87 275.984C15.45 275.697 15.12 275.29 14.88 274.764C14.64 274.23 14.52 273.59 14.52 272.844C14.52 272.097 14.64 271.46 14.88 270.934C15.12 270.4 15.45 269.994 15.87 269.714C16.29 269.427 16.77 269.284 17.31 269.284C17.85 269.284 18.33 269.427 18.75 269.714C19.17 269.994 19.5 270.4 19.74 270.934C19.9867 271.46 20.11 272.097 20.11 272.844C20.11 273.59 19.9867 274.23 19.74 274.764C19.5 275.29 19.17 275.697 18.75 275.984C18.33 276.264 17.85 276.404 17.31 276.404ZM17.31 275.744C17.7233 275.744 18.0833 275.634 18.39 275.414C18.6967 275.187 18.9367 274.86 19.11 274.434C19.2833 274 19.37 273.47 19.37 272.844C19.37 272.217 19.2833 271.69 19.11 271.264C18.9367 270.83 18.6967 270.504 18.39 270.284C18.0833 270.057 17.7233 269.944 17.31 269.944C16.91 269.944 16.5533 270.057 16.24 270.284C15.9267 270.504 15.6833 270.83 15.51 271.264C15.3367 271.69 15.25 272.217 15.25 272.844C15.25 273.47 15.3367 274 15.51 274.434C15.6833 274.86 15.9267 275.187 16.24 275.414C16.5533 275.634 16.91 275.744 17.31 275.744Z" fill="#858C95"/>
<path d="M5.74 213.49V206.79L6.06 207.13H4.09V206.49H6.46V213.49H5.74ZM10.9233 213.55C10.3833 213.55 9.90328 213.41 9.48328 213.13C9.06328 212.844 8.73328 212.437 8.49328 211.91C8.25328 211.377 8.13328 210.737 8.13328 209.99C8.13328 209.244 8.25328 208.607 8.49328 208.08C8.73328 207.547 9.06328 207.14 9.48328 206.86C9.90328 206.574 10.3833 206.43 10.9233 206.43C11.4633 206.43 11.9433 206.574 12.3633 206.86C12.7833 207.14 13.1133 207.547 13.3533 208.08C13.5999 208.607 13.7233 209.244 13.7233 209.99C13.7233 210.737 13.5999 211.377 13.3533 211.91C13.1133 212.437 12.7833 212.844 12.3633 213.13C11.9433 213.41 11.4633 213.55 10.9233 213.55ZM10.9233 212.89C11.3366 212.89 11.6966 212.78 12.0033 212.56C12.3099 212.334 12.5499 212.007 12.7233 211.58C12.8966 211.147 12.9833 210.617 12.9833 209.99C12.9833 209.364 12.8966 208.837 12.7233 208.41C12.5499 207.977 12.3099 207.65 12.0033 207.43C11.6966 207.204 11.3366 207.09 10.9233 207.09C10.5233 207.09 10.1666 207.204 9.85328 207.43C9.53995 207.65 9.29661 207.977 9.12328 208.41C8.94995 208.837 8.86328 209.364 8.86328 209.99C8.86328 210.617 8.94995 211.147 9.12328 211.58C9.29661 212.007 9.53995 212.334 9.85328 212.56C10.1666 212.78 10.5233 212.89 10.9233 212.89ZM17.5444 213.55C17.0044 213.55 16.5244 213.41 16.1044 213.13C15.6844 212.844 15.3544 212.437 15.1144 211.91C14.8744 211.377 14.7544 210.737 14.7544 209.99C14.7544 209.244 14.8744 208.607 15.1144 208.08C15.3544 207.547 15.6844 207.14 16.1044 206.86C16.5244 206.574 17.0044 206.43 17.5444 206.43C18.0844 206.43 18.5644 206.574 18.9844 206.86C19.4044 207.14 19.7344 207.547 19.9744 208.08C20.221 208.607 20.3444 209.244 20.3444 209.99C20.3444 210.737 20.221 211.377 19.9744 211.91C19.7344 212.437 19.4044 212.844 18.9844 213.13C18.5644 213.41 18.0844 213.55 17.5444 213.55ZM17.5444 212.89C17.9577 212.89 18.3177 212.78 18.6244 212.56C18.931 212.334 19.171 212.007 19.3444 211.58C19.5177 211.147 19.6044 210.617 19.6044 209.99C19.6044 209.364 19.5177 208.837 19.3444 208.41C19.171 207.977 18.931 207.65 18.6244 207.43C18.3177 207.204 17.9577 207.09 17.5444 207.09C17.1444 207.09 16.7877 207.204 16.4744 207.43C16.161 207.65 15.9177 207.977 15.7444 208.41C15.571 208.837 15.4844 209.364 15.4844 209.99C15.4844 210.617 15.571 211.147 15.7444 211.58C15.9177 212.007 16.161 212.334 16.4744 212.56C16.7877 212.78 17.1444 212.89 17.5444 212.89Z" fill="#858C95"/>
<path d="M4.61 75.9174C4.10333 75.9174 3.62333 75.8374 3.17 75.6774C2.72333 75.5108 2.36333 75.2908 2.09 75.0174L2.44 74.4474C2.66667 74.6808 2.97 74.8741 3.35 75.0274C3.73667 75.1808 4.15667 75.2574 4.61 75.2574C5.19 75.2574 5.63333 75.1308 5.94 74.8774C6.25333 74.6241 6.41 74.2841 6.41 73.8574C6.41 73.4308 6.25667 73.0908 5.95 72.8374C5.65 72.5841 5.17333 72.4574 4.52 72.4574H4.02V71.9274L6.18 69.2174L6.28 69.4974H2.38V68.8574H6.88V69.3674L4.72 72.0774L4.37 71.8474H4.64C5.48 71.8474 6.10667 72.0341 6.52 72.4074C6.94 72.7808 7.15 73.2608 7.15 73.8474C7.15 74.2408 7.05667 74.5941 6.87 74.9074C6.68333 75.2208 6.4 75.4674 6.02 75.6474C5.64667 75.8274 5.17667 75.9174 4.61 75.9174ZM10.9545 75.9174C10.4145 75.9174 9.93453 75.7774 9.51453 75.4974C9.09453 75.2108 8.76453 74.8041 8.52453 74.2774C8.28453 73.7441 8.16453 73.1041 8.16453 72.3574C8.16453 71.6108 8.28453 70.9741 8.52453 70.4474C8.76453 69.9141 9.09453 69.5074 9.51453 69.2274C9.93453 68.9408 10.4145 68.7974 10.9545 68.7974C11.4945 68.7974 11.9745 68.9408 12.3945 69.2274C12.8145 69.5074 13.1445 69.9141 13.3845 70.4474C13.6312 70.9741 13.7545 71.6108 13.7545 72.3574C13.7545 73.1041 13.6312 73.7441 13.3845 74.2774C13.1445 74.8041 12.8145 75.2108 12.3945 75.4974C11.9745 75.7774 11.4945 75.9174 10.9545 75.9174ZM10.9545 75.2574C11.3679 75.2574 11.7279 75.1474 12.0345 74.9274C12.3412 74.7008 12.5812 74.3741 12.7545 73.9474C12.9279 73.5141 13.0145 72.9841 13.0145 72.3574C13.0145 71.7308 12.9279 71.2041 12.7545 70.7774C12.5812 70.3441 12.3412 70.0174 12.0345 69.7974C11.7279 69.5708 11.3679 69.4574 10.9545 69.4574C10.5545 69.4574 10.1979 69.5708 9.88453 69.7974C9.5712 70.0174 9.32786 70.3441 9.15453 70.7774C8.9812 71.2041 8.89453 71.7308 8.89453 72.3574C8.89453 72.9841 8.9812 73.5141 9.15453 73.9474C9.32786 74.3741 9.5712 74.7008 9.88453 74.9274C10.1979 75.1474 10.5545 75.2574 10.9545 75.2574ZM17.5756 75.9174C17.0356 75.9174 16.5556 75.7774 16.1356 75.4974C15.7156 75.2108 15.3856 74.8041 15.1456 74.2774C14.9056 73.7441 14.7856 73.1041 14.7856 72.3574C14.7856 71.6108 14.9056 70.9741 15.1456 70.4474C15.3856 69.9141 15.7156 69.5074 16.1356 69.2274C16.5556 68.9408 17.0356 68.7974 17.5756 68.7974C18.1156 68.7974 18.5956 68.9408 19.0156 69.2274C19.4356 69.5074 19.7656 69.9141 20.0056 70.4474C20.2523 70.9741 20.3756 71.6108 20.3756 72.3574C20.3756 73.1041 20.2523 73.7441 20.0056 74.2774C19.7656 74.8041 19.4356 75.2108 19.0156 75.4974C18.5956 75.7774 18.1156 75.9174 17.5756 75.9174ZM17.5756 75.2574C17.989 75.2574 18.349 75.1474 18.6556 74.9274C18.9623 74.7008 19.2023 74.3741 19.3756 73.9474C19.549 73.5141 19.6356 72.9841 19.6356 72.3574C19.6356 71.7308 19.549 71.2041 19.3756 70.7774C19.2023 70.3441 18.9623 70.0174 18.6556 69.7974C18.349 69.5708 17.989 69.4574 17.5756 69.4574C17.1756 69.4574 16.819 69.5708 16.5056 69.7974C16.1923 70.0174 15.949 70.3441 15.7756 70.7774C15.6023 71.2041 15.5156 71.7308 15.5156 72.3574C15.5156 72.9841 15.6023 73.5141 15.7756 73.9474C15.949 74.3741 16.1923 74.7008 16.5056 74.9274C16.819 75.1474 17.1756 75.2574 17.5756 75.2574Z" fill="#858C95"/>
<path d="M2.39 146.174V145.664L5.3 142.814C5.56667 142.554 5.76667 142.327 5.9 142.134C6.03333 141.934 6.12333 141.747 6.17 141.574C6.21667 141.4 6.24 141.237 6.24 141.084C6.24 140.677 6.1 140.357 5.82 140.124C5.54667 139.89 5.14 139.774 4.6 139.774C4.18667 139.774 3.82 139.837 3.5 139.964C3.18667 140.09 2.91667 140.287 2.69 140.554L2.18 140.114C2.45333 139.794 2.80333 139.547 3.23 139.374C3.65667 139.2 4.13333 139.114 4.66 139.114C5.13333 139.114 5.54333 139.19 5.89 139.344C6.23667 139.49 6.50333 139.707 6.69 139.994C6.88333 140.28 6.98 140.617 6.98 141.004C6.98 141.23 6.94667 141.454 6.88 141.674C6.82 141.894 6.70667 142.127 6.54 142.374C6.38 142.614 6.14333 142.887 5.83 143.194L3.16 145.814L2.96 145.534H7.3V146.174H2.39ZM10.9741 146.234C10.4341 146.234 9.95406 146.094 9.53406 145.814C9.11406 145.527 8.78406 145.12 8.54406 144.594C8.30406 144.06 8.18406 143.42 8.18406 142.674C8.18406 141.927 8.30406 141.29 8.54406 140.764C8.78406 140.23 9.11406 139.824 9.53406 139.544C9.95406 139.257 10.4341 139.114 10.9741 139.114C11.5141 139.114 11.9941 139.257 12.4141 139.544C12.8341 139.824 13.1641 140.23 13.4041 140.764C13.6507 141.29 13.7741 141.927 13.7741 142.674C13.7741 143.42 13.6507 144.06 13.4041 144.594C13.1641 145.12 12.8341 145.527 12.4141 145.814C11.9941 146.094 11.5141 146.234 10.9741 146.234ZM10.9741 145.574C11.3874 145.574 11.7474 145.464 12.0541 145.244C12.3607 145.017 12.6007 144.69 12.7741 144.264C12.9474 143.83 13.0341 143.3 13.0341 142.674C13.0341 142.047 12.9474 141.52 12.7741 141.094C12.6007 140.66 12.3607 140.334 12.0541 140.114C11.7474 139.887 11.3874 139.774 10.9741 139.774C10.5741 139.774 10.2174 139.887 9.90406 140.114C9.59073 140.334 9.3474 140.66 9.17406 141.094C9.00073 141.52 8.91406 142.047 8.91406 142.674C8.91406 143.3 9.00073 143.83 9.17406 144.264C9.3474 144.69 9.59073 145.017 9.90406 145.244C10.2174 145.464 10.5741 145.574 10.9741 145.574ZM17.5952 146.234C17.0552 146.234 16.5752 146.094 16.1552 145.814C15.7352 145.527 15.4052 145.12 15.1652 144.594C14.9252 144.06 14.8052 143.42 14.8052 142.674C14.8052 141.927 14.9252 141.29 15.1652 140.764C15.4052 140.23 15.7352 139.824 16.1552 139.544C16.5752 139.257 17.0552 139.114 17.5952 139.114C18.1352 139.114 18.6152 139.257 19.0352 139.544C19.4552 139.824 19.7852 140.23 20.0252 140.764C20.2718 141.29 20.3952 141.927 20.3952 142.674C20.3952 143.42 20.2718 144.06 20.0252 144.594C19.7852 145.12 19.4552 145.527 19.0352 145.814C18.6152 146.094 18.1352 146.234 17.5952 146.234ZM17.5952 145.574C18.0085 145.574 18.3685 145.464 18.6752 145.244C18.9818 145.017 19.2218 144.69 19.3952 144.264C19.5685 143.83 19.6552 143.3 19.6552 142.674C19.6552 142.047 19.5685 141.52 19.3952 141.094C19.2218 140.66 18.9818 140.334 18.6752 140.114C18.3685 139.887 18.0085 139.774 17.5952 139.774C17.1952 139.774 16.8385 139.887 16.5252 140.114C16.2118 140.334 15.9685 140.66 15.7952 141.094C15.6218 141.52 15.5352 142.047 15.5352 142.674C15.5352 143.3 15.6218 143.83 15.7952 144.264C15.9685 144.69 16.2118 145.017 16.5252 145.244C16.8385 145.464 17.1952 145.574 17.5952 145.574Z" fill="#858C95"/>
<path d="M1.4 8.3475V7.8275L5.11 3.1875H5.91L2.23 7.8275L1.84 7.7075H7.47V8.3475H1.4ZM5.35 10.1875V8.3475L5.37 7.7075V6.0875H6.07V10.1875H5.35ZM10.9213 10.2475C10.3813 10.2475 9.90133 10.1075 9.48133 9.8275C9.06133 9.54083 8.73133 9.13417 8.49133 8.6075C8.25133 8.07417 8.13133 7.43417 8.13133 6.6875C8.13133 5.94083 8.25133 5.30417 8.49133 4.7775C8.73133 4.24417 9.06133 3.8375 9.48133 3.5575C9.90133 3.27083 10.3813 3.1275 10.9213 3.1275C11.4613 3.1275 11.9413 3.27083 12.3613 3.5575C12.7813 3.8375 13.1113 4.24417 13.3513 4.7775C13.598 5.30417 13.7213 5.94083 13.7213 6.6875C13.7213 7.43417 13.598 8.07417 13.3513 8.6075C13.1113 9.13417 12.7813 9.54083 12.3613 9.8275C11.9413 10.1075 11.4613 10.2475 10.9213 10.2475ZM10.9213 9.5875C11.3347 9.5875 11.6947 9.4775 12.0013 9.2575C12.308 9.03083 12.548 8.70417 12.7213 8.2775C12.8947 7.84417 12.9813 7.31417 12.9813 6.6875C12.9813 6.06083 12.8947 5.53417 12.7213 5.1075C12.548 4.67417 12.308 4.3475 12.0013 4.1275C11.6947 3.90083 11.3347 3.7875 10.9213 3.7875C10.5213 3.7875 10.1647 3.90083 9.85133 4.1275C9.53799 4.3475 9.29466 4.67417 9.12133 5.1075C8.94799 5.53417 8.86133 6.06083 8.86133 6.6875C8.86133 7.31417 8.94799 7.84417 9.12133 8.2775C9.29466 8.70417 9.53799 9.03083 9.85133 9.2575C10.1647 9.4775 10.5213 9.5875 10.9213 9.5875ZM17.5424 10.2475C17.0024 10.2475 16.5224 10.1075 16.1024 9.8275C15.6824 9.54083 15.3524 9.13417 15.1124 8.6075C14.8724 8.07417 14.7524 7.43417 14.7524 6.6875C14.7524 5.94083 14.8724 5.30417 15.1124 4.7775C15.3524 4.24417 15.6824 3.8375 16.1024 3.5575C16.5224 3.27083 17.0024 3.1275 17.5424 3.1275C18.0824 3.1275 18.5624 3.27083 18.9824 3.5575C19.4024 3.8375 19.7324 4.24417 19.9724 4.7775C20.2191 5.30417 20.3424 5.94083 20.3424 6.6875C20.3424 7.43417 20.2191 8.07417 19.9724 8.6075C19.7324 9.13417 19.4024 9.54083 18.9824 9.8275C18.5624 10.1075 18.0824 10.2475 17.5424 10.2475ZM17.5424 9.5875C17.9558 9.5875 18.3158 9.4775 18.6224 9.2575C18.9291 9.03083 19.1691 8.70417 19.3424 8.2775C19.5158 7.84417 19.6024 7.31417 19.6024 6.6875C19.6024 6.06083 19.5158 5.53417 19.3424 5.1075C19.1691 4.67417 18.9291 4.3475 18.6224 4.1275C18.3158 3.90083 17.9558 3.7875 17.5424 3.7875C17.1424 3.7875 16.7858 3.90083 16.4724 4.1275C16.1591 4.3475 15.9158 4.67417 15.7424 5.1075C15.5691 5.53417 15.4824 6.06083 15.4824 6.6875C15.4824 7.31417 15.5691 7.84417 15.7424 8.2775C15.9158 8.70417 16.1591 9.03083 16.4724 9.2575C16.7858 9.4775 17.1424 9.5875 17.5424 9.5875Z" fill="#858C95"/>
<path d="M289 94C289 94 225.5 123.5 201 134.5C176.5 145.5 150 156 117.5 165C85 174 28 191 28 191" stroke="#2D6FD0" stroke-width="2"/>
<path d="M28.4069 194.64C27.4372 194.64 26.5072 194.255 25.8214 193.569C25.1356 192.884 24.7502 191.954 24.75 190.984C24.7498 190.014 25.1347 189.084 25.8201 188.398C26.5056 187.712 27.4354 187.327 28.4051 187.326C29.3748 187.326 30.305 187.71 30.9912 188.396C31.6773 189.081 32.0631 190.011 32.0639 190.98C32.0646 191.95 31.6801 192.88 30.995 193.567C30.3099 194.253 29.3803 194.639 28.4106 194.64H28.4069Z" fill="#2D6FD0"/>
<path d="M201.36 138.413C200.39 138.413 199.46 138.028 198.775 137.343C198.089 136.657 197.703 135.727 197.703 134.757C197.703 133.788 198.088 132.858 198.773 132.172C199.459 131.486 200.389 131.1 201.358 131.1C202.328 131.099 203.258 131.484 203.944 132.169C204.63 132.854 205.016 133.784 205.017 134.754C205.018 135.724 204.633 136.654 203.948 137.34C203.263 138.026 202.333 138.413 201.364 138.413H201.36Z" fill="#2D6FD0"/>
<path d="M115.383 169.206C114.414 169.206 113.484 168.821 112.798 168.136C112.112 167.45 111.727 166.52 111.727 165.55C111.726 164.581 112.111 163.651 112.797 162.965C113.482 162.279 114.412 161.893 115.382 161.893C116.351 161.892 117.282 162.277 117.968 162.962C118.654 163.647 119.04 164.577 119.04 165.547C119.041 166.516 118.657 167.447 117.972 168.133C117.287 168.819 116.357 169.205 115.387 169.206H115.383Z" fill="#2D6FD0"/>
<path d="M288.344 98.142C287.375 98.142 286.445 97.7568 285.759 97.0712C285.073 96.3856 284.688 95.4557 284.688 94.486C284.687 93.5163 285.072 92.5861 285.758 91.9002C286.443 91.2142 287.373 90.8286 288.343 90.8281C289.312 90.8276 290.243 91.2123 290.929 91.8976C291.615 92.5829 292.001 93.5126 292.001 94.4823C292.002 95.452 291.618 96.3823 290.933 97.0686C290.247 97.7549 289.318 98.141 288.348 98.142L288.344 98.142Z" fill="#2D6FD0"/>
<path d="M38.5404 173.8V175H33.2454V173.8H35.2854V165.625C35.2054 165.745 35.0754 165.88 34.8954 166.03C34.7154 166.17 34.5054 166.31 34.2654 166.45C34.0354 166.58 33.8004 166.69 33.5604 166.78C33.3204 166.87 33.1004 166.915 32.9004 166.915V165.685C33.1704 165.685 33.4404 165.615 33.7104 165.475C33.9904 165.335 34.2454 165.17 34.4754 164.98C34.7154 164.79 34.9054 164.62 35.0454 164.47C35.1954 164.32 35.2754 164.24 35.2854 164.23H36.6354V173.8H38.5404ZM43.0915 175.135C42.4815 175.135 41.9265 175.04 41.4265 174.85C40.9365 174.65 40.5265 174.375 40.1965 174.025C39.8765 173.665 39.6665 173.25 39.5665 172.78L40.3165 171.985C40.3465 172.275 40.4765 172.57 40.7065 172.87C40.9365 173.17 41.2515 173.42 41.6515 173.62C42.0615 173.81 42.5365 173.905 43.0765 173.905C43.5365 173.905 43.9515 173.83 44.3215 173.68C44.6915 173.52 44.9865 173.3 45.2065 173.02C45.4265 172.74 45.5365 172.415 45.5365 172.045C45.5365 171.635 45.4015 171.285 45.1315 170.995C44.8615 170.705 44.4765 170.485 43.9765 170.335C43.4865 170.185 42.9015 170.11 42.2215 170.11H41.7115V168.985H42.2215C43.1415 168.985 43.8765 168.84 44.4265 168.55C44.9765 168.25 45.2515 167.805 45.2515 167.215C45.2515 166.835 45.1465 166.51 44.9365 166.24C44.7365 165.96 44.4665 165.75 44.1265 165.61C43.7965 165.46 43.4415 165.385 43.0615 165.385C42.4215 165.385 41.8765 165.53 41.4265 165.82C40.9865 166.1 40.6765 166.43 40.4965 166.81L39.6115 165.895C39.8115 165.545 40.0915 165.245 40.4515 164.995C40.8115 164.745 41.2165 164.555 41.6665 164.425C42.1165 164.285 42.5765 164.215 43.0465 164.215C43.7365 164.215 44.3515 164.345 44.8915 164.605C45.4415 164.865 45.8715 165.215 46.1815 165.655C46.4915 166.095 46.6465 166.595 46.6465 167.155C46.6465 167.555 46.5665 167.915 46.4065 168.235C46.2465 168.545 46.0115 168.805 45.7015 169.015C45.3915 169.225 45.0165 169.385 44.5765 169.495C45.0465 169.575 45.4565 169.745 45.8065 170.005C46.1565 170.265 46.4265 170.585 46.6165 170.965C46.8065 171.345 46.9015 171.76 46.9015 172.21C46.9015 172.83 46.7215 173.36 46.3615 173.8C46.0015 174.23 45.5315 174.56 44.9515 174.79C44.3815 175.02 43.7615 175.135 43.0915 175.135ZM55.8859 171.985C55.8859 172.615 55.7109 173.165 55.3609 173.635C55.0209 174.105 54.5609 174.47 53.9809 174.73C53.4109 174.99 52.7859 175.12 52.1059 175.12C51.3959 175.12 50.7609 174.98 50.2009 174.7C49.6409 174.41 49.1959 174.025 48.8659 173.545C48.5459 173.065 48.3859 172.525 48.3859 171.925C48.3859 171.485 48.4859 171.09 48.6859 170.74C48.8859 170.39 49.1359 170.095 49.4359 169.855C49.7459 169.605 50.0609 169.42 50.3809 169.3C50.0909 169.17 49.8209 169 49.5709 168.79C49.3209 168.58 49.1209 168.335 48.9709 168.055C48.8209 167.775 48.7459 167.47 48.7459 167.14C48.7459 166.69 48.8459 166.295 49.0459 165.955C49.2459 165.605 49.5109 165.31 49.8409 165.07C50.1709 164.83 50.5359 164.65 50.9359 164.53C51.3359 164.41 51.7359 164.35 52.1359 164.35C52.5359 164.35 52.9359 164.41 53.3359 164.53C53.7359 164.65 54.1009 164.83 54.4309 165.07C54.7709 165.3 55.0409 165.59 55.2409 165.94C55.4409 166.28 55.5409 166.675 55.5409 167.125C55.5409 167.455 55.4659 167.765 55.3159 168.055C55.1659 168.335 54.9609 168.58 54.7009 168.79C54.4509 169 54.1759 169.17 53.8759 169.3C54.2359 169.44 54.5659 169.64 54.8659 169.9C55.1759 170.15 55.4209 170.45 55.6009 170.8C55.7909 171.15 55.8859 171.545 55.8859 171.985ZM54.5509 171.895C54.5509 171.575 54.4809 171.29 54.3409 171.04C54.2009 170.78 54.0109 170.565 53.7709 170.395C53.5309 170.215 53.2659 170.08 52.9759 169.99C52.6959 169.9 52.4109 169.855 52.1209 169.855C51.7209 169.855 51.3359 169.94 50.9659 170.11C50.6059 170.28 50.3109 170.52 50.0809 170.83C49.8509 171.13 49.7359 171.49 49.7359 171.91C49.7359 172.22 49.8059 172.5 49.9459 172.75C50.0859 173 50.2709 173.215 50.5009 173.395C50.7409 173.575 51.0009 173.71 51.2809 173.8C51.5709 173.89 51.8609 173.935 52.1509 173.935C52.5509 173.935 52.9309 173.85 53.2909 173.68C53.6609 173.51 53.9609 173.27 54.1909 172.96C54.4309 172.65 54.5509 172.295 54.5509 171.895ZM50.0809 167.185C50.0809 167.535 50.1859 167.835 50.3959 168.085C50.6059 168.335 50.8709 168.525 51.1909 168.655C51.5109 168.775 51.8259 168.835 52.1359 168.835C52.4559 168.835 52.7709 168.77 53.0809 168.64C53.4009 168.51 53.6659 168.32 53.8759 168.07C54.0859 167.82 54.1909 167.515 54.1909 167.155C54.1909 166.815 54.0909 166.525 53.8909 166.285C53.7009 166.045 53.4459 165.86 53.1259 165.73C52.8159 165.6 52.4809 165.535 52.1209 165.535C51.7709 165.535 51.4359 165.605 51.1159 165.745C50.8059 165.875 50.5559 166.065 50.3659 166.315C50.1759 166.555 50.0809 166.845 50.0809 167.185ZM57.7257 176.215L58.0257 174.88H57.5757V173.32H58.8207V174.88L58.3707 176.215H57.7257ZM68.0148 171.985C68.0148 172.615 67.8398 173.165 67.4898 173.635C67.1498 174.105 66.6898 174.47 66.1098 174.73C65.5398 174.99 64.9148 175.12 64.2348 175.12C63.5248 175.12 62.8898 174.98 62.3298 174.7C61.7698 174.41 61.3248 174.025 60.9948 173.545C60.6748 173.065 60.5148 172.525 60.5148 171.925C60.5148 171.485 60.6148 171.09 60.8148 170.74C61.0148 170.39 61.2648 170.095 61.5648 169.855C61.8748 169.605 62.1898 169.42 62.5098 169.3C62.2198 169.17 61.9498 169 61.6998 168.79C61.4498 168.58 61.2498 168.335 61.0998 168.055C60.9498 167.775 60.8748 167.47 60.8748 167.14C60.8748 166.69 60.9748 166.295 61.1748 165.955C61.3748 165.605 61.6398 165.31 61.9698 165.07C62.2998 164.83 62.6648 164.65 63.0648 164.53C63.4648 164.41 63.8648 164.35 64.2648 164.35C64.6648 164.35 65.0648 164.41 65.4648 164.53C65.8648 164.65 66.2298 164.83 66.5598 165.07C66.8998 165.3 67.1698 165.59 67.3698 165.94C67.5698 166.28 67.6698 166.675 67.6698 167.125C67.6698 167.455 67.5948 167.765 67.4448 168.055C67.2948 168.335 67.0898 168.58 66.8298 168.79C66.5798 169 66.3048 169.17 66.0048 169.3C66.3648 169.44 66.6948 169.64 66.9948 169.9C67.3048 170.15 67.5498 170.45 67.7298 170.8C67.9198 171.15 68.0148 171.545 68.0148 171.985ZM66.6798 171.895C66.6798 171.575 66.6098 171.29 66.4698 171.04C66.3298 170.78 66.1398 170.565 65.8998 170.395C65.6598 170.215 65.3948 170.08 65.1048 169.99C64.8248 169.9 64.5398 169.855 64.2498 169.855C63.8498 169.855 63.4648 169.94 63.0948 170.11C62.7348 170.28 62.4398 170.52 62.2098 170.83C61.9798 171.13 61.8648 171.49 61.8648 171.91C61.8648 172.22 61.9348 172.5 62.0748 172.75C62.2148 173 62.3998 173.215 62.6298 173.395C62.8698 173.575 63.1298 173.71 63.4098 173.8C63.6998 173.89 63.9898 173.935 64.2798 173.935C64.6798 173.935 65.0598 173.85 65.4198 173.68C65.7898 173.51 66.0898 173.27 66.3198 172.96C66.5598 172.65 66.6798 172.295 66.6798 171.895ZM62.2098 167.185C62.2098 167.535 62.3148 167.835 62.5248 168.085C62.7348 168.335 62.9998 168.525 63.3198 168.655C63.6398 168.775 63.9548 168.835 64.2648 168.835C64.5848 168.835 64.8998 168.77 65.2098 168.64C65.5298 168.51 65.7948 168.32 66.0048 168.07C66.2148 167.82 66.3198 167.515 66.3198 167.155C66.3198 166.815 66.2198 166.525 66.0198 166.285C65.8298 166.045 65.5748 165.86 65.2548 165.73C64.9448 165.6 64.6098 165.535 64.2498 165.535C63.8998 165.535 63.5648 165.605 63.2448 165.745C62.9348 165.875 62.6848 166.065 62.4948 166.315C62.3048 166.555 62.2098 166.845 62.2098 167.185Z" fill="#2F2F2F"/>
<path d="M241.171 94C241.171 93.4 241.221 92.87 241.321 92.41C241.431 91.94 241.586 91.52 241.786 91.15C241.996 90.78 242.246 90.455 242.536 90.175C242.826 89.895 243.156 89.645 243.526 89.425C243.916 89.195 244.316 88.985 244.726 88.795C245.136 88.605 245.516 88.405 245.866 88.195C246.216 87.985 246.496 87.735 246.706 87.445C246.926 87.145 247.036 86.775 247.036 86.335C247.036 85.985 246.961 85.67 246.811 85.39C246.661 85.1 246.436 84.87 246.136 84.7C245.836 84.53 245.451 84.445 244.981 84.445C244.511 84.445 244.086 84.525 243.706 84.685C243.336 84.845 243.016 85.035 242.746 85.255C242.476 85.475 242.261 85.685 242.101 85.885L241.246 85.03C241.326 84.93 241.466 84.78 241.666 84.58C241.876 84.38 242.141 84.175 242.461 83.965C242.791 83.755 243.176 83.58 243.616 83.44C244.056 83.29 244.556 83.215 245.116 83.215C245.866 83.215 246.491 83.355 246.991 83.635C247.491 83.915 247.866 84.29 248.116 84.76C248.376 85.23 248.506 85.75 248.506 86.32C248.506 86.83 248.411 87.27 248.221 87.64C248.031 88 247.786 88.305 247.486 88.555C247.186 88.805 246.856 89.025 246.496 89.215C246.146 89.405 245.806 89.585 245.476 89.755C244.846 90.055 244.346 90.33 243.976 90.58C243.606 90.83 243.321 91.075 243.121 91.315C242.931 91.545 242.801 91.78 242.731 92.02C242.671 92.26 242.636 92.52 242.626 92.8H248.521V94H241.171ZM257.564 90.985C257.564 91.615 257.389 92.165 257.039 92.635C256.699 93.105 256.239 93.47 255.659 93.73C255.089 93.99 254.464 94.12 253.784 94.12C253.074 94.12 252.439 93.98 251.879 93.7C251.319 93.41 250.874 93.025 250.544 92.545C250.224 92.065 250.064 91.525 250.064 90.925C250.064 90.485 250.164 90.09 250.364 89.74C250.564 89.39 250.814 89.095 251.114 88.855C251.424 88.605 251.739 88.42 252.059 88.3C251.769 88.17 251.499 88 251.249 87.79C250.999 87.58 250.799 87.335 250.649 87.055C250.499 86.775 250.424 86.47 250.424 86.14C250.424 85.69 250.524 85.295 250.724 84.955C250.924 84.605 251.189 84.31 251.519 84.07C251.849 83.83 252.214 83.65 252.614 83.53C253.014 83.41 253.414 83.35 253.814 83.35C254.214 83.35 254.614 83.41 255.014 83.53C255.414 83.65 255.779 83.83 256.109 84.07C256.449 84.3 256.719 84.59 256.919 84.94C257.119 85.28 257.219 85.675 257.219 86.125C257.219 86.455 257.144 86.765 256.994 87.055C256.844 87.335 256.639 87.58 256.379 87.79C256.129 88 255.854 88.17 255.554 88.3C255.914 88.44 256.244 88.64 256.544 88.9C256.854 89.15 257.099 89.45 257.279 89.8C257.469 90.15 257.564 90.545 257.564 90.985ZM256.229 90.895C256.229 90.575 256.159 90.29 256.019 90.04C255.879 89.78 255.689 89.565 255.449 89.395C255.209 89.215 254.944 89.08 254.654 88.99C254.374 88.9 254.089 88.855 253.799 88.855C253.399 88.855 253.014 88.94 252.644 89.11C252.284 89.28 251.989 89.52 251.759 89.83C251.529 90.13 251.414 90.49 251.414 90.91C251.414 91.22 251.484 91.5 251.624 91.75C251.764 92 251.949 92.215 252.179 92.395C252.419 92.575 252.679 92.71 252.959 92.8C253.249 92.89 253.539 92.935 253.829 92.935C254.229 92.935 254.609 92.85 254.969 92.68C255.339 92.51 255.639 92.27 255.869 91.96C256.109 91.65 256.229 91.295 256.229 90.895ZM251.759 86.185C251.759 86.535 251.864 86.835 252.074 87.085C252.284 87.335 252.549 87.525 252.869 87.655C253.189 87.775 253.504 87.835 253.814 87.835C254.134 87.835 254.449 87.77 254.759 87.64C255.079 87.51 255.344 87.32 255.554 87.07C255.764 86.82 255.869 86.515 255.869 86.155C255.869 85.815 255.769 85.525 255.569 85.285C255.379 85.045 255.124 84.86 254.804 84.73C254.494 84.6 254.159 84.535 253.799 84.535C253.449 84.535 253.114 84.605 252.794 84.745C252.484 84.875 252.234 85.065 252.044 85.315C251.854 85.555 251.759 85.845 251.759 86.185ZM258.953 86.95C258.953 86.26 259.118 85.64 259.448 85.09C259.788 84.53 260.248 84.09 260.828 83.77C261.408 83.44 262.053 83.275 262.763 83.275C263.533 83.275 264.203 83.46 264.773 83.83C265.353 84.19 265.803 84.71 266.123 85.39C266.453 86.07 266.618 86.89 266.618 87.85C266.618 89.25 266.453 90.42 266.123 91.36C265.793 92.29 265.328 92.99 264.728 93.46C264.128 93.92 263.428 94.15 262.628 94.15C261.938 94.15 261.308 93.985 260.738 93.655C260.178 93.315 259.738 92.845 259.418 92.245L260.228 91.45C260.448 91.91 260.773 92.28 261.203 92.56C261.643 92.84 262.123 92.98 262.643 92.98C263.193 92.98 263.668 92.82 264.068 92.5C264.478 92.17 264.798 91.695 265.028 91.075C265.258 90.455 265.373 89.705 265.373 88.825C265.233 89.165 265.023 89.465 264.743 89.725C264.473 89.985 264.158 90.185 263.798 90.325C263.438 90.465 263.048 90.535 262.628 90.535C261.948 90.535 261.328 90.375 260.768 90.055C260.208 89.735 259.763 89.305 259.433 88.765C259.113 88.215 258.953 87.61 258.953 86.95ZM262.748 84.4C262.288 84.4 261.868 84.515 261.488 84.745C261.108 84.975 260.803 85.285 260.573 85.675C260.343 86.055 260.228 86.475 260.228 86.935C260.228 87.395 260.343 87.815 260.573 88.195C260.803 88.575 261.108 88.88 261.488 89.11C261.878 89.34 262.303 89.455 262.763 89.455C263.223 89.455 263.643 89.34 264.023 89.11C264.413 88.88 264.723 88.575 264.953 88.195C265.183 87.815 265.298 87.4 265.298 86.95C265.298 86.49 265.178 86.07 264.938 85.69C264.708 85.3 264.398 84.99 264.008 84.76C263.628 84.52 263.208 84.4 262.748 84.4ZM268.5 95.215L268.8 93.88H268.35V92.32H269.595V93.88L269.145 95.215H268.5ZM278.789 90.985C278.789 91.615 278.614 92.165 278.264 92.635C277.924 93.105 277.464 93.47 276.884 93.73C276.314 93.99 275.689 94.12 275.009 94.12C274.299 94.12 273.664 93.98 273.104 93.7C272.544 93.41 272.099 93.025 271.769 92.545C271.449 92.065 271.289 91.525 271.289 90.925C271.289 90.485 271.389 90.09 271.589 89.74C271.789 89.39 272.039 89.095 272.339 88.855C272.649 88.605 272.964 88.42 273.284 88.3C272.994 88.17 272.724 88 272.474 87.79C272.224 87.58 272.024 87.335 271.874 87.055C271.724 86.775 271.649 86.47 271.649 86.14C271.649 85.69 271.749 85.295 271.949 84.955C272.149 84.605 272.414 84.31 272.744 84.07C273.074 83.83 273.439 83.65 273.839 83.53C274.239 83.41 274.639 83.35 275.039 83.35C275.439 83.35 275.839 83.41 276.239 83.53C276.639 83.65 277.004 83.83 277.334 84.07C277.674 84.3 277.944 84.59 278.144 84.94C278.344 85.28 278.444 85.675 278.444 86.125C278.444 86.455 278.369 86.765 278.219 87.055C278.069 87.335 277.864 87.58 277.604 87.79C277.354 88 277.079 88.17 276.779 88.3C277.139 88.44 277.469 88.64 277.769 88.9C278.079 89.15 278.324 89.45 278.504 89.8C278.694 90.15 278.789 90.545 278.789 90.985ZM277.454 90.895C277.454 90.575 277.384 90.29 277.244 90.04C277.104 89.78 276.914 89.565 276.674 89.395C276.434 89.215 276.169 89.08 275.879 88.99C275.599 88.9 275.314 88.855 275.024 88.855C274.624 88.855 274.239 88.94 273.869 89.11C273.509 89.28 273.214 89.52 272.984 89.83C272.754 90.13 272.639 90.49 272.639 90.91C272.639 91.22 272.709 91.5 272.849 91.75C272.989 92 273.174 92.215 273.404 92.395C273.644 92.575 273.904 92.71 274.184 92.8C274.474 92.89 274.764 92.935 275.054 92.935C275.454 92.935 275.834 92.85 276.194 92.68C276.564 92.51 276.864 92.27 277.094 91.96C277.334 91.65 277.454 91.295 277.454 90.895ZM272.984 86.185C272.984 86.535 273.089 86.835 273.299 87.085C273.509 87.335 273.774 87.525 274.094 87.655C274.414 87.775 274.729 87.835 275.039 87.835C275.359 87.835 275.674 87.77 275.984 87.64C276.304 87.51 276.569 87.32 276.779 87.07C276.989 86.82 277.094 86.515 277.094 86.155C277.094 85.815 276.994 85.525 276.794 85.285C276.604 85.045 276.349 84.86 276.029 84.73C275.719 84.6 275.384 84.535 275.024 84.535C274.674 84.535 274.339 84.605 274.019 84.745C273.709 84.875 273.459 85.065 273.269 85.315C273.079 85.555 272.984 85.845 272.984 86.185Z" fill="#2F2F2F"/>
</svg>
