<svg width="293" height="245" viewBox="0 0 293 245" fill="none" xmlns="http://www.w3.org/2000/svg">
<path d="M72 7L72 226" stroke="#F5F6F7"/>
<path d="M116 7L116 226" stroke="#F5F6F7"/>
<path d="M202 7L202 226" stroke="#F5F6F7"/>
<path d="M159 7L159 227" stroke="#F5F6F7"/>
<path d="M246 7L246 226" stroke="#F5F6F7"/>
<path d="M289 7L289 226" stroke="#F5F6F7"/>
<path d="M29 169H289" stroke="#F5F6F7"/>
<path d="M29 115L289 115" stroke="#F5F6F7"/>
<path d="M29 62L289 62" stroke="#F5F6F7"/>
<path d="M29 7L289 6.99997" stroke="#F5F6F7"/>
<path d="M29 226L289 226" stroke="#F5F6F7"/>
<path d="M29 7L29 226" stroke="#F5F6F7"/>
<path d="M29.7963 242V241.49L32.7063 238.64C32.9729 238.38 33.1729 238.153 33.3063 237.96C33.4396 237.76 33.5296 237.573 33.5763 237.4C33.6229 237.227 33.6463 237.063 33.6463 236.91C33.6463 236.503 33.5063 236.183 33.2263 235.95C32.9529 235.717 32.5463 235.6 32.0063 235.6C31.5929 235.6 31.2263 235.663 30.9063 235.79C30.5929 235.917 30.3229 236.113 30.0963 236.38L29.5863 235.94C29.8596 235.62 30.2096 235.373 30.6363 235.2C31.0629 235.027 31.5396 234.94 32.0663 234.94C32.5396 234.94 32.9496 235.017 33.2963 235.17C33.6429 235.317 33.9096 235.533 34.0963 235.82C34.2896 236.107 34.3863 236.443 34.3863 236.83C34.3863 237.057 34.3529 237.28 34.2863 237.5C34.2263 237.72 34.1129 237.953 33.9463 238.2C33.7863 238.44 33.5496 238.713 33.2363 239.02L30.5663 241.64L30.3663 241.36H34.7063V242H29.7963ZM38.3803 242.06C37.8403 242.06 37.3603 241.92 36.9403 241.64C36.5203 241.353 36.1903 240.947 35.9503 240.42C35.7103 239.887 35.5903 239.247 35.5903 238.5C35.5903 237.753 35.7103 237.117 35.9503 236.59C36.1903 236.057 36.5203 235.65 36.9403 235.37C37.3603 235.083 37.8403 234.94 38.3803 234.94C38.9203 234.94 39.4003 235.083 39.8203 235.37C40.2403 235.65 40.5703 236.057 40.8103 236.59C41.057 237.117 41.1803 237.753 41.1803 238.5C41.1803 239.247 41.057 239.887 40.8103 240.42C40.5703 240.947 40.2403 241.353 39.8203 241.64C39.4003 241.92 38.9203 242.06 38.3803 242.06ZM38.3803 241.4C38.7936 241.4 39.1536 241.29 39.4603 241.07C39.767 240.843 40.007 240.517 40.1803 240.09C40.3536 239.657 40.4403 239.127 40.4403 238.5C40.4403 237.873 40.3536 237.347 40.1803 236.92C40.007 236.487 39.767 236.16 39.4603 235.94C39.1536 235.713 38.7936 235.6 38.3803 235.6C37.9803 235.6 37.6236 235.713 37.3103 235.94C36.997 236.16 36.7536 236.487 36.5803 236.92C36.407 237.347 36.3203 237.873 36.3203 238.5C36.3203 239.127 36.407 239.657 36.5803 240.09C36.7536 240.517 36.997 240.843 37.3103 241.07C37.6236 241.29 37.9803 241.4 38.3803 241.4ZM43.4314 242V235.3L43.7514 235.64H41.7814V235H44.1514V242H43.4314ZM48.0347 242.06C47.5347 242.06 47.058 241.98 46.6047 241.82C46.1514 241.653 45.7914 241.433 45.5247 241.16L45.8747 240.59C46.0947 240.823 46.3947 241.017 46.7747 241.17C47.1614 241.323 47.578 241.4 48.0247 241.4C48.618 241.4 49.068 241.27 49.3747 241.01C49.688 240.743 49.8447 240.397 49.8447 239.97C49.8447 239.67 49.7714 239.413 49.6247 239.2C49.4847 238.98 49.2447 238.81 48.9047 238.69C48.5647 238.57 48.098 238.51 47.5047 238.51H46.0147L46.3747 235H50.2047V235.64H46.6647L47.0347 235.29L46.7247 238.23L46.3547 237.87H47.6647C48.3714 237.87 48.938 237.957 49.3647 238.13C49.7914 238.303 50.098 238.547 50.2847 238.86C50.478 239.167 50.5747 239.527 50.5747 239.94C50.5747 240.333 50.4814 240.693 50.2947 241.02C50.108 241.34 49.828 241.593 49.4547 241.78C49.0814 241.967 48.608 242.06 48.0347 242.06Z" fill="#858C95"/>
<path d="M190.796 242V241.49L193.706 238.64C193.973 238.38 194.173 238.153 194.306 237.96C194.44 237.76 194.53 237.573 194.576 237.4C194.623 237.227 194.646 237.063 194.646 236.91C194.646 236.503 194.506 236.183 194.226 235.95C193.953 235.717 193.546 235.6 193.006 235.6C192.593 235.6 192.226 235.663 191.906 235.79C191.593 235.917 191.323 236.113 191.096 236.38L190.586 235.94C190.86 235.62 191.21 235.373 191.636 235.2C192.063 235.027 192.54 234.94 193.066 234.94C193.54 234.94 193.95 235.017 194.296 235.17C194.643 235.317 194.91 235.533 195.096 235.82C195.29 236.107 195.386 236.443 195.386 236.83C195.386 237.057 195.353 237.28 195.286 237.5C195.226 237.72 195.113 237.953 194.946 238.2C194.786 238.44 194.55 238.713 194.236 239.02L191.566 241.64L191.366 241.36H195.706V242H190.796ZM199.38 242.06C198.84 242.06 198.36 241.92 197.94 241.64C197.52 241.353 197.19 240.947 196.95 240.42C196.71 239.887 196.59 239.247 196.59 238.5C196.59 237.753 196.71 237.117 196.95 236.59C197.19 236.057 197.52 235.65 197.94 235.37C198.36 235.083 198.84 234.94 199.38 234.94C199.92 234.94 200.4 235.083 200.82 235.37C201.24 235.65 201.57 236.057 201.81 236.59C202.057 237.117 202.18 237.753 202.18 238.5C202.18 239.247 202.057 239.887 201.81 240.42C201.57 240.947 201.24 241.353 200.82 241.64C200.4 241.92 199.92 242.06 199.38 242.06ZM199.38 241.4C199.794 241.4 200.154 241.29 200.46 241.07C200.767 240.843 201.007 240.517 201.18 240.09C201.354 239.657 201.44 239.127 201.44 238.5C201.44 237.873 201.354 237.347 201.18 236.92C201.007 236.487 200.767 236.16 200.46 235.94C200.154 235.713 199.794 235.6 199.38 235.6C198.98 235.6 198.624 235.713 198.31 235.94C197.997 236.16 197.754 236.487 197.58 236.92C197.407 237.347 197.32 237.873 197.32 238.5C197.32 239.127 197.407 239.657 197.58 240.09C197.754 240.517 197.997 240.843 198.31 241.07C198.624 241.29 198.98 241.4 199.38 241.4ZM203.081 242V241.49L205.991 238.64C206.258 238.38 206.458 238.153 206.591 237.96C206.725 237.76 206.815 237.573 206.861 237.4C206.908 237.227 206.931 237.063 206.931 236.91C206.931 236.503 206.791 236.183 206.511 235.95C206.238 235.717 205.831 235.6 205.291 235.6C204.878 235.6 204.511 235.663 204.191 235.79C203.878 235.917 203.608 236.113 203.381 236.38L202.871 235.94C203.145 235.62 203.495 235.373 203.921 235.2C204.348 235.027 204.825 234.94 205.351 234.94C205.825 234.94 206.235 235.017 206.581 235.17C206.928 235.317 207.195 235.533 207.381 235.82C207.575 236.107 207.671 236.443 207.671 236.83C207.671 237.057 207.638 237.28 207.571 237.5C207.511 237.72 207.398 237.953 207.231 238.2C207.071 238.44 206.835 238.713 206.521 239.02L203.851 241.64L203.651 241.36H207.991V242H203.081ZM211.105 242.06C210.605 242.06 210.128 241.98 209.675 241.82C209.222 241.653 208.862 241.433 208.595 241.16L208.945 240.59C209.165 240.823 209.465 241.017 209.845 241.17C210.232 241.323 210.648 241.4 211.095 241.4C211.688 241.4 212.138 241.27 212.445 241.01C212.758 240.743 212.915 240.397 212.915 239.97C212.915 239.67 212.842 239.413 212.695 239.2C212.555 238.98 212.315 238.81 211.975 238.69C211.635 238.57 211.168 238.51 210.575 238.51H209.085L209.445 235H213.275V235.64H209.735L210.105 235.29L209.795 238.23L209.425 237.87H210.735C211.442 237.87 212.008 237.957 212.435 238.13C212.862 238.303 213.168 238.547 213.355 238.86C213.548 239.167 213.645 239.527 213.645 239.94C213.645 240.333 213.552 240.693 213.365 241.02C213.178 241.34 212.898 241.593 212.525 241.78C212.152 241.967 211.678 242.06 211.105 242.06Z" fill="#858C95"/>
<path d="M103.796 242V241.49L106.706 238.64C106.973 238.38 107.173 238.153 107.306 237.96C107.44 237.76 107.53 237.573 107.576 237.4C107.623 237.227 107.646 237.063 107.646 236.91C107.646 236.503 107.506 236.183 107.226 235.95C106.953 235.717 106.546 235.6 106.006 235.6C105.593 235.6 105.226 235.663 104.906 235.79C104.593 235.917 104.323 236.113 104.096 236.38L103.586 235.94C103.86 235.62 104.21 235.373 104.636 235.2C105.063 235.027 105.54 234.94 106.066 234.94C106.54 234.94 106.95 235.017 107.296 235.17C107.643 235.317 107.91 235.533 108.096 235.82C108.29 236.107 108.386 236.443 108.386 236.83C108.386 237.057 108.353 237.28 108.286 237.5C108.226 237.72 108.113 237.953 107.946 238.2C107.786 238.44 107.55 238.713 107.236 239.02L104.566 241.64L104.366 241.36H108.706V242H103.796ZM112.38 242.06C111.84 242.06 111.36 241.92 110.94 241.64C110.52 241.353 110.19 240.947 109.95 240.42C109.71 239.887 109.59 239.247 109.59 238.5C109.59 237.753 109.71 237.117 109.95 236.59C110.19 236.057 110.52 235.65 110.94 235.37C111.36 235.083 111.84 234.94 112.38 234.94C112.92 234.94 113.4 235.083 113.82 235.37C114.24 235.65 114.57 236.057 114.81 236.59C115.057 237.117 115.18 237.753 115.18 238.5C115.18 239.247 115.057 239.887 114.81 240.42C114.57 240.947 114.24 241.353 113.82 241.64C113.4 241.92 112.92 242.06 112.38 242.06ZM112.38 241.4C112.794 241.4 113.154 241.29 113.46 241.07C113.767 240.843 114.007 240.517 114.18 240.09C114.354 239.657 114.44 239.127 114.44 238.5C114.44 237.873 114.354 237.347 114.18 236.92C114.007 236.487 113.767 236.16 113.46 235.94C113.154 235.713 112.794 235.6 112.38 235.6C111.98 235.6 111.624 235.713 111.31 235.94C110.997 236.16 110.754 236.487 110.58 236.92C110.407 237.347 110.32 237.873 110.32 238.5C110.32 239.127 110.407 239.657 110.58 240.09C110.754 240.517 110.997 240.843 111.31 241.07C111.624 241.29 111.98 241.4 112.38 241.4ZM117.431 242V235.3L117.751 235.64H115.781V235H118.151V242H117.431ZM122.485 242.06C121.925 242.06 121.441 241.98 121.035 241.82C120.635 241.66 120.325 241.43 120.105 241.13C119.891 240.823 119.785 240.463 119.785 240.05C119.785 239.65 119.888 239.31 120.095 239.03C120.308 238.743 120.615 238.523 121.015 238.37C121.421 238.217 121.911 238.14 122.485 238.14C123.051 238.14 123.538 238.217 123.945 238.37C124.351 238.523 124.661 238.743 124.875 239.03C125.095 239.31 125.205 239.65 125.205 240.05C125.205 240.463 125.095 240.823 124.875 241.13C124.655 241.43 124.341 241.66 123.935 241.82C123.528 241.98 123.045 242.06 122.485 242.06ZM122.485 241.45C123.105 241.45 123.588 241.323 123.935 241.07C124.288 240.817 124.465 240.473 124.465 240.04C124.465 239.607 124.288 239.267 123.935 239.02C123.588 238.767 123.105 238.64 122.485 238.64C121.865 238.64 121.381 238.767 121.035 239.02C120.688 239.267 120.515 239.607 120.515 240.04C120.515 240.473 120.688 240.817 121.035 241.07C121.381 241.323 121.865 241.45 122.485 241.45ZM122.485 238.55C121.965 238.55 121.521 238.48 121.155 238.34C120.795 238.2 120.518 238 120.325 237.74C120.131 237.473 120.035 237.157 120.035 236.79C120.035 236.403 120.135 236.073 120.335 235.8C120.541 235.52 120.828 235.307 121.195 235.16C121.561 235.013 121.991 234.94 122.485 234.94C122.978 234.94 123.408 235.013 123.775 235.16C124.148 235.307 124.438 235.52 124.645 235.8C124.851 236.073 124.955 236.403 124.955 236.79C124.955 237.157 124.858 237.473 124.665 237.74C124.471 238 124.188 238.2 123.815 238.34C123.448 238.48 123.005 238.55 122.485 238.55ZM122.485 238.07C123.031 238.07 123.458 237.957 123.765 237.73C124.071 237.503 124.225 237.2 124.225 236.82C124.225 236.42 124.065 236.11 123.745 235.89C123.431 235.663 123.011 235.55 122.485 235.55C121.958 235.55 121.538 235.663 121.225 235.89C120.911 236.11 120.755 236.417 120.755 236.81C120.755 237.197 120.905 237.503 121.205 237.73C121.511 237.957 121.938 238.07 122.485 238.07Z" fill="#858C95"/>
<path d="M265.796 242V241.49L268.706 238.64C268.973 238.38 269.173 238.153 269.306 237.96C269.44 237.76 269.53 237.573 269.576 237.4C269.623 237.227 269.646 237.063 269.646 236.91C269.646 236.503 269.506 236.183 269.226 235.95C268.953 235.717 268.546 235.6 268.006 235.6C267.593 235.6 267.226 235.663 266.906 235.79C266.593 235.917 266.323 236.113 266.096 236.38L265.586 235.94C265.86 235.62 266.21 235.373 266.636 235.2C267.063 235.027 267.54 234.94 268.066 234.94C268.54 234.94 268.95 235.017 269.296 235.17C269.643 235.317 269.91 235.533 270.096 235.82C270.29 236.107 270.386 236.443 270.386 236.83C270.386 237.057 270.353 237.28 270.286 237.5C270.226 237.72 270.113 237.953 269.946 238.2C269.786 238.44 269.55 238.713 269.236 239.02L266.566 241.64L266.366 241.36H270.706V242H265.796ZM274.38 242.06C273.84 242.06 273.36 241.92 272.94 241.64C272.52 241.353 272.19 240.947 271.95 240.42C271.71 239.887 271.59 239.247 271.59 238.5C271.59 237.753 271.71 237.117 271.95 236.59C272.19 236.057 272.52 235.65 272.94 235.37C273.36 235.083 273.84 234.94 274.38 234.94C274.92 234.94 275.4 235.083 275.82 235.37C276.24 235.65 276.57 236.057 276.81 236.59C277.057 237.117 277.18 237.753 277.18 238.5C277.18 239.247 277.057 239.887 276.81 240.42C276.57 240.947 276.24 241.353 275.82 241.64C275.4 241.92 274.92 242.06 274.38 242.06ZM274.38 241.4C274.794 241.4 275.154 241.29 275.46 241.07C275.767 240.843 276.007 240.517 276.18 240.09C276.354 239.657 276.44 239.127 276.44 238.5C276.44 237.873 276.354 237.347 276.18 236.92C276.007 236.487 275.767 236.16 275.46 235.94C275.154 235.713 274.794 235.6 274.38 235.6C273.98 235.6 273.624 235.713 273.31 235.94C272.997 236.16 272.754 236.487 272.58 236.92C272.407 237.347 272.32 237.873 272.32 238.5C272.32 239.127 272.407 239.657 272.58 240.09C272.754 240.517 272.997 240.843 273.31 241.07C273.624 241.29 273.98 241.4 274.38 241.4ZM280.204 242.06C279.697 242.06 279.217 241.98 278.764 241.82C278.317 241.653 277.957 241.433 277.684 241.16L278.034 240.59C278.26 240.823 278.564 241.017 278.944 241.17C279.33 241.323 279.75 241.4 280.204 241.4C280.784 241.4 281.227 241.273 281.534 241.02C281.847 240.767 282.004 240.427 282.004 240C282.004 239.573 281.85 239.233 281.544 238.98C281.244 238.727 280.767 238.6 280.114 238.6H279.614V238.07L281.774 235.36L281.874 235.64H277.974V235H282.474V235.51L280.314 238.22L279.964 237.99H280.234C281.074 237.99 281.7 238.177 282.114 238.55C282.534 238.923 282.744 239.403 282.744 239.99C282.744 240.383 282.65 240.737 282.464 241.05C282.277 241.363 281.994 241.61 281.614 241.79C281.24 241.97 280.77 242.06 280.204 242.06ZM286.548 242.06C286.008 242.06 285.528 241.92 285.108 241.64C284.688 241.353 284.358 240.947 284.118 240.42C283.878 239.887 283.758 239.247 283.758 238.5C283.758 237.753 283.878 237.117 284.118 236.59C284.358 236.057 284.688 235.65 285.108 235.37C285.528 235.083 286.008 234.94 286.548 234.94C287.088 234.94 287.568 235.083 287.988 235.37C288.408 235.65 288.738 236.057 288.978 236.59C289.225 237.117 289.348 237.753 289.348 238.5C289.348 239.247 289.225 239.887 288.978 240.42C288.738 240.947 288.408 241.353 287.988 241.64C287.568 241.92 287.088 242.06 286.548 242.06ZM286.548 241.4C286.962 241.4 287.322 241.29 287.628 241.07C287.935 240.843 288.175 240.517 288.348 240.09C288.522 239.657 288.608 239.127 288.608 238.5C288.608 237.873 288.522 237.347 288.348 236.92C288.175 236.487 287.935 236.16 287.628 235.94C287.322 235.713 286.962 235.6 286.548 235.6C286.148 235.6 285.792 235.713 285.478 235.94C285.165 236.16 284.922 236.487 284.748 236.92C284.575 237.347 284.488 237.873 284.488 238.5C284.488 239.127 284.575 239.657 284.748 240.09C284.922 240.517 285.165 240.843 285.478 241.07C285.792 241.29 286.148 241.4 286.548 241.4Z" fill="#858C95"/>
<path d="M20.31 226.06C18.69 226.06 17.52 224.73 17.52 222.5C17.52 220.27 18.69 218.94 20.31 218.94C21.93 218.94 23.11 220.27 23.11 222.5C23.11 224.73 21.93 226.06 20.31 226.06ZM20.31 225.4C21.53 225.4 22.37 224.37 22.37 222.5C22.37 220.63 21.53 219.6 20.31 219.6C19.09 219.6 18.25 220.63 18.25 222.5C18.25 224.37 19.09 225.4 20.31 225.4Z" fill="#858C95"/>
<path d="M7.36 167.87C9.47 167.87 10.27 168.7 10.27 169.94C10.27 171.13 9.44 172.06 7.73 172.06C6.72 172.06 5.76 171.71 5.22 171.16L5.57 170.59C6.02 171.06 6.82 171.4 7.72 171.4C8.91 171.4 9.54 170.82 9.54 169.97C9.54 169.07 8.98 168.51 7.2 168.51H5.71L6.07 165H9.9V165.64H6.7L6.46 167.87H7.36ZM13.9741 172.06C12.3541 172.06 11.1841 170.73 11.1841 168.5C11.1841 166.27 12.3541 164.94 13.9741 164.94C15.5941 164.94 16.7741 166.27 16.7741 168.5C16.7741 170.73 15.5941 172.06 13.9741 172.06ZM13.9741 171.4C15.1941 171.4 16.0341 170.37 16.0341 168.5C16.0341 166.63 15.1941 165.6 13.9741 165.6C12.7541 165.6 11.9141 166.63 11.9141 168.5C11.9141 170.37 12.7541 171.4 13.9741 171.4ZM20.5952 172.06C18.9752 172.06 17.8052 170.73 17.8052 168.5C17.8052 166.27 18.9752 164.94 20.5952 164.94C22.2152 164.94 23.3952 166.27 23.3952 168.5C23.3952 170.73 22.2152 172.06 20.5952 172.06ZM20.5952 171.4C21.8152 171.4 22.6552 170.37 22.6552 168.5C22.6552 166.63 21.8152 165.6 20.5952 165.6C19.3752 165.6 18.5352 166.63 18.5352 168.5C18.5352 170.37 19.3752 171.4 20.5952 171.4Z" fill="#858C95"/>
<path d="M1.09 3H3.46V10H2.74V3.64H1.09V3ZM6.97328 5.87C9.08328 5.87 9.88328 6.7 9.88328 7.94C9.88328 9.13 9.05328 10.06 7.34328 10.06C6.33328 10.06 5.37328 9.71 4.83328 9.16L5.18328 8.59C5.63328 9.06 6.43328 9.4 7.33328 9.4C8.52328 9.4 9.15328 8.82 9.15328 7.97C9.15328 7.07 8.59328 6.51 6.81328 6.51H5.32328L5.68328 3H9.51328V3.64H6.31328L6.07328 5.87H6.97328ZM13.5873 10.06C11.9673 10.06 10.7973 8.73 10.7973 6.5C10.7973 4.27 11.9673 2.94 13.5873 2.94C15.2073 2.94 16.3873 4.27 16.3873 6.5C16.3873 8.73 15.2073 10.06 13.5873 10.06ZM13.5873 9.4C14.8073 9.4 15.6473 8.37 15.6473 6.5C15.6473 4.63 14.8073 3.6 13.5873 3.6C12.3673 3.6 11.5273 4.63 11.5273 6.5C11.5273 8.37 12.3673 9.4 13.5873 9.4ZM20.2084 10.06C18.5884 10.06 17.4184 8.73 17.4184 6.5C17.4184 4.27 18.5884 2.94 20.2084 2.94C21.8284 2.94 23.0084 4.27 23.0084 6.5C23.0084 8.73 21.8284 10.06 20.2084 10.06ZM20.2084 9.4C21.4284 9.4 22.2684 8.37 22.2684 6.5C22.2684 4.63 21.4284 3.6 20.2084 3.6C18.9884 3.6 18.1484 4.63 18.1484 6.5C18.1484 8.37 18.9884 9.4 20.2084 9.4Z" fill="#858C95"/>
<path d="M0.09 111H2.46V118H1.74V111.64H0.09V111ZM6.92328 118.06C5.30328 118.06 4.13328 116.73 4.13328 114.5C4.13328 112.27 5.30328 110.94 6.92328 110.94C8.54328 110.94 9.72328 112.27 9.72328 114.5C9.72328 116.73 8.54328 118.06 6.92328 118.06ZM6.92328 117.4C8.14328 117.4 8.98328 116.37 8.98328 114.5C8.98328 112.63 8.14328 111.6 6.92328 111.6C5.70328 111.6 4.86328 112.63 4.86328 114.5C4.86328 116.37 5.70328 117.4 6.92328 117.4ZM13.5444 118.06C11.9244 118.06 10.7544 116.73 10.7544 114.5C10.7544 112.27 11.9244 110.94 13.5444 110.94C15.1644 110.94 16.3444 112.27 16.3444 114.5C16.3444 116.73 15.1644 118.06 13.5444 118.06ZM13.5444 117.4C14.7644 117.4 15.6044 116.37 15.6044 114.5C15.6044 112.63 14.7644 111.6 13.5444 111.6C12.3244 111.6 11.4844 112.63 11.4844 114.5C11.4844 116.37 12.3244 117.4 13.5444 117.4ZM20.1655 118.06C18.5455 118.06 17.3755 116.73 17.3755 114.5C17.3755 112.27 18.5455 110.94 20.1655 110.94C21.7855 110.94 22.9655 112.27 22.9655 114.5C22.9655 116.73 21.7855 118.06 20.1655 118.06ZM20.1655 117.4C21.3855 117.4 22.2255 116.37 22.2255 114.5C22.2255 112.63 21.3855 111.6 20.1655 111.6C18.9455 111.6 18.1055 112.63 18.1055 114.5C18.1055 116.37 18.9455 117.4 20.1655 117.4Z" fill="#858C95"/>
<path d="M289 15C289 15 242.403 70.7332 202 97.5C170.745 118.206 153 124.5 114.5 143C76 161.5 69 165.5 30 180" stroke="#2D6FD0" stroke-width="2"/>
<path d="M29.4069 183.64C28.4372 183.64 27.5072 183.255 26.8214 182.569C26.1356 181.884 25.7502 180.954 25.75 179.984C25.7498 179.014 26.1347 178.084 26.8201 177.398C27.5056 176.712 28.4354 176.327 29.4051 176.326C30.3748 176.326 31.305 176.71 31.9912 177.396C32.6773 178.081 33.0631 179.011 33.0639 179.98C33.0646 180.95 32.6801 181.88 31.995 182.567C31.3099 183.253 30.3803 183.639 29.4106 183.64H29.4069Z" fill="#2D6FD0"/>
<path d="M202.36 101.413C201.39 101.413 200.46 101.028 199.775 100.343C199.089 99.6571 198.703 98.7272 198.703 97.7575C198.703 96.7877 199.088 95.8576 199.773 95.1717C200.459 94.4857 201.389 94.1001 202.358 94.0996C203.328 94.0991 204.258 94.4838 204.944 95.1691C205.63 95.8543 206.016 96.7841 206.017 97.7538C206.018 98.7235 205.633 99.6538 204.948 100.34C204.263 101.026 203.333 101.413 202.364 101.413H202.36Z" fill="#2D6FD0"/>
<path d="M116.383 146.206C115.414 146.206 114.484 145.821 113.798 145.136C113.112 144.45 112.727 143.52 112.727 142.55C112.726 141.581 113.111 140.651 113.797 139.965C114.482 139.279 115.412 138.893 116.382 138.893C117.351 138.892 118.282 139.277 118.968 139.962C119.654 140.647 120.04 141.577 120.04 142.547C120.041 143.516 119.657 144.447 118.972 145.133C118.287 145.819 117.357 146.205 116.387 146.206H116.383Z" fill="#2D6FD0"/>
<path d="M289.344 18.142C288.375 18.142 287.445 17.7568 286.759 17.0712C286.073 16.3856 285.688 15.4557 285.688 14.486C285.687 13.5163 286.072 12.5861 286.758 11.9002C287.443 11.2142 288.373 10.8286 289.343 10.8281C290.312 10.8276 291.243 11.2123 291.929 11.8976C292.615 12.5829 293.001 13.5126 293.001 14.4823C293.002 15.452 292.618 16.3823 291.933 17.0686C291.247 17.7549 290.318 18.141 289.348 18.142L289.344 18.142Z" fill="#2D6FD0"/>
<path d="M36.4838 162V159.285H31.4738V158.1L36.8888 151.35H37.8038V158.085H39.1238V159.285H37.8038V162H36.4838ZM32.8538 158.085H36.6188V153.375L32.8538 158.085ZM40.4161 162C40.4161 161.4 40.4661 160.87 40.5661 160.41C40.6761 159.94 40.8311 159.52 41.0311 159.15C41.2411 158.78 41.4911 158.455 41.7811 158.175C42.0711 157.895 42.4011 157.645 42.7711 157.425C43.1611 157.195 43.5611 156.985 43.9711 156.795C44.3811 156.605 44.7611 156.405 45.1111 156.195C45.4611 155.985 45.7411 155.735 45.9511 155.445C46.1711 155.145 46.2811 154.775 46.2811 154.335C46.2811 153.985 46.2061 153.67 46.0561 153.39C45.9061 153.1 45.6811 152.87 45.3811 152.7C45.0811 152.53 44.6961 152.445 44.2261 152.445C43.7561 152.445 43.3311 152.525 42.9511 152.685C42.5811 152.845 42.2611 153.035 41.9911 153.255C41.7211 153.475 41.5061 153.685 41.3461 153.885L40.4911 153.03C40.5711 152.93 40.7111 152.78 40.9111 152.58C41.1211 152.38 41.3861 152.175 41.7061 151.965C42.0361 151.755 42.4211 151.58 42.8611 151.44C43.3011 151.29 43.8011 151.215 44.3611 151.215C45.1111 151.215 45.7361 151.355 46.2361 151.635C46.7361 151.915 47.1111 152.29 47.3611 152.76C47.6211 153.23 47.7511 153.75 47.7511 154.32C47.7511 154.83 47.6561 155.27 47.4661 155.64C47.2761 156 47.0311 156.305 46.7311 156.555C46.4311 156.805 46.1011 157.025 45.7411 157.215C45.3911 157.405 45.0511 157.585 44.7211 157.755C44.0911 158.055 43.5911 158.33 43.2211 158.58C42.8511 158.83 42.5661 159.075 42.3661 159.315C42.1761 159.545 42.0461 159.78 41.9761 160.02C41.9161 160.26 41.8811 160.52 41.8711 160.8H47.7661V162H40.4161ZM49.2337 154.95C49.2337 154.26 49.3987 153.64 49.7287 153.09C50.0687 152.53 50.5287 152.09 51.1087 151.77C51.6887 151.44 52.3337 151.275 53.0437 151.275C53.8137 151.275 54.4837 151.46 55.0537 151.83C55.6337 152.19 56.0837 152.71 56.4037 153.39C56.7337 154.07 56.8987 154.89 56.8987 155.85C56.8987 157.25 56.7337 158.42 56.4037 159.36C56.0737 160.29 55.6087 160.99 55.0087 161.46C54.4087 161.92 53.7087 162.15 52.9087 162.15C52.2187 162.15 51.5887 161.985 51.0187 161.655C50.4587 161.315 50.0187 160.845 49.6987 160.245L50.5087 159.45C50.7287 159.91 51.0537 160.28 51.4837 160.56C51.9237 160.84 52.4037 160.98 52.9237 160.98C53.4737 160.98 53.9487 160.82 54.3487 160.5C54.7587 160.17 55.0787 159.695 55.3087 159.075C55.5387 158.455 55.6537 157.705 55.6537 156.825C55.5137 157.165 55.3037 157.465 55.0237 157.725C54.7537 157.985 54.4387 158.185 54.0787 158.325C53.7187 158.465 53.3287 158.535 52.9087 158.535C52.2287 158.535 51.6087 158.375 51.0487 158.055C50.4887 157.735 50.0437 157.305 49.7137 156.765C49.3937 156.215 49.2337 155.61 49.2337 154.95ZM53.0287 152.4C52.5687 152.4 52.1487 152.515 51.7687 152.745C51.3887 152.975 51.0837 153.285 50.8537 153.675C50.6237 154.055 50.5087 154.475 50.5087 154.935C50.5087 155.395 50.6237 155.815 50.8537 156.195C51.0837 156.575 51.3887 156.88 51.7687 157.11C52.1587 157.34 52.5837 157.455 53.0437 157.455C53.5037 157.455 53.9237 157.34 54.3037 157.11C54.6937 156.88 55.0037 156.575 55.2337 156.195C55.4637 155.815 55.5787 155.4 55.5787 154.95C55.5787 154.49 55.4587 154.07 55.2187 153.69C54.9887 153.3 54.6787 152.99 54.2887 152.76C53.9087 152.52 53.4887 152.4 53.0287 152.4ZM58.7804 163.215L59.0804 161.88H58.6304V160.32H59.8754V161.88L59.4254 163.215H58.7804ZM61.4945 154.95C61.4945 154.26 61.6595 153.64 61.9895 153.09C62.3295 152.53 62.7895 152.09 63.3695 151.77C63.9495 151.44 64.5945 151.275 65.3045 151.275C66.0745 151.275 66.7445 151.46 67.3145 151.83C67.8945 152.19 68.3445 152.71 68.6645 153.39C68.9945 154.07 69.1595 154.89 69.1595 155.85C69.1595 157.25 68.9945 158.42 68.6645 159.36C68.3345 160.29 67.8695 160.99 67.2695 161.46C66.6695 161.92 65.9695 162.15 65.1695 162.15C64.4795 162.15 63.8495 161.985 63.2795 161.655C62.7195 161.315 62.2795 160.845 61.9595 160.245L62.7695 159.45C62.9895 159.91 63.3145 160.28 63.7445 160.56C64.1845 160.84 64.6645 160.98 65.1845 160.98C65.7345 160.98 66.2095 160.82 66.6095 160.5C67.0195 160.17 67.3395 159.695 67.5695 159.075C67.7995 158.455 67.9145 157.705 67.9145 156.825C67.7745 157.165 67.5645 157.465 67.2845 157.725C67.0145 157.985 66.6995 158.185 66.3395 158.325C65.9795 158.465 65.5895 158.535 65.1695 158.535C64.4895 158.535 63.8695 158.375 63.3095 158.055C62.7495 157.735 62.3045 157.305 61.9745 156.765C61.6545 156.215 61.4945 155.61 61.4945 154.95ZM65.2895 152.4C64.8295 152.4 64.4095 152.515 64.0295 152.745C63.6495 152.975 63.3445 153.285 63.1145 153.675C62.8845 154.055 62.7695 154.475 62.7695 154.935C62.7695 155.395 62.8845 155.815 63.1145 156.195C63.3445 156.575 63.6495 156.88 64.0295 157.11C64.4195 157.34 64.8445 157.455 65.3045 157.455C65.7645 157.455 66.1845 157.34 66.5645 157.11C66.9545 156.88 67.2645 156.575 67.4945 156.195C67.7245 155.815 67.8395 155.4 67.8395 154.95C67.8395 154.49 67.7195 154.07 67.4795 153.69C67.2495 153.3 66.9395 152.99 66.5495 152.76C66.1695 152.52 65.7495 152.4 65.2895 152.4Z" fill="#2F2F2F"/>
<path d="M235.723 25.8V27H230.427V25.8H232.468V17.625C232.388 17.745 232.258 17.88 232.078 18.03C231.898 18.17 231.688 18.31 231.448 18.45C231.218 18.58 230.983 18.69 230.743 18.78C230.503 18.87 230.283 18.915 230.083 18.915V17.685C230.353 17.685 230.623 17.615 230.893 17.475C231.173 17.335 231.428 17.17 231.658 16.98C231.898 16.79 232.088 16.62 232.228 16.47C232.378 16.32 232.458 16.24 232.468 16.23H233.818V25.8H235.723ZM241.474 27V24.285H236.464V23.1L241.879 16.35H242.794V23.085H244.114V24.285H242.794V27H241.474ZM237.844 23.085H241.609V18.375L237.844 23.085ZM245.376 19.95C245.376 19.26 245.541 18.64 245.871 18.09C246.211 17.53 246.671 17.09 247.251 16.77C247.831 16.44 248.476 16.275 249.186 16.275C249.956 16.275 250.626 16.46 251.196 16.83C251.776 17.19 252.226 17.71 252.546 18.39C252.876 19.07 253.041 19.89 253.041 20.85C253.041 22.25 252.876 23.42 252.546 24.36C252.216 25.29 251.751 25.99 251.151 26.46C250.551 26.92 249.851 27.15 249.051 27.15C248.361 27.15 247.731 26.985 247.161 26.655C246.601 26.315 246.161 25.845 245.841 25.245L246.651 24.45C246.871 24.91 247.196 25.28 247.626 25.56C248.066 25.84 248.546 25.98 249.066 25.98C249.616 25.98 250.091 25.82 250.491 25.5C250.901 25.17 251.221 24.695 251.451 24.075C251.681 23.455 251.796 22.705 251.796 21.825C251.656 22.165 251.446 22.465 251.166 22.725C250.896 22.985 250.581 23.185 250.221 23.325C249.861 23.465 249.471 23.535 249.051 23.535C248.371 23.535 247.751 23.375 247.191 23.055C246.631 22.735 246.186 22.305 245.856 21.765C245.536 21.215 245.376 20.61 245.376 19.95ZM249.171 17.4C248.711 17.4 248.291 17.515 247.911 17.745C247.531 17.975 247.226 18.285 246.996 18.675C246.766 19.055 246.651 19.475 246.651 19.935C246.651 20.395 246.766 20.815 246.996 21.195C247.226 21.575 247.531 21.88 247.911 22.11C248.301 22.34 248.726 22.455 249.186 22.455C249.646 22.455 250.066 22.34 250.446 22.11C250.836 21.88 251.146 21.575 251.376 21.195C251.606 20.815 251.721 20.4 251.721 19.95C251.721 19.49 251.601 19.07 251.361 18.69C251.131 18.3 250.821 17.99 250.431 17.76C250.051 17.52 249.631 17.4 249.171 17.4ZM262.048 23.985C262.048 24.615 261.873 25.165 261.522 25.635C261.183 26.105 260.723 26.47 260.143 26.73C259.573 26.99 258.948 27.12 258.268 27.12C257.558 27.12 256.923 26.98 256.363 26.7C255.803 26.41 255.358 26.025 255.028 25.545C254.708 25.065 254.548 24.525 254.548 23.925C254.548 23.485 254.648 23.09 254.848 22.74C255.048 22.39 255.298 22.095 255.598 21.855C255.908 21.605 256.223 21.42 256.543 21.3C256.253 21.17 255.983 21 255.733 20.79C255.483 20.58 255.283 20.335 255.133 20.055C254.983 19.775 254.908 19.47 254.908 19.14C254.908 18.69 255.008 18.295 255.208 17.955C255.408 17.605 255.673 17.31 256.003 17.07C256.333 16.83 256.698 16.65 257.098 16.53C257.498 16.41 257.898 16.35 258.298 16.35C258.698 16.35 259.098 16.41 259.498 16.53C259.898 16.65 260.263 16.83 260.593 17.07C260.933 17.3 261.203 17.59 261.403 17.94C261.603 18.28 261.703 18.675 261.703 19.125C261.703 19.455 261.628 19.765 261.478 20.055C261.328 20.335 261.123 20.58 260.863 20.79C260.613 21 260.338 21.17 260.038 21.3C260.398 21.44 260.728 21.64 261.028 21.9C261.338 22.15 261.583 22.45 261.763 22.8C261.953 23.15 262.048 23.545 262.048 23.985ZM260.713 23.895C260.713 23.575 260.643 23.29 260.503 23.04C260.363 22.78 260.173 22.565 259.933 22.395C259.693 22.215 259.428 22.08 259.138 21.99C258.858 21.9 258.573 21.855 258.283 21.855C257.883 21.855 257.498 21.94 257.128 22.11C256.768 22.28 256.473 22.52 256.243 22.83C256.013 23.13 255.898 23.49 255.898 23.91C255.898 24.22 255.968 24.5 256.108 24.75C256.248 25 256.433 25.215 256.663 25.395C256.903 25.575 257.163 25.71 257.443 25.8C257.733 25.89 258.023 25.935 258.313 25.935C258.713 25.935 259.093 25.85 259.453 25.68C259.823 25.51 260.123 25.27 260.353 24.96C260.593 24.65 260.713 24.295 260.713 23.895ZM256.243 19.185C256.243 19.535 256.348 19.835 256.558 20.085C256.768 20.335 257.033 20.525 257.353 20.655C257.673 20.775 257.988 20.835 258.298 20.835C258.618 20.835 258.933 20.77 259.243 20.64C259.563 20.51 259.828 20.32 260.038 20.07C260.248 19.82 260.353 19.515 260.353 19.155C260.353 18.815 260.253 18.525 260.053 18.285C259.863 18.045 259.608 17.86 259.288 17.73C258.978 17.6 258.643 17.535 258.283 17.535C257.933 17.535 257.598 17.605 257.278 17.745C256.968 17.875 256.718 18.065 256.528 18.315C256.338 18.555 256.243 18.845 256.243 19.185ZM263.887 28.215L264.187 26.88H263.737V25.32H264.982V26.88L264.532 28.215H263.887ZM272.226 25.8V27H266.931V25.8H268.971V17.625C268.891 17.745 268.761 17.88 268.581 18.03C268.401 18.17 268.191 18.31 267.951 18.45C267.721 18.58 267.486 18.69 267.246 18.78C267.006 18.87 266.786 18.915 266.586 18.915V17.685C266.856 17.685 267.126 17.615 267.396 17.475C267.676 17.335 267.931 17.17 268.161 16.98C268.401 16.79 268.591 16.62 268.731 16.47C268.881 16.32 268.961 16.24 268.971 16.23H270.321V25.8H272.226Z" fill="#2F2F2F"/>
</svg>
