<svg width="612" height="300" viewBox="0 0 612 300" fill="none" xmlns="http://www.w3.org/2000/svg">
<path d="M130 7L130 280" stroke="#F5F6F7"/>
<path d="M226 7L226 280" stroke="#F5F6F7"/>
<path d="M417 7L417 280" stroke="#F5F6F7"/>
<path d="M322 7L322 281" stroke="#F5F6F7"/>
<path d="M513 7L513 280" stroke="#F5F6F7"/>
<path d="M609 7L609 280" stroke="#F5F6F7"/>
<path d="M34 188L609 188" stroke="#F5F6F7"/>
<path d="M34 98L609 97.9999" stroke="#F5F6F7"/>
<path d="M34 7H609" stroke="#F5F6F7"/>
<path d="M34 280L609 280" stroke="#F5F6F7"/>
<path d="M34 6L34 280" stroke="#F5F6F7"/>
<path d="M34.8743 299V298.388L38.3663 294.968C38.6863 294.656 38.9263 294.384 39.0863 294.152C39.2463 293.912 39.3543 293.688 39.4103 293.48C39.4663 293.272 39.4943 293.076 39.4943 292.892C39.4943 292.404 39.3263 292.02 38.9903 291.74C38.6623 291.46 38.1743 291.32 37.5263 291.32C37.0303 291.32 36.5903 291.396 36.2063 291.548C35.8303 291.7 35.5063 291.936 35.2343 292.256L34.6223 291.728C34.9503 291.344 35.3703 291.048 35.8823 290.84C36.3943 290.632 36.9663 290.528 37.5983 290.528C38.1663 290.528 38.6583 290.62 39.0743 290.804C39.4903 290.98 39.8103 291.24 40.0343 291.584C40.2663 291.928 40.3823 292.332 40.3823 292.796C40.3823 293.068 40.3423 293.336 40.2623 293.6C40.1903 293.864 40.0543 294.144 39.8543 294.44C39.6623 294.728 39.3783 295.056 39.0023 295.424L35.7983 298.568L35.5583 298.232H40.7663V299H34.8743ZM45.1751 299.072C44.5271 299.072 43.9511 298.904 43.4471 298.568C42.9431 298.224 42.5471 297.736 42.2591 297.104C41.9711 296.464 41.8271 295.696 41.8271 294.8C41.8271 293.904 41.9711 293.14 42.2591 292.508C42.5471 291.868 42.9431 291.38 43.4471 291.044C43.9511 290.7 44.5271 290.528 45.1751 290.528C45.8231 290.528 46.3991 290.7 46.9031 291.044C47.4071 291.38 47.8031 291.868 48.0911 292.508C48.3871 293.14 48.5351 293.904 48.5351 294.8C48.5351 295.696 48.3871 296.464 48.0911 297.104C47.8031 297.736 47.4071 298.224 46.9031 298.568C46.3991 298.904 45.8231 299.072 45.1751 299.072ZM45.1751 298.28C45.6711 298.28 46.1031 298.148 46.4711 297.884C46.8391 297.612 47.1271 297.22 47.3351 296.708C47.5431 296.188 47.6471 295.552 47.6471 294.8C47.6471 294.048 47.5431 293.416 47.3351 292.904C47.1271 292.384 46.8391 291.992 46.4711 291.728C46.1031 291.456 45.6711 291.32 45.1751 291.32C44.6951 291.32 44.2671 291.456 43.8911 291.728C43.5151 291.992 43.2231 292.384 43.0151 292.904C42.8071 293.416 42.7031 294.048 42.7031 294.8C42.7031 295.552 42.8071 296.188 43.0151 296.708C43.2231 297.22 43.5151 297.612 43.8911 297.884C44.2671 298.148 44.6951 298.28 45.1751 298.28ZM51.2364 299V290.96L51.6204 291.368H49.2564V290.6H52.1004V299H51.2364ZM56.7604 299.072C56.1604 299.072 55.5884 298.976 55.0444 298.784C54.5004 298.584 54.0684 298.32 53.7484 297.992L54.1684 297.308C54.4324 297.588 54.7924 297.82 55.2484 298.004C55.7124 298.188 56.2124 298.28 56.7484 298.28C57.4604 298.28 58.0004 298.124 58.3684 297.812C58.7444 297.492 58.9324 297.076 58.9324 296.564C58.9324 296.204 58.8444 295.896 58.6684 295.64C58.5004 295.376 58.2124 295.172 57.8044 295.028C57.3964 294.884 56.8364 294.812 56.1244 294.812H54.3364L54.7684 290.6H59.3644V291.368H55.1164L55.5604 290.948L55.1884 294.476L54.7444 294.044H56.3164C57.1644 294.044 57.8444 294.148 58.3564 294.356C58.8684 294.564 59.2364 294.856 59.4604 295.232C59.6924 295.6 59.8084 296.032 59.8084 296.528C59.8084 297 59.6964 297.432 59.4724 297.824C59.2484 298.208 58.9124 298.512 58.4644 298.736C58.0164 298.96 57.4484 299.072 56.7604 299.072Z" fill="#858C95"/>
<path d="M403.468 299V298.388L406.96 294.968C407.28 294.656 407.52 294.384 407.68 294.152C407.84 293.912 407.948 293.688 408.004 293.48C408.06 293.272 408.088 293.076 408.088 292.892C408.088 292.404 407.92 292.02 407.584 291.74C407.256 291.46 406.768 291.32 406.12 291.32C405.624 291.32 405.184 291.396 404.8 291.548C404.424 291.7 404.1 291.936 403.828 292.256L403.216 291.728C403.544 291.344 403.964 291.048 404.476 290.84C404.988 290.632 405.56 290.528 406.192 290.528C406.76 290.528 407.252 290.62 407.668 290.804C408.084 290.98 408.404 291.24 408.628 291.584C408.86 291.928 408.976 292.332 408.976 292.796C408.976 293.068 408.936 293.336 408.856 293.6C408.784 293.864 408.648 294.144 408.448 294.44C408.256 294.728 407.972 295.056 407.596 295.424L404.392 298.568L404.152 298.232H409.36V299H403.468ZM413.769 299.072C413.121 299.072 412.545 298.904 412.041 298.568C411.537 298.224 411.141 297.736 410.853 297.104C410.565 296.464 410.421 295.696 410.421 294.8C410.421 293.904 410.565 293.14 410.853 292.508C411.141 291.868 411.537 291.38 412.041 291.044C412.545 290.7 413.121 290.528 413.769 290.528C414.417 290.528 414.993 290.7 415.497 291.044C416.001 291.38 416.397 291.868 416.685 292.508C416.981 293.14 417.129 293.904 417.129 294.8C417.129 295.696 416.981 296.464 416.685 297.104C416.397 297.736 416.001 298.224 415.497 298.568C414.993 298.904 414.417 299.072 413.769 299.072ZM413.769 298.28C414.265 298.28 414.697 298.148 415.065 297.884C415.433 297.612 415.721 297.22 415.929 296.708C416.137 296.188 416.241 295.552 416.241 294.8C416.241 294.048 416.137 293.416 415.929 292.904C415.721 292.384 415.433 291.992 415.065 291.728C414.697 291.456 414.265 291.32 413.769 291.32C413.289 291.32 412.861 291.456 412.485 291.728C412.109 291.992 411.817 292.384 411.609 292.904C411.401 293.416 411.297 294.048 411.297 294.8C411.297 295.552 411.401 296.188 411.609 296.708C411.817 297.22 412.109 297.612 412.485 297.884C412.861 298.148 413.289 298.28 413.769 298.28ZM418.21 299V298.388L421.702 294.968C422.022 294.656 422.262 294.384 422.422 294.152C422.582 293.912 422.69 293.688 422.746 293.48C422.802 293.272 422.83 293.076 422.83 292.892C422.83 292.404 422.662 292.02 422.326 291.74C421.998 291.46 421.51 291.32 420.862 291.32C420.366 291.32 419.926 291.396 419.542 291.548C419.166 291.7 418.842 291.936 418.57 292.256L417.958 291.728C418.286 291.344 418.706 291.048 419.218 290.84C419.73 290.632 420.302 290.528 420.934 290.528C421.502 290.528 421.994 290.62 422.41 290.804C422.826 290.98 423.146 291.24 423.37 291.584C423.602 291.928 423.718 292.332 423.718 292.796C423.718 293.068 423.678 293.336 423.598 293.6C423.526 293.864 423.39 294.144 423.19 294.44C422.998 294.728 422.714 295.056 422.338 295.424L419.134 298.568L418.894 298.232H424.102V299H418.21ZM427.839 299.072C427.239 299.072 426.667 298.976 426.123 298.784C425.579 298.584 425.147 298.32 424.827 297.992L425.247 297.308C425.511 297.588 425.871 297.82 426.326 298.004C426.791 298.188 427.291 298.28 427.827 298.28C428.539 298.28 429.079 298.124 429.447 297.812C429.823 297.492 430.011 297.076 430.011 296.564C430.011 296.204 429.923 295.896 429.747 295.64C429.579 295.376 429.291 295.172 428.883 295.028C428.475 294.884 427.915 294.812 427.203 294.812H425.415L425.847 290.6H430.443V291.368H426.195L426.639 290.948L426.267 294.476L425.823 294.044H427.395C428.243 294.044 428.923 294.148 429.435 294.356C429.947 294.564 430.315 294.856 430.539 295.232C430.771 295.6 430.887 296.032 430.887 296.528C430.887 297 430.775 297.432 430.551 297.824C430.327 298.208 429.991 298.512 429.543 298.736C429.095 298.96 428.527 299.072 427.839 299.072Z" fill="#858C95"/>
<path d="M213.804 299V298.388L217.296 294.968C217.616 294.656 217.856 294.384 218.016 294.152C218.176 293.912 218.284 293.688 218.34 293.48C218.396 293.272 218.424 293.076 218.424 292.892C218.424 292.404 218.256 292.02 217.92 291.74C217.592 291.46 217.104 291.32 216.456 291.32C215.96 291.32 215.52 291.396 215.136 291.548C214.76 291.7 214.436 291.936 214.164 292.256L213.552 291.728C213.88 291.344 214.3 291.048 214.812 290.84C215.324 290.632 215.896 290.528 216.528 290.528C217.096 290.528 217.588 290.62 218.004 290.804C218.42 290.98 218.74 291.24 218.964 291.584C219.196 291.928 219.312 292.332 219.312 292.796C219.312 293.068 219.272 293.336 219.192 293.6C219.12 293.864 218.984 294.144 218.784 294.44C218.592 294.728 218.308 295.056 217.932 295.424L214.728 298.568L214.488 298.232H219.696V299H213.804ZM224.105 299.072C223.457 299.072 222.881 298.904 222.377 298.568C221.873 298.224 221.477 297.736 221.189 297.104C220.901 296.464 220.757 295.696 220.757 294.8C220.757 293.904 220.901 293.14 221.189 292.508C221.477 291.868 221.873 291.38 222.377 291.044C222.881 290.7 223.457 290.528 224.105 290.528C224.753 290.528 225.329 290.7 225.833 291.044C226.337 291.38 226.733 291.868 227.021 292.508C227.317 293.14 227.465 293.904 227.465 294.8C227.465 295.696 227.317 296.464 227.021 297.104C226.733 297.736 226.337 298.224 225.833 298.568C225.329 298.904 224.753 299.072 224.105 299.072ZM224.105 298.28C224.601 298.28 225.033 298.148 225.401 297.884C225.769 297.612 226.057 297.22 226.265 296.708C226.473 296.188 226.577 295.552 226.577 294.8C226.577 294.048 226.473 293.416 226.265 292.904C226.057 292.384 225.769 291.992 225.401 291.728C225.033 291.456 224.601 291.32 224.105 291.32C223.625 291.32 223.197 291.456 222.821 291.728C222.445 291.992 222.153 292.384 221.945 292.904C221.737 293.416 221.633 294.048 221.633 294.8C221.633 295.552 221.737 296.188 221.945 296.708C222.153 297.22 222.445 297.612 222.821 297.884C223.197 298.148 223.625 298.28 224.105 298.28ZM230.166 299V290.96L230.55 291.368H228.186V290.6H231.03V299H230.166ZM236.23 299.072C235.558 299.072 234.978 298.976 234.49 298.784C234.01 298.592 233.638 298.316 233.374 297.956C233.118 297.588 232.99 297.156 232.99 296.66C232.99 296.18 233.114 295.772 233.362 295.436C233.618 295.092 233.986 294.828 234.466 294.644C234.954 294.46 235.542 294.368 236.23 294.368C236.91 294.368 237.494 294.46 237.982 294.644C238.47 294.828 238.842 295.092 239.098 295.436C239.362 295.772 239.494 296.18 239.494 296.66C239.494 297.156 239.362 297.588 239.098 297.956C238.834 298.316 238.458 298.592 237.97 298.784C237.482 298.976 236.902 299.072 236.23 299.072ZM236.23 298.34C236.974 298.34 237.554 298.188 237.97 297.884C238.394 297.58 238.606 297.168 238.606 296.648C238.606 296.128 238.394 295.72 237.97 295.424C237.554 295.12 236.974 294.968 236.23 294.968C235.486 294.968 234.906 295.12 234.49 295.424C234.074 295.72 233.866 296.128 233.866 296.648C233.866 297.168 234.074 297.58 234.49 297.884C234.906 298.188 235.486 298.34 236.23 298.34ZM236.23 294.86C235.606 294.86 235.074 294.776 234.634 294.608C234.202 294.44 233.87 294.2 233.638 293.888C233.406 293.568 233.29 293.188 233.29 292.748C233.29 292.284 233.41 291.888 233.65 291.56C233.898 291.224 234.242 290.968 234.682 290.792C235.122 290.616 235.638 290.528 236.23 290.528C236.822 290.528 237.338 290.616 237.778 290.792C238.226 290.968 238.574 291.224 238.822 291.56C239.07 291.888 239.194 292.284 239.194 292.748C239.194 293.188 239.078 293.568 238.846 293.888C238.614 294.2 238.274 294.44 237.826 294.608C237.386 294.776 236.854 294.86 236.23 294.86ZM236.23 294.284C236.886 294.284 237.398 294.148 237.766 293.876C238.134 293.604 238.318 293.24 238.318 292.784C238.318 292.304 238.126 291.932 237.742 291.668C237.366 291.396 236.862 291.26 236.23 291.26C235.598 291.26 235.094 291.396 234.718 291.668C234.342 291.932 234.154 292.3 234.154 292.772C234.154 293.236 234.334 293.604 234.694 293.876C235.062 294.148 235.574 294.284 236.23 294.284Z" fill="#858C95"/>
<path d="M582.327 299V298.388L585.819 294.968C586.139 294.656 586.379 294.384 586.539 294.152C586.699 293.912 586.807 293.688 586.863 293.48C586.919 293.272 586.947 293.076 586.947 292.892C586.947 292.404 586.779 292.02 586.443 291.74C586.115 291.46 585.627 291.32 584.979 291.32C584.483 291.32 584.043 291.396 583.659 291.548C583.283 291.7 582.959 291.936 582.687 292.256L582.075 291.728C582.403 291.344 582.823 291.048 583.335 290.84C583.847 290.632 584.419 290.528 585.051 290.528C585.619 290.528 586.111 290.62 586.527 290.804C586.943 290.98 587.263 291.24 587.487 291.584C587.719 291.928 587.835 292.332 587.835 292.796C587.835 293.068 587.795 293.336 587.715 293.6C587.643 293.864 587.507 294.144 587.307 294.44C587.115 294.728 586.831 295.056 586.455 295.424L583.251 298.568L583.011 298.232H588.219V299H582.327ZM592.628 299.072C591.98 299.072 591.404 298.904 590.9 298.568C590.396 298.224 590 297.736 589.712 297.104C589.424 296.464 589.28 295.696 589.28 294.8C589.28 293.904 589.424 293.14 589.712 292.508C590 291.868 590.396 291.38 590.9 291.044C591.404 290.7 591.98 290.528 592.628 290.528C593.276 290.528 593.852 290.7 594.356 291.044C594.86 291.38 595.256 291.868 595.544 292.508C595.84 293.14 595.988 293.904 595.988 294.8C595.988 295.696 595.84 296.464 595.544 297.104C595.256 297.736 594.86 298.224 594.356 298.568C593.852 298.904 593.276 299.072 592.628 299.072ZM592.628 298.28C593.124 298.28 593.556 298.148 593.924 297.884C594.292 297.612 594.58 297.22 594.788 296.708C594.996 296.188 595.1 295.552 595.1 294.8C595.1 294.048 594.996 293.416 594.788 292.904C594.58 292.384 594.292 291.992 593.924 291.728C593.556 291.456 593.124 291.32 592.628 291.32C592.148 291.32 591.72 291.456 591.344 291.728C590.968 291.992 590.676 292.384 590.468 292.904C590.26 293.416 590.156 294.048 590.156 294.8C590.156 295.552 590.26 296.188 590.468 296.708C590.676 297.22 590.968 297.612 591.344 297.884C591.72 298.148 592.148 298.28 592.628 298.28ZM599.616 299.072C599.008 299.072 598.432 298.976 597.888 298.784C597.352 298.584 596.92 298.32 596.592 297.992L597.012 297.308C597.284 297.588 597.648 297.82 598.104 298.004C598.568 298.188 599.072 298.28 599.616 298.28C600.312 298.28 600.844 298.128 601.212 297.824C601.588 297.52 601.776 297.112 601.776 296.6C601.776 296.088 601.592 295.68 601.224 295.376C600.864 295.072 600.292 294.92 599.508 294.92H598.908V294.284L601.5 291.032L601.62 291.368H596.94V290.6H602.34V291.212L599.748 294.464L599.328 294.188H599.652C600.66 294.188 601.412 294.412 601.908 294.86C602.412 295.308 602.664 295.884 602.664 296.588C602.664 297.06 602.552 297.484 602.328 297.86C602.104 298.236 601.764 298.532 601.308 298.748C600.86 298.964 600.296 299.072 599.616 299.072ZM607.23 299.072C606.582 299.072 606.006 298.904 605.502 298.568C604.998 298.224 604.602 297.736 604.314 297.104C604.026 296.464 603.882 295.696 603.882 294.8C603.882 293.904 604.026 293.14 604.314 292.508C604.602 291.868 604.998 291.38 605.502 291.044C606.006 290.7 606.582 290.528 607.23 290.528C607.878 290.528 608.454 290.7 608.958 291.044C609.462 291.38 609.858 291.868 610.146 292.508C610.442 293.14 610.59 293.904 610.59 294.8C610.59 295.696 610.442 296.464 610.146 297.104C609.858 297.736 609.462 298.224 608.958 298.568C608.454 298.904 607.878 299.072 607.23 299.072ZM607.23 298.28C607.726 298.28 608.158 298.148 608.526 297.884C608.894 297.612 609.182 297.22 609.39 296.708C609.598 296.188 609.702 295.552 609.702 294.8C609.702 294.048 609.598 293.416 609.39 292.904C609.182 292.384 608.894 291.992 608.526 291.728C608.158 291.456 607.726 291.32 607.23 291.32C606.75 291.32 606.322 291.456 605.946 291.728C605.57 291.992 605.278 292.384 605.07 292.904C604.862 293.416 604.758 294.048 604.758 294.8C604.758 295.552 604.862 296.188 605.07 296.708C605.278 297.22 605.57 297.612 605.946 297.884C606.322 298.148 606.75 298.28 607.23 298.28Z" fill="#858C95"/>
<path d="M24.972 282.072C24.324 282.072 23.748 281.904 23.244 281.568C22.74 281.224 22.344 280.736 22.056 280.104C21.768 279.464 21.624 278.696 21.624 277.8C21.624 276.904 21.768 276.14 22.056 275.508C22.344 274.868 22.74 274.38 23.244 274.044C23.748 273.7 24.324 273.528 24.972 273.528C25.62 273.528 26.196 273.7 26.7 274.044C27.204 274.38 27.6 274.868 27.888 275.508C28.184 276.14 28.332 276.904 28.332 277.8C28.332 278.696 28.184 279.464 27.888 280.104C27.6 280.736 27.204 281.224 26.7 281.568C26.196 281.904 25.62 282.072 24.972 282.072ZM24.972 281.28C25.468 281.28 25.9 281.148 26.268 280.884C26.636 280.612 26.924 280.22 27.132 279.708C27.34 279.188 27.444 278.552 27.444 277.8C27.444 277.048 27.34 276.416 27.132 275.904C26.924 275.384 26.636 274.992 26.268 274.728C25.9 274.456 25.468 274.32 24.972 274.32C24.492 274.32 24.064 274.456 23.688 274.728C23.312 274.992 23.02 275.384 22.812 275.904C22.604 276.416 22.5 277.048 22.5 277.8C22.5 278.552 22.604 279.188 22.812 279.708C23.02 280.22 23.312 280.612 23.688 280.884C24.064 281.148 24.492 281.28 24.972 281.28Z" fill="#858C95"/>
<path d="M9.276 192.072C8.676 192.072 8.104 191.976 7.56 191.784C7.016 191.584 6.584 191.32 6.264 190.992L6.684 190.308C6.948 190.588 7.308 190.82 7.764 191.004C8.228 191.188 8.728 191.28 9.264 191.28C9.976 191.28 10.516 191.124 10.884 190.812C11.26 190.492 11.448 190.076 11.448 189.564C11.448 189.204 11.36 188.896 11.184 188.64C11.016 188.376 10.728 188.172 10.32 188.028C9.912 187.884 9.352 187.812 8.64 187.812H6.852L7.284 183.6H11.88V184.368H7.632L8.076 183.948L7.704 187.476L7.26 187.044H8.832C9.68 187.044 10.36 187.148 10.872 187.356C11.384 187.564 11.752 187.856 11.976 188.232C12.208 188.6 12.324 189.032 12.324 189.528C12.324 190 12.212 190.432 11.988 190.824C11.764 191.208 11.428 191.512 10.98 191.736C10.532 191.96 9.964 192.072 9.276 192.072ZM16.7689 192.072C16.1209 192.072 15.5449 191.904 15.0409 191.568C14.5369 191.224 14.1409 190.736 13.8529 190.104C13.5649 189.464 13.4209 188.696 13.4209 187.8C13.4209 186.904 13.5649 186.14 13.8529 185.508C14.1409 184.868 14.5369 184.38 15.0409 184.044C15.5449 183.7 16.1209 183.528 16.7689 183.528C17.4169 183.528 17.9929 183.7 18.4969 184.044C19.0009 184.38 19.3969 184.868 19.6849 185.508C19.9809 186.14 20.1289 186.904 20.1289 187.8C20.1289 188.696 19.9809 189.464 19.6849 190.104C19.3969 190.736 19.0009 191.224 18.4969 191.568C17.9929 191.904 17.4169 192.072 16.7689 192.072ZM16.7689 191.28C17.2649 191.28 17.6969 191.148 18.0649 190.884C18.4329 190.612 18.7209 190.22 18.9289 189.708C19.1369 189.188 19.2409 188.552 19.2409 187.8C19.2409 187.048 19.1369 186.416 18.9289 185.904C18.7209 185.384 18.4329 184.992 18.0649 184.728C17.6969 184.456 17.2649 184.32 16.7689 184.32C16.2889 184.32 15.8609 184.456 15.4849 184.728C15.1089 184.992 14.8169 185.384 14.6089 185.904C14.4009 186.416 14.2969 187.048 14.2969 187.8C14.2969 188.552 14.4009 189.188 14.6089 189.708C14.8169 190.22 15.1089 190.612 15.4849 190.884C15.8609 191.148 16.2889 191.28 16.7689 191.28ZM24.7142 192.072C24.0662 192.072 23.4902 191.904 22.9862 191.568C22.4822 191.224 22.0862 190.736 21.7982 190.104C21.5102 189.464 21.3662 188.696 21.3662 187.8C21.3662 186.904 21.5102 186.14 21.7982 185.508C22.0862 184.868 22.4822 184.38 22.9862 184.044C23.4902 183.7 24.0662 183.528 24.7142 183.528C25.3622 183.528 25.9382 183.7 26.4422 184.044C26.9462 184.38 27.3422 184.868 27.6302 185.508C27.9262 186.14 28.0742 186.904 28.0742 187.8C28.0742 188.696 27.9262 189.464 27.6302 190.104C27.3422 190.736 26.9462 191.224 26.4422 191.568C25.9382 191.904 25.3622 192.072 24.7142 192.072ZM24.7142 191.28C25.2102 191.28 25.6422 191.148 26.0102 190.884C26.3782 190.612 26.6662 190.22 26.8742 189.708C27.0822 189.188 27.1862 188.552 27.1862 187.8C27.1862 187.048 27.0822 186.416 26.8742 185.904C26.6662 185.384 26.3782 184.992 26.0102 184.728C25.6422 184.456 25.2102 184.32 24.7142 184.32C24.2342 184.32 23.8062 184.456 23.4302 184.728C23.0542 184.992 22.7622 185.384 22.5542 185.904C22.3462 186.416 22.2422 187.048 22.2422 187.8C22.2422 188.552 22.3462 189.188 22.5542 189.708C22.7622 190.22 23.0542 190.612 23.4302 190.884C23.8062 191.148 24.2342 191.28 24.7142 191.28Z" fill="#858C95"/>
<path d="M3.088 12V3.96L3.472 4.368H1.108V3.6H3.952V12H3.088ZM8.61194 12.072C8.01194 12.072 7.43994 11.976 6.89594 11.784C6.35194 11.584 5.91994 11.32 5.59994 10.992L6.01994 10.308C6.28394 10.588 6.64394 10.82 7.09994 11.004C7.56394 11.188 8.06394 11.28 8.59994 11.28C9.31194 11.28 9.85194 11.124 10.2199 10.812C10.5959 10.492 10.7839 10.076 10.7839 9.564C10.7839 9.204 10.6959 8.896 10.5199 8.64C10.3519 8.376 10.0639 8.172 9.65594 8.028C9.24794 7.884 8.68794 7.812 7.97594 7.812H6.18794L6.61994 3.6H11.2159V4.368H6.96794L7.41194 3.948L7.03994 7.476L6.59594 7.044H8.16794C9.01594 7.044 9.69594 7.148 10.2079 7.356C10.7199 7.564 11.0879 7.856 11.3119 8.232C11.5439 8.6 11.6599 9.032 11.6599 9.528C11.6599 10 11.5479 10.432 11.3239 10.824C11.0999 11.208 10.7639 11.512 10.3159 11.736C9.86794 11.96 9.29994 12.072 8.61194 12.072ZM16.1048 12.072C15.4568 12.072 14.8808 11.904 14.3768 11.568C13.8728 11.224 13.4768 10.736 13.1888 10.104C12.9008 9.464 12.7568 8.696 12.7568 7.8C12.7568 6.904 12.9008 6.14 13.1888 5.508C13.4768 4.868 13.8728 4.38 14.3768 4.044C14.8808 3.7 15.4568 3.528 16.1048 3.528C16.7528 3.528 17.3288 3.7 17.8328 4.044C18.3368 4.38 18.7328 4.868 19.0208 5.508C19.3168 6.14 19.4648 6.904 19.4648 7.8C19.4648 8.696 19.3168 9.464 19.0208 10.104C18.7328 10.736 18.3368 11.224 17.8328 11.568C17.3288 11.904 16.7528 12.072 16.1048 12.072ZM16.1048 11.28C16.6008 11.28 17.0328 11.148 17.4008 10.884C17.7688 10.612 18.0568 10.22 18.2648 9.708C18.4728 9.188 18.5768 8.552 18.5768 7.8C18.5768 7.048 18.4728 6.416 18.2648 5.904C18.0568 5.384 17.7688 4.992 17.4008 4.728C17.0328 4.456 16.6008 4.32 16.1048 4.32C15.6248 4.32 15.1968 4.456 14.8208 4.728C14.4448 4.992 14.1528 5.384 13.9448 5.904C13.7368 6.416 13.6328 7.048 13.6328 7.8C13.6328 8.552 13.7368 9.188 13.9448 9.708C14.1528 10.22 14.4448 10.612 14.8208 10.884C15.1968 11.148 15.6248 11.28 16.1048 11.28ZM24.0501 12.072C23.4021 12.072 22.8261 11.904 22.3221 11.568C21.8181 11.224 21.4221 10.736 21.1341 10.104C20.8461 9.464 20.7021 8.696 20.7021 7.8C20.7021 6.904 20.8461 6.14 21.1341 5.508C21.4221 4.868 21.8181 4.38 22.3221 4.044C22.8261 3.7 23.4021 3.528 24.0501 3.528C24.6981 3.528 25.2741 3.7 25.7781 4.044C26.2821 4.38 26.6781 4.868 26.9661 5.508C27.2621 6.14 27.4101 6.904 27.4101 7.8C27.4101 8.696 27.2621 9.464 26.9661 10.104C26.6781 10.736 26.2821 11.224 25.7781 11.568C25.2741 11.904 24.6981 12.072 24.0501 12.072ZM24.0501 11.28C24.5461 11.28 24.9781 11.148 25.3461 10.884C25.7141 10.612 26.0021 10.22 26.2101 9.708C26.4181 9.188 26.5221 8.552 26.5221 7.8C26.5221 7.048 26.4181 6.416 26.2101 5.904C26.0021 5.384 25.7141 4.992 25.3461 4.728C24.9781 4.456 24.5461 4.32 24.0501 4.32C23.5701 4.32 23.1421 4.456 22.7661 4.728C22.3901 4.992 22.0981 5.384 21.8901 5.904C21.6821 6.416 21.5781 7.048 21.5781 7.8C21.5781 8.552 21.6821 9.188 21.8901 9.708C22.0981 10.22 22.3901 10.612 22.7661 10.884C23.1421 11.148 23.5701 11.28 24.0501 11.28Z" fill="#858C95"/>
<path d="M2.088 102V93.96L2.472 94.368H0.108V93.6H2.952V102H2.088ZM8.30794 102.072C7.65994 102.072 7.08394 101.904 6.57994 101.568C6.07594 101.224 5.67994 100.736 5.39194 100.104C5.10394 99.464 4.95994 98.696 4.95994 97.8C4.95994 96.904 5.10394 96.14 5.39194 95.508C5.67994 94.868 6.07594 94.38 6.57994 94.044C7.08394 93.7 7.65994 93.528 8.30794 93.528C8.95594 93.528 9.53194 93.7 10.0359 94.044C10.5399 94.38 10.9359 94.868 11.2239 95.508C11.5199 96.14 11.6679 96.904 11.6679 97.8C11.6679 98.696 11.5199 99.464 11.2239 100.104C10.9359 100.736 10.5399 101.224 10.0359 101.568C9.53194 101.904 8.95594 102.072 8.30794 102.072ZM8.30794 101.28C8.80394 101.28 9.23594 101.148 9.60394 100.884C9.97194 100.612 10.2599 100.22 10.4679 99.708C10.6759 99.188 10.7799 98.552 10.7799 97.8C10.7799 97.048 10.6759 96.416 10.4679 95.904C10.2599 95.384 9.97194 94.992 9.60394 94.728C9.23594 94.456 8.80394 94.32 8.30794 94.32C7.82794 94.32 7.39994 94.456 7.02394 94.728C6.64794 94.992 6.35594 95.384 6.14794 95.904C5.93994 96.416 5.83594 97.048 5.83594 97.8C5.83594 98.552 5.93994 99.188 6.14794 99.708C6.35594 100.22 6.64794 100.612 7.02394 100.884C7.39994 101.148 7.82794 101.28 8.30794 101.28ZM16.2533 102.072C15.6053 102.072 15.0293 101.904 14.5253 101.568C14.0213 101.224 13.6253 100.736 13.3373 100.104C13.0493 99.464 12.9053 98.696 12.9053 97.8C12.9053 96.904 13.0493 96.14 13.3373 95.508C13.6253 94.868 14.0213 94.38 14.5253 94.044C15.0293 93.7 15.6053 93.528 16.2533 93.528C16.9013 93.528 17.4773 93.7 17.9813 94.044C18.4853 94.38 18.8813 94.868 19.1693 95.508C19.4653 96.14 19.6133 96.904 19.6133 97.8C19.6133 98.696 19.4653 99.464 19.1693 100.104C18.8813 100.736 18.4853 101.224 17.9813 101.568C17.4773 101.904 16.9013 102.072 16.2533 102.072ZM16.2533 101.28C16.7493 101.28 17.1813 101.148 17.5493 100.884C17.9173 100.612 18.2053 100.22 18.4133 99.708C18.6213 99.188 18.7253 98.552 18.7253 97.8C18.7253 97.048 18.6213 96.416 18.4133 95.904C18.2053 95.384 17.9173 94.992 17.5493 94.728C17.1813 94.456 16.7493 94.32 16.2533 94.32C15.7733 94.32 15.3453 94.456 14.9693 94.728C14.5933 94.992 14.3013 95.384 14.0933 95.904C13.8853 96.416 13.7812 97.048 13.7812 97.8C13.7812 98.552 13.8853 99.188 14.0933 99.708C14.3013 100.22 14.5933 100.612 14.9693 100.884C15.3453 101.148 15.7733 101.28 16.2533 101.28ZM24.1986 102.072C23.5506 102.072 22.9746 101.904 22.4706 101.568C21.9666 101.224 21.5706 100.736 21.2826 100.104C20.9946 99.464 20.8506 98.696 20.8506 97.8C20.8506 96.904 20.9946 96.14 21.2826 95.508C21.5706 94.868 21.9666 94.38 22.4706 94.044C22.9746 93.7 23.5506 93.528 24.1986 93.528C24.8466 93.528 25.4226 93.7 25.9266 94.044C26.4306 94.38 26.8266 94.868 27.1146 95.508C27.4106 96.14 27.5586 96.904 27.5586 97.8C27.5586 98.696 27.4106 99.464 27.1146 100.104C26.8266 100.736 26.4306 101.224 25.9266 101.568C25.4226 101.904 24.8466 102.072 24.1986 102.072ZM24.1986 101.28C24.6946 101.28 25.1266 101.148 25.4946 100.884C25.8626 100.612 26.1506 100.22 26.3586 99.708C26.5666 99.188 26.6706 98.552 26.6706 97.8C26.6706 97.048 26.5666 96.416 26.3586 95.904C26.1506 95.384 25.8626 94.992 25.4946 94.728C25.1266 94.456 24.6946 94.32 24.1986 94.32C23.7186 94.32 23.2906 94.456 22.9146 94.728C22.5386 94.992 22.2466 95.384 22.0386 95.904C21.8306 96.416 21.7266 97.048 21.7266 97.8C21.7266 98.552 21.8306 99.188 22.0386 99.708C22.2466 100.22 22.5386 100.612 22.9146 100.884C23.2906 101.148 23.7186 101.28 24.1986 101.28Z" fill="#858C95"/>
<path d="M608.5 21C608.5 21 469 81 417 104.5C365 128 313 141.291 226 161.5C139 181.709 34 208 34 208" stroke="#2D6FD0" stroke-width="2"/>
<path d="M34.4069 210.64C33.4372 210.64 32.5072 210.255 31.8214 209.569C31.1356 208.884 30.7502 207.954 30.75 206.984C30.7498 206.014 31.1347 205.084 31.8201 204.398C32.5056 203.712 33.4354 203.327 34.4051 203.326C35.3748 203.326 36.305 203.71 36.9912 204.396C37.6773 205.081 38.0631 206.011 38.0639 206.98C38.0646 207.95 37.6801 208.88 36.995 209.567C36.3099 210.253 35.3803 210.639 34.4106 210.64H34.4069Z" fill="#2D6FD0"/>
<path d="M416.36 107.413C415.39 107.413 414.46 107.028 413.775 106.343C413.089 105.657 412.703 104.727 412.703 103.757C412.703 102.788 413.088 101.858 413.773 101.172C414.459 100.486 415.389 100.1 416.358 100.1C417.328 100.099 418.258 100.484 418.944 101.169C419.63 101.854 420.016 102.784 420.017 103.754C420.018 104.724 419.633 105.654 418.948 106.34C418.263 107.026 417.333 107.413 416.364 107.413H416.36Z" fill="#2D6FD0"/>
<path d="M226.383 165.206C225.414 165.206 224.484 164.821 223.798 164.136C223.112 163.45 222.727 162.52 222.727 161.55C222.726 160.581 223.111 159.651 223.797 158.965C224.482 158.279 225.412 157.893 226.382 157.893C227.351 157.892 228.282 158.277 228.968 158.962C229.654 159.647 230.04 160.577 230.04 161.547C230.041 162.516 229.657 163.447 228.972 164.133C228.287 164.819 227.357 165.205 226.387 165.206H226.383Z" fill="#2D6FD0"/>
<path d="M608.344 25.142C607.375 25.142 606.445 24.7568 605.759 24.0712C605.073 23.3856 604.688 22.4557 604.688 21.486C604.687 20.5163 605.072 19.5861 605.758 18.9002C606.443 18.2142 607.373 17.8286 608.343 17.8281C609.312 17.8276 610.243 18.2123 610.929 18.8976C611.615 19.5829 612.001 20.5126 612.001 21.4823C612.002 22.452 611.618 23.3823 610.933 24.0686C610.247 24.7549 609.318 25.141 608.348 25.142L608.344 25.142Z" fill="#2D6FD0"/>
<path d="M44.6806 227V223.742H38.6686V222.32L45.1666 214.22H46.2646V222.302H47.8486V223.742H46.2646V227H44.6806ZM40.3246 222.302H44.8426V216.65L40.3246 222.302ZM49.3993 227C49.3993 226.28 49.4593 225.644 49.5793 225.092C49.7113 224.528 49.8973 224.024 50.1373 223.58C50.3893 223.136 50.6893 222.746 51.0373 222.41C51.3853 222.074 51.7813 221.774 52.2253 221.51C52.6933 221.234 53.1733 220.982 53.6653 220.754C54.1573 220.526 54.6133 220.286 55.0333 220.034C55.4533 219.782 55.7893 219.482 56.0413 219.134C56.3053 218.774 56.4373 218.33 56.4373 217.802C56.4373 217.382 56.3473 217.004 56.1673 216.668C55.9873 216.32 55.7173 216.044 55.3573 215.84C54.9973 215.636 54.5353 215.534 53.9713 215.534C53.4073 215.534 52.8973 215.63 52.4413 215.822C51.9973 216.014 51.6133 216.242 51.2893 216.506C50.9653 216.77 50.7073 217.022 50.5153 217.262L49.4893 216.236C49.5853 216.116 49.7533 215.936 49.9933 215.696C50.2453 215.456 50.5633 215.21 50.9473 214.958C51.3433 214.706 51.8053 214.496 52.3333 214.328C52.8613 214.148 53.4613 214.058 54.1333 214.058C55.0333 214.058 55.7833 214.226 56.3833 214.562C56.9833 214.898 57.4333 215.348 57.7333 215.912C58.0453 216.476 58.2013 217.1 58.2013 217.784C58.2013 218.396 58.0873 218.924 57.8593 219.368C57.6313 219.8 57.3373 220.166 56.9773 220.466C56.6173 220.766 56.2213 221.03 55.7893 221.258C55.3693 221.486 54.9613 221.702 54.5653 221.906C53.8093 222.266 53.2093 222.596 52.7653 222.896C52.3213 223.196 51.9793 223.49 51.7393 223.778C51.5113 224.054 51.3553 224.336 51.2713 224.624C51.1993 224.912 51.1573 225.224 51.1453 225.56H58.2193V227H49.3993ZM59.9805 218.54C59.9805 217.712 60.1785 216.968 60.5745 216.308C60.9825 215.636 61.5345 215.108 62.2305 214.724C62.9265 214.328 63.7005 214.13 64.5525 214.13C65.4765 214.13 66.2805 214.352 66.9645 214.796C67.6605 215.228 68.2005 215.852 68.5845 216.668C68.9805 217.484 69.1785 218.468 69.1785 219.62C69.1785 221.3 68.9805 222.704 68.5845 223.832C68.1885 224.948 67.6305 225.788 66.9105 226.352C66.1905 226.904 65.3505 227.18 64.3905 227.18C63.5625 227.18 62.8065 226.982 62.1225 226.586C61.4505 226.178 60.9225 225.614 60.5385 224.894L61.5105 223.94C61.7745 224.492 62.1645 224.936 62.6805 225.272C63.2085 225.608 63.7845 225.776 64.4085 225.776C65.0685 225.776 65.6385 225.584 66.1185 225.2C66.6105 224.804 66.9945 224.234 67.2705 223.49C67.5465 222.746 67.6845 221.846 67.6845 220.79C67.5165 221.198 67.2645 221.558 66.9285 221.87C66.6045 222.182 66.2265 222.422 65.7945 222.59C65.3625 222.758 64.8945 222.842 64.3905 222.842C63.5745 222.842 62.8305 222.65 62.1585 222.266C61.4865 221.882 60.9525 221.366 60.5565 220.718C60.1725 220.058 59.9805 219.332 59.9805 218.54ZM64.5345 215.48C63.9825 215.48 63.4785 215.618 63.0225 215.894C62.5665 216.17 62.2005 216.542 61.9245 217.01C61.6485 217.466 61.5105 217.97 61.5105 218.522C61.5105 219.074 61.6485 219.578 61.9245 220.034C62.2005 220.49 62.5665 220.856 63.0225 221.132C63.4905 221.408 64.0005 221.546 64.5525 221.546C65.1045 221.546 65.6085 221.408 66.0645 221.132C66.5325 220.856 66.9045 220.49 67.1805 220.034C67.4565 219.578 67.5945 219.08 67.5945 218.54C67.5945 217.988 67.4505 217.484 67.1625 217.028C66.8865 216.56 66.5145 216.188 66.0465 215.912C65.5905 215.624 65.0865 215.48 64.5345 215.48ZM71.4365 228.458L71.7965 226.856H71.2565V224.984H72.7505V226.856L72.2105 228.458H71.4365ZM74.6934 218.54C74.6934 217.712 74.8914 216.968 75.2874 216.308C75.6954 215.636 76.2474 215.108 76.9434 214.724C77.6394 214.328 78.4134 214.13 79.2654 214.13C80.1894 214.13 80.9934 214.352 81.6774 214.796C82.3734 215.228 82.9134 215.852 83.2974 216.668C83.6934 217.484 83.8914 218.468 83.8914 219.62C83.8914 221.3 83.6934 222.704 83.2974 223.832C82.9014 224.948 82.3434 225.788 81.6234 226.352C80.9034 226.904 80.0634 227.18 79.1034 227.18C78.2754 227.18 77.5194 226.982 76.8354 226.586C76.1634 226.178 75.6354 225.614 75.2514 224.894L76.2234 223.94C76.4874 224.492 76.8774 224.936 77.3934 225.272C77.9214 225.608 78.4974 225.776 79.1214 225.776C79.7814 225.776 80.3514 225.584 80.8314 225.2C81.3234 224.804 81.7074 224.234 81.9834 223.49C82.2594 222.746 82.3974 221.846 82.3974 220.79C82.2294 221.198 81.9774 221.558 81.6414 221.87C81.3174 222.182 80.9394 222.422 80.5074 222.59C80.0754 222.758 79.6074 222.842 79.1034 222.842C78.2874 222.842 77.5434 222.65 76.8714 222.266C76.1994 221.882 75.6654 221.366 75.2694 220.718C74.8854 220.058 74.6934 219.332 74.6934 218.54ZM79.2474 215.48C78.6954 215.48 78.1914 215.618 77.7354 215.894C77.2794 216.17 76.9134 216.542 76.6374 217.01C76.3614 217.466 76.2234 217.97 76.2234 218.522C76.2234 219.074 76.3614 219.578 76.6374 220.034C76.9134 220.49 77.2794 220.856 77.7354 221.132C78.2034 221.408 78.7134 221.546 79.2654 221.546C79.8174 221.546 80.3214 221.408 80.7774 221.132C81.2454 220.856 81.6174 220.49 81.8934 220.034C82.1694 219.578 82.3074 219.08 82.3074 218.54C82.3074 217.988 82.1634 217.484 81.8754 217.028C81.5994 216.56 81.2274 216.188 80.7594 215.912C80.3034 215.624 79.7994 215.48 79.2474 215.48Z" fill="#2F2F2F"/>
<path d="M539.667 26.56V28H533.313V26.56H535.761V16.75C535.665 16.894 535.509 17.056 535.293 17.236C535.077 17.404 534.825 17.572 534.537 17.74C534.261 17.896 533.979 18.028 533.691 18.136C533.403 18.244 533.139 18.298 532.899 18.298V16.822C533.223 16.822 533.547 16.738 533.871 16.57C534.207 16.402 534.513 16.204 534.789 15.976C535.077 15.748 535.305 15.544 535.473 15.364C535.653 15.184 535.749 15.088 535.761 15.076H537.381V26.56H539.667ZM546.568 28V24.742H540.556V23.32L547.054 15.22H548.152V23.302H549.736V24.742H548.152V28H546.568ZM542.212 23.302H546.73V17.65L542.212 23.302ZM551.251 19.54C551.251 18.712 551.449 17.968 551.845 17.308C552.253 16.636 552.805 16.108 553.501 15.724C554.197 15.328 554.971 15.13 555.823 15.13C556.747 15.13 557.551 15.352 558.235 15.796C558.931 16.228 559.471 16.852 559.855 17.668C560.251 18.484 560.449 19.468 560.449 20.62C560.449 22.3 560.251 23.704 559.855 24.832C559.459 25.948 558.901 26.788 558.181 27.352C557.461 27.904 556.621 28.18 555.661 28.18C554.833 28.18 554.077 27.982 553.393 27.586C552.721 27.178 552.193 26.614 551.809 25.894L552.781 24.94C553.045 25.492 553.435 25.936 553.951 26.272C554.479 26.608 555.055 26.776 555.679 26.776C556.339 26.776 556.909 26.584 557.389 26.2C557.881 25.804 558.265 25.234 558.541 24.49C558.817 23.746 558.955 22.846 558.955 21.79C558.787 22.198 558.535 22.558 558.199 22.87C557.875 23.182 557.497 23.422 557.065 23.59C556.633 23.758 556.165 23.842 555.661 23.842C554.845 23.842 554.101 23.65 553.429 23.266C552.757 22.882 552.223 22.366 551.827 21.718C551.443 21.058 551.251 20.332 551.251 19.54ZM555.805 16.48C555.253 16.48 554.749 16.618 554.293 16.894C553.837 17.17 553.471 17.542 553.195 18.01C552.919 18.466 552.781 18.97 552.781 19.522C552.781 20.074 552.919 20.578 553.195 21.034C553.471 21.49 553.837 21.856 554.293 22.132C554.761 22.408 555.271 22.546 555.823 22.546C556.375 22.546 556.879 22.408 557.335 22.132C557.803 21.856 558.175 21.49 558.451 21.034C558.727 20.578 558.865 20.08 558.865 19.54C558.865 18.988 558.721 18.484 558.433 18.028C558.157 17.56 557.785 17.188 557.317 16.912C556.861 16.624 556.357 16.48 555.805 16.48ZM571.257 24.382C571.257 25.138 571.047 25.798 570.627 26.362C570.219 26.926 569.667 27.364 568.971 27.676C568.287 27.988 567.537 28.144 566.721 28.144C565.869 28.144 565.107 27.976 564.435 27.64C563.763 27.292 563.229 26.83 562.833 26.254C562.449 25.678 562.257 25.03 562.257 24.31C562.257 23.782 562.377 23.308 562.617 22.888C562.857 22.468 563.157 22.114 563.517 21.826C563.889 21.526 564.267 21.304 564.651 21.16C564.303 21.004 563.979 20.8 563.679 20.548C563.379 20.296 563.139 20.002 562.959 19.666C562.779 19.33 562.689 18.964 562.689 18.568C562.689 18.028 562.809 17.554 563.049 17.146C563.289 16.726 563.607 16.372 564.003 16.084C564.399 15.796 564.837 15.58 565.317 15.436C565.797 15.292 566.277 15.22 566.757 15.22C567.237 15.22 567.717 15.292 568.197 15.436C568.677 15.58 569.115 15.796 569.511 16.084C569.919 16.36 570.243 16.708 570.483 17.128C570.723 17.536 570.843 18.01 570.843 18.55C570.843 18.946 570.753 19.318 570.573 19.666C570.393 20.002 570.147 20.296 569.835 20.548C569.535 20.8 569.205 21.004 568.845 21.16C569.277 21.328 569.673 21.568 570.033 21.88C570.405 22.18 570.699 22.54 570.915 22.96C571.143 23.38 571.257 23.854 571.257 24.382ZM569.655 24.274C569.655 23.89 569.571 23.548 569.403 23.248C569.235 22.936 569.007 22.678 568.719 22.474C568.431 22.258 568.113 22.096 567.765 21.988C567.429 21.88 567.087 21.826 566.739 21.826C566.259 21.826 565.797 21.928 565.353 22.132C564.921 22.336 564.567 22.624 564.291 22.996C564.015 23.356 563.877 23.788 563.877 24.292C563.877 24.664 563.961 25 564.129 25.3C564.297 25.6 564.519 25.858 564.795 26.074C565.083 26.29 565.395 26.452 565.731 26.56C566.079 26.668 566.427 26.722 566.775 26.722C567.255 26.722 567.711 26.62 568.143 26.416C568.587 26.212 568.947 25.924 569.223 25.552C569.511 25.18 569.655 24.754 569.655 24.274ZM564.291 18.622C564.291 19.042 564.417 19.402 564.669 19.702C564.921 20.002 565.239 20.23 565.623 20.386C566.007 20.53 566.385 20.602 566.757 20.602C567.141 20.602 567.519 20.524 567.891 20.368C568.275 20.212 568.593 19.984 568.845 19.684C569.097 19.384 569.223 19.018 569.223 18.586C569.223 18.178 569.103 17.83 568.863 17.542C568.635 17.254 568.329 17.032 567.945 16.876C567.573 16.72 567.171 16.642 566.739 16.642C566.319 16.642 565.917 16.726 565.533 16.894C565.161 17.05 564.861 17.278 564.633 17.578C564.405 17.866 564.291 18.214 564.291 18.622ZM573.465 29.458L573.825 27.856H573.285V25.984H574.779V27.856L574.239 29.458H573.465ZM583.472 26.56V28H577.118V26.56H579.566V16.75C579.47 16.894 579.314 17.056 579.098 17.236C578.882 17.404 578.63 17.572 578.342 17.74C578.066 17.896 577.784 18.028 577.496 18.136C577.208 18.244 576.944 18.298 576.704 18.298V16.822C577.028 16.822 577.352 16.738 577.676 16.57C578.012 16.402 578.318 16.204 578.594 15.976C578.882 15.748 579.11 15.544 579.278 15.364C579.458 15.184 579.554 15.088 579.566 15.076H581.186V26.56H583.472Z" fill="#2F2F2F"/>
</svg>
