<svg width="315" height="315" viewBox="0 0 315 315" fill="none" xmlns="http://www.w3.org/2000/svg">
<circle cx="158.563" cy="157.212" r="124.532" stroke="#E8F0FF" stroke-width="46.5"/>
<mask id="path-2-inside-1_2814_487092" fill="white">
<path d="M131.719 308.37C131.366 310.551 132.849 312.612 135.039 312.908C159.956 316.281 185.341 313.641 209.056 305.184C234.029 296.278 256.337 281.212 273.904 261.387C291.47 241.563 303.724 217.625 309.525 191.803C315.325 165.981 314.483 139.114 307.077 113.704C299.671 88.2941 285.942 65.1674 267.168 46.4771C248.394 27.7869 225.186 14.1409 199.704 6.80996C174.223 -0.521026 147.297 -1.29869 121.433 4.54937C96.8745 10.1023 74.0324 21.4574 54.8165 37.6358C53.124 39.0607 52.9774 41.5979 54.4485 43.2504L84.6087 77.1273C86.0754 78.7748 88.5944 78.9174 90.3001 77.5187C102.766 67.2965 117.466 60.1047 133.238 56.5384C150.311 52.6781 168.085 53.1915 184.905 58.0306C201.725 62.8698 217.045 71.8774 229.437 84.2148C241.83 96.5521 250.893 111.818 255.781 128.591C260.67 145.364 261.226 163.099 257.397 180.144C253.568 197.189 245.48 212.99 233.884 226.076C222.288 239.162 207.562 249.108 191.078 254.986C175.85 260.417 159.579 262.214 143.564 260.258C141.372 259.99 139.32 261.463 138.967 263.643L131.719 308.37Z"/>
</mask>
<path d="M131.719 308.37C131.366 310.551 132.849 312.612 135.039 312.908C159.956 316.281 185.341 313.641 209.056 305.184C234.029 296.278 256.337 281.212 273.904 261.387C291.47 241.563 303.724 217.625 309.525 191.803C315.325 165.981 314.483 139.114 307.077 113.704C299.671 88.2941 285.942 65.1674 267.168 46.4771C248.394 27.7869 225.186 14.1409 199.704 6.80996C174.223 -0.521026 147.297 -1.29869 121.433 4.54937C96.8745 10.1023 74.0324 21.4574 54.8165 37.6358C53.124 39.0607 52.9774 41.5979 54.4485 43.2504L84.6087 77.1273C86.0754 78.7748 88.5944 78.9174 90.3001 77.5187C102.766 67.2965 117.466 60.1047 133.238 56.5384C150.311 52.6781 168.085 53.1915 184.905 58.0306C201.725 62.8698 217.045 71.8774 229.437 84.2148C241.83 96.5521 250.893 111.818 255.781 128.591C260.67 145.364 261.226 163.099 257.397 180.144C253.568 197.189 245.48 212.99 233.884 226.076C222.288 239.162 207.562 249.108 191.078 254.986C175.85 260.417 159.579 262.214 143.564 260.258C141.372 259.99 139.32 261.463 138.967 263.643L131.719 308.37Z" stroke="#4F86D8" stroke-width="104.477" mask="url(#path-2-inside-1_2814_487092)"/>
<mask id="path-3-inside-2_2814_487092" fill="white">
<path d="M50.4829 49.4256C48.9215 47.8676 46.3892 47.8644 44.8679 49.4616C20.8313 74.6981 5.86587 107.234 2.39928 141.953C-1.06723 176.673 7.17046 211.514 25.7438 240.987C26.92 242.853 29.4035 243.35 31.2418 242.13L69.0604 217.037C70.9037 215.814 71.397 213.331 70.2425 211.444C58.493 192.239 53.3143 169.7 55.557 147.238C57.7997 124.776 67.3334 103.699 82.6495 87.1859C84.154 85.5637 84.1604 83.0314 82.5943 81.4686L50.4829 49.4256Z"/>
</mask>
<path d="M50.4829 49.4256C48.9215 47.8676 46.3892 47.8644 44.8679 49.4616C20.8313 74.6981 5.86587 107.234 2.39928 141.953C-1.06723 176.673 7.17046 211.514 25.7438 240.987C26.92 242.853 29.4035 243.35 31.2418 242.13L69.0604 217.037C70.9037 215.814 71.397 213.331 70.2425 211.444C58.493 192.239 53.3143 169.7 55.557 147.238C57.7997 124.776 67.3334 103.699 82.6495 87.1859C84.154 85.5637 84.1604 83.0314 82.5943 81.4686L50.4829 49.4256Z" stroke="#2D6FD0" stroke-width="104.477" mask="url(#path-3-inside-2_2814_487092)"/>
<mask id="path-4-inside-3_2814_487092" fill="white">
<path d="M35.1539 247.752C33.3693 249.054 32.9742 251.56 34.3213 253.311C45.9862 268.471 60.3219 281.374 76.6223 291.384C78.5048 292.54 80.9552 291.884 82.0629 289.973L104.831 250.69C105.938 248.779 105.282 246.338 103.415 245.157C93.5151 238.897 84.7466 231.005 77.4826 221.816C76.1126 220.083 73.6164 219.687 71.8319 220.989L35.1539 247.752Z"/>
</mask>
<path d="M35.1539 247.752C33.3693 249.054 32.9742 251.56 34.3213 253.311C45.9862 268.471 60.3219 281.374 76.6223 291.384C78.5048 292.54 80.9552 291.884 82.0629 289.973L104.831 250.69C105.938 248.779 105.282 246.338 103.415 245.157C93.5151 238.897 84.7466 231.005 77.4826 221.816C76.1126 220.083 73.6164 219.687 71.8319 220.989L35.1539 247.752Z" fill="#22549E" stroke="#22549E" stroke-width="104.477" mask="url(#path-4-inside-3_2814_487092)"/>
<mask id="path-5-inside-4_2814_487092" fill="white">
<path d="M89.38 293.949C88.3778 295.918 89.1592 298.331 91.1528 299.283C99.9296 303.473 109.077 306.839 118.476 309.338C120.611 309.906 122.77 308.574 123.283 306.426L133.828 262.263C134.341 260.114 133.012 257.964 130.885 257.369C125.577 255.883 120.396 253.976 115.392 251.667C113.386 250.741 110.98 251.518 109.978 253.486L89.38 293.949Z"/>
</mask>
<path d="M89.38 293.949C88.3778 295.918 89.1592 298.331 91.1528 299.283C99.9296 303.473 109.077 306.839 118.476 309.338C120.611 309.906 122.77 308.574 123.283 306.426L133.828 262.263C134.341 260.114 133.012 257.964 130.885 257.369C125.577 255.883 120.396 253.976 115.392 251.667C113.386 250.741 110.98 251.518 109.978 253.486L89.38 293.949Z" fill="#17396B" stroke="#17396B" stroke-width="104.477" mask="url(#path-5-inside-4_2814_487092)"/>
</svg>
