<svg width="684" height="341" viewBox="0 0 684 341" fill="none" xmlns="http://www.w3.org/2000/svg">
<path d="M30.8125 7.57812L30.8125 315.352" stroke="#F5F6F7"/>
<path d="M139 7.57812L139 315.352" stroke="#F5F6F7"/>
<path d="M247 7.57812L247 315.352" stroke="#F5F6F7"/>
<path d="M463 7L463 316" stroke="#F5F6F7"/>
<path d="M355 6L355 315" stroke="#F5F6F7"/>
<path d="M571 7L571 316" stroke="#F5F6F7"/>
<path d="M679 7L679 316" stroke="#F5F6F7"/>
<path d="M31.9062 315.992H554.543" stroke="#F5F6F7"/>
<path d="M32 265H680" stroke="#F5F6F7"/>
<path d="M31 213L680 213" stroke="#F5F6F7"/>
<path d="M31 162L680 162" stroke="#F5F6F7"/>
<path d="M31 110L680 110" stroke="#F5F6F7"/>
<path d="M31 58L680 57.9999" stroke="#F5F6F7"/>
<path d="M30.8125 6.9375L554.55 6.93745" stroke="#F5F6F7"/>
<path d="M31 316L680 316" stroke="#F5F6F7"/>
<path d="M30.8125 6.29688L30.8125 316.635" stroke="#F5F6F7"/>
<path d="M35.0091 339.791C33.0651 339.791 31.6611 338.195 31.6611 335.519C31.6611 332.843 33.0651 331.247 35.0091 331.247C36.9531 331.247 38.3691 332.843 38.3691 335.519C38.3691 338.195 36.9531 339.791 35.0091 339.791ZM35.0091 338.999C36.4731 338.999 37.4811 337.763 37.4811 335.519C37.4811 333.275 36.4731 332.039 35.0091 332.039C33.5451 332.039 32.5371 333.275 32.5371 335.519C32.5371 337.763 33.5451 338.999 35.0091 338.999ZM39.067 331.319H41.911V339.719H41.047V332.087H39.067V331.319ZM44.5669 339.779C44.2189 339.779 43.9309 339.491 43.9309 339.119C43.9309 338.747 44.2189 338.471 44.5669 338.471C44.9149 338.471 45.2149 338.747 45.2149 339.119C45.2149 339.491 44.9149 339.779 44.5669 339.779ZM49.681 339.791C47.737 339.791 46.333 338.195 46.333 335.519C46.333 332.843 47.737 331.247 49.681 331.247C51.625 331.247 53.041 332.843 53.041 335.519C53.041 338.195 51.625 339.791 49.681 339.791ZM49.681 338.999C51.145 338.999 52.153 337.763 52.153 335.519C52.153 333.275 51.145 332.039 49.681 332.039C48.217 332.039 47.209 333.275 47.209 335.519C47.209 337.763 48.217 338.999 49.681 338.999ZM53.7389 331.319H56.5829V339.719H55.7189V332.087H53.7389V331.319ZM59.2388 339.779C58.8908 339.779 58.6028 339.491 58.6028 339.119C58.6028 338.747 58.8908 338.471 59.2388 338.471C59.5868 338.471 59.8868 338.747 59.8868 339.119C59.8868 339.491 59.5868 339.779 59.2388 339.779ZM62.367 338.951H66.987V339.719H61.095V339.107L64.587 335.687C65.535 334.751 65.715 334.187 65.715 333.611C65.715 332.639 65.031 332.039 63.747 332.039C62.763 332.039 62.007 332.339 61.455 332.975L60.843 332.447C61.491 331.679 62.535 331.247 63.819 331.247C65.523 331.247 66.603 332.111 66.603 333.515C66.603 334.319 66.351 335.039 65.223 336.143L62.367 338.951ZM71.3724 339.791C69.4284 339.791 68.0244 338.195 68.0244 335.519C68.0244 332.843 69.4284 331.247 71.3724 331.247C73.3164 331.247 74.7324 332.843 74.7324 335.519C74.7324 338.195 73.3164 339.791 71.3724 339.791ZM71.3724 338.999C72.8364 338.999 73.8444 337.763 73.8444 335.519C73.8444 333.275 72.8364 332.039 71.3724 332.039C69.9084 332.039 68.9004 333.275 68.9004 335.519C68.9004 337.763 69.9084 338.999 71.3724 338.999ZM77.0623 338.951H81.6823V339.719H75.7903V339.107L79.2823 335.687C80.2303 334.751 80.4103 334.187 80.4103 333.611C80.4103 332.639 79.7263 332.039 78.4423 332.039C77.4583 332.039 76.7023 332.339 76.1503 332.975L75.5383 332.447C76.1863 331.679 77.2303 331.247 78.5143 331.247C80.2183 331.247 81.2983 332.111 81.2983 333.515C81.2983 334.319 81.0463 335.039 79.9183 336.143L77.0623 338.951ZM83.8826 338.951H88.5026V339.719H82.6106V339.107L86.1026 335.687C87.0506 334.751 87.2306 334.187 87.2306 333.611C87.2306 332.639 86.5466 332.039 85.2626 332.039C84.2786 332.039 83.5226 332.339 82.9706 332.975L82.3586 332.447C83.0066 331.679 84.0506 331.247 85.3346 331.247C87.0386 331.247 88.1186 332.111 88.1186 333.515C88.1186 334.319 87.8666 335.039 86.7386 336.143L83.8826 338.951Z" fill="#858C95"/>
<path d="M329.972 340.072C328.028 340.072 326.624 338.476 326.624 335.8C326.624 333.124 328.028 331.528 329.972 331.528C331.916 331.528 333.332 333.124 333.332 335.8C333.332 338.476 331.916 340.072 329.972 340.072ZM329.972 339.28C331.436 339.28 332.444 338.044 332.444 335.8C332.444 333.556 331.436 332.32 329.972 332.32C328.508 332.32 327.5 333.556 327.5 335.8C327.5 338.044 328.508 339.28 329.972 339.28ZM334.03 331.6H336.874V340H336.01V332.368H334.03V331.6ZM339.53 340.06C339.182 340.06 338.894 339.772 338.894 339.4C338.894 339.028 339.182 338.752 339.53 338.752C339.878 338.752 340.178 339.028 340.178 339.4C340.178 339.772 339.878 340.06 339.53 340.06ZM344.644 340.072C342.7 340.072 341.296 338.476 341.296 335.8C341.296 333.124 342.7 331.528 344.644 331.528C346.588 331.528 348.004 333.124 348.004 335.8C348.004 338.476 346.588 340.072 344.644 340.072ZM344.644 339.28C346.108 339.28 347.116 338.044 347.116 335.8C347.116 333.556 346.108 332.32 344.644 332.32C343.18 332.32 342.172 333.556 342.172 335.8C342.172 338.044 343.18 339.28 344.644 339.28ZM348.702 331.6H351.546V340H350.682V332.368H348.702V331.6ZM354.202 340.06C353.854 340.06 353.566 339.772 353.566 339.4C353.566 339.028 353.854 338.752 354.202 338.752C354.55 338.752 354.85 339.028 354.85 339.4C354.85 339.772 354.55 340.06 354.202 340.06ZM357.33 339.232H361.95V340H356.058V339.388L359.55 335.968C360.498 335.032 360.678 334.468 360.678 333.892C360.678 332.92 359.994 332.32 358.71 332.32C357.726 332.32 356.97 332.62 356.418 333.256L355.806 332.728C356.454 331.96 357.498 331.528 358.782 331.528C360.486 331.528 361.566 332.392 361.566 333.796C361.566 334.6 361.314 335.32 360.186 336.424L357.33 339.232ZM366.335 340.072C364.391 340.072 362.987 338.476 362.987 335.8C362.987 333.124 364.391 331.528 366.335 331.528C368.279 331.528 369.695 333.124 369.695 335.8C369.695 338.476 368.279 340.072 366.335 340.072ZM366.335 339.28C367.799 339.28 368.807 338.044 368.807 335.8C368.807 333.556 367.799 332.32 366.335 332.32C364.871 332.32 363.863 333.556 363.863 335.8C363.863 338.044 364.871 339.28 366.335 339.28ZM372.025 339.232H376.645V340H370.753V339.388L374.245 335.968C375.193 335.032 375.373 334.468 375.373 333.892C375.373 332.92 374.689 332.32 373.405 332.32C372.421 332.32 371.665 332.62 371.113 333.256L370.501 332.728C371.149 331.96 372.193 331.528 373.477 331.528C375.181 331.528 376.261 332.392 376.261 333.796C376.261 334.6 376.009 335.32 374.881 336.424L372.025 339.232ZM380.585 335.2C382.385 335.296 383.285 336.244 383.285 337.588C383.285 338.992 382.265 340.072 380.237 340.072C379.025 340.072 377.861 339.652 377.213 338.992L377.633 338.308C378.173 338.872 379.145 339.28 380.237 339.28C381.629 339.28 382.397 338.632 382.397 337.588C382.397 336.58 381.689 335.92 380.129 335.92H379.529V335.284L381.857 332.368H377.561V331.6H382.961V332.212L380.585 335.2Z" fill="#858C95"/>
<path d="M624.232 340.072C622.288 340.072 620.884 338.476 620.884 335.8C620.884 333.124 622.288 331.528 624.232 331.528C626.176 331.528 627.592 333.124 627.592 335.8C627.592 338.476 626.176 340.072 624.232 340.072ZM624.232 339.28C625.696 339.28 626.704 338.044 626.704 335.8C626.704 333.556 625.696 332.32 624.232 332.32C622.768 332.32 621.76 333.556 621.76 335.8C621.76 338.044 622.768 339.28 624.232 339.28ZM628.29 331.6H631.134V340H630.27V332.368H628.29V331.6ZM633.79 340.06C633.442 340.06 633.154 339.772 633.154 339.4C633.154 339.028 633.442 338.752 633.79 338.752C634.138 338.752 634.438 339.028 634.438 339.4C634.438 339.772 634.138 340.06 633.79 340.06ZM638.904 340.072C636.96 340.072 635.556 338.476 635.556 335.8C635.556 333.124 636.96 331.528 638.904 331.528C640.848 331.528 642.264 333.124 642.264 335.8C642.264 338.476 640.848 340.072 638.904 340.072ZM638.904 339.28C640.368 339.28 641.376 338.044 641.376 335.8C641.376 333.556 640.368 332.32 638.904 332.32C637.44 332.32 636.432 333.556 636.432 335.8C636.432 338.044 637.44 339.28 638.904 339.28ZM644.594 339.232H649.214V340H643.322V339.388L646.814 335.968C647.762 335.032 647.942 334.468 647.942 333.892C647.942 332.92 647.258 332.32 645.974 332.32C644.99 332.32 644.234 332.62 643.682 333.256L643.07 332.728C643.718 331.96 644.762 331.528 646.046 331.528C647.75 331.528 648.83 332.392 648.83 333.796C648.83 334.6 648.578 335.32 647.45 336.424L644.594 339.232ZM651.063 340.06C650.715 340.06 650.427 339.772 650.427 339.4C650.427 339.028 650.715 338.752 651.063 338.752C651.411 338.752 651.711 339.028 651.711 339.4C651.711 339.772 651.411 340.06 651.063 340.06ZM654.191 339.232H658.811V340H652.919V339.388L656.411 335.968C657.359 335.032 657.539 334.468 657.539 333.892C657.539 332.92 656.855 332.32 655.571 332.32C654.587 332.32 653.831 332.62 653.279 333.256L652.667 332.728C653.315 331.96 654.359 331.528 655.643 331.528C657.347 331.528 658.427 332.392 658.427 333.796C658.427 334.6 658.175 335.32 657.047 336.424L654.191 339.232ZM663.197 340.072C661.253 340.072 659.849 338.476 659.849 335.8C659.849 333.124 661.253 331.528 663.197 331.528C665.141 331.528 666.557 333.124 666.557 335.8C666.557 338.476 665.141 340.072 663.197 340.072ZM663.197 339.28C664.661 339.28 665.669 338.044 665.669 335.8C665.669 333.556 664.661 332.32 663.197 332.32C661.733 332.32 660.725 333.556 660.725 335.8C660.725 338.044 661.733 339.28 663.197 339.28ZM668.886 339.232H673.506V340H667.614V339.388L671.106 335.968C672.054 335.032 672.234 334.468 672.234 333.892C672.234 332.92 671.55 332.32 670.266 332.32C669.282 332.32 668.526 332.62 667.974 333.256L667.362 332.728C668.01 331.96 669.054 331.528 670.338 331.528C672.042 331.528 673.122 332.392 673.122 333.796C673.122 334.6 672.87 335.32 671.742 336.424L668.886 339.232ZM677.447 335.2C679.247 335.296 680.147 336.244 680.147 337.588C680.147 338.992 679.127 340.072 677.099 340.072C675.887 340.072 674.723 339.652 674.075 338.992L674.495 338.308C675.035 338.872 676.007 339.28 677.099 339.28C678.491 339.28 679.259 338.632 679.259 337.588C679.259 336.58 678.551 335.92 676.991 335.92H676.391V335.284L678.719 332.368H674.423V331.6H679.823V332.212L677.447 335.2Z" fill="#858C95"/>
<path d="M16.9366 313.981C19.4686 313.981 20.4286 314.977 20.4286 316.465C20.4286 317.893 19.4326 319.01 17.3806 319.01C16.1686 319.01 15.0166 318.589 14.3686 317.929L14.7886 317.245C15.3286 317.809 16.2886 318.217 17.3686 318.217C18.7966 318.217 19.5526 317.521 19.5526 316.501C19.5526 315.421 18.8806 314.749 16.7446 314.749H14.9566L15.3886 310.537H19.9846V311.305H16.1446L15.8566 313.981H16.9366Z" fill="#858C95"/>
<path d="M14.2191 207.662H20.3871V208.274L16.8711 216.062H15.9351L19.3911 208.43H15.0711V210.003H14.2191V207.662Z" fill="#858C95"/>
<path d="M16.8355 105.005C19.0675 105.005 20.2795 106.553 20.2795 109.205C20.2795 112.061 18.7195 113.549 16.4395 113.549C15.6835 113.549 14.9755 113.417 14.4475 113.093L14.7955 112.397C15.2275 112.685 15.8035 112.793 16.4275 112.793C18.2395 112.793 19.4035 111.629 19.4035 109.349C19.4035 109.157 19.3915 108.917 19.3675 108.665C18.9475 109.589 17.9635 110.105 16.7995 110.105C15.1315 110.105 13.9675 109.121 13.9675 107.585C13.9675 106.013 15.2035 105.005 16.8355 105.005ZM16.9315 109.373C18.2155 109.373 19.0915 108.581 19.0915 107.537C19.0915 106.613 18.3235 105.737 16.8715 105.737C15.6595 105.737 14.8195 106.445 14.8195 107.561C14.8195 108.665 15.6355 109.373 16.9315 109.373Z" fill="#858C95"/>
<path d="M12.3376 2.48281H15.1816V10.8828H14.3176V3.25081H12.3376V2.48281ZM16.6736 2.48281H19.5176V10.8828H18.6536V3.25081H16.6736V2.48281Z" fill="#858C95"/>
<path d="M679 198.997C679 198.997 471.5 202.997 355.5 187.498C239.5 171.998 30.5 96.9974 30.5 96.9974" stroke="#2D6FD0" stroke-width="2"/>
<path d="M32 102C30.6741 102 29.4026 101.473 28.4649 100.536C27.5273 99.5985 27.0003 98.3271 27 97.0013C26.9997 95.6754 27.526 94.4037 28.4631 93.4658C29.4003 92.5279 30.6716 92.0007 31.9975 92C33.3234 91.9993 34.5952 92.5253 35.5333 93.4623C36.4714 94.3992 36.999 95.6704 37 96.9963C37.001 98.3221 36.4753 99.5941 35.5386 100.532C34.6019 101.471 33.3309 101.999 32.005 102H32Z" fill="#2D6FD0"/>
<path d="M355 193C353.674 193 352.403 192.473 351.465 191.536C350.527 190.599 350 189.327 350 188.001C350 186.675 350.526 185.404 351.463 184.466C352.4 183.528 353.672 183.001 354.998 183C356.323 182.999 357.595 183.525 358.533 184.462C359.471 185.399 359.999 186.67 360 187.996C360.001 189.322 359.475 190.594 358.539 191.532C357.602 192.471 356.331 192.999 355.005 193H355Z" fill="#2D6FD0"/>
<path d="M679 205C677.674 205 676.403 204.473 675.465 203.536C674.527 202.599 674 201.327 674 200.001C674 198.675 674.526 197.404 675.463 196.466C676.4 195.528 677.672 195.001 678.997 195C680.323 194.999 681.595 195.525 682.533 196.462C683.471 197.399 683.999 198.67 684 199.996C684.001 201.322 683.475 202.594 682.539 203.532C681.602 204.471 680.331 204.999 679.005 205L679 205Z" fill="#2D6FD0"/>
<path d="M622.397 175.42H615.117V173.8H625.197L618.037 188H616.057L622.397 175.42ZM637.119 188.2C636.145 188.173 635.285 187.94 634.539 187.5C633.792 187.06 633.165 186.487 632.659 185.78C632.165 185.06 631.792 184.287 631.539 183.46C631.285 182.62 631.159 181.8 631.159 181C631.159 180.147 631.292 179.293 631.559 178.44C631.839 177.587 632.239 176.813 632.759 176.12C633.279 175.413 633.905 174.853 634.639 174.44C635.372 174.013 636.199 173.8 637.119 173.8C638.105 173.8 638.965 174.027 639.699 174.48C640.445 174.933 641.065 175.52 641.559 176.24C642.065 176.96 642.445 177.74 642.699 178.58C642.952 179.42 643.079 180.227 643.079 181C643.079 181.867 642.939 182.727 642.659 183.58C642.392 184.42 641.999 185.187 641.479 185.88C640.959 186.573 640.332 187.133 639.599 187.56C638.865 187.973 638.039 188.187 637.119 188.2ZM632.979 181C633.005 181.653 633.105 182.307 633.279 182.96C633.452 183.613 633.712 184.213 634.059 184.76C634.405 185.307 634.832 185.747 635.339 186.08C635.845 186.413 636.439 186.58 637.119 186.58C637.825 186.58 638.439 186.407 638.959 186.06C639.479 185.7 639.905 185.24 640.239 184.68C640.585 184.107 640.839 183.5 640.999 182.86C641.172 182.207 641.259 181.587 641.259 181C641.259 180.347 641.165 179.693 640.979 179.04C640.805 178.387 640.539 177.787 640.179 177.24C639.819 176.693 639.385 176.253 638.879 175.92C638.372 175.587 637.785 175.42 637.119 175.42C636.412 175.42 635.799 175.6 635.279 175.96C634.759 176.307 634.325 176.767 633.979 177.34C633.645 177.9 633.392 178.507 633.219 179.16C633.059 179.8 632.979 180.413 632.979 181ZM644.947 188C644.947 187.2 645.014 186.493 645.147 185.88C645.294 185.253 645.501 184.693 645.767 184.2C646.047 183.707 646.381 183.273 646.767 182.9C647.154 182.527 647.594 182.193 648.087 181.9C648.607 181.593 649.141 181.313 649.687 181.06C650.234 180.807 650.741 180.54 651.207 180.26C651.674 179.98 652.047 179.647 652.327 179.26C652.621 178.86 652.767 178.367 652.767 177.78C652.767 177.313 652.667 176.893 652.467 176.52C652.267 176.133 651.967 175.827 651.567 175.6C651.167 175.373 650.654 175.26 650.027 175.26C649.401 175.26 648.834 175.367 648.327 175.58C647.834 175.793 647.407 176.047 647.047 176.34C646.687 176.633 646.401 176.913 646.187 177.18L645.047 176.04C645.154 175.907 645.341 175.707 645.607 175.44C645.887 175.173 646.241 174.9 646.667 174.62C647.107 174.34 647.621 174.107 648.207 173.92C648.794 173.72 649.461 173.62 650.207 173.62C651.207 173.62 652.041 173.807 652.707 174.18C653.374 174.553 653.874 175.053 654.207 175.68C654.554 176.307 654.727 177 654.727 177.76C654.727 178.44 654.601 179.027 654.347 179.52C654.094 180 653.767 180.407 653.367 180.74C652.967 181.073 652.527 181.367 652.047 181.62C651.581 181.873 651.127 182.113 650.687 182.34C649.847 182.74 649.181 183.107 648.687 183.44C648.194 183.773 647.814 184.1 647.547 184.42C647.294 184.727 647.121 185.04 647.027 185.36C646.947 185.68 646.901 186.027 646.887 186.4H654.747V188H644.947ZM661.444 188.18C660.631 188.18 659.891 188.053 659.224 187.8C658.571 187.533 658.024 187.167 657.584 186.7C657.158 186.22 656.878 185.667 656.744 185.04L657.744 183.98C657.784 184.367 657.958 184.76 658.264 185.16C658.571 185.56 658.991 185.893 659.524 186.16C660.071 186.413 660.704 186.54 661.424 186.54C662.038 186.54 662.591 186.44 663.084 186.24C663.578 186.027 663.971 185.733 664.264 185.36C664.558 184.987 664.704 184.553 664.704 184.06C664.704 183.513 664.524 183.047 664.164 182.66C663.804 182.273 663.291 181.98 662.624 181.78C661.971 181.58 661.191 181.48 660.284 181.48H659.604V179.98H660.284C661.511 179.98 662.491 179.787 663.224 179.4C663.958 179 664.324 178.407 664.324 177.62C664.324 177.113 664.184 176.68 663.904 176.32C663.638 175.947 663.278 175.667 662.824 175.48C662.384 175.28 661.911 175.18 661.404 175.18C660.551 175.18 659.824 175.373 659.224 175.76C658.638 176.133 658.224 176.573 657.984 177.08L656.804 175.86C657.071 175.393 657.444 174.993 657.924 174.66C658.404 174.327 658.944 174.073 659.544 173.9C660.144 173.713 660.758 173.62 661.384 173.62C662.304 173.62 663.124 173.793 663.844 174.14C664.578 174.487 665.151 174.953 665.564 175.54C665.978 176.127 666.184 176.793 666.184 177.54C666.184 178.073 666.078 178.553 665.864 178.98C665.651 179.393 665.338 179.74 664.924 180.02C664.511 180.3 664.011 180.513 663.424 180.66C664.051 180.767 664.598 180.993 665.064 181.34C665.531 181.687 665.891 182.113 666.144 182.62C666.398 183.127 666.524 183.68 666.524 184.28C666.524 185.107 666.284 185.813 665.804 186.4C665.324 186.973 664.698 187.413 663.924 187.72C663.164 188.027 662.338 188.18 661.444 188.18Z" fill="#2F2F2F"/>
<path d="M42.1886 74.6C42.1886 73.68 42.4086 72.8533 42.8486 72.12C43.3019 71.3733 43.9153 70.7867 44.6886 70.36C45.4619 69.92 46.3219 69.7 47.2686 69.7C48.2953 69.7 49.1886 69.9467 49.9486 70.44C50.7219 70.92 51.3219 71.6133 51.7486 72.52C52.1886 73.4267 52.4086 74.52 52.4086 75.8C52.4086 77.6667 52.1886 79.2267 51.7486 80.48C51.3086 81.72 50.6886 82.6533 49.8886 83.28C49.0886 83.8933 48.1553 84.2 47.0886 84.2C46.1686 84.2 45.3286 83.98 44.5686 83.54C43.8219 83.0867 43.2353 82.46 42.8086 81.66L43.8886 80.6C44.1819 81.2133 44.6153 81.7067 45.1886 82.08C45.7753 82.4533 46.4153 82.64 47.1086 82.64C47.8419 82.64 48.4753 82.4267 49.0086 82C49.5553 81.56 49.9819 80.9267 50.2886 80.1C50.5953 79.2733 50.7486 78.2733 50.7486 77.1C50.5619 77.5533 50.2819 77.9533 49.9086 78.3C49.5486 78.6467 49.1286 78.9133 48.6486 79.1C48.1686 79.2867 47.6486 79.38 47.0886 79.38C46.1819 79.38 45.3553 79.1667 44.6086 78.74C43.8619 78.3133 43.2686 77.74 42.8286 77.02C42.4019 76.2867 42.1886 75.48 42.1886 74.6ZM47.2486 71.2C46.6353 71.2 46.0753 71.3533 45.5686 71.66C45.0619 71.9667 44.6553 72.38 44.3486 72.9C44.0419 73.4067 43.8886 73.9667 43.8886 74.58C43.8886 75.1933 44.0419 75.7533 44.3486 76.26C44.6553 76.7667 45.0619 77.1733 45.5686 77.48C46.0886 77.7867 46.6553 77.94 47.2686 77.94C47.8819 77.94 48.4419 77.7867 48.9486 77.48C49.4686 77.1733 49.8819 76.7667 50.1886 76.26C50.4953 75.7533 50.6486 75.2 50.6486 74.6C50.6486 73.9867 50.4886 73.4267 50.1686 72.92C49.8619 72.4 49.4486 71.9867 48.9286 71.68C48.4219 71.36 47.8619 71.2 47.2486 71.2ZM59.4161 84C59.4161 83.2 59.4828 82.4933 59.6161 81.88C59.7628 81.2533 59.9694 80.6933 60.2361 80.2C60.5161 79.7067 60.8494 79.2733 61.2361 78.9C61.6228 78.5267 62.0628 78.1933 62.5561 77.9C63.0761 77.5933 63.6094 77.3133 64.1561 77.06C64.7028 76.8067 65.2094 76.54 65.6761 76.26C66.1428 75.98 66.5161 75.6467 66.7961 75.26C67.0894 74.86 67.2361 74.3667 67.2361 73.78C67.2361 73.3133 67.1361 72.8933 66.9361 72.52C66.7361 72.1333 66.4361 71.8267 66.0361 71.6C65.6361 71.3733 65.1228 71.26 64.4961 71.26C63.8694 71.26 63.3028 71.3667 62.7961 71.58C62.3028 71.7933 61.8761 72.0467 61.5161 72.34C61.1561 72.6333 60.8694 72.9133 60.6561 73.18L59.5161 72.04C59.6228 71.9067 59.8094 71.7067 60.0761 71.44C60.3561 71.1733 60.7094 70.9 61.1361 70.62C61.5761 70.34 62.0894 70.1067 62.6761 69.92C63.2628 69.72 63.9294 69.62 64.6761 69.62C65.6761 69.62 66.5094 69.8067 67.1761 70.18C67.8428 70.5533 68.3428 71.0533 68.6761 71.68C69.0228 72.3067 69.1961 73 69.1961 73.76C69.1961 74.44 69.0694 75.0267 68.8161 75.52C68.5628 76 68.2361 76.4067 67.8361 76.74C67.4361 77.0733 66.9961 77.3667 66.5161 77.62C66.0494 77.8733 65.5961 78.1133 65.1561 78.34C64.3161 78.74 63.6494 79.1067 63.1561 79.44C62.6628 79.7733 62.2828 80.1 62.0161 80.42C61.7628 80.7267 61.5894 81.04 61.4961 81.36C61.4161 81.68 61.3694 82.0267 61.3561 82.4H69.2161V84H59.4161ZM75.913 84.18C75.0996 84.18 74.3596 84.0533 73.693 83.8C73.0396 83.5333 72.493 83.1667 72.053 82.7C71.6263 82.22 71.3463 81.6667 71.213 81.04L72.213 79.98C72.253 80.3667 72.4263 80.76 72.733 81.16C73.0396 81.56 73.4596 81.8933 73.993 82.16C74.5396 82.4133 75.173 82.54 75.893 82.54C76.5063 82.54 77.0596 82.44 77.553 82.24C78.0463 82.0267 78.4396 81.7333 78.733 81.36C79.0263 80.9867 79.173 80.5533 79.173 80.06C79.173 79.5133 78.993 79.0467 78.633 78.66C78.273 78.2733 77.7596 77.98 77.093 77.78C76.4396 77.58 75.6596 77.48 74.753 77.48H74.073V75.98H74.753C75.9796 75.98 76.9596 75.7867 77.693 75.4C78.4263 75 78.793 74.4067 78.793 73.62C78.793 73.1133 78.653 72.68 78.373 72.32C78.1063 71.9467 77.7463 71.6667 77.293 71.48C76.853 71.28 76.3796 71.18 75.873 71.18C75.0196 71.18 74.293 71.3733 73.693 71.76C73.1063 72.1333 72.693 72.5733 72.453 73.08L71.273 71.86C71.5396 71.3933 71.913 70.9933 72.393 70.66C72.873 70.3267 73.413 70.0733 74.013 69.9C74.613 69.7133 75.2263 69.62 75.853 69.62C76.773 69.62 77.593 69.7933 78.313 70.14C79.0463 70.4867 79.6196 70.9533 80.033 71.54C80.4463 72.1267 80.653 72.7933 80.653 73.54C80.653 74.0733 80.5463 74.5533 80.333 74.98C80.1196 75.3933 79.8063 75.74 79.393 76.02C78.9796 76.3 78.4796 76.5133 77.893 76.66C78.5196 76.7667 79.0663 76.9933 79.533 77.34C79.9996 77.6867 80.3596 78.1133 80.613 78.62C80.8663 79.1267 80.993 79.68 80.993 80.28C80.993 81.1067 80.753 81.8133 80.273 82.4C79.793 82.9733 79.1663 83.4133 78.393 83.72C77.633 84.0267 76.8063 84.18 75.913 84.18ZM87.6122 84.18C86.7989 84.18 86.0589 84.0533 85.3922 83.8C84.7389 83.5333 84.1922 83.1667 83.7522 82.7C83.3255 82.22 83.0455 81.6667 82.9122 81.04L83.9122 79.98C83.9522 80.3667 84.1255 80.76 84.4322 81.16C84.7389 81.56 85.1589 81.8933 85.6922 82.16C86.2389 82.4133 86.8722 82.54 87.5922 82.54C88.2055 82.54 88.7589 82.44 89.2522 82.24C89.7455 82.0267 90.1389 81.7333 90.4322 81.36C90.7255 80.9867 90.8722 80.5533 90.8722 80.06C90.8722 79.5133 90.6922 79.0467 90.3322 78.66C89.9722 78.2733 89.4589 77.98 88.7922 77.78C88.1389 77.58 87.3589 77.48 86.4522 77.48H85.7722V75.98H86.4522C87.6789 75.98 88.6589 75.7867 89.3922 75.4C90.1255 75 90.4922 74.4067 90.4922 73.62C90.4922 73.1133 90.3522 72.68 90.0722 72.32C89.8055 71.9467 89.4455 71.6667 88.9922 71.48C88.5522 71.28 88.0789 71.18 87.5722 71.18C86.7189 71.18 85.9922 71.3733 85.3922 71.76C84.8055 72.1333 84.3922 72.5733 84.1522 73.08L82.9722 71.86C83.2389 71.3933 83.6122 70.9933 84.0922 70.66C84.5722 70.3267 85.1122 70.0733 85.7122 69.9C86.3122 69.7133 86.9255 69.62 87.5522 69.62C88.4722 69.62 89.2922 69.7933 90.0122 70.14C90.7455 70.4867 91.3189 70.9533 91.7322 71.54C92.1455 72.1267 92.3522 72.7933 92.3522 73.54C92.3522 74.0733 92.2455 74.5533 92.0322 74.98C91.8189 75.3933 91.5055 75.74 91.0922 76.02C90.6789 76.3 90.1789 76.5133 89.5922 76.66C90.2189 76.7667 90.7655 76.9933 91.2322 77.34C91.6989 77.6867 92.0589 78.1133 92.3122 78.62C92.5655 79.1267 92.6922 79.68 92.6922 80.28C92.6922 81.1067 92.4522 81.8133 91.9722 82.4C91.4922 82.9733 90.8655 83.4133 90.0922 83.72C89.3322 84.0267 88.5055 84.18 87.6122 84.18Z" fill="#2F2F2F"/>
<path d="M372.014 161.42H364.734V159.8H374.814L367.654 174H365.674L372.014 161.42ZM388.216 172.4V174H381.156V172.4H383.876V161.5C383.769 161.66 383.596 161.84 383.356 162.04C383.116 162.227 382.836 162.413 382.516 162.6C382.209 162.773 381.896 162.92 381.576 163.04C381.256 163.16 380.963 163.22 380.696 163.22V161.58C381.056 161.58 381.416 161.487 381.776 161.3C382.149 161.113 382.489 160.893 382.796 160.64C383.116 160.387 383.369 160.16 383.556 159.96C383.756 159.76 383.863 159.653 383.876 159.64H385.676V172.4H388.216ZM394.284 174.18C393.471 174.18 392.731 174.053 392.064 173.8C391.411 173.533 390.864 173.167 390.424 172.7C389.997 172.22 389.717 171.667 389.584 171.04L390.584 169.98C390.624 170.367 390.797 170.76 391.104 171.16C391.411 171.56 391.831 171.893 392.364 172.16C392.911 172.413 393.544 172.54 394.264 172.54C394.877 172.54 395.431 172.44 395.924 172.24C396.417 172.027 396.811 171.733 397.104 171.36C397.397 170.987 397.544 170.553 397.544 170.06C397.544 169.513 397.364 169.047 397.004 168.66C396.644 168.273 396.131 167.98 395.464 167.78C394.811 167.58 394.031 167.48 393.124 167.48H392.444V165.98H393.124C394.351 165.98 395.331 165.787 396.064 165.4C396.797 165 397.164 164.407 397.164 163.62C397.164 163.113 397.024 162.68 396.744 162.32C396.477 161.947 396.117 161.667 395.664 161.48C395.224 161.28 394.751 161.18 394.244 161.18C393.391 161.18 392.664 161.373 392.064 161.76C391.477 162.133 391.064 162.573 390.824 163.08L389.644 161.86C389.911 161.393 390.284 160.993 390.764 160.66C391.244 160.327 391.784 160.073 392.384 159.9C392.984 159.713 393.597 159.62 394.224 159.62C395.144 159.62 395.964 159.793 396.684 160.14C397.417 160.487 397.991 160.953 398.404 161.54C398.817 162.127 399.024 162.793 399.024 163.54C399.024 164.073 398.917 164.553 398.704 164.98C398.491 165.393 398.177 165.74 397.764 166.02C397.351 166.3 396.851 166.513 396.264 166.66C396.891 166.767 397.437 166.993 397.904 167.34C398.371 167.687 398.731 168.113 398.984 168.62C399.237 169.127 399.364 169.68 399.364 170.28C399.364 171.107 399.124 171.813 398.644 172.4C398.164 172.973 397.537 173.413 396.764 173.72C396.004 174.027 395.177 174.18 394.284 174.18ZM407.583 174V170.38H400.903V168.8L408.123 159.8H409.343V168.78H411.103V170.38H409.343V174H407.583ZM402.743 168.78H407.763V162.5L402.743 168.78Z" fill="#2F2F2F"/>
</svg>
