<svg width="64" height="70" viewBox="0 0 64 70" fill="none" xmlns="http://www.w3.org/2000/svg">
<g clip-path="url(#clip0_1960_268550)">
<path d="M26.2627 35.6095H19.7633C19.6969 35.6095 19.6638 35.6425 19.6306 35.7085C19.4648 38.6458 18.9011 41.7811 18.1052 44.3554C18.1052 44.3884 18.1052 44.4214 18.1384 44.4544C18.1715 44.4874 18.2047 44.4874 18.2379 44.4874H20.4596C20.5259 44.4874 20.5591 44.4544 20.5591 44.4214C21.1892 42.4412 21.6866 39.867 21.8855 37.6887H24.0078V44.3884C24.0078 44.4544 24.0741 44.5204 24.1405 44.5204H26.2627C26.3291 44.5204 26.3954 44.4544 26.3954 44.3884V35.7085C26.3954 35.6425 26.3291 35.6095 26.2627 35.6095ZM53.7529 35.6095H51.6306C51.5643 35.6095 51.498 35.6755 51.498 35.7415V42.4412C51.0337 42.5732 50.5695 42.6392 50.0389 42.6392C48.6462 42.6392 48.3145 42.2102 48.3145 40.362V35.7415C48.3145 35.6755 48.2482 35.6095 48.1819 35.6095H46.0928C46.0265 35.6095 45.9601 35.6755 45.9601 35.7415V40.593C45.9601 43.6293 46.9881 44.7844 49.6078 44.7844C51.1 44.7844 52.7912 44.3884 53.786 44.0254C53.8192 43.9924 53.8524 43.9594 53.8524 43.9264V35.7415C53.8855 35.6425 53.8192 35.6095 53.7529 35.6095ZM8.78709 35.6095H6.63165C6.56533 35.6095 6.53217 35.6425 6.53217 35.7085C6.20056 37.0287 5.50419 39.2729 4.57569 41.6161L2.42025 35.7085C2.38709 35.6755 2.35393 35.6425 2.32077 35.6425H0.132165C0.0990042 35.6425 0.0658436 35.6755 0.032683 35.7085C-0.000477655 35.7415 -0.000477655 35.7745 0.032683 35.8075L3.28242 44.6524C2.95082 45.3455 2.65237 45.9066 2.35393 46.4346C2.1218 46.8307 1.92284 47.2267 1.72387 47.6227C1.69071 47.6557 1.69071 47.6887 1.72387 47.7217C1.75704 47.7547 1.7902 47.7877 1.82336 47.7877H4.17776C4.21092 47.7877 4.27724 47.7547 4.27724 47.7217C4.67517 46.9627 5.17258 45.9066 5.63683 44.8175C7.02957 41.5831 8.12387 38.5468 8.95289 35.7745C8.95289 35.7415 8.95289 35.7085 8.91973 35.6755C8.85341 35.6095 8.82025 35.6095 8.78709 35.6095ZM16.5135 42.4412C16.5135 42.4082 16.4804 42.3752 16.4472 42.3752H16.3477C15.8171 42.5732 14.8555 42.7052 14.1923 42.7052C12.7 42.7052 12.0037 42.3092 12.0037 40.065C12.0037 38.2498 12.2358 37.4247 14.1923 37.4247C14.756 37.4247 15.2534 37.4907 15.9166 37.6887C15.9829 37.6887 16.0161 37.6887 16.0493 37.6227C16.2814 37.1607 16.5798 36.5996 16.9114 35.9066V35.8075C16.9114 35.7745 16.8783 35.7415 16.8451 35.7415C15.9829 35.4775 14.955 35.3125 14.0265 35.3125C10.9425 35.3125 9.54978 36.7646 9.54978 40.032C9.54978 43.3323 10.9425 44.8175 14.0265 44.8175C14.7892 44.8175 16.3477 44.6524 17.0772 44.3554C17.1436 44.3224 17.1767 44.2564 17.1436 44.1904L16.5135 42.4412ZM36.7083 35.6095H34.5529C34.4866 35.6095 34.4534 35.6425 34.4534 35.7085C34.1218 37.0617 33.4254 39.2729 32.4969 41.6161L30.3415 35.7085C30.3083 35.6755 30.2752 35.6425 30.242 35.6425H28.0534C28.0202 35.6425 27.9871 35.6755 27.9539 35.7085C27.9208 35.7415 27.9208 35.7745 27.9539 35.8075L31.2037 44.6524C30.8721 45.3455 30.5736 45.9066 30.2752 46.4346C30.043 46.8307 29.8441 47.2267 29.6451 47.6557C29.612 47.6887 29.612 47.7217 29.6451 47.7547C29.6783 47.7877 29.7114 47.8207 29.7446 47.8207H32.099C32.1322 47.8207 32.1985 47.7877 32.1985 47.7547C32.5964 46.9957 33.0938 45.9396 33.5581 44.8505C34.9177 41.6161 36.0451 38.5798 36.8741 35.8075C36.8741 35.7745 36.8741 35.7415 36.841 35.7085C36.7747 35.6095 36.7415 35.6095 36.7083 35.6095ZM44.6669 35.6095H38.3995C38.3332 35.6095 38.2669 35.6755 38.2669 35.7415V44.4214C38.2669 44.4874 38.3332 44.5534 38.3995 44.5534H40.5218C40.5881 44.5534 40.6544 44.4874 40.6544 44.4214V37.7217H43.9373C43.9705 37.7217 44.0368 37.6887 44.0368 37.6557C44.3021 37.0617 44.5342 36.4346 44.7995 35.8075V35.7085C44.7332 35.6095 44.7 35.6095 44.6669 35.6095Z" fill="#EF4058"/>
<path d="M11.3078 22.2769C8.25699 22.2769 7.06321 23.5971 7.06321 26.9304C7.06321 30.3297 8.25699 31.6499 11.3078 31.6499C14.3917 31.6499 15.5855 30.3297 15.5855 26.9304C15.5855 23.5641 14.3917 22.2769 11.3078 22.2769ZM11.3078 29.7027C9.91502 29.7027 9.48394 29.3396 9.48394 26.9634C9.48394 24.4552 9.94819 24.2241 11.3078 24.2241C12.7005 24.2241 13.1648 24.4552 13.1648 26.9634C13.1648 29.3396 12.7337 29.7027 11.3078 29.7027ZM24.0746 29.3396C24.0746 29.3066 24.0415 29.2736 24.0083 29.2736H23.9088C23.3782 29.4717 22.4166 29.6037 21.7534 29.6037C20.2611 29.6037 19.5648 29.2076 19.5648 26.9634C19.5648 25.1482 19.7969 24.3231 21.7534 24.3231C22.3171 24.3231 22.8145 24.3892 23.4777 24.5872C23.544 24.5872 23.5772 24.5872 23.6104 24.5212C23.8425 24.0591 24.1409 23.4981 24.4725 22.805V22.706C24.4725 22.673 24.4394 22.64 24.4062 22.64C23.544 22.376 22.5161 22.2109 21.5876 22.2109C18.5036 22.2109 17.1109 23.6631 17.1109 26.9304C17.1109 30.2307 18.5036 31.7159 21.5876 31.7159C22.3503 31.7159 23.9088 31.5509 24.6383 31.2538C24.7047 31.2208 24.7378 31.1548 24.7047 31.0888L24.0746 29.3396ZM6.4 22.508H0.132642C0.0663212 22.508 0 22.574 0 22.64V31.3198C0 31.3859 0.0663212 31.4519 0.132642 31.4519H2.25492C2.32124 31.4519 2.38756 31.3859 2.38756 31.3198V24.5872H5.63731C5.67047 24.5872 5.73679 24.5542 5.73679 24.5212C6.00207 23.9271 6.2342 23.3 6.49948 22.673V22.574C6.46632 22.541 6.43316 22.508 6.4 22.508Z" fill="#1466AC"/>
<path d="M63.6691 43.5974V43.4653C63.6691 43.3993 63.6691 43.3003 63.7022 43.2343C63.8017 42.0132 63.868 40.5281 63.9343 38.8119V38.6799C63.9675 37.5247 64.0007 36.2706 64.0007 34.9835C64.0007 33.6964 63.9675 32.4422 63.9343 31.2871V31.1551C63.868 29.4719 63.8017 27.9538 63.7022 26.7327C63.7022 26.6667 63.7022 26.5677 63.6691 26.5017V26.3696C63.6691 26.2376 63.6359 26.1386 63.6359 26.0066V25.8746C63.5364 24.5875 63.4701 23.7954 63.4369 23.7294C63.4369 23.5974 63.4038 23.4653 63.4038 23.3663V23.2673C63.3706 23.0363 63.3374 22.8383 63.2711 22.6073C63.2711 22.5743 63.2711 22.5413 63.238 22.5082C62.6742 19.835 61.182 16.8977 59.325 14.6865C58.5955 13.8284 57.8328 13.0693 57.0369 12.4752C56.9706 12.4092 56.0421 11.7492 54.583 10.7261C52.8918 9.57096 50.4711 7.9538 47.7188 6.36964C42.811 3.49835 38.467 1.48515 37.8701 1.25413C37.8369 1.25413 37.8369 1.22112 37.8369 1.22112C36.5437 0.660066 34.9851 0.264026 33.2939 0.0990099C32.9623 0.0660066 32.6307 0.0330033 32.2991 0.0330033C31.9675 0 31.6691 0 31.3706 0H30.9064C28.6514 0.0660066 26.5623 0.462046 24.9043 1.22112C24.6722 1.32013 20.2618 3.33333 15.2545 6.27063L15.0556 6.36964C9.91568 9.37294 5.90325 12.3432 5.73744 12.4752C4.47734 13.3993 3.34988 14.5875 2.3219 16.1056C2.08977 16.4356 2.08977 17.2937 3.08459 17.2937H5.63796C6.73226 17.2937 6.99755 16.6337 8.22449 15.7426C9.58407 14.7525 12.2701 12.7723 17.1779 9.86799C20.726 7.78878 24.0421 6.13861 25.667 5.37954C25.7001 5.37954 25.7333 5.34653 25.7665 5.34653C25.7665 5.34653 25.7996 5.34653 25.7996 5.31353C25.7996 5.31353 25.8328 5.31353 25.8328 5.28053C25.8659 5.28053 25.8991 5.24752 25.8991 5.24752C25.9323 5.24752 25.9654 5.21452 25.9986 5.21452C26.3965 5.0165 26.6618 4.91749 26.6618 4.91749C27.7893 4.42244 29.381 4.09241 31.0722 4.05941H31.7354C32.2328 4.05941 32.7302 4.09241 33.1944 4.15842C34.2224 4.29043 35.1509 4.48845 35.9136 4.81848C35.9799 4.85149 36.0794 4.88449 36.1457 4.91749C36.1457 4.91749 36.1789 4.9505 36.2784 4.9835C37.0411 5.31353 41.153 7.26073 45.6297 9.86799C48.2825 11.4191 50.6369 12.9703 52.2618 14.0924C53.6877 15.0825 54.5499 15.7096 54.583 15.7426C55.2131 16.2046 55.8431 16.8647 56.44 17.5908C57.9323 19.5049 59.1592 22.1122 59.3582 24.1254C59.3582 24.1584 59.4577 24.9505 59.5571 26.3036C59.5571 26.4026 59.5571 26.4686 59.5903 26.5677V26.7657C59.5903 26.8977 59.6235 26.9967 59.6235 27.1287V27.2607C59.6235 27.3267 59.6235 27.4257 59.6566 27.4918C59.6566 27.6568 59.6898 27.8218 59.6898 27.9868C59.6898 28.0858 59.6898 28.1848 59.7229 28.2838V28.3498C59.7229 28.4818 59.7229 28.5809 59.7561 28.7129V28.9769C59.8556 30.6931 59.9219 32.7393 59.9219 34.8845C59.9219 37.0297 59.8556 39.0759 59.7561 40.7921V41.0561C59.7561 41.1881 59.7561 41.2871 59.7229 41.4191V41.4851C59.7229 41.5842 59.7229 41.6832 59.6898 41.7822C59.6898 41.9472 59.6566 42.1122 59.6566 42.2772C59.6566 42.3762 59.6566 42.4422 59.6235 42.5083V42.6403C59.6235 42.7723 59.5903 42.8713 59.5903 43.0033V43.2013C59.5903 43.3003 59.5903 43.3993 59.5571 43.4653C59.4577 44.8185 59.3582 45.6436 59.3582 45.6436C59.1592 47.6568 57.9323 50.264 56.44 52.1782C55.8431 52.9373 55.2131 53.5644 54.583 54.0264C54.5499 54.0264 53.6877 54.6865 52.2618 55.6766C50.6369 56.7987 48.2494 58.3498 45.6297 59.901C41.153 62.5413 37.0079 64.4554 36.2784 64.7855L36.1457 64.8515C36.0794 64.8845 35.9799 64.9175 35.9136 64.9505C35.1509 65.2475 34.2224 65.4785 33.1944 65.6106C32.7302 65.6766 32.2328 65.7096 31.7354 65.7096H31.0722C29.381 65.6766 27.7893 65.3795 26.6618 64.8515C26.6618 64.8515 26.4297 64.7525 25.9986 64.5545C25.9654 64.5215 25.8991 64.5215 25.8659 64.4884C25.8328 64.4554 25.7996 64.4554 25.7665 64.4224C25.7333 64.4224 25.7333 64.3894 25.7001 64.3894C25.667 64.3894 25.6338 64.3564 25.6007 64.3564C25.5675 64.3234 25.5343 64.3234 25.468 64.2904H25.4349C23.7437 63.6304 20.5602 62.0462 17.1779 60.066C12.2369 57.1947 9.58407 55.1815 8.22449 54.1914C6.99755 53.3003 6.73226 52.6403 5.63796 52.6403H3.08459C2.08977 52.6403 2.08977 53.4984 2.3219 53.8284C3.34988 55.3465 4.47734 56.5347 5.73744 57.4587C5.90325 57.5908 9.94884 60.5611 15.0556 63.5644C15.3209 63.7294 15.5861 63.8944 15.8846 64.0264C20.6266 66.7327 24.7053 68.5809 24.9374 68.7129C26.5623 69.4389 28.6846 69.868 30.9395 69.934H31.4038C31.7022 69.934 32.0007 69.934 32.2991 69.901C32.6307 69.901 32.9623 69.868 33.2939 69.835C34.9851 69.67 36.5768 69.2739 37.8369 68.7129C37.8369 68.7129 37.8701 68.7129 37.8701 68.6799C38.4338 68.4158 42.811 66.4026 47.6856 63.5644C50.438 61.9472 52.8587 60.363 54.5499 59.2079C56.0089 58.1848 56.9374 57.5248 57.0038 57.4587C57.7996 56.8647 58.5623 56.1056 59.2919 55.2475C61.1488 53.0363 62.6411 50.099 63.2048 47.4257C63.2048 47.3927 63.2048 47.3597 63.238 47.3267C63.2711 47.0957 63.3374 46.8647 63.3706 46.6667V46.5677C63.4038 46.4356 63.4038 46.3036 63.4038 46.2046C63.4038 46.1386 63.5033 45.3465 63.6027 44.0594V43.9274C63.6691 43.8284 63.6691 43.7294 63.6691 43.5974Z" fill="url(#paint0_linear_1960_268550)"/>
</g>
<defs>
<linearGradient id="paint0_linear_1960_268550" x1="33.0969" y1="0" x2="33.0969" y2="69.9944" gradientUnits="userSpaceOnUse">
<stop offset="0.398" stop-color="#1466AC"/>
<stop offset="0.659" stop-color="#EF4058"/>
</linearGradient>
<clipPath id="clip0_1960_268550">
<rect width="64" height="70" fill="white"/>
</clipPath>
</defs>
</svg>
