<svg width="62" height="106" viewBox="0 0 62 106" fill="none" xmlns="http://www.w3.org/2000/svg">
<g clip-path="url(#clip0_1960_268575)">
<path d="M62 0.046875H0V88.3683H62V0.046875Z" fill="white"/>
<path d="M62 90.8413V64.835L49.7042 60.7188L0 85.8923V105.926L26.9606 93.0065L44.966 98.8597L62 90.8413Z" fill="#E1F1FB"/>
<path d="M62 90.8401V83.25L49.3252 89.6267L34.2339 84.7728L0 101.69V105.925L26.9606 93.0053L44.966 98.8585L62 90.8401Z" fill="#B8DEF7"/>
<path d="M7.3921 57.6765H6.16016V60.9838H6.53922V59.8179H7.34472C8.05546 59.8179 8.64774 59.461 8.64774 58.7472C8.62405 58.0572 8.12653 57.6765 7.3921 57.6765ZM8.24499 58.7472C8.24499 59.1755 7.88962 59.4848 7.34472 59.4848H6.53922V58.0334H7.34472C7.88962 58.0096 8.24499 58.2714 8.24499 58.7472ZM10.8984 57.6051C9.90337 57.6051 9.21633 58.4141 9.21633 59.3183C9.21633 60.2224 9.87968 61.0314 10.8984 61.0314C11.8934 61.0314 12.5805 60.2224 12.5805 59.3183C12.5805 58.4141 11.8934 57.6051 10.8984 57.6051ZM12.1777 59.3421C12.1777 60.1035 11.6328 60.6983 10.8984 60.6983C10.1403 60.6983 9.59539 60.0797 9.59539 59.3421C9.59539 58.5807 10.1403 57.9858 10.8747 57.9858C11.6328 57.962 12.1777 58.5807 12.1777 59.3421ZM14.9022 60.6983C14.1678 60.6983 13.6229 60.1035 13.6229 59.3421C13.6229 58.5807 14.1678 57.9858 14.9022 57.9858C15.3524 57.9858 15.6603 58.1762 15.9446 58.4379L16.2052 58.1524C15.8736 57.8431 15.5182 57.6289 14.9259 57.6289C13.9546 57.6289 13.2675 58.4141 13.2675 59.3421C13.2675 60.2938 13.9783 61.0552 14.9259 61.0552C15.5182 61.0552 15.8973 60.8173 16.2526 60.4842L16.0157 60.2462C15.6603 60.5079 15.3524 60.6983 14.9022 60.6983ZM18.3138 60.6983C17.5793 60.6983 17.0344 60.1035 17.0344 59.3421C17.0344 58.5807 17.5793 57.9858 18.3138 57.9858C18.7639 57.9858 19.0719 58.1762 19.3562 58.4379L19.6168 58.1524C19.2851 57.8431 18.9297 57.6289 18.3375 57.6289C17.3661 57.6289 16.6791 58.4141 16.6791 59.3421C16.6791 60.2938 17.3898 61.0552 18.3375 61.0552C18.9297 61.0552 19.3088 60.8173 19.6642 60.4842L19.4273 60.2462C19.0482 60.5079 18.7639 60.6983 18.3138 60.6983ZM20.6829 60.3414V57.6765H20.3038V60.9838H20.6118L22.7203 58.2476V60.9838H23.0994V57.6765H22.744L20.6829 60.3414ZM25.4448 57.391C25.8239 57.391 26.1082 57.2007 26.1319 56.8438H25.8476C25.8002 56.9865 25.6581 57.0817 25.4448 57.0817C25.2079 57.0817 25.0895 56.9865 25.0421 56.8438H24.7578C24.7815 57.2007 25.0421 57.391 25.4448 57.391ZM24.4261 60.3414V57.6765H24.047V60.9838H24.355L26.4636 58.2476V60.9838H26.8426V57.6765H26.4872L24.4261 60.3414ZM29.2828 60.6983C28.5484 60.6983 28.0035 60.1035 28.0035 59.3421C28.0035 58.5807 28.5484 57.9858 29.2828 57.9858C29.7329 57.9858 30.0409 58.1762 30.3252 58.4379L30.5858 58.1524C30.2542 57.8431 29.8988 57.6289 29.3065 57.6289C28.3352 57.6289 27.6481 58.4141 27.6481 59.3421C27.6481 60.2938 28.3589 61.0552 29.3065 61.0552C29.8988 61.0552 30.2778 60.8173 30.6332 60.4842L30.3963 60.2462C30.0409 60.5079 29.7329 60.6983 29.2828 60.6983ZM34.0448 57.6765H33.5709L32.1968 59.1279H31.6519V57.6765H31.2729V60.9838H31.6519V59.461H32.1968L33.6183 60.9838H34.1158L32.5048 59.2707L34.0448 57.6765ZM35.1346 60.3414V57.6765H34.7555V60.9838H35.0635L37.172 58.2476V60.9838H37.5511V57.6765H37.1957L35.1346 60.3414ZM39.8965 57.391C40.2756 57.391 40.5598 57.2007 40.5835 56.8438H40.2992C40.2519 56.9865 40.1097 57.0817 39.8965 57.0817C39.6833 57.0817 39.5411 56.9865 39.4937 56.8438H39.2094C39.2331 57.2007 39.4937 57.391 39.8965 57.391ZM40.9389 57.6765L38.8778 60.3414V57.6765H38.4987V60.9838H38.8067L40.9152 58.2476V60.9838H41.2943V57.6765H40.9389Z" fill="#0069B3"/>
<path d="M8.0067 70.3104V69.9297H7.62765V70.3104C6.53785 70.3342 5.92188 70.8576 5.92188 71.6428C5.92188 72.428 6.53785 72.9515 7.62765 72.9753V73.3797H8.0067V72.9753C9.0965 72.9515 9.71247 72.4042 9.71247 71.6428C9.71247 70.8576 9.0965 70.3342 8.0067 70.3104ZM7.65134 72.6421C6.75107 72.6421 6.32463 72.2139 6.32463 71.6428C6.32463 71.0718 6.75107 70.6673 7.65134 70.6435V72.6421ZM8.0067 72.6421V70.6435C8.90697 70.6673 9.33342 71.0718 9.33342 71.6428C9.33342 72.2139 8.88328 72.6184 8.0067 72.6421ZM12.0579 69.9297C11.0629 69.9297 10.3758 70.7387 10.3758 71.6428C10.3758 72.547 11.0392 73.3559 12.0579 73.3559C13.0529 73.3559 13.74 72.547 13.74 71.6428C13.7163 70.7387 13.0529 69.9297 12.0579 69.9297ZM13.3372 71.6666C13.3372 72.428 12.7923 73.0228 12.0579 73.0228C11.2998 73.0228 10.7549 72.4042 10.7549 71.6666C10.7549 70.9052 11.2998 70.3104 12.0342 70.3104C12.7923 70.2866 13.3372 70.9052 13.3372 71.6666ZM15.7537 70.0011H14.5218V73.3084H14.9009V72.1425H15.7064C16.4171 72.1425 17.0094 71.7856 17.0094 71.0718C16.9857 70.4056 16.4882 70.0011 15.7537 70.0011ZM16.6066 71.0718C16.6066 71.5001 16.2513 71.8094 15.7064 71.8094H14.9009V70.358H15.7301C16.2513 70.3342 16.6066 70.5959 16.6066 71.0718ZM18.9047 71.8332L17.7438 70.0011H17.3174L18.7151 72.1663L18.0281 73.3084H18.4309L20.3735 70.0011H19.9471L18.9047 71.8332ZM23.8088 70.0011L22.6005 71.8094L21.3923 70.0011H21.0132V73.3084H21.3686V70.6435L22.5768 72.4042H22.6005L23.8088 70.6435V73.3322H24.1878V70.0249H23.8088V70.0011Z" fill="#0069B3"/>
<path d="M6.51552 66.5055V63.8406H6.16016V67.1479H6.46814L8.57666 64.4116V67.1479H8.95572V63.8406H8.60035L6.51552 66.5055ZM12.1777 65.3158H10.2824V63.8406H9.90337V67.1479H10.2824V65.6489H12.1777V67.1479H12.5568V63.8406H12.1777V65.3158ZM15.4471 65.4348C15.7077 65.3158 15.9683 65.1016 15.9683 64.6734C15.9683 64.4592 15.8973 64.2927 15.7551 64.1499C15.5656 63.9596 15.2813 63.8644 14.9022 63.8644H13.5044V67.1717H14.9733C15.684 67.1717 16.1579 66.8386 16.1579 66.2675C16.1579 65.7679 15.8499 65.5537 15.4471 65.4348ZM13.8835 64.1737H14.8785C15.3524 64.1737 15.613 64.3878 15.613 64.7209C15.613 65.1016 15.305 65.3158 14.8548 65.3158H13.8835V64.1737ZM15.7788 66.2199C15.7788 66.5768 15.4708 66.8148 14.9733 66.8148H13.8598V65.6489H14.9022C15.4945 65.6489 15.7788 65.8392 15.7788 66.2199ZM17.3187 65.6489H19.1193V65.3158H17.3187V64.1975H19.3325V63.8644H16.9397V67.1717H19.3562V66.8386H17.3187V65.6489ZM21.5358 66.8624C20.8013 66.8624 20.2564 66.2675 20.2564 65.5061C20.2564 64.7447 20.8013 64.1499 21.5358 64.1499C21.9859 64.1499 22.2939 64.3403 22.5782 64.602L22.8388 64.3165C22.5071 64.0071 22.1517 63.793 21.5595 63.793C20.5881 63.793 19.9011 64.5782 19.9011 65.5061C19.9011 66.4579 20.6118 67.2193 21.5595 67.2193C22.1517 67.2193 22.5308 66.9813 22.8862 66.6482L22.6493 66.4103C22.2702 66.672 21.9859 66.8624 21.5358 66.8624ZM23.36 64.1737H24.4735V67.1479H24.8526V64.1737H25.966V63.8406H23.36V64.1737ZM27.0085 66.5055V63.8406H26.6294V67.1479H26.9374L29.0459 64.4116V67.1479H29.425V63.8406H29.0696L27.0085 66.5055ZM33.026 63.8406H32.647V66.8148H30.7517V63.8406H30.3726V67.1479H33.0023V67.8379H33.3577V66.791H33.026V63.8406ZM34.4475 66.5055V63.8406H34.0684V67.1479H34.3764L36.485 64.4116V67.1479H36.864V63.8406H36.5086L34.4475 66.5055ZM39.3516 63.7692C38.3566 63.7692 37.6695 64.5782 37.6695 65.4823C37.6695 66.3865 38.3329 67.1955 39.3516 67.1955C40.3466 67.1955 41.0337 66.3865 41.0337 65.4823C41.0337 64.5782 40.3466 63.7692 39.3516 63.7692ZM40.6309 65.5061C40.6309 66.2675 40.086 66.8624 39.3516 66.8624C38.5935 66.8624 38.0486 66.2437 38.0486 65.5061C38.0486 64.7447 38.5935 64.1499 39.3279 64.1499C40.086 64.1261 40.6309 64.7447 40.6309 65.5061ZM44.0898 65.3158H42.1945V63.8406H41.8155V67.1479H42.1945V65.6489H44.0898V67.1479H44.4689V63.8406H44.0898V65.3158ZM47.6909 65.3158H45.7956V63.8406H45.4166V67.1479H45.7956V65.6489H47.6909V67.1479H48.07V63.8406H47.6909V65.3158ZM52.1449 67.1479H52.5239V63.8406H52.1449V67.1479ZM50.2496 65.0303H49.3967V63.8406H49.0413V67.1479H50.2022C50.9366 67.1479 51.5052 66.7672 51.5052 66.0772C51.5052 65.411 51.0077 65.0303 50.2496 65.0303ZM51.1261 66.0772C51.1261 66.5055 50.7708 66.791 50.2259 66.791H49.4204V65.3634H50.2496C50.7708 65.3634 51.1261 65.6013 51.1261 66.0772ZM54.8694 63.5551C55.2484 63.5551 55.5327 63.3647 55.5564 63.0078H55.2721C55.2247 63.1506 55.0826 63.2457 54.8694 63.2457C54.6325 63.2457 54.514 63.1506 54.4666 63.0078H54.1823C54.206 63.3647 54.4666 63.5551 54.8694 63.5551ZM55.9118 63.8406L53.8506 66.5055V63.8406H53.4716V67.1479H53.7796L55.8881 64.4116V67.1479H56.2671V63.8406H55.9118Z" fill="#0069B3"/>
<path d="M13.9293 24.6027L20.776 20.6292L27.3148 23.0323L37.2178 17.2743L48.8265 21.5096L53.9201 18.5592L56.2655 19.4157V16.6795L49.1581 14.086L43.4722 17.3933L35.6778 14.5619L31.5792 16.9174L19.5441 12.5156L5.94531 20.4151V25.721L10.2334 23.2465L13.9293 24.6027Z" fill="#AEDEF8"/>
<path d="M56.2655 27.2188L44.4436 34.0713L32.7875 29.7884L20.7997 36.7361L11.1574 33.2147L5.94531 36.2365V41.7804L13.6687 37.3072L21.4631 40.1386L34.209 32.7626L44.3725 36.4744L56.2655 29.5743V27.2188Z" fill="url(#paint0_linear_1960_268575)"/>
<path d="M45.9361 30.0311L30.2525 24.2969L23.8322 28.2228L10.2334 23.25L5.94531 25.7245V36.2412L11.1574 33.2195L20.7997 36.7409L32.7875 29.7932L44.4436 34.076L56.2655 27.2235V24.0352L45.9361 30.0311Z" fill="#0069B3"/>
<path d="M53.9205 18.5583L48.8269 21.5087L37.2182 17.2734L27.3152 23.0315L20.7765 20.6283L13.9297 24.6018L23.8326 28.2184L30.253 24.2925L45.9366 30.0267L56.2659 24.0308V19.4149L53.9205 18.5583Z" fill="#05BAEE"/>
<path d="M41.5781 49.5383L44.9186 46.9924C45.7478 46.3499 46.0558 45.9217 46.0558 45.3744C46.0558 44.8034 45.653 44.4703 45.0607 44.4703C44.4685 44.4703 43.9946 44.8272 43.2839 45.6123L41.6255 44.2085C42.5732 42.9713 43.5208 42.2812 45.2503 42.2812C47.193 42.2812 48.5434 43.4471 48.5434 45.1603C48.5434 46.5879 47.8089 47.3493 46.4822 48.301L44.966 49.3717H48.6381V51.3942H41.5781V49.5383Z" fill="#E20613"/>
<path d="M49.207 49.5383L52.5475 46.9924C53.3767 46.3499 53.6847 45.9217 53.6847 45.3744C53.6847 44.8034 53.2819 44.4703 52.6896 44.4703C52.0974 44.4703 51.6235 44.8272 50.9128 45.6123L49.2544 44.2085C50.2021 42.9713 51.1497 42.2812 52.8792 42.2812C54.8219 42.2812 56.1723 43.4471 56.1723 45.1603C56.1723 46.5879 55.4378 47.3493 54.1111 48.301L52.5949 49.3717H56.267V51.3942H49.207V49.5383Z" fill="#E20613"/>
<path d="M5.73438 48.3971C5.73438 46.7078 6.99001 45.3516 8.76685 45.3516C9.85665 45.3516 10.52 45.7085 11.0649 46.2557L10.2594 47.2075C9.80927 46.803 9.35914 46.5412 8.76685 46.5412C7.79551 46.5412 7.08478 47.3502 7.08478 48.3733V48.3971C7.08478 49.3965 7.77182 50.2292 8.76685 50.2292C9.43021 50.2292 9.83296 49.9675 10.3068 49.5392L11.1123 50.372C10.52 51.0144 9.85665 51.4189 8.71947 51.4189C7.0137 51.3951 5.73438 50.0865 5.73438 48.3971Z" fill="#0069B3"/>
<path d="M15.6591 51.2985V47.4678L12.8872 51.2985H11.75V45.4453H13.0293V49.1571L15.7064 45.4453H16.9384V51.2985H15.6591Z" fill="#0069B3"/>
<path d="M17.8906 45.4453H20.2597C21.6575 45.4453 22.4867 46.2781 22.4867 47.4678V47.4916C22.4867 48.8478 21.4443 49.5378 20.1413 49.5378H19.17V51.2985H17.8906V45.4453ZM20.1887 48.3957C20.8283 48.3957 21.2074 48.015 21.2074 47.5153V47.4916C21.2074 46.9205 20.8046 46.6112 20.165 46.6112H19.17V48.3957H20.1887Z" fill="#0069B3"/>
<path d="M27.1278 51.2985V47.4678L24.3559 51.2985H23.2188V45.4453H24.4981V49.1571L27.1752 45.4453H28.4071V51.2985H27.1278Z" fill="#0069B3"/>
<path d="M30.1601 51.2985L31.2973 49.2999L29.0703 45.4453H30.5155L32.0317 48.1102L33.4058 45.4453H34.8273L31.5816 51.2985H30.1601Z" fill="#0069B3"/>
<path d="M34.707 48.3971C34.707 46.7078 35.9627 45.3516 37.7395 45.3516C38.8293 45.3516 39.4927 45.7085 40.0376 46.2557L39.2321 47.2075C38.7819 46.803 38.3318 46.5412 37.7395 46.5412C36.7682 46.5412 36.0574 47.3502 36.0574 48.3733V48.3971C36.0574 49.3965 36.7445 50.2292 37.7395 50.2292C38.4029 50.2292 38.8056 49.9675 39.2794 49.5392L40.0849 50.372C39.4927 51.0144 38.8293 51.4189 37.6921 51.4189C35.9864 51.3951 34.707 50.0865 34.707 48.3971Z" fill="#0069B3"/>
</g>
<defs>
<linearGradient id="paint0_linear_1960_268575" x1="5.94012" y1="34.4958" x2="56.2571" y2="34.4958" gradientUnits="userSpaceOnUse">
<stop stop-color="#FFD400"/>
<stop offset="0.0889909" stop-color="#F9AA04"/>
<stop offset="0.1956" stop-color="#F37F08"/>
<stop offset="0.3076" stop-color="#EE590B"/>
<stop offset="0.4237" stop-color="#E93B0E"/>
<stop offset="0.5453" stop-color="#E62410"/>
<stop offset="0.6748" stop-color="#E41312"/>
<stop offset="0.8177" stop-color="#E20913"/>
<stop offset="1" stop-color="#E20613"/>
</linearGradient>
<clipPath id="clip0_1960_268575">
<rect width="62" height="106" fill="white"/>
</clipPath>
</defs>
</svg>
