<svg width="616" height="321" viewBox="0 0 616 321" fill="none" xmlns="http://www.w3.org/2000/svg">
<path d="M37 15L37 297" stroke="#F5F6F7"/>
<path d="M134 15L134 297" stroke="#F5F6F7"/>
<path d="M230 15L230 296" stroke="#F5F6F7"/>
<path d="M422 14L422 296" stroke="#F5F6F7"/>
<path d="M326 13L326 296" stroke="#F5F6F7"/>
<path d="M518 14L518 296" stroke="#F5F6F7"/>
<path d="M614 14L614 296" stroke="#F5F6F7"/>
<path d="M37.3906 184.227H614.458" stroke="#F5F6F7"/>
<path d="M37.3906 239.285H614.458" stroke="#F5F6F7"/>
<path d="M37.3906 131.105H614.458" stroke="#F5F6F7"/>
<path d="M37.3906 73.043L615.349 73.0429" stroke="#F5F6F7"/>
<path d="M37.3906 13.9824H615.349" stroke="#F5F6F7"/>
<path d="M37.3906 296.348L615.349 296.348" stroke="#F5F6F7"/>
<path d="M37 13L37 296" stroke="#F5F6F7"/>
<path d="M406.89 316.113V315.501L410.382 312.081C410.702 311.769 410.942 311.497 411.102 311.265C411.262 311.025 411.37 310.801 411.426 310.593C411.482 310.385 411.51 310.189 411.51 310.005C411.51 309.517 411.342 309.133 411.006 308.853C410.678 308.573 410.19 308.433 409.542 308.433C409.046 308.433 408.606 308.509 408.222 308.661C407.846 308.813 407.522 309.049 407.25 309.369L406.638 308.841C406.966 308.457 407.386 308.161 407.898 307.953C408.41 307.745 408.982 307.641 409.614 307.641C410.182 307.641 410.674 307.733 411.09 307.917C411.506 308.093 411.826 308.353 412.05 308.697C412.282 309.041 412.398 309.445 412.398 309.909C412.398 310.181 412.358 310.449 412.278 310.713C412.206 310.977 412.07 311.257 411.87 311.553C411.678 311.841 411.394 312.169 411.018 312.537L407.814 315.681L407.574 315.345H412.782V316.113H406.89ZM417.191 316.185C416.543 316.185 415.967 316.017 415.463 315.681C414.959 315.337 414.563 314.849 414.275 314.217C413.987 313.577 413.843 312.809 413.843 311.913C413.843 311.017 413.987 310.253 414.275 309.621C414.563 308.981 414.959 308.493 415.463 308.157C415.967 307.813 416.543 307.641 417.191 307.641C417.839 307.641 418.415 307.813 418.919 308.157C419.423 308.493 419.819 308.981 420.107 309.621C420.403 310.253 420.551 311.017 420.551 311.913C420.551 312.809 420.403 313.577 420.107 314.217C419.819 314.849 419.423 315.337 418.919 315.681C418.415 316.017 417.839 316.185 417.191 316.185ZM417.191 315.393C417.687 315.393 418.119 315.261 418.487 314.997C418.855 314.725 419.143 314.333 419.351 313.821C419.559 313.301 419.663 312.665 419.663 311.913C419.663 311.161 419.559 310.529 419.351 310.017C419.143 309.497 418.855 309.105 418.487 308.841C418.119 308.569 417.687 308.433 417.191 308.433C416.711 308.433 416.283 308.569 415.907 308.841C415.531 309.105 415.239 309.497 415.031 310.017C414.823 310.529 414.719 311.161 414.719 311.913C414.719 312.665 414.823 313.301 415.031 313.821C415.239 314.333 415.531 314.725 415.907 314.997C416.283 315.261 416.711 315.393 417.191 315.393ZM424.179 316.185C423.571 316.185 422.995 316.089 422.451 315.897C421.915 315.697 421.483 315.433 421.155 315.105L421.575 314.421C421.847 314.701 422.211 314.933 422.667 315.117C423.131 315.301 423.635 315.393 424.179 315.393C424.875 315.393 425.407 315.241 425.775 314.937C426.151 314.633 426.339 314.225 426.339 313.713C426.339 313.201 426.155 312.793 425.787 312.489C425.427 312.185 424.855 312.033 424.071 312.033H423.471V311.397L426.063 308.145L426.183 308.481H421.503V307.713H426.903V308.325L424.311 311.577L423.891 311.301H424.215C425.223 311.301 425.975 311.525 426.471 311.973C426.975 312.421 427.227 312.997 427.227 313.701C427.227 314.173 427.115 314.597 426.891 314.973C426.667 315.349 426.327 315.645 425.871 315.861C425.423 316.077 424.859 316.185 424.179 316.185ZM431.792 316.185C431.144 316.185 430.568 316.017 430.064 315.681C429.56 315.337 429.164 314.849 428.876 314.217C428.588 313.577 428.444 312.809 428.444 311.913C428.444 311.017 428.588 310.253 428.876 309.621C429.164 308.981 429.56 308.493 430.064 308.157C430.568 307.813 431.144 307.641 431.792 307.641C432.44 307.641 433.016 307.813 433.52 308.157C434.024 308.493 434.42 308.981 434.708 309.621C435.004 310.253 435.152 311.017 435.152 311.913C435.152 312.809 435.004 313.577 434.708 314.217C434.42 314.849 434.024 315.337 433.52 315.681C433.016 316.017 432.44 316.185 431.792 316.185ZM431.792 315.393C432.288 315.393 432.72 315.261 433.088 314.997C433.456 314.725 433.744 314.333 433.952 313.821C434.16 313.301 434.264 312.665 434.264 311.913C434.264 311.161 434.16 310.529 433.952 310.017C433.744 309.497 433.456 309.105 433.088 308.841C432.72 308.569 432.288 308.433 431.792 308.433C431.312 308.433 430.884 308.569 430.508 308.841C430.132 309.105 429.84 309.497 429.632 310.017C429.424 310.529 429.32 311.161 429.32 311.913C429.32 312.665 429.424 313.301 429.632 313.821C429.84 314.333 430.132 314.725 430.508 314.997C430.884 315.261 431.312 315.393 431.792 315.393Z" fill="#858C95"/>
<path d="M216.179 316.113V315.501L219.671 312.081C219.991 311.769 220.231 311.497 220.391 311.265C220.551 311.025 220.659 310.801 220.715 310.593C220.771 310.385 220.799 310.189 220.799 310.005C220.799 309.517 220.631 309.133 220.295 308.853C219.967 308.573 219.479 308.433 218.831 308.433C218.335 308.433 217.895 308.509 217.511 308.661C217.135 308.813 216.811 309.049 216.539 309.369L215.927 308.841C216.255 308.457 216.675 308.161 217.187 307.953C217.699 307.745 218.271 307.641 218.903 307.641C219.471 307.641 219.963 307.733 220.379 307.917C220.795 308.093 221.115 308.353 221.339 308.697C221.571 309.041 221.687 309.445 221.687 309.909C221.687 310.181 221.647 310.449 221.567 310.713C221.495 310.977 221.359 311.257 221.159 311.553C220.967 311.841 220.683 312.169 220.307 312.537L217.103 315.681L216.863 315.345H222.071V316.113H216.179ZM226.48 316.185C225.832 316.185 225.256 316.017 224.752 315.681C224.248 315.337 223.852 314.849 223.564 314.217C223.276 313.577 223.132 312.809 223.132 311.913C223.132 311.017 223.276 310.253 223.564 309.621C223.852 308.981 224.248 308.493 224.752 308.157C225.256 307.813 225.832 307.641 226.48 307.641C227.128 307.641 227.704 307.813 228.208 308.157C228.712 308.493 229.108 308.981 229.396 309.621C229.692 310.253 229.84 311.017 229.84 311.913C229.84 312.809 229.692 313.577 229.396 314.217C229.108 314.849 228.712 315.337 228.208 315.681C227.704 316.017 227.128 316.185 226.48 316.185ZM226.48 315.393C226.976 315.393 227.408 315.261 227.776 314.997C228.144 314.725 228.432 314.333 228.64 313.821C228.848 313.301 228.952 312.665 228.952 311.913C228.952 311.161 228.848 310.529 228.64 310.017C228.432 309.497 228.144 309.105 227.776 308.841C227.408 308.569 226.976 308.433 226.48 308.433C226 308.433 225.572 308.569 225.196 308.841C224.82 309.105 224.528 309.497 224.32 310.017C224.112 310.529 224.008 311.161 224.008 311.913C224.008 312.665 224.112 313.301 224.32 313.821C224.528 314.333 224.82 314.725 225.196 314.997C225.572 315.261 226 315.393 226.48 315.393ZM232.541 316.113V308.073L232.925 308.481H230.561V307.713H233.405V316.113H232.541ZM238.065 316.185C237.465 316.185 236.893 316.089 236.349 315.897C235.805 315.697 235.373 315.433 235.053 315.105L235.473 314.421C235.737 314.701 236.097 314.933 236.553 315.117C237.017 315.301 237.517 315.393 238.053 315.393C238.765 315.393 239.305 315.237 239.673 314.925C240.049 314.605 240.237 314.189 240.237 313.677C240.237 313.317 240.149 313.009 239.973 312.753C239.805 312.489 239.517 312.285 239.109 312.141C238.701 311.997 238.141 311.925 237.429 311.925H235.641L236.073 307.713H240.669V308.481H236.421L236.865 308.061L236.493 311.589L236.049 311.157H237.621C238.469 311.157 239.149 311.261 239.661 311.469C240.173 311.677 240.541 311.969 240.765 312.345C240.997 312.713 241.113 313.145 241.113 313.641C241.113 314.113 241.001 314.545 240.777 314.937C240.553 315.321 240.217 315.625 239.769 315.849C239.321 316.073 238.753 316.185 238.065 316.185Z" fill="#858C95"/>
<path d="M27.0267 299.072C26.3787 299.072 25.8027 298.904 25.2987 298.568C24.7947 298.224 24.3987 297.736 24.1107 297.104C23.8227 296.464 23.6787 295.696 23.6787 294.8C23.6787 293.904 23.8227 293.14 24.1107 292.508C24.3987 291.868 24.7947 291.38 25.2987 291.044C25.8027 290.7 26.3787 290.528 27.0267 290.528C27.6747 290.528 28.2507 290.7 28.7547 291.044C29.2587 291.38 29.6547 291.868 29.9427 292.508C30.2387 293.14 30.3867 293.904 30.3867 294.8C30.3867 295.696 30.2387 296.464 29.9427 297.104C29.6547 297.736 29.2587 298.224 28.7547 298.568C28.2507 298.904 27.6747 299.072 27.0267 299.072ZM27.0267 298.28C27.5227 298.28 27.9547 298.148 28.3227 297.884C28.6907 297.612 28.9787 297.22 29.1867 296.708C29.3947 296.188 29.4987 295.552 29.4987 294.8C29.4987 294.048 29.3947 293.416 29.1867 292.904C28.9787 292.384 28.6907 291.992 28.3227 291.728C27.9547 291.456 27.5227 291.32 27.0267 291.32C26.5467 291.32 26.1187 291.456 25.7427 291.728C25.3667 291.992 25.0747 292.384 24.8667 292.904C24.6587 293.416 24.5547 294.048 24.5547 294.8C24.5547 295.552 24.6587 296.188 24.8667 296.708C25.0747 297.22 25.3667 297.612 25.7427 297.884C26.1187 298.148 26.5467 298.28 27.0267 298.28Z" fill="#858C95"/>
<path d="M11.5885 242.072C10.9885 242.072 10.4165 241.976 9.8725 241.784C9.3285 241.584 8.8965 241.32 8.5765 240.992L8.9965 240.308C9.2605 240.588 9.6205 240.82 10.0765 241.004C10.5405 241.188 11.0405 241.28 11.5765 241.28C12.2885 241.28 12.8285 241.124 13.1965 240.812C13.5725 240.492 13.7605 240.076 13.7605 239.564C13.7605 239.204 13.6725 238.896 13.4965 238.64C13.3285 238.376 13.0405 238.172 12.6325 238.028C12.2245 237.884 11.6645 237.812 10.9525 237.812H9.1645L9.5965 233.6H14.1925V234.368H9.9445L10.3885 233.948L10.0165 237.476L9.5725 237.044H11.1445C11.9925 237.044 12.6725 237.148 13.1845 237.356C13.6965 237.564 14.0645 237.856 14.2885 238.232C14.5205 238.6 14.6365 239.032 14.6365 239.528C14.6365 240 14.5245 240.432 14.3005 240.824C14.0765 241.208 13.7405 241.512 13.2925 241.736C12.8445 241.96 12.2765 242.072 11.5885 242.072ZM19.0814 242.072C18.4334 242.072 17.8574 241.904 17.3534 241.568C16.8494 241.224 16.4534 240.736 16.1654 240.104C15.8774 239.464 15.7334 238.696 15.7334 237.8C15.7334 236.904 15.8774 236.14 16.1654 235.508C16.4534 234.868 16.8494 234.38 17.3534 234.044C17.8574 233.7 18.4334 233.528 19.0814 233.528C19.7294 233.528 20.3054 233.7 20.8094 234.044C21.3134 234.38 21.7094 234.868 21.9974 235.508C22.2934 236.14 22.4414 236.904 22.4414 237.8C22.4414 238.696 22.2934 239.464 21.9974 240.104C21.7094 240.736 21.3134 241.224 20.8094 241.568C20.3054 241.904 19.7294 242.072 19.0814 242.072ZM19.0814 241.28C19.5774 241.28 20.0094 241.148 20.3774 240.884C20.7454 240.612 21.0334 240.22 21.2414 239.708C21.4494 239.188 21.5534 238.552 21.5534 237.8C21.5534 237.048 21.4494 236.416 21.2414 235.904C21.0334 235.384 20.7454 234.992 20.3774 234.728C20.0094 234.456 19.5774 234.32 19.0814 234.32C18.6014 234.32 18.1734 234.456 17.7974 234.728C17.4214 234.992 17.1294 235.384 16.9214 235.904C16.7134 236.416 16.6094 237.048 16.6094 237.8C16.6094 238.552 16.7134 239.188 16.9214 239.708C17.1294 240.22 17.4214 240.612 17.7974 240.884C18.1734 241.148 18.6014 241.28 19.0814 241.28ZM27.0267 242.072C26.3787 242.072 25.8027 241.904 25.2987 241.568C24.7947 241.224 24.3987 240.736 24.1107 240.104C23.8227 239.464 23.6787 238.696 23.6787 237.8C23.6787 236.904 23.8227 236.14 24.1107 235.508C24.3987 234.868 24.7947 234.38 25.2987 234.044C25.8027 233.7 26.3787 233.528 27.0267 233.528C27.6747 233.528 28.2507 233.7 28.7547 234.044C29.2587 234.38 29.6547 234.868 29.9427 235.508C30.2387 236.14 30.3867 236.904 30.3867 237.8C30.3867 238.696 30.2387 239.464 29.9427 240.104C29.6547 240.736 29.2587 241.224 28.7547 241.568C28.2507 241.904 27.6747 242.072 27.0267 242.072ZM27.0267 241.28C27.5227 241.28 27.9547 241.148 28.3227 240.884C28.6907 240.612 28.9787 240.22 29.1867 239.708C29.3947 239.188 29.4987 238.552 29.4987 237.8C29.4987 237.048 29.3947 236.416 29.1867 235.904C28.9787 235.384 28.6907 234.992 28.3227 234.728C27.9547 234.456 27.5227 234.32 27.0267 234.32C26.5467 234.32 26.1187 234.456 25.7427 234.728C25.3667 234.992 25.0747 235.384 24.8667 235.904C24.6587 236.416 24.5547 237.048 24.5547 237.8C24.5547 238.552 24.6587 239.188 24.8667 239.708C25.0747 240.22 25.3667 240.612 25.7427 240.884C26.1187 241.148 26.5467 241.28 27.0267 241.28Z" fill="#858C95"/>
<path d="M0.835188 77V76.388L4.32719 72.968C4.64719 72.656 4.88719 72.384 5.04719 72.152C5.20719 71.912 5.31519 71.688 5.37119 71.48C5.42719 71.272 5.45519 71.076 5.45519 70.892C5.45519 70.404 5.28719 70.02 4.95119 69.74C4.62319 69.46 4.13519 69.32 3.48719 69.32C2.99119 69.32 2.55119 69.396 2.16719 69.548C1.79119 69.7 1.46719 69.936 1.19519 70.256L0.583188 69.728C0.911188 69.344 1.33119 69.048 1.84319 68.84C2.35519 68.632 2.92719 68.528 3.55919 68.528C4.12719 68.528 4.61919 68.62 5.03519 68.804C5.45119 68.98 5.77119 69.24 5.99519 69.584C6.22719 69.928 6.34319 70.332 6.34319 70.796C6.34319 71.068 6.30319 71.336 6.22319 71.6C6.15119 71.864 6.01519 72.144 5.81519 72.44C5.62319 72.728 5.33919 73.056 4.96319 73.424L1.75919 76.568L1.51919 76.232H6.72719V77H0.835188ZM11.1361 77.072C10.4881 77.072 9.91206 76.904 9.40806 76.568C8.90406 76.224 8.50806 75.736 8.22006 75.104C7.93206 74.464 7.78806 73.696 7.78806 72.8C7.78806 71.904 7.93206 71.14 8.22006 70.508C8.50806 69.868 8.90406 69.38 9.40806 69.044C9.91206 68.7 10.4881 68.528 11.1361 68.528C11.7841 68.528 12.3601 68.7 12.8641 69.044C13.3681 69.38 13.7641 69.868 14.0521 70.508C14.3481 71.14 14.4961 71.904 14.4961 72.8C14.4961 73.696 14.3481 74.464 14.0521 75.104C13.7641 75.736 13.3681 76.224 12.8641 76.568C12.3601 76.904 11.7841 77.072 11.1361 77.072ZM11.1361 76.28C11.6321 76.28 12.0641 76.148 12.4321 75.884C12.8001 75.612 13.0881 75.22 13.2961 74.708C13.5041 74.188 13.6081 73.552 13.6081 72.8C13.6081 72.048 13.5041 71.416 13.2961 70.904C13.0881 70.384 12.8001 69.992 12.4321 69.728C12.0641 69.456 11.6321 69.32 11.1361 69.32C10.6561 69.32 10.2281 69.456 9.85206 69.728C9.47606 69.992 9.18406 70.384 8.97606 70.904C8.76806 71.416 8.66406 72.048 8.66406 72.8C8.66406 73.552 8.76806 74.188 8.97606 74.708C9.18406 75.22 9.47606 75.612 9.85206 75.884C10.2281 76.148 10.6561 76.28 11.1361 76.28ZM19.0814 77.072C18.4334 77.072 17.8574 76.904 17.3534 76.568C16.8494 76.224 16.4534 75.736 16.1654 75.104C15.8774 74.464 15.7334 73.696 15.7334 72.8C15.7334 71.904 15.8774 71.14 16.1654 70.508C16.4534 69.868 16.8494 69.38 17.3534 69.044C17.8574 68.7 18.4334 68.528 19.0814 68.528C19.7294 68.528 20.3054 68.7 20.8094 69.044C21.3134 69.38 21.7094 69.868 21.9974 70.508C22.2934 71.14 22.4414 71.904 22.4414 72.8C22.4414 73.696 22.2934 74.464 21.9974 75.104C21.7094 75.736 21.3134 76.224 20.8094 76.568C20.3054 76.904 19.7294 77.072 19.0814 77.072ZM19.0814 76.28C19.5774 76.28 20.0094 76.148 20.3774 75.884C20.7454 75.612 21.0334 75.22 21.2414 74.708C21.4494 74.188 21.5534 73.552 21.5534 72.8C21.5534 72.048 21.4494 71.416 21.2414 70.904C21.0334 70.384 20.7454 69.992 20.3774 69.728C20.0094 69.456 19.5774 69.32 19.0814 69.32C18.6014 69.32 18.1734 69.456 17.7974 69.728C17.4214 69.992 17.1294 70.384 16.9214 70.904C16.7134 71.416 16.6094 72.048 16.6094 72.8C16.6094 73.552 16.7134 74.188 16.9214 74.708C17.1294 75.22 17.4214 75.612 17.7974 75.884C18.1734 76.148 18.6014 76.28 19.0814 76.28ZM27.0267 77.072C26.3787 77.072 25.8027 76.904 25.2987 76.568C24.7947 76.224 24.3987 75.736 24.1107 75.104C23.8227 74.464 23.6787 73.696 23.6787 72.8C23.6787 71.904 23.8227 71.14 24.1107 70.508C24.3987 69.868 24.7947 69.38 25.2987 69.044C25.8027 68.7 26.3787 68.528 27.0267 68.528C27.6747 68.528 28.2507 68.7 28.7547 69.044C29.2587 69.38 29.6547 69.868 29.9427 70.508C30.2387 71.14 30.3867 71.904 30.3867 72.8C30.3867 73.696 30.2387 74.464 29.9427 75.104C29.6547 75.736 29.2587 76.224 28.7547 76.568C28.2507 76.904 27.6747 77.072 27.0267 77.072ZM27.0267 76.28C27.5227 76.28 27.9547 76.148 28.3227 75.884C28.6907 75.612 28.9787 75.22 29.1867 74.708C29.3947 74.188 29.4987 73.552 29.4987 72.8C29.4987 72.048 29.3947 71.416 29.1867 70.904C28.9787 70.384 28.6907 69.992 28.3227 69.728C27.9547 69.456 27.5227 69.32 27.0267 69.32C26.5467 69.32 26.1187 69.456 25.7427 69.728C25.3667 69.992 25.0747 70.384 24.8667 70.904C24.6587 71.416 24.5547 72.048 24.5547 72.8C24.5547 73.552 24.6587 74.188 24.8667 74.708C25.0747 75.22 25.3667 75.612 25.7427 75.884C26.1187 76.148 26.5467 76.28 27.0267 76.28Z" fill="#858C95"/>
<path d="M1.96019 19.584V18.972L5.45219 15.552C5.77219 15.24 6.01219 14.968 6.17219 14.736C6.33219 14.496 6.44019 14.272 6.49619 14.064C6.55219 13.856 6.58019 13.66 6.58019 13.476C6.58019 12.988 6.41219 12.604 6.07619 12.324C5.74819 12.044 5.26019 11.904 4.61219 11.904C4.11619 11.904 3.67619 11.98 3.29219 12.132C2.91619 12.284 2.59219 12.52 2.32019 12.84L1.70819 12.312C2.03619 11.928 2.45619 11.632 2.96819 11.424C3.48019 11.216 4.05219 11.112 4.68419 11.112C5.25219 11.112 5.74419 11.204 6.16019 11.388C6.57619 11.564 6.89619 11.824 7.12019 12.168C7.35219 12.512 7.46819 12.916 7.46819 13.38C7.46819 13.652 7.42819 13.92 7.34819 14.184C7.27619 14.448 7.14019 14.728 6.94019 15.024C6.74819 15.312 6.46419 15.64 6.08819 16.008L2.88419 19.152L2.64419 18.816H7.85219V19.584H1.96019ZM11.5885 19.656C10.9885 19.656 10.4165 19.56 9.8725 19.368C9.3285 19.168 8.8965 18.904 8.5765 18.576L8.9965 17.892C9.2605 18.172 9.6205 18.404 10.0765 18.588C10.5405 18.772 11.0405 18.864 11.5765 18.864C12.2885 18.864 12.8285 18.708 13.1965 18.396C13.5725 18.076 13.7605 17.66 13.7605 17.148C13.7605 16.788 13.6725 16.48 13.4965 16.224C13.3285 15.96 13.0405 15.756 12.6325 15.612C12.2245 15.468 11.6645 15.396 10.9525 15.396H9.1645L9.5965 11.184H14.1925V11.952H9.9445L10.3885 11.532L10.0165 15.06L9.5725 14.628H11.1445C11.9925 14.628 12.6725 14.732 13.1845 14.94C13.6965 15.148 14.0645 15.44 14.2885 15.816C14.5205 16.184 14.6365 16.616 14.6365 17.112C14.6365 17.584 14.5245 18.016 14.3005 18.408C14.0765 18.792 13.7405 19.096 13.2925 19.32C12.8445 19.544 12.2765 19.656 11.5885 19.656ZM19.0814 19.656C18.4334 19.656 17.8574 19.488 17.3534 19.152C16.8494 18.808 16.4534 18.32 16.1654 17.688C15.8774 17.048 15.7334 16.28 15.7334 15.384C15.7334 14.488 15.8774 13.724 16.1654 13.092C16.4534 12.452 16.8494 11.964 17.3534 11.628C17.8574 11.284 18.4334 11.112 19.0814 11.112C19.7294 11.112 20.3054 11.284 20.8094 11.628C21.3134 11.964 21.7094 12.452 21.9974 13.092C22.2934 13.724 22.4414 14.488 22.4414 15.384C22.4414 16.28 22.2934 17.048 21.9974 17.688C21.7094 18.32 21.3134 18.808 20.8094 19.152C20.3054 19.488 19.7294 19.656 19.0814 19.656ZM19.0814 18.864C19.5774 18.864 20.0094 18.732 20.3774 18.468C20.7454 18.196 21.0334 17.804 21.2414 17.292C21.4494 16.772 21.5534 16.136 21.5534 15.384C21.5534 14.632 21.4494 14 21.2414 13.488C21.0334 12.968 20.7454 12.576 20.3774 12.312C20.0094 12.04 19.5774 11.904 19.0814 11.904C18.6014 11.904 18.1734 12.04 17.7974 12.312C17.4214 12.576 17.1294 12.968 16.9214 13.488C16.7134 14 16.6094 14.632 16.6094 15.384C16.6094 16.136 16.7134 16.772 16.9214 17.292C17.1294 17.804 17.4214 18.196 17.7974 18.468C18.1734 18.732 18.6014 18.864 19.0814 18.864ZM27.0267 19.656C26.3787 19.656 25.8027 19.488 25.2987 19.152C24.7947 18.808 24.3987 18.32 24.1107 17.688C23.8227 17.048 23.6787 16.28 23.6787 15.384C23.6787 14.488 23.8227 13.724 24.1107 13.092C24.3987 12.452 24.7947 11.964 25.2987 11.628C25.8027 11.284 26.3787 11.112 27.0267 11.112C27.6747 11.112 28.2507 11.284 28.7547 11.628C29.2587 11.964 29.6547 12.452 29.9427 13.092C30.2387 13.724 30.3867 14.488 30.3867 15.384C30.3867 16.28 30.2387 17.048 29.9427 17.688C29.6547 18.32 29.2587 18.808 28.7547 19.152C28.2507 19.488 27.6747 19.656 27.0267 19.656ZM27.0267 18.864C27.5227 18.864 27.9547 18.732 28.3227 18.468C28.6907 18.196 28.9787 17.804 29.1867 17.292C29.3947 16.772 29.4987 16.136 29.4987 15.384C29.4987 14.632 29.3947 14 29.1867 13.488C28.9787 12.968 28.6907 12.576 28.3227 12.312C27.9547 12.04 27.5227 11.904 27.0267 11.904C26.5467 11.904 26.1187 12.04 25.7427 12.312C25.3667 12.576 25.0747 12.968 24.8667 13.488C24.6587 14 24.5547 14.632 24.5547 15.384C24.5547 16.136 24.6587 16.772 24.8667 17.292C25.0747 17.804 25.3667 18.196 25.7427 18.468C26.1187 18.732 26.5467 18.864 27.0267 18.864Z" fill="#858C95"/>
<path d="M6.06456 134V125.96L6.44856 126.368H4.08456V125.6H6.92856V134H6.06456ZM11.5885 134.072C10.9885 134.072 10.4165 133.976 9.8725 133.784C9.3285 133.584 8.8965 133.32 8.5765 132.992L8.9965 132.308C9.2605 132.588 9.6205 132.82 10.0765 133.004C10.5405 133.188 11.0405 133.28 11.5765 133.28C12.2885 133.28 12.8285 133.124 13.1965 132.812C13.5725 132.492 13.7605 132.076 13.7605 131.564C13.7605 131.204 13.6725 130.896 13.4965 130.64C13.3285 130.376 13.0405 130.172 12.6325 130.028C12.2245 129.884 11.6645 129.812 10.9525 129.812H9.1645L9.5965 125.6H14.1925V126.368H9.9445L10.3885 125.948L10.0165 129.476L9.5725 129.044H11.1445C11.9925 129.044 12.6725 129.148 13.1845 129.356C13.6965 129.564 14.0645 129.856 14.2885 130.232C14.5205 130.6 14.6365 131.032 14.6365 131.528C14.6365 132 14.5245 132.432 14.3005 132.824C14.0765 133.208 13.7405 133.512 13.2925 133.736C12.8445 133.96 12.2765 134.072 11.5885 134.072ZM19.0814 134.072C18.4334 134.072 17.8574 133.904 17.3534 133.568C16.8494 133.224 16.4534 132.736 16.1654 132.104C15.8774 131.464 15.7334 130.696 15.7334 129.8C15.7334 128.904 15.8774 128.14 16.1654 127.508C16.4534 126.868 16.8494 126.38 17.3534 126.044C17.8574 125.7 18.4334 125.528 19.0814 125.528C19.7294 125.528 20.3054 125.7 20.8094 126.044C21.3134 126.38 21.7094 126.868 21.9974 127.508C22.2934 128.14 22.4414 128.904 22.4414 129.8C22.4414 130.696 22.2934 131.464 21.9974 132.104C21.7094 132.736 21.3134 133.224 20.8094 133.568C20.3054 133.904 19.7294 134.072 19.0814 134.072ZM19.0814 133.28C19.5774 133.28 20.0094 133.148 20.3774 132.884C20.7454 132.612 21.0334 132.22 21.2414 131.708C21.4494 131.188 21.5534 130.552 21.5534 129.8C21.5534 129.048 21.4494 128.416 21.2414 127.904C21.0334 127.384 20.7454 126.992 20.3774 126.728C20.0094 126.456 19.5774 126.32 19.0814 126.32C18.6014 126.32 18.1734 126.456 17.7974 126.728C17.4214 126.992 17.1294 127.384 16.9214 127.904C16.7134 128.416 16.6094 129.048 16.6094 129.8C16.6094 130.552 16.7134 131.188 16.9214 131.708C17.1294 132.22 17.4214 132.612 17.7974 132.884C18.1734 133.148 18.6014 133.28 19.0814 133.28ZM27.0267 134.072C26.3787 134.072 25.8027 133.904 25.2987 133.568C24.7947 133.224 24.3987 132.736 24.1107 132.104C23.8227 131.464 23.6787 130.696 23.6787 129.8C23.6787 128.904 23.8227 128.14 24.1107 127.508C24.3987 126.868 24.7947 126.38 25.2987 126.044C25.8027 125.7 26.3787 125.528 27.0267 125.528C27.6747 125.528 28.2507 125.7 28.7547 126.044C29.2587 126.38 29.6547 126.868 29.9427 127.508C30.2387 128.14 30.3867 128.904 30.3867 129.8C30.3867 130.696 30.2387 131.464 29.9427 132.104C29.6547 132.736 29.2587 133.224 28.7547 133.568C28.2507 133.904 27.6747 134.072 27.0267 134.072ZM27.0267 133.28C27.5227 133.28 27.9547 133.148 28.3227 132.884C28.6907 132.612 28.9787 132.22 29.1867 131.708C29.3947 131.188 29.4987 130.552 29.4987 129.8C29.4987 129.048 29.3947 128.416 29.1867 127.904C28.9787 127.384 28.6907 126.992 28.3227 126.728C27.9547 126.456 27.5227 126.32 27.0267 126.32C26.5467 126.32 26.1187 126.456 25.7427 126.728C25.3667 126.992 25.0747 127.384 24.8667 127.904C24.6587 128.416 24.5547 129.048 24.5547 129.8C24.5547 130.552 24.6587 131.188 24.8667 131.708C25.0747 132.22 25.3667 132.612 25.7427 132.884C26.1187 133.148 26.5467 133.28 27.0267 133.28Z" fill="#858C95"/>
<path d="M4.91613 188V179.96L5.30013 180.368H2.93613V179.6H5.78013V188H4.91613ZM11.1361 188.072C10.4881 188.072 9.91206 187.904 9.40806 187.568C8.90406 187.224 8.50806 186.736 8.22006 186.104C7.93206 185.464 7.78806 184.696 7.78806 183.8C7.78806 182.904 7.93206 182.14 8.22006 181.508C8.50806 180.868 8.90406 180.38 9.40806 180.044C9.91206 179.7 10.4881 179.528 11.1361 179.528C11.7841 179.528 12.3601 179.7 12.8641 180.044C13.3681 180.38 13.7641 180.868 14.0521 181.508C14.3481 182.14 14.4961 182.904 14.4961 183.8C14.4961 184.696 14.3481 185.464 14.0521 186.104C13.7641 186.736 13.3681 187.224 12.8641 187.568C12.3601 187.904 11.7841 188.072 11.1361 188.072ZM11.1361 187.28C11.6321 187.28 12.0641 187.148 12.4321 186.884C12.8001 186.612 13.0881 186.22 13.2961 185.708C13.5041 185.188 13.6081 184.552 13.6081 183.8C13.6081 183.048 13.5041 182.416 13.2961 181.904C13.0881 181.384 12.8001 180.992 12.4321 180.728C12.0641 180.456 11.6321 180.32 11.1361 180.32C10.6561 180.32 10.2281 180.456 9.85206 180.728C9.47606 180.992 9.18406 181.384 8.97606 181.904C8.76806 182.416 8.66406 183.048 8.66406 183.8C8.66406 184.552 8.76806 185.188 8.97606 185.708C9.18406 186.22 9.47606 186.612 9.85206 186.884C10.2281 187.148 10.6561 187.28 11.1361 187.28ZM19.0814 188.072C18.4334 188.072 17.8574 187.904 17.3534 187.568C16.8494 187.224 16.4534 186.736 16.1654 186.104C15.8774 185.464 15.7334 184.696 15.7334 183.8C15.7334 182.904 15.8774 182.14 16.1654 181.508C16.4534 180.868 16.8494 180.38 17.3534 180.044C17.8574 179.7 18.4334 179.528 19.0814 179.528C19.7294 179.528 20.3054 179.7 20.8094 180.044C21.3134 180.38 21.7094 180.868 21.9974 181.508C22.2934 182.14 22.4414 182.904 22.4414 183.8C22.4414 184.696 22.2934 185.464 21.9974 186.104C21.7094 186.736 21.3134 187.224 20.8094 187.568C20.3054 187.904 19.7294 188.072 19.0814 188.072ZM19.0814 187.28C19.5774 187.28 20.0094 187.148 20.3774 186.884C20.7454 186.612 21.0334 186.22 21.2414 185.708C21.4494 185.188 21.5534 184.552 21.5534 183.8C21.5534 183.048 21.4494 182.416 21.2414 181.904C21.0334 181.384 20.7454 180.992 20.3774 180.728C20.0094 180.456 19.5774 180.32 19.0814 180.32C18.6014 180.32 18.1734 180.456 17.7974 180.728C17.4214 180.992 17.1294 181.384 16.9214 181.904C16.7134 182.416 16.6094 183.048 16.6094 183.8C16.6094 184.552 16.7134 185.188 16.9214 185.708C17.1294 186.22 17.4214 186.612 17.7974 186.884C18.1734 187.148 18.6014 187.28 19.0814 187.28ZM27.0267 188.072C26.3787 188.072 25.8027 187.904 25.2987 187.568C24.7947 187.224 24.3987 186.736 24.1107 186.104C23.8227 185.464 23.6787 184.696 23.6787 183.8C23.6787 182.904 23.8227 182.14 24.1107 181.508C24.3987 180.868 24.7947 180.38 25.2987 180.044C25.8027 179.7 26.3787 179.528 27.0267 179.528C27.6747 179.528 28.2507 179.7 28.7547 180.044C29.2587 180.38 29.6547 180.868 29.9427 181.508C30.2387 182.14 30.3867 182.904 30.3867 183.8C30.3867 184.696 30.2387 185.464 29.9427 186.104C29.6547 186.736 29.2587 187.224 28.7547 187.568C28.2507 187.904 27.6747 188.072 27.0267 188.072ZM27.0267 187.28C27.5227 187.28 27.9547 187.148 28.3227 186.884C28.6907 186.612 28.9787 186.22 29.1867 185.708C29.3947 185.188 29.4987 184.552 29.4987 183.8C29.4987 183.048 29.3947 182.416 29.1867 181.904C28.9787 181.384 28.6907 180.992 28.3227 180.728C27.9547 180.456 27.5227 180.32 27.0267 180.32C26.5467 180.32 26.1187 180.456 25.7427 180.728C25.3667 180.992 25.0747 181.384 24.8667 181.904C24.6587 182.416 24.5547 183.048 24.5547 183.8C24.5547 184.552 24.6587 185.188 24.8667 185.708C25.0747 186.22 25.3667 186.612 25.7427 186.884C26.1187 187.148 26.5467 187.28 27.0267 187.28Z" fill="#858C95"/>
<path d="M272.488 228.77C272.488 229.586 272.284 230.33 271.876 231.002C271.48 231.662 270.934 232.19 270.238 232.586C269.554 232.982 268.78 233.18 267.916 233.18C267.004 233.18 266.2 232.964 265.504 232.532C264.808 232.088 264.262 231.452 263.866 230.624C263.482 229.796 263.29 228.812 263.29 227.672C263.29 225.992 263.488 224.594 263.884 223.478C264.28 222.362 264.838 221.528 265.558 220.976C266.278 220.412 267.118 220.13 268.078 220.13C268.906 220.13 269.656 220.334 270.328 220.742C271.012 221.138 271.546 221.69 271.93 222.398L270.958 223.352C270.694 222.788 270.304 222.344 269.788 222.02C269.272 221.684 268.696 221.516 268.06 221.516C267.412 221.516 266.842 221.714 266.35 222.11C265.858 222.506 265.474 223.076 265.198 223.82C264.934 224.564 264.796 225.464 264.784 226.52C264.964 226.1 265.216 225.74 265.54 225.44C265.864 225.128 266.242 224.888 266.674 224.72C267.118 224.552 267.586 224.468 268.078 224.468C268.906 224.468 269.65 224.66 270.31 225.044C270.982 225.428 271.51 225.944 271.894 226.592C272.29 227.24 272.488 227.966 272.488 228.77ZM267.934 231.812C268.486 231.812 268.99 231.674 269.446 231.398C269.914 231.122 270.286 230.756 270.562 230.3C270.838 229.832 270.976 229.322 270.976 228.77C270.976 228.218 270.838 227.714 270.562 227.258C270.286 226.802 269.914 226.436 269.446 226.16C268.99 225.884 268.486 225.746 267.934 225.746C267.382 225.746 266.872 225.884 266.404 226.16C265.948 226.436 265.582 226.802 265.306 227.258C265.03 227.714 264.892 228.218 264.892 228.77C264.892 229.322 265.03 229.832 265.306 230.3C265.582 230.756 265.948 231.122 266.404 231.398C266.872 231.674 267.382 231.812 267.934 231.812ZM279.498 233.18C278.622 233.156 277.848 232.946 277.176 232.55C276.504 232.154 275.94 231.638 275.484 231.002C275.04 230.354 274.704 229.658 274.476 228.914C274.248 228.158 274.134 227.42 274.134 226.7C274.134 225.932 274.254 225.164 274.494 224.396C274.746 223.628 275.106 222.932 275.574 222.308C276.042 221.672 276.606 221.168 277.266 220.796C277.926 220.412 278.67 220.22 279.498 220.22C280.386 220.22 281.16 220.424 281.82 220.832C282.492 221.24 283.05 221.768 283.494 222.416C283.95 223.064 284.292 223.766 284.52 224.522C284.748 225.278 284.862 226.004 284.862 226.7C284.862 227.48 284.736 228.254 284.484 229.022C284.244 229.778 283.89 230.468 283.422 231.092C282.954 231.716 282.39 232.22 281.73 232.604C281.07 232.976 280.326 233.168 279.498 233.18ZM275.772 226.7C275.796 227.288 275.886 227.876 276.042 228.464C276.198 229.052 276.432 229.592 276.744 230.084C277.056 230.576 277.44 230.972 277.896 231.272C278.352 231.572 278.886 231.722 279.498 231.722C280.134 231.722 280.686 231.566 281.154 231.254C281.622 230.93 282.006 230.516 282.306 230.012C282.618 229.496 282.846 228.95 282.99 228.374C283.146 227.786 283.224 227.228 283.224 226.7C283.224 226.112 283.14 225.524 282.972 224.936C282.816 224.348 282.576 223.808 282.252 223.316C281.928 222.824 281.538 222.428 281.082 222.128C280.626 221.828 280.098 221.678 279.498 221.678C278.862 221.678 278.31 221.84 277.842 222.164C277.374 222.476 276.984 222.89 276.672 223.406C276.372 223.91 276.144 224.456 275.988 225.044C275.844 225.62 275.772 226.172 275.772 226.7ZM295.832 228.77C295.832 229.586 295.628 230.33 295.22 231.002C294.824 231.662 294.278 232.19 293.582 232.586C292.898 232.982 292.124 233.18 291.26 233.18C290.348 233.18 289.544 232.964 288.848 232.532C288.152 232.088 287.606 231.452 287.21 230.624C286.826 229.796 286.634 228.812 286.634 227.672C286.634 225.992 286.832 224.594 287.228 223.478C287.624 222.362 288.182 221.528 288.902 220.976C289.622 220.412 290.462 220.13 291.422 220.13C292.25 220.13 293 220.334 293.672 220.742C294.356 221.138 294.89 221.69 295.274 222.398L294.302 223.352C294.038 222.788 293.648 222.344 293.132 222.02C292.616 221.684 292.04 221.516 291.404 221.516C290.756 221.516 290.186 221.714 289.694 222.11C289.202 222.506 288.818 223.076 288.542 223.82C288.278 224.564 288.14 225.464 288.128 226.52C288.308 226.1 288.56 225.74 288.884 225.44C289.208 225.128 289.586 224.888 290.018 224.72C290.462 224.552 290.93 224.468 291.422 224.468C292.25 224.468 292.994 224.66 293.654 225.044C294.326 225.428 294.854 225.944 295.238 226.592C295.634 227.24 295.832 227.966 295.832 228.77ZM291.278 231.812C291.83 231.812 292.334 231.674 292.79 231.398C293.258 231.122 293.63 230.756 293.906 230.3C294.182 229.832 294.32 229.322 294.32 228.77C294.32 228.218 294.182 227.714 293.906 227.258C293.63 226.802 293.258 226.436 292.79 226.16C292.334 225.884 291.83 225.746 291.278 225.746C290.726 225.746 290.216 225.884 289.748 226.16C289.292 226.436 288.926 226.802 288.65 227.258C288.374 227.714 288.236 228.218 288.236 228.77C288.236 229.322 288.374 229.832 288.65 230.3C288.926 230.756 289.292 231.122 289.748 231.398C290.216 231.674 290.726 231.812 291.278 231.812ZM297.964 234.458L298.324 232.856H297.784V230.984H299.278V232.856L298.738 234.458H297.964ZM310.311 229.382C310.311 230.138 310.101 230.798 309.681 231.362C309.273 231.926 308.721 232.364 308.025 232.676C307.341 232.988 306.591 233.144 305.775 233.144C304.923 233.144 304.161 232.976 303.489 232.64C302.817 232.292 302.283 231.83 301.887 231.254C301.503 230.678 301.311 230.03 301.311 229.31C301.311 228.782 301.431 228.308 301.671 227.888C301.911 227.468 302.211 227.114 302.571 226.826C302.943 226.526 303.321 226.304 303.705 226.16C303.357 226.004 303.033 225.8 302.733 225.548C302.433 225.296 302.193 225.002 302.013 224.666C301.833 224.33 301.743 223.964 301.743 223.568C301.743 223.028 301.863 222.554 302.103 222.146C302.343 221.726 302.661 221.372 303.057 221.084C303.453 220.796 303.891 220.58 304.371 220.436C304.851 220.292 305.331 220.22 305.811 220.22C306.291 220.22 306.771 220.292 307.251 220.436C307.731 220.58 308.169 220.796 308.565 221.084C308.973 221.36 309.297 221.708 309.537 222.128C309.777 222.536 309.897 223.01 309.897 223.55C309.897 223.946 309.807 224.318 309.627 224.666C309.447 225.002 309.201 225.296 308.889 225.548C308.589 225.8 308.259 226.004 307.899 226.16C308.331 226.328 308.727 226.568 309.087 226.88C309.459 227.18 309.753 227.54 309.969 227.96C310.197 228.38 310.311 228.854 310.311 229.382ZM308.709 229.274C308.709 228.89 308.625 228.548 308.457 228.248C308.289 227.936 308.061 227.678 307.773 227.474C307.485 227.258 307.167 227.096 306.819 226.988C306.483 226.88 306.141 226.826 305.793 226.826C305.313 226.826 304.851 226.928 304.407 227.132C303.975 227.336 303.621 227.624 303.345 227.996C303.069 228.356 302.931 228.788 302.931 229.292C302.931 229.664 303.015 230 303.183 230.3C303.351 230.6 303.573 230.858 303.849 231.074C304.137 231.29 304.449 231.452 304.785 231.56C305.133 231.668 305.481 231.722 305.829 231.722C306.309 231.722 306.765 231.62 307.197 231.416C307.641 231.212 308.001 230.924 308.277 230.552C308.565 230.18 308.709 229.754 308.709 229.274ZM303.345 223.622C303.345 224.042 303.471 224.402 303.723 224.702C303.975 225.002 304.293 225.23 304.677 225.386C305.061 225.53 305.439 225.602 305.811 225.602C306.195 225.602 306.573 225.524 306.945 225.368C307.329 225.212 307.647 224.984 307.899 224.684C308.151 224.384 308.277 224.018 308.277 223.586C308.277 223.178 308.157 222.83 307.917 222.542C307.689 222.254 307.383 222.032 306.999 221.876C306.627 221.72 306.225 221.642 305.793 221.642C305.373 221.642 304.971 221.726 304.587 221.894C304.215 222.05 303.915 222.278 303.687 222.578C303.459 222.866 303.345 223.214 303.345 223.622ZM316.999 233V223.604H318.637L322.129 229.76L325.639 223.604H327.241V233H325.729V225.89L322.633 231.326H321.625L318.511 225.89V233H316.999ZM328.969 233.072V231.65C329.281 231.65 329.557 231.572 329.797 231.416C330.049 231.248 330.271 230.972 330.463 230.588C330.655 230.192 330.805 229.652 330.913 228.968C331.033 228.272 331.111 227.39 331.147 226.322L331.255 223.604H337.645V233H336.061V225.008H332.659L332.623 226.466C332.575 227.75 332.467 228.818 332.299 229.67C332.131 230.522 331.897 231.194 331.597 231.686C331.297 232.178 330.925 232.532 330.481 232.748C330.049 232.964 329.545 233.072 328.969 233.072ZM345.261 233.18C344.493 233.18 343.809 232.988 343.209 232.604C342.609 232.22 342.135 231.734 341.787 231.146V236.834H340.203V223.604H341.607V225.368C341.979 224.792 342.465 224.33 343.065 223.982C343.665 223.622 344.319 223.442 345.027 223.442C345.675 223.442 346.269 223.574 346.809 223.838C347.349 224.102 347.817 224.462 348.213 224.918C348.609 225.374 348.915 225.896 349.131 226.484C349.359 227.06 349.473 227.666 349.473 228.302C349.473 229.19 349.293 230.006 348.933 230.75C348.585 231.494 348.093 232.088 347.457 232.532C346.821 232.964 346.089 233.18 345.261 233.18ZM344.775 231.812C345.243 231.812 345.663 231.716 346.035 231.524C346.419 231.32 346.743 231.056 347.007 230.732C347.283 230.396 347.493 230.018 347.637 229.598C347.781 229.178 347.853 228.746 347.853 228.302C347.853 227.834 347.769 227.39 347.601 226.97C347.445 226.55 347.217 226.178 346.917 225.854C346.629 225.53 346.287 225.278 345.891 225.098C345.507 224.906 345.087 224.81 344.631 224.81C344.343 224.81 344.043 224.864 343.731 224.972C343.431 225.08 343.143 225.236 342.867 225.44C342.591 225.632 342.357 225.854 342.165 226.106C341.973 226.358 341.847 226.628 341.787 226.916V229.598C341.967 230.006 342.207 230.378 342.507 230.714C342.807 231.05 343.155 231.32 343.551 231.524C343.947 231.716 344.355 231.812 344.775 231.812ZM350.374 235.214V231.596H350.572C350.836 231.596 351.076 231.518 351.292 231.362C351.52 231.206 351.718 230.936 351.886 230.552C352.066 230.156 352.21 229.616 352.318 228.932C352.426 228.248 352.498 227.378 352.534 226.322L352.624 223.604H359.014V231.596H360.292V235.214H358.888V233H351.778V235.214H350.374ZM352.786 231.596H357.43V225.008H354.028L353.974 226.466C353.938 227.486 353.866 228.344 353.758 229.04C353.662 229.724 353.53 230.27 353.362 230.678C353.206 231.086 353.014 231.392 352.786 231.596ZM365.327 228.41V226.97H370.385V228.41H365.327ZM365.327 230.822V229.562H371.285V230.822H365.327ZM366.839 233V220.22H371.267C371.879 220.22 372.419 220.34 372.887 220.58C373.367 220.808 373.775 221.12 374.111 221.516C374.447 221.9 374.699 222.338 374.867 222.83C375.047 223.31 375.137 223.802 375.137 224.306C375.137 225.002 374.993 225.668 374.705 226.304C374.417 226.928 373.991 227.438 373.427 227.834C372.875 228.218 372.191 228.41 371.375 228.41H368.459V233H366.839ZM368.459 226.97H371.285C371.849 226.97 372.293 226.85 372.617 226.61C372.941 226.37 373.169 226.046 373.301 225.638C373.433 225.23 373.499 224.786 373.499 224.306C373.499 223.802 373.415 223.352 373.247 222.956C373.091 222.548 372.839 222.23 372.491 222.002C372.143 221.774 371.699 221.66 371.159 221.66H368.459V226.97Z" fill="#2F2F2F"/>
<rect x="205" y="218" width="49" height="78" fill="#2D6FD0"/>
<rect x="396" y="60" width="51" height="236" fill="#2D6FD0"/>
<path d="M455.828 74C455.828 73.28 455.888 72.644 456.008 72.092C456.14 71.528 456.326 71.024 456.566 70.58C456.818 70.136 457.118 69.746 457.466 69.41C457.814 69.074 458.21 68.774 458.654 68.51C459.122 68.234 459.602 67.982 460.094 67.754C460.586 67.526 461.042 67.286 461.462 67.034C461.882 66.782 462.218 66.482 462.47 66.134C462.734 65.774 462.866 65.33 462.866 64.802C462.866 64.382 462.776 64.004 462.596 63.668C462.416 63.32 462.146 63.044 461.786 62.84C461.426 62.636 460.964 62.534 460.4 62.534C459.836 62.534 459.326 62.63 458.87 62.822C458.426 63.014 458.042 63.242 457.718 63.506C457.394 63.77 457.136 64.022 456.944 64.262L455.918 63.236C456.014 63.116 456.182 62.936 456.422 62.696C456.674 62.456 456.992 62.21 457.376 61.958C457.772 61.706 458.234 61.496 458.762 61.328C459.29 61.148 459.89 61.058 460.562 61.058C461.462 61.058 462.212 61.226 462.812 61.562C463.412 61.898 463.862 62.348 464.162 62.912C464.474 63.476 464.63 64.1 464.63 64.784C464.63 65.396 464.516 65.924 464.288 66.368C464.06 66.8 463.766 67.166 463.406 67.466C463.046 67.766 462.65 68.03 462.218 68.258C461.798 68.486 461.39 68.702 460.994 68.906C460.238 69.266 459.638 69.596 459.194 69.896C458.75 70.196 458.408 70.49 458.168 70.778C457.94 71.054 457.784 71.336 457.7 71.624C457.628 71.912 457.586 72.224 457.574 72.56H464.648V74H455.828ZM476.38 74.18C475.504 74.156 474.73 73.946 474.058 73.55C473.386 73.154 472.822 72.638 472.366 72.002C471.922 71.354 471.586 70.658 471.358 69.914C471.13 69.158 471.016 68.42 471.016 67.7C471.016 66.932 471.136 66.164 471.376 65.396C471.628 64.628 471.988 63.932 472.456 63.308C472.924 62.672 473.488 62.168 474.148 61.796C474.808 61.412 475.552 61.22 476.38 61.22C477.268 61.22 478.042 61.424 478.702 61.832C479.374 62.24 479.932 62.768 480.376 63.416C480.832 64.064 481.174 64.766 481.402 65.522C481.63 66.278 481.744 67.004 481.744 67.7C481.744 68.48 481.618 69.254 481.366 70.022C481.126 70.778 480.772 71.468 480.304 72.092C479.836 72.716 479.272 73.22 478.612 73.604C477.952 73.976 477.208 74.168 476.38 74.18ZM472.654 67.7C472.678 68.288 472.768 68.876 472.924 69.464C473.08 70.052 473.314 70.592 473.626 71.084C473.938 71.576 474.322 71.972 474.778 72.272C475.234 72.572 475.768 72.722 476.38 72.722C477.016 72.722 477.568 72.566 478.036 72.254C478.504 71.93 478.888 71.516 479.188 71.012C479.5 70.496 479.728 69.95 479.872 69.374C480.028 68.786 480.106 68.228 480.106 67.7C480.106 67.112 480.022 66.524 479.854 65.936C479.698 65.348 479.458 64.808 479.134 64.316C478.81 63.824 478.42 63.428 477.964 63.128C477.508 62.828 476.98 62.678 476.38 62.678C475.744 62.678 475.192 62.84 474.724 63.164C474.256 63.476 473.866 63.89 473.554 64.406C473.254 64.91 473.026 65.456 472.87 66.044C472.726 66.62 472.654 67.172 472.654 67.7ZM490.14 72.56V74H483.786V72.56H486.234V62.75C486.138 62.894 485.982 63.056 485.766 63.236C485.55 63.404 485.298 63.572 485.01 63.74C484.734 63.896 484.452 64.028 484.164 64.136C483.876 64.244 483.612 64.298 483.372 64.298V62.822C483.696 62.822 484.02 62.738 484.344 62.57C484.68 62.402 484.986 62.204 485.262 61.976C485.55 61.748 485.778 61.544 485.946 61.364C486.126 61.184 486.222 61.088 486.234 61.076H487.854V72.56H490.14ZM496.753 74.18C495.877 74.156 495.103 73.946 494.431 73.55C493.759 73.154 493.195 72.638 492.739 72.002C492.295 71.354 491.959 70.658 491.731 69.914C491.503 69.158 491.389 68.42 491.389 67.7C491.389 66.932 491.509 66.164 491.749 65.396C492.001 64.628 492.361 63.932 492.829 63.308C493.297 62.672 493.861 62.168 494.521 61.796C495.181 61.412 495.925 61.22 496.753 61.22C497.641 61.22 498.415 61.424 499.075 61.832C499.747 62.24 500.305 62.768 500.749 63.416C501.205 64.064 501.547 64.766 501.775 65.522C502.003 66.278 502.117 67.004 502.117 67.7C502.117 68.48 501.991 69.254 501.739 70.022C501.499 70.778 501.145 71.468 500.677 72.092C500.209 72.716 499.645 73.22 498.985 73.604C498.325 73.976 497.581 74.168 496.753 74.18ZM493.027 67.7C493.051 68.288 493.141 68.876 493.297 69.464C493.453 70.052 493.687 70.592 493.999 71.084C494.311 71.576 494.695 71.972 495.151 72.272C495.607 72.572 496.141 72.722 496.753 72.722C497.389 72.722 497.941 72.566 498.409 72.254C498.877 71.93 499.261 71.516 499.561 71.012C499.873 70.496 500.101 69.95 500.245 69.374C500.401 68.786 500.479 68.228 500.479 67.7C500.479 67.112 500.395 66.524 500.227 65.936C500.071 65.348 499.831 64.808 499.507 64.316C499.183 63.824 498.793 63.428 498.337 63.128C497.881 62.828 497.353 62.678 496.753 62.678C496.117 62.678 495.565 62.84 495.097 63.164C494.629 63.476 494.239 63.89 493.927 64.406C493.627 64.91 493.399 65.456 493.243 66.044C493.099 66.62 493.027 67.172 493.027 67.7ZM504.303 75.458L504.663 73.856H504.123V71.984H505.617V73.856L505.077 75.458H504.303ZM507.56 65.54C507.56 64.712 507.758 63.968 508.154 63.308C508.562 62.636 509.114 62.108 509.81 61.724C510.506 61.328 511.28 61.13 512.132 61.13C513.056 61.13 513.86 61.352 514.544 61.796C515.24 62.228 515.78 62.852 516.164 63.668C516.56 64.484 516.758 65.468 516.758 66.62C516.758 68.3 516.56 69.704 516.164 70.832C515.768 71.948 515.21 72.788 514.49 73.352C513.77 73.904 512.93 74.18 511.97 74.18C511.142 74.18 510.386 73.982 509.702 73.586C509.03 73.178 508.502 72.614 508.118 71.894L509.09 70.94C509.354 71.492 509.744 71.936 510.26 72.272C510.788 72.608 511.364 72.776 511.988 72.776C512.648 72.776 513.218 72.584 513.698 72.2C514.19 71.804 514.574 71.234 514.85 70.49C515.126 69.746 515.264 68.846 515.264 67.79C515.096 68.198 514.844 68.558 514.508 68.87C514.184 69.182 513.806 69.422 513.374 69.59C512.942 69.758 512.474 69.842 511.97 69.842C511.154 69.842 510.41 69.65 509.738 69.266C509.066 68.882 508.532 68.366 508.136 67.718C507.752 67.058 507.56 66.332 507.56 65.54ZM512.114 62.48C511.562 62.48 511.058 62.618 510.602 62.894C510.146 63.17 509.78 63.542 509.504 64.01C509.228 64.466 509.09 64.97 509.09 65.522C509.09 66.074 509.228 66.578 509.504 67.034C509.78 67.49 510.146 67.856 510.602 68.132C511.07 68.408 511.58 68.546 512.132 68.546C512.684 68.546 513.188 68.408 513.644 68.132C514.112 67.856 514.484 67.49 514.76 67.034C515.036 66.578 515.174 66.08 515.174 65.54C515.174 64.988 515.03 64.484 514.742 64.028C514.466 63.56 514.094 63.188 513.626 62.912C513.17 62.624 512.666 62.48 512.114 62.48ZM523.496 74V64.604H525.134L528.626 70.76L532.136 64.604H533.738V74H532.226V66.89L529.13 72.326H528.122L525.008 66.89V74H523.496ZM535.466 74.072V72.65C535.778 72.65 536.054 72.572 536.294 72.416C536.546 72.248 536.768 71.972 536.96 71.588C537.152 71.192 537.302 70.652 537.41 69.968C537.53 69.272 537.608 68.39 537.644 67.322L537.752 64.604H544.142V74H542.558V66.008H539.156L539.12 67.466C539.072 68.75 538.964 69.818 538.796 70.67C538.628 71.522 538.394 72.194 538.094 72.686C537.794 73.178 537.422 73.532 536.978 73.748C536.546 73.964 536.042 74.072 535.466 74.072ZM551.758 74.18C550.99 74.18 550.306 73.988 549.706 73.604C549.106 73.22 548.632 72.734 548.284 72.146V77.834H546.7V64.604H548.104V66.368C548.476 65.792 548.962 65.33 549.562 64.982C550.162 64.622 550.816 64.442 551.524 64.442C552.172 64.442 552.766 64.574 553.306 64.838C553.846 65.102 554.314 65.462 554.71 65.918C555.106 66.374 555.412 66.896 555.628 67.484C555.856 68.06 555.97 68.666 555.97 69.302C555.97 70.19 555.79 71.006 555.43 71.75C555.082 72.494 554.59 73.088 553.954 73.532C553.318 73.964 552.586 74.18 551.758 74.18ZM551.272 72.812C551.74 72.812 552.16 72.716 552.532 72.524C552.916 72.32 553.24 72.056 553.504 71.732C553.78 71.396 553.99 71.018 554.134 70.598C554.278 70.178 554.35 69.746 554.35 69.302C554.35 68.834 554.266 68.39 554.098 67.97C553.942 67.55 553.714 67.178 553.414 66.854C553.126 66.53 552.784 66.278 552.388 66.098C552.004 65.906 551.584 65.81 551.128 65.81C550.84 65.81 550.54 65.864 550.228 65.972C549.928 66.08 549.64 66.236 549.364 66.44C549.088 66.632 548.854 66.854 548.662 67.106C548.47 67.358 548.344 67.628 548.284 67.916V70.598C548.464 71.006 548.704 71.378 549.004 71.714C549.304 72.05 549.652 72.32 550.048 72.524C550.444 72.716 550.852 72.812 551.272 72.812ZM556.871 76.214V72.596H557.069C557.333 72.596 557.573 72.518 557.789 72.362C558.017 72.206 558.215 71.936 558.383 71.552C558.563 71.156 558.707 70.616 558.815 69.932C558.923 69.248 558.995 68.378 559.031 67.322L559.121 64.604H565.511V72.596H566.789V76.214H565.385V74H558.275V76.214H556.871ZM559.283 72.596H563.927V66.008H560.525L560.471 67.466C560.435 68.486 560.363 69.344 560.255 70.04C560.159 70.724 560.027 71.27 559.859 71.678C559.703 72.086 559.511 72.392 559.283 72.596ZM571.824 69.41V67.97H576.882V69.41H571.824ZM571.824 71.822V70.562H577.782V71.822H571.824ZM573.336 74V61.22H577.764C578.376 61.22 578.916 61.34 579.384 61.58C579.864 61.808 580.272 62.12 580.608 62.516C580.944 62.9 581.196 63.338 581.364 63.83C581.544 64.31 581.634 64.802 581.634 65.306C581.634 66.002 581.49 66.668 581.202 67.304C580.914 67.928 580.488 68.438 579.924 68.834C579.372 69.218 578.688 69.41 577.872 69.41H574.956V74H573.336ZM574.956 67.97H577.782C578.346 67.97 578.79 67.85 579.114 67.61C579.438 67.37 579.666 67.046 579.798 66.638C579.93 66.23 579.996 65.786 579.996 65.306C579.996 64.802 579.912 64.352 579.744 63.956C579.588 63.548 579.336 63.23 578.988 63.002C578.64 62.774 578.196 62.66 577.656 62.66H574.956V67.97Z" fill="#2F2F2F"/>
</svg>
