<svg width="295" height="308" viewBox="0 0 295 308" fill="none" xmlns="http://www.w3.org/2000/svg">
<path d="M31 8L31 290" stroke="#F5F6F7"/>
<path d="M75 8L75 290" stroke="#F5F6F7"/>
<path d="M119 8L119 289" stroke="#F5F6F7"/>
<path d="M207 7L207 289" stroke="#F5F6F7"/>
<path d="M163 6L163 289" stroke="#F5F6F7"/>
<path d="M251 7L251 289" stroke="#F5F6F7"/>
<path d="M294 7L294 289" stroke="#F5F6F7"/>
<path d="M31 175H295" stroke="#F5F6F7"/>
<path d="M31 231H295" stroke="#F5F6F7"/>
<path d="M31 120H295" stroke="#F5F6F7"/>
<path d="M31 64L295 64" stroke="#F5F6F7"/>
<path d="M31 7H295" stroke="#F5F6F7"/>
<path d="M31 289L295 289" stroke="#F5F6F7"/>
<path d="M31 6L31 289" stroke="#F5F6F7"/>
<path d="M194.812 307.113V306.603L197.722 303.753C197.989 303.493 198.189 303.267 198.322 303.073C198.455 302.873 198.545 302.687 198.592 302.513C198.639 302.34 198.662 302.177 198.662 302.023C198.662 301.617 198.522 301.297 198.242 301.063C197.969 300.83 197.562 300.713 197.022 300.713C196.609 300.713 196.242 300.777 195.922 300.903C195.609 301.03 195.339 301.227 195.112 301.493L194.602 301.053C194.875 300.733 195.225 300.487 195.652 300.313C196.079 300.14 196.555 300.053 197.082 300.053C197.555 300.053 197.965 300.13 198.312 300.283C198.659 300.43 198.925 300.647 199.112 300.933C199.305 301.22 199.402 301.557 199.402 301.943C199.402 302.17 199.369 302.393 199.302 302.613C199.242 302.833 199.129 303.067 198.962 303.313C198.802 303.553 198.565 303.827 198.252 304.133L195.582 306.753L195.382 306.473H199.722V307.113H194.812ZM203.396 307.173C202.856 307.173 202.376 307.033 201.956 306.753C201.536 306.467 201.206 306.06 200.966 305.533C200.726 305 200.606 304.36 200.606 303.613C200.606 302.867 200.726 302.23 200.966 301.703C201.206 301.17 201.536 300.763 201.956 300.483C202.376 300.197 202.856 300.053 203.396 300.053C203.936 300.053 204.416 300.197 204.836 300.483C205.256 300.763 205.586 301.17 205.826 301.703C206.073 302.23 206.196 302.867 206.196 303.613C206.196 304.36 206.073 305 205.826 305.533C205.586 306.06 205.256 306.467 204.836 306.753C204.416 307.033 203.936 307.173 203.396 307.173ZM203.396 306.513C203.809 306.513 204.169 306.403 204.476 306.183C204.783 305.957 205.023 305.63 205.196 305.203C205.369 304.77 205.456 304.24 205.456 303.613C205.456 302.987 205.369 302.46 205.196 302.033C205.023 301.6 204.783 301.273 204.476 301.053C204.169 300.827 203.809 300.713 203.396 300.713C202.996 300.713 202.639 300.827 202.326 301.053C202.013 301.273 201.769 301.6 201.596 302.033C201.423 302.46 201.336 302.987 201.336 303.613C201.336 304.24 201.423 304.77 201.596 305.203C201.769 305.63 202.013 305.957 202.326 306.183C202.639 306.403 202.996 306.513 203.396 306.513ZM209.219 307.173C208.713 307.173 208.233 307.093 207.779 306.933C207.333 306.767 206.973 306.547 206.699 306.273L207.049 305.703C207.276 305.937 207.579 306.13 207.959 306.283C208.346 306.437 208.766 306.513 209.219 306.513C209.799 306.513 210.243 306.387 210.549 306.133C210.863 305.88 211.019 305.54 211.019 305.113C211.019 304.687 210.866 304.347 210.559 304.093C210.259 303.84 209.783 303.713 209.129 303.713H208.629V303.183L210.789 300.473L210.889 300.753H206.989V300.113H211.489V300.623L209.329 303.333L208.979 303.103H209.249C210.089 303.103 210.716 303.29 211.129 303.663C211.549 304.037 211.759 304.517 211.759 305.103C211.759 305.497 211.666 305.85 211.479 306.163C211.293 306.477 211.009 306.723 210.629 306.903C210.256 307.083 209.786 307.173 209.219 307.173ZM215.564 307.173C215.024 307.173 214.544 307.033 214.124 306.753C213.704 306.467 213.374 306.06 213.134 305.533C212.894 305 212.774 304.36 212.774 303.613C212.774 302.867 212.894 302.23 213.134 301.703C213.374 301.17 213.704 300.763 214.124 300.483C214.544 300.197 215.024 300.053 215.564 300.053C216.104 300.053 216.584 300.197 217.004 300.483C217.424 300.763 217.754 301.17 217.994 301.703C218.241 302.23 218.364 302.867 218.364 303.613C218.364 304.36 218.241 305 217.994 305.533C217.754 306.06 217.424 306.467 217.004 306.753C216.584 307.033 216.104 307.173 215.564 307.173ZM215.564 306.513C215.977 306.513 216.337 306.403 216.644 306.183C216.951 305.957 217.191 305.63 217.364 305.203C217.537 304.77 217.624 304.24 217.624 303.613C217.624 302.987 217.537 302.46 217.364 302.033C217.191 301.6 216.951 301.273 216.644 301.053C216.337 300.827 215.977 300.713 215.564 300.713C215.164 300.713 214.807 300.827 214.494 301.053C214.181 301.273 213.937 301.6 213.764 302.033C213.591 302.46 213.504 302.987 213.504 303.613C213.504 304.24 213.591 304.77 213.764 305.203C213.937 305.63 214.181 305.957 214.494 306.183C214.807 306.403 215.164 306.513 215.564 306.513Z" fill="#858C95"/>
<path d="M61.1609 306.473H65.0109V307.113H60.1009V306.603L63.0109 303.753C63.8009 302.973 63.9509 302.503 63.9509 302.023C63.9509 301.213 63.3809 300.713 62.3109 300.713C61.4909 300.713 60.8609 300.963 60.4009 301.493L59.8909 301.053C60.4309 300.413 61.3009 300.053 62.3709 300.053C63.7909 300.053 64.6909 300.773 64.6909 301.943C64.6909 302.613 64.4809 303.213 63.5409 304.133L61.1609 306.473ZM68.6655 307.173C67.0455 307.173 65.8755 305.843 65.8755 303.613C65.8755 301.383 67.0455 300.053 68.6655 300.053C70.2855 300.053 71.4655 301.383 71.4655 303.613C71.4655 305.843 70.2855 307.173 68.6655 307.173ZM68.6655 306.513C69.8855 306.513 70.7255 305.483 70.7255 303.613C70.7255 301.743 69.8855 300.713 68.6655 300.713C67.4455 300.713 66.6055 301.743 66.6055 303.613C66.6055 305.483 67.4455 306.513 68.6655 306.513ZM72.047 300.113H74.417V307.113H73.697V300.753H72.047V300.113ZM77.9303 302.983C80.0403 302.983 80.8403 303.813 80.8403 305.053C80.8403 306.243 80.0103 307.173 78.3003 307.173C77.2903 307.173 76.3303 306.823 75.7903 306.273L76.1403 305.703C76.5903 306.173 77.3903 306.513 78.2903 306.513C79.4803 306.513 80.1103 305.933 80.1103 305.083C80.1103 304.183 79.5503 303.623 77.7703 303.623H76.2803L76.6403 300.113H80.4703V300.753H77.2703L77.0303 302.983H77.9303Z" fill="#858C95"/>
<path d="M22.6889 289.06C22.1489 289.06 21.6689 288.92 21.2489 288.64C20.8289 288.353 20.4989 287.947 20.2589 287.42C20.0189 286.887 19.8989 286.247 19.8989 285.5C19.8989 284.753 20.0189 284.117 20.2589 283.59C20.4989 283.057 20.8289 282.65 21.2489 282.37C21.6689 282.083 22.1489 281.94 22.6889 281.94C23.2289 281.94 23.7089 282.083 24.1289 282.37C24.5489 282.65 24.8789 283.057 25.1189 283.59C25.3656 284.117 25.4889 284.753 25.4889 285.5C25.4889 286.247 25.3656 286.887 25.1189 287.42C24.8789 287.947 24.5489 288.353 24.1289 288.64C23.7089 288.92 23.2289 289.06 22.6889 289.06ZM22.6889 288.4C23.1022 288.4 23.4622 288.29 23.7689 288.07C24.0756 287.843 24.3156 287.517 24.4889 287.09C24.6622 286.657 24.7489 286.127 24.7489 285.5C24.7489 284.873 24.6622 284.347 24.4889 283.92C24.3156 283.487 24.0756 283.16 23.7689 282.94C23.4622 282.713 23.1022 282.6 22.6889 282.6C22.2889 282.6 21.9322 282.713 21.6189 282.94C21.3056 283.16 21.0622 283.487 20.8889 283.92C20.7156 284.347 20.6289 284.873 20.6289 285.5C20.6289 286.127 20.7156 286.657 20.8889 287.09C21.0622 287.517 21.3056 287.843 21.6189 288.07C21.9322 288.29 22.2889 288.4 22.6889 288.4Z" fill="#858C95"/>
<path d="M9.45375 228.87C11.5638 228.87 12.3638 229.7 12.3638 230.94C12.3638 232.13 11.5338 233.06 9.82375 233.06C8.81375 233.06 7.85375 232.71 7.31375 232.16L7.66375 231.59C8.11375 232.06 8.91375 232.4 9.81375 232.4C11.0038 232.4 11.6338 231.82 11.6338 230.97C11.6338 230.07 11.0738 229.51 9.29375 229.51H7.80375L8.16375 226H11.9938V226.64H8.79375L8.55375 228.87H9.45375ZM16.0678 233.06C14.4478 233.06 13.2778 231.73 13.2778 229.5C13.2778 227.27 14.4478 225.94 16.0678 225.94C17.6878 225.94 18.8678 227.27 18.8678 229.5C18.8678 231.73 17.6878 233.06 16.0678 233.06ZM16.0678 232.4C17.2878 232.4 18.1278 231.37 18.1278 229.5C18.1278 227.63 17.2878 226.6 16.0678 226.6C14.8478 226.6 14.0078 227.63 14.0078 229.5C14.0078 231.37 14.8478 232.4 16.0678 232.4ZM22.6889 233.06C21.0689 233.06 19.8989 231.73 19.8989 229.5C19.8989 227.27 21.0689 225.94 22.6889 225.94C24.3089 225.94 25.4889 227.27 25.4889 229.5C25.4889 231.73 24.3089 233.06 22.6889 233.06ZM22.6889 232.4C23.9089 232.4 24.7489 231.37 24.7489 229.5C24.7489 227.63 23.9089 226.6 22.6889 226.6C21.4689 226.6 20.6289 227.63 20.6289 229.5C20.6289 231.37 21.4689 232.4 22.6889 232.4Z" fill="#858C95"/>
<path d="M2.61344 172H4.98344V179H4.26344V172.64H2.61344V172ZM9.44672 179.06C7.82672 179.06 6.65672 177.73 6.65672 175.5C6.65672 173.27 7.82672 171.94 9.44672 171.94C11.0667 171.94 12.2467 173.27 12.2467 175.5C12.2467 177.73 11.0667 179.06 9.44672 179.06ZM9.44672 178.4C10.6667 178.4 11.5067 177.37 11.5067 175.5C11.5067 173.63 10.6667 172.6 9.44672 172.6C8.22672 172.6 7.38672 173.63 7.38672 175.5C7.38672 177.37 8.22672 178.4 9.44672 178.4ZM16.0678 179.06C14.4478 179.06 13.2778 177.73 13.2778 175.5C13.2778 173.27 14.4478 171.94 16.0678 171.94C17.6878 171.94 18.8678 173.27 18.8678 175.5C18.8678 177.73 17.6878 179.06 16.0678 179.06ZM16.0678 178.4C17.2878 178.4 18.1278 177.37 18.1278 175.5C18.1278 173.63 17.2878 172.6 16.0678 172.6C14.8478 172.6 14.0078 173.63 14.0078 175.5C14.0078 177.37 14.8478 178.4 16.0678 178.4ZM22.6889 179.06C21.0689 179.06 19.8989 177.73 19.8989 175.5C19.8989 173.27 21.0689 171.94 22.6889 171.94C24.3089 171.94 25.4889 173.27 25.4889 175.5C25.4889 177.73 24.3089 179.06 22.6889 179.06ZM22.6889 178.4C23.9089 178.4 24.7489 177.37 24.7489 175.5C24.7489 173.63 23.9089 172.6 22.6889 172.6C21.4689 172.6 20.6289 173.63 20.6289 175.5C20.6289 177.37 21.4689 178.4 22.6889 178.4Z" fill="#858C95"/>
<path d="M1.94219 66.36H5.79219V67H0.882188V66.49L3.79219 63.64C4.58219 62.86 4.73219 62.39 4.73219 61.91C4.73219 61.1 4.16219 60.6 3.09219 60.6C2.27219 60.6 1.64219 60.85 1.18219 61.38L0.672188 60.94C1.21219 60.3 2.08219 59.94 3.15219 59.94C4.57219 59.94 5.47219 60.66 5.47219 61.83C5.47219 62.5 5.26219 63.1 4.32219 64.02L1.94219 66.36ZM9.44672 67.06C7.82672 67.06 6.65672 65.73 6.65672 63.5C6.65672 61.27 7.82672 59.94 9.44672 59.94C11.0667 59.94 12.2467 61.27 12.2467 63.5C12.2467 65.73 11.0667 67.06 9.44672 67.06ZM9.44672 66.4C10.6667 66.4 11.5067 65.37 11.5067 63.5C11.5067 61.63 10.6667 60.6 9.44672 60.6C8.22672 60.6 7.38672 61.63 7.38672 63.5C7.38672 65.37 8.22672 66.4 9.44672 66.4ZM16.0678 67.06C14.4478 67.06 13.2778 65.73 13.2778 63.5C13.2778 61.27 14.4478 59.94 16.0678 59.94C17.6878 59.94 18.8678 61.27 18.8678 63.5C18.8678 65.73 17.6878 67.06 16.0678 67.06ZM16.0678 66.4C17.2878 66.4 18.1278 65.37 18.1278 63.5C18.1278 61.63 17.2878 60.6 16.0678 60.6C14.8478 60.6 14.0078 61.63 14.0078 63.5C14.0078 65.37 14.8478 66.4 16.0678 66.4ZM22.6889 67.06C21.0689 67.06 19.8989 65.73 19.8989 63.5C19.8989 61.27 21.0689 59.94 22.6889 59.94C24.3089 59.94 25.4889 61.27 25.4889 63.5C25.4889 65.73 24.3089 67.06 22.6889 67.06ZM22.6889 66.4C23.9089 66.4 24.7489 65.37 24.7489 63.5C24.7489 61.63 23.9089 60.6 22.6889 60.6C21.4689 60.6 20.6289 61.63 20.6289 63.5C20.6289 65.37 21.4689 66.4 22.6889 66.4Z" fill="#858C95"/>
<path d="M2.86016 9.94398H6.71016V10.584H1.80016V10.074L4.71016 7.22398C5.50016 6.44398 5.65016 5.97398 5.65016 5.49398C5.65016 4.68398 5.08016 4.18398 4.01016 4.18398C3.19016 4.18398 2.56016 4.43398 2.10016 4.96398L1.59016 4.52398C2.13016 3.88398 3.00016 3.52398 4.07016 3.52398C5.49016 3.52398 6.39016 4.24398 6.39016 5.41398C6.39016 6.08398 6.18016 6.68398 5.24016 7.60398L2.86016 9.94398ZM9.45375 6.45398C11.5638 6.45398 12.3638 7.28398 12.3638 8.52398C12.3638 9.71398 11.5338 10.644 9.82375 10.644C8.81375 10.644 7.85375 10.294 7.31375 9.74398L7.66375 9.17398C8.11375 9.64398 8.91375 9.98398 9.81375 9.98398C11.0038 9.98398 11.6338 9.40398 11.6338 8.55398C11.6338 7.65398 11.0738 7.09398 9.29375 7.09398H7.80375L8.16375 3.58398H11.9938V4.22398H8.79375L8.55375 6.45398H9.45375ZM16.0678 10.644C14.4478 10.644 13.2778 9.31398 13.2778 7.08398C13.2778 4.85398 14.4478 3.52398 16.0678 3.52398C17.6878 3.52398 18.8678 4.85398 18.8678 7.08398C18.8678 9.31398 17.6878 10.644 16.0678 10.644ZM16.0678 9.98398C17.2878 9.98398 18.1278 8.95398 18.1278 7.08398C18.1278 5.21398 17.2878 4.18398 16.0678 4.18398C14.8478 4.18398 14.0078 5.21398 14.0078 7.08398C14.0078 8.95398 14.8478 9.98398 16.0678 9.98398ZM22.6889 10.644C21.0689 10.644 19.8989 9.31398 19.8989 7.08398C19.8989 4.85398 21.0689 3.52398 22.6889 3.52398C24.3089 3.52398 25.4889 4.85398 25.4889 7.08398C25.4889 9.31398 24.3089 10.644 22.6889 10.644ZM22.6889 9.98398C23.9089 9.98398 24.7489 8.95398 24.7489 7.08398C24.7489 5.21398 23.9089 4.18398 22.6889 4.18398C21.4689 4.18398 20.6289 5.21398 20.6289 7.08398C20.6289 8.95398 21.4689 9.98398 22.6889 9.98398Z" fill="#858C95"/>
<path d="M3.57047 116H5.94047V123H5.22047V116.64H3.57047V116ZM9.45375 118.87C11.5638 118.87 12.3638 119.7 12.3638 120.94C12.3638 122.13 11.5338 123.06 9.82375 123.06C8.81375 123.06 7.85375 122.71 7.31375 122.16L7.66375 121.59C8.11375 122.06 8.91375 122.4 9.81375 122.4C11.0038 122.4 11.6338 121.82 11.6338 120.97C11.6338 120.07 11.0738 119.51 9.29375 119.51H7.80375L8.16375 116H11.9938V116.64H8.79375L8.55375 118.87H9.45375ZM16.0678 123.06C14.4478 123.06 13.2778 121.73 13.2778 119.5C13.2778 117.27 14.4478 115.94 16.0678 115.94C17.6878 115.94 18.8678 117.27 18.8678 119.5C18.8678 121.73 17.6878 123.06 16.0678 123.06ZM16.0678 122.4C17.2878 122.4 18.1278 121.37 18.1278 119.5C18.1278 117.63 17.2878 116.6 16.0678 116.6C14.8478 116.6 14.0078 117.63 14.0078 119.5C14.0078 121.37 14.8478 122.4 16.0678 122.4ZM22.6889 123.06C21.0689 123.06 19.8989 121.73 19.8989 119.5C19.8989 117.27 21.0689 115.94 22.6889 115.94C24.3089 115.94 25.4889 117.27 25.4889 119.5C25.4889 121.73 24.3089 123.06 22.6889 123.06ZM22.6889 122.4C23.9089 122.4 24.7489 121.37 24.7489 119.5C24.7489 117.63 23.9089 116.6 22.6889 116.6C21.4689 116.6 20.6289 117.63 20.6289 119.5C20.6289 121.37 21.4689 122.4 22.6889 122.4Z" fill="#858C95"/>
<path d="M112.43 223.475C112.43 224.155 112.26 224.775 111.92 225.335C111.59 225.885 111.135 226.325 110.555 226.655C109.985 226.985 109.34 227.15 108.62 227.15C107.86 227.15 107.19 226.97 106.61 226.61C106.03 226.24 105.575 225.71 105.245 225.02C104.925 224.33 104.765 223.51 104.765 222.56C104.765 221.16 104.93 219.995 105.26 219.065C105.59 218.135 106.055 217.44 106.655 216.98C107.255 216.51 107.955 216.275 108.755 216.275C109.445 216.275 110.07 216.445 110.63 216.785C111.2 217.115 111.645 217.575 111.965 218.165L111.155 218.96C110.935 218.49 110.61 218.12 110.18 217.85C109.75 217.57 109.27 217.43 108.74 217.43C108.2 217.43 107.725 217.595 107.315 217.925C106.905 218.255 106.585 218.73 106.355 219.35C106.135 219.97 106.02 220.72 106.01 221.6C106.16 221.25 106.37 220.95 106.64 220.7C106.91 220.44 107.225 220.24 107.585 220.1C107.955 219.96 108.345 219.89 108.755 219.89C109.445 219.89 110.065 220.05 110.615 220.37C111.175 220.69 111.615 221.12 111.935 221.66C112.265 222.2 112.43 222.805 112.43 223.475ZM108.635 226.01C109.095 226.01 109.515 225.895 109.895 225.665C110.285 225.435 110.595 225.13 110.825 224.75C111.055 224.36 111.17 223.935 111.17 223.475C111.17 223.015 111.055 222.595 110.825 222.215C110.595 221.835 110.285 221.53 109.895 221.3C109.515 221.07 109.095 220.955 108.635 220.955C108.175 220.955 107.75 221.07 107.36 221.3C106.98 221.53 106.675 221.835 106.445 222.215C106.215 222.595 106.1 223.015 106.1 223.475C106.1 223.935 106.215 224.36 106.445 224.75C106.675 225.13 106.98 225.435 107.36 225.665C107.75 225.895 108.175 226.01 108.635 226.01ZM118.272 227.15C117.542 227.13 116.897 226.955 116.337 226.625C115.777 226.295 115.307 225.865 114.927 225.335C114.557 224.795 114.277 224.215 114.087 223.595C113.897 222.965 113.802 222.35 113.802 221.75C113.802 221.11 113.902 220.47 114.102 219.83C114.312 219.19 114.612 218.61 115.002 218.09C115.392 217.56 115.862 217.14 116.412 216.83C116.962 216.51 117.582 216.35 118.272 216.35C119.012 216.35 119.657 216.52 120.207 216.86C120.767 217.2 121.232 217.64 121.602 218.18C121.982 218.72 122.267 219.305 122.457 219.935C122.647 220.565 122.742 221.17 122.742 221.75C122.742 222.4 122.637 223.045 122.427 223.685C122.227 224.315 121.932 224.89 121.542 225.41C121.152 225.93 120.682 226.35 120.132 226.67C119.582 226.98 118.962 227.14 118.272 227.15ZM115.167 221.75C115.187 222.24 115.262 222.73 115.392 223.22C115.522 223.71 115.717 224.16 115.977 224.57C116.237 224.98 116.557 225.31 116.937 225.56C117.317 225.81 117.762 225.935 118.272 225.935C118.802 225.935 119.262 225.805 119.652 225.545C120.042 225.275 120.362 224.93 120.612 224.51C120.872 224.08 121.062 223.625 121.182 223.145C121.312 222.655 121.377 222.19 121.377 221.75C121.377 221.26 121.307 220.77 121.167 220.28C121.037 219.79 120.837 219.34 120.567 218.93C120.297 218.52 119.972 218.19 119.592 217.94C119.212 217.69 118.772 217.565 118.272 217.565C117.742 217.565 117.282 217.7 116.892 217.97C116.502 218.23 116.177 218.575 115.917 219.005C115.667 219.425 115.477 219.88 115.347 220.37C115.227 220.85 115.167 221.31 115.167 221.75ZM131.883 223.475C131.883 224.155 131.713 224.775 131.373 225.335C131.043 225.885 130.588 226.325 130.008 226.655C129.438 226.985 128.793 227.15 128.073 227.15C127.313 227.15 126.643 226.97 126.063 226.61C125.483 226.24 125.028 225.71 124.698 225.02C124.378 224.33 124.218 223.51 124.218 222.56C124.218 221.16 124.383 219.995 124.713 219.065C125.043 218.135 125.508 217.44 126.108 216.98C126.708 216.51 127.408 216.275 128.208 216.275C128.898 216.275 129.523 216.445 130.083 216.785C130.653 217.115 131.098 217.575 131.418 218.165L130.608 218.96C130.388 218.49 130.063 218.12 129.633 217.85C129.203 217.57 128.723 217.43 128.193 217.43C127.653 217.43 127.178 217.595 126.768 217.925C126.358 218.255 126.038 218.73 125.808 219.35C125.588 219.97 125.473 220.72 125.463 221.6C125.613 221.25 125.823 220.95 126.093 220.7C126.363 220.44 126.678 220.24 127.038 220.1C127.408 219.96 127.798 219.89 128.208 219.89C128.898 219.89 129.518 220.05 130.068 220.37C130.628 220.69 131.068 221.12 131.388 221.66C131.718 222.2 131.883 222.805 131.883 223.475ZM128.088 226.01C128.548 226.01 128.968 225.895 129.348 225.665C129.738 225.435 130.048 225.13 130.278 224.75C130.508 224.36 130.623 223.935 130.623 223.475C130.623 223.015 130.508 222.595 130.278 222.215C130.048 221.835 129.738 221.53 129.348 221.3C128.968 221.07 128.548 220.955 128.088 220.955C127.628 220.955 127.203 221.07 126.813 221.3C126.433 221.53 126.128 221.835 125.898 222.215C125.668 222.595 125.553 223.015 125.553 223.475C125.553 223.935 125.668 224.36 125.898 224.75C126.128 225.13 126.433 225.435 126.813 225.665C127.203 225.895 127.628 226.01 128.088 226.01ZM133.66 228.215L133.96 226.88H133.51V225.32H134.755V226.88L134.305 228.215H133.66ZM143.949 223.985C143.949 224.615 143.774 225.165 143.424 225.635C143.084 226.105 142.624 226.47 142.044 226.73C141.474 226.99 140.849 227.12 140.169 227.12C139.459 227.12 138.824 226.98 138.264 226.7C137.704 226.41 137.259 226.025 136.929 225.545C136.609 225.065 136.449 224.525 136.449 223.925C136.449 223.485 136.549 223.09 136.749 222.74C136.949 222.39 137.199 222.095 137.499 221.855C137.809 221.605 138.124 221.42 138.444 221.3C138.154 221.17 137.884 221 137.634 220.79C137.384 220.58 137.184 220.335 137.034 220.055C136.884 219.775 136.809 219.47 136.809 219.14C136.809 218.69 136.909 218.295 137.109 217.955C137.309 217.605 137.574 217.31 137.904 217.07C138.234 216.83 138.599 216.65 138.999 216.53C139.399 216.41 139.799 216.35 140.199 216.35C140.599 216.35 140.999 216.41 141.399 216.53C141.799 216.65 142.164 216.83 142.494 217.07C142.834 217.3 143.104 217.59 143.304 217.94C143.504 218.28 143.604 218.675 143.604 219.125C143.604 219.455 143.529 219.765 143.379 220.055C143.229 220.335 143.024 220.58 142.764 220.79C142.514 221 142.239 221.17 141.939 221.3C142.299 221.44 142.629 221.64 142.929 221.9C143.239 222.15 143.484 222.45 143.664 222.8C143.854 223.15 143.949 223.545 143.949 223.985ZM142.614 223.895C142.614 223.575 142.544 223.29 142.404 223.04C142.264 222.78 142.074 222.565 141.834 222.395C141.594 222.215 141.329 222.08 141.039 221.99C140.759 221.9 140.474 221.855 140.184 221.855C139.784 221.855 139.399 221.94 139.029 222.11C138.669 222.28 138.374 222.52 138.144 222.83C137.914 223.13 137.799 223.49 137.799 223.91C137.799 224.22 137.869 224.5 138.009 224.75C138.149 225 138.334 225.215 138.564 225.395C138.804 225.575 139.064 225.71 139.344 225.8C139.634 225.89 139.924 225.935 140.214 225.935C140.614 225.935 140.994 225.85 141.354 225.68C141.724 225.51 142.024 225.27 142.254 224.96C142.494 224.65 142.614 224.295 142.614 223.895ZM138.144 219.185C138.144 219.535 138.249 219.835 138.459 220.085C138.669 220.335 138.934 220.525 139.254 220.655C139.574 220.775 139.889 220.835 140.199 220.835C140.519 220.835 140.834 220.77 141.144 220.64C141.464 220.51 141.729 220.32 141.939 220.07C142.149 219.82 142.254 219.515 142.254 219.155C142.254 218.815 142.154 218.525 141.954 218.285C141.764 218.045 141.509 217.86 141.189 217.73C140.879 217.6 140.544 217.535 140.184 217.535C139.834 217.535 139.499 217.605 139.179 217.745C138.869 217.875 138.619 218.065 138.429 218.315C138.239 218.555 138.144 218.845 138.144 219.185ZM105.05 242V234.17H106.415L109.325 239.3L112.25 234.17H113.585V242H112.325V236.075L109.745 240.605H108.905L106.31 236.075V242H105.05ZM115.024 242.06V240.875C115.284 240.875 115.514 240.81 115.714 240.68C115.924 240.54 116.109 240.31 116.269 239.99C116.429 239.66 116.554 239.21 116.644 238.64C116.744 238.06 116.809 237.325 116.839 236.435L116.929 234.17H122.254V242H120.934V235.34H118.099L118.069 236.555C118.029 237.625 117.939 238.515 117.799 239.225C117.659 239.935 117.464 240.495 117.214 240.905C116.964 241.315 116.654 241.61 116.284 241.79C115.924 241.97 115.504 242.06 115.024 242.06ZM128.601 242.15C127.961 242.15 127.391 241.99 126.891 241.67C126.391 241.35 125.996 240.945 125.706 240.455V245.195H124.386V234.17H125.556V235.64C125.866 235.16 126.271 234.775 126.771 234.485C127.271 234.185 127.816 234.035 128.406 234.035C128.946 234.035 129.441 234.145 129.891 234.365C130.341 234.585 130.731 234.885 131.061 235.265C131.391 235.645 131.646 236.08 131.826 236.57C132.016 237.05 132.111 237.555 132.111 238.085C132.111 238.825 131.961 239.505 131.661 240.125C131.371 240.745 130.961 241.24 130.431 241.61C129.901 241.97 129.291 242.15 128.601 242.15ZM128.196 241.01C128.586 241.01 128.936 240.93 129.246 240.77C129.566 240.6 129.836 240.38 130.056 240.11C130.286 239.83 130.461 239.515 130.581 239.165C130.701 238.815 130.761 238.455 130.761 238.085C130.761 237.695 130.691 237.325 130.551 236.975C130.421 236.625 130.231 236.315 129.981 236.045C129.741 235.775 129.456 235.565 129.126 235.415C128.806 235.255 128.456 235.175 128.076 235.175C127.836 235.175 127.586 235.22 127.326 235.31C127.076 235.4 126.836 235.53 126.606 235.7C126.376 235.86 126.181 236.045 126.021 236.255C125.861 236.465 125.756 236.69 125.706 236.93V239.165C125.856 239.505 126.056 239.815 126.306 240.095C126.556 240.375 126.846 240.6 127.176 240.77C127.506 240.93 127.846 241.01 128.196 241.01ZM132.862 243.845V240.83H133.027C133.247 240.83 133.447 240.765 133.627 240.635C133.817 240.505 133.982 240.28 134.122 239.96C134.272 239.63 134.392 239.18 134.482 238.61C134.572 238.04 134.632 237.315 134.662 236.435L134.737 234.17H140.062V240.83H141.127V243.845H139.957V242H134.032V243.845H132.862ZM134.872 240.83H138.742V235.34H135.907L135.862 236.555C135.832 237.405 135.772 238.12 135.682 238.7C135.602 239.27 135.492 239.725 135.352 240.065C135.222 240.405 135.062 240.66 134.872 240.83ZM145.323 238.175V236.975H149.538V238.175H145.323ZM145.323 240.185V239.135H150.288V240.185H145.323ZM146.583 242V231.35H150.273C150.783 231.35 151.233 231.45 151.623 231.65C152.023 231.84 152.363 232.1 152.643 232.43C152.923 232.75 153.133 233.115 153.273 233.525C153.423 233.925 153.498 234.335 153.498 234.755C153.498 235.335 153.378 235.89 153.138 236.42C152.898 236.94 152.543 237.365 152.073 237.695C151.613 238.015 151.043 238.175 150.363 238.175H147.933V242H146.583ZM147.933 236.975H150.288C150.758 236.975 151.128 236.875 151.398 236.675C151.668 236.475 151.858 236.205 151.968 235.865C152.078 235.525 152.133 235.155 152.133 234.755C152.133 234.335 152.063 233.96 151.923 233.63C151.793 233.29 151.583 233.025 151.293 232.835C151.003 232.645 150.633 232.55 150.183 232.55H147.933V236.975Z" fill="#2F2F2F"/>
<path d="M239.69 43C239.69 42.4 239.74 41.87 239.84 41.41C239.95 40.94 240.105 40.52 240.305 40.15C240.515 39.78 240.765 39.455 241.055 39.175C241.345 38.895 241.675 38.645 242.045 38.425C242.435 38.195 242.835 37.985 243.245 37.795C243.655 37.605 244.035 37.405 244.385 37.195C244.735 36.985 245.015 36.735 245.225 36.445C245.445 36.145 245.555 35.775 245.555 35.335C245.555 34.985 245.48 34.67 245.33 34.39C245.18 34.1 244.955 33.87 244.655 33.7C244.355 33.53 243.97 33.445 243.5 33.445C243.03 33.445 242.605 33.525 242.225 33.685C241.855 33.845 241.535 34.035 241.265 34.255C240.995 34.475 240.78 34.685 240.62 34.885L239.765 34.03C239.845 33.93 239.985 33.78 240.185 33.58C240.395 33.38 240.66 33.175 240.98 32.965C241.31 32.755 241.695 32.58 242.135 32.44C242.575 32.29 243.075 32.215 243.635 32.215C244.385 32.215 245.01 32.355 245.51 32.635C246.01 32.915 246.385 33.29 246.635 33.76C246.895 34.23 247.025 34.75 247.025 35.32C247.025 35.83 246.93 36.27 246.74 36.64C246.55 37 246.305 37.305 246.005 37.555C245.705 37.805 245.375 38.025 245.015 38.215C244.665 38.405 244.325 38.585 243.995 38.755C243.365 39.055 242.865 39.33 242.495 39.58C242.125 39.83 241.84 40.075 241.64 40.315C241.45 40.545 241.32 40.78 241.25 41.02C241.19 41.26 241.155 41.52 241.145 41.8H247.04V43H239.69ZM256.817 43.15C256.087 43.13 255.442 42.955 254.882 42.625C254.322 42.295 253.852 41.865 253.472 41.335C253.102 40.795 252.822 40.215 252.632 39.595C252.442 38.965 252.347 38.35 252.347 37.75C252.347 37.11 252.447 36.47 252.647 35.83C252.857 35.19 253.157 34.61 253.547 34.09C253.937 33.56 254.407 33.14 254.957 32.83C255.507 32.51 256.127 32.35 256.817 32.35C257.557 32.35 258.202 32.52 258.752 32.86C259.312 33.2 259.777 33.64 260.147 34.18C260.527 34.72 260.812 35.305 261.002 35.935C261.192 36.565 261.287 37.17 261.287 37.75C261.287 38.4 261.182 39.045 260.972 39.685C260.772 40.315 260.477 40.89 260.087 41.41C259.697 41.93 259.227 42.35 258.677 42.67C258.127 42.98 257.507 43.14 256.817 43.15ZM253.712 37.75C253.732 38.24 253.807 38.73 253.937 39.22C254.067 39.71 254.262 40.16 254.522 40.57C254.782 40.98 255.102 41.31 255.482 41.56C255.862 41.81 256.307 41.935 256.817 41.935C257.347 41.935 257.807 41.805 258.197 41.545C258.587 41.275 258.907 40.93 259.157 40.51C259.417 40.08 259.607 39.625 259.727 39.145C259.857 38.655 259.922 38.19 259.922 37.75C259.922 37.26 259.852 36.77 259.712 36.28C259.582 35.79 259.382 35.34 259.112 34.93C258.842 34.52 258.517 34.19 258.137 33.94C257.757 33.69 257.317 33.565 256.817 33.565C256.287 33.565 255.827 33.7 255.437 33.97C255.047 34.23 254.722 34.575 254.462 35.005C254.212 35.425 254.022 35.88 253.892 36.37C253.772 36.85 253.712 37.31 253.712 37.75ZM268.283 41.8V43H262.988V41.8H265.028V33.625C264.948 33.745 264.818 33.88 264.638 34.03C264.458 34.17 264.248 34.31 264.008 34.45C263.778 34.58 263.543 34.69 263.303 34.78C263.063 34.87 262.843 34.915 262.643 34.915V33.685C262.913 33.685 263.183 33.615 263.453 33.475C263.733 33.335 263.988 33.17 264.218 32.98C264.458 32.79 264.648 32.62 264.788 32.47C264.938 32.32 265.018 32.24 265.028 32.23H266.378V41.8H268.283ZM273.794 43.15C273.064 43.13 272.419 42.955 271.859 42.625C271.299 42.295 270.829 41.865 270.449 41.335C270.079 40.795 269.799 40.215 269.609 39.595C269.419 38.965 269.324 38.35 269.324 37.75C269.324 37.11 269.424 36.47 269.624 35.83C269.834 35.19 270.134 34.61 270.524 34.09C270.914 33.56 271.384 33.14 271.934 32.83C272.484 32.51 273.104 32.35 273.794 32.35C274.534 32.35 275.179 32.52 275.729 32.86C276.289 33.2 276.754 33.64 277.124 34.18C277.504 34.72 277.789 35.305 277.979 35.935C278.169 36.565 278.264 37.17 278.264 37.75C278.264 38.4 278.159 39.045 277.949 39.685C277.749 40.315 277.454 40.89 277.064 41.41C276.674 41.93 276.204 42.35 275.654 42.67C275.104 42.98 274.484 43.14 273.794 43.15ZM270.689 37.75C270.709 38.24 270.784 38.73 270.914 39.22C271.044 39.71 271.239 40.16 271.499 40.57C271.759 40.98 272.079 41.31 272.459 41.56C272.839 41.81 273.284 41.935 273.794 41.935C274.324 41.935 274.784 41.805 275.174 41.545C275.564 41.275 275.884 40.93 276.134 40.51C276.394 40.08 276.584 39.625 276.704 39.145C276.834 38.655 276.899 38.19 276.899 37.75C276.899 37.26 276.829 36.77 276.689 36.28C276.559 35.79 276.359 35.34 276.089 34.93C275.819 34.52 275.494 34.19 275.114 33.94C274.734 33.69 274.294 33.565 273.794 33.565C273.264 33.565 272.804 33.7 272.414 33.97C272.024 34.23 271.699 34.575 271.439 35.005C271.189 35.425 270.999 35.88 270.869 36.37C270.749 36.85 270.689 37.31 270.689 37.75ZM280.086 44.215L280.386 42.88H279.936V41.32H281.181V42.88L280.731 44.215H280.086ZM282.8 35.95C282.8 35.26 282.965 34.64 283.295 34.09C283.635 33.53 284.095 33.09 284.675 32.77C285.255 32.44 285.9 32.275 286.61 32.275C287.38 32.275 288.05 32.46 288.62 32.83C289.2 33.19 289.65 33.71 289.97 34.39C290.3 35.07 290.465 35.89 290.465 36.85C290.465 38.25 290.3 39.42 289.97 40.36C289.64 41.29 289.175 41.99 288.575 42.46C287.975 42.92 287.275 43.15 286.475 43.15C285.785 43.15 285.155 42.985 284.585 42.655C284.025 42.315 283.585 41.845 283.265 41.245L284.075 40.45C284.295 40.91 284.62 41.28 285.05 41.56C285.49 41.84 285.97 41.98 286.49 41.98C287.04 41.98 287.515 41.82 287.915 41.5C288.325 41.17 288.645 40.695 288.875 40.075C289.105 39.455 289.22 38.705 289.22 37.825C289.08 38.165 288.87 38.465 288.59 38.725C288.32 38.985 288.005 39.185 287.645 39.325C287.285 39.465 286.895 39.535 286.475 39.535C285.795 39.535 285.175 39.375 284.615 39.055C284.055 38.735 283.61 38.305 283.28 37.765C282.96 37.215 282.8 36.61 282.8 35.95ZM286.595 33.4C286.135 33.4 285.715 33.515 285.335 33.745C284.955 33.975 284.65 34.285 284.42 34.675C284.19 35.055 284.075 35.475 284.075 35.935C284.075 36.395 284.19 36.815 284.42 37.195C284.65 37.575 284.955 37.88 285.335 38.11C285.725 38.34 286.15 38.455 286.61 38.455C287.07 38.455 287.49 38.34 287.87 38.11C288.26 37.88 288.57 37.575 288.8 37.195C289.03 36.815 289.145 36.4 289.145 35.95C289.145 35.49 289.025 35.07 288.785 34.69C288.555 34.3 288.245 33.99 287.855 33.76C287.475 33.52 287.055 33.4 286.595 33.4ZM240.05 58V50.17H241.415L244.325 55.3L247.25 50.17H248.585V58H247.325V52.075L244.745 56.605H243.905L241.31 52.075V58H240.05ZM250.024 58.06V56.875C250.284 56.875 250.514 56.81 250.714 56.68C250.924 56.54 251.109 56.31 251.269 55.99C251.429 55.66 251.554 55.21 251.644 54.64C251.744 54.06 251.809 53.325 251.839 52.435L251.929 50.17H257.254V58H255.934V51.34H253.099L253.069 52.555C253.029 53.625 252.939 54.515 252.799 55.225C252.659 55.935 252.464 56.495 252.214 56.905C251.964 57.315 251.654 57.61 251.284 57.79C250.924 57.97 250.504 58.06 250.024 58.06ZM263.601 58.15C262.961 58.15 262.391 57.99 261.891 57.67C261.391 57.35 260.996 56.945 260.706 56.455V61.195H259.386V50.17H260.556V51.64C260.866 51.16 261.271 50.775 261.771 50.485C262.271 50.185 262.816 50.035 263.406 50.035C263.946 50.035 264.441 50.145 264.891 50.365C265.341 50.585 265.731 50.885 266.061 51.265C266.391 51.645 266.646 52.08 266.826 52.57C267.016 53.05 267.111 53.555 267.111 54.085C267.111 54.825 266.961 55.505 266.661 56.125C266.371 56.745 265.961 57.24 265.431 57.61C264.901 57.97 264.291 58.15 263.601 58.15ZM263.196 57.01C263.586 57.01 263.936 56.93 264.246 56.77C264.566 56.6 264.836 56.38 265.056 56.11C265.286 55.83 265.461 55.515 265.581 55.165C265.701 54.815 265.761 54.455 265.761 54.085C265.761 53.695 265.691 53.325 265.551 52.975C265.421 52.625 265.231 52.315 264.981 52.045C264.741 51.775 264.456 51.565 264.126 51.415C263.806 51.255 263.456 51.175 263.076 51.175C262.836 51.175 262.586 51.22 262.326 51.31C262.076 51.4 261.836 51.53 261.606 51.7C261.376 51.86 261.181 52.045 261.021 52.255C260.861 52.465 260.756 52.69 260.706 52.93V55.165C260.856 55.505 261.056 55.815 261.306 56.095C261.556 56.375 261.846 56.6 262.176 56.77C262.506 56.93 262.846 57.01 263.196 57.01ZM267.862 59.845V56.83H268.027C268.247 56.83 268.447 56.765 268.627 56.635C268.817 56.505 268.982 56.28 269.122 55.96C269.272 55.63 269.392 55.18 269.482 54.61C269.572 54.04 269.632 53.315 269.662 52.435L269.737 50.17H275.062V56.83H276.127V59.845H274.957V58H269.032V59.845H267.862ZM269.872 56.83H273.742V51.34H270.907L270.862 52.555C270.832 53.405 270.772 54.12 270.682 54.7C270.602 55.27 270.492 55.725 270.352 56.065C270.222 56.405 270.062 56.66 269.872 56.83ZM280.323 54.175V52.975H284.538V54.175H280.323ZM280.323 56.185V55.135H285.288V56.185H280.323ZM281.583 58V47.35H285.273C285.783 47.35 286.233 47.45 286.623 47.65C287.023 47.84 287.363 48.1 287.643 48.43C287.923 48.75 288.133 49.115 288.273 49.525C288.423 49.925 288.498 50.335 288.498 50.755C288.498 51.335 288.378 51.89 288.138 52.42C287.898 52.94 287.543 53.365 287.073 53.695C286.613 54.015 286.043 54.175 285.363 54.175H282.933V58H281.583ZM282.933 52.975H285.288C285.758 52.975 286.128 52.875 286.398 52.675C286.668 52.475 286.858 52.205 286.968 51.865C287.078 51.525 287.133 51.155 287.133 50.755C287.133 50.335 287.063 49.96 286.923 49.63C286.793 49.29 286.583 49.025 286.293 48.835C286.003 48.645 285.633 48.55 285.183 48.55H282.933V52.975Z" fill="#2F2F2F"/>
<rect x="50" y="214" width="49" height="75" fill="#2D6FD0"/>
<rect x="183" y="32" width="51" height="257" fill="#2D6FD0"/>
</svg>
