<svg width="606" height="297" viewBox="0 0 606 297" fill="none" xmlns="http://www.w3.org/2000/svg">
<path d="M124 4L124 277" stroke="#F5F6F7"/>
<path d="M220 4L220 277" stroke="#F5F6F7"/>
<path d="M411 4L411 277" stroke="#F5F6F7"/>
<path d="M316 4L316 278" stroke="#F5F6F7"/>
<path d="M507 4L507 277" stroke="#F5F6F7"/>
<path d="M603 4L603 277" stroke="#F5F6F7"/>
<path d="M29 221H603" stroke="#F5F6F7"/>
<path d="M28 167L603 167" stroke="#F5F6F7"/>
<path d="M28 113L603 113" stroke="#F5F6F7"/>
<path d="M28 57L603 56.9999" stroke="#F5F6F7"/>
<path d="M28 4H603" stroke="#F5F6F7"/>
<path d="M28 277L603 277" stroke="#F5F6F7"/>
<path d="M28 3L28 277" stroke="#F5F6F7"/>
<path d="M28.8743 296V295.388L32.3663 291.968C32.6863 291.656 32.9263 291.384 33.0863 291.152C33.2463 290.912 33.3543 290.688 33.4103 290.48C33.4663 290.272 33.4943 290.076 33.4943 289.892C33.4943 289.404 33.3263 289.02 32.9903 288.74C32.6623 288.46 32.1743 288.32 31.5263 288.32C31.0303 288.32 30.5903 288.396 30.2063 288.548C29.8303 288.7 29.5063 288.936 29.2343 289.256L28.6223 288.728C28.9503 288.344 29.3703 288.048 29.8823 287.84C30.3943 287.632 30.9663 287.528 31.5983 287.528C32.1663 287.528 32.6583 287.62 33.0743 287.804C33.4903 287.98 33.8103 288.24 34.0343 288.584C34.2663 288.928 34.3823 289.332 34.3823 289.796C34.3823 290.068 34.3423 290.336 34.2623 290.6C34.1903 290.864 34.0543 291.144 33.8543 291.44C33.6623 291.728 33.3783 292.056 33.0023 292.424L29.7983 295.568L29.5583 295.232H34.7663V296H28.8743ZM39.1751 296.072C38.5271 296.072 37.9511 295.904 37.4471 295.568C36.9431 295.224 36.5471 294.736 36.2591 294.104C35.9711 293.464 35.8271 292.696 35.8271 291.8C35.8271 290.904 35.9711 290.14 36.2591 289.508C36.5471 288.868 36.9431 288.38 37.4471 288.044C37.9511 287.7 38.5271 287.528 39.1751 287.528C39.8231 287.528 40.3991 287.7 40.9031 288.044C41.4071 288.38 41.8031 288.868 42.0911 289.508C42.3871 290.14 42.5351 290.904 42.5351 291.8C42.5351 292.696 42.3871 293.464 42.0911 294.104C41.8031 294.736 41.4071 295.224 40.9031 295.568C40.3991 295.904 39.8231 296.072 39.1751 296.072ZM39.1751 295.28C39.6711 295.28 40.1031 295.148 40.4711 294.884C40.8391 294.612 41.1271 294.22 41.3351 293.708C41.5431 293.188 41.6471 292.552 41.6471 291.8C41.6471 291.048 41.5431 290.416 41.3351 289.904C41.1271 289.384 40.8391 288.992 40.4711 288.728C40.1031 288.456 39.6711 288.32 39.1751 288.32C38.6951 288.32 38.2671 288.456 37.8911 288.728C37.5151 288.992 37.2231 289.384 37.0151 289.904C36.8071 290.416 36.7031 291.048 36.7031 291.8C36.7031 292.552 36.8071 293.188 37.0151 293.708C37.2231 294.22 37.5151 294.612 37.8911 294.884C38.2671 295.148 38.6951 295.28 39.1751 295.28ZM45.2364 296V287.96L45.6204 288.368H43.2564V287.6H46.1004V296H45.2364ZM50.7604 296.072C50.1604 296.072 49.5884 295.976 49.0444 295.784C48.5004 295.584 48.0684 295.32 47.7484 294.992L48.1684 294.308C48.4324 294.588 48.7924 294.82 49.2484 295.004C49.7124 295.188 50.2124 295.28 50.7484 295.28C51.4604 295.28 52.0004 295.124 52.3684 294.812C52.7444 294.492 52.9324 294.076 52.9324 293.564C52.9324 293.204 52.8444 292.896 52.6684 292.64C52.5004 292.376 52.2124 292.172 51.8044 292.028C51.3964 291.884 50.8364 291.812 50.1244 291.812H48.3364L48.7684 287.6H53.3644V288.368H49.1164L49.5604 287.948L49.1884 291.476L48.7444 291.044H50.3164C51.1644 291.044 51.8444 291.148 52.3564 291.356C52.8684 291.564 53.2364 291.856 53.4604 292.232C53.6924 292.6 53.8084 293.032 53.8084 293.528C53.8084 294 53.6964 294.432 53.4724 294.824C53.2484 295.208 52.9124 295.512 52.4644 295.736C52.0164 295.96 51.4484 296.072 50.7604 296.072Z" fill="#858C95"/>
<path d="M397.468 296V295.388L400.96 291.968C401.28 291.656 401.52 291.384 401.68 291.152C401.84 290.912 401.948 290.688 402.004 290.48C402.06 290.272 402.088 290.076 402.088 289.892C402.088 289.404 401.92 289.02 401.584 288.74C401.256 288.46 400.768 288.32 400.12 288.32C399.624 288.32 399.184 288.396 398.8 288.548C398.424 288.7 398.1 288.936 397.828 289.256L397.216 288.728C397.544 288.344 397.964 288.048 398.476 287.84C398.988 287.632 399.56 287.528 400.192 287.528C400.76 287.528 401.252 287.62 401.668 287.804C402.084 287.98 402.404 288.24 402.628 288.584C402.86 288.928 402.976 289.332 402.976 289.796C402.976 290.068 402.936 290.336 402.856 290.6C402.784 290.864 402.648 291.144 402.448 291.44C402.256 291.728 401.972 292.056 401.596 292.424L398.392 295.568L398.152 295.232H403.36V296H397.468ZM407.769 296.072C407.121 296.072 406.545 295.904 406.041 295.568C405.537 295.224 405.141 294.736 404.853 294.104C404.565 293.464 404.421 292.696 404.421 291.8C404.421 290.904 404.565 290.14 404.853 289.508C405.141 288.868 405.537 288.38 406.041 288.044C406.545 287.7 407.121 287.528 407.769 287.528C408.417 287.528 408.993 287.7 409.497 288.044C410.001 288.38 410.397 288.868 410.685 289.508C410.981 290.14 411.129 290.904 411.129 291.8C411.129 292.696 410.981 293.464 410.685 294.104C410.397 294.736 410.001 295.224 409.497 295.568C408.993 295.904 408.417 296.072 407.769 296.072ZM407.769 295.28C408.265 295.28 408.697 295.148 409.065 294.884C409.433 294.612 409.721 294.22 409.929 293.708C410.137 293.188 410.241 292.552 410.241 291.8C410.241 291.048 410.137 290.416 409.929 289.904C409.721 289.384 409.433 288.992 409.065 288.728C408.697 288.456 408.265 288.32 407.769 288.32C407.289 288.32 406.861 288.456 406.485 288.728C406.109 288.992 405.817 289.384 405.609 289.904C405.401 290.416 405.297 291.048 405.297 291.8C405.297 292.552 405.401 293.188 405.609 293.708C405.817 294.22 406.109 294.612 406.485 294.884C406.861 295.148 407.289 295.28 407.769 295.28ZM412.21 296V295.388L415.702 291.968C416.022 291.656 416.262 291.384 416.422 291.152C416.582 290.912 416.69 290.688 416.746 290.48C416.802 290.272 416.83 290.076 416.83 289.892C416.83 289.404 416.662 289.02 416.326 288.74C415.998 288.46 415.51 288.32 414.862 288.32C414.366 288.32 413.926 288.396 413.542 288.548C413.166 288.7 412.842 288.936 412.57 289.256L411.958 288.728C412.286 288.344 412.706 288.048 413.218 287.84C413.73 287.632 414.302 287.528 414.934 287.528C415.502 287.528 415.994 287.62 416.41 287.804C416.826 287.98 417.146 288.24 417.37 288.584C417.602 288.928 417.718 289.332 417.718 289.796C417.718 290.068 417.678 290.336 417.598 290.6C417.526 290.864 417.39 291.144 417.19 291.44C416.998 291.728 416.714 292.056 416.338 292.424L413.134 295.568L412.894 295.232H418.102V296H412.21ZM421.839 296.072C421.239 296.072 420.667 295.976 420.123 295.784C419.579 295.584 419.147 295.32 418.827 294.992L419.247 294.308C419.511 294.588 419.871 294.82 420.326 295.004C420.791 295.188 421.291 295.28 421.827 295.28C422.539 295.28 423.079 295.124 423.447 294.812C423.823 294.492 424.011 294.076 424.011 293.564C424.011 293.204 423.923 292.896 423.747 292.64C423.579 292.376 423.291 292.172 422.883 292.028C422.475 291.884 421.915 291.812 421.203 291.812H419.415L419.847 287.6H424.443V288.368H420.195L420.639 287.948L420.267 291.476L419.823 291.044H421.395C422.243 291.044 422.923 291.148 423.435 291.356C423.947 291.564 424.315 291.856 424.539 292.232C424.771 292.6 424.887 293.032 424.887 293.528C424.887 294 424.775 294.432 424.551 294.824C424.327 295.208 423.991 295.512 423.543 295.736C423.095 295.96 422.527 296.072 421.839 296.072Z" fill="#858C95"/>
<path d="M207.804 296V295.388L211.296 291.968C211.616 291.656 211.856 291.384 212.016 291.152C212.176 290.912 212.284 290.688 212.34 290.48C212.396 290.272 212.424 290.076 212.424 289.892C212.424 289.404 212.256 289.02 211.92 288.74C211.592 288.46 211.104 288.32 210.456 288.32C209.96 288.32 209.52 288.396 209.136 288.548C208.76 288.7 208.436 288.936 208.164 289.256L207.552 288.728C207.88 288.344 208.3 288.048 208.812 287.84C209.324 287.632 209.896 287.528 210.528 287.528C211.096 287.528 211.588 287.62 212.004 287.804C212.42 287.98 212.74 288.24 212.964 288.584C213.196 288.928 213.312 289.332 213.312 289.796C213.312 290.068 213.272 290.336 213.192 290.6C213.12 290.864 212.984 291.144 212.784 291.44C212.592 291.728 212.308 292.056 211.932 292.424L208.728 295.568L208.488 295.232H213.696V296H207.804ZM218.105 296.072C217.457 296.072 216.881 295.904 216.377 295.568C215.873 295.224 215.477 294.736 215.189 294.104C214.901 293.464 214.757 292.696 214.757 291.8C214.757 290.904 214.901 290.14 215.189 289.508C215.477 288.868 215.873 288.38 216.377 288.044C216.881 287.7 217.457 287.528 218.105 287.528C218.753 287.528 219.329 287.7 219.833 288.044C220.337 288.38 220.733 288.868 221.021 289.508C221.317 290.14 221.465 290.904 221.465 291.8C221.465 292.696 221.317 293.464 221.021 294.104C220.733 294.736 220.337 295.224 219.833 295.568C219.329 295.904 218.753 296.072 218.105 296.072ZM218.105 295.28C218.601 295.28 219.033 295.148 219.401 294.884C219.769 294.612 220.057 294.22 220.265 293.708C220.473 293.188 220.577 292.552 220.577 291.8C220.577 291.048 220.473 290.416 220.265 289.904C220.057 289.384 219.769 288.992 219.401 288.728C219.033 288.456 218.601 288.32 218.105 288.32C217.625 288.32 217.197 288.456 216.821 288.728C216.445 288.992 216.153 289.384 215.945 289.904C215.737 290.416 215.633 291.048 215.633 291.8C215.633 292.552 215.737 293.188 215.945 293.708C216.153 294.22 216.445 294.612 216.821 294.884C217.197 295.148 217.625 295.28 218.105 295.28ZM224.166 296V287.96L224.55 288.368H222.186V287.6H225.03V296H224.166ZM230.23 296.072C229.558 296.072 228.978 295.976 228.49 295.784C228.01 295.592 227.638 295.316 227.374 294.956C227.118 294.588 226.99 294.156 226.99 293.66C226.99 293.18 227.114 292.772 227.362 292.436C227.618 292.092 227.986 291.828 228.466 291.644C228.954 291.46 229.542 291.368 230.23 291.368C230.91 291.368 231.494 291.46 231.982 291.644C232.47 291.828 232.842 292.092 233.098 292.436C233.362 292.772 233.494 293.18 233.494 293.66C233.494 294.156 233.362 294.588 233.098 294.956C232.834 295.316 232.458 295.592 231.97 295.784C231.482 295.976 230.902 296.072 230.23 296.072ZM230.23 295.34C230.974 295.34 231.554 295.188 231.97 294.884C232.394 294.58 232.606 294.168 232.606 293.648C232.606 293.128 232.394 292.72 231.97 292.424C231.554 292.12 230.974 291.968 230.23 291.968C229.486 291.968 228.906 292.12 228.49 292.424C228.074 292.72 227.866 293.128 227.866 293.648C227.866 294.168 228.074 294.58 228.49 294.884C228.906 295.188 229.486 295.34 230.23 295.34ZM230.23 291.86C229.606 291.86 229.074 291.776 228.634 291.608C228.202 291.44 227.87 291.2 227.638 290.888C227.406 290.568 227.29 290.188 227.29 289.748C227.29 289.284 227.41 288.888 227.65 288.56C227.898 288.224 228.242 287.968 228.682 287.792C229.122 287.616 229.638 287.528 230.23 287.528C230.822 287.528 231.338 287.616 231.778 287.792C232.226 287.968 232.574 288.224 232.822 288.56C233.07 288.888 233.194 289.284 233.194 289.748C233.194 290.188 233.078 290.568 232.846 290.888C232.614 291.2 232.274 291.44 231.826 291.608C231.386 291.776 230.854 291.86 230.23 291.86ZM230.23 291.284C230.886 291.284 231.398 291.148 231.766 290.876C232.134 290.604 232.318 290.24 232.318 289.784C232.318 289.304 232.126 288.932 231.742 288.668C231.366 288.396 230.862 288.26 230.23 288.26C229.598 288.26 229.094 288.396 228.718 288.668C228.342 288.932 228.154 289.3 228.154 289.772C228.154 290.236 228.334 290.604 228.694 290.876C229.062 291.148 229.574 291.284 230.23 291.284Z" fill="#858C95"/>
<path d="M576.327 296V295.388L579.819 291.968C580.139 291.656 580.379 291.384 580.539 291.152C580.699 290.912 580.807 290.688 580.863 290.48C580.919 290.272 580.947 290.076 580.947 289.892C580.947 289.404 580.779 289.02 580.443 288.74C580.115 288.46 579.627 288.32 578.979 288.32C578.483 288.32 578.043 288.396 577.659 288.548C577.283 288.7 576.959 288.936 576.687 289.256L576.075 288.728C576.403 288.344 576.823 288.048 577.335 287.84C577.847 287.632 578.419 287.528 579.051 287.528C579.619 287.528 580.111 287.62 580.527 287.804C580.943 287.98 581.263 288.24 581.487 288.584C581.719 288.928 581.835 289.332 581.835 289.796C581.835 290.068 581.795 290.336 581.715 290.6C581.643 290.864 581.507 291.144 581.307 291.44C581.115 291.728 580.831 292.056 580.455 292.424L577.251 295.568L577.011 295.232H582.219V296H576.327ZM586.628 296.072C585.98 296.072 585.404 295.904 584.9 295.568C584.396 295.224 584 294.736 583.712 294.104C583.424 293.464 583.28 292.696 583.28 291.8C583.28 290.904 583.424 290.14 583.712 289.508C584 288.868 584.396 288.38 584.9 288.044C585.404 287.7 585.98 287.528 586.628 287.528C587.276 287.528 587.852 287.7 588.356 288.044C588.86 288.38 589.256 288.868 589.544 289.508C589.84 290.14 589.988 290.904 589.988 291.8C589.988 292.696 589.84 293.464 589.544 294.104C589.256 294.736 588.86 295.224 588.356 295.568C587.852 295.904 587.276 296.072 586.628 296.072ZM586.628 295.28C587.124 295.28 587.556 295.148 587.924 294.884C588.292 294.612 588.58 294.22 588.788 293.708C588.996 293.188 589.1 292.552 589.1 291.8C589.1 291.048 588.996 290.416 588.788 289.904C588.58 289.384 588.292 288.992 587.924 288.728C587.556 288.456 587.124 288.32 586.628 288.32C586.148 288.32 585.72 288.456 585.344 288.728C584.968 288.992 584.676 289.384 584.468 289.904C584.26 290.416 584.156 291.048 584.156 291.8C584.156 292.552 584.26 293.188 584.468 293.708C584.676 294.22 584.968 294.612 585.344 294.884C585.72 295.148 586.148 295.28 586.628 295.28ZM593.616 296.072C593.008 296.072 592.432 295.976 591.888 295.784C591.352 295.584 590.92 295.32 590.592 294.992L591.012 294.308C591.284 294.588 591.648 294.82 592.104 295.004C592.568 295.188 593.072 295.28 593.616 295.28C594.312 295.28 594.844 295.128 595.212 294.824C595.588 294.52 595.776 294.112 595.776 293.6C595.776 293.088 595.592 292.68 595.224 292.376C594.864 292.072 594.292 291.92 593.508 291.92H592.908V291.284L595.5 288.032L595.62 288.368H590.94V287.6H596.34V288.212L593.748 291.464L593.328 291.188H593.652C594.66 291.188 595.412 291.412 595.908 291.86C596.412 292.308 596.664 292.884 596.664 293.588C596.664 294.06 596.552 294.484 596.328 294.86C596.104 295.236 595.764 295.532 595.308 295.748C594.86 295.964 594.296 296.072 593.616 296.072ZM601.23 296.072C600.582 296.072 600.006 295.904 599.502 295.568C598.998 295.224 598.602 294.736 598.314 294.104C598.026 293.464 597.882 292.696 597.882 291.8C597.882 290.904 598.026 290.14 598.314 289.508C598.602 288.868 598.998 288.38 599.502 288.044C600.006 287.7 600.582 287.528 601.23 287.528C601.878 287.528 602.454 287.7 602.958 288.044C603.462 288.38 603.858 288.868 604.146 289.508C604.442 290.14 604.59 290.904 604.59 291.8C604.59 292.696 604.442 293.464 604.146 294.104C603.858 294.736 603.462 295.224 602.958 295.568C602.454 295.904 601.878 296.072 601.23 296.072ZM601.23 295.28C601.726 295.28 602.158 295.148 602.526 294.884C602.894 294.612 603.182 294.22 603.39 293.708C603.598 293.188 603.702 292.552 603.702 291.8C603.702 291.048 603.598 290.416 603.39 289.904C603.182 289.384 602.894 288.992 602.526 288.728C602.158 288.456 601.726 288.32 601.23 288.32C600.75 288.32 600.322 288.456 599.946 288.728C599.57 288.992 599.278 289.384 599.07 289.904C598.862 290.416 598.758 291.048 598.758 291.8C598.758 292.552 598.862 293.188 599.07 293.708C599.278 294.22 599.57 294.612 599.946 294.884C600.322 295.148 600.75 295.28 601.23 295.28Z" fill="#858C95"/>
<path d="M9.088 279V270.96L9.472 271.368H7.108V270.6H9.952V279H9.088ZM15.3079 279.072C14.6599 279.072 14.0839 278.904 13.5799 278.568C13.0759 278.224 12.6799 277.736 12.3919 277.104C12.1039 276.464 11.9599 275.696 11.9599 274.8C11.9599 273.904 12.1039 273.14 12.3919 272.508C12.6799 271.868 13.0759 271.38 13.5799 271.044C14.0839 270.7 14.6599 270.528 15.3079 270.528C15.9559 270.528 16.5319 270.7 17.0359 271.044C17.5399 271.38 17.9359 271.868 18.2239 272.508C18.5199 273.14 18.6679 273.904 18.6679 274.8C18.6679 275.696 18.5199 276.464 18.2239 277.104C17.9359 277.736 17.5399 278.224 17.0359 278.568C16.5319 278.904 15.9559 279.072 15.3079 279.072ZM15.3079 278.28C15.8039 278.28 16.2359 278.148 16.6039 277.884C16.9719 277.612 17.2599 277.22 17.4679 276.708C17.6759 276.188 17.7799 275.552 17.7799 274.8C17.7799 274.048 17.6759 273.416 17.4679 272.904C17.2599 272.384 16.9719 271.992 16.6039 271.728C16.2359 271.456 15.8039 271.32 15.3079 271.32C14.8279 271.32 14.3999 271.456 14.0239 271.728C13.6479 271.992 13.3559 272.384 13.1479 272.904C12.9399 273.416 12.8359 274.048 12.8359 274.8C12.8359 275.552 12.9399 276.188 13.1479 276.708C13.3559 277.22 13.6479 277.612 14.0239 277.884C14.3999 278.148 14.8279 278.28 15.3079 278.28Z" fill="#858C95"/>
<path d="M10.088 225V216.96L10.472 217.368H8.108V216.6H10.952V225H10.088ZM15.6119 225.072C15.0119 225.072 14.4399 224.976 13.8959 224.784C13.3519 224.584 12.9199 224.32 12.5999 223.992L13.0199 223.308C13.2839 223.588 13.6439 223.82 14.0999 224.004C14.5639 224.188 15.0639 224.28 15.5999 224.28C16.3119 224.28 16.8519 224.124 17.2199 223.812C17.5959 223.492 17.7839 223.076 17.7839 222.564C17.7839 222.204 17.6959 221.896 17.5199 221.64C17.3519 221.376 17.0639 221.172 16.6559 221.028C16.2479 220.884 15.6879 220.812 14.9759 220.812H13.1879L13.6199 216.6H18.2159V217.368H13.9679L14.4119 216.948L14.0399 220.476L13.5959 220.044H15.1679C16.0159 220.044 16.6959 220.148 17.2079 220.356C17.7199 220.564 18.0879 220.856 18.3119 221.232C18.5439 221.6 18.6599 222.032 18.6599 222.528C18.6599 223 18.5479 223.432 18.3239 223.824C18.0999 224.208 17.7639 224.512 17.3159 224.736C16.8679 224.96 16.2999 225.072 15.6119 225.072Z" fill="#858C95"/>
<path d="M6.468 117V116.388L9.96 112.968C10.28 112.656 10.52 112.384 10.68 112.152C10.84 111.912 10.948 111.688 11.004 111.48C11.06 111.272 11.088 111.076 11.088 110.892C11.088 110.404 10.92 110.02 10.584 109.74C10.256 109.46 9.768 109.32 9.12 109.32C8.624 109.32 8.184 109.396 7.8 109.548C7.424 109.7 7.1 109.936 6.828 110.256L6.216 109.728C6.544 109.344 6.964 109.048 7.476 108.84C7.988 108.632 8.56 108.528 9.192 108.528C9.76 108.528 10.252 108.62 10.668 108.804C11.084 108.98 11.404 109.24 11.628 109.584C11.86 109.928 11.976 110.332 11.976 110.796C11.976 111.068 11.936 111.336 11.856 111.6C11.784 111.864 11.648 112.144 11.448 112.44C11.256 112.728 10.972 113.056 10.596 113.424L7.392 116.568L7.152 116.232H12.36V117H6.468ZM16.0963 117.072C15.4963 117.072 14.9243 116.976 14.3803 116.784C13.8363 116.584 13.4043 116.32 13.0843 115.992L13.5043 115.308C13.7683 115.588 14.1283 115.82 14.5843 116.004C15.0483 116.188 15.5483 116.28 16.0843 116.28C16.7963 116.28 17.3363 116.124 17.7043 115.812C18.0803 115.492 18.2683 115.076 18.2683 114.564C18.2683 114.204 18.1803 113.896 18.0043 113.64C17.8363 113.376 17.5483 113.172 17.1403 113.028C16.7323 112.884 16.1723 112.812 15.4603 112.812H13.6723L14.1043 108.6H18.7003V109.368H14.4523L14.8963 108.948L14.5243 112.476L14.0803 112.044H15.6523C16.5003 112.044 17.1803 112.148 17.6923 112.356C18.2043 112.564 18.5723 112.856 18.7963 113.232C19.0283 113.6 19.1443 114.032 19.1443 114.528C19.1443 115 19.0323 115.432 18.8083 115.824C18.5843 116.208 18.2483 116.512 17.8003 116.736C17.3523 116.96 16.7843 117.072 16.0963 117.072Z" fill="#858C95"/>
<path d="M5.468 171V170.388L8.96 166.968C9.28 166.656 9.52 166.384 9.68 166.152C9.84 165.912 9.948 165.688 10.004 165.48C10.06 165.272 10.088 165.076 10.088 164.892C10.088 164.404 9.92 164.02 9.584 163.74C9.256 163.46 8.768 163.32 8.12 163.32C7.624 163.32 7.184 163.396 6.8 163.548C6.424 163.7 6.1 163.936 5.828 164.256L5.216 163.728C5.544 163.344 5.964 163.048 6.476 162.84C6.988 162.632 7.56 162.528 8.192 162.528C8.76 162.528 9.252 162.62 9.668 162.804C10.084 162.98 10.404 163.24 10.628 163.584C10.86 163.928 10.976 164.332 10.976 164.796C10.976 165.068 10.936 165.336 10.856 165.6C10.784 165.864 10.648 166.144 10.448 166.44C10.256 166.728 9.972 167.056 9.596 167.424L6.392 170.568L6.152 170.232H11.36V171H5.468ZM15.7689 171.072C15.1209 171.072 14.5449 170.904 14.0409 170.568C13.5369 170.224 13.1409 169.736 12.8529 169.104C12.5649 168.464 12.4209 167.696 12.4209 166.8C12.4209 165.904 12.5649 165.14 12.8529 164.508C13.1409 163.868 13.5369 163.38 14.0409 163.044C14.5449 162.7 15.1209 162.528 15.7689 162.528C16.4169 162.528 16.9929 162.7 17.4969 163.044C18.0009 163.38 18.3969 163.868 18.6849 164.508C18.9809 165.14 19.1289 165.904 19.1289 166.8C19.1289 167.696 18.9809 168.464 18.6849 169.104C18.3969 169.736 18.0009 170.224 17.4969 170.568C16.9929 170.904 16.4169 171.072 15.7689 171.072ZM15.7689 170.28C16.2649 170.28 16.6969 170.148 17.0649 169.884C17.4329 169.612 17.7209 169.22 17.9289 168.708C18.1369 168.188 18.2409 167.552 18.2409 166.8C18.2409 166.048 18.1369 165.416 17.9289 164.904C17.7209 164.384 17.4329 163.992 17.0649 163.728C16.6969 163.456 16.2649 163.32 15.7689 163.32C15.2889 163.32 14.8609 163.456 14.4849 163.728C14.1089 163.992 13.8169 164.384 13.6089 164.904C13.4009 165.416 13.2969 166.048 13.2969 166.8C13.2969 167.552 13.4009 168.188 13.6089 168.708C13.8169 169.22 14.1089 169.612 14.4849 169.884C14.8609 170.148 15.2889 170.28 15.7689 170.28Z" fill="#858C95"/>
<path d="M9.132 9.2595C8.524 9.2595 7.948 9.1635 7.404 8.9715C6.868 8.7715 6.436 8.5075 6.108 8.1795L6.528 7.4955C6.8 7.7755 7.164 8.0075 7.62 8.1915C8.084 8.3755 8.588 8.4675 9.132 8.4675C9.828 8.4675 10.36 8.3155 10.728 8.0115C11.104 7.7075 11.292 7.2995 11.292 6.7875C11.292 6.2755 11.108 5.8675 10.74 5.5635C10.38 5.2595 9.808 5.1075 9.024 5.1075H8.424V4.4715L11.016 1.2195L11.136 1.5555H6.456V0.787499H11.856V1.3995L9.264 4.6515L8.844 4.3755H9.168C10.176 4.3755 10.928 4.5995 11.424 5.0475C11.928 5.4955 12.18 6.0715 12.18 6.7755C12.18 7.2475 12.068 7.6715 11.844 8.0475C11.62 8.4235 11.28 8.7195 10.824 8.9355C10.376 9.1515 9.812 9.2595 9.132 9.2595ZM15.9323 9.2595C15.3323 9.2595 14.7603 9.1635 14.2163 8.9715C13.6723 8.7715 13.2403 8.5075 12.9203 8.1795L13.3403 7.4955C13.6043 7.7755 13.9643 8.0075 14.4202 8.1915C14.8843 8.3755 15.3843 8.4675 15.9203 8.4675C16.6323 8.4675 17.1723 8.3115 17.5403 7.9995C17.9163 7.6795 18.1043 7.2635 18.1043 6.7515C18.1043 6.3915 18.0163 6.0835 17.8403 5.8275C17.6723 5.5635 17.3843 5.3595 16.9763 5.2155C16.5683 5.0715 16.0083 4.9995 15.2963 4.9995H13.5083L13.9403 0.787499H18.5363V1.5555H14.2883L14.7323 1.1355L14.3603 4.6635L13.9163 4.2315H15.4883C16.3363 4.2315 17.0163 4.3355 17.5283 4.5435C18.0403 4.7515 18.4083 5.0435 18.6323 5.4195C18.8643 5.7875 18.9803 6.2195 18.9803 6.7155C18.9803 7.1875 18.8683 7.6195 18.6443 8.0115C18.4203 8.3955 18.0843 8.6995 17.6363 8.9235C17.1883 9.1475 16.6203 9.2595 15.9323 9.2595Z" fill="#858C95"/>
<path d="M8.132 63.072C7.524 63.072 6.948 62.976 6.404 62.784C5.868 62.584 5.436 62.32 5.108 61.992L5.528 61.308C5.8 61.588 6.164 61.82 6.62 62.004C7.084 62.188 7.588 62.28 8.132 62.28C8.828 62.28 9.36 62.128 9.728 61.824C10.104 61.52 10.292 61.112 10.292 60.6C10.292 60.088 10.108 59.68 9.74 59.376C9.38 59.072 8.808 58.92 8.024 58.92H7.424V58.284L10.016 55.032L10.136 55.368H5.456V54.6H10.856V55.212L8.264 58.464L7.844 58.188H8.168C9.176 58.188 9.928 58.412 10.424 58.86C10.928 59.308 11.18 59.884 11.18 60.588C11.18 61.06 11.068 61.484 10.844 61.86C10.62 62.236 10.28 62.532 9.824 62.748C9.376 62.964 8.812 63.072 8.132 63.072ZM15.7454 63.072C15.0974 63.072 14.5214 62.904 14.0174 62.568C13.5134 62.224 13.1174 61.736 12.8294 61.104C12.5414 60.464 12.3974 59.696 12.3974 58.8C12.3974 57.904 12.5414 57.14 12.8294 56.508C13.1174 55.868 13.5134 55.38 14.0174 55.044C14.5214 54.7 15.0974 54.528 15.7454 54.528C16.3934 54.528 16.9694 54.7 17.4734 55.044C17.9774 55.38 18.3734 55.868 18.6614 56.508C18.9574 57.14 19.1054 57.904 19.1054 58.8C19.1054 59.696 18.9574 60.464 18.6614 61.104C18.3734 61.736 17.9774 62.224 17.4734 62.568C16.9694 62.904 16.3934 63.072 15.7454 63.072ZM15.7454 62.28C16.2414 62.28 16.6734 62.148 17.0414 61.884C17.4094 61.612 17.6974 61.22 17.9054 60.708C18.1134 60.188 18.2174 59.552 18.2174 58.8C18.2174 58.048 18.1134 57.416 17.9054 56.904C17.6974 56.384 17.4094 55.992 17.0414 55.728C16.6734 55.456 16.2414 55.32 15.7454 55.32C15.2654 55.32 14.8374 55.456 14.4614 55.728C14.0854 55.992 13.7934 56.384 13.5854 56.904C13.3774 57.416 13.2734 58.048 13.2734 58.8C13.2734 59.552 13.3774 60.188 13.5854 60.708C13.7934 61.22 14.0854 61.612 14.4614 61.884C14.8374 62.148 15.2654 62.28 15.7454 62.28Z" fill="#858C95"/>
<path d="M602.5 38.0003C602.5 38.0003 476 94.5002 411 112.5C346 130.5 295.5 133.959 220 143.5C144.5 153.041 28 145 28 145" stroke="#2D6FD0" stroke-width="2"/>
<path d="M28.4069 148.64C27.4372 148.64 26.5072 148.255 25.8214 147.569C25.1356 146.884 24.7502 145.954 24.75 144.984C24.7498 144.014 25.1347 143.084 25.8201 142.398C26.5056 141.712 27.4354 141.327 28.4051 141.326C29.3748 141.326 30.305 141.71 30.9912 142.396C31.6773 143.081 32.0631 144.011 32.0639 144.98C32.0646 145.95 31.6801 146.88 30.995 147.567C30.3099 148.253 29.3803 148.639 28.4106 148.64H28.4069Z" fill="#2D6FD0"/>
<path d="M410.36 116.413C409.39 116.413 408.46 116.028 407.775 115.343C407.089 114.657 406.703 113.727 406.703 112.757C406.703 111.788 407.088 110.858 407.773 110.172C408.459 109.486 409.389 109.1 410.358 109.1C411.328 109.099 412.258 109.484 412.944 110.169C413.63 110.854 414.016 111.784 414.017 112.754C414.018 113.724 413.633 114.654 412.948 115.34C412.263 116.026 411.333 116.413 410.364 116.413H410.36Z" fill="#2D6FD0"/>
<path d="M220.383 147.206C219.414 147.206 218.484 146.821 217.798 146.136C217.112 145.45 216.727 144.52 216.727 143.55C216.726 142.581 217.111 141.651 217.797 140.965C218.482 140.279 219.412 139.893 220.382 139.893C221.351 139.892 222.282 140.277 222.968 140.962C223.654 141.647 224.04 142.577 224.04 143.547C224.041 144.516 223.657 145.447 222.972 146.133C222.287 146.819 221.357 147.205 220.387 147.206H220.383Z" fill="#2D6FD0"/>
<path d="M602.344 42.142C601.375 42.142 600.445 41.7568 599.759 41.0712C599.073 40.3856 598.688 39.4557 598.688 38.486C598.687 37.5163 599.072 36.5861 599.758 35.9002C600.443 35.2142 601.373 34.8286 602.343 34.8281C603.312 34.8276 604.243 35.2123 604.929 35.8976C605.615 36.5829 606.001 37.5126 606.001 38.4823C606.002 39.452 605.618 40.3823 604.933 41.0686C604.247 41.7549 603.318 42.141 602.348 42.142L602.344 42.142Z" fill="#2D6FD0"/>
<path d="M35.2548 135C35.2548 134.28 35.3148 133.644 35.4348 133.092C35.5668 132.528 35.7528 132.024 35.9928 131.58C36.2448 131.136 36.5448 130.746 36.8928 130.41C37.2408 130.074 37.6368 129.774 38.0808 129.51C38.5488 129.234 39.0288 128.982 39.5208 128.754C40.0128 128.526 40.4688 128.286 40.8888 128.034C41.3088 127.782 41.6448 127.482 41.8968 127.134C42.1608 126.774 42.2928 126.33 42.2928 125.802C42.2928 125.382 42.2028 125.004 42.0228 124.668C41.8428 124.32 41.5728 124.044 41.2128 123.84C40.8528 123.636 40.3908 123.534 39.8268 123.534C39.2628 123.534 38.7528 123.63 38.2968 123.822C37.8528 124.014 37.4688 124.242 37.1448 124.506C36.8208 124.77 36.5628 125.022 36.3708 125.262L35.3448 124.236C35.4408 124.116 35.6088 123.936 35.8488 123.696C36.1008 123.456 36.4188 123.21 36.8028 122.958C37.1988 122.706 37.6608 122.496 38.1888 122.328C38.7168 122.148 39.3168 122.058 39.9888 122.058C40.8888 122.058 41.6388 122.226 42.2388 122.562C42.8388 122.898 43.2888 123.348 43.5888 123.912C43.9008 124.476 44.0568 125.1 44.0568 125.784C44.0568 126.396 43.9428 126.924 43.7148 127.368C43.4868 127.8 43.1928 128.166 42.8328 128.466C42.4728 128.766 42.0768 129.03 41.6448 129.258C41.2248 129.486 40.8168 129.702 40.4208 129.906C39.6648 130.266 39.0648 130.596 38.6208 130.896C38.1768 131.196 37.8348 131.49 37.5948 131.778C37.3668 132.054 37.2108 132.336 37.1268 132.624C37.0548 132.912 37.0128 133.224 37.0008 133.56H44.0748V135H35.2548ZM50.1019 135.162C49.3699 135.162 48.7039 135.048 48.1039 134.82C47.5159 134.58 47.0239 134.25 46.6279 133.83C46.2439 133.398 45.9919 132.9 45.8719 132.336L46.7719 131.382C46.8079 131.73 46.9639 132.084 47.2399 132.444C47.5159 132.804 47.8939 133.104 48.3739 133.344C48.8659 133.572 49.4359 133.686 50.0839 133.686C50.6359 133.686 51.1339 133.596 51.5779 133.416C52.0219 133.224 52.3759 132.96 52.6399 132.624C52.9039 132.288 53.0359 131.898 53.0359 131.454C53.0359 130.962 52.8739 130.542 52.5499 130.194C52.2259 129.846 51.7639 129.582 51.1639 129.402C50.5759 129.222 49.8739 129.132 49.0579 129.132H48.4459V127.782H49.0579C50.1619 127.782 51.0439 127.608 51.7039 127.26C52.3639 126.9 52.6939 126.366 52.6939 125.658C52.6939 125.202 52.5679 124.812 52.3159 124.488C52.0759 124.152 51.7519 123.9 51.3439 123.732C50.9479 123.552 50.5219 123.462 50.0659 123.462C49.2979 123.462 48.6439 123.636 48.1039 123.984C47.5759 124.32 47.2039 124.716 46.9879 125.172L45.9259 124.074C46.1659 123.654 46.5019 123.294 46.9339 122.994C47.3659 122.694 47.8519 122.466 48.3919 122.31C48.9319 122.142 49.4839 122.058 50.0479 122.058C50.8759 122.058 51.6139 122.214 52.2619 122.526C52.9219 122.838 53.4379 123.258 53.8099 123.786C54.1819 124.314 54.3679 124.914 54.3679 125.586C54.3679 126.066 54.2719 126.498 54.0799 126.882C53.8879 127.254 53.6059 127.566 53.2339 127.818C52.8619 128.07 52.4119 128.262 51.8839 128.394C52.4479 128.49 52.9399 128.694 53.3599 129.006C53.7799 129.318 54.1039 129.702 54.3319 130.158C54.5599 130.614 54.6739 131.112 54.6739 131.652C54.6739 132.396 54.4579 133.032 54.0259 133.56C53.5939 134.076 53.0299 134.472 52.3339 134.748C51.6499 135.024 50.9059 135.162 50.1019 135.162Z" fill="#2F2F2F"/>
<path d="M575.529 35.162C574.797 35.162 574.131 35.048 573.531 34.82C572.943 34.58 572.451 34.25 572.055 33.83C571.671 33.398 571.419 32.9 571.299 32.336L572.199 31.382C572.235 31.73 572.391 32.084 572.667 32.444C572.943 32.804 573.321 33.104 573.801 33.344C574.293 33.572 574.863 33.686 575.511 33.686C576.063 33.686 576.561 33.596 577.005 33.416C577.449 33.224 577.803 32.96 578.067 32.624C578.331 32.288 578.463 31.898 578.463 31.454C578.463 30.962 578.301 30.542 577.977 30.194C577.653 29.846 577.191 29.582 576.591 29.402C576.003 29.222 575.301 29.132 574.485 29.132H573.873V27.782H574.485C575.589 27.782 576.471 27.608 577.131 27.26C577.791 26.9 578.121 26.366 578.121 25.658C578.121 25.202 577.995 24.812 577.743 24.488C577.503 24.152 577.179 23.9 576.771 23.732C576.375 23.552 575.949 23.462 575.493 23.462C574.725 23.462 574.071 23.636 573.531 23.984C573.003 24.32 572.631 24.716 572.415 25.172L571.353 24.074C571.593 23.654 571.929 23.294 572.361 22.994C572.793 22.694 573.279 22.466 573.819 22.31C574.359 22.142 574.911 22.058 575.475 22.058C576.303 22.058 577.041 22.214 577.689 22.526C578.349 22.838 578.865 23.258 579.237 23.786C579.609 24.314 579.795 24.914 579.795 25.586C579.795 26.066 579.699 26.498 579.507 26.882C579.315 27.254 579.033 27.566 578.661 27.818C578.289 28.07 577.839 28.262 577.311 28.394C577.875 28.49 578.367 28.694 578.787 29.006C579.207 29.318 579.531 29.702 579.759 30.158C579.987 30.614 580.101 31.112 580.101 31.652C580.101 32.396 579.885 33.032 579.453 33.56C579.021 34.076 578.457 34.472 577.761 34.748C577.077 35.024 576.333 35.162 575.529 35.162ZM586.058 35.162C585.326 35.162 584.66 35.048 584.06 34.82C583.472 34.58 582.98 34.25 582.584 33.83C582.2 33.398 581.948 32.9 581.828 32.336L582.728 31.382C582.764 31.73 582.92 32.084 583.196 32.444C583.472 32.804 583.85 33.104 584.33 33.344C584.822 33.572 585.392 33.686 586.04 33.686C586.592 33.686 587.09 33.596 587.534 33.416C587.978 33.224 588.332 32.96 588.596 32.624C588.86 32.288 588.992 31.898 588.992 31.454C588.992 30.962 588.83 30.542 588.506 30.194C588.182 29.846 587.72 29.582 587.12 29.402C586.532 29.222 585.83 29.132 585.014 29.132H584.402V27.782H585.014C586.118 27.782 587 27.608 587.66 27.26C588.32 26.9 588.65 26.366 588.65 25.658C588.65 25.202 588.524 24.812 588.272 24.488C588.032 24.152 587.708 23.9 587.3 23.732C586.904 23.552 586.478 23.462 586.022 23.462C585.254 23.462 584.6 23.636 584.06 23.984C583.532 24.32 583.16 24.716 582.944 25.172L581.882 24.074C582.122 23.654 582.458 23.294 582.89 22.994C583.322 22.694 583.808 22.466 584.348 22.31C584.888 22.142 585.44 22.058 586.004 22.058C586.832 22.058 587.57 22.214 588.218 22.526C588.878 22.838 589.394 23.258 589.766 23.786C590.138 24.314 590.324 24.914 590.324 25.586C590.324 26.066 590.228 26.498 590.036 26.882C589.844 27.254 589.562 27.566 589.19 27.818C588.818 28.07 588.368 28.262 587.84 28.394C588.404 28.49 588.896 28.694 589.316 29.006C589.736 29.318 590.06 29.702 590.288 30.158C590.516 30.614 590.63 31.112 590.63 31.652C590.63 32.396 590.414 33.032 589.982 33.56C589.55 34.076 588.986 34.472 588.29 34.748C587.606 35.024 586.862 35.162 586.058 35.162Z" fill="#2F2F2F"/>
</svg>
