<svg width="680" height="335" viewBox="0 0 680 335" fill="none" xmlns="http://www.w3.org/2000/svg">
<path d="M31 8L31 313" stroke="#F5F6F7"/>
<path d="M139 8L139 312" stroke="#F5F6F7"/>
<path d="M247 7.57812L247 315.352" stroke="#F5F6F7"/>
<path d="M463 7L463 316" stroke="#F5F6F7"/>
<path d="M355 6L355 315" stroke="#F5F6F7"/>
<path d="M571 7L571 312" stroke="#F5F6F7"/>
<path d="M679 7L679 312" stroke="#F5F6F7"/>
<path d="M31 190H679" stroke="#F5F6F7"/>
<path d="M31 251H679" stroke="#F5F6F7"/>
<path d="M31 68H679" stroke="#F5F6F7"/>
<path d="M31 129L680 129" stroke="#F5F6F7"/>
<path d="M31 7H679" stroke="#F5F6F7"/>
<path d="M31 312L680 312" stroke="#F5F6F7"/>
<path d="M31 6L31 312" stroke="#F5F6F7"/>
<path d="M452.74 333.232H457.36V334H451.468V333.388L454.96 329.968C455.908 329.032 456.088 328.468 456.088 327.892C456.088 326.92 455.404 326.32 454.12 326.32C453.136 326.32 452.38 326.62 451.828 327.256L451.216 326.728C451.864 325.96 452.908 325.528 454.192 325.528C455.896 325.528 456.976 326.392 456.976 327.796C456.976 328.6 456.724 329.32 455.596 330.424L452.74 333.232ZM461.745 334.072C459.801 334.072 458.397 332.476 458.397 329.8C458.397 327.124 459.801 325.528 461.745 325.528C463.689 325.528 465.105 327.124 465.105 329.8C465.105 332.476 463.689 334.072 461.745 334.072ZM461.745 333.28C463.209 333.28 464.217 332.044 464.217 329.8C464.217 327.556 463.209 326.32 461.745 326.32C460.281 326.32 459.273 327.556 459.273 329.8C459.273 332.044 460.281 333.28 461.745 333.28ZM469.082 329.2C470.882 329.296 471.782 330.244 471.782 331.588C471.782 332.992 470.762 334.072 468.734 334.072C467.522 334.072 466.358 333.652 465.71 332.992L466.13 332.308C466.67 332.872 467.642 333.28 468.734 333.28C470.126 333.28 470.894 332.632 470.894 331.588C470.894 330.58 470.186 329.92 468.626 329.92H468.026V329.284L470.354 326.368H466.058V325.6H471.458V326.212L469.082 329.2ZM476.347 334.072C474.403 334.072 472.999 332.476 472.999 329.8C472.999 327.124 474.403 325.528 476.347 325.528C478.291 325.528 479.707 327.124 479.707 329.8C479.707 332.476 478.291 334.072 476.347 334.072ZM476.347 333.28C477.811 333.28 478.819 332.044 478.819 329.8C478.819 327.556 477.811 326.32 476.347 326.32C474.883 326.32 473.875 327.556 473.875 329.8C473.875 332.044 474.883 333.28 476.347 333.28Z" fill="#858C95"/>
<path d="M237.74 333.232H242.36V334H236.468V333.388L239.96 329.968C240.908 329.032 241.088 328.468 241.088 327.892C241.088 326.92 240.404 326.32 239.12 326.32C238.136 326.32 237.38 326.62 236.828 327.256L236.216 326.728C236.864 325.96 237.908 325.528 239.192 325.528C240.896 325.528 241.976 326.392 241.976 327.796C241.976 328.6 241.724 329.32 240.596 330.424L237.74 333.232ZM246.745 334.072C244.801 334.072 243.397 332.476 243.397 329.8C243.397 327.124 244.801 325.528 246.745 325.528C248.689 325.528 250.105 327.124 250.105 329.8C250.105 332.476 248.689 334.072 246.745 334.072ZM246.745 333.28C248.209 333.28 249.217 332.044 249.217 329.8C249.217 327.556 248.209 326.32 246.745 326.32C245.281 326.32 244.273 327.556 244.273 329.8C244.273 332.044 245.281 333.28 246.745 333.28ZM250.803 325.6H253.647V334H252.783V326.368H250.803V325.6ZM262.795 331.024V331.792H261.115V334H260.251V331.792H255.511V331.168L259.963 325.6H260.923L256.627 331.024H260.275V329.08H261.115V331.024H262.795Z" fill="#858C95"/>
<path d="M21.972 315.072C20.028 315.072 18.624 313.476 18.624 310.8C18.624 308.124 20.028 306.528 21.972 306.528C23.916 306.528 25.332 308.124 25.332 310.8C25.332 313.476 23.916 315.072 21.972 315.072ZM21.972 314.28C23.436 314.28 24.444 313.044 24.444 310.8C24.444 308.556 23.436 307.32 21.972 307.32C20.508 307.32 19.5 308.556 19.5 310.8C19.5 313.044 20.508 314.28 21.972 314.28Z" fill="#858C95"/>
<path d="M20.74 255.232H25.36V256H19.468V255.388L22.96 251.968C23.908 251.032 24.088 250.468 24.088 249.892C24.088 248.92 23.404 248.32 22.12 248.32C21.136 248.32 20.38 248.62 19.828 249.256L19.216 248.728C19.864 247.96 20.908 247.528 22.192 247.528C23.896 247.528 24.976 248.392 24.976 249.796C24.976 250.6 24.724 251.32 23.596 252.424L20.74 255.232Z" fill="#858C95"/>
<path d="M23.436 69.596C24.492 69.944 25.08 70.664 25.08 71.66C25.08 73.148 23.82 74.072 21.816 74.072C19.8 74.072 18.576 73.148 18.576 71.66C18.576 70.652 19.152 69.944 20.196 69.596C19.344 69.26 18.876 68.624 18.876 67.748C18.876 66.38 20.04 65.528 21.816 65.528C23.592 65.528 24.78 66.38 24.78 67.748C24.78 68.624 24.3 69.26 23.436 69.596ZM19.74 67.772C19.74 68.696 20.508 69.284 21.816 69.284C23.124 69.284 23.904 68.696 23.904 67.784C23.904 66.836 23.076 66.26 21.816 66.26C20.544 66.26 19.74 66.836 19.74 67.772ZM21.816 73.34C23.304 73.34 24.192 72.692 24.192 71.648C24.192 70.616 23.304 69.968 21.816 69.968C20.328 69.968 19.452 70.616 19.452 71.648C19.452 72.692 20.328 73.34 21.816 73.34Z" fill="#858C95"/>
<path d="M22.104 129.972C23.772 129.972 24.936 130.956 24.936 132.492C24.936 134.064 23.7 135.072 22.068 135.072C19.836 135.072 18.624 133.524 18.624 130.872C18.624 128.016 20.184 126.528 22.464 126.528C23.22 126.528 23.928 126.66 24.456 126.984L24.108 127.68C23.676 127.392 23.1 127.284 22.476 127.284C20.664 127.284 19.5 128.448 19.5 130.728C19.5 130.92 19.512 131.16 19.536 131.412C19.956 130.488 20.94 129.972 22.104 129.972ZM22.032 134.34C23.244 134.34 24.084 133.632 24.084 132.516C24.084 131.412 23.268 130.704 21.972 130.704C20.688 130.704 19.812 131.496 19.812 132.54C19.812 133.464 20.58 134.34 22.032 134.34Z" fill="#858C95"/>
<path d="M25.764 192.024V192.792H24.084V195H23.22V192.792H18.48V192.168L22.932 186.6H23.892L19.596 192.024H23.244V190.08H24.084V192.024H25.764Z" fill="#858C95"/>
<path d="M13.108 3.48281H15.952V11.8828H15.088V4.25081H13.108V3.48281ZM21.3079 11.9548C19.3639 11.9548 17.9599 10.3588 17.9599 7.68281C17.9599 5.00681 19.3639 3.41081 21.3079 3.41081C23.2519 3.41081 24.6679 5.00681 24.6679 7.68281C24.6679 10.3588 23.2519 11.9548 21.3079 11.9548ZM21.3079 11.1628C22.7719 11.1628 23.7799 9.92681 23.7799 7.68281C23.7799 5.43881 22.7719 4.20281 21.3079 4.20281C19.8439 4.20281 18.8359 5.43881 18.8359 7.68281C18.8359 9.92681 19.8439 11.1628 21.3079 11.1628Z" fill="#858C95"/>
<path d="M277.307 246C277.307 245.2 277.373 244.493 277.507 243.88C277.653 243.253 277.86 242.693 278.127 242.2C278.407 241.707 278.74 241.273 279.127 240.9C279.513 240.527 279.953 240.193 280.447 239.9C280.967 239.593 281.5 239.313 282.047 239.06C282.593 238.807 283.1 238.54 283.567 238.26C284.033 237.98 284.407 237.647 284.687 237.26C284.98 236.86 285.127 236.367 285.127 235.78C285.127 235.313 285.027 234.893 284.827 234.52C284.627 234.133 284.327 233.827 283.927 233.6C283.527 233.373 283.013 233.26 282.387 233.26C281.76 233.26 281.193 233.367 280.687 233.58C280.193 233.793 279.767 234.047 279.407 234.34C279.047 234.633 278.76 234.913 278.547 235.18L277.407 234.04C277.513 233.907 277.7 233.707 277.967 233.44C278.247 233.173 278.6 232.9 279.027 232.62C279.467 232.34 279.98 232.107 280.567 231.92C281.153 231.72 281.82 231.62 282.567 231.62C283.567 231.62 284.4 231.807 285.067 232.18C285.733 232.553 286.233 233.053 286.567 233.68C286.913 234.307 287.087 235 287.087 235.76C287.087 236.44 286.96 237.027 286.707 237.52C286.453 238 286.127 238.407 285.727 238.74C285.327 239.073 284.887 239.367 284.407 239.62C283.94 239.873 283.487 240.113 283.047 240.34C282.207 240.74 281.54 241.107 281.047 241.44C280.553 241.773 280.173 242.1 279.907 242.42C279.653 242.727 279.48 243.04 279.387 243.36C279.307 243.68 279.26 244.027 279.247 244.4H287.107V246H277.307ZM289.664 247.62L290.064 245.84H289.464V243.76H291.124V245.84L290.524 247.62H289.664ZM299.622 246V242.38H292.942V240.8L300.162 231.8H301.382V240.78H303.142V242.38H301.382V246H299.622ZM294.782 240.78H299.802V234.5L294.782 240.78ZM307.765 237.44C307.205 237.44 306.692 237.313 306.225 237.06C305.759 236.793 305.385 236.44 305.105 236C304.825 235.547 304.685 235.053 304.685 234.52C304.685 233.973 304.825 233.48 305.105 233.04C305.385 232.6 305.759 232.253 306.225 232C306.692 231.733 307.205 231.6 307.765 231.6C308.339 231.6 308.859 231.733 309.325 232C309.792 232.253 310.159 232.6 310.425 233.04C310.705 233.48 310.845 233.967 310.845 234.5C310.845 235.047 310.705 235.547 310.425 236C310.159 236.44 309.792 236.793 309.325 237.06C308.859 237.313 308.339 237.44 307.765 237.44ZM307.765 236.48C308.099 236.48 308.399 236.393 308.665 236.22C308.945 236.033 309.165 235.793 309.325 235.5C309.485 235.193 309.565 234.867 309.565 234.52C309.565 234.16 309.479 233.833 309.305 233.54C309.145 233.233 308.925 232.993 308.645 232.82C308.379 232.647 308.085 232.56 307.765 232.56C307.432 232.56 307.125 232.653 306.845 232.84C306.579 233.013 306.365 233.253 306.205 233.56C306.045 233.853 305.965 234.173 305.965 234.52C305.965 234.88 306.045 235.207 306.205 235.5C306.379 235.793 306.599 236.033 306.865 236.22C307.145 236.393 307.445 236.48 307.765 236.48ZM314.785 246.2C314.212 246.2 313.692 246.073 313.225 245.82C312.772 245.553 312.405 245.2 312.125 244.76C311.845 244.307 311.705 243.813 311.705 243.28C311.705 242.733 311.845 242.24 312.125 241.8C312.405 241.36 312.772 241.013 313.225 240.76C313.692 240.493 314.212 240.36 314.785 240.36C315.359 240.36 315.879 240.493 316.345 240.76C316.812 241.013 317.179 241.36 317.445 241.8C317.725 242.24 317.865 242.727 317.865 243.26C317.865 243.807 317.725 244.307 317.445 244.76C317.179 245.2 316.812 245.553 316.345 245.82C315.879 246.073 315.359 246.2 314.785 246.2ZM314.785 245.24C315.119 245.24 315.419 245.153 315.685 244.98C315.965 244.793 316.185 244.553 316.345 244.26C316.505 243.953 316.585 243.627 316.585 243.28C316.585 242.92 316.499 242.593 316.325 242.3C316.165 241.993 315.945 241.753 315.665 241.58C315.399 241.407 315.105 241.32 314.785 241.32C314.452 241.32 314.145 241.413 313.865 241.6C313.599 241.773 313.385 242.013 313.225 242.32C313.065 242.613 312.985 242.933 312.985 243.28C312.985 243.64 313.065 243.967 313.225 244.26C313.399 244.553 313.619 244.793 313.885 244.98C314.165 245.153 314.465 245.24 314.785 245.24ZM305.365 245.34L310.965 238.6L316.325 231.7L317.185 232.44L311.645 239.14L306.205 246.1L305.365 245.34Z" fill="#2F2F2F"/>
<path d="M496.982 42.6C496.982 41.68 497.202 40.8533 497.642 40.12C498.095 39.3733 498.708 38.7867 499.482 38.36C500.255 37.92 501.115 37.7 502.062 37.7C503.088 37.7 503.982 37.9467 504.742 38.44C505.515 38.92 506.115 39.6133 506.542 40.52C506.982 41.4267 507.202 42.52 507.202 43.8C507.202 45.6667 506.982 47.2267 506.542 48.48C506.102 49.72 505.482 50.6533 504.682 51.28C503.882 51.8933 502.948 52.2 501.882 52.2C500.962 52.2 500.122 51.98 499.362 51.54C498.615 51.0867 498.028 50.46 497.602 49.66L498.682 48.6C498.975 49.2133 499.408 49.7067 499.982 50.08C500.568 50.4533 501.208 50.64 501.902 50.64C502.635 50.64 503.268 50.4267 503.802 50C504.348 49.56 504.775 48.9267 505.082 48.1C505.388 47.2733 505.542 46.2733 505.542 45.1C505.355 45.5533 505.075 45.9533 504.702 46.3C504.342 46.6467 503.922 46.9133 503.442 47.1C502.962 47.2867 502.442 47.38 501.882 47.38C500.975 47.38 500.148 47.1667 499.402 46.74C498.655 46.3133 498.062 45.74 497.622 45.02C497.195 44.2867 496.982 43.48 496.982 42.6ZM502.042 39.2C501.428 39.2 500.868 39.3533 500.362 39.66C499.855 39.9667 499.448 40.38 499.142 40.9C498.835 41.4067 498.682 41.9667 498.682 42.58C498.682 43.1933 498.835 43.7533 499.142 44.26C499.448 44.7667 499.855 45.1733 500.362 45.48C500.882 45.7867 501.448 45.94 502.062 45.94C502.675 45.94 503.235 45.7867 503.742 45.48C504.262 45.1733 504.675 44.7667 504.982 44.26C505.288 43.7533 505.442 43.2 505.442 42.6C505.442 41.9867 505.282 41.4267 504.962 40.92C504.655 40.4 504.242 39.9867 503.722 39.68C503.215 39.36 502.655 39.2 502.042 39.2ZM512.05 43.44C511.49 43.44 510.977 43.3133 510.51 43.06C510.044 42.7933 509.67 42.44 509.39 42C509.11 41.5467 508.97 41.0533 508.97 40.52C508.97 39.9733 509.11 39.48 509.39 39.04C509.67 38.6 510.044 38.2533 510.51 38C510.977 37.7333 511.49 37.6 512.05 37.6C512.624 37.6 513.144 37.7333 513.61 38C514.077 38.2533 514.444 38.6 514.71 39.04C514.99 39.48 515.13 39.9667 515.13 40.5C515.13 41.0467 514.99 41.5467 514.71 42C514.444 42.44 514.077 42.7933 513.61 43.06C513.144 43.3133 512.624 43.44 512.05 43.44ZM512.05 42.48C512.384 42.48 512.684 42.3933 512.95 42.22C513.23 42.0333 513.45 41.7933 513.61 41.5C513.77 41.1933 513.85 40.8667 513.85 40.52C513.85 40.16 513.764 39.8333 513.59 39.54C513.43 39.2333 513.21 38.9933 512.93 38.82C512.664 38.6467 512.37 38.56 512.05 38.56C511.717 38.56 511.41 38.6533 511.13 38.84C510.864 39.0133 510.65 39.2533 510.49 39.56C510.33 39.8533 510.25 40.1733 510.25 40.52C510.25 40.88 510.33 41.2067 510.49 41.5C510.664 41.7933 510.884 42.0333 511.15 42.22C511.43 42.3933 511.73 42.48 512.05 42.48ZM519.07 52.2C518.497 52.2 517.977 52.0733 517.51 51.82C517.057 51.5533 516.69 51.2 516.41 50.76C516.13 50.3067 515.99 49.8133 515.99 49.28C515.99 48.7333 516.13 48.24 516.41 47.8C516.69 47.36 517.057 47.0133 517.51 46.76C517.977 46.4933 518.497 46.36 519.07 46.36C519.644 46.36 520.164 46.4933 520.63 46.76C521.097 47.0133 521.464 47.36 521.73 47.8C522.01 48.24 522.15 48.7267 522.15 49.26C522.15 49.8067 522.01 50.3067 521.73 50.76C521.464 51.2 521.097 51.5533 520.63 51.82C520.164 52.0733 519.644 52.2 519.07 52.2ZM519.07 51.24C519.404 51.24 519.704 51.1533 519.97 50.98C520.25 50.7933 520.47 50.5533 520.63 50.26C520.79 49.9533 520.87 49.6267 520.87 49.28C520.87 48.92 520.784 48.5933 520.61 48.3C520.45 47.9933 520.23 47.7533 519.95 47.58C519.684 47.4067 519.39 47.32 519.07 47.32C518.737 47.32 518.43 47.4133 518.15 47.6C517.884 47.7733 517.67 48.0133 517.51 48.32C517.35 48.6133 517.27 48.9333 517.27 49.28C517.27 49.64 517.35 49.9667 517.51 50.26C517.684 50.5533 517.904 50.7933 518.17 50.98C518.45 51.1533 518.75 51.24 519.07 51.24ZM509.65 51.34L515.25 44.6L520.61 37.7L521.47 38.44L515.93 45.14L510.49 52.1L509.65 51.34Z" fill="#2F2F2F"/>
<rect x="227" y="231" width="41" height="81" fill="#2D6FD0"/>
<rect x="443" y="36" width="41" height="276" fill="#2D6FD0"/>
</svg>
