<svg width="609" height="295" viewBox="0 0 609 295" fill="none" xmlns="http://www.w3.org/2000/svg">
<path d="M127 2L127 275" stroke="#F5F6F7"/>
<path d="M223 2L223 275" stroke="#F5F6F7"/>
<path d="M414 2L414 275" stroke="#F5F6F7"/>
<path d="M319 2L319 276" stroke="#F5F6F7"/>
<path d="M510 2L510 275" stroke="#F5F6F7"/>
<path d="M606 2L606 275" stroke="#F5F6F7"/>
<path d="M32 207H606" stroke="#F5F6F7"/>
<path d="M31 139L606 139" stroke="#F5F6F7"/>
<path d="M31 71L606 70.9999" stroke="#F5F6F7"/>
<path d="M31 2H606" stroke="#F5F6F7"/>
<path d="M31 275L606 275" stroke="#F5F6F7"/>
<path d="M31 1L31 275" stroke="#F5F6F7"/>
<path d="M31.8743 294V293.388L35.3663 289.968C35.6863 289.656 35.9263 289.384 36.0863 289.152C36.2463 288.912 36.3543 288.688 36.4103 288.48C36.4663 288.272 36.4943 288.076 36.4943 287.892C36.4943 287.404 36.3263 287.02 35.9903 286.74C35.6623 286.46 35.1743 286.32 34.5263 286.32C34.0303 286.32 33.5903 286.396 33.2063 286.548C32.8303 286.7 32.5063 286.936 32.2343 287.256L31.6223 286.728C31.9503 286.344 32.3703 286.048 32.8823 285.84C33.3943 285.632 33.9663 285.528 34.5983 285.528C35.1663 285.528 35.6583 285.62 36.0743 285.804C36.4903 285.98 36.8103 286.24 37.0343 286.584C37.2663 286.928 37.3823 287.332 37.3823 287.796C37.3823 288.068 37.3423 288.336 37.2623 288.6C37.1903 288.864 37.0543 289.144 36.8543 289.44C36.6623 289.728 36.3783 290.056 36.0023 290.424L32.7983 293.568L32.5583 293.232H37.7663V294H31.8743ZM42.1751 294.072C41.5271 294.072 40.9511 293.904 40.4471 293.568C39.9431 293.224 39.5471 292.736 39.2591 292.104C38.9711 291.464 38.8271 290.696 38.8271 289.8C38.8271 288.904 38.9711 288.14 39.2591 287.508C39.5471 286.868 39.9431 286.38 40.4471 286.044C40.9511 285.7 41.5271 285.528 42.1751 285.528C42.8231 285.528 43.3991 285.7 43.9031 286.044C44.4071 286.38 44.8031 286.868 45.0911 287.508C45.3871 288.14 45.5351 288.904 45.5351 289.8C45.5351 290.696 45.3871 291.464 45.0911 292.104C44.8031 292.736 44.4071 293.224 43.9031 293.568C43.3991 293.904 42.8231 294.072 42.1751 294.072ZM42.1751 293.28C42.6711 293.28 43.1031 293.148 43.4711 292.884C43.8391 292.612 44.1271 292.22 44.3351 291.708C44.5431 291.188 44.6471 290.552 44.6471 289.8C44.6471 289.048 44.5431 288.416 44.3351 287.904C44.1271 287.384 43.8391 286.992 43.4711 286.728C43.1031 286.456 42.6711 286.32 42.1751 286.32C41.6951 286.32 41.2671 286.456 40.8911 286.728C40.5151 286.992 40.2231 287.384 40.0151 287.904C39.8071 288.416 39.7031 289.048 39.7031 289.8C39.7031 290.552 39.8071 291.188 40.0151 291.708C40.2231 292.22 40.5151 292.612 40.8911 292.884C41.2671 293.148 41.6951 293.28 42.1751 293.28ZM48.2364 294V285.96L48.6204 286.368H46.2564V285.6H49.1004V294H48.2364ZM53.7604 294.072C53.1604 294.072 52.5884 293.976 52.0444 293.784C51.5004 293.584 51.0684 293.32 50.7484 292.992L51.1684 292.308C51.4324 292.588 51.7924 292.82 52.2484 293.004C52.7124 293.188 53.2124 293.28 53.7484 293.28C54.4604 293.28 55.0004 293.124 55.3684 292.812C55.7444 292.492 55.9324 292.076 55.9324 291.564C55.9324 291.204 55.8444 290.896 55.6684 290.64C55.5004 290.376 55.2124 290.172 54.8044 290.028C54.3964 289.884 53.8364 289.812 53.1244 289.812H51.3364L51.7684 285.6H56.3644V286.368H52.1164L52.5604 285.948L52.1884 289.476L51.7444 289.044H53.3164C54.1644 289.044 54.8444 289.148 55.3564 289.356C55.8684 289.564 56.2364 289.856 56.4604 290.232C56.6924 290.6 56.8084 291.032 56.8084 291.528C56.8084 292 56.6964 292.432 56.4724 292.824C56.2484 293.208 55.9124 293.512 55.4644 293.736C55.0164 293.96 54.4484 294.072 53.7604 294.072Z" fill="#858C95"/>
<path d="M400.468 294V293.388L403.96 289.968C404.28 289.656 404.52 289.384 404.68 289.152C404.84 288.912 404.948 288.688 405.004 288.48C405.06 288.272 405.088 288.076 405.088 287.892C405.088 287.404 404.92 287.02 404.584 286.74C404.256 286.46 403.768 286.32 403.12 286.32C402.624 286.32 402.184 286.396 401.8 286.548C401.424 286.7 401.1 286.936 400.828 287.256L400.216 286.728C400.544 286.344 400.964 286.048 401.476 285.84C401.988 285.632 402.56 285.528 403.192 285.528C403.76 285.528 404.252 285.62 404.668 285.804C405.084 285.98 405.404 286.24 405.628 286.584C405.86 286.928 405.976 287.332 405.976 287.796C405.976 288.068 405.936 288.336 405.856 288.6C405.784 288.864 405.648 289.144 405.448 289.44C405.256 289.728 404.972 290.056 404.596 290.424L401.392 293.568L401.152 293.232H406.36V294H400.468ZM410.769 294.072C410.121 294.072 409.545 293.904 409.041 293.568C408.537 293.224 408.141 292.736 407.853 292.104C407.565 291.464 407.421 290.696 407.421 289.8C407.421 288.904 407.565 288.14 407.853 287.508C408.141 286.868 408.537 286.38 409.041 286.044C409.545 285.7 410.121 285.528 410.769 285.528C411.417 285.528 411.993 285.7 412.497 286.044C413.001 286.38 413.397 286.868 413.685 287.508C413.981 288.14 414.129 288.904 414.129 289.8C414.129 290.696 413.981 291.464 413.685 292.104C413.397 292.736 413.001 293.224 412.497 293.568C411.993 293.904 411.417 294.072 410.769 294.072ZM410.769 293.28C411.265 293.28 411.697 293.148 412.065 292.884C412.433 292.612 412.721 292.22 412.929 291.708C413.137 291.188 413.241 290.552 413.241 289.8C413.241 289.048 413.137 288.416 412.929 287.904C412.721 287.384 412.433 286.992 412.065 286.728C411.697 286.456 411.265 286.32 410.769 286.32C410.289 286.32 409.861 286.456 409.485 286.728C409.109 286.992 408.817 287.384 408.609 287.904C408.401 288.416 408.297 289.048 408.297 289.8C408.297 290.552 408.401 291.188 408.609 291.708C408.817 292.22 409.109 292.612 409.485 292.884C409.861 293.148 410.289 293.28 410.769 293.28ZM415.21 294V293.388L418.702 289.968C419.022 289.656 419.262 289.384 419.422 289.152C419.582 288.912 419.69 288.688 419.746 288.48C419.802 288.272 419.83 288.076 419.83 287.892C419.83 287.404 419.662 287.02 419.326 286.74C418.998 286.46 418.51 286.32 417.862 286.32C417.366 286.32 416.926 286.396 416.542 286.548C416.166 286.7 415.842 286.936 415.57 287.256L414.958 286.728C415.286 286.344 415.706 286.048 416.218 285.84C416.73 285.632 417.302 285.528 417.934 285.528C418.502 285.528 418.994 285.62 419.41 285.804C419.826 285.98 420.146 286.24 420.37 286.584C420.602 286.928 420.718 287.332 420.718 287.796C420.718 288.068 420.678 288.336 420.598 288.6C420.526 288.864 420.39 289.144 420.19 289.44C419.998 289.728 419.714 290.056 419.338 290.424L416.134 293.568L415.894 293.232H421.102V294H415.21ZM424.839 294.072C424.239 294.072 423.667 293.976 423.123 293.784C422.579 293.584 422.147 293.32 421.827 292.992L422.247 292.308C422.511 292.588 422.871 292.82 423.326 293.004C423.791 293.188 424.291 293.28 424.827 293.28C425.539 293.28 426.079 293.124 426.447 292.812C426.823 292.492 427.011 292.076 427.011 291.564C427.011 291.204 426.923 290.896 426.747 290.64C426.579 290.376 426.291 290.172 425.883 290.028C425.475 289.884 424.915 289.812 424.203 289.812H422.415L422.847 285.6H427.443V286.368H423.195L423.639 285.948L423.267 289.476L422.823 289.044H424.395C425.243 289.044 425.923 289.148 426.435 289.356C426.947 289.564 427.315 289.856 427.539 290.232C427.771 290.6 427.887 291.032 427.887 291.528C427.887 292 427.775 292.432 427.551 292.824C427.327 293.208 426.991 293.512 426.543 293.736C426.095 293.96 425.527 294.072 424.839 294.072Z" fill="#858C95"/>
<path d="M210.804 294V293.388L214.296 289.968C214.616 289.656 214.856 289.384 215.016 289.152C215.176 288.912 215.284 288.688 215.34 288.48C215.396 288.272 215.424 288.076 215.424 287.892C215.424 287.404 215.256 287.02 214.92 286.74C214.592 286.46 214.104 286.32 213.456 286.32C212.96 286.32 212.52 286.396 212.136 286.548C211.76 286.7 211.436 286.936 211.164 287.256L210.552 286.728C210.88 286.344 211.3 286.048 211.812 285.84C212.324 285.632 212.896 285.528 213.528 285.528C214.096 285.528 214.588 285.62 215.004 285.804C215.42 285.98 215.74 286.24 215.964 286.584C216.196 286.928 216.312 287.332 216.312 287.796C216.312 288.068 216.272 288.336 216.192 288.6C216.12 288.864 215.984 289.144 215.784 289.44C215.592 289.728 215.308 290.056 214.932 290.424L211.728 293.568L211.488 293.232H216.696V294H210.804ZM221.105 294.072C220.457 294.072 219.881 293.904 219.377 293.568C218.873 293.224 218.477 292.736 218.189 292.104C217.901 291.464 217.757 290.696 217.757 289.8C217.757 288.904 217.901 288.14 218.189 287.508C218.477 286.868 218.873 286.38 219.377 286.044C219.881 285.7 220.457 285.528 221.105 285.528C221.753 285.528 222.329 285.7 222.833 286.044C223.337 286.38 223.733 286.868 224.021 287.508C224.317 288.14 224.465 288.904 224.465 289.8C224.465 290.696 224.317 291.464 224.021 292.104C223.733 292.736 223.337 293.224 222.833 293.568C222.329 293.904 221.753 294.072 221.105 294.072ZM221.105 293.28C221.601 293.28 222.033 293.148 222.401 292.884C222.769 292.612 223.057 292.22 223.265 291.708C223.473 291.188 223.577 290.552 223.577 289.8C223.577 289.048 223.473 288.416 223.265 287.904C223.057 287.384 222.769 286.992 222.401 286.728C222.033 286.456 221.601 286.32 221.105 286.32C220.625 286.32 220.197 286.456 219.821 286.728C219.445 286.992 219.153 287.384 218.945 287.904C218.737 288.416 218.633 289.048 218.633 289.8C218.633 290.552 218.737 291.188 218.945 291.708C219.153 292.22 219.445 292.612 219.821 292.884C220.197 293.148 220.625 293.28 221.105 293.28ZM227.166 294V285.96L227.55 286.368H225.186V285.6H228.03V294H227.166ZM233.23 294.072C232.558 294.072 231.978 293.976 231.49 293.784C231.01 293.592 230.638 293.316 230.374 292.956C230.118 292.588 229.99 292.156 229.99 291.66C229.99 291.18 230.114 290.772 230.362 290.436C230.618 290.092 230.986 289.828 231.466 289.644C231.954 289.46 232.542 289.368 233.23 289.368C233.91 289.368 234.494 289.46 234.982 289.644C235.47 289.828 235.842 290.092 236.098 290.436C236.362 290.772 236.494 291.18 236.494 291.66C236.494 292.156 236.362 292.588 236.098 292.956C235.834 293.316 235.458 293.592 234.97 293.784C234.482 293.976 233.902 294.072 233.23 294.072ZM233.23 293.34C233.974 293.34 234.554 293.188 234.97 292.884C235.394 292.58 235.606 292.168 235.606 291.648C235.606 291.128 235.394 290.72 234.97 290.424C234.554 290.12 233.974 289.968 233.23 289.968C232.486 289.968 231.906 290.12 231.49 290.424C231.074 290.72 230.866 291.128 230.866 291.648C230.866 292.168 231.074 292.58 231.49 292.884C231.906 293.188 232.486 293.34 233.23 293.34ZM233.23 289.86C232.606 289.86 232.074 289.776 231.634 289.608C231.202 289.44 230.87 289.2 230.638 288.888C230.406 288.568 230.29 288.188 230.29 287.748C230.29 287.284 230.41 286.888 230.65 286.56C230.898 286.224 231.242 285.968 231.682 285.792C232.122 285.616 232.638 285.528 233.23 285.528C233.822 285.528 234.338 285.616 234.778 285.792C235.226 285.968 235.574 286.224 235.822 286.56C236.07 286.888 236.194 287.284 236.194 287.748C236.194 288.188 236.078 288.568 235.846 288.888C235.614 289.2 235.274 289.44 234.826 289.608C234.386 289.776 233.854 289.86 233.23 289.86ZM233.23 289.284C233.886 289.284 234.398 289.148 234.766 288.876C235.134 288.604 235.318 288.24 235.318 287.784C235.318 287.304 235.126 286.932 234.742 286.668C234.366 286.396 233.862 286.26 233.23 286.26C232.598 286.26 232.094 286.396 231.718 286.668C231.342 286.932 231.154 287.3 231.154 287.772C231.154 288.236 231.334 288.604 231.694 288.876C232.062 289.148 232.574 289.284 233.23 289.284Z" fill="#858C95"/>
<path d="M579.327 294V293.388L582.819 289.968C583.139 289.656 583.379 289.384 583.539 289.152C583.699 288.912 583.807 288.688 583.863 288.48C583.919 288.272 583.947 288.076 583.947 287.892C583.947 287.404 583.779 287.02 583.443 286.74C583.115 286.46 582.627 286.32 581.979 286.32C581.483 286.32 581.043 286.396 580.659 286.548C580.283 286.7 579.959 286.936 579.687 287.256L579.075 286.728C579.403 286.344 579.823 286.048 580.335 285.84C580.847 285.632 581.419 285.528 582.051 285.528C582.619 285.528 583.111 285.62 583.527 285.804C583.943 285.98 584.263 286.24 584.487 286.584C584.719 286.928 584.835 287.332 584.835 287.796C584.835 288.068 584.795 288.336 584.715 288.6C584.643 288.864 584.507 289.144 584.307 289.44C584.115 289.728 583.831 290.056 583.455 290.424L580.251 293.568L580.011 293.232H585.219V294H579.327ZM589.628 294.072C588.98 294.072 588.404 293.904 587.9 293.568C587.396 293.224 587 292.736 586.712 292.104C586.424 291.464 586.28 290.696 586.28 289.8C586.28 288.904 586.424 288.14 586.712 287.508C587 286.868 587.396 286.38 587.9 286.044C588.404 285.7 588.98 285.528 589.628 285.528C590.276 285.528 590.852 285.7 591.356 286.044C591.86 286.38 592.256 286.868 592.544 287.508C592.84 288.14 592.988 288.904 592.988 289.8C592.988 290.696 592.84 291.464 592.544 292.104C592.256 292.736 591.86 293.224 591.356 293.568C590.852 293.904 590.276 294.072 589.628 294.072ZM589.628 293.28C590.124 293.28 590.556 293.148 590.924 292.884C591.292 292.612 591.58 292.22 591.788 291.708C591.996 291.188 592.1 290.552 592.1 289.8C592.1 289.048 591.996 288.416 591.788 287.904C591.58 287.384 591.292 286.992 590.924 286.728C590.556 286.456 590.124 286.32 589.628 286.32C589.148 286.32 588.72 286.456 588.344 286.728C587.968 286.992 587.676 287.384 587.468 287.904C587.26 288.416 587.156 289.048 587.156 289.8C587.156 290.552 587.26 291.188 587.468 291.708C587.676 292.22 587.968 292.612 588.344 292.884C588.72 293.148 589.148 293.28 589.628 293.28ZM596.616 294.072C596.008 294.072 595.432 293.976 594.888 293.784C594.352 293.584 593.92 293.32 593.592 292.992L594.012 292.308C594.284 292.588 594.648 292.82 595.104 293.004C595.568 293.188 596.072 293.28 596.616 293.28C597.312 293.28 597.844 293.128 598.212 292.824C598.588 292.52 598.776 292.112 598.776 291.6C598.776 291.088 598.592 290.68 598.224 290.376C597.864 290.072 597.292 289.92 596.508 289.92H595.908V289.284L598.5 286.032L598.62 286.368H593.94V285.6H599.34V286.212L596.748 289.464L596.328 289.188H596.652C597.66 289.188 598.412 289.412 598.908 289.86C599.412 290.308 599.664 290.884 599.664 291.588C599.664 292.06 599.552 292.484 599.328 292.86C599.104 293.236 598.764 293.532 598.308 293.748C597.86 293.964 597.296 294.072 596.616 294.072ZM604.23 294.072C603.582 294.072 603.006 293.904 602.502 293.568C601.998 293.224 601.602 292.736 601.314 292.104C601.026 291.464 600.882 290.696 600.882 289.8C600.882 288.904 601.026 288.14 601.314 287.508C601.602 286.868 601.998 286.38 602.502 286.044C603.006 285.7 603.582 285.528 604.23 285.528C604.878 285.528 605.454 285.7 605.958 286.044C606.462 286.38 606.858 286.868 607.146 287.508C607.442 288.14 607.59 288.904 607.59 289.8C607.59 290.696 607.442 291.464 607.146 292.104C606.858 292.736 606.462 293.224 605.958 293.568C605.454 293.904 604.878 294.072 604.23 294.072ZM604.23 293.28C604.726 293.28 605.158 293.148 605.526 292.884C605.894 292.612 606.182 292.22 606.39 291.708C606.598 291.188 606.702 290.552 606.702 289.8C606.702 289.048 606.598 288.416 606.39 287.904C606.182 287.384 605.894 286.992 605.526 286.728C605.158 286.456 604.726 286.32 604.23 286.32C603.75 286.32 603.322 286.456 602.946 286.728C602.57 286.992 602.278 287.384 602.07 287.904C601.862 288.416 601.758 289.048 601.758 289.8C601.758 290.552 601.862 291.188 602.07 291.708C602.278 292.22 602.57 292.612 602.946 292.884C603.322 293.148 603.75 293.28 604.23 293.28Z" fill="#858C95"/>
<path d="M16.972 274.416C16.324 274.416 15.748 274.248 15.244 273.912C14.74 273.568 14.344 273.08 14.056 272.448C13.768 271.808 13.624 271.04 13.624 270.144C13.624 269.248 13.768 268.484 14.056 267.852C14.344 267.212 14.74 266.724 15.244 266.388C15.748 266.044 16.324 265.872 16.972 265.872C17.62 265.872 18.196 266.044 18.7 266.388C19.204 266.724 19.6 267.212 19.888 267.852C20.184 268.484 20.332 269.248 20.332 270.144C20.332 271.04 20.184 271.808 19.888 272.448C19.6 273.08 19.204 273.568 18.7 273.912C18.196 274.248 17.62 274.416 16.972 274.416ZM16.972 273.624C17.468 273.624 17.9 273.492 18.268 273.228C18.636 272.956 18.924 272.564 19.132 272.052C19.34 271.532 19.444 270.896 19.444 270.144C19.444 269.392 19.34 268.76 19.132 268.248C18.924 267.728 18.636 267.336 18.268 267.072C17.9 266.8 17.468 266.664 16.972 266.664C16.492 266.664 16.064 266.8 15.688 267.072C15.312 267.336 15.02 267.728 14.812 268.248C14.604 268.76 14.5 269.392 14.5 270.144C14.5 270.896 14.604 271.532 14.812 272.052C15.02 272.564 15.312 272.956 15.688 273.228C16.064 273.492 16.492 273.624 16.972 273.624Z" fill="#858C95"/>
<path d="M5.088 212.49V204.45L5.472 204.858H3.108V204.09H5.952V212.49H5.088ZM11.3079 212.562C10.6599 212.562 10.0839 212.394 9.57994 212.058C9.07594 211.714 8.67994 211.226 8.39194 210.594C8.10394 209.954 7.95994 209.186 7.95994 208.29C7.95994 207.394 8.10394 206.63 8.39194 205.998C8.67994 205.358 9.07594 204.87 9.57994 204.534C10.0839 204.19 10.6599 204.018 11.3079 204.018C11.9559 204.018 12.5319 204.19 13.0359 204.534C13.5399 204.87 13.9359 205.358 14.2239 205.998C14.5199 206.63 14.6679 207.394 14.6679 208.29C14.6679 209.186 14.5199 209.954 14.2239 210.594C13.9359 211.226 13.5399 211.714 13.0359 212.058C12.5319 212.394 11.9559 212.562 11.3079 212.562ZM11.3079 211.77C11.8039 211.77 12.2359 211.638 12.6039 211.374C12.9719 211.102 13.2599 210.71 13.4679 210.198C13.6759 209.678 13.7799 209.042 13.7799 208.29C13.7799 207.538 13.6759 206.906 13.4679 206.394C13.2599 205.874 12.9719 205.482 12.6039 205.218C12.2359 204.946 11.8039 204.81 11.3079 204.81C10.8279 204.81 10.3999 204.946 10.0239 205.218C9.64794 205.482 9.35594 205.874 9.14794 206.394C8.93994 206.906 8.83594 207.538 8.83594 208.29C8.83594 209.042 8.93994 209.678 9.14794 210.198C9.35594 210.71 9.64794 211.102 10.0239 211.374C10.3999 211.638 10.8279 211.77 11.3079 211.77ZM19.2533 212.562C18.6053 212.562 18.0293 212.394 17.5253 212.058C17.0213 211.714 16.6253 211.226 16.3373 210.594C16.0493 209.954 15.9053 209.186 15.9053 208.29C15.9053 207.394 16.0493 206.63 16.3373 205.998C16.6253 205.358 17.0213 204.87 17.5253 204.534C18.0293 204.19 18.6053 204.018 19.2533 204.018C19.9013 204.018 20.4773 204.19 20.9813 204.534C21.4853 204.87 21.8813 205.358 22.1693 205.998C22.4653 206.63 22.6133 207.394 22.6133 208.29C22.6133 209.186 22.4653 209.954 22.1693 210.594C21.8813 211.226 21.4853 211.714 20.9813 212.058C20.4773 212.394 19.9013 212.562 19.2533 212.562ZM19.2533 211.77C19.7493 211.77 20.1813 211.638 20.5493 211.374C20.9173 211.102 21.2053 210.71 21.4133 210.198C21.6213 209.678 21.7253 209.042 21.7253 208.29C21.7253 207.538 21.6213 206.906 21.4133 206.394C21.2053 205.874 20.9173 205.482 20.5493 205.218C20.1813 204.946 19.7493 204.81 19.2533 204.81C18.7733 204.81 18.3453 204.946 17.9693 205.218C17.5933 205.482 17.3013 205.874 17.0933 206.394C16.8853 206.906 16.7812 207.538 16.7812 208.29C16.7812 209.042 16.8853 209.678 17.0933 210.198C17.3013 210.71 17.5933 211.102 17.9693 211.374C18.3453 211.638 18.7733 211.77 19.2533 211.77Z" fill="#858C95"/>
<path d="M4.132 74.9294C3.524 74.9294 2.948 74.8334 2.404 74.6414C1.868 74.4414 1.436 74.1774 1.108 73.8494L1.528 73.1654C1.8 73.4454 2.164 73.6774 2.62 73.8614C3.084 74.0454 3.588 74.1374 4.132 74.1374C4.828 74.1374 5.36 73.9854 5.728 73.6814C6.104 73.3774 6.292 72.9694 6.292 72.4574C6.292 71.9454 6.108 71.5374 5.74 71.2334C5.38 70.9294 4.808 70.7774 4.024 70.7774H3.424V70.1414L6.016 66.8894L6.136 67.2254H1.456V66.4574H6.856V67.0694L4.264 70.3214L3.844 70.0454H4.168C5.176 70.0454 5.928 70.2694 6.424 70.7174C6.928 71.1654 7.18 71.7414 7.18 72.4454C7.18 72.9174 7.068 73.3414 6.844 73.7174C6.62 74.0934 6.28 74.3894 5.824 74.6054C5.376 74.8214 4.812 74.9294 4.132 74.9294ZM11.7454 74.9294C11.0974 74.9294 10.5214 74.7614 10.0174 74.4254C9.51344 74.0814 9.11744 73.5934 8.82944 72.9614C8.54144 72.3214 8.39744 71.5534 8.39744 70.6574C8.39744 69.7614 8.54144 68.9974 8.82944 68.3654C9.11744 67.7254 9.51344 67.2374 10.0174 66.9014C10.5214 66.5574 11.0974 66.3854 11.7454 66.3854C12.3934 66.3854 12.9694 66.5574 13.4734 66.9014C13.9774 67.2374 14.3734 67.7254 14.6614 68.3654C14.9574 68.9974 15.1054 69.7614 15.1054 70.6574C15.1054 71.5534 14.9574 72.3214 14.6614 72.9614C14.3734 73.5934 13.9774 74.0814 13.4734 74.4254C12.9694 74.7614 12.3934 74.9294 11.7454 74.9294ZM11.7454 74.1374C12.2414 74.1374 12.6734 74.0054 13.0414 73.7414C13.4094 73.4694 13.6974 73.0774 13.9054 72.5654C14.1134 72.0454 14.2174 71.4094 14.2174 70.6574C14.2174 69.9054 14.1134 69.2734 13.9054 68.7614C13.6974 68.2414 13.4094 67.8494 13.0414 67.5854C12.6734 67.3134 12.2414 67.1774 11.7454 67.1774C11.2654 67.1774 10.8374 67.3134 10.4614 67.5854C10.0854 67.8494 9.79344 68.2414 9.58544 68.7614C9.37744 69.2734 9.27344 69.9054 9.27344 70.6574C9.27344 71.4094 9.37744 72.0454 9.58544 72.5654C9.79344 73.0774 10.0854 73.4694 10.4614 73.7414C10.8374 74.0054 11.2654 74.1374 11.7454 74.1374ZM19.6908 74.9294C19.0428 74.9294 18.4668 74.7614 17.9628 74.4254C17.4588 74.0814 17.0628 73.5934 16.7748 72.9614C16.4868 72.3214 16.3428 71.5534 16.3428 70.6574C16.3428 69.7614 16.4868 68.9974 16.7748 68.3654C17.0628 67.7254 17.4588 67.2374 17.9628 66.9014C18.4668 66.5574 19.0428 66.3854 19.6908 66.3854C20.3388 66.3854 20.9148 66.5574 21.4188 66.9014C21.9228 67.2374 22.3188 67.7254 22.6068 68.3654C22.9028 68.9974 23.0508 69.7614 23.0508 70.6574C23.0508 71.5534 22.9028 72.3214 22.6068 72.9614C22.3188 73.5934 21.9228 74.0814 21.4188 74.4254C20.9148 74.7614 20.3388 74.9294 19.6908 74.9294ZM19.6908 74.1374C20.1868 74.1374 20.6188 74.0054 20.9868 73.7414C21.3548 73.4694 21.6428 73.0774 21.8508 72.5654C22.0588 72.0454 22.1628 71.4094 22.1628 70.6574C22.1628 69.9054 22.0588 69.2734 21.8508 68.7614C21.6428 68.2414 21.3548 67.8494 20.9868 67.5854C20.6188 67.3134 20.1868 67.1774 19.6908 67.1774C19.2108 67.1774 18.7828 67.3134 18.4068 67.5854C18.0308 67.8494 17.7388 68.2414 17.5308 68.7614C17.3228 69.2734 17.2188 69.9054 17.2188 70.6574C17.2188 71.4094 17.3228 72.0454 17.5308 72.5654C17.7388 73.0774 18.0308 73.4694 18.4068 73.7414C18.7828 74.0054 19.2108 74.1374 19.6908 74.1374Z" fill="#858C95"/>
<path d="M1.468 145.174V144.562L4.96 141.142C5.28 140.83 5.52 140.558 5.68 140.326C5.84 140.086 5.948 139.862 6.004 139.654C6.06 139.446 6.088 139.25 6.088 139.066C6.088 138.578 5.92 138.194 5.584 137.914C5.256 137.634 4.768 137.494 4.12 137.494C3.624 137.494 3.184 137.57 2.8 137.722C2.424 137.874 2.1 138.11 1.828 138.43L1.216 137.902C1.544 137.518 1.964 137.222 2.476 137.014C2.988 136.806 3.56 136.702 4.192 136.702C4.76 136.702 5.252 136.794 5.668 136.978C6.084 137.154 6.404 137.414 6.628 137.758C6.86 138.102 6.976 138.506 6.976 138.97C6.976 139.242 6.936 139.51 6.856 139.774C6.784 140.038 6.648 140.318 6.448 140.614C6.256 140.902 5.972 141.23 5.596 141.598L2.392 144.742L2.152 144.406H7.36V145.174H1.468ZM11.7689 145.246C11.1209 145.246 10.5449 145.078 10.0409 144.742C9.53688 144.398 9.14088 143.91 8.85288 143.278C8.56488 142.638 8.42088 141.87 8.42088 140.974C8.42088 140.078 8.56488 139.314 8.85288 138.682C9.14088 138.042 9.53688 137.554 10.0409 137.218C10.5449 136.874 11.1209 136.702 11.7689 136.702C12.4169 136.702 12.9929 136.874 13.4969 137.218C14.0009 137.554 14.3969 138.042 14.6849 138.682C14.9809 139.314 15.1289 140.078 15.1289 140.974C15.1289 141.87 14.9809 142.638 14.6849 143.278C14.3969 143.91 14.0009 144.398 13.4969 144.742C12.9929 145.078 12.4169 145.246 11.7689 145.246ZM11.7689 144.454C12.2649 144.454 12.6969 144.322 13.0649 144.058C13.4329 143.786 13.7209 143.394 13.9289 142.882C14.1369 142.362 14.2409 141.726 14.2409 140.974C14.2409 140.222 14.1369 139.59 13.9289 139.078C13.7209 138.558 13.4329 138.166 13.0649 137.902C12.6969 137.63 12.2649 137.494 11.7689 137.494C11.2889 137.494 10.8609 137.63 10.4849 137.902C10.1089 138.166 9.81688 138.558 9.60888 139.078C9.40088 139.59 9.29688 140.222 9.29688 140.974C9.29688 141.726 9.40088 142.362 9.60888 142.882C9.81688 143.394 10.1089 143.786 10.4849 144.058C10.8609 144.322 11.2889 144.454 11.7689 144.454ZM19.7142 145.246C19.0662 145.246 18.4902 145.078 17.9862 144.742C17.4822 144.398 17.0862 143.91 16.7982 143.278C16.5102 142.638 16.3662 141.87 16.3662 140.974C16.3662 140.078 16.5102 139.314 16.7982 138.682C17.0862 138.042 17.4822 137.554 17.9862 137.218C18.4902 136.874 19.0662 136.702 19.7142 136.702C20.3622 136.702 20.9382 136.874 21.4422 137.218C21.9462 137.554 22.3422 138.042 22.6302 138.682C22.9262 139.314 23.0742 140.078 23.0742 140.974C23.0742 141.87 22.9262 142.638 22.6302 143.278C22.3422 143.91 21.9462 144.398 21.4422 144.742C20.9382 145.078 20.3622 145.246 19.7142 145.246ZM19.7142 144.454C20.2102 144.454 20.6422 144.322 21.0102 144.058C21.3782 143.786 21.6662 143.394 21.8742 142.882C22.0822 142.362 22.1862 141.726 22.1862 140.974C22.1862 140.222 22.0822 139.59 21.8742 139.078C21.6662 138.558 21.3782 138.166 21.0102 137.902C20.6422 137.63 20.2102 137.494 19.7142 137.494C19.2342 137.494 18.8062 137.63 18.4302 137.902C18.0542 138.166 17.7622 138.558 17.5542 139.078C17.3462 139.59 17.2422 140.222 17.2422 140.974C17.2422 141.726 17.3462 142.362 17.5542 142.882C17.7622 143.394 18.0542 143.786 18.4302 144.058C18.8062 144.322 19.2342 144.454 19.7142 144.454Z" fill="#858C95"/>
<path d="M0.48 6.9795V6.3555L4.932 0.787499H5.892L1.476 6.3555L1.008 6.2115H7.764V6.9795H0.48ZM5.22 9.1875V6.9795L5.244 6.2115V4.2675H6.084V9.1875H5.22ZM11.9056 9.2595C11.2576 9.2595 10.6816 9.0915 10.1776 8.7555C9.67359 8.4115 9.27759 7.9235 8.98959 7.2915C8.70159 6.6515 8.55759 5.8835 8.55759 4.9875C8.55759 4.0915 8.70159 3.3275 8.98959 2.6955C9.27759 2.0555 9.67359 1.5675 10.1776 1.2315C10.6816 0.8875 11.2576 0.7155 11.9056 0.7155C12.5536 0.7155 13.1296 0.8875 13.6336 1.2315C14.1376 1.5675 14.5336 2.0555 14.8216 2.6955C15.1176 3.3275 15.2656 4.0915 15.2656 4.9875C15.2656 5.8835 15.1176 6.6515 14.8216 7.2915C14.5336 7.9235 14.1376 8.4115 13.6336 8.7555C13.1296 9.0915 12.5536 9.2595 11.9056 9.2595ZM11.9056 8.4675C12.4016 8.4675 12.8336 8.3355 13.2016 8.0715C13.5696 7.7995 13.8576 7.4075 14.0656 6.8955C14.2736 6.3755 14.3776 5.7395 14.3776 4.9875C14.3776 4.2355 14.2736 3.6035 14.0656 3.0915C13.8576 2.5715 13.5696 2.1795 13.2016 1.9155C12.8336 1.6435 12.4016 1.5075 11.9056 1.5075C11.4256 1.5075 10.9976 1.6435 10.6216 1.9155C10.2456 2.1795 9.95359 2.5715 9.74559 3.0915C9.53759 3.6035 9.43359 4.2355 9.43359 4.9875C9.43359 5.7395 9.53759 6.3755 9.74559 6.8955C9.95359 7.4075 10.2456 7.7995 10.6216 8.0715C10.9976 8.3355 11.4256 8.4675 11.9056 8.4675ZM19.8509 9.2595C19.2029 9.2595 18.6269 9.0915 18.1229 8.7555C17.6189 8.4115 17.2229 7.9235 16.9349 7.2915C16.6469 6.6515 16.5029 5.8835 16.5029 4.9875C16.5029 4.0915 16.6469 3.3275 16.9349 2.6955C17.2229 2.0555 17.6189 1.5675 18.1229 1.2315C18.6269 0.8875 19.2029 0.7155 19.8509 0.7155C20.4989 0.7155 21.0749 0.8875 21.5789 1.2315C22.0829 1.5675 22.4789 2.0555 22.7669 2.6955C23.0629 3.3275 23.2109 4.0915 23.2109 4.9875C23.2109 5.8835 23.0629 6.6515 22.7669 7.2915C22.4789 7.9235 22.0829 8.4115 21.5789 8.7555C21.0749 9.0915 20.4989 9.2595 19.8509 9.2595ZM19.8509 8.4675C20.3469 8.4675 20.7789 8.3355 21.1469 8.0715C21.5149 7.7995 21.8029 7.4075 22.0109 6.8955C22.2189 6.3755 22.3229 5.7395 22.3229 4.9875C22.3229 4.2355 22.2189 3.6035 22.0109 3.0915C21.8029 2.5715 21.5149 2.1795 21.1469 1.9155C20.7789 1.6435 20.3469 1.5075 19.8509 1.5075C19.3709 1.5075 18.9429 1.6435 18.5669 1.9155C18.1909 2.1795 17.8989 2.5715 17.6909 3.0915C17.4829 3.6035 17.3789 4.2355 17.3789 4.9875C17.3789 5.7395 17.4829 6.3755 17.6909 6.8955C17.8989 7.4075 18.1909 7.7995 18.5669 8.0715C18.9429 8.3355 19.3709 8.4675 19.8509 8.4675Z" fill="#858C95"/>
<path d="M605.5 91C605.5 91 478.5 127.5 414 140.5C349.5 153.5 298.5 157.959 223 167.5C147.5 177.041 31 184 31 184" stroke="#2D6FD0" stroke-width="2"/>
<path d="M31.4069 187.64C30.4372 187.64 29.5072 187.255 28.8214 186.569C28.1356 185.884 27.7502 184.954 27.75 183.984C27.7498 183.014 28.1347 182.084 28.8201 181.398C29.5056 180.712 30.4354 180.327 31.4051 180.326C32.3748 180.326 33.305 180.71 33.9912 181.396C34.6773 182.081 35.0631 183.011 35.0639 183.98C35.0646 184.95 34.6801 185.88 33.995 186.567C33.3099 187.253 32.3803 187.639 31.4106 187.64H31.4069Z" fill="#2D6FD0"/>
<path d="M413.36 143.413C412.39 143.413 411.46 143.028 410.775 142.343C410.089 141.657 409.703 140.727 409.703 139.757C409.703 138.788 410.088 137.858 410.773 137.172C411.459 136.486 412.389 136.1 413.358 136.1C414.328 136.099 415.258 136.484 415.944 137.169C416.63 137.854 417.016 138.784 417.017 139.754C417.018 140.724 416.633 141.654 415.948 142.34C415.263 143.026 414.333 143.413 413.364 143.413H413.36Z" fill="#2D6FD0"/>
<path d="M223.383 171.206C222.414 171.206 221.484 170.821 220.798 170.136C220.112 169.45 219.727 168.52 219.727 167.55C219.726 166.581 220.111 165.651 220.797 164.965C221.482 164.279 222.412 163.893 223.382 163.893C224.351 163.892 225.282 164.277 225.968 164.962C226.654 165.647 227.04 166.577 227.04 167.547C227.041 168.516 226.657 169.447 225.972 170.133C225.287 170.819 224.357 171.205 223.387 171.206H223.383Z" fill="#2D6FD0"/>
<path d="M605.344 95.142C604.375 95.142 603.445 94.7568 602.759 94.0712C602.073 93.3856 601.688 92.4557 601.688 91.486C601.687 90.5163 602.072 89.5861 602.758 88.9002C603.443 88.2142 604.373 87.8286 605.343 87.8281C606.312 87.8276 607.243 88.2123 607.929 88.8976C608.615 89.5829 609.001 90.5126 609.001 91.4823C609.002 92.452 608.618 93.3823 607.933 94.0686C607.247 94.7549 606.318 95.141 605.348 95.142L605.344 95.142Z" fill="#2D6FD0"/>
<path d="M51.6484 168.56V170H45.2944V168.56H47.7424V158.75C47.6464 158.894 47.4904 159.056 47.2744 159.236C47.0584 159.404 46.8064 159.572 46.5184 159.74C46.2424 159.896 45.9604 160.028 45.6724 160.136C45.3844 160.244 45.1204 160.298 44.8804 160.298V158.822C45.2044 158.822 45.5284 158.738 45.8524 158.57C46.1884 158.402 46.4944 158.204 46.7704 157.976C47.0584 157.748 47.2864 157.544 47.4544 157.364C47.6344 157.184 47.7304 157.088 47.7424 157.076H49.3624V168.56H51.6484ZM57.1098 170.162C56.3778 170.162 55.7118 170.048 55.1118 169.82C54.5238 169.58 54.0318 169.25 53.6358 168.83C53.2518 168.398 52.9998 167.9 52.8798 167.336L53.7798 166.382C53.8158 166.73 53.9718 167.084 54.2478 167.444C54.5238 167.804 54.9018 168.104 55.3818 168.344C55.8738 168.572 56.4438 168.686 57.0918 168.686C57.6438 168.686 58.1418 168.596 58.5858 168.416C59.0298 168.224 59.3838 167.96 59.6478 167.624C59.9118 167.288 60.0438 166.898 60.0438 166.454C60.0438 165.962 59.8818 165.542 59.5578 165.194C59.2338 164.846 58.7718 164.582 58.1718 164.402C57.5838 164.222 56.8818 164.132 56.0658 164.132H55.4538V162.782H56.0658C57.1698 162.782 58.0518 162.608 58.7118 162.26C59.3718 161.9 59.7018 161.366 59.7018 160.658C59.7018 160.202 59.5758 159.812 59.3238 159.488C59.0838 159.152 58.7598 158.9 58.3518 158.732C57.9558 158.552 57.5298 158.462 57.0738 158.462C56.3058 158.462 55.6518 158.636 55.1118 158.984C54.5838 159.32 54.2118 159.716 53.9958 160.172L52.9338 159.074C53.1738 158.654 53.5098 158.294 53.9418 157.994C54.3738 157.694 54.8598 157.466 55.3998 157.31C55.9398 157.142 56.4918 157.058 57.0558 157.058C57.8838 157.058 58.6218 157.214 59.2698 157.526C59.9298 157.838 60.4458 158.258 60.8178 158.786C61.1898 159.314 61.3758 159.914 61.3758 160.586C61.3758 161.066 61.2798 161.498 61.0878 161.882C60.8958 162.254 60.6138 162.566 60.2418 162.818C59.8698 163.07 59.4198 163.262 58.8918 163.394C59.4558 163.49 59.9478 163.694 60.3678 164.006C60.7878 164.318 61.1118 164.702 61.3398 165.158C61.5678 165.614 61.6818 166.112 61.6818 166.652C61.6818 167.396 61.4658 168.032 61.0338 168.56C60.6018 169.076 60.0378 169.472 59.3418 169.748C58.6578 170.024 57.9138 170.162 57.1098 170.162ZM72.4631 166.382C72.4631 167.138 72.2531 167.798 71.8331 168.362C71.4251 168.926 70.8731 169.364 70.1771 169.676C69.4931 169.988 68.7431 170.144 67.9271 170.144C67.0751 170.144 66.3131 169.976 65.6411 169.64C64.9691 169.292 64.4351 168.83 64.0391 168.254C63.6551 167.678 63.4631 167.03 63.4631 166.31C63.4631 165.782 63.5831 165.308 63.8231 164.888C64.0631 164.468 64.3631 164.114 64.7231 163.826C65.0951 163.526 65.4731 163.304 65.8571 163.16C65.5091 163.004 65.1851 162.8 64.8851 162.548C64.5851 162.296 64.3451 162.002 64.1651 161.666C63.9851 161.33 63.8951 160.964 63.8951 160.568C63.8951 160.028 64.0151 159.554 64.2551 159.146C64.4951 158.726 64.8131 158.372 65.2091 158.084C65.6051 157.796 66.0431 157.58 66.5231 157.436C67.0031 157.292 67.4831 157.22 67.9631 157.22C68.4431 157.22 68.9231 157.292 69.4031 157.436C69.8831 157.58 70.3211 157.796 70.7171 158.084C71.1251 158.36 71.4491 158.708 71.6891 159.128C71.9291 159.536 72.0491 160.01 72.0491 160.55C72.0491 160.946 71.9591 161.318 71.7791 161.666C71.5991 162.002 71.3531 162.296 71.0411 162.548C70.7411 162.8 70.4111 163.004 70.0511 163.16C70.4831 163.328 70.8791 163.568 71.2391 163.88C71.6111 164.18 71.9051 164.54 72.1211 164.96C72.3491 165.38 72.4631 165.854 72.4631 166.382ZM70.8611 166.274C70.8611 165.89 70.7771 165.548 70.6091 165.248C70.4411 164.936 70.2131 164.678 69.9251 164.474C69.6371 164.258 69.3191 164.096 68.9711 163.988C68.6351 163.88 68.2931 163.826 67.9451 163.826C67.4651 163.826 67.0031 163.928 66.5591 164.132C66.1271 164.336 65.7731 164.624 65.4971 164.996C65.2211 165.356 65.0831 165.788 65.0831 166.292C65.0831 166.664 65.1671 167 65.3351 167.3C65.5031 167.6 65.7251 167.858 66.0011 168.074C66.2891 168.29 66.6011 168.452 66.9371 168.56C67.2851 168.668 67.6331 168.722 67.9811 168.722C68.4611 168.722 68.9171 168.62 69.3491 168.416C69.7931 168.212 70.1531 167.924 70.4291 167.552C70.7171 167.18 70.8611 166.754 70.8611 166.274ZM65.4971 160.622C65.4971 161.042 65.6231 161.402 65.8751 161.702C66.1271 162.002 66.4451 162.23 66.8291 162.386C67.2131 162.53 67.5911 162.602 67.9631 162.602C68.3471 162.602 68.7251 162.524 69.0971 162.368C69.4811 162.212 69.7991 161.984 70.0511 161.684C70.3031 161.384 70.4291 161.018 70.4291 160.586C70.4291 160.178 70.3091 159.83 70.0691 159.542C69.8411 159.254 69.5351 159.032 69.1511 158.876C68.7791 158.72 68.3771 158.642 67.9451 158.642C67.5251 158.642 67.1231 158.726 66.7391 158.894C66.3671 159.05 66.0671 159.278 65.8391 159.578C65.6111 159.866 65.4971 160.214 65.4971 160.622ZM74.6709 171.458L75.0309 169.856H74.4909V167.984H75.9849V169.856L75.4449 171.458H74.6709ZM87.0177 166.382C87.0177 167.138 86.8077 167.798 86.3877 168.362C85.9797 168.926 85.4277 169.364 84.7317 169.676C84.0477 169.988 83.2977 170.144 82.4817 170.144C81.6297 170.144 80.8677 169.976 80.1957 169.64C79.5237 169.292 78.9897 168.83 78.5937 168.254C78.2097 167.678 78.0177 167.03 78.0177 166.31C78.0177 165.782 78.1377 165.308 78.3777 164.888C78.6177 164.468 78.9177 164.114 79.2777 163.826C79.6497 163.526 80.0277 163.304 80.4117 163.16C80.0637 163.004 79.7397 162.8 79.4397 162.548C79.1397 162.296 78.8997 162.002 78.7197 161.666C78.5397 161.33 78.4497 160.964 78.4497 160.568C78.4497 160.028 78.5697 159.554 78.8097 159.146C79.0497 158.726 79.3677 158.372 79.7637 158.084C80.1597 157.796 80.5977 157.58 81.0777 157.436C81.5577 157.292 82.0377 157.22 82.5177 157.22C82.9977 157.22 83.4777 157.292 83.9577 157.436C84.4377 157.58 84.8757 157.796 85.2717 158.084C85.6797 158.36 86.0037 158.708 86.2437 159.128C86.4837 159.536 86.6037 160.01 86.6037 160.55C86.6037 160.946 86.5137 161.318 86.3337 161.666C86.1537 162.002 85.9077 162.296 85.5957 162.548C85.2957 162.8 84.9657 163.004 84.6057 163.16C85.0377 163.328 85.4337 163.568 85.7937 163.88C86.1657 164.18 86.4597 164.54 86.6757 164.96C86.9037 165.38 87.0177 165.854 87.0177 166.382ZM85.4157 166.274C85.4157 165.89 85.3317 165.548 85.1637 165.248C84.9957 164.936 84.7677 164.678 84.4797 164.474C84.1917 164.258 83.8737 164.096 83.5257 163.988C83.1897 163.88 82.8477 163.826 82.4997 163.826C82.0197 163.826 81.5577 163.928 81.1137 164.132C80.6817 164.336 80.3277 164.624 80.0517 164.996C79.7757 165.356 79.6377 165.788 79.6377 166.292C79.6377 166.664 79.7217 167 79.8897 167.3C80.0577 167.6 80.2797 167.858 80.5557 168.074C80.8437 168.29 81.1557 168.452 81.4917 168.56C81.8397 168.668 82.1877 168.722 82.5357 168.722C83.0157 168.722 83.4717 168.62 83.9037 168.416C84.3477 168.212 84.7077 167.924 84.9837 167.552C85.2717 167.18 85.4157 166.754 85.4157 166.274ZM80.0517 160.622C80.0517 161.042 80.1777 161.402 80.4297 161.702C80.6817 162.002 80.9997 162.23 81.3837 162.386C81.7677 162.53 82.1457 162.602 82.5177 162.602C82.9017 162.602 83.2797 162.524 83.6517 162.368C84.0357 162.212 84.3537 161.984 84.6057 161.684C84.8577 161.384 84.9837 161.018 84.9837 160.586C84.9837 160.178 84.8637 159.83 84.6237 159.542C84.3957 159.254 84.0897 159.032 83.7057 158.876C83.3337 158.72 82.9317 158.642 82.4997 158.642C82.0797 158.642 81.6777 158.726 81.2937 158.894C80.9217 159.05 80.6217 159.278 80.3937 159.578C80.1657 159.866 80.0517 160.214 80.0517 160.622Z" fill="#2F2F2F"/>
<path d="M547.905 86C547.905 85.28 547.965 84.644 548.085 84.092C548.217 83.528 548.403 83.024 548.643 82.58C548.895 82.136 549.195 81.746 549.543 81.41C549.891 81.074 550.287 80.774 550.731 80.51C551.199 80.234 551.679 79.982 552.171 79.754C552.663 79.526 553.119 79.286 553.539 79.034C553.959 78.782 554.295 78.482 554.547 78.134C554.811 77.774 554.943 77.33 554.943 76.802C554.943 76.382 554.853 76.004 554.673 75.668C554.493 75.32 554.223 75.044 553.863 74.84C553.503 74.636 553.041 74.534 552.477 74.534C551.913 74.534 551.403 74.63 550.947 74.822C550.503 75.014 550.119 75.242 549.795 75.506C549.471 75.77 549.213 76.022 549.021 76.262L547.995 75.236C548.091 75.116 548.259 74.936 548.499 74.696C548.751 74.456 549.069 74.21 549.453 73.958C549.849 73.706 550.311 73.496 550.839 73.328C551.367 73.148 551.967 73.058 552.639 73.058C553.539 73.058 554.289 73.226 554.889 73.562C555.489 73.898 555.939 74.348 556.239 74.912C556.551 75.476 556.707 76.1 556.707 76.784C556.707 77.396 556.593 77.924 556.365 78.368C556.137 78.8 555.843 79.166 555.483 79.466C555.123 79.766 554.727 80.03 554.295 80.258C553.875 80.486 553.467 80.702 553.071 80.906C552.315 81.266 551.715 81.596 551.271 81.896C550.827 82.196 550.485 82.49 550.245 82.778C550.017 83.054 549.861 83.336 549.777 83.624C549.705 83.912 549.663 84.224 549.651 84.56H556.725V86H547.905ZM567.576 82.382C567.576 83.138 567.366 83.798 566.946 84.362C566.538 84.926 565.986 85.364 565.29 85.676C564.606 85.988 563.856 86.144 563.04 86.144C562.188 86.144 561.426 85.976 560.754 85.64C560.082 85.292 559.548 84.83 559.152 84.254C558.768 83.678 558.576 83.03 558.576 82.31C558.576 81.782 558.696 81.308 558.936 80.888C559.176 80.468 559.476 80.114 559.836 79.826C560.208 79.526 560.586 79.304 560.97 79.16C560.622 79.004 560.298 78.8 559.998 78.548C559.698 78.296 559.458 78.002 559.278 77.666C559.098 77.33 559.008 76.964 559.008 76.568C559.008 76.028 559.128 75.554 559.368 75.146C559.608 74.726 559.926 74.372 560.322 74.084C560.718 73.796 561.156 73.58 561.636 73.436C562.116 73.292 562.596 73.22 563.076 73.22C563.556 73.22 564.036 73.292 564.516 73.436C564.996 73.58 565.434 73.796 565.83 74.084C566.238 74.36 566.562 74.708 566.802 75.128C567.042 75.536 567.162 76.01 567.162 76.55C567.162 76.946 567.072 77.318 566.892 77.666C566.712 78.002 566.466 78.296 566.154 78.548C565.854 78.8 565.524 79.004 565.164 79.16C565.596 79.328 565.992 79.568 566.352 79.88C566.724 80.18 567.018 80.54 567.234 80.96C567.462 81.38 567.576 81.854 567.576 82.382ZM565.974 82.274C565.974 81.89 565.89 81.548 565.722 81.248C565.554 80.936 565.326 80.678 565.038 80.474C564.75 80.258 564.432 80.096 564.084 79.988C563.748 79.88 563.406 79.826 563.058 79.826C562.578 79.826 562.116 79.928 561.672 80.132C561.24 80.336 560.886 80.624 560.61 80.996C560.334 81.356 560.196 81.788 560.196 82.292C560.196 82.664 560.28 83 560.448 83.3C560.616 83.6 560.838 83.858 561.114 84.074C561.402 84.29 561.714 84.452 562.05 84.56C562.398 84.668 562.746 84.722 563.094 84.722C563.574 84.722 564.03 84.62 564.462 84.416C564.906 84.212 565.266 83.924 565.542 83.552C565.83 83.18 565.974 82.754 565.974 82.274ZM560.61 76.622C560.61 77.042 560.736 77.402 560.988 77.702C561.24 78.002 561.558 78.23 561.942 78.386C562.326 78.53 562.704 78.602 563.076 78.602C563.46 78.602 563.838 78.524 564.21 78.368C564.594 78.212 564.912 77.984 565.164 77.684C565.416 77.384 565.542 77.018 565.542 76.586C565.542 76.178 565.422 75.83 565.182 75.542C564.954 75.254 564.648 75.032 564.264 74.876C563.892 74.72 563.49 74.642 563.058 74.642C562.638 74.642 562.236 74.726 561.852 74.894C561.48 75.05 561.18 75.278 560.952 75.578C560.724 75.866 560.61 76.214 560.61 76.622ZM569.244 77.54C569.244 76.712 569.442 75.968 569.838 75.308C570.246 74.636 570.798 74.108 571.494 73.724C572.19 73.328 572.964 73.13 573.816 73.13C574.74 73.13 575.544 73.352 576.228 73.796C576.924 74.228 577.464 74.852 577.848 75.668C578.244 76.484 578.442 77.468 578.442 78.62C578.442 80.3 578.244 81.704 577.848 82.832C577.452 83.948 576.894 84.788 576.174 85.352C575.454 85.904 574.614 86.18 573.654 86.18C572.826 86.18 572.07 85.982 571.386 85.586C570.714 85.178 570.186 84.614 569.802 83.894L570.774 82.94C571.038 83.492 571.428 83.936 571.944 84.272C572.472 84.608 573.048 84.776 573.672 84.776C574.332 84.776 574.902 84.584 575.382 84.2C575.874 83.804 576.258 83.234 576.534 82.49C576.81 81.746 576.948 80.846 576.948 79.79C576.78 80.198 576.528 80.558 576.192 80.87C575.868 81.182 575.49 81.422 575.058 81.59C574.626 81.758 574.158 81.842 573.654 81.842C572.838 81.842 572.094 81.65 571.422 81.266C570.75 80.882 570.216 80.366 569.82 79.718C569.436 79.058 569.244 78.332 569.244 77.54ZM573.798 74.48C573.246 74.48 572.742 74.618 572.286 74.894C571.83 75.17 571.464 75.542 571.188 76.01C570.912 76.466 570.774 76.97 570.774 77.522C570.774 78.074 570.912 78.578 571.188 79.034C571.464 79.49 571.83 79.856 572.286 80.132C572.754 80.408 573.264 80.546 573.816 80.546C574.368 80.546 574.872 80.408 575.328 80.132C575.796 79.856 576.168 79.49 576.444 79.034C576.72 78.578 576.858 78.08 576.858 77.54C576.858 76.988 576.714 76.484 576.426 76.028C576.15 75.56 575.778 75.188 575.31 74.912C574.854 74.624 574.35 74.48 573.798 74.48ZM580.7 87.458L581.06 85.856H580.52V83.984H582.014V85.856L581.474 87.458H580.7ZM593.047 82.382C593.047 83.138 592.837 83.798 592.417 84.362C592.009 84.926 591.457 85.364 590.761 85.676C590.077 85.988 589.327 86.144 588.511 86.144C587.659 86.144 586.897 85.976 586.225 85.64C585.553 85.292 585.019 84.83 584.623 84.254C584.239 83.678 584.047 83.03 584.047 82.31C584.047 81.782 584.167 81.308 584.407 80.888C584.647 80.468 584.947 80.114 585.307 79.826C585.679 79.526 586.057 79.304 586.441 79.16C586.093 79.004 585.769 78.8 585.469 78.548C585.169 78.296 584.929 78.002 584.749 77.666C584.569 77.33 584.479 76.964 584.479 76.568C584.479 76.028 584.599 75.554 584.839 75.146C585.079 74.726 585.397 74.372 585.793 74.084C586.189 73.796 586.627 73.58 587.107 73.436C587.587 73.292 588.067 73.22 588.547 73.22C589.027 73.22 589.507 73.292 589.987 73.436C590.467 73.58 590.905 73.796 591.301 74.084C591.709 74.36 592.033 74.708 592.273 75.128C592.513 75.536 592.633 76.01 592.633 76.55C592.633 76.946 592.543 77.318 592.363 77.666C592.183 78.002 591.937 78.296 591.625 78.548C591.325 78.8 590.995 79.004 590.635 79.16C591.067 79.328 591.463 79.568 591.823 79.88C592.195 80.18 592.489 80.54 592.705 80.96C592.933 81.38 593.047 81.854 593.047 82.382ZM591.445 82.274C591.445 81.89 591.361 81.548 591.193 81.248C591.025 80.936 590.797 80.678 590.509 80.474C590.221 80.258 589.903 80.096 589.555 79.988C589.219 79.88 588.877 79.826 588.529 79.826C588.049 79.826 587.587 79.928 587.143 80.132C586.711 80.336 586.357 80.624 586.081 80.996C585.805 81.356 585.667 81.788 585.667 82.292C585.667 82.664 585.751 83 585.919 83.3C586.087 83.6 586.309 83.858 586.585 84.074C586.873 84.29 587.185 84.452 587.521 84.56C587.869 84.668 588.217 84.722 588.565 84.722C589.045 84.722 589.501 84.62 589.933 84.416C590.377 84.212 590.737 83.924 591.013 83.552C591.301 83.18 591.445 82.754 591.445 82.274ZM586.081 76.622C586.081 77.042 586.207 77.402 586.459 77.702C586.711 78.002 587.029 78.23 587.413 78.386C587.797 78.53 588.175 78.602 588.547 78.602C588.931 78.602 589.309 78.524 589.681 78.368C590.065 78.212 590.383 77.984 590.635 77.684C590.887 77.384 591.013 77.018 591.013 76.586C591.013 76.178 590.893 75.83 590.653 75.542C590.425 75.254 590.119 75.032 589.735 74.876C589.363 74.72 588.961 74.642 588.529 74.642C588.109 74.642 587.707 74.726 587.323 74.894C586.951 75.05 586.651 75.278 586.423 75.578C586.195 75.866 586.081 76.214 586.081 76.622Z" fill="#2F2F2F"/>
</svg>
