<svg width="685" height="337" viewBox="0 0 685 337" fill="none" xmlns="http://www.w3.org/2000/svg">
<path d="M31.8047 7.57812L31.8047 315.352" stroke="#F5F6F7"/>
<path d="M140 6L140 315" stroke="#F5F6F7"/>
<path d="M248 6L248 315" stroke="#F5F6F7"/>
<path d="M464 6L464 316" stroke="#F5F6F7"/>
<path d="M356 6L356 315" stroke="#F5F6F7"/>
<path d="M572 6L572 316" stroke="#F5F6F7"/>
<path d="M680 6L680 316" stroke="#F5F6F7"/>
<path d="M33 238H680" stroke="#F5F6F7"/>
<path d="M32 161L680 161" stroke="#F5F6F7"/>
<path d="M32 84L680 83.9999" stroke="#F5F6F7"/>
<path d="M32 6H680" stroke="#F5F6F7"/>
<path d="M32 314L680 314" stroke="#F5F6F7"/>
<path d="M32 6L32 315" stroke="#F5F6F7"/>
<path d="M33.74 335.232H38.36V336H32.468V335.388L35.96 331.968C36.908 331.032 37.088 330.468 37.088 329.892C37.088 328.92 36.404 328.32 35.12 328.32C34.136 328.32 33.38 328.62 32.828 329.256L32.216 328.728C32.864 327.96 33.908 327.528 35.192 327.528C36.896 327.528 37.976 328.392 37.976 329.796C37.976 330.6 37.724 331.32 36.596 332.424L33.74 335.232ZM42.7454 336.072C40.8014 336.072 39.3974 334.476 39.3974 331.8C39.3974 329.124 40.8014 327.528 42.7454 327.528C44.6894 327.528 46.1054 329.124 46.1054 331.8C46.1054 334.476 44.6894 336.072 42.7454 336.072ZM42.7454 335.28C44.2094 335.28 45.2174 334.044 45.2174 331.8C45.2174 329.556 44.2094 328.32 42.7454 328.32C41.2814 328.32 40.2734 329.556 40.2734 331.8C40.2734 334.044 41.2814 335.28 42.7454 335.28ZM46.8033 327.6H49.6473V336H48.7833V328.368H46.8033V327.6ZM53.8633 331.044C56.3953 331.044 57.3553 332.04 57.3553 333.528C57.3553 334.956 56.3593 336.072 54.3073 336.072C53.0953 336.072 51.9433 335.652 51.2953 334.992L51.7153 334.308C52.2553 334.872 53.2153 335.28 54.2953 335.28C55.7233 335.28 56.4793 334.584 56.4793 333.564C56.4793 332.484 55.8073 331.812 53.6713 331.812H51.8833L52.3153 327.6H56.9113V328.368H53.0713L52.7833 331.044H53.8633Z" fill="#858C95"/>
<path d="M449.74 335.232H454.36V336H448.468V335.388L451.96 331.968C452.908 331.032 453.088 330.468 453.088 329.892C453.088 328.92 452.404 328.32 451.12 328.32C450.136 328.32 449.38 328.62 448.828 329.256L448.216 328.728C448.864 327.96 449.908 327.528 451.192 327.528C452.896 327.528 453.976 328.392 453.976 329.796C453.976 330.6 453.724 331.32 452.596 332.424L449.74 335.232ZM458.745 336.072C456.801 336.072 455.397 334.476 455.397 331.8C455.397 329.124 456.801 327.528 458.745 327.528C460.689 327.528 462.105 329.124 462.105 331.8C462.105 334.476 460.689 336.072 458.745 336.072ZM458.745 335.28C460.209 335.28 461.217 334.044 461.217 331.8C461.217 329.556 460.209 328.32 458.745 328.32C457.281 328.32 456.273 329.556 456.273 331.8C456.273 334.044 457.281 335.28 458.745 335.28ZM464.435 335.232H469.055V336H463.163V335.388L466.655 331.968C467.603 331.032 467.783 330.468 467.783 329.892C467.783 328.92 467.099 328.32 465.815 328.32C464.831 328.32 464.075 328.62 463.523 329.256L462.911 328.728C463.559 327.96 464.603 327.528 465.887 327.528C467.591 327.528 468.671 328.392 468.671 329.796C468.671 330.6 468.419 331.32 467.291 332.424L464.435 335.232ZM472.348 331.044C474.88 331.044 475.84 332.04 475.84 333.528C475.84 334.956 474.844 336.072 472.792 336.072C471.58 336.072 470.428 335.652 469.78 334.992L470.2 334.308C470.74 334.872 471.7 335.28 472.78 335.28C474.208 335.28 474.964 334.584 474.964 333.564C474.964 332.484 474.292 331.812 472.156 331.812H470.368L470.8 327.6H475.396V328.368H471.556L471.268 331.044H472.348Z" fill="#858C95"/>
<path d="M238.74 335.232H243.36V336H237.468V335.388L240.96 331.968C241.908 331.032 242.088 330.468 242.088 329.892C242.088 328.92 241.404 328.32 240.12 328.32C239.136 328.32 238.38 328.62 237.828 329.256L237.216 328.728C237.864 327.96 238.908 327.528 240.192 327.528C241.896 327.528 242.976 328.392 242.976 329.796C242.976 330.6 242.724 331.32 241.596 332.424L238.74 335.232ZM247.745 336.072C245.801 336.072 244.397 334.476 244.397 331.8C244.397 329.124 245.801 327.528 247.745 327.528C249.689 327.528 251.105 329.124 251.105 331.8C251.105 334.476 249.689 336.072 247.745 336.072ZM247.745 335.28C249.209 335.28 250.217 334.044 250.217 331.8C250.217 329.556 249.209 328.32 247.745 328.32C246.281 328.32 245.273 329.556 245.273 331.8C245.273 334.044 246.281 335.28 247.745 335.28ZM251.803 327.6H254.647V336H253.783V328.368H251.803V327.6ZM261.467 331.596C262.523 331.944 263.111 332.664 263.111 333.66C263.111 335.148 261.851 336.072 259.847 336.072C257.831 336.072 256.607 335.148 256.607 333.66C256.607 332.652 257.183 331.944 258.227 331.596C257.375 331.26 256.907 330.624 256.907 329.748C256.907 328.38 258.071 327.528 259.847 327.528C261.623 327.528 262.811 328.38 262.811 329.748C262.811 330.624 262.331 331.26 261.467 331.596ZM257.771 329.772C257.771 330.696 258.539 331.284 259.847 331.284C261.155 331.284 261.935 330.696 261.935 329.784C261.935 328.836 261.107 328.26 259.847 328.26C258.575 328.26 257.771 328.836 257.771 329.772ZM259.847 335.34C261.335 335.34 262.223 334.692 262.223 333.648C262.223 332.616 261.335 331.968 259.847 331.968C258.359 331.968 257.483 332.616 257.483 333.648C257.483 334.692 258.359 335.34 259.847 335.34Z" fill="#858C95"/>
<path d="M653.74 335.232H658.36V336H652.468V335.388L655.96 331.968C656.908 331.032 657.088 330.468 657.088 329.892C657.088 328.92 656.404 328.32 655.12 328.32C654.136 328.32 653.38 328.62 652.828 329.256L652.216 328.728C652.864 327.96 653.908 327.528 655.192 327.528C656.896 327.528 657.976 328.392 657.976 329.796C657.976 330.6 657.724 331.32 656.596 332.424L653.74 335.232ZM662.745 336.072C660.801 336.072 659.397 334.476 659.397 331.8C659.397 329.124 660.801 327.528 662.745 327.528C664.689 327.528 666.105 329.124 666.105 331.8C666.105 334.476 664.689 336.072 662.745 336.072ZM662.745 335.28C664.209 335.28 665.217 334.044 665.217 331.8C665.217 329.556 664.209 328.32 662.745 328.32C661.281 328.32 660.273 329.556 660.273 331.8C660.273 334.044 661.281 335.28 662.745 335.28ZM670.082 331.2C671.882 331.296 672.782 332.244 672.782 333.588C672.782 334.992 671.762 336.072 669.734 336.072C668.522 336.072 667.358 335.652 666.71 334.992L667.13 334.308C667.67 334.872 668.642 335.28 669.734 335.28C671.126 335.28 671.894 334.632 671.894 333.588C671.894 332.58 671.186 331.92 669.626 331.92H669.026V331.284L671.354 328.368H667.058V327.6H672.458V328.212L670.082 331.2ZM677.347 336.072C675.403 336.072 673.999 334.476 673.999 331.8C673.999 329.124 675.403 327.528 677.347 327.528C679.291 327.528 680.707 329.124 680.707 331.8C680.707 334.476 679.291 336.072 677.347 336.072ZM677.347 335.28C678.811 335.28 679.819 334.044 679.819 331.8C679.819 329.556 678.811 328.32 677.347 328.32C675.883 328.32 674.875 329.556 674.875 331.8C674.875 334.044 675.883 335.28 677.347 335.28Z" fill="#858C95"/>
<path d="M12.972 317.072C11.028 317.072 9.624 315.476 9.624 312.8C9.624 310.124 11.028 308.528 12.972 308.528C14.916 308.528 16.332 310.124 16.332 312.8C16.332 315.476 14.916 317.072 12.972 317.072ZM12.972 316.28C14.436 316.28 15.444 315.044 15.444 312.8C15.444 310.556 14.436 309.32 12.972 309.32C11.508 309.32 10.5 310.556 10.5 312.8C10.5 315.044 11.508 316.28 12.972 316.28Z" fill="#858C95"/>
<path d="M3.108 233.6H5.952V242H5.088V234.368H3.108V233.6ZM11.3079 242.072C9.36394 242.072 7.95994 240.476 7.95994 237.8C7.95994 235.124 9.36394 233.528 11.3079 233.528C13.2519 233.528 14.6679 235.124 14.6679 237.8C14.6679 240.476 13.2519 242.072 11.3079 242.072ZM11.3079 241.28C12.7719 241.28 13.7799 240.044 13.7799 237.8C13.7799 235.556 12.7719 234.32 11.3079 234.32C9.84394 234.32 8.83594 235.556 8.83594 237.8C8.83594 240.044 9.84394 241.28 11.3079 241.28ZM19.2533 242.072C17.3093 242.072 15.9053 240.476 15.9053 237.8C15.9053 235.124 17.3093 233.528 19.2533 233.528C21.1973 233.528 22.6133 235.124 22.6133 237.8C22.6133 240.476 21.1973 242.072 19.2533 242.072ZM19.2533 241.28C20.7173 241.28 21.7253 240.044 21.7253 237.8C21.7253 235.556 20.7173 234.32 19.2533 234.32C17.7893 234.32 16.7812 235.556 16.7812 237.8C16.7812 240.044 17.7893 241.28 19.2533 241.28Z" fill="#858C95"/>
<path d="M3.48 83.2C5.28 83.296 6.18 84.244 6.18 85.588C6.18 86.992 5.16 88.072 3.132 88.072C1.92 88.072 0.756 87.652 0.108 86.992L0.528 86.308C1.068 86.872 2.04 87.28 3.132 87.28C4.524 87.28 5.292 86.632 5.292 85.588C5.292 84.58 4.584 83.92 3.024 83.92H2.424V83.284L4.752 80.368H0.456V79.6H5.856V80.212L3.48 83.2ZM10.7454 88.072C8.80144 88.072 7.39744 86.476 7.39744 83.8C7.39744 81.124 8.80144 79.528 10.7454 79.528C12.6894 79.528 14.1054 81.124 14.1054 83.8C14.1054 86.476 12.6894 88.072 10.7454 88.072ZM10.7454 87.28C12.2094 87.28 13.2174 86.044 13.2174 83.8C13.2174 81.556 12.2094 80.32 10.7454 80.32C9.28144 80.32 8.27344 81.556 8.27344 83.8C8.27344 86.044 9.28144 87.28 10.7454 87.28ZM18.6908 88.072C16.7468 88.072 15.3428 86.476 15.3428 83.8C15.3428 81.124 16.7468 79.528 18.6908 79.528C20.6348 79.528 22.0508 81.124 22.0508 83.8C22.0508 86.476 20.6348 88.072 18.6908 88.072ZM18.6908 87.28C20.1548 87.28 21.1628 86.044 21.1628 83.8C21.1628 81.556 20.1548 80.32 18.6908 80.32C17.2268 80.32 16.2188 81.556 16.2188 83.8C16.2188 86.044 17.2268 87.28 18.6908 87.28Z" fill="#858C95"/>
<path d="M5.74 164.232H10.36V165H4.468V164.388L7.96 160.968C8.908 160.032 9.088 159.468 9.088 158.892C9.088 157.92 8.404 157.32 7.12 157.32C6.136 157.32 5.38 157.62 4.828 158.256L4.216 157.728C4.864 156.96 5.908 156.528 7.192 156.528C8.896 156.528 9.976 157.392 9.976 158.796C9.976 159.6 9.724 160.32 8.596 161.424L5.74 164.232ZM14.7454 165.072C12.8014 165.072 11.3974 163.476 11.3974 160.8C11.3974 158.124 12.8014 156.528 14.7454 156.528C16.6894 156.528 18.1054 158.124 18.1054 160.8C18.1054 163.476 16.6894 165.072 14.7454 165.072ZM14.7454 164.28C16.2094 164.28 17.2174 163.044 17.2174 160.8C17.2174 158.556 16.2094 157.32 14.7454 157.32C13.2814 157.32 12.2734 158.556 12.2734 160.8C12.2734 163.044 13.2814 164.28 14.7454 164.28ZM22.6908 165.072C20.7468 165.072 19.3428 163.476 19.3428 160.8C19.3428 158.124 20.7468 156.528 22.6908 156.528C24.6348 156.528 26.0508 158.124 26.0508 160.8C26.0508 163.476 24.6348 165.072 22.6908 165.072ZM22.6908 164.28C24.1548 164.28 25.1628 163.044 25.1628 160.8C25.1628 158.556 24.1548 157.32 22.6908 157.32C21.2268 157.32 20.2188 158.556 20.2188 160.8C20.2188 163.044 21.2268 164.28 22.6908 164.28Z" fill="#858C95"/>
<path d="M10.764 8.90779V9.67579H9.084V11.8838H8.22V9.67579H3.48V9.05179L7.932 3.48379H8.892L4.596 8.90779H8.244V6.96379H9.084V8.90779H10.764ZM14.9056 11.9558C12.9616 11.9558 11.5576 10.3598 11.5576 7.68379C11.5576 5.00779 12.9616 3.41179 14.9056 3.41179C16.8496 3.41179 18.2656 5.00779 18.2656 7.68379C18.2656 10.3598 16.8496 11.9558 14.9056 11.9558ZM14.9056 11.1638C16.3696 11.1638 17.3776 9.92779 17.3776 7.68379C17.3776 5.43979 16.3696 4.20379 14.9056 4.20379C13.4416 4.20379 12.4336 5.43979 12.4336 7.68379C12.4336 9.92779 13.4416 11.1638 14.9056 11.1638ZM22.8509 11.9558C20.9069 11.9558 19.5029 10.3598 19.5029 7.68379C19.5029 5.00779 20.9069 3.41179 22.8509 3.41179C24.7949 3.41179 26.2109 5.00779 26.2109 7.68379C26.2109 10.3598 24.7949 11.9558 22.8509 11.9558ZM22.8509 11.1638C24.3149 11.1638 25.3229 9.92779 25.3229 7.68379C25.3229 5.43979 24.3149 4.20379 22.8509 4.20379C21.3869 4.20379 20.3789 5.43979 20.3789 7.68379C20.3789 9.92779 21.3869 11.1638 22.8509 11.1638Z" fill="#858C95"/>
<path d="M680.5 95.5001C680.5 95.5001 551 138.371 466 161C381 183.629 266 198.162 247.5 200.5C229 202.838 31.5 217.5 31.5 217.5" stroke="#2D6FD0" stroke-width="2"/>
<path d="M32 222C30.6741 222 29.4026 221.473 28.4649 220.536C27.5273 219.599 27.0003 218.327 27 217.001C26.9997 215.675 27.526 214.404 28.4631 213.466C29.4003 212.528 30.6716 212.001 31.9975 212C33.3234 211.999 34.5952 212.525 35.5333 213.462C36.4714 214.399 36.999 215.67 37 216.996C37.001 218.322 36.4753 219.594 35.5386 220.532C34.6019 221.471 33.3309 221.999 32.005 222H32Z" fill="#2D6FD0"/>
<path d="M464 167C462.674 167 461.403 166.473 460.465 165.536C459.527 164.599 459 163.327 459 162.001C459 160.675 459.526 159.404 460.463 158.466C461.4 157.528 462.672 157.001 463.998 157C465.323 156.999 466.595 157.525 467.533 158.462C468.471 159.399 468.999 160.67 469 161.996C469.001 163.322 468.475 164.594 467.539 165.532C466.602 166.471 465.331 166.999 464.005 167H464Z" fill="#2D6FD0"/>
<path d="M248 205C246.674 205 245.403 204.473 244.465 203.536C243.527 202.599 243 201.327 243 200.001C243 198.675 243.526 197.404 244.463 196.466C245.4 195.528 246.672 195.001 247.998 195C249.323 194.999 250.595 195.525 251.533 196.462C252.471 197.399 252.999 198.67 253 199.996C253.001 201.322 252.475 202.594 251.539 203.532C250.602 204.471 249.331 204.999 248.005 205H248Z" fill="#2D6FD0"/>
<path d="M680 101C678.674 101 677.403 100.473 676.465 99.536C675.527 98.5986 675 97.3271 675 96.0012C675 94.6754 675.526 93.4037 676.463 92.4658C677.4 91.5279 678.672 91.0007 679.997 91C681.323 90.9993 682.595 91.5253 683.533 92.4623C684.471 93.3992 684.999 94.6704 685 95.9963C685.001 97.3221 684.475 98.5941 683.539 99.5324C682.602 100.471 681.331 100.999 680.005 101L680 101Z" fill="#2D6FD0"/>
<path d="M53.5538 198.4V200H46.4938V198.4H49.2138V187.5C49.1072 187.66 48.9338 187.84 48.6938 188.04C48.4538 188.227 48.1738 188.413 47.8538 188.6C47.5472 188.773 47.2338 188.92 46.9138 189.04C46.5938 189.16 46.3005 189.22 46.0338 189.22V187.58C46.3938 187.58 46.7538 187.487 47.1138 187.3C47.4872 187.113 47.8272 186.893 48.1338 186.64C48.4538 186.387 48.7072 186.16 48.8938 185.96C49.0938 185.76 49.2005 185.653 49.2138 185.64H51.0138V198.4H53.5538ZM59.622 200.18C58.8086 200.18 58.0686 200.053 57.402 199.8C56.7486 199.533 56.202 199.167 55.762 198.7C55.3353 198.22 55.0553 197.667 54.922 197.04L55.922 195.98C55.962 196.367 56.1353 196.76 56.442 197.16C56.7486 197.56 57.1686 197.893 57.702 198.16C58.2486 198.413 58.882 198.54 59.602 198.54C60.2153 198.54 60.7686 198.44 61.262 198.24C61.7553 198.027 62.1486 197.733 62.442 197.36C62.7353 196.987 62.882 196.553 62.882 196.06C62.882 195.513 62.702 195.047 62.342 194.66C61.982 194.273 61.4686 193.98 60.802 193.78C60.1486 193.58 59.3686 193.48 58.462 193.48H57.782V191.98H58.462C59.6886 191.98 60.6686 191.787 61.402 191.4C62.1353 191 62.502 190.407 62.502 189.62C62.502 189.113 62.362 188.68 62.082 188.32C61.8153 187.947 61.4553 187.667 61.002 187.48C60.562 187.28 60.0886 187.18 59.582 187.18C58.7286 187.18 58.002 187.373 57.402 187.76C56.8153 188.133 56.402 188.573 56.162 189.08L54.982 187.86C55.2486 187.393 55.622 186.993 56.102 186.66C56.582 186.327 57.122 186.073 57.722 185.9C58.322 185.713 58.9353 185.62 59.562 185.62C60.482 185.62 61.302 185.793 62.022 186.14C62.7553 186.487 63.3286 186.953 63.742 187.54C64.1553 188.127 64.362 188.793 64.362 189.54C64.362 190.073 64.2553 190.553 64.042 190.98C63.8286 191.393 63.5153 191.74 63.102 192.02C62.6886 192.3 62.1886 192.513 61.602 192.66C62.2286 192.767 62.7753 192.993 63.242 193.34C63.7086 193.687 64.0686 194.113 64.322 194.62C64.5753 195.127 64.702 195.68 64.702 196.28C64.702 197.107 64.462 197.813 63.982 198.4C63.502 198.973 62.8753 199.413 62.102 199.72C61.342 200.027 60.5153 200.18 59.622 200.18ZM76.6812 195.98C76.6812 196.82 76.4478 197.553 75.9812 198.18C75.5278 198.807 74.9145 199.293 74.1412 199.64C73.3812 199.987 72.5478 200.16 71.6412 200.16C70.6945 200.16 69.8478 199.973 69.1012 199.6C68.3545 199.213 67.7612 198.7 67.3212 198.06C66.8945 197.42 66.6812 196.7 66.6812 195.9C66.6812 195.313 66.8145 194.787 67.0812 194.32C67.3478 193.853 67.6812 193.46 68.0812 193.14C68.4945 192.807 68.9145 192.56 69.3412 192.4C68.9545 192.227 68.5945 192 68.2612 191.72C67.9278 191.44 67.6612 191.113 67.4612 190.74C67.2612 190.367 67.1612 189.96 67.1612 189.52C67.1612 188.92 67.2945 188.393 67.5612 187.94C67.8278 187.473 68.1812 187.08 68.6212 186.76C69.0612 186.44 69.5478 186.2 70.0812 186.04C70.6145 185.88 71.1478 185.8 71.6812 185.8C72.2145 185.8 72.7478 185.88 73.2812 186.04C73.8145 186.2 74.3012 186.44 74.7412 186.76C75.1945 187.067 75.5545 187.453 75.8212 187.92C76.0878 188.373 76.2212 188.9 76.2212 189.5C76.2212 189.94 76.1212 190.353 75.9212 190.74C75.7212 191.113 75.4478 191.44 75.1012 191.72C74.7678 192 74.4012 192.227 74.0012 192.4C74.4812 192.587 74.9212 192.853 75.3212 193.2C75.7345 193.533 76.0612 193.933 76.3012 194.4C76.5545 194.867 76.6812 195.393 76.6812 195.98ZM74.9012 195.86C74.9012 195.433 74.8078 195.053 74.6212 194.72C74.4345 194.373 74.1812 194.087 73.8612 193.86C73.5412 193.62 73.1878 193.44 72.8012 193.32C72.4278 193.2 72.0478 193.14 71.6612 193.14C71.1278 193.14 70.6145 193.253 70.1212 193.48C69.6412 193.707 69.2478 194.027 68.9412 194.44C68.6345 194.84 68.4812 195.32 68.4812 195.88C68.4812 196.293 68.5745 196.667 68.7612 197C68.9478 197.333 69.1945 197.62 69.5012 197.86C69.8212 198.1 70.1678 198.28 70.5412 198.4C70.9278 198.52 71.3145 198.58 71.7012 198.58C72.2345 198.58 72.7412 198.467 73.2212 198.24C73.7145 198.013 74.1145 197.693 74.4212 197.28C74.7412 196.867 74.9012 196.393 74.9012 195.86ZM68.9412 189.58C68.9412 190.047 69.0812 190.447 69.3612 190.78C69.6412 191.113 69.9945 191.367 70.4212 191.54C70.8478 191.7 71.2678 191.78 71.6812 191.78C72.1078 191.78 72.5278 191.693 72.9412 191.52C73.3678 191.347 73.7212 191.093 74.0012 190.76C74.2812 190.427 74.4212 190.02 74.4212 189.54C74.4212 189.087 74.2878 188.7 74.0212 188.38C73.7678 188.06 73.4278 187.813 73.0012 187.64C72.5878 187.467 72.1412 187.38 71.6612 187.38C71.1945 187.38 70.7478 187.473 70.3212 187.66C69.9078 187.833 69.5745 188.087 69.3212 188.42C69.0678 188.74 68.9412 189.127 68.9412 189.58ZM79.1343 201.62L79.5343 199.84H78.9343V197.76H80.5943V199.84L79.9943 201.62H79.1343ZM92.853 195.98C92.853 196.82 92.6197 197.553 92.153 198.18C91.6997 198.807 91.0864 199.293 90.313 199.64C89.553 199.987 88.7197 200.16 87.813 200.16C86.8664 200.16 86.0197 199.973 85.273 199.6C84.5264 199.213 83.933 198.7 83.493 198.06C83.0664 197.42 82.853 196.7 82.853 195.9C82.853 195.313 82.9864 194.787 83.253 194.32C83.5197 193.853 83.853 193.46 84.253 193.14C84.6664 192.807 85.0864 192.56 85.513 192.4C85.1264 192.227 84.7664 192 84.433 191.72C84.0997 191.44 83.833 191.113 83.633 190.74C83.433 190.367 83.333 189.96 83.333 189.52C83.333 188.92 83.4664 188.393 83.733 187.94C83.9997 187.473 84.353 187.08 84.793 186.76C85.233 186.44 85.7197 186.2 86.253 186.04C86.7864 185.88 87.3197 185.8 87.853 185.8C88.3864 185.8 88.9197 185.88 89.453 186.04C89.9864 186.2 90.473 186.44 90.913 186.76C91.3664 187.067 91.7264 187.453 91.993 187.92C92.2597 188.373 92.393 188.9 92.393 189.5C92.393 189.94 92.293 190.353 92.093 190.74C91.893 191.113 91.6197 191.44 91.273 191.72C90.9397 192 90.573 192.227 90.173 192.4C90.653 192.587 91.093 192.853 91.493 193.2C91.9064 193.533 92.233 193.933 92.473 194.4C92.7264 194.867 92.853 195.393 92.853 195.98ZM91.073 195.86C91.073 195.433 90.9797 195.053 90.793 194.72C90.6064 194.373 90.353 194.087 90.033 193.86C89.713 193.62 89.3597 193.44 88.973 193.32C88.5997 193.2 88.2197 193.14 87.833 193.14C87.2997 193.14 86.7864 193.253 86.293 193.48C85.813 193.707 85.4197 194.027 85.113 194.44C84.8064 194.84 84.653 195.32 84.653 195.88C84.653 196.293 84.7464 196.667 84.933 197C85.1197 197.333 85.3664 197.62 85.673 197.86C85.993 198.1 86.3397 198.28 86.713 198.4C87.0997 198.52 87.4864 198.58 87.873 198.58C88.4064 198.58 88.913 198.467 89.393 198.24C89.8864 198.013 90.2864 197.693 90.593 197.28C90.913 196.867 91.073 196.393 91.073 195.86ZM85.113 189.58C85.113 190.047 85.253 190.447 85.533 190.78C85.813 191.113 86.1664 191.367 86.593 191.54C87.0197 191.7 87.4397 191.78 87.853 191.78C88.2797 191.78 88.6997 191.693 89.113 191.52C89.5397 191.347 89.893 191.093 90.173 190.76C90.453 190.427 90.593 190.02 90.593 189.54C90.593 189.087 90.4597 188.7 90.193 188.38C89.9397 188.06 89.5997 187.813 89.173 187.64C88.7597 187.467 88.313 187.38 87.833 187.38C87.3664 187.38 86.9197 187.473 86.493 187.66C86.0797 187.833 85.7464 188.087 85.493 188.42C85.2397 188.74 85.113 189.127 85.113 189.58Z" fill="#2F2F2F"/>
<path d="M617.395 83C617.395 82.2 617.461 81.4933 617.595 80.88C617.741 80.2533 617.948 79.6933 618.215 79.2C618.495 78.7067 618.828 78.2733 619.215 77.9C619.601 77.5267 620.041 77.1933 620.535 76.9C621.055 76.5933 621.588 76.3133 622.135 76.06C622.681 75.8067 623.188 75.54 623.655 75.26C624.121 74.98 624.495 74.6467 624.775 74.26C625.068 73.86 625.215 73.3667 625.215 72.78C625.215 72.3133 625.115 71.8933 624.915 71.52C624.715 71.1333 624.415 70.8267 624.015 70.6C623.615 70.3733 623.101 70.26 622.475 70.26C621.848 70.26 621.281 70.3667 620.775 70.58C620.281 70.7933 619.855 71.0467 619.495 71.34C619.135 71.6333 618.848 71.9133 618.635 72.18L617.495 71.04C617.601 70.9067 617.788 70.7067 618.055 70.44C618.335 70.1733 618.688 69.9 619.115 69.62C619.555 69.34 620.068 69.1067 620.655 68.92C621.241 68.72 621.908 68.62 622.655 68.62C623.655 68.62 624.488 68.8067 625.155 69.18C625.821 69.5533 626.321 70.0533 626.655 70.68C627.001 71.3067 627.175 72 627.175 72.76C627.175 73.44 627.048 74.0267 626.795 74.52C626.541 75 626.215 75.4067 625.815 75.74C625.415 76.0733 624.975 76.3667 624.495 76.62C624.028 76.8733 623.575 77.1133 623.135 77.34C622.295 77.74 621.628 78.1067 621.135 78.44C620.641 78.7733 620.261 79.1 619.995 79.42C619.741 79.7267 619.568 80.04 619.475 80.36C619.395 80.68 619.348 81.0267 619.335 81.4H627.195V83H617.395ZM639.251 78.98C639.251 79.82 639.018 80.5533 638.551 81.18C638.098 81.8067 637.485 82.2933 636.711 82.64C635.951 82.9867 635.118 83.16 634.211 83.16C633.265 83.16 632.418 82.9733 631.671 82.6C630.925 82.2133 630.331 81.7 629.891 81.06C629.465 80.42 629.251 79.7 629.251 78.9C629.251 78.3133 629.385 77.7867 629.651 77.32C629.918 76.8533 630.251 76.46 630.651 76.14C631.065 75.8067 631.485 75.56 631.911 75.4C631.525 75.2267 631.165 75 630.831 74.72C630.498 74.44 630.231 74.1133 630.031 73.74C629.831 73.3667 629.731 72.96 629.731 72.52C629.731 71.92 629.865 71.3933 630.131 70.94C630.398 70.4733 630.751 70.08 631.191 69.76C631.631 69.44 632.118 69.2 632.651 69.04C633.185 68.88 633.718 68.8 634.251 68.8C634.785 68.8 635.318 68.88 635.851 69.04C636.385 69.2 636.871 69.44 637.311 69.76C637.765 70.0667 638.125 70.4533 638.391 70.92C638.658 71.3733 638.791 71.9 638.791 72.5C638.791 72.94 638.691 73.3533 638.491 73.74C638.291 74.1133 638.018 74.44 637.671 74.72C637.338 75 636.971 75.2267 636.571 75.4C637.051 75.5867 637.491 75.8533 637.891 76.2C638.305 76.5333 638.631 76.9333 638.871 77.4C639.125 77.8667 639.251 78.3933 639.251 78.98ZM637.471 78.86C637.471 78.4333 637.378 78.0533 637.191 77.72C637.005 77.3733 636.751 77.0867 636.431 76.86C636.111 76.62 635.758 76.44 635.371 76.32C634.998 76.2 634.618 76.14 634.231 76.14C633.698 76.14 633.185 76.2533 632.691 76.48C632.211 76.7067 631.818 77.0267 631.511 77.44C631.205 77.84 631.051 78.32 631.051 78.88C631.051 79.2933 631.145 79.6667 631.331 80C631.518 80.3333 631.765 80.62 632.071 80.86C632.391 81.1 632.738 81.28 633.111 81.4C633.498 81.52 633.885 81.58 634.271 81.58C634.805 81.58 635.311 81.4667 635.791 81.24C636.285 81.0133 636.685 80.6933 636.991 80.28C637.311 79.8667 637.471 79.3933 637.471 78.86ZM631.511 72.58C631.511 73.0467 631.651 73.4467 631.931 73.78C632.211 74.1133 632.565 74.3667 632.991 74.54C633.418 74.7 633.838 74.78 634.251 74.78C634.678 74.78 635.098 74.6933 635.511 74.52C635.938 74.3467 636.291 74.0933 636.571 73.76C636.851 73.4267 636.991 73.02 636.991 72.54C636.991 72.0867 636.858 71.7 636.591 71.38C636.338 71.06 635.998 70.8133 635.571 70.64C635.158 70.4667 634.711 70.38 634.231 70.38C633.765 70.38 633.318 70.4733 632.891 70.66C632.478 70.8333 632.145 71.0867 631.891 71.42C631.638 71.74 631.511 72.1267 631.511 72.58ZM641.105 73.6C641.105 72.68 641.325 71.8533 641.765 71.12C642.218 70.3733 642.831 69.7867 643.605 69.36C644.378 68.92 645.238 68.7 646.185 68.7C647.211 68.7 648.105 68.9467 648.865 69.44C649.638 69.92 650.238 70.6133 650.665 71.52C651.105 72.4267 651.325 73.52 651.325 74.8C651.325 76.6667 651.105 78.2267 650.665 79.48C650.225 80.72 649.605 81.6533 648.805 82.28C648.005 82.8933 647.071 83.2 646.005 83.2C645.085 83.2 644.245 82.98 643.485 82.54C642.738 82.0867 642.151 81.46 641.725 80.66L642.805 79.6C643.098 80.2133 643.531 80.7067 644.105 81.08C644.691 81.4533 645.331 81.64 646.025 81.64C646.758 81.64 647.391 81.4267 647.925 81C648.471 80.56 648.898 79.9267 649.205 79.1C649.511 78.2733 649.665 77.2733 649.665 76.1C649.478 76.5533 649.198 76.9533 648.825 77.3C648.465 77.6467 648.045 77.9133 647.565 78.1C647.085 78.2867 646.565 78.38 646.005 78.38C645.098 78.38 644.271 78.1667 643.525 77.74C642.778 77.3133 642.185 76.74 641.745 76.02C641.318 75.2867 641.105 74.48 641.105 73.6ZM646.165 70.2C645.551 70.2 644.991 70.3533 644.485 70.66C643.978 70.9667 643.571 71.38 643.265 71.9C642.958 72.4067 642.805 72.9667 642.805 73.58C642.805 74.1933 642.958 74.7533 643.265 75.26C643.571 75.7667 643.978 76.1733 644.485 76.48C645.005 76.7867 645.571 76.94 646.185 76.94C646.798 76.94 647.358 76.7867 647.865 76.48C648.385 76.1733 648.798 75.7667 649.105 75.26C649.411 74.7533 649.565 74.2 649.565 73.6C649.565 72.9867 649.405 72.4267 649.085 71.92C648.778 71.4 648.365 70.9867 647.845 70.68C647.338 70.36 646.778 70.2 646.165 70.2ZM653.834 84.62L654.234 82.84H653.634V80.76H655.294V82.84L654.694 84.62H653.834ZM667.552 78.98C667.552 79.82 667.319 80.5533 666.852 81.18C666.399 81.8067 665.786 82.2933 665.012 82.64C664.252 82.9867 663.419 83.16 662.512 83.16C661.566 83.16 660.719 82.9733 659.972 82.6C659.226 82.2133 658.632 81.7 658.192 81.06C657.766 80.42 657.552 79.7 657.552 78.9C657.552 78.3133 657.686 77.7867 657.952 77.32C658.219 76.8533 658.552 76.46 658.952 76.14C659.366 75.8067 659.786 75.56 660.212 75.4C659.826 75.2267 659.466 75 659.132 74.72C658.799 74.44 658.532 74.1133 658.332 73.74C658.132 73.3667 658.032 72.96 658.032 72.52C658.032 71.92 658.166 71.3933 658.432 70.94C658.699 70.4733 659.052 70.08 659.492 69.76C659.932 69.44 660.419 69.2 660.952 69.04C661.486 68.88 662.019 68.8 662.552 68.8C663.086 68.8 663.619 68.88 664.152 69.04C664.686 69.2 665.172 69.44 665.612 69.76C666.066 70.0667 666.426 70.4533 666.692 70.92C666.959 71.3733 667.092 71.9 667.092 72.5C667.092 72.94 666.992 73.3533 666.792 73.74C666.592 74.1133 666.319 74.44 665.972 74.72C665.639 75 665.272 75.2267 664.872 75.4C665.352 75.5867 665.792 75.8533 666.192 76.2C666.606 76.5333 666.932 76.9333 667.172 77.4C667.426 77.8667 667.552 78.3933 667.552 78.98ZM665.772 78.86C665.772 78.4333 665.679 78.0533 665.492 77.72C665.306 77.3733 665.052 77.0867 664.732 76.86C664.412 76.62 664.059 76.44 663.672 76.32C663.299 76.2 662.919 76.14 662.532 76.14C661.999 76.14 661.486 76.2533 660.992 76.48C660.512 76.7067 660.119 77.0267 659.812 77.44C659.506 77.84 659.352 78.32 659.352 78.88C659.352 79.2933 659.446 79.6667 659.632 80C659.819 80.3333 660.066 80.62 660.372 80.86C660.692 81.1 661.039 81.28 661.412 81.4C661.799 81.52 662.186 81.58 662.572 81.58C663.106 81.58 663.612 81.4667 664.092 81.24C664.586 81.0133 664.986 80.6933 665.292 80.28C665.612 79.8667 665.772 79.3933 665.772 78.86ZM659.812 72.58C659.812 73.0467 659.952 73.4467 660.232 73.78C660.512 74.1133 660.866 74.3667 661.292 74.54C661.719 74.7 662.139 74.78 662.552 74.78C662.979 74.78 663.399 74.6933 663.812 74.52C664.239 74.3467 664.592 74.0933 664.872 73.76C665.152 73.4267 665.292 73.02 665.292 72.54C665.292 72.0867 665.159 71.7 664.892 71.38C664.639 71.06 664.299 70.8133 663.872 70.64C663.459 70.4667 663.012 70.38 662.532 70.38C662.066 70.38 661.619 70.4733 661.192 70.66C660.779 70.8333 660.446 71.0867 660.192 71.42C659.939 71.74 659.812 72.1267 659.812 72.58Z" fill="#2F2F2F"/>
</svg>
