<svg width="689" height="340" viewBox="0 0 689 340" fill="none" xmlns="http://www.w3.org/2000/svg">
<path d="M36 8L36 315.774" stroke="#F5F6F7"/>
<path d="M144 8L144 316" stroke="#F5F6F7"/>
<path d="M252 8L252 319" stroke="#F5F6F7"/>
<path d="M468 7L468 319" stroke="#F5F6F7"/>
<path d="M360 6L360 316" stroke="#F5F6F7"/>
<path d="M576 7L576 316" stroke="#F5F6F7"/>
<path d="M684 7L684 319" stroke="#F5F6F7"/>
<path d="M36 213L684 213" stroke="#F5F6F7"/>
<path d="M36 110L684 110" stroke="#F5F6F7"/>
<path d="M36 7H684" stroke="#F5F6F7"/>
<path d="M36 316L684 316" stroke="#F5F6F7"/>
<path d="M36 6L36 317" stroke="#F5F6F7"/>
<path d="M457.74 337.232H462.36V338H456.468V337.388L459.96 333.968C460.908 333.032 461.088 332.468 461.088 331.892C461.088 330.92 460.404 330.32 459.12 330.32C458.136 330.32 457.38 330.62 456.828 331.256L456.216 330.728C456.864 329.96 457.908 329.528 459.192 329.528C460.896 329.528 461.976 330.392 461.976 331.796C461.976 332.6 461.724 333.32 460.596 334.424L457.74 337.232ZM466.745 338.072C464.801 338.072 463.397 336.476 463.397 333.8C463.397 331.124 464.801 329.528 466.745 329.528C468.689 329.528 470.105 331.124 470.105 333.8C470.105 336.476 468.689 338.072 466.745 338.072ZM466.745 337.28C468.209 337.28 469.217 336.044 469.217 333.8C469.217 331.556 468.209 330.32 466.745 330.32C465.281 330.32 464.273 331.556 464.273 333.8C464.273 336.044 465.281 337.28 466.745 337.28ZM472.435 337.232H477.055V338H471.163V337.388L474.655 333.968C475.603 333.032 475.783 332.468 475.783 331.892C475.783 330.92 475.099 330.32 473.815 330.32C472.831 330.32 472.075 330.62 471.523 331.256L470.911 330.728C471.559 329.96 472.603 329.528 473.887 329.528C475.591 329.528 476.671 330.392 476.671 331.796C476.671 332.6 476.419 333.32 475.291 334.424L472.435 337.232ZM480.348 333.044C482.88 333.044 483.84 334.04 483.84 335.528C483.84 336.956 482.844 338.072 480.792 338.072C479.58 338.072 478.428 337.652 477.78 336.992L478.2 336.308C478.74 336.872 479.7 337.28 480.78 337.28C482.208 337.28 482.964 336.584 482.964 335.564C482.964 334.484 482.292 333.812 480.156 333.812H478.368L478.8 329.6H483.396V330.368H479.556L479.268 333.044H480.348Z" fill="#858C95"/>
<path d="M660.74 337.232H665.36V338H659.468V337.388L662.96 333.968C663.908 333.032 664.088 332.468 664.088 331.892C664.088 330.92 663.404 330.32 662.12 330.32C661.136 330.32 660.38 330.62 659.828 331.256L659.216 330.728C659.864 329.96 660.908 329.528 662.192 329.528C663.896 329.528 664.976 330.392 664.976 331.796C664.976 332.6 664.724 333.32 663.596 334.424L660.74 337.232ZM669.745 338.072C667.801 338.072 666.397 336.476 666.397 333.8C666.397 331.124 667.801 329.528 669.745 329.528C671.689 329.528 673.105 331.124 673.105 333.8C673.105 336.476 671.689 338.072 669.745 338.072ZM669.745 337.28C671.209 337.28 672.217 336.044 672.217 333.8C672.217 331.556 671.209 330.32 669.745 330.32C668.281 330.32 667.273 331.556 667.273 333.8C667.273 336.044 668.281 337.28 669.745 337.28ZM677.082 333.2C678.882 333.296 679.782 334.244 679.782 335.588C679.782 336.992 678.762 338.072 676.734 338.072C675.522 338.072 674.358 337.652 673.71 336.992L674.13 336.308C674.67 336.872 675.642 337.28 676.734 337.28C678.126 337.28 678.894 336.632 678.894 335.588C678.894 334.58 678.186 333.92 676.626 333.92H676.026V333.284L678.354 330.368H674.058V329.6H679.458V330.212L677.082 333.2ZM684.347 338.072C682.403 338.072 680.999 336.476 680.999 333.8C680.999 331.124 682.403 329.528 684.347 329.528C686.291 329.528 687.707 331.124 687.707 333.8C687.707 336.476 686.291 338.072 684.347 338.072ZM684.347 337.28C685.811 337.28 686.819 336.044 686.819 333.8C686.819 331.556 685.811 330.32 684.347 330.32C682.883 330.32 681.875 331.556 681.875 333.8C681.875 336.044 682.883 337.28 684.347 337.28Z" fill="#858C95"/>
<path d="M242.74 337.232H247.36V338H241.468V337.388L244.96 333.968C245.908 333.032 246.088 332.468 246.088 331.892C246.088 330.92 245.404 330.32 244.12 330.32C243.136 330.32 242.38 330.62 241.828 331.256L241.216 330.728C241.864 329.96 242.908 329.528 244.192 329.528C245.896 329.528 246.976 330.392 246.976 331.796C246.976 332.6 246.724 333.32 245.596 334.424L242.74 337.232ZM251.745 338.072C249.801 338.072 248.397 336.476 248.397 333.8C248.397 331.124 249.801 329.528 251.745 329.528C253.689 329.528 255.105 331.124 255.105 333.8C255.105 336.476 253.689 338.072 251.745 338.072ZM251.745 337.28C253.209 337.28 254.217 336.044 254.217 333.8C254.217 331.556 253.209 330.32 251.745 330.32C250.281 330.32 249.273 331.556 249.273 333.8C249.273 336.044 250.281 337.28 251.745 337.28ZM257.435 337.232H262.055V338H256.163V337.388L259.655 333.968C260.603 333.032 260.783 332.468 260.783 331.892C260.783 330.92 260.099 330.32 258.815 330.32C257.831 330.32 257.075 330.62 256.523 331.256L255.911 330.728C256.559 329.96 257.603 329.528 258.887 329.528C260.591 329.528 261.671 330.392 261.671 331.796C261.671 332.6 261.419 333.32 260.291 334.424L257.435 337.232ZM266.441 338.072C264.497 338.072 263.093 336.476 263.093 333.8C263.093 331.124 264.497 329.528 266.441 329.528C268.385 329.528 269.801 331.124 269.801 333.8C269.801 336.476 268.385 338.072 266.441 338.072ZM266.441 337.28C267.905 337.28 268.913 336.044 268.913 333.8C268.913 331.556 267.905 330.32 266.441 330.32C264.977 330.32 263.969 331.556 263.969 333.8C263.969 336.044 264.977 337.28 266.441 337.28Z" fill="#858C95"/>
<path d="M37.74 337.232H42.36V338H36.468V337.388L39.96 333.968C40.908 333.032 41.088 332.468 41.088 331.892C41.088 330.92 40.404 330.32 39.12 330.32C38.136 330.32 37.38 330.62 36.828 331.256L36.216 330.728C36.864 329.96 37.908 329.528 39.192 329.528C40.896 329.528 41.976 330.392 41.976 331.796C41.976 332.6 41.724 333.32 40.596 334.424L37.74 337.232ZM46.7454 338.072C44.8014 338.072 43.3974 336.476 43.3974 333.8C43.3974 331.124 44.8014 329.528 46.7454 329.528C48.6894 329.528 50.1054 331.124 50.1054 333.8C50.1054 336.476 48.6894 338.072 46.7454 338.072ZM46.7454 337.28C48.2094 337.28 49.2174 336.044 49.2174 333.8C49.2174 331.556 48.2094 330.32 46.7454 330.32C45.2814 330.32 44.2734 331.556 44.2734 333.8C44.2734 336.044 45.2814 337.28 46.7454 337.28ZM50.8033 329.6H53.6473V338H52.7833V330.368H50.8033V329.6ZM57.8633 333.044C60.3953 333.044 61.3553 334.04 61.3553 335.528C61.3553 336.956 60.3593 338.072 58.3073 338.072C57.0953 338.072 55.9433 337.652 55.2953 336.992L55.7153 336.308C56.2553 336.872 57.2153 337.28 58.2953 337.28C59.7233 337.28 60.4793 336.584 60.4793 335.564C60.4793 334.484 59.8073 333.812 57.6713 333.812H55.8833L56.3153 329.6H60.9113V330.368H57.0713L56.7833 333.044H57.8633Z" fill="#858C95"/>
<path d="M20.6313 319.072C18.6873 319.072 17.2833 317.476 17.2833 314.8C17.2833 312.124 18.6873 310.528 20.6313 310.528C22.5753 310.528 23.9913 312.124 23.9913 314.8C23.9913 317.476 22.5753 319.072 20.6313 319.072ZM20.6313 318.28C22.0953 318.28 23.1033 317.044 23.1033 314.8C23.1033 312.556 22.0953 311.32 20.6313 311.32C19.1673 311.32 18.1593 312.556 18.1593 314.8C18.1593 317.044 19.1673 318.28 20.6313 318.28Z" fill="#858C95"/>
<path d="M7.1445 212.044C9.6765 212.044 10.6365 213.04 10.6365 214.528C10.6365 215.956 9.6405 217.072 7.5885 217.072C6.3765 217.072 5.2245 216.652 4.5765 215.992L4.9965 215.308C5.5365 215.872 6.4965 216.28 7.5765 216.28C9.0045 216.28 9.7605 215.584 9.7605 214.564C9.7605 213.484 9.0885 212.812 6.9525 212.812H5.1645L5.5965 208.6H10.1925V209.368H6.3525L6.0645 212.044H7.1445ZM15.0814 217.072C13.1374 217.072 11.7334 215.476 11.7334 212.8C11.7334 210.124 13.1374 208.528 15.0814 208.528C17.0254 208.528 18.4414 210.124 18.4414 212.8C18.4414 215.476 17.0254 217.072 15.0814 217.072ZM15.0814 216.28C16.5454 216.28 17.5534 215.044 17.5534 212.8C17.5534 210.556 16.5454 209.32 15.0814 209.32C13.6174 209.32 12.6094 210.556 12.6094 212.8C12.6094 215.044 13.6174 216.28 15.0814 216.28ZM23.0267 217.072C21.0827 217.072 19.6787 215.476 19.6787 212.8C19.6787 210.124 21.0827 208.528 23.0267 208.528C24.9707 208.528 26.3867 210.124 26.3867 212.8C26.3867 215.476 24.9707 217.072 23.0267 217.072ZM23.0267 216.28C24.4907 216.28 25.4987 215.044 25.4987 212.8C25.4987 210.556 24.4907 209.32 23.0267 209.32C21.5627 209.32 20.5547 210.556 20.5547 212.8C20.5547 215.044 21.5627 216.28 23.0267 216.28Z" fill="#858C95"/>
<path d="M0.7955 105.6H3.6395V114H2.7755V106.368H0.7955V105.6ZM12.1361 114.072C10.1921 114.072 8.78806 112.476 8.78806 109.8C8.78806 107.124 10.1921 105.528 12.1361 105.528C14.0801 105.528 15.4961 107.124 15.4961 109.8C15.4961 112.476 14.0801 114.072 12.1361 114.072ZM12.1361 113.28C13.6001 113.28 14.6081 112.044 14.6081 109.8C14.6081 107.556 13.6001 106.32 12.1361 106.32C10.6721 106.32 9.66406 107.556 9.66406 109.8C9.66406 112.044 10.6721 113.28 12.1361 113.28ZM20.0814 114.072C18.1374 114.072 16.7334 112.476 16.7334 109.8C16.7334 107.124 18.1374 105.528 20.0814 105.528C22.0254 105.528 23.4414 107.124 23.4414 109.8C23.4414 112.476 22.0254 114.072 20.0814 114.072ZM20.0814 113.28C21.5454 113.28 22.5534 112.044 22.5534 109.8C22.5534 107.556 21.5454 106.32 20.0814 106.32C18.6174 106.32 17.6094 107.556 17.6094 109.8C17.6094 112.044 18.6174 113.28 20.0814 113.28ZM28.0267 114.072C26.0827 114.072 24.6787 112.476 24.6787 109.8C24.6787 107.124 26.0827 105.528 28.0267 105.528C29.9707 105.528 31.3867 107.124 31.3867 109.8C31.3867 112.476 29.9707 114.072 28.0267 114.072ZM28.0267 113.28C29.4907 113.28 30.4987 112.044 30.4987 109.8C30.4987 107.556 29.4907 106.32 28.0267 106.32C26.5627 106.32 25.5547 107.556 25.5547 109.8C25.5547 112.044 26.5627 113.28 28.0267 113.28Z" fill="#858C95"/>
<path d="M1.94394 2.48281H4.78794V10.8828H3.92394V3.25081H1.94394V2.48281ZM12.1445 5.92681C14.6765 5.92681 15.6365 6.92281 15.6365 8.41081C15.6365 9.83881 14.6405 10.9548 12.5885 10.9548C11.3765 10.9548 10.2245 10.5348 9.5765 9.87481L9.9965 9.19081C10.5365 9.75481 11.4965 10.1628 12.5765 10.1628C14.0045 10.1628 14.7605 9.46681 14.7605 8.44681C14.7605 7.36681 14.0885 6.69481 11.9525 6.69481H10.1645L10.5965 2.48281H15.1925V3.25081H11.3525L11.0645 5.92681H12.1445ZM20.0814 10.9548C18.1374 10.9548 16.7334 9.35881 16.7334 6.68281C16.7334 4.00681 18.1374 2.41081 20.0814 2.41081C22.0254 2.41081 23.4414 4.00681 23.4414 6.68281C23.4414 9.35881 22.0254 10.9548 20.0814 10.9548ZM20.0814 10.1628C21.5454 10.1628 22.5534 8.92681 22.5534 6.68281C22.5534 4.43881 21.5454 3.20281 20.0814 3.20281C18.6174 3.20281 17.6094 4.43881 17.6094 6.68281C17.6094 8.92681 18.6174 10.1628 20.0814 10.1628ZM28.0267 10.9548C26.0827 10.9548 24.6787 9.35881 24.6787 6.68281C24.6787 4.00681 26.0827 2.41081 28.0267 2.41081C29.9707 2.41081 31.3867 4.00681 31.3867 6.68281C31.3867 9.35881 29.9707 10.9548 28.0267 10.9548ZM28.0267 10.1628C29.4907 10.1628 30.4987 8.92681 30.4987 6.68281C30.4987 4.43881 29.4907 3.20281 28.0267 3.20281C26.5627 3.20281 25.5547 4.43881 25.5547 6.68281C25.5547 8.92681 26.5627 10.1628 28.0267 10.1628Z" fill="#858C95"/>
<path d="M53.3118 227V223.38H46.6318V221.8L53.8518 212.8H55.0718V221.78H56.8318V223.38H55.0718V227H53.3118ZM48.4718 221.78H53.4918V215.5L48.4718 221.78ZM58.5548 227C58.5548 226.2 58.6214 225.493 58.7548 224.88C58.9014 224.253 59.1081 223.693 59.3748 223.2C59.6548 222.707 59.9881 222.273 60.3748 221.9C60.7614 221.527 61.2014 221.193 61.6948 220.9C62.2148 220.593 62.7481 220.313 63.2948 220.06C63.8414 219.807 64.3481 219.54 64.8148 219.26C65.2814 218.98 65.6548 218.647 65.9348 218.26C66.2281 217.86 66.3748 217.367 66.3748 216.78C66.3748 216.313 66.2748 215.893 66.0748 215.52C65.8748 215.133 65.5748 214.827 65.1748 214.6C64.7748 214.373 64.2614 214.26 63.6348 214.26C63.0081 214.26 62.4414 214.367 61.9348 214.58C61.4414 214.793 61.0148 215.047 60.6548 215.34C60.2948 215.633 60.0081 215.913 59.7948 216.18L58.6548 215.04C58.7614 214.907 58.9481 214.707 59.2148 214.44C59.4948 214.173 59.8481 213.9 60.2748 213.62C60.7148 213.34 61.2281 213.107 61.8148 212.92C62.4014 212.72 63.0681 212.62 63.8148 212.62C64.8148 212.62 65.6481 212.807 66.3148 213.18C66.9814 213.553 67.4814 214.053 67.8148 214.68C68.1614 215.307 68.3348 216 68.3348 216.76C68.3348 217.44 68.2081 218.027 67.9548 218.52C67.7014 219 67.3748 219.407 66.9748 219.74C66.5748 220.073 66.1348 220.367 65.6548 220.62C65.1881 220.873 64.7348 221.113 64.2948 221.34C63.4548 221.74 62.7881 222.107 62.2948 222.44C61.8014 222.773 61.4214 223.1 61.1548 223.42C60.9014 223.727 60.7281 224.04 60.6348 224.36C60.5548 224.68 60.5081 225.027 60.4948 225.4H68.3548V227H58.5548ZM70.3116 217.6C70.3116 216.68 70.5316 215.853 70.9716 215.12C71.425 214.373 72.0383 213.787 72.8116 213.36C73.585 212.92 74.445 212.7 75.3916 212.7C76.4183 212.7 77.3116 212.947 78.0716 213.44C78.845 213.92 79.445 214.613 79.8716 215.52C80.3116 216.427 80.5316 217.52 80.5316 218.8C80.5316 220.667 80.3116 222.227 79.8716 223.48C79.4316 224.72 78.8116 225.653 78.0116 226.28C77.2116 226.893 76.2783 227.2 75.2116 227.2C74.2916 227.2 73.4516 226.98 72.6916 226.54C71.945 226.087 71.3583 225.46 70.9316 224.66L72.0116 223.6C72.305 224.213 72.7383 224.707 73.3116 225.08C73.8983 225.453 74.5383 225.64 75.2316 225.64C75.965 225.64 76.5983 225.427 77.1316 225C77.6783 224.56 78.105 223.927 78.4116 223.1C78.7183 222.273 78.8716 221.273 78.8716 220.1C78.685 220.553 78.405 220.953 78.0316 221.3C77.6716 221.647 77.2516 221.913 76.7716 222.1C76.2916 222.287 75.7716 222.38 75.2116 222.38C74.305 222.38 73.4783 222.167 72.7316 221.74C71.985 221.313 71.3916 220.74 70.9516 220.02C70.525 219.287 70.3116 218.48 70.3116 217.6ZM75.3716 214.2C74.7583 214.2 74.1983 214.353 73.6916 214.66C73.185 214.967 72.7783 215.38 72.4716 215.9C72.165 216.407 72.0116 216.967 72.0116 217.58C72.0116 218.193 72.165 218.753 72.4716 219.26C72.7783 219.767 73.185 220.173 73.6916 220.48C74.2116 220.787 74.7783 220.94 75.3916 220.94C76.005 220.94 76.565 220.787 77.0716 220.48C77.5916 220.173 78.005 219.767 78.3116 219.26C78.6183 218.753 78.7716 218.2 78.7716 217.6C78.7716 216.987 78.6116 216.427 78.2916 215.92C77.985 215.4 77.5716 214.987 77.0516 214.68C76.545 214.36 75.985 214.2 75.3716 214.2ZM83.0405 228.62L83.4405 226.84H82.8405V224.76H84.5005V226.84L83.9005 228.62H83.0405ZM86.6593 217.6C86.6593 216.68 86.8793 215.853 87.3193 215.12C87.7726 214.373 88.386 213.787 89.1593 213.36C89.9326 212.92 90.7926 212.7 91.7393 212.7C92.766 212.7 93.6593 212.947 94.4193 213.44C95.1926 213.92 95.7926 214.613 96.2193 215.52C96.6593 216.427 96.8793 217.52 96.8793 218.8C96.8793 220.667 96.6593 222.227 96.2193 223.48C95.7793 224.72 95.1593 225.653 94.3593 226.28C93.5593 226.893 92.626 227.2 91.5593 227.2C90.6393 227.2 89.7993 226.98 89.0393 226.54C88.2926 226.087 87.706 225.46 87.2793 224.66L88.3593 223.6C88.6526 224.213 89.086 224.707 89.6593 225.08C90.246 225.453 90.886 225.64 91.5793 225.64C92.3126 225.64 92.946 225.427 93.4793 225C94.026 224.56 94.4526 223.927 94.7593 223.1C95.066 222.273 95.2193 221.273 95.2193 220.1C95.0326 220.553 94.7526 220.953 94.3793 221.3C94.0193 221.647 93.5993 221.913 93.1193 222.1C92.6393 222.287 92.1193 222.38 91.5593 222.38C90.6526 222.38 89.826 222.167 89.0793 221.74C88.3326 221.313 87.7393 220.74 87.2993 220.02C86.8726 219.287 86.6593 218.48 86.6593 217.6ZM91.7193 214.2C91.106 214.2 90.546 214.353 90.0393 214.66C89.5326 214.967 89.126 215.38 88.8193 215.9C88.5126 216.407 88.3593 216.967 88.3593 217.58C88.3593 218.193 88.5126 218.753 88.8193 219.26C89.126 219.767 89.5326 220.173 90.0393 220.48C90.5593 220.787 91.126 220.94 91.7393 220.94C92.3526 220.94 92.9126 220.787 93.4193 220.48C93.9393 220.173 94.3526 219.767 94.6593 219.26C94.966 218.753 95.1193 218.2 95.1193 217.6C95.1193 216.987 94.9593 216.427 94.6393 215.92C94.3326 215.4 93.9193 214.987 93.3993 214.68C92.8926 214.36 92.3326 214.2 91.7193 214.2Z" fill="#2F2F2F"/>
<path d="M610.601 49.4V51H603.541V49.4H606.261V38.5C606.154 38.66 605.981 38.84 605.741 39.04C605.501 39.2267 605.221 39.4133 604.901 39.6C604.594 39.7733 604.281 39.92 603.961 40.04C603.641 40.16 603.347 40.22 603.081 40.22V38.58C603.441 38.58 603.801 38.4867 604.161 38.3C604.534 38.1133 604.874 37.8933 605.181 37.64C605.501 37.3867 605.754 37.16 605.941 36.96C606.141 36.76 606.247 36.6533 606.261 36.64H608.061V49.4H610.601ZM623.327 51V47.38H616.647V45.8L623.867 36.8H625.087V45.78H626.847V47.38H625.087V51H623.327ZM618.487 45.78H623.507V39.5L618.487 45.78ZM628.53 41.6C628.53 40.68 628.75 39.8533 629.19 39.12C629.644 38.3733 630.257 37.7867 631.03 37.36C631.804 36.92 632.664 36.7 633.61 36.7C634.637 36.7 635.53 36.9467 636.29 37.44C637.064 37.92 637.664 38.6133 638.09 39.52C638.53 40.4267 638.75 41.52 638.75 42.8C638.75 44.6667 638.53 46.2267 638.09 47.48C637.65 48.72 637.03 49.6533 636.23 50.28C635.43 50.8933 634.497 51.2 633.43 51.2C632.51 51.2 631.67 50.98 630.91 50.54C630.164 50.0867 629.577 49.46 629.15 48.66L630.23 47.6C630.524 48.2133 630.957 48.7067 631.53 49.08C632.117 49.4533 632.757 49.64 633.45 49.64C634.184 49.64 634.817 49.4267 635.35 49C635.897 48.56 636.324 47.9267 636.63 47.1C636.937 46.2733 637.09 45.2733 637.09 44.1C636.904 44.5533 636.624 44.9533 636.25 45.3C635.89 45.6467 635.47 45.9133 634.99 46.1C634.51 46.2867 633.99 46.38 633.43 46.38C632.524 46.38 631.697 46.1667 630.95 45.74C630.204 45.3133 629.61 44.74 629.17 44.02C628.744 43.2867 628.53 42.48 628.53 41.6ZM633.59 38.2C632.977 38.2 632.417 38.3533 631.91 38.66C631.404 38.9667 630.997 39.38 630.69 39.9C630.384 40.4067 630.23 40.9667 630.23 41.58C630.23 42.1933 630.384 42.7533 630.69 43.26C630.997 43.7667 631.404 44.1733 631.91 44.48C632.43 44.7867 632.997 44.94 633.61 44.94C634.224 44.94 634.784 44.7867 635.29 44.48C635.81 44.1733 636.224 43.7667 636.53 43.26C636.837 42.7533 636.99 42.2 636.99 41.6C636.99 40.9867 636.83 40.4267 636.51 39.92C636.204 39.4 635.79 38.9867 635.27 38.68C634.764 38.36 634.204 38.2 633.59 38.2ZM650.759 46.98C650.759 47.82 650.526 48.5533 650.059 49.18C649.606 49.8067 648.993 50.2933 648.219 50.64C647.459 50.9867 646.626 51.16 645.719 51.16C644.773 51.16 643.926 50.9733 643.179 50.6C642.433 50.2133 641.839 49.7 641.399 49.06C640.973 48.42 640.759 47.7 640.759 46.9C640.759 46.3133 640.893 45.7867 641.159 45.32C641.426 44.8533 641.759 44.46 642.159 44.14C642.573 43.8067 642.993 43.56 643.419 43.4C643.033 43.2267 642.673 43 642.339 42.72C642.006 42.44 641.739 42.1133 641.539 41.74C641.339 41.3667 641.239 40.96 641.239 40.52C641.239 39.92 641.373 39.3933 641.639 38.94C641.906 38.4733 642.259 38.08 642.699 37.76C643.139 37.44 643.626 37.2 644.159 37.04C644.693 36.88 645.226 36.8 645.759 36.8C646.293 36.8 646.826 36.88 647.359 37.04C647.893 37.2 648.379 37.44 648.819 37.76C649.273 38.0667 649.633 38.4533 649.899 38.92C650.166 39.3733 650.299 39.9 650.299 40.5C650.299 40.94 650.199 41.3533 649.999 41.74C649.799 42.1133 649.526 42.44 649.179 42.72C648.846 43 648.479 43.2267 648.079 43.4C648.559 43.5867 648.999 43.8533 649.399 44.2C649.813 44.5333 650.139 44.9333 650.379 45.4C650.633 45.8667 650.759 46.3933 650.759 46.98ZM648.979 46.86C648.979 46.4333 648.886 46.0533 648.699 45.72C648.513 45.3733 648.259 45.0867 647.939 44.86C647.619 44.62 647.266 44.44 646.879 44.32C646.506 44.2 646.126 44.14 645.739 44.14C645.206 44.14 644.693 44.2533 644.199 44.48C643.719 44.7067 643.326 45.0267 643.019 45.44C642.713 45.84 642.559 46.32 642.559 46.88C642.559 47.2933 642.653 47.6667 642.839 48C643.026 48.3333 643.273 48.62 643.579 48.86C643.899 49.1 644.246 49.28 644.619 49.4C645.006 49.52 645.393 49.58 645.779 49.58C646.313 49.58 646.819 49.4667 647.299 49.24C647.793 49.0133 648.193 48.6933 648.499 48.28C648.819 47.8667 648.979 47.3933 648.979 46.86ZM643.019 40.58C643.019 41.0467 643.159 41.4467 643.439 41.78C643.719 42.1133 644.073 42.3667 644.499 42.54C644.926 42.7 645.346 42.78 645.759 42.78C646.186 42.78 646.606 42.6933 647.019 42.52C647.446 42.3467 647.799 42.0933 648.079 41.76C648.359 41.4267 648.499 41.02 648.499 40.54C648.499 40.0867 648.366 39.7 648.099 39.38C647.846 39.06 647.506 38.8133 647.079 38.64C646.666 38.4667 646.219 38.38 645.739 38.38C645.273 38.38 644.826 38.4733 644.399 38.66C643.986 38.8333 643.653 39.0867 643.399 39.42C643.146 39.74 643.019 40.1267 643.019 40.58ZM653.212 52.62L653.612 50.84H653.012V48.76H654.672V50.84L654.072 52.62H653.212ZM664.331 49.4V51H657.271V49.4H659.991V38.5C659.885 38.66 659.711 38.84 659.471 39.04C659.231 39.2267 658.951 39.4133 658.631 39.6C658.325 39.7733 658.011 39.92 657.691 40.04C657.371 40.16 657.078 40.22 656.811 40.22V38.58C657.171 38.58 657.531 38.4867 657.891 38.3C658.265 38.1133 658.605 37.8933 658.911 37.64C659.231 37.3867 659.485 37.16 659.671 36.96C659.871 36.76 659.978 36.6533 659.991 36.64H661.791V49.4H664.331Z" fill="#2F2F2F"/>
<path d="M684 62.4997C684 62.4997 526 152 468.5 170.5C411 189 350.5 209.5 252 225.5C153.5 241.499 36 240 36 240" stroke="#2D6FD0" stroke-width="2"/>
<path d="M684 68C682.674 68 681.403 67.4734 680.465 66.536C679.527 65.5986 679 64.3271 679 63.0013C679 61.6754 679.526 60.4037 680.463 59.4658C681.4 58.5279 682.672 58.0007 683.998 58C685.323 57.9993 686.595 58.5253 687.533 59.4623C688.471 60.3992 688.999 61.6704 689 62.9962C689.001 64.3221 688.475 65.5941 687.539 66.5324C686.602 67.4708 685.331 67.9987 684.005 68H684Z" fill="#2D6FD0"/>
<path d="M468 175C466.674 175 465.403 174.473 464.465 173.536C463.527 172.599 463 171.327 463 170.001C463 168.675 463.526 167.404 464.463 166.466C465.4 165.528 466.672 165.001 467.998 165C469.323 164.999 470.595 165.525 471.533 166.462C472.471 167.399 472.999 168.67 473 169.996C473.001 171.322 472.475 172.594 471.539 173.532C470.602 174.471 469.331 174.999 468.005 175H468Z" fill="#2D6FD0"/>
<path d="M252 230C250.674 230 249.403 229.473 248.465 228.536C247.527 227.599 247 226.327 247 225.001C247 223.675 247.526 222.404 248.463 221.466C249.4 220.528 250.672 220.001 251.998 220C253.323 219.999 254.595 220.525 255.533 221.462C256.471 222.399 256.999 223.67 257 224.996C257.001 226.322 256.475 227.594 255.539 228.532C254.602 229.471 253.331 229.999 252.005 230H252Z" fill="#2D6FD0"/>
<path d="M36 245C34.6741 245 33.4025 244.473 32.4649 243.536C31.5273 242.599 31.0003 241.327 31 240.001C30.9997 238.675 31.526 237.404 32.4631 236.466C33.4003 235.528 34.6716 235.001 35.9975 235C37.3234 234.999 38.5952 235.525 39.5333 236.462C40.4714 237.399 40.999 238.67 41 239.996C41.001 241.322 40.4753 242.594 39.5386 243.532C38.6019 244.471 37.3309 244.999 36.005 245H36Z" fill="#2D6FD0"/>
</svg>
